<svg xmlns="http://www.w3.org/2000/svg" width="1240" height="600" viewBox="0 0 1240 600">
  <g id="Capa_1" data-name="Capa 1" transform="translate(0 2.22)">
    <rect id="Rectángulo_38931" data-name="Rectángulo 38931" width="1240" height="600" transform="translate(0 -2.22)" fill="none"/>
    <path id="Trazado_185202" data-name="Trazado 185202" d="M469.36,226.41a38.29,38.29,0,0,1,38.25-38.25H609.8V90.1a18.25,18.25,0,0,0-18.24-18.25h-278A18.25,18.25,0,0,0,295.33,90.1V269.34a18.25,18.25,0,0,0,18.25,18.24H469.36Z" fill="#91e6dd"/>
    <path id="Trazado_185203" data-name="Trazado 185203" d="M507.61,407.4a38.29,38.29,0,0,1-38.25-38.25V308H313.58a18.25,18.25,0,0,0-18.25,18.24V505.46a18.25,18.25,0,0,0,18.25,18.25h278a18.25,18.25,0,0,0,18.24-18.25V407.4Z" fill="#9ad7f5"/>
    <path id="Trazado_185204" data-name="Trazado 185204" d="M926.42,308H770.64v61.17a38.29,38.29,0,0,1-38.25,38.25H630.2v98.06a18.25,18.25,0,0,0,18.24,18.25h278a18.25,18.25,0,0,0,18.25-18.25V326.22A18.25,18.25,0,0,0,926.42,308Z" fill="#ffecb1"/>
    <path id="Trazado_185205" data-name="Trazado 185205" d="M926.42,71.85h-278A18.25,18.25,0,0,0,630.2,90.1v98.06H732.39a38.29,38.29,0,0,1,38.25,38.25v61.17H926.42a18.25,18.25,0,0,0,18.25-18.24V90.1a18.25,18.25,0,0,0-18.25-18.25Z" fill="#c2d2e4"/>
    <rect id="Rectángulo_38932" data-name="Rectángulo 38932" width="261.28" height="179.24" rx="18.25" transform="translate(489.36 208.16)" fill="#12263f"/>
    <text id="ISO_IEC_2501n:_División_para_el_modelo_de_la_calidad" data-name="ISO/IEC 2501n:
División para el modelo de la 
calidad" transform="translate(315.3 107.23)" fill="#12263f" font-size="20" font-family="SegoeUI-Bold, Segoe UI" font-weight="700"><tspan x="0" y="0">ISO/IEC 2501n:</tspan><tspan font-size="18" font-family="SegoeUI, Segoe UI" font-weight="400"><tspan x="0" y="21.6">División pa</tspan><tspan y="21.6" letter-spacing="-0.02em">r</tspan><tspan y="21.6">a el modelo de la </tspan><tspan x="0" y="43.2">calidad</tspan></tspan></text>
    <text id="División_para" data-name="División para" transform="translate(584.08 354.24)" fill="#fff" font-size="18" font-family="SegoeUI, Segoe UI"><tspan x="0" y="0">División pa</tspan><tspan y="0" letter-spacing="-0.02em">r</tspan><tspan y="0">a</tspan></text>
    <text id="ISO_IEC_2503n:_División_para_los_requisitos_de_la_calidad" data-name="ISO/IEC 2503n:
División para los requisitos de la 
calidad" transform="translate(315.3 450.7)" fill="#12263f" font-size="20" font-family="SegoeUI-Bold, Segoe UI" font-weight="700"><tspan x="0" y="0">ISO/IEC 2503n:</tspan><tspan font-size="18" font-family="SegoeUI, Segoe UI" font-weight="400"><tspan x="0" y="21.6">División pa</tspan><tspan y="21.6" letter-spacing="-0.02em">r</tspan><tspan y="21.6">a los </tspan><tspan y="21.6" letter-spacing="-0.01em">r</tspan><tspan y="21.6">equisi</tspan><tspan y="21.6" letter-spacing="-0.01em">t</tspan><tspan y="21.6">os de la </tspan><tspan x="0" y="43.2">calidad</tspan></tspan></text>
    <text id="ISO_IEC_2504n:_División_para_la_evaluación_de_la_calidad" data-name="ISO/IEC 2504n: 
División para la evaluación de la 
calidad" transform="translate(653.81 450.7)" fill="#12263f" font-size="20" font-family="SegoeUI-Bold, Segoe UI" font-weight="700"><tspan x="0" y="0">ISO/IEC 2504n: </tspan><tspan font-size="18" font-family="SegoeUI, Segoe UI" font-weight="400"><tspan x="0" y="21.6">División pa</tspan><tspan y="21.6" letter-spacing="-0.02em">r</tspan><tspan y="21.6">a la </tspan><tspan y="21.6" letter-spacing="-0.01em">ev</tspan><tspan y="21.6">aluación de la </tspan><tspan x="0" y="43.2">calidad</tspan></tspan></text>
    <text id="ISO_IEC_2502n:_División_para_la_medición_de_la_calidad" data-name="ISO/IEC 2502n: 
División para la medición de la 
calidad" transform="translate(668.41 107.23)" fill="#12263f" font-size="20" font-family="SegoeUI-Bold, Segoe UI" font-weight="700"><tspan x="0" y="0">ISO/IEC 2502n: </tspan><tspan font-size="18" font-family="SegoeUI, Segoe UI" font-weight="400"><tspan x="0" y="21.6">División pa</tspan><tspan y="21.6" letter-spacing="-0.02em">r</tspan><tspan y="21.6">a la medición de la </tspan><tspan x="0" y="43.2">calidad</tspan></tspan></text>
    <path id="Trazado_185206" data-name="Trazado 185206" d="M991.38,95.52l10.26,1a2.28,2.28,0,0,1,1.89,1.46c.39,1,.82,2,1.3,3a39,39,0,0,0,3,5.29,2.26,2.26,0,0,1,0,2.54l-6,9a2.22,2.22,0,0,0,.48,3l7.72,6.12a2.18,2.18,0,0,0,2.91-.17l7-7.06a2.19,2.19,0,0,1,2.6-.42,39.732,39.732,0,0,0,12,3.84,2.26,2.26,0,0,1,1.89,2l.56,6a2.3,2.3,0,0,0,2.23,2.06l9.78.11a1.849,1.849,0,0,0,.58-.06,2.18,2.18,0,0,0,1.67-1.94l.77-7.67.19-1.87a38.44,38.44,0,0,0,5.19-2,39.8,39.8,0,0,0,6.4-3.79,2.18,2.18,0,0,1,2.52-.07l7.24,4.8a2.26,2.26,0,0,0,3-.49l4.69-5.9,1.34-1.69a2.31,2.31,0,0,0-.18-3.08l-5.9-5.84a2.19,2.19,0,0,1-.46-2.54,39.881,39.881,0,0,0,2.8-8,5.362,5.362,0,0,0,.17-.69,1,1,0,0,1,.07-.23,2.24,2.24,0,0,1,1.95-1.55l9.76-.94a1.639,1.639,0,0,0,.32,0,2.28,2.28,0,0,0,1.73-2.16l.13-9.76a2.27,2.27,0,0,0-2-2.29l-10.71-1.06a2.19,2.19,0,0,1-1.91-1.59,41.163,41.163,0,0,0-2.2-5.71c-.48-1-1-2-1.53-2.9a2.33,2.33,0,0,1,.07-2.44l5.72-8.65a2.21,2.21,0,0,0-.47-3l-7.65-6.06a2.32,2.32,0,0,0-3.09.19l-5.52,5.59a2.27,2.27,0,0,1-2.78.36,40,40,0,0,0-11.34-4.65,2.26,2.26,0,0,1-1.75-2l-.84-8.8a2.33,2.33,0,0,0-2.28-2.1l-9.72-.13a2.22,2.22,0,0,0-2.25,2v.45l-.9,8.91a2.29,2.29,0,0,1-1.68,2h0a39.188,39.188,0,0,0-6.57,2.43c-1.15.55-2.25,1.15-3.33,1.79a2.24,2.24,0,0,1-2.4-.05l-7.35-4.87a2.32,2.32,0,0,0-3.1.49l-6,7.61a2.25,2.25,0,0,0-.37.7,2.32,2.32,0,0,0,.55,2.33l4.73,4.64a2.32,2.32,0,0,1,.6,2.19,2.748,2.748,0,0,1-.25.59,39.65,39.65,0,0,0-5.22,14.76,2.22,2.22,0,0,1-1.62,1.84,1.59,1.59,0,0,1-.38.07l-7.9.75a2.26,2.26,0,0,0-2.05,2.22v.23l-.13,9.51a2.31,2.31,0,0,0,2.02,2.35ZM1061.6,80.8a26.063,26.063,0,0,1,.37,4.92,20.818,20.818,0,0,1-3.8,10.69c-.22.28-.44.55-.67.81-13.71,16.11-38.64,7-38.47-14.47a21.709,21.709,0,0,1,2.81-9.44,14.3,14.3,0,0,1,1.17-1.72,24.188,24.188,0,0,1,6.2-5.56A21.36,21.36,0,0,1,1061.6,80.8Z" fill="#6b98f6" opacity="0.5"/>
    <path id="Trazado_185207" data-name="Trazado 185207" d="M1108.68,70.32l6.54,1.6a1.5,1.5,0,0,1,1.09,1.12c.15.7.34,1.39.56,2.09a26,26,0,0,0,1.46,3.69,1.49,1.49,0,0,1-.21,1.65l-4.67,5.26a1.45,1.45,0,0,0,0,2l4.43,4.67a1.44,1.44,0,0,0,1.9.16L1125,88.6a1.45,1.45,0,0,1,1.73,0,26,26,0,0,0,7.38,3.58,1.48,1.48,0,0,1,1,1.48l-.19,3.94a1.49,1.49,0,0,0,1.25,1.53l6.31,1a1.23,1.23,0,0,0,.38,0,1.45,1.45,0,0,0,1.26-1.1l1.2-4.89.29-1.19a25.006,25.006,0,0,0,3.55-.84,26.212,26.212,0,0,0,4.48-1.86,1.42,1.42,0,0,1,1.64.19l4.24,3.76a1.49,1.49,0,0,0,2,0l3.57-3.39,1-1a1.51,1.51,0,0,0,.17-2L1163,83.45a1.44,1.44,0,0,1-.06-1.69,25.594,25.594,0,0,0,2.54-4.9c.07-.15.12-.29.17-.43a1.012,1.012,0,0,1,.07-.15,1.46,1.46,0,0,1,1.4-.82l6.4.29a1.47,1.47,0,0,0,.21,0,1.51,1.51,0,0,0,1.32-1.24l1-6.3a1.49,1.49,0,0,0-1.12-1.67l-6.82-1.67a1.42,1.42,0,0,1-1.09-1.2,27,27,0,0,0-.9-3.89c-.22-.69-.46-1.36-.72-2a1.53,1.53,0,0,1,.27-1.57l4.49-5.06a1.47,1.47,0,0,0,0-2l-4.39-4.61a1.52,1.52,0,0,0-2-.17l-4.08,3.11a1.49,1.49,0,0,1-1.83,0,26.181,26.181,0,0,0-6.9-4,1.46,1.46,0,0,1-1-1.45l.27-5.77a1.54,1.54,0,0,0-1.28-1.57l-6.28-1a1.45,1.45,0,0,0-1.64,1.09l-.07.29-1.4,5.68a1.5,1.5,0,0,1-1.27,1.12h0a24.661,24.661,0,0,0-4.47,1c-.79.24-1.56.53-2.31.84a1.44,1.44,0,0,1-1.55-.25l-4.3-3.82a1.51,1.51,0,0,0-2.05,0L1119,44a1.628,1.628,0,0,0-.3.42,1.52,1.52,0,0,0,.14,1.56l2.63,3.44a1.51,1.51,0,0,1,.19,1.46,1.652,1.652,0,0,1-.22.36,26,26,0,0,0-4.73,9.07,1.45,1.45,0,0,1-1.21,1h-.25l-5.18-.24a1.48,1.48,0,0,0-1.53,1.24v.15l-1,6.13a1.5,1.5,0,0,0,1.14,1.73Zm46.75-3.07a17.892,17.892,0,0,1-.21,3.22,13.679,13.679,0,0,1-3.45,6.56l-.5.47c-10.34,9.15-25.62,1-23.54-12.9a14.08,14.08,0,0,1,2.68-5.84,9.241,9.241,0,0,1,.92-1,16.062,16.062,0,0,1,4.51-3,14,14,0,0,1,19.59,12.49Z" fill="#dceaff"/>
    <path id="Trazado_185208" data-name="Trazado 185208" d="M1058.27,207.35l16.18,1.87a3.62,3.62,0,0,1,3,2.36,51.425,51.425,0,0,0,2,4.84,60.843,60.843,0,0,0,4.63,8.42,3.56,3.56,0,0,1,0,4l-9.62,14a3.51,3.51,0,0,0,.67,4.71l12,9.88a3.46,3.46,0,0,0,4.6-.2l11.2-11a3.46,3.46,0,0,1,4.13-.59,62.871,62.871,0,0,0,18.79,6.37,3.58,3.58,0,0,1,2.93,3.24l.73,9.51a3.63,3.63,0,0,0,3.46,3.31l15.45.43a3.47,3.47,0,0,0,3.61-3.1l1.41-12.09.34-2.95a62.689,62.689,0,0,0,18.45-8.89,3.47,3.47,0,0,1,4,0l11.3,7.77a3.6,3.6,0,0,0,4.82-.69l7.56-9.19,2.16-2.64a3.65,3.65,0,0,0-.2-4.87l-9.16-9.37a3.46,3.46,0,0,1-.67-4,62.8,62.8,0,0,0,4.64-12.54,10.071,10.071,0,0,0,.28-1.08,1.883,1.883,0,0,1,.11-.36,3.55,3.55,0,0,1,3.13-2.4l15.43-1.22a2.169,2.169,0,0,0,.52-.08,3.61,3.61,0,0,0,2.78-3.37l.46-15.4a3.59,3.59,0,0,0-3.18-3.67l-16.88-2a3.47,3.47,0,0,1-3-2.57,64.446,64.446,0,0,0-3.32-9.07q-1.08-2.37-2.34-4.62a3.66,3.66,0,0,1,.18-3.85l9.25-13.5a3.5,3.5,0,0,0-.66-4.68l-11.91-9.75a3.66,3.66,0,0,0-4.89.21l-8.86,8.67a3.57,3.57,0,0,1-4.4.5,62.869,62.869,0,0,0-17.79-7.63,3.57,3.57,0,0,1-2.7-3.2L1147.72,113a3.7,3.7,0,0,0-3.55-3.38l-15.35-.47a3.53,3.53,0,0,0-3.61,3.13l-.09.71-1.64,14a3.62,3.62,0,0,1-2.72,3.09h0a62,62,0,0,0-10.43,3.67c-1.83.83-3.58,1.74-5.31,2.72a3.54,3.54,0,0,1-3.79-.13l-11.47-7.89a3.66,3.66,0,0,0-4.9.69L1075.14,141a4,4,0,0,0-.62,1.1,3.66,3.66,0,0,0,.82,3.69l7.34,7.46a3.63,3.63,0,0,1,.89,3.46,3.793,3.793,0,0,1-.4.93,62.548,62.548,0,0,0-8.64,23.17,3.53,3.53,0,0,1-2.6,2.87,2.889,2.889,0,0,1-.6.09l-12.5,1a3.59,3.59,0,0,0-3.3,3.45v.36l-.46,15A3.65,3.65,0,0,0,1058.27,207.35ZM1169.54,186a41.849,41.849,0,0,1,.46,7.78c-.19,5.18-3,12.77-6.29,16.78l-1.07,1.27c-22.07,25.07-61.2,10-60.37-23.87.12-4.43,2.08-10.46,4.68-14.82a21.569,21.569,0,0,1,1.9-2.7,38.81,38.81,0,0,1,9.93-8.62A33.75,33.75,0,0,1,1169.54,186Z" fill="#c8defb"/>
    <g id="Grupo_92549" data-name="Grupo 92549">
      <path id="Trazado_185209" data-name="Trazado 185209" d="M1012.28,529.27s0-5.74.82-7.64,3.81-9.67,3.81-9.67h11.71s2.18,7.08,2.32,9.4,0,7.91,0,7.91Z" fill="#1e3865"/>
      <path id="Trazado_185210" data-name="Trazado 185210" d="M1086.62,529.27s0-5.74-.82-7.64S1082,512,1082,512h-11.71s-2.17,7.08-2.31,9.4,0,7.91,0,7.91Z" fill="#1e3865"/>
      <path id="Trazado_185211" data-name="Trazado 185211" d="M1039.72,207.55s-.42,12.77-2,18.49l-12.93,9,48.67,7.29-11.61-16s-3.5-17.11-1.66-23.44S1039.72,207.55,1039.72,207.55Z" fill="#ffae73"/>
      <path id="Trazado_185212" data-name="Trazado 185212" d="M1039.65,209.32s3.84,9.26,11.09,9.06,8.9-8.4,8.9-8.4Z" fill="#f99352"/>
      <path id="Trazado_185213" data-name="Trazado 185213" d="M1035.32,201.82s-2.34-11.69-4-15.23-3-19.33,15.12-20.15c0,0,6.94.82,10.75-1.5,0,0,0,2.32-1,3.13a12,12,0,0,1,11.16,4c4.9,5.45-3.27,24.51-2.86,29Z" fill="#2a3967"/>
      <path id="Trazado_185214" data-name="Trazado 185214" d="M1049.91,214.8c-5.25-.1-14.92-7.09-14.92-15.75V185.53c0-3.16,2.21-5.75,4.9-5.75h20c2.7,0,4.9,2.59,4.9,5.75v12.75C1064.83,207.37,1055.94,214.9,1049.91,214.8Z" fill="#ffae73"/>
      <path id="Trazado_185215" data-name="Trazado 185215" d="M1035,192.75s0-8.12,6.46-9.37,20.83,4,22.87-2-27.82-5.82-29.33-2S1035,192.75,1035,192.75Z" fill="#2a3967"/>
      <path id="Trazado_185216" data-name="Trazado 185216" d="M1013.75,330.77s2,62.55-1,98.24,0,85.36,0,85.36,9.8,5.4,20.41,0c0,0,11.65-68.95,11.58-85.36-.08-17.48,12.67-95.52,12.67-95.52Z" fill="#6b98f6"/>
      <path id="Trazado_185217" data-name="Trazado 185217" d="M1086.2,514.37s-9.8,5.4-20.41,0c0,0-11.65-68.95-11.57-85.36,0-7.38-2.23-25.57-4.84-44.11-3.59-25.37-7.84-51.41-7.84-51.41l45.36-2.83s-3.74,62.66-.68,98.35S1086.2,514.37,1086.2,514.37Z" fill="#6b98f6"/>
      <path id="Trazado_185218" data-name="Trazado 185218" d="M1086.36,341.17s-19.34,3.75-37,3.75a179,179,0,0,1-22.72-1.74c-7.36-1-12.63-2-12.63-2s-3.92.35-1.61-19c1.76-14.71,1.21-28,.82-41.65,0-1.52,0-3.32.08-5.32.75-15.93,5.57-44.62,9.24-46.16a67,67,0,0,1,15.11-3c0,.18,5.6,8.37,12.24,9.29,4.13-1.64,7.38-3,11.89-9a130.181,130.181,0,0,1,18.64,3.59s.69,3,3.32,55.76C1084.8,306.53,1091.92,341.24,1086.36,341.17Z" fill="#ff912b"/>
      <path id="Trazado_185219" data-name="Trazado 185219" d="M1054.22,429c0-7.38-2.23-25.57-4.84-44.11,2.71-11.08,9.33-21.74,9.33-21.74C1067.08,386.65,1054.22,429,1054.22,429Z" fill="#577bec"/>
      <path id="Trazado_185220" data-name="Trazado 185220" d="M995,289.73c-.87,2.75,1.55,6.45,3.92,11.64,4.88,10.67,13,26.43,13,26.43a46.385,46.385,0,0,1-2.46,7.2c-13.63-10.7-22.41-19.81-28-26.8-7.88-9.82-8.53-19.74-7.07-24,17.51-51.49,49.26-55.45,49.26-55.45l-2.52,40.81S996.77,284.08,995,289.73Z" fill="#ff912b"/>
      <path id="Trazado_185221" data-name="Trazado 185221" d="M1010.24,328.58s7.35-6.8,10.35-3,3.54,9.8,1.22,9.39-7.08-2.59-7.76-1.5-3.73,3.17-4.65,1.52S1010.24,328.58,1010.24,328.58Z" fill="#ffae73"/>
      <path id="Trazado_185222" data-name="Trazado 185222" d="M1011.86,327.8a46.376,46.376,0,0,1-2.46,7.2c-13.63-10.7-22.41-19.81-28-26.8,4.23-.31,10.4-1.82,17.5-6.83C1003.76,312,1011.86,327.8,1011.86,327.8Z" fill="#ffae73"/>
      <path id="Trazado_185223" data-name="Trazado 185223" d="M1127.92,288.31c.13,3.2-.51,10.07-8.39,19.89-5.61,7-14.39,16.1-28,26.8a47.7,47.7,0,0,1-2.46-7.2s8.1-15.76,13-26.43c2.37-5.19,4.06-7.61,3.52-9.56-1.75-6.22-16.39-14.88-22.54-19.54a27,27,0,0,1-3.15-2.74l.58-39.64s8.06,2,13,7C1113.7,257.08,1127.32,273.33,1127.92,288.31Z" fill="#ff912b"/>
      <path id="Trazado_185224" data-name="Trazado 185224" d="M1090.67,328.58s-7.35-6.8-10.35-3-3.54,9.8-1.22,9.39,7.08-2.59,7.76-1.5,3.73,3.17,4.65,1.52S1090.67,328.58,1090.67,328.58Z" fill="#ffae73"/>
      <path id="Trazado_185225" data-name="Trazado 185225" d="M1089.05,327.8a46.39,46.39,0,0,0,2.46,7.2c13.63-10.7,22.41-19.81,28-26.8-4.23-.31-10.4-1.82-17.5-6.83C1097.15,312,1089.05,327.8,1089.05,327.8Z" fill="#ffae73"/>
      <path id="Trazado_185226" data-name="Trazado 185226" d="M1038.35,222.92a5.19,5.19,0,0,0-2.78,3.35s8.67,8.92,14.34,9.06Z" fill="#25468f"/>
      <path id="Trazado_185227" data-name="Trazado 185227" d="M1049.91,235.33l11.19-12.86a5.26,5.26,0,0,1,2.28,4S1054.73,235.67,1049.91,235.33Z" fill="#25468f"/>
      <path id="Trazado_185228" data-name="Trazado 185228" d="M1047.9,234.38s-8.54,73.72-5.57,82.71a61.639,61.639,0,0,0,5.21,11.42,3,3,0,0,0,5.24,0c2.27-3.94,5.23-9.64,5.23-12.53,0-4.68-6.48-81.65-6.48-81.65Z" fill="#25468f"/>
      <path id="Trazado_185229" data-name="Trazado 185229" d="M1045.66,230.9a37,37,0,0,1,8.31-.28c.62.09,1,1.08.66,1.88-.88,2.31-2.68,6.31-4.55,6.31C1047.44,238.81,1043.32,231.17,1045.66,230.9Z" fill="#25468f"/>
      <path id="Trazado_185230" data-name="Trazado 185230" d="M1045.73,206.09a5.73,5.73,0,0,0,4.49,2.13,5.31,5.31,0,0,0,4.2-2.13,28.49,28.49,0,0,0-8.69,0Z" fill="#fff"/>
    </g>
    <g id="Grupo_92550" data-name="Grupo 92550">
      <path id="Trazado_185231" data-name="Trazado 185231" d="M134.62,267.46c-.83-2.49,11.27,5.14,25.69.3,12.43-4.16,1.22-12.27,4.39-22.57,2.25-7.32,1.54-27-17.67-27.8,0,0-4.62-2.8-11.29-.58C120.57,221.85,89,271.05,134.62,267.46Z" fill="#0b3563"/>
      <path id="Trazado_185232" data-name="Trazado 185232" d="M155.66,312.57a50.65,50.65,0,0,0,5.14,7.76c4,5,24.93-6.86,23.13-7.76s-12-29.85-16.32-35a18.39,18.39,0,0,0-9.56-5.83Z" fill="#6b98f6"/>
      <path id="Trazado_185233" data-name="Trazado 185233" d="M85,517.05s-5.78,5.27-4.65,9,6.34,6.25,7,10.83,3.56,7.12,6.1,7.12h12.1s1.87-3.22-2.64-4.2-6.22-6.35-5.94-11.35a86.768,86.768,0,0,0-.42-11.66L87,514.55Z" fill="#143057"/>
      <path id="Trazado_185234" data-name="Trazado 185234" d="M133.92,519.29s-2.08,22.34.45,23.59l32.48-.06s0-3.75-5.22-4.58-14.38-3.89-15.93-10.69S133.92,519.29,133.92,519.29Z" fill="#143057"/>
      <path id="Trazado_185235" data-name="Trazado 185235" d="M108.93,297.49a130.6,130.6,0,0,0,0,15c.32,5.42,5.81,12.69,6.59,14.49,2,4.51,4.16,5.24,4.16,5.24l17,4.18,6,1.47,18.91-5.65s8.61-24,5.15-37.56A104.238,104.238,0,0,0,158,271.73s-12.85-2.89-35.52-1.28Z" fill="#6b98f6"/>
      <path id="Trazado_185236" data-name="Trazado 185236" d="M107.31,312.7c.32,5.42,7.43,12.5,8.21,14.3,2,4.51,4.16,5.24,4.16,5.24l17,4.18,4.55-6.41s-27.6-7.68-22.37-32Z" fill="#577bec"/>
      <path id="Trazado_185237" data-name="Trazado 185237" d="M160.43,335.89S169.8,365,170.4,375s-17.9,141-18.64,145.53c-.71,4.31-6.06,7.06-6.06,7.06a8.1,8.1,0,0,1-6,.46c-4.88-1.38-6.42-3-6.42-3S126,431.6,130.51,398.22a528.454,528.454,0,0,0,4.56-62.26Z" fill="#fc7600"/>
      <path id="Trazado_185238" data-name="Trazado 185238" d="M120.76,335s-14.28,19.17-15.61,32.12-2.09,58.46-4.93,71.09S87,475.16,87,514.55A7.83,7.83,0,0,0,91.39,518a38,38,0,0,0,3.9,1.08,6.13,6.13,0,0,0,6.85-3.25c7-14.19,29.49-60,30.64-69.45.81-6.72,7.9-51.2,23.36-77.31,3.71-6.27-2.28-31.19-2.28-31.19Z" fill="#ff912b"/>
      <path id="Trazado_185239" data-name="Trazado 185239" d="M161.93,331.39s-3.76,3-11.23,3.13c-8.92.18-31-2.28-31-2.28a18.36,18.36,0,0,0-.94,5.64s27,6.81,42.63,1C161.37,338.88,163.39,335.08,161.93,331.39Z" fill="#577bec"/>
      <path id="Trazado_185240" data-name="Trazado 185240" d="M148.77,337.6a4.1,4.1,0,1,1,4.07,4.6A4.37,4.37,0,0,1,148.77,337.6Zm1.35,0a2.76,2.76,0,1,0,2.72-3.26,3,3,0,0,0-2.72,3.26Z" fill="#fff"/>
      <path id="Trazado_185241" data-name="Trazado 185241" d="M133.34,350.58l40.57.38,19.97-46.91-40.57-.38Z" fill="#0b3563"/>
      <path id="Trazado_185242" data-name="Trazado 185242" d="M138.65,329.38l3-3.65a10.35,10.35,0,0,1,3.47-2.1c1.47-.31,4.55-2.09,4.85-1.59s-2.37,4.08-2.37,4.08h-.14c3.07,2.3,10.8.27,11.75,1.21,1.16,1.14-1.59,3.6-3.06,5s-5.7,3.69-9,2.67c-2.4-.75-6.18-1.51-6.18-1.51Z" fill="#ffae73"/>
      <path id="Trazado_185243" data-name="Trazado 185243" d="M190.82,312.3s-2.54-2.9-4.17-1.51.43,8.23,2,7.54S191.71,313.15,190.82,312.3Z" fill="#ffae73"/>
      <path id="Trazado_185244" data-name="Trazado 185244" d="M122.53,270.47S109,271.42,103.82,284,89.1,317.38,91.15,326.07c.82,3.47,10.67,15.47,51.77,7.84,0,0-.33-4.3-3.11-6.31,0,0-29-9.3-28.91-11.15.1-3.5,3.92-6.52,20.09-22.7C135.39,289.35,122.53,270.47,122.53,270.47Z" fill="#6b98f6"/>
      <path id="Trazado_185245" data-name="Trazado 185245" d="M131.47,271.08c-.4-.53.11-2.24.75-5.42a59.151,59.151,0,0,0,1.54-12.33l.86.14L149,255.89s-.33,3.85-.34,7.48v.09c0,3.14.85,7.9-.21,8.52C143,275.18,133,273.14,131.47,271.08Z" fill="#ffae73"/>
      <path id="Trazado_185246" data-name="Trazado 185246" d="M149,255.89s-.29,5.43-.3,9.05c-8.05-.19-12.35-8-14.09-11.47Z" fill="#f48f4e"/>
      <path id="Trazado_185247" data-name="Trazado 185247" d="M149.88,262.36s-18.87-2.68-17-14.41.67-20,12.8-18.75,13.75,6.07,14.09,10.13S154.84,262.76,149.88,262.36Z" fill="#ffae73"/>
      <path id="Trazado_185248" data-name="Trazado 185248" d="M154.28,230.28S146.93,243.21,138.7,244s-11.33-1.9-11.33-1.9a22.67,22.67,0,0,0,9.44-12.1S151.43,223.11,154.28,230.28Z" fill="#0b3563"/>
      <path id="Trazado_185249" data-name="Trazado 185249" d="M152.82,231.19s3.59,2,4.72,5.08a19.14,19.14,0,0,1,.83,11.17s5.37-8.73,1.85-14.72C156.49,226.38,152.82,231.19,152.82,231.19Z" fill="#0b3563"/>
    </g>
    <path id="Trazado_185250" data-name="Trazado 185250" d="M267.71,401.32H203.42V337h64.29Zm-61.26-3h58.23V340.06H206.45Z" fill="#8db4ff"/>
    <path id="Trazado_185251" data-name="Trazado 185251" d="M237.16,388.4a4.55,4.55,0,0,1-3.5-1.65l-19.84-24a4.55,4.55,0,0,1,7-5.79l15.73,19L265,328.23a4.545,4.545,0,1,1,7.81,4.65l-31.76,53.3a4.58,4.58,0,0,1-3.56,2.21Z" fill="#ff912b"/>
    <path id="Trazado_185252" data-name="Trazado 185252" d="M267.71,505.68H203.42V441.39h64.29Zm-61.26-3h58.23V444.41H206.45Z" fill="#8db4ff"/>
    <path id="Trazado_185253" data-name="Trazado 185253" d="M237.16,492.75a4.58,4.58,0,0,1-3.5-1.64l-19.84-24a4.55,4.55,0,1,1,7-5.79l15.73,19L265,432.58a4.545,4.545,0,1,1,7.81,4.65l-31.76,53.31a4.57,4.57,0,0,1-3.56,2.2Z" fill="#ff912b"/>
    <g id="Grupo_92553" data-name="Grupo 92553">
      <g id="Grupo_92552" data-name="Grupo 92552">
        <path id="Trazado_185254" data-name="Trazado 185254" d="M527.88,256.13s-50.69,18.64-75.31,68.3l16.74-2.87,7.08,11.91S496,288.8,536.31,275.4Z" fill="#6b98f6"/>
        <path id="Trazado_185255" data-name="Trazado 185255" d="M511.07,258.78s52.25,13.68,81.54,60.74l-16.94-1.25-5.91,12.55s-23.81-42.59-65.22-52Z" fill="#6b98f6"/>
        <circle id="Elipse_7620" data-name="Elipse 7620" cx="64.88" cy="64.88" r="64.88" transform="translate(436.714 219.6) rotate(-29.22)" fill="#ffa726"/>
        <g id="Grupo_92551" data-name="Grupo 92551" opacity="0.9">
          <path id="Trazado_185256" data-name="Trazado 185256" d="M525,302.81a58.22,58.22,0,1,1,58.22-58.22A58.22,58.22,0,0,1,525,302.81Zm0-114.65A56.44,56.44,0,1,0,581.44,244.6,56.44,56.44,0,0,0,525,188.16Z" fill="#e9f1ff"/>
        </g>
      </g>
      <g id="Grupo">
        <text id="ISO_IEC_" data-name="ISO/IEC " transform="translate(490.44 230.87)" fill="#12263f" font-size="19.88" font-family="SegoeUI-Bold, Segoe UI" font-weight="700"><tspan x="0" y="0">ISO/IEC </tspan></text>
        <text id="_2500n:" data-name="2500n:" transform="translate(493.83 254.73)" fill="#12263f" font-size="19.88" font-family="SegoeUI-Bold, Segoe UI" font-weight="700"><tspan x="0" y="0">2500n:</tspan></text>
      </g>
    </g>
  </g>
</svg>
