<svg xmlns="http://www.w3.org/2000/svg" xmlns:xlink="http://www.w3.org/1999/xlink" width="986.99" height="442.984" viewBox="0 0 986.99 442.984">
  <defs>
    <radialGradient id="radial-gradient" cx="0.531" cy="0.431" r="0.589" gradientTransform="translate(0)" gradientUnits="objectBoundingBox">
      <stop offset="0" stop-color="#fff"/>
      <stop offset="0.56" stop-color="#fafafa"/>
      <stop offset="0.68" stop-color="#f7f7f7"/>
      <stop offset="0.77" stop-color="#ededee"/>
      <stop offset="0.86" stop-color="#dcddde"/>
      <stop offset="0.94" stop-color="#c5c7c8"/>
      <stop offset="0.94" stop-color="#c4c6c7"/>
      <stop offset="0.99" stop-color="#c8cacb"/>
      <stop offset="1" stop-color="#c9cbcc"/>
    </radialGradient>
    <radialGradient id="radial-gradient-2" cx="0.571" cy="0.473" r="0.589" gradientTransform="matrix(0.707, 0.707, -0.707, 0.707, 0.46, -0.249)" xlink:href="#radial-gradient"/>
    <radialGradient id="radial-gradient-3" cx="0.612" cy="0.528" r="0.59" gradientTransform="matrix(0.898, -0.439, 0.439, 0.898, -17.009, -9.833)" xlink:href="#radial-gradient"/>
    <radialGradient id="radial-gradient-4" cx="0.62" cy="0.534" r="0.59" gradientTransform="translate(-16.945 -10.396) rotate(-26.053)" xlink:href="#radial-gradient"/>
    <radialGradient id="radial-gradient-5" cx="0.627" cy="0.521" r="0.59" gradientTransform="matrix(0.898, -0.439, 0.439, 0.898, -17.722, -10.395)" xlink:href="#radial-gradient"/>
  </defs>
  <g id="cf11_Normas_de_calidad" transform="translate(-132.92 -20.295)">
    <g id="Capa_1" data-name="Capa 1">
      <g id="Grupo_92555" data-name="Grupo 92555">
        <g id="Grupo_92554" data-name="Grupo 92554">
          <circle id="Elipse_7621" data-name="Elipse 7621" cx="120.34" cy="120.34" r="120.34" transform="translate(507.41 152.36)" fill="#b0b2b3"/>
        </g>
        <circle id="Elipse_7622" data-name="Elipse 7622" cx="120.34" cy="120.34" r="120.34" transform="translate(507.41 152.36)" fill="url(#radial-gradient)"/>
      </g>
      <path id="Trazado_185257" data-name="Trazado 185257" d="M627.34,419.75a1.86,1.86,0,0,1,1.85-1.88h0a1.84,1.84,0,0,1,1.88,1.84h0a1.84,1.84,0,0,1-1.84,1.88h0a1.85,1.85,0,0,1-1.89-1.84Zm-8.68,1.57h0a1.85,1.85,0,0,1-1.75-2h0a1.85,1.85,0,0,1,2-1.74h0a1.86,1.86,0,0,1,1.76,2h0a1.87,1.87,0,0,1-1.86,1.77h0Zm19.1-1.91a1.88,1.88,0,0,1,1.72-2h0a1.88,1.88,0,0,1,2,1.71h0a1.88,1.88,0,0,1-1.71,2h-.15a1.89,1.89,0,0,1-1.86-1.71Zm-29.61.92a1.88,1.88,0,0,1-1.61-2.09h0a1.87,1.87,0,0,1,2.1-1.61h0a1.86,1.86,0,0,1,1.6,2.08h0a1.87,1.87,0,0,1-1.85,1.64h0Zm40-2a1.87,1.87,0,0,1,1.56-2.12h0a1.86,1.86,0,0,1,2.12,1.57h0a1.85,1.85,0,0,1-1.56,2.12h-.28a1.85,1.85,0,0,1-1.85-1.56Zm-50.4.24h0a1.87,1.87,0,0,1-1.46-2.2h0a1.87,1.87,0,0,1,2.2-1.46h0a1.88,1.88,0,0,1,1.46,2.2h0a1.88,1.88,0,0,1-1.83,1.49h0a1.5,1.5,0,0,1-.38-.02Zm60.68-2a1.85,1.85,0,0,1,1.41-2.22h0a1.85,1.85,0,0,1,2.22,1.41h0a1.84,1.84,0,0,1-1.41,2.22h0a1.773,1.773,0,0,1-.41.05h0a1.87,1.87,0,0,1-1.82-1.49Zm-71-.46a1.85,1.85,0,0,1-1.29-2.28h0a1.86,1.86,0,0,1,2.3-1.3h0a1.84,1.84,0,0,1,1.29,2.29h0a1.86,1.86,0,0,1-1.79,1.37h0a1.511,1.511,0,0,1-.48-.11ZM668.54,414a1.86,1.86,0,0,1,1.24-2.32h0a1.86,1.86,0,0,1,2.33,1.23h0a1.88,1.88,0,0,1-1.25,2.34h0a2.415,2.415,0,0,1-.53.07h0a1.87,1.87,0,0,1-1.79-1.32Zm-91.15-1.14a1.87,1.87,0,0,1-1.11-2.4h0a1.85,1.85,0,0,1,2.38-1.11h0a1.86,1.86,0,0,1,1.13,2.38h0A1.88,1.88,0,0,1,578,413h0a2,2,0,0,1-.61-.12Zm101.06-2.11a1.87,1.87,0,0,1,1.08-2.41h0a1.88,1.88,0,0,1,2.41,1.08h0a1.88,1.88,0,0,1-1.08,2.41h0a2,2,0,0,1-.67.12h0a1.86,1.86,0,0,1-1.74-1.18Zm-110.87-1.83a1.85,1.85,0,0,1-1-2.45h0a1.86,1.86,0,0,1,2.46-.95h0A1.85,1.85,0,0,1,570,408h0a1.86,1.86,0,0,1-1.7,1.11h0a1.7,1.7,0,0,1-.72-.17Zm120.52-2.11a1.88,1.88,0,0,1,.89-2.48h0a1.87,1.87,0,0,1,2.48.91h0a1.88,1.88,0,0,1-.89,2.48h0a1.89,1.89,0,0,1-.79.18h0a1.86,1.86,0,0,1-1.69-1.07Zm-130-2.51h0a1.84,1.84,0,0,1-.77-2.52h0a1.86,1.86,0,0,1,2.53-.76h0a1.84,1.84,0,0,1,.77,2.51h0a1.82,1.82,0,0,1-1.63,1h0a1.88,1.88,0,0,1-.93-.21Zm139.37-2.11a1.87,1.87,0,0,1,.73-2.54h0a1.88,1.88,0,0,1,2.53.73h0a1.87,1.87,0,0,1-.72,2.54h0a2,2,0,0,1-.9.24h0a1.9,1.9,0,0,1-1.67-.95Zm-148.53-3.16h0a1.86,1.86,0,0,1-.59-2.57h0a1.85,1.85,0,0,1,2.57-.59h0a1.86,1.86,0,0,1,.59,2.57h0a1.87,1.87,0,0,1-1.57.87h0a1.89,1.89,0,0,1-1.03-.26Zm157.53-2.11a1.87,1.87,0,0,1,.54-2.58h0a1.86,1.86,0,0,1,2.58.55h0a1.85,1.85,0,0,1-.55,2.57h0a2,2,0,0,1-1,.3h0a1.86,1.86,0,0,1-1.6-.82ZM540.18,393.1a1.84,1.84,0,0,1-.4-2.59h0a1.85,1.85,0,0,1,2.6-.42h0a1.87,1.87,0,0,1,.41,2.61h0a1.89,1.89,0,0,1-1.51.76h0a1.92,1.92,0,0,1-1.13-.34ZM715,391.05a1.88,1.88,0,0,1,.36-2.62h0a1.87,1.87,0,0,1,2.61.36h0a1.86,1.86,0,0,1-.35,2.61h0a2,2,0,0,1-1.13.39h0A1.89,1.89,0,0,1,715,391.05ZM531.83,386.6h0a1.87,1.87,0,0,1-.24-2.62h0a1.87,1.87,0,0,1,2.63-.23h0a1.86,1.86,0,0,1,.22,2.63h0a1.88,1.88,0,0,1-1.42.67h0A1.89,1.89,0,0,1,531.83,386.6Zm191.38-2a1.86,1.86,0,0,1,.16-2.63h0a1.84,1.84,0,0,1,2.63.18h0a1.85,1.85,0,0,1-.16,2.62h0a1.82,1.82,0,0,1-1.24.46h0a1.88,1.88,0,0,1-1.39-.67Zm-199.2-5a1.87,1.87,0,0,1,0-2.64h0a1.87,1.87,0,0,1,2.65,0h0a1.87,1.87,0,0,1,0,2.63h0a1.87,1.87,0,0,1-1.34.56h0a1.88,1.88,0,0,1-1.32-.63Zm206.88-2a1.86,1.86,0,0,1,0-2.64h0a1.84,1.84,0,0,1,2.62,0h0a1.85,1.85,0,0,1,0,2.63h0a1.86,1.86,0,0,1-1.32.55h0a1.88,1.88,0,0,1-1.3-.64ZM516.7,371.89h0a1.87,1.87,0,0,1,.14-2.63h0a1.89,1.89,0,0,1,2.65.15h0a1.85,1.85,0,0,1-.13,2.63h0a1.86,1.86,0,0,1-1.25.47h0a1.85,1.85,0,0,1-1.41-.62Zm221.37-2a1.87,1.87,0,0,1-.2-2.63h0a1.83,1.83,0,0,1,2.62-.19h0a1.84,1.84,0,0,1,.2,2.61h0a1.86,1.86,0,0,1-1.42.65h0a1.83,1.83,0,0,1-1.2-.4Zm-228.13-6.15a1.85,1.85,0,0,1,.33-2.61h0a1.85,1.85,0,0,1,2.61.32h0a1.86,1.86,0,0,1-.32,2.62h0a1.89,1.89,0,0,1-1.15.38h0a1.81,1.81,0,0,1-1.47-.67Zm234.74-1.92a1.86,1.86,0,0,1-.37-2.61h0a1.85,1.85,0,0,1,2.6-.38h0a1.87,1.87,0,0,1,.39,2.61h0a1.89,1.89,0,0,1-1.5.74h0a1.94,1.94,0,0,1-1.12-.32ZM503.77,355.2a1.86,1.86,0,0,1,.52-2.59h0a1.88,1.88,0,0,1,2.58.52h0a1.86,1.86,0,0,1-.52,2.59h0a1.9,1.9,0,0,1-1,.31h0a1.85,1.85,0,0,1-1.58-.83Zm247-1.86a1.85,1.85,0,0,1-.57-2.57h0a1.85,1.85,0,0,1,2.57-.56h0a1.85,1.85,0,0,1,.57,2.57h0a1.87,1.87,0,0,1-1.58.86h0a1.74,1.74,0,0,1-1.03-.3Zm-252.5-7.13h0a1.86,1.86,0,0,1,.7-2.54h0a1.86,1.86,0,0,1,2.53.7h0a1.85,1.85,0,0,1-.69,2.54h0a1.93,1.93,0,0,1-.92.25h0a1.86,1.86,0,0,1-1.66-.95Zm257.92-1.78a1.87,1.87,0,0,1-.75-2.54h0a1.87,1.87,0,0,1,2.53-.74h0a1.86,1.86,0,0,1,.74,2.52h0a1.85,1.85,0,0,1-1.63,1h0a1.86,1.86,0,0,1-.93-.24Zm-262.81-7.57a1.85,1.85,0,0,1,.88-2.48h0a1.86,1.86,0,0,1,2.48.87h0a1.85,1.85,0,0,1-.88,2.48h0a1.64,1.64,0,0,1-.8.2h0a1.87,1.87,0,0,1-1.72-1.07Zm267.57-1.73a1.86,1.86,0,0,1-.92-2.46h0a1.86,1.86,0,0,1,2.47-.92h0a1.86,1.86,0,0,1,.93,2.46h0a1.87,1.87,0,0,1-1.7,1.09h0a1.831,1.831,0,0,1-.82-.17Zm-271.79-7.94a1.86,1.86,0,0,1,1.06-2.42h0a1.87,1.87,0,0,1,2.42,1.05h0a1.87,1.87,0,0,1-1.06,2.42h0a1.811,1.811,0,0,1-.68.12h0a1.88,1.88,0,0,1-1.78-1.17ZM765,325.53a1.87,1.87,0,0,1-1.1-2.39h0a1.87,1.87,0,0,1,2.41-1.1h0a1.86,1.86,0,0,1,1.1,2.39h0a1.87,1.87,0,0,1-1.75,1.21h0A1.76,1.76,0,0,1,765,325.53Zm-279.39-8.31h0a1.85,1.85,0,0,1,1.22-2.33h0a1.85,1.85,0,0,1,2.33,1.22h0a1.86,1.86,0,0,1-1.22,2.33h0a1.759,1.759,0,0,1-.55.09h0a1.85,1.85,0,0,1-1.77-1.31Zm282.79-1.55a1.86,1.86,0,0,1-1.26-2.31h0a1.85,1.85,0,0,1,2.3-1.27h0a1.86,1.86,0,0,1,1.28,2.31h0a1.86,1.86,0,0,1-1.8,1.34h0a2.491,2.491,0,0,1-.51-.07ZM482.83,307h0a1.85,1.85,0,0,1,1.38-2.24h0a1.86,1.86,0,0,1,2.24,1.38h0a1.87,1.87,0,0,1-1.38,2.24h0a2.219,2.219,0,0,1-.43,0h0a1.83,1.83,0,0,1-1.81-1.38Zm288.27-1.46a1.85,1.85,0,0,1-1.43-2.21h0a1.86,1.86,0,0,1,2.22-1.43h0a1.86,1.86,0,0,1,1.42,2.22h0a1.87,1.87,0,0,1-1.82,1.47h0a1.809,1.809,0,0,1-.39-.01Zm-290.34-8.91a1.87,1.87,0,0,1,1.55-2.14h0a1.89,1.89,0,0,1,2.14,1.55h0a1.89,1.89,0,0,1-1.55,2.14h-.3a1.87,1.87,0,0,1-1.84-1.51Zm292.3-1.33a1.87,1.87,0,0,1-1.59-2.1h0a1.87,1.87,0,0,1,2.11-1.59h0a1.86,1.86,0,0,1,1.59,2.11h0a1.88,1.88,0,0,1-1.84,1.6h0Zm-293.62-9.15a1.86,1.86,0,0,1,1.69-2h0a1.86,1.86,0,0,1,2,1.69h0a1.83,1.83,0,0,1-1.67,2h0a.52.52,0,0,1-.17,0h0a1.88,1.88,0,0,1-1.85-1.65ZM774.29,285a1.85,1.85,0,0,1-1.73-2h0a1.85,1.85,0,0,1,2-1.72h0a1.86,1.86,0,0,1,1.73,2h0a1.86,1.86,0,0,1-1.85,1.73h-.14Zm-295.41-9.34a1.83,1.83,0,0,1,1.82-1.88h0a1.84,1.84,0,0,1,1.9,1.82h0a1.85,1.85,0,0,1-1.82,1.89h0a1.84,1.84,0,0,1-1.9-1.85Zm294-2.94h0a1.87,1.87,0,0,1,1.87-1.87h0a1.86,1.86,0,0,1,1.86,1.87h0a1.87,1.87,0,0,1-1.87,1.86h0a1.87,1.87,0,0,1-1.83-1.88Zm-.1-5.74a1.87,1.87,0,0,1,1.78-1.95h0a1.88,1.88,0,0,1,1.95,1.8h0a1.89,1.89,0,0,1-1.8,1.93h-.08a1.85,1.85,0,0,1-1.82-1.76Zm-292,.09a1.87,1.87,0,0,1-1.77-2h0a1.85,1.85,0,0,1,1.95-1.77h0a1.87,1.87,0,0,1,1.76,2h0a1.86,1.86,0,0,1-1.85,1.77h-.09ZM772.02,256.7h0a1.86,1.86,0,0,1,1.64-2.05h0a1.87,1.87,0,0,1,2.07,1.65h0a1.87,1.87,0,0,1-1.65,2.05h-.21a1.85,1.85,0,0,1-1.82-1.67Zm-290.49,0a1.87,1.87,0,0,1-1.63-2.07h0a1.89,1.89,0,0,1,2.08-1.63h0a1.86,1.86,0,0,1,1.63,2.08h0a1.85,1.85,0,0,1-1.85,1.63h-.23Zm289-10.15h0a1.84,1.84,0,0,1,1.48-2.17h0a1.85,1.85,0,0,1,2.17,1.5h0a1.86,1.86,0,0,1-1.5,2.17h0a1.79,1.79,0,0,1-.34,0h0a1.87,1.87,0,0,1-1.79-1.56Zm-287.5-.18a1.87,1.87,0,0,1-1.47-2.18h0a1.86,1.86,0,0,1,2.18-1.47h0a1.84,1.84,0,0,1,1.47,2.18h0a1.89,1.89,0,0,1-1.84,1.52h0a1.63,1.63,0,0,1-.32-.11Zm285.3-9.89a1.85,1.85,0,0,1,1.34-2.25h0A1.85,1.85,0,0,1,772,235.5h0a1.88,1.88,0,0,1-1.33,2.28h0a2.74,2.74,0,0,1-.48.06h0a1.86,1.86,0,0,1-1.84-1.42Zm-283.07-.29a1.86,1.86,0,0,1-1.31-2.29h0a1.86,1.86,0,0,1,2.27-1.32h0a1.87,1.87,0,0,1,1.32,2.29h0a1.86,1.86,0,0,1-1.79,1.38h0a2,2,0,0,1-.47-.12Zm280.15-9.57a1.87,1.87,0,0,1,1.17-2.36h0a1.87,1.87,0,0,1,2.36,1.18h0a1.86,1.86,0,0,1-1.17,2.36h0a2,2,0,0,1-.6.09h0a1.87,1.87,0,0,1-1.74-1.33Zm-277.2-.44a1.88,1.88,0,0,1-1.16-2.38h0a1.89,1.89,0,0,1,2.38-1.14h0a1.84,1.84,0,0,1,1.14,2.37h0a1.86,1.86,0,0,1-1.75,1.25h0a1.81,1.81,0,0,1-.59-.16Zm273.59-9.19h0a1.88,1.88,0,0,1,1-2.44h0a1.88,1.88,0,0,1,2.45,1h0a1.88,1.88,0,0,1-1,2.44h0a2.171,2.171,0,0,1-.71.13h0a1.87,1.87,0,0,1-1.72-1.19Zm-269.93-.6a1.87,1.87,0,0,1-1-2.45h0a1.86,1.86,0,0,1,2.45-1h0a1.85,1.85,0,0,1,1,2.43h0a1.89,1.89,0,0,1-1.73,1.13h0a1.69,1.69,0,0,1-.7-.17Zm265.64-8.74h0a1.85,1.85,0,0,1,.83-2.49h0a1.85,1.85,0,0,1,2.49.83h0a1.86,1.86,0,0,1-.81,2.49h0a1.94,1.94,0,0,1-.85.21h0a1.88,1.88,0,0,1-1.64-1.1Zm-261.29-.75a1.86,1.86,0,0,1-.81-2.51h0a1.87,1.87,0,0,1,2.51-.8h0a1.86,1.86,0,0,1,.81,2.51h0a1.87,1.87,0,0,1-1.67,1h0a1.69,1.69,0,0,1-.82-.26Zm256.34-8.28a1.86,1.86,0,0,1,.64-2.56h0a1.88,1.88,0,0,1,2.57.64h0a1.9,1.9,0,0,1-.65,2.57h0a2,2,0,0,1-.95.25h0a1.86,1.86,0,0,1-1.59-.96Zm-251.34-.88a1.84,1.84,0,0,1-.61-2.55h0a1.87,1.87,0,0,1,2.56-.63h0a1.89,1.89,0,0,1,.62,2.57h0a1.88,1.88,0,0,1-1.6.89h0a1.84,1.84,0,0,1-.95-.34ZM747,189.9a1.87,1.87,0,0,1,.46-2.6h0a1.87,1.87,0,0,1,2.59.47h0a1.86,1.86,0,0,1-.46,2.59h0a1.78,1.78,0,0,1-1.06.34h0a1.86,1.86,0,0,1-1.53-.8Zm-240.13-1a1.88,1.88,0,0,1-.43-2.6h0a1.85,1.85,0,0,1,2.6-.43h0a1.86,1.86,0,0,1,.45,2.6h0a1.88,1.88,0,0,1-1.53.77h0a1.89,1.89,0,0,1-1.08-.34Zm233.94-7.24h0a1.87,1.87,0,0,1,.26-2.62h0a1.87,1.87,0,0,1,2.63.28h0a1.87,1.87,0,0,1-.28,2.62h0a1.84,1.84,0,0,1-1.17.41h0a1.87,1.87,0,0,1-1.43-.69Zm-227.67-1.12a1.83,1.83,0,0,1-.25-2.61h0a1.86,1.86,0,0,1,2.63-.25h0a1.89,1.89,0,0,1,.24,2.63h0a1.89,1.89,0,0,1-1.44.66h0a1.76,1.76,0,0,1-1.17-.43Zm220.94-6.67a1.84,1.84,0,0,1,.09-2.62h0a1.84,1.84,0,0,1,2.63.09h0a1.84,1.84,0,0,1-.09,2.62h0a1.78,1.78,0,0,1-1.28.51h0a1.85,1.85,0,0,1-1.34-.6ZM520,172.66a1.85,1.85,0,0,1-.06-2.63h0a1.85,1.85,0,0,1,2.63-.08h0a1.89,1.89,0,0,1,.07,2.65h0a1.89,1.89,0,0,1-1.35.58h0a1.91,1.91,0,0,1-1.29-.52Zm206.85-6.08a1.83,1.83,0,0,1-.09-2.62h0a1.85,1.85,0,0,1,2.63-.11h0a1.88,1.88,0,0,1,.09,2.64h0a1.91,1.91,0,0,1-1.37.6h0a1.86,1.86,0,0,1-1.29-.51Zm-199.49-1.32a1.86,1.86,0,0,1,.14-2.63h0a1.89,1.89,0,0,1,2.65.12h0a1.89,1.89,0,0,1-.14,2.65h0a1.89,1.89,0,0,1-1.25.47h0a1.89,1.89,0,0,1-1.43-.61ZM719,159.81h0a1.85,1.85,0,0,1-.27-2.63h0a1.86,1.86,0,0,1,2.61-.28h0a1.87,1.87,0,0,1,.28,2.62h0a1.84,1.84,0,0,1-1.45.69h0a1.83,1.83,0,0,1-1.17-.4Zm-183.8-1.39a1.86,1.86,0,0,1,.32-2.62h0a1.86,1.86,0,0,1,2.61.3h0a1.86,1.86,0,0,1-.31,2.63h0a1.91,1.91,0,0,1-1.15.4h0a1.9,1.9,0,0,1-1.47-.71Zm175.61-4.8a1.86,1.86,0,0,1-.46-2.6h0a1.87,1.87,0,0,1,2.6-.46h0a1.89,1.89,0,0,1,.46,2.6h0a1.88,1.88,0,0,1-1.53.8h0a1.91,1.91,0,0,1-1.07-.34Zm-167.27-1.49a1.84,1.84,0,0,1,.49-2.58h0a1.85,1.85,0,0,1,2.58.49h0a1.85,1.85,0,0,1-.49,2.58h0a1.74,1.74,0,0,1-1,.33h0a1.83,1.83,0,0,1-1.58-.82ZM702.15,148a1.86,1.86,0,0,1-.64-2.55h0a1.85,1.85,0,0,1,2.56-.64h0a1.83,1.83,0,0,1,.63,2.55h0a1.85,1.85,0,0,1-1.58.91h0a1.92,1.92,0,0,1-.97-.27Zm-149.87-1.56a1.85,1.85,0,0,1,.67-2.54h0a1.86,1.86,0,0,1,2.55.67h0a1.88,1.88,0,0,1-.66,2.55h0a1.93,1.93,0,0,1-.94.26h0a1.86,1.86,0,0,1-1.62-.92Zm140.84-3.41a1.86,1.86,0,0,1-.81-2.5h0a1.85,1.85,0,0,1,2.49-.83h0a1.89,1.89,0,0,1,.81,2.51h0a1.84,1.84,0,0,1-1.66,1h0a2,2,0,0,1-.83-.16Zm-131.7-1.62a1.86,1.86,0,0,1,.84-2.5h0a1.88,1.88,0,0,1,2.5.86h0a1.86,1.86,0,0,1-.86,2.48h0a1.78,1.78,0,0,1-.83.2h0a1.82,1.82,0,0,1-1.65-1.02Zm122.35-2.69a1.87,1.87,0,0,1-1-2.45h0a1.86,1.86,0,0,1,2.44-1h0a1.86,1.86,0,0,1,1,2.44h0a1.86,1.86,0,0,1-1.72,1.14h0a1.94,1.94,0,0,1-.72-.11Zm-112.91-1.68a1.85,1.85,0,0,1,1-2.43h0a1.86,1.86,0,0,1,2.42,1h0a1.87,1.87,0,0,1-1,2.44h0a2.26,2.26,0,0,1-.7.13h0a1.89,1.89,0,0,1-1.72-1.12Zm103.25-2a1.85,1.85,0,0,1-1.16-2.37h0a1.85,1.85,0,0,1,2.35-1.15h0a1.84,1.84,0,0,1,1.17,2.34h0a1.84,1.84,0,0,1-1.76,1.28h0a1.889,1.889,0,0,1-.6-.05Zm-93.49-1.73a1.85,1.85,0,0,1,1.2-2.34h0a1.86,1.86,0,0,1,2.34,1.2h0a1.85,1.85,0,0,1-1.18,2.35h0a2,2,0,0,1-.58.08h0a1.87,1.87,0,0,1-1.78-1.24Zm83.63-1.2a1.86,1.86,0,0,1-1.33-2.27h0a1.84,1.84,0,0,1,2.27-1.34h0a1.85,1.85,0,0,1,1.33,2.27h0a1.87,1.87,0,0,1-1.81,1.4h0a2.53,2.53,0,0,1-.46-.01Zm-73.64-1.78a1.88,1.88,0,0,1,1.37-2.26h0a1.85,1.85,0,0,1,2.25,1.37h0a1.84,1.84,0,0,1-1.36,2.25h0a2.319,2.319,0,0,1-.45.06h0a1.88,1.88,0,0,1-1.81-1.37Zm63.59-.45a1.86,1.86,0,0,1-1.5-2.17h0a1.86,1.86,0,0,1,2.17-1.5h0a1.88,1.88,0,0,1,1.5,2.17h0a1.86,1.86,0,0,1-1.84,1.53h0a1.76,1.76,0,0,1-.33.02Zm-53.4-1.81a1.84,1.84,0,0,1,1.53-2.15h0a1.84,1.84,0,0,1,2.14,1.51h0a1.88,1.88,0,0,1-1.52,2.16h-.31a1.87,1.87,0,0,1-1.84-1.47Zm43.21.31h0a1.87,1.87,0,0,1-1.64-2.06h0a1.86,1.86,0,0,1,2.07-1.65h0a1.86,1.86,0,0,1,1.65,2.06h0a1.84,1.84,0,0,1-1.84,1.65H644Zm-32.89-1.85a1.86,1.86,0,0,1,1.66-2h0a1.86,1.86,0,0,1,2,1.67h0a1.88,1.88,0,0,1-1.68,2H613a1.87,1.87,0,0,1-1.88-1.62Zm22.61,1.07a1.87,1.87,0,0,1-1.78-1.93h0a1.87,1.87,0,0,1,1.93-1.8h0a1.89,1.89,0,0,1,1.8,1.94h0a1.87,1.87,0,0,1-1.87,1.79h-.08Zm-12.22-1.86a1.88,1.88,0,0,1,1.82-1.93h0a1.87,1.87,0,0,1,1.91,1.81h0a1.86,1.86,0,0,1-1.81,1.92h0a1.87,1.87,0,0,1-1.92-1.75Z" fill="#35afea"/>
      <g id="Grupo_92556" data-name="Grupo 92556">
        <path id="Trazado_185258" data-name="Trazado 185258" d="M813.42,158.18H801.71a60.46,60.46,0,0,1-39.36-14.52l-14.72,2.53-5.36.92,1.59-5.2s3-9.87,4.64-15.31A60.62,60.62,0,0,1,801.71,37h11.71v6.69H801.71A53.92,53.92,0,0,0,755,124.52l.71,1.25-.4,1.37c-.82,2.79-2.32,7.74-3.48,11.53l11-1.87,1.59-.27,1.2,1.08a53.81,53.81,0,0,0,36.11,13.88h11.71Z" fill="#1565b2"/>
        <path id="Trazado_185259" data-name="Trazado 185259" d="M1026,156.32H826.78v-3H1026a55.77,55.77,0,1,0,0-111.54H826.78v-3H1026a58.74,58.74,0,0,1,0,117.48Z" fill="#1565b2"/>
      </g>
      <g id="Grupo_92558" data-name="Grupo 92558">
        <g id="Grupo_92557" data-name="Grupo 92557">
          <circle id="Elipse_7623" data-name="Elipse 7623" cx="54.65" cy="54.65" r="54.65" transform="translate(724.43 97.583) rotate(-45)" fill="#b0b2b3"/>
        </g>
        <circle id="Elipse_7624" data-name="Elipse 7624" cx="54.65" cy="54.65" r="54.65" transform="translate(724.43 97.583) rotate(-45)" fill="url(#radial-gradient-2)"/>
      </g>
      <g id="Grupo_92559" data-name="Grupo 92559">
        <path id="Trazado_185260" data-name="Trazado 185260" d="M452.05,158.18H440.34v-6.69h11.71a53.81,53.81,0,0,0,36.11-13.88l1.2-1.08,1.59.27,11,1.87c-1.16-3.79-2.66-8.74-3.48-11.53l-.4-1.37.72-1.25a53.93,53.93,0,0,0-46.71-80.85H440.34V37h11.71a60.62,60.62,0,0,1,53.21,89.62c1.62,5.44,4.64,15.31,4.64,15.31l1.59,5.2-5.36-.92-14.72-2.53a60.46,60.46,0,0,1-39.36,14.5Z" fill="#1565b2"/>
        <path id="Trazado_185261" data-name="Trazado 185261" d="M427,156.32H227.81a58.74,58.74,0,1,1,0-117.48H427v3H227.81a55.77,55.77,0,1,0,0,111.54H427Z" fill="#1565b2"/>
      </g>
      <g id="Grupo_92561" data-name="Grupo 92561">
        <g id="Grupo_92560" data-name="Grupo 92560">
          <circle id="Elipse_7625" data-name="Elipse 7625" cx="54.65" cy="54.65" r="54.65" transform="translate(397.49 42.93)" fill="#b0b2b3"/>
        </g>
        <circle id="Elipse_7626" data-name="Elipse 7626" cx="54.65" cy="54.65" r="54.65" transform="translate(397.49 42.93)" fill="url(#radial-gradient-3)"/>
      </g>
      <g id="Grupo_92563" data-name="Grupo 92563">
        <g id="Grupo_92562" data-name="Grupo 92562">
          <circle id="Elipse_7627" data-name="Elipse 7627" cx="54.65" cy="54.65" r="54.65" transform="translate(362.16 348.03)" fill="#b0b2b3"/>
        </g>
        <circle id="Elipse_7628" data-name="Elipse 7628" cx="54.65" cy="54.65" r="54.65" transform="translate(362.16 348.03)" fill="url(#radial-gradient-4)"/>
      </g>
      <g id="Grupo_92565" data-name="Grupo 92565">
        <g id="Grupo_92564" data-name="Grupo 92564">
          <circle id="Elipse_7629" data-name="Elipse 7629" cx="54.65" cy="54.65" r="54.65" transform="translate(782.77 348.03)" fill="#b0b2b3"/>
        </g>
        <circle id="Elipse_7630" data-name="Elipse 7630" cx="54.65" cy="54.65" r="54.65" transform="translate(782.77 348.03)" fill="url(#radial-gradient-5)"/>
      </g>
      <g id="Grupo_92566" data-name="Grupo 92566">
        <path id="Trazado_185262" data-name="Trazado 185262" d="M848.59,463.28h-11.7a60.62,60.62,0,0,1-53.21-89.62c-1.63-5.44-4.64-15.31-4.64-15.31l-1.59-5.2,5.36.92,14.72,2.53a60.42,60.42,0,0,1,39.36-14.52h11.7v6.69h-11.7a53.79,53.79,0,0,0-36.11,13.88l-1.2,1.08-1.6-.27-11-1.87c1.15,3.79,2.65,8.74,3.47,11.53l.41,1.37-.72,1.25a53.93,53.93,0,0,0,46.71,80.85h11.7Z" fill="#1565b2"/>
        <path id="Trazado_185263" data-name="Trazado 185263" d="M1061.13,461.42H862v-3h199.17a55.77,55.77,0,1,0,0-111.54H862v-3h199.17a58.74,58.74,0,0,1,0,117.48Z" fill="#039be5"/>
      </g>
      <g id="Grupo_92567" data-name="Grupo 92567">
        <path id="Trazado_185264" data-name="Trazado 185264" d="M415.9,461.91H404.19v-6.69H415.9a53.92,53.92,0,0,0,46.7-80.85l-.71-1.25.4-1.37c.82-2.79,2.32-7.74,3.48-11.53l-11,1.87-1.6.27-1.2-1.08a53.76,53.76,0,0,0-36.1-13.88H404.19v-6.69H415.9a60.46,60.46,0,0,1,39.36,14.52c5.15-.87,14.72-2.53,14.72-2.53l5.36-.92-1.59,5.2s-3,9.87-4.64,15.31a60.62,60.62,0,0,1-53.21,89.62Z" fill="#1565b2"/>
        <path id="Trazado_185265" data-name="Trazado 185265" d="M390.83,460.05H191.66a58.74,58.74,0,1,1,0-117.48H390.83v3H191.66a55.77,55.77,0,1,0,0,111.54H390.83Z" fill="#1565b2"/>
      </g>
      <path id="Trazado_185266" data-name="Trazado 185266" d="M456.87,110.71h-7.76V80.8l-9.27,2.87V77.36l16.2-5.8h.83Z" fill="#12263f"/>
      <path id="Trazado_185267" data-name="Trazado 185267" d="M845.51,404.77h4.43V411h-4.43v8.46h-7.76V411h-16l-.35-4.88,16.3-25.76h7.84Zm-16.41,0h8.65V391l-.51.89Z" fill="#12263f"/>
      <path id="Trazado_185268" data-name="Trazado 185268" d="M812,117.4H785.2v-5.32L797.89,98.6a30.662,30.662,0,0,0,3.85-5,7.88,7.88,0,0,0,1.25-4,6,6,0,0,0-1.31-4.09A4.73,4.73,0,0,0,797.92,84a5.11,5.11,0,0,0-4.15,1.81,7.2,7.2,0,0,0-1.52,4.77h-7.79a12.81,12.81,0,0,1,1.71-6.53A12,12,0,0,1,791,79.44a14.62,14.62,0,0,1,7.06-1.68q6,0,9.39,2.9c2.23,1.93,3.34,4.67,3.34,8.19a13.179,13.179,0,0,1-1.5,5.91,33.239,33.239,0,0,1-5.16,7l-8.89,9.37H812Z" fill="#12263f"/>
      <path id="Trazado_185269" data-name="Trazado 185269" d="M409.76,395.13h4.14a5.83,5.83,0,0,0,4.37-1.48,5.42,5.42,0,0,0,1.43-3.92,4.78,4.78,0,0,0-1.41-3.68,5.46,5.46,0,0,0-3.88-1.32,5.73,5.73,0,0,0-3.74,1.23,3.9,3.9,0,0,0-1.5,3.18h-7.76a9.55,9.55,0,0,1,1.65-5.49,11,11,0,0,1,4.62-3.8,15.319,15.319,0,0,1,6.54-1.37q6.19,0,9.72,3a10.12,10.12,0,0,1,3.52,8.18,8.23,8.23,0,0,1-1.64,4.94,10.59,10.59,0,0,1-4.3,3.47,9.12,9.12,0,0,1,6.56,9.13,10.3,10.3,0,0,1-3.8,8.35q-3.81,3.15-10.06,3.14a14.46,14.46,0,0,1-9.57-3.09,10.08,10.08,0,0,1-3.72-8.16h7.76a4.5,4.5,0,0,0,1.65,3.6,6.9,6.9,0,0,0,8.4-.07,5,5,0,0,0,1.58-3.88q0-5.85-6.45-5.85h-4.11Z" fill="#12263f"/>
      <text id="División_de_Evaluación_de_Calidad_-_ISO_IEC_2504n" data-name="División de Evaluación de 
Calidad - ISO/IEC 2504n" transform="translate(901.88 385.39)" fill="#12263f" font-size="18" font-family="SegoeUI, Segoe UI"><tspan x="0" y="0">División de </tspan><tspan y="0" letter-spacing="-0.01em">Ev</tspan><tspan y="0">aluación de </tspan><tspan x="0" y="21.6">Calidad - ISO/IEC 2504n</tspan></text>
      <text id="División_de_Modelo_de_Calidad_-_ISO_IEC_2501n" data-name="División de Modelo de 
Calidad - ISO/IEC 
2501n" transform="translate(193.15 81.43)" fill="#12263f" font-size="18" font-family="SegoeUI, Segoe UI"><tspan x="0" y="0">División de Modelo de </tspan><tspan x="0" y="21.6">Calidad - ISO/IEC </tspan><tspan x="0" y="43.2">2501n</tspan></text>
      <text id="División_de_Medición_de_Calidad_-_ISO_IEC_2502n" data-name="División de Medición 
de Calidad - ISO/IEC 
2502n" transform="translate(879.97 80.71)" fill="#12263f" font-size="18" font-family="SegoeUI, Segoe UI"><tspan x="0" y="0">División de Medición </tspan><tspan x="0" y="21.6">de Calidad - ISO/IEC </tspan><tspan x="0" y="43.2">2502n</tspan></text>
      <text id="División_de_Requisitos_de_Calidad_-_ISO_IEC_2503n" data-name="División de Requisitos 
de Calidad - ISO/IEC 
2503n" transform="translate(157 386.49)" fill="#12263f" font-size="18" font-family="SegoeUI, Segoe UI"><tspan x="0" y="0">División de Requisi</tspan><tspan y="0" letter-spacing="-0.01em">t</tspan><tspan y="0">os </tspan><tspan x="0" y="21.6">de Calidad - ISO/IEC </tspan><tspan x="0" y="43.2">2503n</tspan></text>
      <g id="Grupo_92572" data-name="Grupo 92572">
        <path id="Trazado_185270" data-name="Trazado 185270" d="M584.13,190.77H556.8v-9.62a12.5,12.5,0,0,1,12.3-12.54l15,.24Z" fill="#e1e1e1"/>
        <g id="Grupo_92568" data-name="Grupo 92568">
          <path id="Trazado_185271" data-name="Trazado 185271" d="M568.51,168.59s15.56-1.41,15.56,18.88v157.8H706.14V181.71a13.4,13.4,0,0,0-13.43-13.4Z" fill="#fff"/>
          <path id="Trazado_185272" data-name="Trazado 185272" d="M568.51,168.59l90.32-.29,21.86-.06h11.64a13.59,13.59,0,0,1,5.87,1.15,13.82,13.82,0,0,1,4.87,3.66,13.48,13.48,0,0,1,2.79,5.53,11.443,11.443,0,0,1,.29,1.55c.07.52.06,1.05.1,1.58V345.44H584V189.65c0-1.6,0-3.14-.09-4.61a28.534,28.534,0,0,0-.58-4.2,21.866,21.866,0,0,0-1.2-3.69,17.3,17.3,0,0,0-1.75-3A13.32,13.32,0,0,0,576,170.3a14.47,14.47,0,0,0-4-1.42,14.87,14.87,0,0,0-2.59-.29h-.88a8.426,8.426,0,0,1,.88,0,13.641,13.641,0,0,1,2.6.27,14.559,14.559,0,0,1,4,1.4,13.46,13.46,0,0,1,4.44,3.79,16.746,16.746,0,0,1,1.77,3,22.277,22.277,0,0,1,1.21,3.7A27.873,27.873,0,0,1,584,185c.12,1.48.1,3,.1,4.62v21.9c0,32.74,0,79.13.05,133.77l-.12-.12H706.14l-.13.13V184.84a25.932,25.932,0,0,0-.38-6.25,13.281,13.281,0,0,0-13.32-10.18H658.74Z" fill="#02749e"/>
        </g>
        <path id="Trazado_185273" data-name="Trazado 185273" d="M636.32,216.48c0,.07-7.43.13-16.58.13s-16.58-.06-16.58-.13,7.42-.13,16.58-.13S636.32,216.41,636.32,216.48Z" fill="#02749e"/>
        <path id="Trazado_185274" data-name="Trazado 185274" d="M643.75,220.45c0,.07-9.09.13-20.29.13s-20.3-.06-20.3-.13,9.08-.13,20.3-.13S643.75,220.37,643.75,220.45Z" fill="#02749e"/>
        <path id="Trazado_185275" data-name="Trazado 185275" d="M646.42,236.06c0,.07-9.39.13-21,.13s-21-.06-21-.13,9.38-.14,21-.14S646.42,236,646.42,236.06Z" fill="#02749e"/>
        <path id="Trazado_185276" data-name="Trazado 185276" d="M673.8,251.27c0,.07-15.69.13-35,.13s-35-.06-35-.13,15.69-.13,35-.13S673.8,251.2,673.8,251.27Z" fill="#02749e"/>
        <path id="Trazado_185277" data-name="Trazado 185277" d="M673.8,255.81c0,.07-15.69.13-35,.13s-35-.06-35-.13,15.69-.13,35-.13S673.8,255.74,673.8,255.81Z" fill="#02749e"/>
        <path id="Trazado_185278" data-name="Trazado 185278" d="M673.8,260.35c0,.07-15.69.13-35,.13s-35-.06-35-.13,15.69-.13,35-.13S673.8,260.27,673.8,260.35Z" fill="#02749e"/>
        <path id="Trazado_185279" data-name="Trazado 185279" d="M673.8,264.89c0,.07-15.69.13-35,.13s-35-.06-35-.13,15.69-.13,35-.13S673.8,264.81,673.8,264.89Z" fill="#02749e"/>
        <path id="Trazado_185280" data-name="Trazado 185280" d="M673.8,269.43c0,.07-15.69.13-35,.13s-35-.06-35-.13,15.69-.14,35-.14S673.8,269.35,673.8,269.43Z" fill="#02749e"/>
        <path id="Trazado_185281" data-name="Trazado 185281" d="M630.3,274c0,.08-5.95.14-13.29.14s-13.29-.06-13.29-.14,5.95-.13,13.29-.13S630.3,273.89,630.3,274Z" fill="#02749e"/>
        <g id="Grupo_92569" data-name="Grupo 92569">
          <path id="Trazado_185282" data-name="Trazado 185282" d="M686.32,250.63l-12.46,29a.73.73,0,0,0,1,1l9.6-4.24a.73.73,0,0,1,1,.43l3.25,9.74a.73.73,0,0,0,1.38,0l11.71-31.24Z" fill="#039be5"/>
          <path id="Trazado_185283" data-name="Trazado 185283" d="M702.57,255.45l6,31a.73.73,0,0,0,1.34.25l5.56-8.91a.74.74,0,0,1,1.07-.2l8.15,6.23a.73.73,0,0,0,1.15-.76l-7.87-32.42Z" fill="#039be5"/>
          <path id="Trazado_185284" data-name="Trazado 185284" d="M703.17,199.86l4.1-3.01,3.21,3.93,4.71-1.89,2.14,4.61,5.04-.67.92,4.99,5.04.61-.34,5.07,4.73,1.84-1.6,4.82,4.13,2.97-2.75,4.27,3.26,3.9-3.72,3.45,2.19,4.59-4.47,2.42.98,4.98-4.92,1.24-.3,5.07-5.07-.03-1.55,4.84-4.91-1.29-2.7,4.3-4.43-2.47-3.69,3.5-3.68-3.5-4.44,2.47-2.69-4.3-4.92,1.29-1.54-4.84-5.08.03-.29-5.07-4.92-1.24.97-4.98-4.46-2.42,2.19-4.59-3.72-3.45,3.26-3.9-2.75-4.27,4.13-2.97-1.6-4.82,4.73-1.84-.34-5.07,5.04-.61.92-4.99,5.04.67,2.13-4.61,4.72,1.89,3.21-3.93Z" fill="#e54950"/>
          <circle id="Elipse_7631" data-name="Elipse 7631" cx="23" cy="23" r="23" transform="translate(670.641 229.371) rotate(-45)" fill="#fff"/>
          <path id="Trazado_185285" data-name="Trazado 185285" d="M708.19,223.93l6.17.9a1.24,1.24,0,0,1,.69,2.11l-4.47,4.35a1.2,1.2,0,0,0-.36,1.09l1,6.15a1.25,1.25,0,0,1-1.8,1.31L704,236.93a1.26,1.26,0,0,0-1.15,0l-5.52,2.9a1.24,1.24,0,0,1-1.8-1.3l1.06-6.15a1.25,1.25,0,0,0-.35-1.1l-4.46-4.36a1.23,1.23,0,0,1,.69-2.1l6.17-.89a1.26,1.26,0,0,0,.93-.68l2.77-5.59a1.24,1.24,0,0,1,2.22,0l2.75,5.6A1.26,1.26,0,0,0,708.19,223.93Z" fill="#ffa726"/>
        </g>
        <g id="Grupo_92570" data-name="Grupo 92570">
          <path id="Trazado_185286" data-name="Trazado 185286" d="M614.77,193a2.82,2.82,0,0,1,3-2.84,2.9,2.9,0,0,1,2.35,1l-1,.89a1.63,1.63,0,0,0-1.29-.64,1.56,1.56,0,1,0,0,3.12,1.63,1.63,0,0,0,1.29-.64l1,.89a2.9,2.9,0,0,1-2.35,1,2.82,2.82,0,0,1-3-2.78Z" fill="#02749e"/>
          <path id="Trazado_185287" data-name="Trazado 185287" d="M625.19,194.57v1.19h-4.38V190.3h4.28v1.2h-2.75v.91h2.42v1.16h-2.42v1Z" fill="#02749e"/>
          <path id="Trazado_185288" data-name="Trazado 185288" d="M628.43,194.31h-.84v1.45h-1.54V190.3h2.49c1.49,0,2.42.77,2.42,2a1.79,1.79,0,0,1-1.06,1.7l1.17,1.72h-1.65Zm0-2.79h-.86v1.6h.86c.64,0,1-.3,1-.8s-.34-.8-.98-.8Z" fill="#02749e"/>
          <path id="Trazado_185289" data-name="Trazado 185289" d="M632.9,191.53h-1.68V190.3h4.89v1.23h-1.67v4.23H632.9Z" fill="#02749e"/>
          <path id="Trazado_185290" data-name="Trazado 185290" d="M636.69,190.3h1.54v5.46h-1.54Z" fill="#02749e"/>
          <path id="Trazado_185291" data-name="Trazado 185291" d="M640.87,191.5v1.2h2.41v1.19h-2.41v1.87h-1.54V190.3h4.28v1.2Z" fill="#02749e"/>
          <path id="Trazado_185292" data-name="Trazado 185292" d="M644.34,190.3h1.54v5.46h-1.54Z" fill="#02749e"/>
          <path id="Trazado_185293" data-name="Trazado 185293" d="M646.7,193a2.82,2.82,0,0,1,3-2.84,2.89,2.89,0,0,1,2.34,1l-1,.89a1.61,1.61,0,0,0-1.28-.64,1.56,1.56,0,0,0,0,3.12,1.61,1.61,0,0,0,1.28-.64l1,.89a2.89,2.89,0,0,1-2.34,1,2.82,2.82,0,0,1-3-2.78Z" fill="#02749e"/>
          <path id="Trazado_185294" data-name="Trazado 185294" d="M656.29,194.7H654l-.43,1.06H652l2.41-5.46h1.52l2.42,5.46h-1.61Zm-.45-1.14-.7-1.75-.7,1.75Z" fill="#02749e"/>
          <path id="Trazado_185295" data-name="Trazado 185295" d="M659.65,191.53H658V190.3h4.89v1.23H661.2v4.23h-1.55Z" fill="#02749e"/>
          <path id="Trazado_185296" data-name="Trazado 185296" d="M663.44,190.3H665v5.46h-1.55Z" fill="#02749e"/>
          <path id="Trazado_185297" data-name="Trazado 185297" d="M665.8,193a3,3,0,1,1,3,2.84,2.86,2.86,0,0,1-3-2.84Zm4.51,0a1.48,1.48,0,1,0-1.47,1.56,1.46,1.46,0,0,0,1.47-1.56Z" fill="#02749e"/>
          <path id="Trazado_185298" data-name="Trazado 185298" d="M677.87,190.3v5.46H676.6l-2.41-2.91v2.91h-1.51V190.3H674l2.41,2.91V190.3Z" fill="#02749e"/>
        </g>
        <path id="Trazado_185299" data-name="Trazado 185299" d="M684.06,293.13c0,.07-7,.13-15.54.13S653,293.2,653,293.13s7-.13,15.54-.13S684.06,293.06,684.06,293.13Z" fill="#02749e"/>
        <path id="Trazado_185300" data-name="Trazado 185300" d="M684.06,297.51c0,.07-7,.13-15.54.13s-15.54-.06-15.54-.13,7-.13,15.54-.13S684.06,297.44,684.06,297.51Z" fill="#02749e"/>
        <g id="Grupo_92571" data-name="Grupo 92571">
          <path id="Trazado_185301" data-name="Trazado 185301" d="M682,316.56v-.22l-.05-.64v-.47a1.457,1.457,0,0,0-.08-.56,10.549,10.549,0,0,0-.29-1.39,12.881,12.881,0,0,0-1.49-3.56,13.38,13.38,0,0,0-17.74-4.93,12.891,12.891,0,0,0-1.63,1,14.209,14.209,0,0,0-1.52,1.29,13.737,13.737,0,0,0-1.3,1.54,12.881,12.881,0,0,0-1.91,3.68,13.349,13.349,0,0,0,1.9,12.1,16.242,16.242,0,0,0,1.31,1.55,15.367,15.367,0,0,0,1.52,1.28,14.2,14.2,0,0,0,1.63,1.06,14.784,14.784,0,0,0,1.74.76A13.38,13.38,0,0,0,680,323.4a12.758,12.758,0,0,0,1.49-3.56,9.9,9.9,0,0,0,.29-1.39c0-.2.07-.39.08-.56v-.47l.05-.64v-.22a.77.77,0,0,1,0,.22v1.11a4.1,4.1,0,0,1-.08.57,8.423,8.423,0,0,1-.26,1.4,12.451,12.451,0,0,1-1.47,3.62,13.492,13.492,0,0,1-16.24,5.85,15.358,15.358,0,0,1-1.77-.78,12.419,12.419,0,0,1-1.67-1.07,14.722,14.722,0,0,1-1.55-1.31,14.325,14.325,0,0,1-1.33-1.57,13.111,13.111,0,0,1-2-3.75,13.5,13.5,0,0,1,0-8.58,13.109,13.109,0,0,1,2-3.75A15.519,15.519,0,0,1,658.9,307a13.445,13.445,0,0,1,4.99-3.16,13.524,13.524,0,0,1,16.26,5.85,12.559,12.559,0,0,1,1.47,3.62,8.628,8.628,0,0,1,.26,1.4,4.613,4.613,0,0,0,.08.57v1.11A.717.717,0,0,1,682,316.56Z" fill="#36dac9"/>
          <circle id="Elipse_7632" data-name="Elipse 7632" cx="8.66" cy="8.66" r="8.66" transform="matrix(0.231, -0.973, 0.973, 0.231, 658.062, 322.96)" fill="#36dac9"/>
        </g>
        <path id="Trazado_185302" data-name="Trazado 185302" d="M687.78,309.1s-.12.08-.37.21l-1.08.57-4.16,2.17-6.56,3.39a6.541,6.541,0,0,1-2.15.69,2.89,2.89,0,0,1-2.26-.69,2.16,2.16,0,0,1-.68-1.08,1.42,1.42,0,0,1,.29-1.28,1.81,1.81,0,0,1,1.21-.58,1.13,1.13,0,0,1,1.19.66h0a6,6,0,0,1-1.45,4,5.61,5.61,0,0,1-4,2,6.1,6.1,0,0,1-4.46-1.61,4,4,0,0,1-1.29-2.17,2.06,2.06,0,0,1,.17-1.31,1.87,1.87,0,0,1,1-.91,1.42,1.42,0,0,1,1.35.18,2.3,2.3,0,0,1,.76,1.13,4,4,0,0,1,.2,1.33,3.857,3.857,0,0,1,0,.68,5.127,5.127,0,0,1-.09.67,7.77,7.77,0,0,1-2.8,4.63,6.86,6.86,0,0,1-5.33,1.53,7.71,7.71,0,0,1-4.88-3,7.39,7.39,0,0,1-1.4-3,5.57,5.57,0,0,1,.25-3.28,2.731,2.731,0,0,1,1.08-1.27,2.3,2.3,0,0,1,1.62-.31,2,2,0,0,1,1.29,1,5.659,5.659,0,0,1,.53,1.51,10.78,10.78,0,0,1-.37,6.12,8.76,8.76,0,0,1-3.69,4.54,8.56,8.56,0,0,1-5.45,1.19,7.121,7.121,0,0,1-2.58-.84,7,7,0,0,1-2-1.7A7.23,7.23,0,0,1,640,319.7a6,6,0,0,1,.48-2.3,2.79,2.79,0,0,1,1.56-1.6,2,2,0,0,1,1.11,0,2.44,2.44,0,0,1,.93.56,4.491,4.491,0,0,1,1.06,1.74,5.64,5.64,0,0,1,.33,1.88v.92a6.392,6.392,0,0,1-.06.88,15,15,0,0,1-1.69,5.64,14.61,14.61,0,0,1-2.15,3.05c-.29.32-.53.54-.69.69l-.24.22.22-.24c.16-.15.39-.38.67-.7a15.5,15.5,0,0,0,2.1-3.06,15.332,15.332,0,0,0,1.64-5.62,8.143,8.143,0,0,0,0-.87v-.9a5.69,5.69,0,0,0-.34-1.84,4.36,4.36,0,0,0-1-1.67,2.3,2.3,0,0,0-.85-.51,1.8,1.8,0,0,0-1,0,2.59,2.59,0,0,0-1.45,1.5,6,6,0,0,0-.45,2.23,7,7,0,0,0,1.63,4.47,6.58,6.58,0,0,0,1.94,1.65,6.86,6.86,0,0,0,2.5.8,8.27,8.27,0,0,0,5.29-1.17A8.42,8.42,0,0,0,655.1,321a10.44,10.44,0,0,0,.36-6,5.53,5.53,0,0,0-.5-1.45,1.68,1.68,0,0,0-1.12-.88,2,2,0,0,0-1.44.28,2.39,2.39,0,0,0-1,1.15,5.25,5.25,0,0,0-.23,3.12,7,7,0,0,0,1.35,2.91,7.41,7.41,0,0,0,4.7,2.86,6.61,6.61,0,0,0,5.14-1.47,7.54,7.54,0,0,0,2.71-4.47,3.6,3.6,0,0,0,.08-.65,2.83,2.83,0,0,0,0-.65,3.811,3.811,0,0,0-.19-1.26,2.1,2.1,0,0,0-.67-1,1.16,1.16,0,0,0-1.11-.15,1.68,1.68,0,0,0-.85.79,1.849,1.849,0,0,0-.14,1.16,3.77,3.77,0,0,0,1.21,2,5.8,5.8,0,0,0,4.29,1.56A5.38,5.38,0,0,0,671.6,317a5.78,5.78,0,0,0,1.4-3.8h0a.91.91,0,0,0-1-.54,1.56,1.56,0,0,0-1.08.51,1.16,1.16,0,0,0-.25,1.1,1.869,1.869,0,0,0,.61,1,2.71,2.71,0,0,0,2.13.66,6.721,6.721,0,0,0,2.09-.66l6.58-3.35,4.19-2.12,1.09-.55Z" fill="#02749e"/>
        <path id="Trazado_185303" data-name="Trazado 185303" d="M642.74,185.08c0,.07-10.64.13-23.76.13s-23.75-.06-23.75-.13,10.63-.14,23.75-.14S642.74,185,642.74,185.08Z" fill="#e1e1e1"/>
        <path id="Trazado_185304" data-name="Trazado 185304" d="M650.66,185.08a10.54,10.54,0,0,1-3.3,0A9.79,9.79,0,0,1,650.66,185.08Z" fill="#e1e1e1"/>
        <path id="Trazado_185305" data-name="Trazado 185305" d="M698,185.08c0,.07-9.71.13-21.67.13s-21.67-.06-21.67-.13,9.7-.14,21.67-.14S698,185,698,185.08Z" fill="#e1e1e1"/>
        <path id="Trazado_185306" data-name="Trazado 185306" d="M642.74,198.29c0,.08-10.64.13-23.76.13s-23.75,0-23.75-.13,10.63-.13,23.75-.13S642.74,198.22,642.74,198.29Z" fill="#e1e1e1"/>
        <path id="Trazado_185307" data-name="Trazado 185307" d="M650.66,198.29a10.54,10.54,0,0,1-3.3,0,10.541,10.541,0,0,1,3.3,0Z" fill="#e1e1e1"/>
        <path id="Trazado_185308" data-name="Trazado 185308" d="M698,198.29c0,.08-9.71.13-21.67.13s-21.67,0-21.67-.13,9.7-.13,21.67-.13S698,198.22,698,198.29Z" fill="#e1e1e1"/>
      </g>
      <g id="Grupo_92595" data-name="Grupo 92595">
        <path id="Trazado_185309" data-name="Trazado 185309" d="M575.52,227c3.67.47,4.21,4.23,5.57,7.38s4,6,5.95,8.78c1.06,1.49,2.5,2.83,2.88,4.6s-.44,3.77-.84,5.65-.12,4.2,1.69,5a2,2,0,0,1-1.66.7,2.2,2.2,0,0,1-1.75,1.87,6.73,6.73,0,0,1-2.79,0c.24.58-.28,1.27-.93,1.5a3.71,3.71,0,0,1-2,0,4.93,4.93,0,0,0-2-.14c-1.49.32-2.39,2-3.9,2.22-2.06.3-3.56-2.35-5.6-1.89-1,.22-1.6,1.06-2.39,1.63a1.74,1.74,0,0,1-2.49-.39,8.58,8.58,0,0,1-4.58,3.09,1.66,1.66,0,0,0-.35-1.81,7,7,0,0,1-3.4,1.49,3.51,3.51,0,0,0,1.14-2.72,3.52,3.52,0,0,1-3,.64c1.84-1.05,2-3.49,1.37-5.33s-1.9-3.48-2.15-5.41c-.26-2.1,2.21-4.77,1.73-6.84a25.619,25.619,0,0,1-.56-8.1,14.671,14.671,0,0,1,1.8-5.49,11.14,11.14,0,0,1,4.88-5.28,16.39,16.39,0,0,1,7-2.15c4-.09,5.59-.22,8.73,1.88" fill="#ae7461"/>
        <g id="Grupo_92594" data-name="Grupo 92594">
          <g id="Grupo_92576" data-name="Grupo 92576">
            <g id="Grupo_92574" data-name="Grupo 92574">
              <g id="Grupo_92573" data-name="Grupo 92573">
                <path id="Trazado_185310" data-name="Trazado 185310" d="M563.28,252.94a50.575,50.575,0,0,1-3.23-7.9,17.27,17.27,0,0,1-.45-8.44c.1-.42,1-3.28,1.44-3.3s-.14,2.61.05,2.85a14.66,14.66,0,0,1,2.77,8.24,38.938,38.938,0,0,1-.58,8.55" fill="#02749e"/>
                <path id="Trazado_185311" data-name="Trazado 185311" d="M580.65,277c-4.39.49-14.95-4.11-15.54-8.49l-3.55-26.32c-1.18-7,1.93-13.6,9-14.59l.66-.05a12.78,12.78,0,0,1,13.63,10.69c1,6.1,2,12.86,2.22,16.17.47,6.83-6.28,8.44-6.28,8.44s.17,1.58.42,3.58a31.18,31.18,0,0,1-.56,10.57Z" fill="#ffbf9d"/>
                <path id="Trazado_185312" data-name="Trazado 185312" d="M580.79,262.87a16.54,16.54,0,0,1-9.1-1.91s2.55,5,9.31,3.8Z" fill="#ff9a6c"/>
                <path id="Trazado_185313" data-name="Trazado 185313" d="M582.3,244.2a1,1,0,0,1-.86,1.06.93.93,0,0,1-1.07-.8,1,1,0,0,1,.86-1.06.94.94,0,0,1,1.07.8Z" fill="#02749e"/>
                <path id="Trazado_185314" data-name="Trazado 185314" d="M583.64,241.38c-.12.14-.9-.35-1.95-.26s-1.77.67-1.9.55.05-.29.36-.56a2.7,2.7,0,0,1,1.51-.6,2.6,2.6,0,0,1,1.56.37C583.56,241.1,583.69,241.32,583.64,241.38Z" fill="#02749e"/>
                <path id="Trazado_185315" data-name="Trazado 185315" d="M572.44,245a1,1,0,0,1-.86,1.06.93.93,0,0,1-1.08-.8.98.98,0,0,1,1.94-.26Z" fill="#02749e"/>
                <path id="Trazado_185316" data-name="Trazado 185316" d="M573.37,242.45c-.11.14-.9-.35-2-.26s-1.77.67-1.9.55.05-.29.36-.56a2.7,2.7,0,0,1,1.51-.6A2.56,2.56,0,0,1,573,242C573.29,242.17,573.42,242.39,573.37,242.45Z" fill="#02749e"/>
                <path id="Trazado_185317" data-name="Trazado 185317" d="M577.78,250.22a6.679,6.679,0,0,1,1.68-.45c.26-.05.51-.12.54-.31a1.3,1.3,0,0,0-.24-.78l-1-2a33.629,33.629,0,0,1-2.21-5.19,35.788,35.788,0,0,1,2.62,5l.92,2a1.54,1.54,0,0,1,.23,1,.71.71,0,0,1-.41.42,1.42,1.42,0,0,1-.45.1,7.34,7.34,0,0,1-1.68.21Z" fill="#02749e"/>
                <path id="Trazado_185318" data-name="Trazado 185318" d="M573,238.54c-.12.28-1.16.08-2.4.15s-2.27.35-2.41.08.12-.38.54-.64a4.18,4.18,0,0,1,3.67-.17C572.8,238.17,573,238.41,573,238.54Z" fill="#02749e"/>
                <path id="Trazado_185319" data-name="Trazado 185319" d="M583.19,239c-.19.26-1.07.09-2.1.18s-1.88.34-2.1.11,0-.36.37-.63a3.32,3.32,0,0,1,1.67-.55,3.24,3.24,0,0,1,1.72.32C583.13,238.59,583.28,238.83,583.19,239Z" fill="#02749e"/>
                <path id="Trazado_185320" data-name="Trazado 185320" d="M562.52,247.22c-.12,0-4.8-1-4.28,3.64s5.09,3.18,5.09,3S562.52,247.22,562.52,247.22Z" fill="#ffbf9d"/>
                <path id="Trazado_185321" data-name="Trazado 185321" d="M561.7,252.3a1.725,1.725,0,0,1-.2.14.78.78,0,0,1-.61.08,2,2,0,0,1-1.13-1.7,2.7,2.7,0,0,1,.1-1.18.93.93,0,0,1,.54-.69.4.4,0,0,1,.5.17c.08.12.06.21.09.22s.09-.09,0-.28a.54.54,0,0,0-.22-.27.64.64,0,0,0-.46-.07,1.17,1.17,0,0,0-.76.82,2.66,2.66,0,0,0-.14,1.33,2.12,2.12,0,0,0,1.41,1.88.86.86,0,0,0,.73-.21C561.71,252.41,561.72,252.3,561.7,252.3Z" fill="#ff9a6c"/>
                <path id="Trazado_185322" data-name="Trazado 185322" d="M580.9,230.91c.7-.51-1.85-2.67-3.81-3.28-3-.93-7.31-1.2-9.8-.15-3,1.25-5.39,3.11-6.6,6.13a18.289,18.289,0,0,0-.92,9.59,5.5,5.5,0,0,0,1,2.76c.77.95,2.1,1.45,2.21,2.87a2,2,0,0,0,.66,1.36c1,.81,1.9-.17,2.27-1.08a20.24,20.24,0,0,0-.34-10.62c-.32-.75-.78-1.44-1.06-2.21a2.82,2.82,0,0,1,0-2.36,3.581,3.581,0,0,1,.33-.43,4.92,4.92,0,0,1,4.71-1.5c2.73.61,7.37,1.45,8.43.42a7.18,7.18,0,0,0,1.83-2.36Z" fill="#ae7461"/>
              </g>
              <path id="Trazado_185323" data-name="Trazado 185323" d="M575,251.13c-.07,0-.07.27.07.66a2.65,2.65,0,0,0,1,1.27,4.58,4.58,0,0,0,1.45.62c.39.09.64.1.66,0s-.19-.19-.54-.36a9.008,9.008,0,0,1-1.29-.7C575.4,252,575.12,251.07,575,251.13Z" fill="#02749e"/>
            </g>
            <g id="Grupo_92575" data-name="Grupo 92575">
              <path id="Trazado_185324" data-name="Trazado 185324" d="M562.67,247.83c0,.08.08.16.12.26Z" fill="#36dac9"/>
              <path id="Trazado_185325" data-name="Trazado 185325" d="M561.08,247.11s.78-1,1.59.72c-1-2.29-7.42-18.79,10.27-21,0,0-6.39-1.13-10.24,2C562.7,228.91,554.87,233.59,561.08,247.11Z" fill="#375a64"/>
            </g>
          </g>
          <g id="Grupo_92581" data-name="Grupo 92581">
            <path id="Trazado_185326" data-name="Trazado 185326" d="M594.9,330.44l-41.11.56s-11.5-4.81-14.66-4.94-9.43.27-12.33,4.94c-3,4.83-3.42,13.34,5.82,19.53,9,6,50.14,11.59,55.78,11.08l10.4-14s.11-11.43,0-12-1.85-5.45-1.85-5.45Z" fill="#02749e"/>
            <g id="Grupo_92578" data-name="Grupo 92578">
              <path id="Trazado_185327" data-name="Trazado 185327" d="M570.29,349.75,549,357.66l9.71,26.56c2.48-1.09,2.55-16.69,2.55-16.69L575.1,363Z" fill="#36dac9"/>
              <g id="Grupo_92577" data-name="Grupo 92577" opacity="0.6">
                <path id="Trazado_185328" data-name="Trazado 185328" d="M559.39,358.9a1.15,1.15,0,0,0-1.51-.29,1.11,1.11,0,0,0-.31,1.49,1.23,1.23,0,0,0,1.61.31,1.15,1.15,0,0,0,.14-1.59" fill="#fff"/>
              </g>
              <path id="Trazado_185329" data-name="Trazado 185329" d="M549,357.66l2.15-.8,8.52,25.82s-.08,1.37-1,1.54Z" fill="#02749e"/>
              <path id="Trazado_185330" data-name="Trazado 185330" d="M561.54,367.92c-.13,0-.43-.59-1.08-1.07s-1.32-.63-1.31-.77.83-.22,1.6.38S561.67,367.9,561.54,367.92Z" fill="#02749e"/>
              <path id="Trazado_185331" data-name="Trazado 185331" d="M561.4,371.12c-.11.08-.54-.4-1.25-.64s-1.33-.16-1.37-.29.66-.48,1.54-.17S561.53,371.07,561.4,371.12Z" fill="#02749e"/>
              <path id="Trazado_185332" data-name="Trazado 185332" d="M558.65,373.92c-.07-.11.51-.52,1.34-.45s1.34.58,1.25.67-.6-.14-1.29-.19S558.71,374.05,558.65,373.92Z" fill="#02749e"/>
              <path id="Trazado_185333" data-name="Trazado 185333" d="M564.58,366.54c-.14,0-.17-.67-.49-1.39s-.76-1.2-.67-1.31.75.27,1.11,1.12S564.71,366.56,564.58,366.54Z" fill="#02749e"/>
              <path id="Trazado_185334" data-name="Trazado 185334" d="M567.5,364.75a2.69,2.69,0,0,1-.48-1.33,6.26,6.26,0,0,1-.08-1.55,6,6,0,0,1,.13-.91,1.88,1.88,0,0,1,.16-.52.61.61,0,0,1,.67-.31.75.75,0,0,1,.5.46,2,2,0,0,1,.12.53,5.826,5.826,0,0,1,0,.93,5.139,5.139,0,0,1-.36,1.52c-.34.82-.75,1.21-.79,1.17s.23-.49.47-1.29a5.6,5.6,0,0,0,.24-1.43,6.331,6.331,0,0,0-.05-.85c0-.3-.11-.54-.26-.57s-.08,0-.14.08a1.131,1.131,0,0,0-.12.38,6.927,6.927,0,0,0-.15.85,8.15,8.15,0,0,0,0,1.47,9,9,0,0,1,.14,1.37Z" fill="#02749e"/>
              <path id="Trazado_185335" data-name="Trazado 185335" d="M567.25,364.65a3,3,0,0,1,1.16-.82,4.64,4.64,0,0,1,2.45-.31,1.18,1.18,0,0,1,1,.61.67.67,0,0,1-.17.69,1.878,1.878,0,0,1-.44.31,3.158,3.158,0,0,1-.9.33,3.42,3.42,0,0,1-1.58-.06c-.87-.27-1.23-.76-1.19-.78a5.867,5.867,0,0,0,1.27.45,3.4,3.4,0,0,0,1.41,0,2.71,2.71,0,0,0,.76-.31c.26-.14.45-.33.39-.43a1.022,1.022,0,0,0-.61-.3,4.923,4.923,0,0,0-.84-.07,5.2,5.2,0,0,0-1.42.23C567.73,364.4,567.3,364.72,567.25,364.65Z" fill="#02749e"/>
            </g>
            <g id="Grupo_92580" data-name="Grupo 92580">
              <path id="Trazado_185336" data-name="Trazado 185336" d="M587.86,346.47,608.48,356l-11.77,25.71c-2.39-1.27-1.23-16.83-1.23-16.83L582,359.32Z" fill="#36dac9"/>
              <g id="Grupo_92579" data-name="Grupo 92579" opacity="0.6">
                <path id="Trazado_185337" data-name="Trazado 185337" d="M598,356.45a1.17,1.17,0,0,1,1.54-.18,1.11,1.11,0,0,1,.18,1.52,1.22,1.22,0,0,1-1.62.18,1.15,1.15,0,0,1,0-1.6" fill="#fff"/>
              </g>
              <path id="Trazado_185338" data-name="Trazado 185338" d="M608.48,356l-2.08-1-10.53,25.06s0,1.37.84,1.61Z" fill="#02749e"/>
              <path id="Trazado_185339" data-name="Trazado 185339" d="M595.16,365.27c.13.05.47-.55,1.16-1s1.36-.52,1.36-.65-.8-.29-1.62.25S595,365.24,595.16,365.27Z" fill="#02749e"/>
              <path id="Trazado_185340" data-name="Trazado 185340" d="M595,368.47c.11.09.57-.36,1.3-.54s1.34-.05,1.39-.18-.62-.53-1.52-.29S594.92,368.41,595,368.47Z" fill="#02749e"/>
              <path id="Trazado_185341" data-name="Trazado 185341" d="M597.57,371.48c.08-.1-.47-.56-1.31-.55s-1.37.46-1.29.57.61-.1,1.3-.09S597.5,371.6,597.57,371.48Z" fill="#02749e"/>
              <path id="Trazado_185342" data-name="Trazado 185342" d="M592.23,363.65c.14,0,.23-.65.6-1.34s.85-1.14.78-1.25-.77.21-1.2,1S592.11,363.67,592.23,363.65Z" fill="#02749e"/>
              <path id="Trazado_185343" data-name="Trazado 185343" d="M589.46,361.64a3.587,3.587,0,0,0,.59-1.29,6.61,6.61,0,0,0,.2-1.53,5.837,5.837,0,0,0-.06-.92,1.66,1.66,0,0,0-.12-.53.59.59,0,0,0-.64-.36.74.74,0,0,0-.54.42,1.859,1.859,0,0,0-.16.51,6.1,6.1,0,0,0-.09.93,4.931,4.931,0,0,0,.24,1.54c.28.85.65,1.27.7,1.24s-.19-.51-.37-1.33a5.308,5.308,0,0,1-.12-1.44,4.312,4.312,0,0,1,.11-.85c0-.3.15-.53.31-.55s.07,0,.13.1a1.518,1.518,0,0,1,.09.38c0,.3.07.59.08.86a8,8,0,0,1-.1,1.46A10.112,10.112,0,0,0,589.46,361.64Z" fill="#02749e"/>
              <path id="Trazado_185344" data-name="Trazado 185344" d="M589.72,361.56a2.926,2.926,0,0,0-1.09-.91,4.93,4.93,0,0,0-1.49-.47,5.673,5.673,0,0,0-.93,0,1.19,1.19,0,0,0-1,.53.68.68,0,0,0,.11.7,1.863,1.863,0,0,0,.42.35,3.35,3.35,0,0,0,.86.4,3.31,3.31,0,0,0,1.58.06c.9-.2,1.29-.66,1.25-.69a10.07,10.07,0,0,1-1.3.35,3.2,3.2,0,0,1-1.4-.15,2.749,2.749,0,0,1-.73-.36c-.25-.17-.43-.37-.35-.46a1.059,1.059,0,0,1,.63-.26,5.891,5.891,0,0,1,.84,0,5.631,5.631,0,0,1,1.4.34C589.26,361.27,589.67,361.62,589.72,361.56Z" fill="#02749e"/>
            </g>
            <path id="Trazado_185345" data-name="Trazado 185345" d="M597,330.22s17.75-6.63,24.29-5.77c3.65.48,9.37,3.27,9.8,7.95s-.71,11-7,14-31.54,14.37-37.53,16.11-20.93,5.82-20.93,5.82l-5.67-16.17s31-10.72,32.59-11.91a37.062,37.062,0,0,1,5.77-2.84Z" fill="#02749e"/>
            <path id="Trazado_185346" data-name="Trazado 185346" d="M535.23,332.42h.12l.36-.11c.31-.09.77-.23,1.38-.37a17.538,17.538,0,0,1,2.22-.39,16.609,16.609,0,0,1,3,0,16.822,16.822,0,0,1,3.55.67,12.786,12.786,0,0,1,1.88.73l1.93.95c2.66,1.27,5.62,2.57,8.78,3.82a106.345,106.345,0,0,0,16.73,4.72c2.17.48,3.93.87,5.14,1.16l1.4.33.36.08h0l-.35-.1-1.39-.36c-1.21-.31-3-.73-5.13-1.22a110,110,0,0,1-16.69-4.77c-3.15-1.25-6.12-2.54-8.77-3.8l-1.94-.94a12.351,12.351,0,0,0-1.9-.73,17.229,17.229,0,0,0-3.59-.66,15.711,15.711,0,0,0-3,0,14.154,14.154,0,0,0-2.23.42c-.6.15-1.06.3-1.37.41l-.36.12Z" fill="#375a64"/>
            <path id="Trazado_185347" data-name="Trazado 185347" d="M536.16,330.08s.54-.06,1.41-.16a22.351,22.351,0,0,1,3.41-.09,21.384,21.384,0,0,1,3.38.44c.85.18,1.38.34,1.39.31a1.231,1.231,0,0,0-.36-.15c-.23-.08-.57-.18-1-.29a17.692,17.692,0,0,0-3.4-.51,18.481,18.481,0,0,0-3.44.16,10.142,10.142,0,0,0-1,.19,1.59,1.59,0,0,0-.39.1Z" fill="#375a64"/>
            <path id="Trazado_185348" data-name="Trazado 185348" d="M604.42,334.92s.51-.35,1.36-.88a18.627,18.627,0,0,1,3.51-1.69,18.853,18.853,0,0,1,3.8-.89c1-.12,1.61-.13,1.61-.17a2.061,2.061,0,0,0-.43,0,9.647,9.647,0,0,0-1.2.06,15.88,15.88,0,0,0-7.36,2.6c-.42.28-.75.52-1,.7A1.659,1.659,0,0,0,604.42,334.92Z" fill="#375a64"/>
            <path id="Trazado_185349" data-name="Trazado 185349" d="M595.51,359h-.14l-.41.17c-.35.15-.87.39-1.56.66-1.39.55-3.43,1.3-6,2.16-5.25,1.71-12.78,3.9-21.81,6.17l.11.05c-1.69-4.66-3.54-9.81-5.49-15.23l-.06.12,6.8-2.79,37.61-15.48h0c1.53-1.62,2.94-3,4.26-4.2a28.674,28.674,0,0,1,3.57-2.69,24.641,24.641,0,0,1,2.45-1.37l.66-.3.22-.11-.23.09-.67.29a25.408,25.408,0,0,0-2.47,1.34,28.28,28.28,0,0,0-3.6,2.68c-1.33,1.14-2.75,2.57-4.29,4.19h0l-37.64,15.42L560,353h-.08v.08l5.5,15.23v.08h.08c9-2.29,16.55-4.5,21.79-6.24,2.62-.88,4.66-1.65,6-2.21.69-.28,1.2-.53,1.56-.68l.39-.18Z" fill="#375a64"/>
          </g>
          <g id="Grupo_92583" data-name="Grupo 92583">
            <path id="Trazado_185350" data-name="Trazado 185350" d="M551.62,273.64s-5.11,2.95-6.15,6.41c-.62,2.1-5.39,29-6.15,34.27s.84,9.23,3.1,11,9.11,4.1,9.11,4.1l9.64,3.12,2.76-7-9.17-13.18.88-8.88Z" fill="#36dac9"/>
            <path id="Trazado_185351" data-name="Trazado 185351" d="M561.67,269l3.19-2.35s4.15,4.25,8.92,3.74a12,12,0,0,0,7.6-4.15l14.23,2.9h0a7,7,0,0,1,4.36,3.17c1.86,2.65,10.66,14.42,10.66,14.42h6.17a4.57,4.57,0,0,1,4.05,2.45c1,2,2.31,4.68,2.19,5.79-.21,1.88.15,7-2.36,8.64-.8.51-3.66,2-5.88,1.94a19.72,19.72,0,0,1-9.26-3.39c-1.85-1.29-6.16-5.78-7.82-7.52h0L596.66,332l-37.31-1.06-7.73-57.29S561.29,269,561.67,269Z" fill="#36dac9"/>
            <path id="Trazado_185352" data-name="Trazado 185352" d="M597.85,279c-.05,0-.15,4.62-.21,10.33s-.08,10.34,0,10.34.15-4.63.22-10.34S597.91,279,597.85,279Z" fill="#02749e"/>
            <path id="Trazado_185353" data-name="Trazado 185353" d="M547.11,309.17s.31.05.88.16a10.763,10.763,0,0,1,2.31.74,14.881,14.881,0,0,1,3.07,1.85,26.911,26.911,0,0,1,3.24,3c1.07,1.15,2,2.29,3,3.3a33.331,33.331,0,0,0,2.54,2.59,18.222,18.222,0,0,0,1.91,1.53c.23.17.43.28.56.36l.2.11-.18-.14c-.12-.09-.31-.21-.54-.39a22,22,0,0,1-1.86-1.57c-.75-.7-1.6-1.59-2.5-2.6s-1.88-2.16-3-3.32a26.465,26.465,0,0,0-3.27-3,15.081,15.081,0,0,0-3.13-1.84,9.859,9.859,0,0,0-2.35-.68,6.27,6.27,0,0,0-.66-.08Z" fill="#02749e"/>
            <path id="Trazado_185354" data-name="Trazado 185354" d="M546.26,306.64s.57.12,1.45.36a13.58,13.58,0,0,1,6.12,3.64c.64.67,1,1.13,1,1.11a1.327,1.327,0,0,0-.21-.34,9.576,9.576,0,0,0-.7-.86,11.838,11.838,0,0,0-2.81-2.3,12.18,12.18,0,0,0-3.36-1.38,9.323,9.323,0,0,0-1.08-.2,2.078,2.078,0,0,0-.41-.03Z" fill="#02749e"/>
            <g id="Grupo_92582" data-name="Grupo 92582" opacity="0.3">
              <path id="Trazado_185355" data-name="Trazado 185355" d="M615.69,300.09c-2,.54-4.34-2.3-6.14-4.08a7.5,7.5,0,0,1-2.24-3.18,5,5,0,0,1,.31-3.18,11.81,11.81,0,0,1,1.31-2.55,16.831,16.831,0,0,0,0,5.81,10.311,10.311,0,0,0,2.53,4.09,9.09,9.09,0,0,0,4.26,3.09"/>
            </g>
            <path id="Trazado_185356" data-name="Trazado 185356" d="M607.25,298.47s-.19-.65-.38-1.73a13.654,13.654,0,0,1-.18-1.89,14.6,14.6,0,0,1,.16-2.32,13.431,13.431,0,0,1,1.32-4c.51-1,.92-1.5.89-1.52a1.922,1.922,0,0,0-.3.36,3.993,3.993,0,0,0-.32.46c-.12.19-.26.39-.39.63a12.3,12.3,0,0,0-.8,1.76,13.89,13.89,0,0,0-.59,2.29,12.911,12.911,0,0,0-.14,2.35,12.278,12.278,0,0,0,.22,1.92,2.93,2.93,0,0,0,.17.72,3.321,3.321,0,0,0,.17.53,3.27,3.27,0,0,0,.17.44Z" fill="#02749e"/>
            <path id="Trazado_185357" data-name="Trazado 185357" d="M579.83,267.68a10.148,10.148,0,0,0,.87.72c.46.4.76.81.81.78a2,2,0,0,0-.69-.93,2.07,2.07,0,0,0-.99-.57Z" fill="#02749e"/>
            <path id="Trazado_185358" data-name="Trazado 185358" d="M575.94,269.94a8.033,8.033,0,0,1,.64,1c.3.56.42,1.13.48,1.12a2.16,2.16,0,0,0-.31-1.21,2.061,2.061,0,0,0-.81-.91Z" fill="#02749e"/>
            <path id="Trazado_185359" data-name="Trazado 185359" d="M569.3,272.28q.431-1.11.81-2.24a2.629,2.629,0,0,0-.57,1.06A2.881,2.881,0,0,0,569.3,272.28Z" fill="#02749e"/>
            <path id="Trazado_185360" data-name="Trazado 185360" d="M565,270.26c.06,0,.2-.64.62-1.33s.93-1.12.89-1.17a2.63,2.63,0,0,0-1,1.07,2.57,2.57,0,0,0-.51,1.43Z" fill="#02749e"/>
            <path id="Trazado_185361" data-name="Trazado 185361" d="M552.74,282.34c-.06,0,.58,5.11,1.41,11.39s1.55,11.37,1.6,11.36-.58-5.1-1.41-11.39S552.79,282.34,552.74,282.34Z" fill="#02749e"/>
          </g>
          <path id="Trazado_185362" data-name="Trazado 185362" d="M608.64,290.6a3.061,3.061,0,0,0,0,.53,6.086,6.086,0,0,0,.08.61l.06.38a1.744,1.744,0,0,0,.11.42,11.74,11.74,0,0,0,.74,2,13.923,13.923,0,0,0,1.37,2.22,11.662,11.662,0,0,0,1.82,1.88,7.783,7.783,0,0,0,1.83,1.1l.4.17.37.1.33.09h.28a3,3,0,0,0,.53,0,9.82,9.82,0,0,1-1.86-.56,8,8,0,0,1-1.77-1.12,11.759,11.759,0,0,1-1.78-1.86,14.725,14.725,0,0,1-1.37-2.18,12.527,12.527,0,0,1-.76-2C608.7,291.35,608.69,290.6,608.64,290.6Z" fill="#02749e"/>
          <g id="Grupo_92588" data-name="Grupo 92588">
            <g id="Grupo_92586" data-name="Grupo 92586">
              <g id="Grupo_92584" data-name="Grupo 92584" opacity="0.3">
                <path id="Trazado_185363" data-name="Trazado 185363" d="M553.94,333.27c-1.58-.77-1.94-2.82-2.11-4.57l-1.41-15.38c-.23-2.41-.33-5.16,1.37-6.89,1.55-1.57,4-1.67,6.23-1.66,13.65,0,25.7.44,39.36.48l-.7,23.88Z"/>
              </g>
              <g id="Grupo_92585" data-name="Grupo 92585">
                <path id="Trazado_185364" data-name="Trazado 185364" d="M603.26,309l-1.46,27.69a2,2,0,0,1-2,1.91l-44.12.07a2,2,0,0,1-2-1.91l-1.69-27.22c-.05-1.13.75-2.64,1.9-2.66h47.35a2,2,0,0,1,2.02,2.12Z" fill="#e1e1e1"/>
                <path id="Trazado_185365" data-name="Trazado 185365" d="M603.26,309v-.11a1.77,1.77,0,0,0,0-.31,2,2,0,0,0-.53-1.07A1.911,1.911,0,0,0,602,307a2.619,2.619,0,0,0-1.07-.15H554a1.65,1.65,0,0,0-.91.23,2.219,2.219,0,0,0-.67.66,3.26,3.26,0,0,0-.56,1.79c0,.62.08,1.24.11,1.86.16,2.49.31,5,.47,7.63.32,5.18.65,10.55,1,16l.07,1a9.277,9.277,0,0,0,.08,1,2.11,2.11,0,0,0,1.33,1.56,2.67,2.67,0,0,0,1,.14h43.4a6.483,6.483,0,0,0,.76,0,2.08,2.08,0,0,0,1.32-.73,2.15,2.15,0,0,0,.5-1.4c0-.48.05-1,.07-1.43l.14-2.76c.37-7.21.66-13,.87-17.07.1-2,.17-3.58.22-4.64a6.565,6.565,0,0,1,.06-1.21.724.724,0,0,0,0-.41v.41l-.08,1.2c-.06,1.07-.14,2.63-.26,4.64-.22,4-.53,9.87-.92,17.07l-.15,2.77-.08,1.43a2,2,0,0,1-.46,1.3,1.9,1.9,0,0,1-1.23.68,6.151,6.151,0,0,1-.75,0H555.94a2.4,2.4,0,0,1-1-.13,1.9,1.9,0,0,1-1.21-1.42,8.1,8.1,0,0,1-.08-1l-.07-1c-.34-5.49-.67-10.86-1-16-.16-2.59-.32-5.14-.48-7.63,0-.62-.07-1.24-.11-1.85a3.09,3.09,0,0,1,.52-1.68,1.64,1.64,0,0,1,1.44-.82h46.93A2.5,2.5,0,0,1,602,307a2,2,0,0,1,.73.48,2.12,2.12,0,0,1,.53,1.06C603.27,308.81,603.25,309,603.26,309Z" fill="#02749e"/>
              </g>
            </g>
            <g id="Grupo_92587" data-name="Grupo 92587">
              <path id="Trazado_185366" data-name="Trazado 185366" d="M574.68,322.45a2.6,2.6,0,1,0,2.59-2.59,2.6,2.6,0,0,0-2.59,2.59Z" fill="#fff"/>
              <path id="Trazado_185367" data-name="Trazado 185367" d="M574.68,322.45a2.543,2.543,0,0,1,.11-.62,2.65,2.65,0,0,1,1-1.39,2.53,2.53,0,0,1,4,2,2.58,2.58,0,0,1-.49,1.49,2.54,2.54,0,0,1-3.55.53,2.65,2.65,0,0,1-1-1.39c-.1-.39-.09-.63-.11-.63s0,.06,0,.17a2,2,0,0,0,.06.48,2.61,2.61,0,0,0,.94,1.47,2.76,2.76,0,0,0,1.12.52,2.65,2.65,0,0,0,1.41-.11,2.7,2.7,0,0,0,1.25-.93,2.67,2.67,0,0,0,0-3.19,2.7,2.7,0,0,0-1.25-.93,2.647,2.647,0,0,0-3.47,1.88,2,2,0,0,0-.06.48C574.67,322.4,574.67,322.45,574.68,322.45Z" fill="#02749e"/>
            </g>
            <path id="Trazado_185368" data-name="Trazado 185368" d="M601.77,312s-.27,4.65-.48,10.4-.35,10.4-.3,10.4.27-4.65.49-10.4S601.83,312,601.77,312Z" fill="#02749e"/>
          </g>
          <g id="Grupo_92593" data-name="Grupo 92593">
            <path id="Trazado_185369" data-name="Trazado 185369" d="M615,275.88c.26-.22-.87-4.57-.87-4.57s3-4.89,3.07-6.46a17.623,17.623,0,0,0-1.18-4.81l-8.58-2.2a67,67,0,0,0-3.31,6.93c-.55,1.81.94,8,.94,8l1.46,3.16S610.94,279.34,615,275.88Z" fill="#ffbf9d"/>
            <g id="Grupo_92592" data-name="Grupo 92592">
              <path id="Trazado_185370" data-name="Trazado 185370" d="M617.22,265.79a19.717,19.717,0,0,0,.9-1.91c.54-1.29,1.21-2.55,0-3.27a1.58,1.58,0,0,0-1.29-.2s.18-1.09-.47-1.5a1.42,1.42,0,0,0-1.27-.11s.21-1.53-.73-2.18a2.25,2.25,0,0,0-2.37-.06s.73-6.7.8-7.06c.23-1.3-.25-2.45-1.54-2.13-.48.11-.74.62-1.3,2.8s-1.45,5.9-1.45,5.9-1.51,2.62-2.22,4a35,35,0,0,0-2.24,5.52,11.861,11.861,0,0,0,1,5.15l9.13.53Z" fill="#ffbf9d"/>
              <path id="Trazado_185371" data-name="Trazado 185371" d="M616.65,260.69a7.825,7.825,0,0,0-.71,1l-.72,1.1a5.507,5.507,0,0,0-.39.68,1.43,1.43,0,0,0-.11.87.86.86,0,0,0,.58.68,1.17,1.17,0,0,0,.81-.1,3.186,3.186,0,0,0,.61-.38c.18-.13.35-.25.49-.37q.45-.35.69-.57c.15-.14.23-.22.22-.23a8.907,8.907,0,0,0-1,.7,8,8,0,0,1-1.09.69,1,1,0,0,1-.69.08.67.67,0,0,1-.44-.54,1.21,1.21,0,0,1,.09-.75,4.8,4.8,0,0,1,.37-.67l.69-1.12a8.122,8.122,0,0,0,.6-1.07Z" fill="#ff9a6c"/>
              <path id="Trazado_185372" data-name="Trazado 185372" d="M609.16,261.49a3,3,0,0,0-.09-1.43,3.069,3.069,0,0,0-.57-1.32s.2.6.38,1.36S609.11,261.49,609.16,261.49Z" fill="#ff9a6c"/>
              <g id="Grupo_92589" data-name="Grupo 92589">
                <path id="Trazado_185373" data-name="Trazado 185373" d="M605.54,263.45a6,6,0,0,1,3.06-1.59,11.53,11.53,0,0,1,3.47-.14,2.88,2.88,0,0,1,2.42,1.16,2,2,0,0,1-.92,2.45,4.59,4.59,0,0,1-2.79.42,12,12,0,0,0-2.87-.12" fill="#ffbf9d"/>
                <path id="Trazado_185374" data-name="Trazado 185374" d="M607.91,265.63h.72a19.423,19.423,0,0,1,2,.19,8.593,8.593,0,0,0,1.37.06,3.66,3.66,0,0,0,1.54-.39,2.32,2.32,0,0,0,1.14-1.33,1.789,1.789,0,0,0,.07-.95,1.65,1.65,0,0,0-.5-.84,3.32,3.32,0,0,0-1.76-.68c-.6-.07-1.18-.1-1.73-.11a8.85,8.85,0,0,0-2.9.44,6.11,6.11,0,0,0-1.75.94c-.18.15-.31.28-.39.36a.671.671,0,0,0-.13.15s.2-.18.57-.45a6.319,6.319,0,0,1,1.74-.87,9,9,0,0,1,2.86-.39,9.2,9.2,0,0,1,1.71.11,3.24,3.24,0,0,1,1.65.64,1.45,1.45,0,0,1,.44.75,1.6,1.6,0,0,1,0,.84,2.23,2.23,0,0,1-1.05,1.24,3.6,3.6,0,0,1-1.47.38,9.727,9.727,0,0,1-1.34,0,14.822,14.822,0,0,0-2-.13,4.54,4.54,0,0,0-.54,0Z" fill="#ff9a6c"/>
              </g>
              <g id="Grupo_92590" data-name="Grupo 92590">
                <path id="Trazado_185375" data-name="Trazado 185375" d="M616.58,260.8a44.741,44.741,0,0,0-2.62,4.61,2.84,2.84,0,0,1-.91,1.19c-.35.21-1.21-.17-1.59-.31l2.63-6" fill="#ffbf9d"/>
                <path id="Trazado_185376" data-name="Trazado 185376" d="M614.09,260.29a4.1,4.1,0,0,0-.23.45c-.15.33-.35.75-.58,1.26-.49,1.07-1.16,2.56-1.91,4.26v.09h.1c.28.1.59.23.92.32a2.573,2.573,0,0,0,.4.06.58.58,0,0,0,.22,0,.56.56,0,0,0,.19-.09,2.08,2.08,0,0,0,.54-.57c.27-.43.46-.85.67-1.25l1.12-2.11c.33-.59.61-1.07.8-1.39a3.308,3.308,0,0,0,.29-.52,2.752,2.752,0,0,0-.35.48c-.21.31-.51.78-.85,1.37s-.74,1.29-1.16,2.09c-.22.39-.42.82-.68,1.22a2,2,0,0,1-.48.52.85.85,0,0,1-.67,0,8.676,8.676,0,0,1-.9-.31v.13c.75-1.69,1.39-3.2,1.85-4.28.22-.52.4-.95.53-1.28a2.635,2.635,0,0,0,.18-.45Z" fill="#ff9a6c"/>
              </g>
              <g id="Grupo_92591" data-name="Grupo 92591">
                <path id="Trazado_185377" data-name="Trazado 185377" d="M614.8,258.51c-.84,2.13-1.69,4.25-2.54,6.38a4.379,4.379,0,0,1-.68,1.28,1.47,1.47,0,0,1-1.28.55,1.5,1.5,0,0,1-1.13-1.47,4.738,4.738,0,0,1,.48-1.93,40.284,40.284,0,0,0,1.82-6" fill="#ffbf9d"/>
                <path id="Trazado_185378" data-name="Trazado 185378" d="M611.47,257.35a.8.8,0,0,0-.07.2l-.15.56c-.13.49-.32,1.2-.59,2.06s-.61,1.88-1,3a6,6,0,0,0-.53,1.82,1.869,1.869,0,0,0,.19,1,1.471,1.471,0,0,0,.76.75,1.32,1.32,0,0,0,1.07-.08,2.049,2.049,0,0,0,.75-.71,11.217,11.217,0,0,0,.77-1.73l1.16-3,.77-2,.2-.55c0-.13.06-.2,0-.2l-.09.18-.23.54c-.21.49-.49,1.16-.83,2s-.74,1.85-1.19,3a12.209,12.209,0,0,1-.77,1.7,1.821,1.821,0,0,1-.68.64,1.11,1.11,0,0,1-.91.07,1.31,1.31,0,0,1-.66-.65,1.83,1.83,0,0,1-.18-.92,6.223,6.223,0,0,1,.51-1.77c.43-1.12.77-2.15,1-3s.43-1.59.54-2.08a2.6,2.6,0,0,1,.11-.57A1.134,1.134,0,0,0,611.47,257.35Z" fill="#ff9a6c"/>
              </g>
            </g>
            <path id="Trazado_185379" data-name="Trazado 185379" d="M620.65,291.46c-.23-.84-6-18-6-18L605,272.31l3.92,14.79a18.087,18.087,0,0,0,0,6c.61,2.22,5.52,8.28,8,6.82S620.88,292.31,620.65,291.46Z" fill="#ffbf9d"/>
            <path id="Trazado_185380" data-name="Trazado 185380" d="M608.93,270.79a1.06,1.06,0,0,0,.55-.07,3,3,0,0,0,1.92-1.76,1.21,1.21,0,0,0,.12-.54,5,5,0,0,1-1,1.49,4.65,4.65,0,0,1-1.59.88Z" fill="#ff9a6c"/>
          </g>
        </g>
      </g>
    </g>
  </g>
</svg>
