<?xml version="1.0" encoding="utf-8"?>
<!-- Generator: Adobe Illustrator 26.0.3, SVG Export Plug-In . SVG Version: 6.00 Build 0)  -->
<svg version="1.1" id="Layer_1" xmlns="http://www.w3.org/2000/svg" xmlns:xlink="http://www.w3.org/1999/xlink" x="0px" y="0px"
	 viewBox="0 0 1030 532" style="enable-background:new 0 0 1030 532;" xml:space="preserve">
<style type="text/css">
	.st0{fill:#F3F9FF;}
	.st1{fill:#12263F;}
	.st2{fill:#104C82;}
	.st3{fill:#1C5588;}
	.st4{fill:#1E5789;}
	.st5{fill:#316593;}
	.st6{fill:#40709B;}
	.st7{fill:none;stroke:#7395CB;stroke-miterlimit:10;}
	.st8{fill:#FFFFFF;}
	.st9{fill:#FFA726;stroke:#7395CB;}
</style>
<path id="Trazado_191424" class="st0" d="M21,0h988c11.6,0,21,9.4,21,21v490c0,11.6-9.4,21-21,21l0,0H21c-11.6,0-21-9.4-21-21l0,0
	V21C0,9.4,9.4,0,21,0z"/>
<path id="Trazado_191402" class="st1" d="M103.3,68.1h-4.9v4.4h4.6v1.3h-4.6v5.6h-1.5V66.8h6.4L103.3,68.1z M109,79.6
	c-1.2,0.1-2.4-0.4-3.2-1.3c-0.8-0.9-1.2-2.1-1.2-3.3c-0.1-1.3,0.4-2.6,1.2-3.5c0.9-0.9,2.1-1.3,3.3-1.3c1.2-0.1,2.3,0.4,3.1,1.2
	c0.8,1,1.2,2.2,1.1,3.4c0.1,1.3-0.4,2.5-1.2,3.5C111.5,79.2,110.3,79.7,109,79.6z M109.1,71.4c-0.8,0-1.7,0.3-2.2,0.9
	c-0.6,0.7-0.9,1.7-0.8,2.6c-0.1,0.9,0.2,1.8,0.8,2.5c0.6,0.6,1.4,1,2.2,0.9c0.8,0,1.6-0.3,2.1-0.9c0.5-0.7,0.8-1.7,0.8-2.6
	c0.1-0.9-0.2-1.8-0.8-2.6C110.8,71.7,110,71.3,109.1,71.4z M122,79c-0.7,0.4-1.6,0.6-2.5,0.6c-1.2,0-2.3-0.4-3.1-1.3
	c-0.8-0.9-1.2-2.1-1.2-3.2c-0.1-1.3,0.4-2.6,1.3-3.6c0.9-0.9,2.1-1.4,3.4-1.3c0.7,0,1.4,0.1,2.1,0.4v1.5c-0.6-0.5-1.4-0.7-2.1-0.7
	c-0.9,0-1.7,0.3-2.3,1c-0.6,0.7-0.9,1.7-0.9,2.6c-0.1,0.9,0.2,1.8,0.8,2.5c0.6,0.6,1.4,0.9,2.2,0.9c0.8,0,1.6-0.3,2.2-0.8V79z
	 M127.9,79.6c-1.2,0.1-2.4-0.4-3.2-1.3c-0.8-0.9-1.2-2.1-1.2-3.3c-0.1-1.3,0.4-2.6,1.2-3.5c0.9-0.9,2.1-1.3,3.3-1.3
	c1.2-0.1,2.3,0.4,3.1,1.2c0.8,1,1.2,2.2,1.1,3.4c0.1,1.3-0.4,2.5-1.2,3.5C130.3,79.2,129.1,79.7,127.9,79.6z M128,71.4
	c-0.8,0-1.7,0.3-2.2,0.9c-0.6,0.7-0.9,1.7-0.8,2.6c-0.1,0.9,0.2,1.8,0.8,2.5c0.6,0.6,1.4,1,2.2,0.9c0.8,0,1.6-0.3,2.1-0.9
	c0.5-0.7,0.8-1.7,0.8-2.6c0.1-0.9-0.2-1.8-0.8-2.6C129.6,71.7,128.8,71.3,128,71.4z M146.8,75.2h-6.4c0,0.8,0.3,1.7,0.8,2.3
	c0.6,0.6,1.3,0.9,2.1,0.8c1,0,2-0.4,2.8-1v1.3c-0.9,0.6-2,0.9-3.1,0.9c-1.1,0.1-2.2-0.4-3-1.2c-0.8-1-1.2-2.2-1.1-3.4
	c-0.1-1.3,0.4-2.5,1.2-3.4c0.7-0.9,1.8-1.3,3-1.3c1-0.1,2,0.4,2.7,1.1c0.7,0.9,1,2,1,3.2V75.2z M145.4,74c0-0.7-0.2-1.4-0.6-1.9
	c-0.4-0.5-1-0.7-1.6-0.7c-0.7,0-1.3,0.3-1.7,0.7c-0.5,0.5-0.8,1.2-0.9,1.9H145.4z M156.5,79.4h-1.4v-5.1c0-1.9-0.7-2.9-2.1-2.9
	c-0.7,0-1.3,0.3-1.8,0.8c-0.5,0.6-0.7,1.3-0.7,2.1v5.1H149v-9h1.4v1.5h0c0.6-1.1,1.7-1.7,2.9-1.7c0.9-0.1,1.7,0.3,2.3,1
	c0.6,0.8,0.8,1.8,0.8,2.8V79.4z M176.9,79.4h-1.4v-5.2c0.1-0.8-0.1-1.5-0.5-2.2c-0.4-0.5-1-0.7-1.6-0.7c-0.6,0-1.2,0.3-1.6,0.8
	c-0.4,0.6-0.7,1.3-0.6,2v5.1h-1.4V74c0-1.8-0.7-2.7-2-2.7c-0.6,0-1.2,0.3-1.6,0.8c-0.4,0.6-0.6,1.3-0.6,2.1v5.1h-1.4v-9h1.4v1.4h0
	c0.5-1,1.6-1.7,2.8-1.6c0.6,0,1.1,0.2,1.6,0.5c0.5,0.3,0.8,0.8,0.9,1.3c0.5-1.2,1.7-1.9,3-1.9c2,0,3,1.2,3,3.7L176.9,79.4z
	 M186.9,75.2h-6.4c0,0.8,0.3,1.7,0.8,2.3c0.6,0.6,1.3,0.9,2.1,0.8c1,0,2-0.4,2.8-1v1.3c-0.9,0.6-2,0.9-3.1,0.9
	c-1.1,0.1-2.2-0.4-3-1.2c-0.8-1-1.2-2.2-1.1-3.4c-0.1-1.3,0.4-2.5,1.2-3.4c0.7-0.9,1.8-1.3,3-1.3c1-0.1,2,0.4,2.7,1.1
	c0.7,0.9,1,2,1,3.2V75.2z M185.4,74c0-0.7-0.2-1.4-0.6-1.9c-0.4-0.5-1-0.7-1.7-0.7c-0.7,0-1.3,0.3-1.7,0.7c-0.5,0.5-0.8,1.2-0.9,1.9
	L185.4,74z M190.5,79c0.1,1.2-0.2,2.4-0.9,3.4c-0.6,0.8-1.6,1.3-2.6,1.2c-0.4,0-0.8-0.1-1.2-0.3V82c0.4,0.2,0.8,0.4,1.2,0.4
	c1.3,0,2-1,2-3.1v-8.9h1.5V79z M189.8,68.1c-0.2,0-0.5-0.1-0.7-0.3c-0.2-0.2-0.3-0.4-0.3-0.7c0-0.3,0.1-0.5,0.3-0.7
	c0.2-0.2,0.4-0.3,0.7-0.3c0.3,0,0.5,0.1,0.7,0.3c0.2,0.2,0.3,0.4,0.3,0.7c0,0.2-0.1,0.5-0.3,0.7C190.3,68,190.1,68.1,189.8,68.1
	L189.8,68.1z M197.2,79.6c-1.2,0.1-2.4-0.4-3.2-1.3c-0.8-0.9-1.2-2.1-1.2-3.3c-0.1-1.3,0.4-2.6,1.2-3.5c0.9-0.9,2.1-1.3,3.3-1.3
	c1.2-0.1,2.3,0.4,3.1,1.2c0.8,1,1.2,2.2,1.1,3.4c0.1,1.3-0.4,2.5-1.2,3.5C199.6,79.2,198.4,79.7,197.2,79.6L197.2,79.6z M197.3,71.4
	c-0.8,0-1.7,0.3-2.2,0.9c-0.6,0.7-0.9,1.7-0.8,2.6c-0.1,0.9,0.2,1.8,0.8,2.5c0.6,0.6,1.4,1,2.2,0.9c0.8,0,1.6-0.3,2.1-0.9
	c0.5-0.7,0.8-1.7,0.8-2.6c0.1-0.9-0.2-1.8-0.8-2.6C198.9,71.7,198.1,71.3,197.3,71.4z M208.7,71.8c-0.3-0.2-0.7-0.3-1.1-0.3
	c-0.6,0-1.2,0.3-1.5,0.9c-0.4,0.7-0.7,1.5-0.6,2.4v4.6H204v-9h1.4v1.9h0c0.2-0.6,0.5-1.1,0.9-1.5c0.4-0.3,0.9-0.5,1.4-0.5
	c0.3,0,0.6,0,0.9,0.1L208.7,71.8z M216.3,79.4h-1.4V78h0c-0.5,1-1.6,1.7-2.8,1.6c-0.8,0-1.5-0.2-2.1-0.7c-0.5-0.5-0.8-1.2-0.8-1.9
	c0-1.7,1-2.7,3-2.9l2.7-0.4c0-1.5-0.6-2.3-1.9-2.3c-1.1,0-2.1,0.4-2.9,1.1V71c0.9-0.6,2-0.9,3.1-0.8c2.1,0,3.2,1.1,3.2,3.4
	L216.3,79.4z M214.9,74.8l-2.2,0.3c-0.5,0-1.1,0.2-1.5,0.5c-0.4,0.3-0.6,0.8-0.5,1.3c0,0.4,0.2,0.8,0.5,1.1c0.4,0.3,0.8,0.4,1.3,0.4
	c0.7,0,1.3-0.3,1.8-0.8c0.5-0.5,0.7-1.2,0.7-1.9L214.9,74.8z M102.8,100.6c-0.7,0.4-1.6,0.6-2.5,0.6c-1.2,0-2.3-0.4-3.1-1.3
	c-0.8-0.9-1.2-2.1-1.2-3.2c-0.1-1.3,0.4-2.6,1.3-3.6c0.9-0.9,2.1-1.4,3.4-1.3c0.7,0,1.4,0.1,2.1,0.4v1.5c-0.6-0.5-1.4-0.7-2.1-0.7
	c-0.9,0-1.7,0.3-2.3,1c-0.6,0.7-0.9,1.7-0.9,2.6c-0.1,0.9,0.2,1.8,0.8,2.5c0.6,0.6,1.4,1,2.2,0.9c0.8,0,1.6-0.3,2.2-0.8L102.8,100.6
	z M108.7,101.2c-1.2,0.1-2.4-0.4-3.2-1.3c-0.8-0.9-1.2-2.1-1.2-3.3c-0.1-1.3,0.4-2.6,1.2-3.5c0.9-0.9,2.1-1.3,3.3-1.3
	c1.2-0.1,2.3,0.4,3.1,1.2c0.8,1,1.2,2.2,1.1,3.4c0.1,1.3-0.4,2.5-1.2,3.4C111.2,100.8,110,101.3,108.7,101.2z M108.8,93
	c-0.8,0-1.7,0.3-2.2,0.9c-0.6,0.7-0.9,1.7-0.8,2.6c-0.1,0.9,0.2,1.8,0.8,2.5c0.6,0.6,1.4,1,2.2,0.9c0.8,0,1.6-0.3,2.1-0.9
	c0.5-0.7,0.8-1.7,0.8-2.6c0.1-0.9-0.2-1.8-0.8-2.6C110.5,93.3,109.7,92.9,108.8,93L108.8,93z M123,101h-1.4v-5.1
	c0-1.9-0.7-2.9-2.1-2.9c-0.7,0-1.3,0.3-1.8,0.8c-0.5,0.6-0.7,1.3-0.7,2.1v5.1h-1.4v-9h1.4v1.5h0c0.6-1.1,1.7-1.7,3-1.7
	c0.9-0.1,1.7,0.3,2.3,1c0.6,0.8,0.8,1.8,0.8,2.8L123,101z M129.9,100.9c-0.4,0.2-0.9,0.3-1.3,0.3c-1.6,0-2.4-0.9-2.4-2.6v-5.3h-1.5
	V92h1.5v-2.2l1.4-0.5V92h2.3v1.2h-2.3v5.1c0,0.5,0.1,0.9,0.3,1.3c0.3,0.3,0.6,0.4,1,0.4c0.3,0,0.7-0.1,0.9-0.3L129.9,100.9z
	 M132.6,89.7c-0.2,0-0.5-0.1-0.7-0.3c-0.2-0.2-0.3-0.4-0.3-0.7c0-0.5,0.4-0.9,0.9-0.9c0,0,0,0,0,0c0.3,0,0.5,0.1,0.7,0.3
	c0.4,0.4,0.4,1,0,1.3c0,0,0,0,0,0C133,89.6,132.8,89.7,132.6,89.7L132.6,89.7z M133.3,101h-1.4v-9h1.4L133.3,101z M143.6,101h-1.4
	v-5.1c0-1.9-0.7-2.9-2.1-2.9c-0.7,0-1.3,0.3-1.8,0.8c-0.5,0.6-0.7,1.3-0.7,2.1v5.1h-1.4v-9h1.4v1.5h0c0.6-1.1,1.7-1.7,3-1.7
	c0.9-0.1,1.7,0.3,2.3,1c0.6,0.8,0.8,1.8,0.8,2.8L143.6,101z M153.6,101h-1.4v-1.4h0c-0.5,1-1.6,1.7-2.8,1.6c-2.1,0-3.2-1.3-3.2-3.8
	V92h1.4v5.2c0,1.9,0.7,2.8,2.2,2.8c0.7,0,1.3-0.3,1.7-0.8c0.5-0.6,0.7-1.3,0.7-2V92h1.4L153.6,101z M163,101h-1.4v-1.4h0
	c-0.5,1-1.6,1.7-2.8,1.6c-0.8,0-1.5-0.2-2.1-0.7c-0.5-0.5-0.8-1.2-0.8-1.9c0-1.7,1-2.7,3-2.9l2.7-0.4c0-1.5-0.6-2.3-1.9-2.3
	c-1.1,0-2.1,0.4-2.9,1.1v-1.5c0.9-0.6,2-0.9,3.1-0.8c2.1,0,3.2,1.1,3.2,3.4L163,101z M161.5,96.4l-2.2,0.3c-0.5,0-1.1,0.2-1.5,0.5
	c-0.4,0.3-0.6,0.8-0.5,1.3c0,0.4,0.2,0.8,0.5,1.1c0.4,0.3,0.8,0.4,1.3,0.4c0.7,0,1.3-0.3,1.8-0.8c0.5-0.5,0.7-1.2,0.7-1.9V96.4z
	 M178.3,101h-1.4v-1.5h0c-0.6,1.1-1.8,1.8-3.1,1.7c-1,0-2-0.4-2.7-1.2c-0.7-0.9-1.1-2.1-1-3.3c-0.1-1.3,0.3-2.6,1.1-3.6
	c0.7-0.9,1.8-1.4,3-1.3c1.1-0.1,2.2,0.5,2.7,1.5h0v-5.6h1.4L178.3,101z M176.9,96.9v-1.3c0-0.7-0.2-1.4-0.7-1.8
	c-0.5-0.5-1.1-0.8-1.8-0.8c-0.8,0-1.6,0.3-2.1,1c-0.5,0.8-0.8,1.7-0.8,2.7c0,0.9,0.2,1.7,0.7,2.5c0.5,0.6,1.2,0.9,1.9,0.9
	c0.8,0,1.5-0.3,2-0.9C176.6,98.5,176.9,97.7,176.9,96.9z M188.5,96.9h-6.4c0,0.8,0.3,1.7,0.8,2.3c0.6,0.6,1.3,0.9,2.1,0.8
	c1,0,2-0.4,2.8-1v1.4c-0.9,0.6-2,0.9-3.1,0.9c-1.1,0.1-2.2-0.4-3-1.2c-0.8-1-1.2-2.2-1.1-3.4c-0.1-1.3,0.4-2.5,1.2-3.4
	c0.7-0.9,1.8-1.3,3-1.3c1-0.1,2,0.4,2.7,1.1c0.7,0.9,1,2,1,3.2L188.5,96.9z M187,95.6c0-0.7-0.2-1.4-0.6-1.9c-0.4-0.5-1-0.7-1.6-0.7
	c-0.7,0-1.3,0.3-1.7,0.7c-0.5,0.5-0.8,1.2-0.9,1.9H187z M197.1,99.7L197.1,99.7l0,5.4h-1.4V92h1.4v1.6h0c0.6-1.1,1.8-1.8,3.1-1.8
	c1-0.1,2.1,0.4,2.7,1.2c0.7,0.9,1,2.1,1,3.2c0.1,1.3-0.3,2.6-1.1,3.6c-0.7,0.9-1.8,1.4-3,1.4C198.6,101.2,197.6,100.7,197.1,99.7z
	 M197,96.1v1.3c0,0.7,0.2,1.4,0.7,1.9c1,1,2.6,1,3.7,0c0.1-0.1,0.2-0.2,0.2-0.3c0.5-0.8,0.8-1.8,0.7-2.8c0-0.8-0.2-1.7-0.7-2.4
	c-0.5-0.6-1.2-0.9-1.9-0.9c-0.8,0-1.5,0.3-2,0.9C197.3,94.5,197,95.3,197,96.1L197,96.1z M210.9,93.4c-0.3-0.2-0.7-0.3-1.1-0.3
	c-0.6,0-1.2,0.3-1.5,0.9c-0.4,0.7-0.7,1.5-0.6,2.4v4.6h-1.4v-9h1.4v1.9h0c0.2-0.6,0.5-1.1,0.9-1.5c0.4-0.3,0.9-0.5,1.4-0.5
	c0.3,0,0.6,0,0.9,0.1L210.9,93.4z M216,101.2c-1.2,0.1-2.4-0.4-3.2-1.3c-0.8-0.9-1.2-2.1-1.2-3.3c-0.1-1.3,0.4-2.6,1.2-3.5
	c0.9-0.9,2.1-1.3,3.3-1.3c1.2-0.1,2.3,0.4,3.1,1.2c0.8,1,1.2,2.2,1.1,3.4c0.1,1.3-0.4,2.5-1.2,3.4
	C218.4,100.8,217.2,101.3,216,101.2L216,101.2z M216.1,93c-0.8,0-1.7,0.3-2.2,0.9c-0.6,0.7-0.9,1.7-0.8,2.6
	c-0.1,0.9,0.2,1.8,0.8,2.5c0.6,0.6,1.4,1,2.2,0.9c0.8,0,1.6-0.3,2.1-0.9c0.5-0.7,0.8-1.7,0.8-2.6c0.1-0.9-0.2-1.8-0.8-2.6
	C217.7,93.3,216.9,92.9,216.1,93z M228.9,100.6c-0.7,0.4-1.6,0.6-2.5,0.6c-1.2,0-2.3-0.4-3.1-1.3c-0.8-0.9-1.2-2.1-1.2-3.2
	c-0.1-1.3,0.4-2.6,1.3-3.6c0.9-0.9,2.1-1.4,3.4-1.3c0.7,0,1.4,0.1,2.1,0.4v1.5c-0.6-0.5-1.4-0.7-2.1-0.7c-0.9,0-1.7,0.3-2.3,1
	c-0.6,0.7-0.9,1.7-0.9,2.6c-0.1,0.9,0.2,1.8,0.8,2.5c0.6,0.6,1.4,1,2.2,0.9c0.8,0,1.6-0.3,2.2-0.8L228.9,100.6z M238.3,96.8H232
	c0,0.8,0.3,1.7,0.8,2.3c0.6,0.6,1.3,0.9,2.1,0.8c1,0,2-0.4,2.8-1v1.4c-0.9,0.6-2,0.9-3.1,0.9c-1.1,0.1-2.2-0.4-3-1.2
	c-0.8-1-1.2-2.2-1.1-3.4c-0.1-1.3,0.4-2.5,1.2-3.4c0.7-0.9,1.8-1.3,3-1.3c1-0.1,2,0.4,2.7,1.1c0.7,0.9,1,2,1,3.2L238.3,96.8z
	 M236.9,95.6c0-0.7-0.2-1.4-0.6-1.9c-0.4-0.5-1-0.7-1.6-0.7c-0.7,0-1.3,0.3-1.7,0.7c-0.5,0.5-0.8,1.2-0.9,1.9H236.9z M240,100.7
	v-1.5c0.7,0.6,1.7,0.9,2.6,0.9c1.3,0,1.9-0.4,1.9-1.3c0-0.2-0.1-0.4-0.2-0.6c-0.1-0.2-0.3-0.3-0.4-0.4c-0.2-0.1-0.4-0.3-0.6-0.3
	c-0.2-0.1-0.5-0.2-0.8-0.3c-0.4-0.1-0.7-0.3-1.1-0.5c-0.3-0.1-0.5-0.3-0.8-0.5c-0.2-0.2-0.4-0.4-0.5-0.7c-0.1-0.3-0.2-0.6-0.2-0.9
	c0-0.4,0.1-0.8,0.3-1.1c0.2-0.3,0.5-0.6,0.8-0.8c0.3-0.2,0.7-0.4,1.1-0.5c0.4-0.1,0.8-0.2,1.3-0.2c0.7,0,1.4,0.1,2.1,0.4v1.5
	c-0.7-0.4-1.5-0.7-2.3-0.7c-0.2,0-0.5,0-0.7,0.1c-0.2,0.1-0.4,0.1-0.6,0.3c-0.1,0.1-0.3,0.2-0.4,0.4c-0.1,0.2-0.1,0.3-0.1,0.5
	c0,0.2,0,0.4,0.1,0.6c0.1,0.2,0.2,0.3,0.4,0.4c0.2,0.1,0.4,0.2,0.6,0.3c0.2,0.1,0.5,0.2,0.8,0.3c0.4,0.1,0.7,0.3,1.1,0.5
	c0.3,0.1,0.6,0.3,0.8,0.5c0.2,0.2,0.4,0.4,0.5,0.7c0.1,0.3,0.2,0.6,0.2,0.9c0,0.4-0.1,0.8-0.3,1.2c-0.2,0.3-0.5,0.6-0.8,0.8
	c-0.3,0.2-0.7,0.4-1.1,0.5c-0.4,0.1-0.9,0.2-1.3,0.2C241.5,101.2,240.7,101,240,100.7L240,100.7z M251.9,101.2
	c-1.2,0.1-2.4-0.4-3.2-1.3c-0.8-0.9-1.2-2.1-1.2-3.3c-0.1-1.3,0.4-2.6,1.2-3.5c0.9-0.9,2.1-1.3,3.3-1.3c1.2-0.1,2.3,0.4,3.1,1.2
	c0.8,1,1.2,2.2,1.1,3.4c0.1,1.3-0.4,2.5-1.2,3.4C254.3,100.8,253.1,101.3,251.9,101.2L251.9,101.2z M252,93c-0.8,0-1.7,0.3-2.2,0.9
	c-0.6,0.7-0.9,1.7-0.8,2.6c-0.1,0.9,0.2,1.8,0.8,2.5c0.6,0.6,1.4,1,2.2,0.9c0.8,0,1.6-0.3,2.1-0.9c0.5-0.7,0.8-1.7,0.8-2.6
	c0.1-0.9-0.2-1.8-0.8-2.6C253.6,93.3,252.8,92.9,252,93L252,93z M258.2,100.7v-1.5c0.7,0.6,1.7,0.9,2.6,0.9c1.3,0,1.9-0.4,1.9-1.3
	c0-0.2-0.1-0.4-0.2-0.6c-0.1-0.2-0.3-0.3-0.4-0.4c-0.2-0.1-0.4-0.3-0.6-0.3c-0.2-0.1-0.5-0.2-0.8-0.3c-0.4-0.1-0.7-0.3-1.1-0.5
	c-0.3-0.1-0.5-0.3-0.8-0.5c-0.2-0.2-0.4-0.4-0.5-0.7c-0.1-0.3-0.2-0.6-0.2-0.9c0-0.4,0.1-0.8,0.3-1.1c0.2-0.3,0.5-0.6,0.8-0.8
	c0.3-0.2,0.7-0.4,1.1-0.5c0.4-0.1,0.8-0.2,1.3-0.2c0.7,0,1.4,0.1,2.1,0.4v1.5c-0.7-0.4-1.5-0.7-2.3-0.7c-0.2,0-0.5,0-0.7,0.1
	c-0.2,0.1-0.4,0.1-0.6,0.3c-0.1,0.1-0.3,0.2-0.4,0.4c-0.1,0.2-0.1,0.3-0.1,0.5c0,0.2,0,0.4,0.1,0.6c0.1,0.2,0.2,0.3,0.4,0.4
	c0.2,0.1,0.4,0.2,0.6,0.3c0.2,0.1,0.5,0.2,0.8,0.3c0.4,0.1,0.7,0.3,1.1,0.5c0.3,0.1,0.6,0.3,0.8,0.5c0.2,0.2,0.4,0.4,0.5,0.7
	c0.1,0.3,0.2,0.6,0.2,0.9c0,0.4-0.1,0.8-0.3,1.2c-0.2,0.3-0.5,0.6-0.8,0.8c-0.3,0.2-0.7,0.4-1.1,0.5c-0.4,0.1-0.9,0.2-1.3,0.2
	C259.7,101.2,258.9,101,258.2,100.7L258.2,100.7z"/>
<path id="Trazado_191403" class="st1" d="M98.3,160v4.8h-1.5v-12.6h3.5c1.1-0.1,2.2,0.3,3.1,1c0.8,0.7,1.2,1.7,1.1,2.8
	c0,1.1-0.4,2.2-1.2,2.9c-0.9,0.8-2.1,1.2-3.3,1.1H98.3z M98.3,153.5v5.2h1.5c0.8,0.1,1.7-0.2,2.3-0.7c0.6-0.5,0.8-1.2,0.8-2
	c0-1.7-1-2.5-3-2.5L98.3,153.5z M111.4,157.3c-0.3-0.2-0.7-0.3-1.1-0.3c-0.6,0-1.2,0.3-1.5,0.9c-0.4,0.7-0.7,1.5-0.6,2.4v4.6h-1.4
	v-9h1.4v1.9h0c0.2-0.6,0.5-1.1,0.9-1.5c0.4-0.3,0.9-0.5,1.4-0.5c0.3,0,0.6,0,0.9,0.1L111.4,157.3z M116.6,165
	c-1.2,0.1-2.4-0.4-3.2-1.3c-0.8-0.9-1.3-2.1-1.2-3.3c-0.1-1.3,0.4-2.6,1.2-3.5c0.9-0.9,2.1-1.3,3.3-1.3c1.2-0.1,2.3,0.4,3.1,1.2
	c0.8,1,1.2,2.2,1.1,3.4c0.1,1.3-0.4,2.5-1.2,3.4C119,164.6,117.8,165.1,116.6,165z M116.7,156.8c-0.8,0-1.7,0.3-2.2,0.9
	c-0.6,0.7-0.9,1.7-0.8,2.6c0,0.9,0.2,1.8,0.8,2.5c0.6,0.6,1.4,1,2.2,0.9c0.8,0,1.6-0.3,2.1-0.9c0.5-0.7,0.8-1.7,0.8-2.6
	c0.1-0.9-0.2-1.8-0.8-2.6C118.3,157.1,117.5,156.8,116.7,156.8z M129.5,164.4c-0.7,0.4-1.6,0.6-2.5,0.6c-1.2,0-2.3-0.4-3.1-1.3
	c-0.8-0.9-1.2-2.1-1.2-3.2c-0.1-1.3,0.4-2.6,1.3-3.6c0.9-0.9,2.1-1.4,3.4-1.3c0.7,0,1.4,0.1,2.1,0.4v1.5c-0.6-0.5-1.4-0.7-2.1-0.7
	c-0.9,0-1.7,0.3-2.3,1c-0.6,0.7-0.9,1.7-0.9,2.6c-0.1,0.9,0.2,1.8,0.8,2.5c0.6,0.6,1.4,0.9,2.2,0.9c0.8,0,1.6-0.3,2.2-0.8V164.4z
	 M138.9,160.7h-6.4c0,0.8,0.3,1.7,0.8,2.3c0.6,0.6,1.3,0.9,2.1,0.8c1,0,2-0.4,2.8-1v1.4c-0.9,0.6-2,0.9-3.1,0.9
	c-1.1,0.1-2.2-0.4-3-1.2c-0.8-1-1.2-2.2-1.1-3.4c-0.1-1.3,0.4-2.5,1.2-3.4c0.7-0.9,1.8-1.3,3-1.3c1-0.1,2,0.4,2.7,1.1
	c0.7,0.9,1,2,1,3.2V160.7z M137.4,159.4c0-0.7-0.2-1.4-0.6-1.9c-0.4-0.5-1-0.7-1.7-0.7c-0.7,0-1.3,0.3-1.7,0.7
	c-0.5,0.5-0.8,1.2-0.9,1.9L137.4,159.4z M140.6,164.5v-1.5c0.7,0.6,1.7,0.9,2.6,0.9c1.3,0,1.9-0.4,1.9-1.3c0-0.2-0.1-0.4-0.2-0.6
	c-0.1-0.2-0.3-0.3-0.4-0.4c-0.2-0.1-0.4-0.3-0.7-0.3c-0.2-0.1-0.5-0.2-0.8-0.3c-0.4-0.1-0.7-0.3-1-0.5c-0.3-0.1-0.5-0.3-0.8-0.5
	c-0.2-0.2-0.4-0.4-0.5-0.7c-0.1-0.3-0.2-0.6-0.2-0.9c0-0.4,0.1-0.8,0.3-1.1c0.2-0.3,0.5-0.6,0.8-0.8c0.3-0.2,0.7-0.4,1.1-0.5
	c0.4-0.1,0.8-0.2,1.3-0.2c0.7,0,1.4,0.1,2.1,0.4v1.5c-0.7-0.4-1.5-0.7-2.3-0.6c-0.2,0-0.5,0-0.7,0.1c-0.2,0.1-0.4,0.1-0.6,0.3
	c-0.1,0.1-0.3,0.2-0.4,0.4c-0.1,0.2-0.1,0.3-0.1,0.5c0,0.2,0,0.4,0.1,0.6c0.1,0.2,0.2,0.3,0.4,0.4c0.2,0.1,0.4,0.2,0.6,0.3
	c0.2,0.1,0.5,0.2,0.8,0.3c0.4,0.1,0.7,0.3,1.1,0.5c0.3,0.1,0.6,0.3,0.8,0.5c0.2,0.2,0.4,0.4,0.5,0.7c0.1,0.3,0.2,0.6,0.2,0.9
	c0,0.4-0.1,0.8-0.3,1.2c-0.2,0.3-0.5,0.6-0.8,0.8c-0.3,0.2-0.7,0.4-1.1,0.5c-0.4,0.1-0.9,0.2-1.3,0.2
	C142.1,165,141.3,164.9,140.6,164.5z M152.5,165c-1.2,0.1-2.4-0.4-3.2-1.3c-0.8-0.9-1.2-2.1-1.2-3.3c-0.1-1.3,0.4-2.6,1.2-3.5
	c0.9-0.9,2.1-1.3,3.3-1.3c1.2-0.1,2.3,0.4,3.1,1.2c0.8,1,1.2,2.2,1.1,3.4c0.1,1.3-0.4,2.5-1.2,3.4
	C154.9,164.6,153.7,165.1,152.5,165z M152.6,156.8c-0.8,0-1.7,0.3-2.2,0.9c-0.6,0.7-0.9,1.7-0.8,2.6c-0.1,0.9,0.2,1.8,0.8,2.5
	c0.6,0.6,1.4,1,2.2,0.9c0.8,0,1.6-0.3,2.1-0.9c0.5-0.7,0.8-1.7,0.8-2.6c0.1-0.9-0.2-1.8-0.8-2.6
	C154.2,157.1,153.4,156.8,152.6,156.8z M177,164.8h-1.4v-5.2c0.1-0.8-0.1-1.5-0.5-2.2c-0.4-0.5-1-0.7-1.6-0.7
	c-0.6,0-1.2,0.3-1.6,0.8c-0.4,0.6-0.7,1.3-0.6,2v5.1h-1.4v-5.3c0-1.8-0.7-2.7-2-2.7c-0.6,0-1.2,0.3-1.6,0.8
	c-0.4,0.6-0.6,1.3-0.6,2.1v5.1h-1.4v-9h1.4v1.4h0c0.5-1,1.6-1.7,2.8-1.6c0.6,0,1.1,0.2,1.6,0.5c0.5,0.3,0.8,0.8,0.9,1.3
	c0.5-1.2,1.7-1.9,3-1.9c2,0,3,1.2,3,3.7L177,164.8z M187,160.7h-6.4c0,0.8,0.3,1.7,0.8,2.3c0.6,0.6,1.3,0.9,2.1,0.8c1,0,2-0.4,2.8-1
	v1.4c-0.9,0.6-2,0.9-3.1,0.9c-1.1,0.1-2.2-0.4-3-1.2c-0.8-1-1.2-2.2-1.1-3.4c-0.1-1.3,0.4-2.5,1.2-3.4c0.7-0.9,1.8-1.3,3-1.3
	c1-0.1,2,0.4,2.7,1.1c0.7,0.9,1,2,1,3.2L187,160.7z M185.5,159.4c0-0.7-0.2-1.4-0.6-1.9c-0.4-0.5-1-0.7-1.6-0.7
	c-0.7,0-1.3,0.3-1.7,0.7c-0.5,0.5-0.8,1.2-0.9,1.9L185.5,159.4z M196.8,164.8h-1.4v-1.5h0c-0.6,1.1-1.8,1.8-3.1,1.7
	c-1,0-2-0.4-2.7-1.2c-0.7-0.9-1.1-2.1-1-3.3c-0.1-1.3,0.3-2.6,1.1-3.6c0.7-0.9,1.8-1.4,3-1.3c1.1-0.1,2.2,0.5,2.7,1.5h0v-5.6h1.4
	L196.8,164.8z M195.4,160.7v-1.3c0-0.7-0.2-1.4-0.7-1.8c-0.5-0.5-1.1-0.8-1.8-0.8c-0.8,0-1.6,0.3-2.1,1c-0.5,0.8-0.8,1.7-0.8,2.7
	c-0.1,0.9,0.2,1.7,0.7,2.5c0.5,0.6,1.2,0.9,1.9,0.9c0.8,0,1.5-0.3,2-0.9C195.1,162.3,195.4,161.5,195.4,160.7z M200.5,153.5
	c-0.2,0-0.5-0.1-0.7-0.3c-0.2-0.2-0.3-0.4-0.3-0.7c0-0.3,0.1-0.5,0.3-0.7c0.2-0.2,0.4-0.3,0.7-0.3c0.3,0,0.5,0.1,0.7,0.3
	c0.2,0.2,0.3,0.4,0.3,0.7c0,0.2-0.1,0.5-0.3,0.7C201,153.4,200.7,153.5,200.5,153.5L200.5,153.5z M201.2,164.8h-1.4v-9h1.4V164.8z
	 M211.8,164.8h-1.4v-1.5h0c-0.6,1.1-1.8,1.8-3.1,1.7c-1,0-2-0.4-2.7-1.2c-0.7-0.9-1.1-2.1-1-3.3c-0.1-1.3,0.3-2.6,1.1-3.6
	c0.7-0.9,1.8-1.4,3-1.3c1.1-0.1,2.2,0.5,2.7,1.5h0v-5.6h1.4L211.8,164.8z M210.3,160.7v-1.3c0-0.7-0.2-1.4-0.7-1.8
	c-0.5-0.5-1.1-0.8-1.8-0.8c-0.8,0-1.6,0.3-2.1,1c-0.5,0.8-0.8,1.7-0.8,2.7c-0.1,0.9,0.2,1.7,0.7,2.5c0.5,0.6,1.2,0.9,1.9,0.9
	c0.8,0,1.5-0.3,2-0.9C210.1,162.3,210.4,161.5,210.3,160.7L210.3,160.7z M218.5,165c-1.2,0.1-2.4-0.4-3.2-1.3
	c-0.8-0.9-1.2-2.1-1.2-3.3c-0.1-1.3,0.4-2.6,1.2-3.5c0.9-0.9,2.1-1.3,3.3-1.3c1.2-0.1,2.3,0.4,3.1,1.2c0.8,1,1.2,2.2,1.1,3.4
	c0.1,1.3-0.4,2.5-1.2,3.4C220.9,164.6,219.7,165.1,218.5,165L218.5,165z M218.6,156.8c-0.8,0-1.7,0.3-2.2,0.9
	c-0.6,0.7-0.9,1.7-0.8,2.6c-0.1,0.9,0.2,1.8,0.8,2.5c0.6,0.6,1.4,1,2.2,0.9c0.8,0,1.6-0.3,2.1-0.9c0.5-0.7,0.8-1.7,0.8-2.6
	c0.1-0.9-0.2-1.8-0.8-2.6C220.2,157.1,219.4,156.8,218.6,156.8z M237.3,155.8l-4.1,10.4c-0.7,1.9-1.8,2.8-3.1,2.8
	c-0.3,0-0.6,0-0.9-0.1v-1.3c0.3,0.1,0.6,0.2,0.9,0.2c0.8,0,1.4-0.6,1.6-1.3l0.7-1.7l-3.5-9h1.6l2.4,6.9c0,0.1,0.1,0.3,0.2,0.7h0.1
	c0-0.1,0.1-0.4,0.2-0.7l2.6-6.9H237.3z M102.8,186c-0.7,0.4-1.6,0.6-2.5,0.6c-1.2,0-2.3-0.4-3.1-1.3c-0.8-0.9-1.2-2.1-1.2-3.2
	c-0.1-1.3,0.4-2.6,1.3-3.6c0.9-0.9,2.1-1.4,3.4-1.3c0.7,0,1.4,0.1,2.1,0.4v1.5c-0.6-0.5-1.4-0.7-2.1-0.7c-0.9,0-1.7,0.3-2.3,1
	c-0.6,0.7-0.9,1.7-0.9,2.6c-0.1,0.9,0.2,1.8,0.8,2.5c0.6,0.6,1.4,1,2.2,0.9c0.8,0,1.6-0.3,2.2-0.8L102.8,186z M108.7,186.6
	c-1.2,0.1-2.4-0.4-3.2-1.3c-0.8-0.9-1.2-2.1-1.2-3.3c-0.1-1.3,0.4-2.6,1.2-3.5c0.9-0.9,2.1-1.3,3.3-1.3c1.2-0.1,2.3,0.4,3.1,1.2
	c0.8,1,1.2,2.2,1.1,3.4c0.1,1.3-0.4,2.5-1.2,3.4C111.2,186.2,110,186.7,108.7,186.6z M108.8,178.4c-0.8,0-1.7,0.3-2.2,0.9
	c-0.6,0.7-0.9,1.7-0.8,2.6c-0.1,0.9,0.2,1.8,0.8,2.5c0.6,0.6,1.4,1,2.2,0.9c0.8,0,1.6-0.3,2.1-0.9c0.5-0.7,0.8-1.7,0.8-2.6
	c0.1-0.9-0.2-1.8-0.8-2.6C110.5,178.7,109.7,178.4,108.8,178.4L108.8,178.4z M123,186.4h-1.4v-5.1c0-1.9-0.7-2.9-2.1-2.9
	c-0.7,0-1.3,0.3-1.8,0.8c-0.5,0.6-0.7,1.3-0.7,2.1v5.1h-1.4v-9h1.4v1.5h0c0.6-1.1,1.7-1.7,3-1.7c0.9-0.1,1.7,0.3,2.3,1
	c0.6,0.8,0.8,1.8,0.8,2.8L123,186.4z M129.9,186.3c-0.4,0.2-0.9,0.3-1.3,0.3c-1.6,0-2.4-0.9-2.4-2.6v-5.3h-1.5v-1.2h1.5v-2.2
	l1.4-0.5v2.7h2.3v1.2h-2.3v5.1c0,0.5,0.1,0.9,0.3,1.3c0.3,0.3,0.6,0.4,1,0.4c0.3,0,0.7-0.1,0.9-0.3L129.9,186.3z M136.5,178.9
	c-0.3-0.2-0.7-0.3-1.1-0.3c-0.6,0-1.2,0.3-1.5,0.9c-0.4,0.7-0.7,1.5-0.6,2.4v4.6h-1.4v-9h1.4v1.9h0c0.2-0.6,0.5-1.1,0.9-1.5
	c0.4-0.3,0.9-0.5,1.4-0.5c0.3,0,0.6,0,0.9,0.1L136.5,178.9z M141.7,186.6c-1.2,0.1-2.4-0.4-3.2-1.3c-0.8-0.9-1.2-2.1-1.2-3.3
	c-0.1-1.3,0.4-2.6,1.2-3.5c0.9-0.9,2.1-1.3,3.3-1.3c1.2-0.1,2.3,0.4,3.1,1.2c0.8,1,1.2,2.2,1.1,3.4c0.1,1.3-0.4,2.5-1.2,3.4
	C144.1,186.2,142.9,186.7,141.7,186.6z M141.8,178.4c-0.8,0-1.7,0.3-2.2,0.9c-0.6,0.7-0.9,1.7-0.8,2.6c-0.1,0.9,0.2,1.8,0.8,2.5
	c0.6,0.6,1.4,1,2.2,0.9c0.8,0,1.6-0.3,2.1-0.9c0.5-0.7,0.8-1.7,0.8-2.6c0.1-0.9-0.2-1.8-0.8-2.6
	C143.4,178.7,142.6,178.4,141.8,178.4L141.8,178.4z M149.9,186.4h-1.4v-13.3h1.4V186.4z M159.2,186.4h-1.4V185h0
	c-0.5,1-1.6,1.7-2.8,1.6c-0.8,0-1.5-0.2-2.1-0.7c-0.5-0.5-0.8-1.2-0.8-1.9c0-1.7,1-2.7,3-2.9l2.7-0.4c0-1.5-0.6-2.3-1.9-2.3
	c-1.1,0-2.1,0.4-2.9,1.1V178c0.9-0.6,2-0.9,3.1-0.8c2.1,0,3.2,1.1,3.2,3.4V186.4z M157.8,181.9l-2.2,0.3c-0.5,0-1.1,0.2-1.5,0.5
	c-0.4,0.3-0.6,0.8-0.5,1.3c0,0.4,0.2,0.8,0.5,1.1c0.4,0.3,0.8,0.4,1.3,0.4c0.7,0,1.3-0.3,1.8-0.8c0.5-0.5,0.7-1.2,0.7-1.9
	L157.8,181.9z M169.6,186.4h-1.4v-1.5h0c-0.6,1.1-1.8,1.8-3.1,1.7c-1,0-2-0.4-2.7-1.2c-0.7-0.9-1.1-2.1-1-3.3
	c-0.1-1.3,0.3-2.6,1.1-3.6c0.7-0.9,1.8-1.4,3-1.3c1.1-0.1,2.2,0.5,2.7,1.5h0v-5.6h1.4V186.4z M168.2,182.3V181
	c0-0.7-0.2-1.4-0.7-1.8c-0.5-0.5-1.1-0.8-1.8-0.8c-0.8,0-1.6,0.3-2.1,1c-0.5,0.8-0.8,1.7-0.8,2.7c0,0.9,0.2,1.7,0.7,2.5
	c0.5,0.6,1.2,0.9,1.9,0.9c0.8,0,1.5-0.3,2-0.9C168,183.9,168.2,183.1,168.2,182.3z M176.3,186.6c-1.2,0.1-2.4-0.4-3.2-1.3
	c-0.8-0.9-1.2-2.1-1.2-3.3c-0.1-1.3,0.4-2.6,1.2-3.5c0.9-0.9,2.1-1.3,3.3-1.3c1.2-0.1,2.3,0.4,3.1,1.2c0.8,1,1.2,2.2,1.1,3.4
	c0.1,1.3-0.4,2.5-1.2,3.4C178.7,186.2,177.5,186.7,176.3,186.6z M176.4,178.4c-0.8,0-1.7,0.3-2.2,0.9c-0.6,0.7-0.9,1.7-0.8,2.6
	c-0.1,0.9,0.2,1.8,0.8,2.5c0.6,0.6,1.4,1,2.2,0.9c0.8,0,1.6-0.3,2.1-0.9c0.5-0.7,0.8-1.7,0.8-2.6c0.1-0.9-0.2-1.8-0.8-2.6
	C178,178.7,177.2,178.4,176.4,178.4L176.4,178.4z"/>
<path id="Trazado_191425" class="st1" d="M98.3,245.5v4.8h-1.5v-12.6h3.5c1.1-0.1,2.2,0.3,3.1,1c0.8,0.7,1.2,1.7,1.1,2.8
	c0,1.1-0.4,2.2-1.2,2.9c-0.9,0.8-2.1,1.2-3.3,1.1H98.3z M98.3,239v5.2h1.5c0.8,0.1,1.7-0.2,2.3-0.7c0.6-0.5,0.8-1.2,0.8-2
	c0-1.7-1-2.5-3-2.5L98.3,239z"/>
<path id="Trazado_191426" class="st1" d="M112.7,242.7c-0.3-0.2-0.7-0.3-1.1-0.3c-0.6,0-1.2,0.3-1.5,0.9c-0.4,0.7-0.7,1.5-0.6,2.4
	v4.6H108v-9h1.4v1.9h0c0.2-0.6,0.5-1.1,0.9-1.5c0.4-0.3,0.9-0.5,1.4-0.5c0.3,0,0.6,0,0.9,0.1L112.7,242.7z"/>
<path id="Trazado_191427" class="st1" d="M117.7,250.4c-1.2,0.1-2.4-0.4-3.2-1.3c-0.8-0.9-1.2-2.1-1.2-3.3c-0.1-1.3,0.4-2.6,1.2-3.5
	c0.9-0.9,2.1-1.3,3.3-1.3c1.2-0.1,2.3,0.4,3.1,1.2c0.8,1,1.2,2.2,1.1,3.4c0.1,1.3-0.4,2.5-1.2,3.4
	C120.1,250,118.9,250.5,117.7,250.4z M117.8,242.2c-0.8,0-1.7,0.3-2.2,0.9c-0.6,0.7-0.9,1.7-0.8,2.6c-0.1,0.9,0.2,1.8,0.8,2.5
	c0.6,0.6,1.4,1,2.2,0.9c0.8,0,1.6-0.3,2.1-0.9c0.5-0.7,0.8-1.7,0.8-2.6c0.1-0.9-0.2-1.8-0.8-2.6
	C119.4,242.5,118.6,242.2,117.8,242.2z M130.6,249.8c-0.7,0.4-1.6,0.6-2.5,0.6c-1.2,0-2.3-0.4-3.1-1.3c-0.8-0.9-1.2-2.1-1.2-3.2
	c-0.1-1.3,0.4-2.6,1.3-3.6c0.9-0.9,2.1-1.4,3.4-1.3c0.7,0,1.4,0.1,2.1,0.4v1.5c-0.6-0.5-1.4-0.7-2.1-0.7c-0.9,0-1.7,0.3-2.3,1
	c-0.6,0.7-0.9,1.7-0.9,2.6c-0.1,0.9,0.2,1.8,0.8,2.5c0.6,0.6,1.4,0.9,2.2,0.9c0.8,0,1.6-0.3,2.2-0.8L130.6,249.8z M140,246.1h-6.4
	c0,0.8,0.3,1.7,0.8,2.3c0.6,0.6,1.3,0.9,2.1,0.8c1,0,2-0.4,2.8-1v1.4c-0.9,0.6-2,0.9-3.1,0.9c-1.1,0.1-2.2-0.4-3-1.2
	c-0.8-1-1.2-2.2-1.1-3.4c-0.1-1.3,0.4-2.5,1.2-3.4c0.7-0.9,1.8-1.3,3-1.3c1-0.1,2,0.4,2.7,1.1c0.7,0.9,1,2,1,3.2V246.1z
	 M138.6,244.9c0-0.7-0.2-1.4-0.6-1.9c-0.4-0.5-1-0.7-1.7-0.7c-0.7,0-1.3,0.3-1.7,0.7c-0.5,0.5-0.8,1.2-0.9,1.9L138.6,244.9z
	 M141.7,249.9v-1.5c0.7,0.6,1.7,0.9,2.6,0.9c1.3,0,1.9-0.4,1.9-1.3c0-0.2-0.1-0.4-0.2-0.6c-0.1-0.2-0.3-0.3-0.4-0.4
	c-0.2-0.1-0.4-0.3-0.7-0.3c-0.2-0.1-0.5-0.2-0.8-0.3c-0.4-0.1-0.7-0.3-1-0.5c-0.3-0.1-0.5-0.3-0.8-0.5c-0.2-0.2-0.4-0.4-0.5-0.7
	c-0.1-0.3-0.2-0.6-0.2-0.9c0-0.4,0.1-0.8,0.3-1.1c0.2-0.3,0.5-0.6,0.8-0.8c0.3-0.2,0.7-0.4,1.1-0.5c0.4-0.1,0.8-0.2,1.3-0.2
	c0.7,0,1.4,0.1,2.1,0.4v1.5c-0.7-0.4-1.5-0.7-2.3-0.6c-0.2,0-0.5,0-0.7,0.1c-0.2,0.1-0.4,0.1-0.6,0.3c-0.1,0.1-0.3,0.2-0.4,0.4
	c-0.1,0.2-0.1,0.3-0.1,0.5c0,0.2,0,0.4,0.1,0.6c0.1,0.2,0.2,0.3,0.4,0.4c0.2,0.1,0.4,0.2,0.6,0.3c0.2,0.1,0.5,0.2,0.8,0.3
	c0.4,0.1,0.7,0.3,1.1,0.5c0.3,0.1,0.6,0.3,0.8,0.5c0.2,0.2,0.4,0.4,0.5,0.7c0.1,0.3,0.2,0.6,0.2,0.9c0,0.4-0.1,0.8-0.3,1.2
	c-0.2,0.3-0.5,0.6-0.8,0.8c-0.3,0.2-0.7,0.4-1.1,0.5c-0.4,0.1-0.9,0.2-1.3,0.2C143.2,250.5,142.4,250.3,141.7,249.9z M153.6,250.4
	c-1.2,0.1-2.4-0.4-3.2-1.3c-0.8-0.9-1.2-2.1-1.2-3.3c-0.1-1.3,0.4-2.6,1.2-3.5c0.9-0.9,2.1-1.3,3.3-1.3c1.2-0.1,2.3,0.4,3.1,1.2
	c0.8,1,1.2,2.2,1.1,3.4c0.1,1.3-0.4,2.5-1.2,3.4C156,250,154.8,250.5,153.6,250.4z M153.7,242.2c-0.8,0-1.7,0.3-2.2,0.9
	c-0.6,0.7-0.9,1.7-0.8,2.6c-0.1,0.9,0.2,1.8,0.8,2.5c0.6,0.6,1.4,1,2.2,0.9c0.8,0,1.6-0.3,2.1-0.9c0.5-0.7,0.8-1.7,0.8-2.6
	c0.1-0.9-0.2-1.8-0.8-2.6C155.3,242.5,154.5,242.2,153.7,242.2z M171.5,249.8c-0.7,0.4-1.6,0.6-2.5,0.6c-1.2,0-2.3-0.4-3.1-1.3
	c-0.8-0.9-1.2-2.1-1.2-3.2c-0.1-1.3,0.4-2.6,1.3-3.6c0.9-0.9,2.1-1.4,3.4-1.3c0.7,0,1.4,0.1,2.1,0.4v1.5c-0.6-0.5-1.4-0.7-2.1-0.7
	c-0.9,0-1.7,0.3-2.3,1c-0.6,0.7-0.9,1.7-0.9,2.6c-0.1,0.9,0.2,1.8,0.8,2.5c0.6,0.6,1.4,0.9,2.2,0.9c0.8,0,1.6-0.3,2.2-0.8
	L171.5,249.8z M180.1,250.2h-1.4v-1.4h0c-0.5,1-1.6,1.7-2.8,1.6c-0.8,0-1.5-0.2-2.1-0.7c-0.5-0.5-0.8-1.2-0.8-1.9c0-1.7,1-2.7,3-2.9
	l2.7-0.4c0-1.5-0.6-2.3-1.9-2.3c-1.1,0-2.1,0.4-2.9,1.1v-1.5c0.9-0.6,2-0.9,3.1-0.8c2.1,0,3.2,1.1,3.2,3.4L180.1,250.2z
	 M178.7,245.7l-2.2,0.3c-0.5,0-1.1,0.2-1.5,0.5c-0.4,0.3-0.6,0.8-0.5,1.3c0,0.4,0.2,0.8,0.5,1.1c0.4,0.3,0.8,0.4,1.3,0.4
	c0.7,0,1.3-0.3,1.8-0.8c0.5-0.5,0.7-1.2,0.7-1.9L178.7,245.7z"/>
<path id="Trazado_191428" class="st1" d="M186.9,242.7c-0.3-0.2-0.7-0.3-1.1-0.3c-0.6,0-1.2,0.3-1.5,0.9c-0.4,0.7-0.7,1.5-0.6,2.4
	v4.6h-1.4v-9h1.4v1.9h0c0.2-0.6,0.5-1.1,0.9-1.5c0.4-0.3,0.9-0.5,1.4-0.5c0.3,0,0.6,0,0.9,0.1L186.9,242.7z"/>
<path id="Trazado_191429" class="st1" d="M194.4,250.2H193v-1.4h0c-0.5,1-1.6,1.7-2.8,1.6c-0.8,0-1.5-0.2-2.1-0.7
	c-0.5-0.5-0.8-1.2-0.8-1.9c0-1.7,1-2.7,3-2.9l2.7-0.4c0-1.5-0.6-2.3-1.9-2.3c-1.1,0-2.1,0.4-2.9,1.1v-1.5c0.9-0.6,2-0.9,3.1-0.8
	c2.1,0,3.2,1.1,3.2,3.4V250.2z M193,245.7l-2.2,0.3c-0.5,0-1.1,0.2-1.5,0.5c-0.4,0.3-0.6,0.8-0.5,1.3c0,0.4,0.2,0.8,0.5,1.1
	c0.3,0.3,0.8,0.4,1.3,0.4c0.7,0,1.3-0.3,1.8-0.8c0.5-0.5,0.7-1.2,0.7-1.9L193,245.7z M203.3,249.8c-0.7,0.4-1.6,0.6-2.5,0.6
	c-1.2,0-2.3-0.4-3.1-1.3c-0.8-0.9-1.2-2.1-1.2-3.2c-0.1-1.3,0.4-2.6,1.3-3.6c0.9-0.9,2.1-1.4,3.4-1.3c0.7,0,1.4,0.1,2.1,0.4v1.5
	c-0.6-0.5-1.4-0.7-2.1-0.7c-0.9,0-1.7,0.3-2.3,1c-0.6,0.7-0.9,1.7-0.9,2.6c-0.1,0.9,0.2,1.8,0.8,2.5c0.6,0.6,1.4,0.9,2.2,0.9
	c0.8,0,1.6-0.3,2.2-0.8V249.8z M209.6,250.1c-0.4,0.2-0.9,0.3-1.3,0.3c-1.6,0-2.4-0.9-2.4-2.6v-5.3h-1.5v-1.2h1.5V239l1.4-0.5v2.7
	h2.3v1.2h-2.3v5.1c0,0.5,0.1,0.9,0.3,1.3c0.3,0.3,0.6,0.4,1,0.4c0.3,0,0.7-0.1,0.9-0.3L209.6,250.1z M218.8,246.1h-6.4
	c0,0.8,0.3,1.7,0.8,2.3c0.6,0.6,1.3,0.9,2.1,0.8c1,0,2-0.4,2.8-1v1.4c-0.9,0.6-2,0.9-3.1,0.9c-1.1,0.1-2.2-0.4-3-1.2
	c-0.8-1-1.2-2.2-1.1-3.4c-0.1-1.3,0.4-2.5,1.2-3.4c0.7-0.9,1.8-1.3,3-1.3c1-0.1,2.1,0.4,2.7,1.1c0.7,0.9,1,2,1,3.2V246.1z
	 M217.3,244.9c0-0.7-0.2-1.4-0.6-1.9c-0.4-0.5-1-0.7-1.7-0.7c-0.7,0-1.3,0.3-1.7,0.7c-0.5,0.5-0.8,1.2-0.9,1.9L217.3,244.9z
	 M225.7,242.7c-0.3-0.2-0.7-0.3-1.1-0.3c-0.6,0-1.2,0.3-1.5,0.9c-0.4,0.7-0.7,1.5-0.6,2.4v4.6H221v-9h1.4v1.9h0
	c0.2-0.6,0.5-1.1,0.9-1.5c0.4-0.3,0.9-0.5,1.4-0.5c0.3,0,0.6,0,0.9,0.1L225.7,242.7z M228,238.9c-0.2,0-0.5-0.1-0.7-0.3
	c-0.2-0.2-0.3-0.4-0.3-0.7c0-0.3,0.1-0.5,0.3-0.7c0.2-0.2,0.4-0.3,0.7-0.3c0.3,0,0.5,0.1,0.7,0.3c0.2,0.2,0.3,0.4,0.3,0.7
	c0,0.2-0.1,0.5-0.3,0.7C228.5,238.8,228.2,238.9,228,238.9L228,238.9z M228.7,250.2h-1.4v-9h1.4L228.7,250.2z M237.9,241.6l-5.3,7.4
	h5.3v1.2h-7.4v-0.4l5.3-7.3h-4.8v-1.2h6.9V241.6z M246.2,250.2h-1.4v-1.4h0c-0.5,1-1.6,1.7-2.8,1.6c-0.8,0-1.5-0.2-2.1-0.7
	c-0.5-0.5-0.8-1.2-0.8-1.9c0-1.7,1-2.7,3-2.9l2.7-0.4c0-1.5-0.6-2.3-1.9-2.3c-1.1,0-2.1,0.4-2.9,1.1v-1.5c0.9-0.6,2-0.9,3.1-0.8
	c2.1,0,3.2,1.1,3.2,3.4V250.2z M244.7,245.7l-2.2,0.3c-0.5,0-1.1,0.2-1.5,0.5c-0.4,0.3-0.6,0.8-0.5,1.3c0,0.4,0.2,0.8,0.5,1.1
	c0.4,0.3,0.8,0.4,1.3,0.4c0.7,0,1.3-0.3,1.8-0.8c0.5-0.5,0.7-1.2,0.7-1.9V245.7z M256.6,250.2h-1.4v-1.5h0c-0.6,1.1-1.8,1.8-3.1,1.7
	c-1,0-2-0.4-2.7-1.2c-0.7-0.9-1.1-2.1-1-3.3c-0.1-1.3,0.3-2.6,1.1-3.6c0.7-0.9,1.8-1.4,3-1.3c1.1-0.1,2.2,0.5,2.7,1.5h0v-5.6h1.4
	V250.2z M255.1,246.2v-1.3c0-0.7-0.2-1.4-0.7-1.8c-0.5-0.5-1.1-0.8-1.8-0.8c-0.8,0-1.6,0.3-2.1,1c-0.5,0.8-0.8,1.7-0.8,2.7
	c-0.1,0.9,0.2,1.7,0.7,2.5c0.5,0.6,1.2,0.9,1.9,0.9c0.8,0,1.5-0.3,2-0.9C254.9,247.7,255.2,247,255.1,246.2z M263.2,250.4
	c-1.2,0.1-2.4-0.4-3.2-1.3c-0.8-0.9-1.2-2.1-1.2-3.3c-0.1-1.3,0.4-2.6,1.2-3.5c0.9-0.9,2.1-1.3,3.3-1.3c1.2-0.1,2.3,0.4,3.1,1.2
	c0.8,1,1.2,2.2,1.1,3.4c0.1,1.3-0.4,2.5-1.2,3.4C265.7,250,264.5,250.5,263.2,250.4z M263.3,242.2c-0.8,0-1.7,0.3-2.2,0.9
	c-0.6,0.7-0.9,1.7-0.8,2.6c-0.1,0.9,0.2,1.8,0.8,2.5c0.6,0.6,1.4,1,2.2,0.9c0.8,0,1.6-0.3,2.1-0.9c0.5-0.7,0.8-1.7,0.8-2.6
	c0.1-0.9-0.2-1.8-0.8-2.6C265,242.5,264.2,242.2,263.3,242.2z M276.4,248.9L276.4,248.9l0,5.4H275v-13.1h1.4v1.6h0
	c0.6-1.1,1.8-1.8,3.1-1.8c1-0.1,2.1,0.4,2.7,1.2c0.7,0.9,1,2.1,1,3.2c0.1,1.3-0.3,2.6-1.1,3.6c-0.7,0.9-1.8,1.4-3,1.4
	C278,250.5,277,249.9,276.4,248.9z M276.4,245.3v1.3c0,0.7,0.2,1.4,0.7,1.9c0.5,0.5,1.1,0.8,1.8,0.8c0.8,0,1.6-0.3,2.1-1
	c0.5-0.8,0.8-1.8,0.7-2.8c0-0.8-0.2-1.7-0.7-2.4c-0.5-0.6-1.2-0.9-1.9-0.9c-0.8,0-1.5,0.3-2,0.9
	C276.6,243.7,276.4,244.5,276.4,245.3L276.4,245.3z M289.3,250.4c-1.2,0.1-2.4-0.4-3.2-1.3c-0.8-0.9-1.3-2.1-1.2-3.3
	c-0.1-1.3,0.4-2.6,1.2-3.5c0.9-0.9,2.1-1.3,3.3-1.3c1.2-0.1,2.3,0.4,3.1,1.2c0.8,1,1.2,2.2,1.1,3.4c0.1,1.3-0.4,2.5-1.2,3.4
	C291.7,250,290.5,250.5,289.3,250.4L289.3,250.4z M289.4,242.2c-0.8,0-1.7,0.3-2.2,0.9c-0.6,0.7-0.9,1.7-0.8,2.6
	c-0.1,0.9,0.2,1.8,0.8,2.5c0.6,0.6,1.4,1,2.2,0.9c0.8,0,1.6-0.3,2.1-0.9c0.5-0.7,0.8-1.7,0.8-2.6c0.1-0.9-0.2-1.8-0.8-2.6
	C291,242.5,290.2,242.2,289.4,242.2z M300.8,242.7c-0.3-0.2-0.7-0.3-1.1-0.3c-0.6,0-1.2,0.3-1.5,0.9c-0.4,0.7-0.7,1.5-0.6,2.4v4.6
	h-1.4v-9h1.4v1.9h0c0.2-0.6,0.5-1.1,0.9-1.5c0.4-0.3,0.9-0.5,1.4-0.5c0.3,0,0.6,0,0.9,0.1L300.8,242.7z M308.7,250.2h-1.4v-13.3h1.4
	V250.2z M318.1,250.2h-1.4v-1.4h0c-0.5,1-1.6,1.7-2.8,1.6c-0.8,0-1.5-0.2-2.1-0.7c-0.5-0.5-0.8-1.2-0.8-1.9c0-1.7,1-2.7,3-2.9
	l2.7-0.4c0-1.5-0.6-2.3-1.9-2.3c-1.1,0-2.1,0.4-2.9,1.1v-1.5c0.9-0.6,2-0.9,3.1-0.8c2.1,0,3.2,1.1,3.2,3.4L318.1,250.2z
	 M316.6,245.7l-2.2,0.3c-0.5,0-1.1,0.2-1.5,0.5c-0.4,0.3-0.6,0.8-0.5,1.3c0,0.4,0.2,0.8,0.5,1.1c0.4,0.3,0.8,0.4,1.3,0.4
	c0.7,0,1.3-0.3,1.8-0.8c0.5-0.5,0.7-1.2,0.7-1.9L316.6,245.7z"/>
<path id="Trazado_191430" class="st1" d="M100.7,272.1c-1.3,0.1-2.6-0.4-3.5-1.3c-0.9-0.9-1.4-2.2-1.3-3.4c-0.1-1.3,0.4-2.6,1.3-3.5
	c1-0.9,2.3-1.3,3.6-1.3c1.3-0.1,2.6,0.4,3.5,1.3c0.9,0.9,1.3,2.1,1.3,3.3c0.1,1.3-0.4,2.6-1.3,3.5
	C103.3,271.7,102,272.1,100.7,272.1z M100.7,264.7c-0.6,0-1.2,0.2-1.5,0.7c-0.4,0.6-0.6,1.2-0.5,1.9c0,1.7,0.7,2.6,2.1,2.6
	c1.3,0,2-0.9,2-2.7C102.8,265.6,102.1,264.7,100.7,264.7L100.7,264.7z"/>
<path id="Trazado_191431" class="st1" d="M112.4,265.3c-0.4-0.2-0.8-0.3-1.2-0.3c-0.6,0-1.1,0.2-1.4,0.7c-0.4,0.5-0.5,1.2-0.5,1.8
	v4.3h-2.8v-9h2.8v1.7h0c0.3-1.1,1.3-1.8,2.4-1.8c0.2,0,0.5,0,0.7,0.1V265.3z"/>
<path id="Trazado_191432" class="st1" d="M121.8,270.8c0.1,1.4-0.4,2.9-1.4,3.9c-1.2,1-2.7,1.5-4.2,1.4c-1,0-2-0.1-2.9-0.5v-2.3
	c0.8,0.5,1.8,0.8,2.8,0.8c0.8,0.1,1.6-0.2,2.2-0.7c0.5-0.5,0.8-1.3,0.8-2v-0.7h0c-0.6,1-1.7,1.6-2.8,1.5c-1.1,0-2.1-0.4-2.7-1.2
	c-0.7-0.9-1.1-2.1-1-3.3c-0.1-1.3,0.3-2.6,1.1-3.6c0.7-0.9,1.8-1.4,3-1.3c1-0.1,1.9,0.4,2.5,1.3h0v-1h2.8V270.8z M119,267.5v-0.7
	c0-0.5-0.2-1-0.5-1.5c-0.3-0.4-0.8-0.6-1.3-0.6c-0.6,0-1.1,0.3-1.4,0.7c-0.4,0.6-0.6,1.3-0.5,2c0,0.6,0.1,1.3,0.5,1.8
	c0.3,0.4,0.8,0.7,1.4,0.7c0.5,0,1.1-0.2,1.4-0.7C118.9,268.8,119.1,268.1,119,267.5L119,267.5z M131.6,271.8H129v-1.3h0
	c-0.5,1-1.6,1.6-2.7,1.5c-0.8,0-1.5-0.2-2.1-0.7c-0.5-0.5-0.8-1.2-0.8-2c0-1.7,1-2.8,3.1-3l2.4-0.3c0-1-0.5-1.5-1.6-1.5
	c-1.1,0-2.2,0.3-3.1,1v-2.1c0.5-0.2,1-0.4,1.6-0.5c0.6-0.1,1.2-0.2,1.8-0.2c2.6,0,3.8,1.3,3.8,3.8L131.6,271.8z M129,268.2v-0.6
	l-1.6,0.2c-0.9,0.1-1.4,0.5-1.4,1.2c0,0.3,0.1,0.6,0.3,0.8c0.2,0.2,0.6,0.3,0.9,0.3c0.5,0,1-0.2,1.3-0.5
	C128.8,269.2,129,268.7,129,268.2L129,268.2z M142.5,271.8h-2.8v-5c0-1.4-0.5-2.1-1.5-2.1c-0.5,0-0.9,0.2-1.2,0.6
	c-0.3,0.4-0.5,0.9-0.5,1.4v5.1h-2.8v-9h2.8v1.4h0c0.6-1,1.7-1.7,2.9-1.6c2,0,3,1.2,3,3.7L142.5,271.8z M146.1,261.4
	c-0.4,0-0.8-0.1-1.2-0.4c-0.3-0.3-0.5-0.6-0.4-1c0-0.4,0.2-0.8,0.4-1c0.3-0.3,0.7-0.4,1.2-0.4c0.4,0,0.8,0.1,1.2,0.4
	c0.3,0.3,0.5,0.6,0.4,1c0,0.4-0.2,0.8-0.4,1C146.9,261.3,146.5,261.4,146.1,261.4L146.1,261.4z M147.5,271.8h-2.8v-9h2.8V271.8z
	 M156.9,271.8h-8.1v-1.2l4.5-5.8h-4.1v-2h7.6v1.4l-4.3,5.6h4.3L156.9,271.8z M165.9,271.8h-2.6v-1.3h0c-0.5,1-1.6,1.6-2.7,1.5
	c-0.8,0-1.5-0.2-2.1-0.7c-0.5-0.5-0.8-1.2-0.8-2c0-1.7,1-2.8,3.1-3l2.4-0.3c0-1-0.5-1.5-1.6-1.5c-1.1,0-2.2,0.3-3.1,1v-2.1
	c0.5-0.2,1-0.4,1.6-0.5c0.6-0.1,1.2-0.2,1.8-0.2c2.6,0,3.8,1.3,3.8,3.8L165.9,271.8z M163.3,268.2v-0.6l-1.6,0.2
	c-0.9,0.1-1.4,0.5-1.4,1.2c0,0.3,0.1,0.6,0.3,0.8c0.2,0.2,0.6,0.3,0.9,0.3c0.5,0,0.9-0.2,1.3-0.5
	C163.1,269.2,163.3,268.7,163.3,268.2z M174.9,271.5c-0.8,0.4-1.8,0.6-2.7,0.5c-1.2,0.1-2.5-0.4-3.4-1.3c-0.9-0.9-1.3-2-1.3-3.2
	c-0.1-1.3,0.4-2.7,1.4-3.6c1-0.9,2.3-1.4,3.7-1.3c0.8-0.1,1.6,0.1,2.3,0.4v2.4c-0.6-0.4-1.2-0.7-1.9-0.6c-0.7,0-1.4,0.2-1.9,0.7
	c-0.5,0.5-0.7,1.2-0.7,1.9c0,0.7,0.2,1.4,0.7,1.9c0.5,0.5,1.2,0.7,1.8,0.7c0.7,0,1.4-0.2,2-0.6L174.9,271.5z M178.1,261.4
	c-0.4,0-0.8-0.1-1.2-0.4c-0.3-0.3-0.5-0.6-0.4-1c0-0.4,0.2-0.8,0.4-1c0.3-0.3,0.7-0.4,1.2-0.4c0.4,0,0.8,0.1,1.2,0.4
	c0.3,0.3,0.5,0.6,0.4,1c0,0.4-0.2,0.8-0.4,1C179,261.3,178.6,261.4,178.1,261.4L178.1,261.4z M179.5,271.8h-2.8v-9h2.8L179.5,271.8z
	 M186.1,272.1c-1.3,0.1-2.6-0.4-3.5-1.3c-0.9-0.9-1.4-2.2-1.3-3.4c-0.1-1.3,0.4-2.6,1.3-3.5c1-0.9,2.3-1.3,3.6-1.3
	c1.3-0.1,2.6,0.4,3.5,1.3c0.9,0.9,1.3,2.1,1.3,3.3c0.1,1.3-0.4,2.6-1.3,3.5C188.8,271.7,187.5,272.1,186.1,272.1L186.1,272.1z
	 M186.2,264.7c-0.6,0-1.2,0.2-1.5,0.7c-0.4,0.6-0.6,1.2-0.5,1.9c0,1.7,0.7,2.6,2.1,2.6c1.3,0,2-0.9,2-2.7
	C188.2,265.6,187.6,264.7,186.2,264.7L186.2,264.7z M189.2,258.6l-2.8,2.8h-2l2.3-2.8H189.2z M201.5,271.8h-2.8v-5
	c0-1.4-0.5-2.1-1.5-2.1c-0.5,0-0.9,0.2-1.2,0.6c-0.3,0.4-0.5,0.9-0.5,1.4v5.1h-2.8v-9h2.8v1.4h0c0.6-1,1.7-1.7,2.9-1.6
	c2,0,3,1.2,3,3.7V271.8z"/>
<path id="Trazado_191433" class="st1" d="M212.9,262.8l-4.1,10.4c-0.7,1.9-1.8,2.8-3.1,2.8c-0.3,0-0.6,0-0.9-0.1v-1.3
	c0.3,0.1,0.6,0.2,0.9,0.2c0.8,0,1.4-0.6,1.6-1.3l0.7-1.7l-3.5-9h1.6l2.4,6.9c0,0.1,0.1,0.3,0.2,0.7h0.1c0-0.1,0.1-0.4,0.2-0.7
	l2.6-6.9H212.9z M226.6,267.7h-6.4c0,0.8,0.3,1.7,0.8,2.3c0.6,0.6,1.3,0.9,2.1,0.8c1,0,2-0.4,2.8-1v1.4c-0.9,0.6-2,0.9-3.1,0.9
	c-1.1,0.1-2.2-0.4-3-1.2c-0.8-1-1.2-2.2-1.1-3.4c-0.1-1.3,0.4-2.5,1.2-3.4c0.7-0.9,1.8-1.3,3-1.3c1-0.1,2,0.4,2.7,1.1
	c0.7,0.9,1,2,1,3.2V267.7z M225.1,266.5c0-0.7-0.2-1.4-0.6-1.9c-0.4-0.5-1-0.7-1.6-0.7c-0.7,0-1.3,0.3-1.7,0.7
	c-0.5,0.5-0.8,1.2-0.9,1.9H225.1z M228.2,271.5V270c0.7,0.6,1.7,0.9,2.6,0.9c1.3,0,1.9-0.4,1.9-1.3c0-0.2-0.1-0.4-0.2-0.6
	c-0.1-0.2-0.3-0.3-0.4-0.4c-0.2-0.1-0.4-0.3-0.7-0.3c-0.2-0.1-0.5-0.2-0.8-0.3c-0.4-0.1-0.7-0.3-1-0.5c-0.3-0.1-0.5-0.3-0.8-0.5
	c-0.2-0.2-0.4-0.4-0.5-0.7c-0.1-0.3-0.2-0.6-0.2-0.9c0-0.4,0.1-0.8,0.3-1.1c0.2-0.3,0.5-0.6,0.8-0.8c0.3-0.2,0.7-0.4,1.1-0.5
	c0.4-0.1,0.8-0.2,1.3-0.2c0.7,0,1.4,0.1,2.1,0.4v1.5c-0.7-0.4-1.5-0.7-2.3-0.6c-0.2,0-0.5,0-0.7,0.1c-0.2,0.1-0.4,0.1-0.6,0.3
	c-0.1,0.1-0.3,0.2-0.4,0.4c-0.1,0.2-0.1,0.3-0.1,0.5c0,0.2,0,0.4,0.1,0.6c0.1,0.2,0.2,0.3,0.4,0.4c0.2,0.1,0.4,0.2,0.6,0.3
	c0.2,0.1,0.5,0.2,0.8,0.3c0.4,0.1,0.7,0.3,1.1,0.5c0.3,0.1,0.6,0.3,0.8,0.5c0.2,0.2,0.4,0.4,0.5,0.7c0.1,0.3,0.2,0.6,0.2,0.9
	c0,0.4-0.1,0.8-0.3,1.2c-0.2,0.3-0.5,0.6-0.8,0.8c-0.3,0.2-0.7,0.4-1.1,0.5c-0.4,0.1-0.9,0.2-1.3,0.2
	C229.8,272.1,229,271.9,228.2,271.5z M242.8,270.5L242.8,270.5l0,5.4h-1.4v-13.1h1.4v1.6h0c0.6-1.1,1.8-1.8,3.1-1.8
	c1-0.1,2.1,0.4,2.7,1.2c0.7,0.9,1,2.1,1,3.2c0.1,1.3-0.3,2.6-1.1,3.6c-0.7,0.9-1.8,1.4-3,1.4C244.4,272.1,243.4,271.5,242.8,270.5z
	 M242.8,266.9v1.3c0,0.7,0.2,1.4,0.7,1.9c0.5,0.5,1.1,0.8,1.8,0.8c0.8,0,1.6-0.3,2.1-1c0.5-0.8,0.8-1.8,0.7-2.8
	c0-0.8-0.2-1.7-0.7-2.4c-0.5-0.6-1.2-0.9-1.9-0.9c-0.8,0-1.5,0.3-2,0.9C243,265.3,242.8,266.1,242.8,266.9L242.8,266.9z"/>
<path id="Trazado_191434" class="st1" d="M256.8,264.3c-0.3-0.2-0.7-0.3-1.1-0.3c-0.6,0-1.2,0.3-1.5,0.9c-0.4,0.7-0.7,1.5-0.6,2.4
	v4.6h-1.4v-9h1.4v1.9h0c0.2-0.6,0.5-1.1,0.9-1.5c0.4-0.3,0.9-0.5,1.4-0.5c0.3,0,0.6,0,0.9,0.1L256.8,264.3z"/>
<path id="Trazado_191435" class="st1" d="M261.8,272c-1.2,0.1-2.4-0.4-3.2-1.3c-0.8-0.9-1.2-2.1-1.2-3.3c-0.1-1.3,0.4-2.6,1.2-3.5
	c0.9-0.9,2.1-1.3,3.3-1.3c1.2-0.1,2.3,0.4,3.1,1.2c0.8,1,1.2,2.2,1.1,3.4c0.1,1.3-0.4,2.5-1.2,3.5C264.2,271.6,263,272.1,261.8,272z
	 M261.9,263.8c-0.8,0-1.7,0.3-2.2,0.9c-0.6,0.7-0.9,1.7-0.8,2.6c-0.1,0.9,0.2,1.8,0.8,2.5c0.6,0.6,1.4,1,2.2,0.9
	c0.8,0,1.6-0.3,2.1-0.9c0.5-0.7,0.8-1.7,0.8-2.6c0.1-0.9-0.2-1.8-0.8-2.6C263.5,264.1,262.7,263.8,261.9,263.8z M275,271.8h-1.4
	v-1.4h0c-0.5,1-1.6,1.7-2.8,1.6c-0.8,0-1.5-0.2-2.1-0.7c-0.5-0.5-0.8-1.2-0.8-1.9c0-1.7,1-2.7,3-2.9l2.7-0.4c0-1.5-0.6-2.3-1.9-2.3
	c-1.1,0-2.1,0.4-2.9,1.1v-1.5c0.9-0.6,2-0.9,3.1-0.8c2.1,0,3.2,1.1,3.2,3.4V271.8z M273.5,267.3l-2.2,0.3c-0.5,0-1.1,0.2-1.5,0.5
	c-0.4,0.3-0.6,0.8-0.5,1.3c0,0.4,0.2,0.8,0.5,1.1c0.4,0.3,0.8,0.4,1.3,0.4c0.7,0,1.3-0.3,1.8-0.8c0.5-0.5,0.7-1.2,0.7-1.9
	L273.5,267.3z M283.8,271.4c-0.7,0.4-1.6,0.6-2.5,0.6c-1.2,0-2.3-0.4-3.1-1.3c-0.8-0.9-1.2-2.1-1.2-3.2c-0.1-1.3,0.4-2.6,1.3-3.6
	c0.9-0.9,2.1-1.4,3.4-1.3c0.7,0,1.4,0.1,2.1,0.4v1.5c-0.6-0.5-1.4-0.7-2.1-0.7c-0.9,0-1.7,0.3-2.3,1c-0.6,0.7-0.9,1.7-0.9,2.6
	c-0.1,0.9,0.2,1.8,0.8,2.5c0.6,0.6,1.4,0.9,2.2,0.9c0.8,0,1.6-0.3,2.2-0.8V271.4z M290.2,271.7c-0.4,0.2-0.9,0.3-1.3,0.3
	c-1.6,0-2.4-0.9-2.4-2.6v-5.3h-1.5v-1.2h1.5v-2.2l1.4-0.5v2.7h2.3v1.2h-2.3v5.1c0,0.5,0.1,0.9,0.3,1.3c0.3,0.3,0.6,0.4,1,0.4
	c0.3,0,0.7-0.1,0.9-0.3V271.7z M292.8,260.5c-0.2,0-0.5-0.1-0.7-0.3c-0.2-0.2-0.3-0.4-0.3-0.7c0-0.3,0.1-0.5,0.3-0.7
	c0.2-0.2,0.4-0.3,0.7-0.3c0.3,0,0.5,0.1,0.7,0.3c0.2,0.2,0.3,0.4,0.3,0.7c0,0.2-0.1,0.5-0.3,0.7
	C293.3,260.4,293.1,260.5,292.8,260.5L292.8,260.5z M293.6,271.8h-1.4v-9h1.4V271.8z"/>
<path id="Trazado_191436" class="st1" d="M304.8,262.8l-3.6,9h-1.4l-3.4-9h1.6l2.3,6.5c0.2,0.4,0.3,0.8,0.3,1.3h0
	c0.1-0.4,0.1-0.8,0.3-1.2l2.4-6.6H304.8z"/>
<path id="Trazado_191437" class="st1" d="M310.1,272c-1.2,0.1-2.4-0.4-3.2-1.3c-0.8-0.9-1.2-2.1-1.2-3.3c-0.1-1.3,0.4-2.6,1.2-3.5
	c0.9-0.9,2.1-1.3,3.3-1.3c1.2-0.1,2.3,0.4,3.1,1.2c0.8,1,1.2,2.2,1.1,3.4c0.1,1.3-0.4,2.5-1.2,3.5
	C312.5,271.6,311.3,272.1,310.1,272z M310.2,263.8c-0.8,0-1.7,0.3-2.2,0.9c-0.6,0.7-0.9,1.7-0.8,2.6c-0.1,0.9,0.2,1.8,0.8,2.5
	c0.6,0.6,1.4,1,2.2,0.9c0.8,0,1.6-0.3,2.1-0.9c0.5-0.7,0.8-1.7,0.8-2.6c0.1-0.9-0.2-1.8-0.8-2.6C311.8,264.1,311,263.8,310.2,263.8z
	"/>
<path id="Trazado_191438" class="st1" d="M98.3,323.9v4.8h-1.5V316h3.5c1.1-0.1,2.2,0.3,3.1,1c0.8,0.7,1.2,1.7,1.1,2.8
	c0,1.1-0.4,2.2-1.2,2.9c-0.9,0.8-2.1,1.2-3.3,1.1H98.3z M98.3,317.4v5.2h1.5c0.8,0.1,1.7-0.2,2.3-0.7c0.6-0.5,0.8-1.2,0.8-2
	c0-1.7-1-2.5-3-2.5L98.3,317.4z"/>
<path id="Trazado_191439" class="st1" d="M112.7,321.1c-0.3-0.2-0.7-0.3-1.1-0.3c-0.6,0-1.2,0.3-1.5,0.9c-0.4,0.7-0.7,1.5-0.6,2.4
	v4.6H108v-9h1.4v1.9h0c0.2-0.6,0.5-1.1,0.9-1.5c0.4-0.3,0.9-0.5,1.4-0.5c0.3,0,0.6,0,0.9,0.1L112.7,321.1z"/>
<path id="Trazado_191440" class="st1" d="M117.7,328.9c-1.2,0.1-2.4-0.4-3.2-1.3c-0.8-0.9-1.2-2.1-1.2-3.3c-0.1-1.3,0.4-2.6,1.2-3.5
	c0.9-0.9,2.1-1.3,3.3-1.3c1.2-0.1,2.3,0.4,3.1,1.2c0.8,1,1.2,2.2,1.1,3.4c0.1,1.3-0.4,2.5-1.2,3.5
	C120.1,328.4,118.9,328.9,117.7,328.9z M117.8,320.6c-0.8,0-1.7,0.3-2.2,0.9c-0.6,0.7-0.9,1.7-0.8,2.6c-0.1,0.9,0.2,1.8,0.8,2.5
	c0.6,0.6,1.4,1,2.2,0.9c0.8,0,1.6-0.3,2.1-0.9c0.5-0.7,0.8-1.7,0.8-2.6c0.1-0.9-0.2-1.8-0.8-2.6
	C119.4,320.9,118.6,320.6,117.8,320.6z M130.6,328.2c-0.7,0.4-1.6,0.6-2.5,0.6c-1.2,0-2.3-0.4-3.1-1.3c-0.8-0.9-1.2-2.1-1.2-3.2
	c-0.1-1.3,0.4-2.6,1.3-3.6c0.9-0.9,2.1-1.4,3.4-1.3c0.7,0,1.4,0.1,2.1,0.4v1.5c-0.6-0.5-1.4-0.7-2.1-0.7c-0.9,0-1.7,0.3-2.3,1
	c-0.6,0.7-0.9,1.7-0.9,2.6c-0.1,0.9,0.2,1.8,0.8,2.5c0.6,0.6,1.4,0.9,2.2,0.9c0.8,0,1.6-0.3,2.2-0.8L130.6,328.2z M140,324.5h-6.4
	c0,0.8,0.3,1.7,0.8,2.3c0.6,0.6,1.3,0.9,2.1,0.8c1,0,2-0.4,2.8-1v1.4c-0.9,0.6-2,0.9-3.1,0.9c-1.1,0.1-2.2-0.4-3-1.2
	c-0.8-1-1.2-2.2-1.1-3.4c-0.1-1.3,0.4-2.5,1.2-3.4c0.7-0.9,1.8-1.3,3-1.3c1-0.1,2,0.4,2.7,1.1c0.7,0.9,1,2,1,3.2V324.5z
	 M138.6,323.3c0-0.7-0.2-1.4-0.6-1.9c-0.4-0.5-1-0.7-1.7-0.7c-0.7,0-1.3,0.3-1.7,0.7c-0.5,0.5-0.8,1.2-0.9,1.9L138.6,323.3z
	 M141.7,328.3v-1.5c0.7,0.6,1.7,0.9,2.6,0.9c1.3,0,1.9-0.4,1.9-1.3c0-0.2-0.1-0.4-0.2-0.6c-0.1-0.2-0.3-0.3-0.4-0.4
	c-0.2-0.1-0.4-0.3-0.7-0.3c-0.2-0.1-0.5-0.2-0.8-0.3c-0.4-0.1-0.7-0.3-1-0.5c-0.3-0.1-0.5-0.3-0.8-0.5c-0.2-0.2-0.4-0.4-0.5-0.7
	c-0.1-0.3-0.2-0.6-0.2-0.9c0-0.4,0.1-0.8,0.3-1.1c0.2-0.3,0.5-0.6,0.8-0.8c0.3-0.2,0.7-0.4,1.1-0.5c0.4-0.1,0.8-0.2,1.3-0.2
	c0.7,0,1.4,0.1,2.1,0.4v1.5c-0.7-0.4-1.5-0.7-2.3-0.6c-0.2,0-0.5,0-0.7,0.1c-0.2,0.1-0.4,0.1-0.6,0.3c-0.1,0.1-0.3,0.2-0.4,0.4
	c-0.1,0.2-0.1,0.3-0.1,0.5c0,0.2,0,0.4,0.1,0.6c0.1,0.2,0.2,0.3,0.4,0.4c0.2,0.1,0.4,0.2,0.6,0.3c0.2,0.1,0.5,0.2,0.8,0.3
	c0.4,0.1,0.7,0.3,1.1,0.5c0.3,0.1,0.6,0.3,0.8,0.5c0.2,0.2,0.4,0.4,0.5,0.7c0.1,0.3,0.2,0.6,0.2,0.9c0,0.4-0.1,0.8-0.3,1.2
	c-0.2,0.3-0.5,0.6-0.8,0.8c-0.3,0.2-0.7,0.4-1.1,0.5c-0.4,0.1-0.9,0.2-1.3,0.2C143.2,328.9,142.4,328.7,141.7,328.3z M153.6,328.9
	c-1.2,0.1-2.4-0.4-3.2-1.3c-0.8-0.9-1.2-2.1-1.2-3.3c-0.1-1.3,0.4-2.6,1.2-3.5c0.9-0.9,2.1-1.3,3.3-1.3c1.2-0.1,2.3,0.4,3.1,1.2
	c0.8,1,1.2,2.2,1.1,3.4c0.1,1.3-0.4,2.5-1.2,3.5C156,328.4,154.8,328.9,153.6,328.9z M153.7,320.6c-0.8,0-1.7,0.3-2.2,0.9
	c-0.6,0.7-0.9,1.7-0.8,2.6c-0.1,0.9,0.2,1.8,0.8,2.5c0.6,0.6,1.4,1,2.2,0.9c0.8,0,1.6-0.3,2.1-0.9c0.5-0.7,0.8-1.7,0.8-2.6
	c0.1-0.9-0.2-1.8-0.8-2.6C155.3,320.9,154.5,320.6,153.7,320.6z M172.4,328.2c-0.7,0.4-1.6,0.6-2.5,0.6c-1.2,0-2.3-0.4-3.1-1.3
	c-0.8-0.9-1.2-2.1-1.2-3.2c-0.1-1.3,0.4-2.6,1.3-3.6c0.9-0.9,2.1-1.4,3.4-1.3c0.7,0,1.4,0.1,2.1,0.4v1.5c-0.6-0.5-1.4-0.7-2.1-0.7
	c-0.9,0-1.7,0.3-2.3,1c-0.6,0.7-0.9,1.7-0.9,2.6c-0.1,0.9,0.2,1.8,0.8,2.5c0.6,0.6,1.4,0.9,2.2,0.9c0.8,0,1.6-0.3,2.2-0.8
	L172.4,328.2z M181,328.6h-1.4v-1.4h0c-0.5,1-1.6,1.7-2.8,1.6c-0.8,0-1.5-0.2-2.1-0.7c-0.5-0.5-0.8-1.2-0.8-1.9c0-1.7,1-2.7,3-2.9
	l2.7-0.4c0-1.5-0.6-2.3-1.9-2.3c-1.1,0-2.1,0.4-2.9,1.1v-1.5c0.9-0.6,2-0.9,3.1-0.8c2.1,0,3.2,1.1,3.2,3.4L181,328.6z M179.6,324.1
	l-2.2,0.3c-0.5,0-1.1,0.2-1.5,0.5c-0.4,0.3-0.6,0.8-0.5,1.3c0,0.4,0.2,0.8,0.5,1.1c0.4,0.3,0.8,0.4,1.3,0.4c0.7,0,1.3-0.3,1.8-0.8
	c0.5-0.5,0.7-1.2,0.7-1.9L179.6,324.1z"/>
<path id="Trazado_191441" class="st1" d="M187.5,321.1c-0.3-0.2-0.7-0.3-1.1-0.3c-0.6,0-1.2,0.3-1.5,0.9c-0.4,0.7-0.7,1.5-0.6,2.4
	v4.6h-1.4v-9h1.4v1.9h0c0.2-0.6,0.5-1.1,0.9-1.5c0.4-0.3,0.9-0.5,1.4-0.5c0.3,0,0.6,0,0.9,0.1L187.5,321.1z"/>
<path id="Trazado_191442" class="st1" d="M195,328.6h-1.4v-1.4h0c-0.5,1-1.6,1.7-2.8,1.6c-0.8,0-1.5-0.2-2.1-0.7
	c-0.5-0.5-0.8-1.2-0.8-1.9c0-1.7,1-2.7,3-2.9l2.7-0.4c0-1.5-0.6-2.3-1.9-2.3c-1.1,0-2.1,0.4-2.9,1.1v-1.5c0.9-0.6,2-0.9,3.1-0.8
	c2.1,0,3.2,1.1,3.2,3.4V328.6z M193.5,324.1l-2.2,0.3c-0.5,0-1.1,0.2-1.5,0.5c-0.4,0.3-0.6,0.8-0.5,1.3c0,0.4,0.2,0.8,0.5,1.1
	c0.3,0.3,0.8,0.4,1.3,0.4c0.7,0,1.3-0.3,1.8-0.8c0.5-0.5,0.7-1.2,0.7-1.9L193.5,324.1z M203.8,328.2c-0.7,0.4-1.6,0.6-2.5,0.6
	c-1.2,0-2.3-0.4-3.1-1.3c-0.8-0.9-1.2-2.1-1.2-3.2c-0.1-1.3,0.4-2.6,1.3-3.6c0.9-0.9,2.1-1.4,3.4-1.3c0.7,0,1.4,0.1,2.1,0.4v1.5
	c-0.6-0.5-1.4-0.7-2.1-0.7c-0.9,0-1.7,0.3-2.3,1c-0.6,0.7-0.9,1.7-0.9,2.6c-0.1,0.9,0.2,1.8,0.8,2.5c0.6,0.6,1.4,0.9,2.2,0.9
	c0.8,0,1.6-0.3,2.2-0.8V328.2z M210.2,328.6c-0.4,0.2-0.9,0.3-1.3,0.3c-1.6,0-2.4-0.9-2.4-2.6v-5.3h-1.5v-1.2h1.5v-2.2l1.4-0.5v2.7
	h2.3v1.2h-2.3v5.1c0,0.5,0.1,0.9,0.3,1.3c0.3,0.3,0.6,0.4,1,0.4c0.3,0,0.7-0.1,0.9-0.3L210.2,328.6z M219.3,324.5H213
	c0,0.8,0.3,1.7,0.8,2.3c0.6,0.6,1.3,0.9,2.1,0.8c1,0,2-0.4,2.8-1v1.4c-0.9,0.6-2,0.9-3.1,0.9c-1.1,0.1-2.2-0.4-3-1.2
	c-0.8-1-1.2-2.2-1.1-3.4c-0.1-1.3,0.4-2.5,1.2-3.4c0.7-0.9,1.8-1.3,3-1.3c1-0.1,2.1,0.4,2.7,1.1c0.7,0.9,1,2,1,3.2V324.5z
	 M217.9,323.3c0-0.7-0.2-1.4-0.6-1.9c-0.4-0.5-1-0.7-1.6-0.7c-0.7,0-1.3,0.3-1.7,0.7c-0.5,0.5-0.8,1.2-0.9,1.9L217.9,323.3z
	 M226.2,321.1c-0.3-0.2-0.7-0.3-1.1-0.3c-0.6,0-1.2,0.3-1.5,0.9c-0.4,0.7-0.7,1.5-0.6,2.4v4.6h-1.4v-9h1.4v1.9h0
	c0.2-0.6,0.5-1.1,0.9-1.5c0.4-0.3,0.9-0.5,1.4-0.5c0.3,0,0.6,0,0.9,0.1L226.2,321.1z M228.5,317.4c-0.2,0-0.5-0.1-0.7-0.3
	c-0.2-0.2-0.3-0.4-0.3-0.7c0-0.3,0.1-0.5,0.3-0.7c0.2-0.2,0.4-0.3,0.7-0.3c0.3,0,0.5,0.1,0.7,0.3c0.2,0.2,0.3,0.4,0.3,0.7
	c0,0.2-0.1,0.5-0.3,0.7C229,317.3,228.8,317.4,228.5,317.4L228.5,317.4z M229.2,328.6h-1.4v-9h1.4L229.2,328.6z M238.4,320.1
	l-5.3,7.4h5.3v1.2H231v-0.4l5.3-7.3h-4.8v-1.2h6.9V320.1z M246.7,328.6h-1.4v-1.4h0c-0.5,1-1.6,1.7-2.8,1.6c-0.8,0-1.5-0.2-2.1-0.7
	c-0.5-0.5-0.8-1.2-0.8-1.9c0-1.7,1-2.7,3-2.9l2.7-0.4c0-1.5-0.6-2.3-1.9-2.3c-1.1,0-2.1,0.4-2.9,1.1v-1.5c0.9-0.6,2-0.9,3.1-0.8
	c2.1,0,3.2,1.1,3.2,3.4V328.6z M245.3,324.1l-2.2,0.3c-0.5,0-1.1,0.2-1.5,0.5c-0.4,0.3-0.6,0.8-0.5,1.3c0,0.4,0.2,0.8,0.5,1.1
	c0.4,0.3,0.8,0.4,1.3,0.4c0.7,0,1.3-0.3,1.8-0.8c0.5-0.5,0.7-1.2,0.7-1.9V324.1z M260.8,328.6h-1.4v-1.4h0c-0.5,1-1.6,1.7-2.8,1.6
	c-0.8,0-1.5-0.2-2.1-0.7c-0.5-0.5-0.8-1.2-0.8-1.9c0-1.7,1-2.7,3-2.9l2.7-0.4c0-1.5-0.6-2.3-1.9-2.3c-1.1,0-2.1,0.4-2.9,1.1v-1.5
	c0.9-0.6,2-0.9,3.1-0.8c2.1,0,3.2,1.1,3.2,3.4L260.8,328.6z M259.4,324.1l-2.2,0.3c-0.5,0-1.1,0.2-1.5,0.5c-0.4,0.3-0.6,0.8-0.5,1.3
	c0,0.4,0.2,0.8,0.5,1.1c0.3,0.3,0.8,0.4,1.2,0.4c0.7,0,1.3-0.3,1.8-0.8c0.5-0.5,0.7-1.2,0.7-1.9L259.4,324.1z M269.9,328.6h-1.4
	v-13.3h1.4V328.6z M276.6,328.9c-1.2,0.1-2.4-0.4-3.2-1.3c-0.8-0.9-1.2-2.1-1.2-3.3c-0.1-1.3,0.4-2.6,1.2-3.5
	c0.9-0.9,2.1-1.3,3.3-1.3c1.2-0.1,2.3,0.4,3.1,1.2c0.8,1,1.2,2.2,1.1,3.4c0.1,1.3-0.4,2.5-1.2,3.5
	C279,328.4,277.8,328.9,276.6,328.9z M276.7,320.6c-0.8,0-1.7,0.3-2.2,0.9c-0.6,0.7-0.9,1.7-0.8,2.6c-0.1,0.9,0.2,1.8,0.8,2.5
	c0.6,0.6,1.4,1,2.2,0.9c0.8,0,1.6-0.3,2.1-0.9c0.5-0.7,0.8-1.7,0.8-2.6c0.1-0.9-0.2-1.8-0.8-2.6
	C278.3,320.9,277.5,320.6,276.7,320.6z M282.8,328.3v-1.5c0.7,0.6,1.7,0.9,2.6,0.9c1.3,0,1.9-0.4,1.9-1.3c0-0.2-0.1-0.4-0.2-0.6
	c-0.1-0.2-0.3-0.3-0.4-0.4c-0.2-0.1-0.4-0.3-0.6-0.3c-0.2-0.1-0.5-0.2-0.8-0.3c-0.4-0.1-0.7-0.3-1-0.5c-0.3-0.1-0.5-0.3-0.8-0.5
	c-0.2-0.2-0.4-0.4-0.5-0.7c-0.1-0.3-0.2-0.6-0.2-0.9c0-0.4,0.1-0.8,0.3-1.1c0.2-0.3,0.5-0.6,0.8-0.8c0.3-0.2,0.7-0.4,1.1-0.5
	c0.4-0.1,0.8-0.2,1.3-0.2c0.7,0,1.4,0.1,2.1,0.4v1.5c-0.7-0.4-1.5-0.7-2.3-0.6c-0.2,0-0.5,0-0.7,0.1c-0.2,0.1-0.4,0.1-0.6,0.3
	c-0.1,0.1-0.3,0.2-0.4,0.4c-0.1,0.2-0.1,0.3-0.1,0.5c0,0.2,0,0.4,0.1,0.6c0.1,0.2,0.2,0.3,0.4,0.4c0.2,0.1,0.4,0.2,0.6,0.3
	c0.2,0.1,0.5,0.2,0.8,0.3c0.4,0.1,0.7,0.3,1.1,0.5c0.3,0.1,0.6,0.3,0.8,0.5c0.2,0.2,0.4,0.4,0.5,0.7c0.1,0.3,0.2,0.6,0.2,0.9
	c0,0.4-0.1,0.8-0.3,1.2c-0.2,0.3-0.5,0.6-0.8,0.8c-0.3,0.2-0.7,0.4-1.1,0.5c-0.4,0.1-0.9,0.2-1.3,0.2
	C284.4,328.9,283.6,328.7,282.8,328.3z"/>
<path id="Trazado_191443" class="st1" d="M99.2,349.2L99.2,349.2l0,5.2h-2.8v-13.1h2.8v1.4h0c0.6-1,1.7-1.6,2.9-1.6
	c1-0.1,2,0.4,2.7,1.2c0.7,0.9,1,2.1,1,3.3c0.1,1.3-0.3,2.6-1.1,3.6c-0.7,0.9-1.8,1.4-3,1.4C100.7,350.5,99.7,350,99.2,349.2z
	 M99.1,345.5v0.7c0,0.5,0.2,1.1,0.5,1.5c0.3,0.4,0.8,0.6,1.3,0.6c0.6,0,1.1-0.3,1.5-0.7c0.4-0.6,0.6-1.3,0.5-2.1
	c0-1.6-0.6-2.4-1.8-2.4c-0.5,0-1.1,0.2-1.4,0.6C99.3,344.3,99.1,344.9,99.1,345.5z"/>
<path id="Trazado_191444" class="st1" d="M112.4,343.7c-0.4-0.2-0.8-0.3-1.2-0.3c-0.6,0-1.1,0.2-1.4,0.7c-0.4,0.5-0.5,1.2-0.5,1.8
	v4.3h-2.8v-9h2.8v1.7h0c0.3-1.1,1.3-1.8,2.4-1.8c0.2,0,0.5,0,0.7,0.1V343.7z"/>
<path id="Trazado_191445" class="st1" d="M117,350.5c-1.3,0.1-2.6-0.4-3.5-1.3c-0.9-0.9-1.4-2.2-1.3-3.4c-0.1-1.3,0.4-2.6,1.3-3.5
	c1-0.9,2.3-1.3,3.6-1.3c1.3-0.1,2.6,0.4,3.5,1.3c0.9,0.9,1.3,2.1,1.3,3.3c0.1,1.3-0.4,2.6-1.3,3.5
	C119.7,350.1,118.4,350.5,117,350.5z M117.1,343.1c-0.6,0-1.2,0.2-1.5,0.7c-0.4,0.6-0.6,1.2-0.5,1.9c0,1.7,0.7,2.6,2.1,2.6
	c1.3,0,2-0.9,2-2.7C119.1,344,118.5,343.1,117.1,343.1L117.1,343.1z"/>
<path id="Trazado_191446" class="st1" d="M131.4,341.2l-3.7,9.7c-0.9,2.3-2.2,3.5-4,3.5c-0.6,0-1.1-0.1-1.7-0.2V352
	c0.4,0.2,0.8,0.3,1.2,0.3c0.7,0,1.3-0.4,1.5-1l0.5-1.1l-3.7-9h3.1l1.7,5.5c0.1,0.4,0.2,0.8,0.2,1.2h0c0.1-0.4,0.2-0.8,0.3-1.2
	l1.7-5.5H131.4z"/>
<path id="Trazado_191447" class="st1" d="M139.8,346.5h-5.9c0.1,1.3,0.9,2,2.5,2c0.9,0,1.8-0.2,2.6-0.7v2c-1,0.5-2.1,0.7-3.2,0.7
	c-1.2,0.1-2.5-0.4-3.4-1.2c-0.8-0.9-1.3-2.1-1.2-3.4c-0.1-1.3,0.4-2.6,1.3-3.6c0.8-0.9,2-1.3,3.2-1.3c1.1-0.1,2.2,0.4,3,1.2
	c0.8,0.9,1.1,2,1.1,3.2V346.5z M137.2,344.8c0-1.3-0.5-1.9-1.6-1.9c-0.4,0-0.9,0.2-1.2,0.6c-0.3,0.4-0.5,0.9-0.6,1.4H137.2z
	 M148.3,349.9c-0.8,0.4-1.8,0.6-2.7,0.5c-1.2,0.1-2.5-0.4-3.4-1.3c-0.9-0.9-1.3-2-1.3-3.2c-0.1-1.3,0.4-2.7,1.4-3.6
	c1-0.9,2.3-1.4,3.7-1.3c0.8-0.1,1.6,0.1,2.3,0.4v2.4c-0.6-0.4-1.2-0.7-1.9-0.6c-0.7,0-1.4,0.2-1.9,0.7c-0.5,0.5-0.7,1.2-0.7,1.9
	c0,0.7,0.2,1.4,0.7,1.9c0.5,0.5,1.2,0.7,1.8,0.7c0.7,0,1.4-0.2,2-0.6L148.3,349.9z"/>
<path id="Trazado_191448" class="st1" d="M156.3,350.1c-0.6,0.3-1.2,0.4-1.9,0.3c-2,0-2.9-1-2.9-3v-4.1H150v-2h1.5v-1.9l2.8-0.8v2.7
	h2v2h-2v3.6c0,0.9,0.4,1.4,1.1,1.4c0.3,0,0.6-0.1,0.9-0.3V350.1z"/>
<path id="Trazado_191449" class="st1" d="M160.9,350.5c-1.3,0.1-2.6-0.4-3.5-1.3c-0.9-0.9-1.4-2.2-1.3-3.4c-0.1-1.3,0.4-2.6,1.3-3.5
	c1-0.9,2.3-1.3,3.6-1.3c1.3-0.1,2.6,0.4,3.5,1.3c0.9,0.9,1.3,2.1,1.3,3.3c0.1,1.3-0.4,2.6-1.3,3.5
	C163.6,350.1,162.3,350.5,160.9,350.5z M161,343.1c-0.6,0-1.2,0.2-1.5,0.7c-0.4,0.6-0.6,1.2-0.5,1.9c0,1.7,0.7,2.6,2.1,2.6
	c1.3,0,2-0.9,2-2.7C163,344,162.4,343.1,161,343.1L161,343.1z M167.1,350v-2.2c0.4,0.3,0.9,0.5,1.4,0.6c0.4,0.1,0.9,0.2,1.3,0.2
	c0.4,0,0.8-0.1,1.2-0.2c0.3-0.1,0.4-0.3,0.4-0.6c0-0.2-0.1-0.3-0.2-0.4c-0.1-0.1-0.3-0.2-0.5-0.3c-0.2-0.1-0.4-0.2-0.7-0.2
	c-0.2-0.1-0.5-0.1-0.7-0.2c-0.3-0.1-0.6-0.3-0.9-0.4c-0.3-0.1-0.5-0.3-0.7-0.5c-0.2-0.2-0.3-0.4-0.4-0.7c-0.1-0.3-0.2-0.6-0.1-1
	c0-0.5,0.1-0.9,0.3-1.3c0.2-0.4,0.5-0.7,0.9-0.9c0.4-0.2,0.8-0.4,1.3-0.5c0.5-0.1,1-0.2,1.5-0.2c0.4,0,0.8,0,1.2,0.1
	c0.4,0.1,0.8,0.2,1.2,0.3v2.1c-0.4-0.2-0.7-0.4-1.1-0.5c-0.4-0.1-0.8-0.2-1.2-0.2c-0.2,0-0.3,0-0.5,0c-0.1,0-0.3,0.1-0.4,0.1
	c-0.1,0.1-0.2,0.1-0.3,0.2c-0.1,0.1-0.1,0.2-0.1,0.3c0,0.2,0.1,0.3,0.2,0.4c0.1,0.1,0.3,0.2,0.4,0.3c0.2,0.1,0.4,0.2,0.6,0.2
	c0.2,0.1,0.4,0.1,0.6,0.2c0.3,0.1,0.7,0.3,1,0.4c0.3,0.1,0.5,0.3,0.8,0.5c0.2,0.2,0.4,0.4,0.5,0.7c0.1,0.3,0.2,0.6,0.2,1
	c0,0.5-0.1,1-0.3,1.4c-0.2,0.4-0.5,0.7-0.9,0.9c-0.4,0.2-0.9,0.4-1.3,0.5c-0.5,0.1-1,0.2-1.6,0.2C168.9,350.5,168,350.3,167.1,350z"
	/>
<path id="Trazado_191450" class="st1" d="M188,341.2l-4.1,10.4c-0.7,1.9-1.8,2.8-3.1,2.8c-0.3,0-0.6,0-0.9-0.1v-1.3
	c0.3,0.1,0.6,0.2,0.9,0.2c0.8,0,1.4-0.6,1.6-1.3l0.7-1.7l-3.5-9h1.6l2.4,6.9c0,0.1,0.1,0.3,0.2,0.7h0.1c0-0.1,0.1-0.4,0.2-0.7
	l2.6-6.9H188z M201.7,346.1h-6.4c0,0.8,0.3,1.7,0.8,2.3c0.6,0.6,1.3,0.9,2.1,0.8c1,0,2-0.4,2.8-1v1.4c-0.9,0.6-2,0.9-3.1,0.9
	c-1.1,0.1-2.2-0.4-3-1.2c-0.8-1-1.2-2.2-1.1-3.4c-0.1-1.3,0.4-2.5,1.2-3.4c0.7-0.9,1.8-1.3,3-1.3c1-0.1,2,0.4,2.7,1.1
	c0.7,0.9,1,2,1,3.2V346.1z M200.3,344.9c0-0.7-0.2-1.4-0.6-1.9c-0.4-0.5-1-0.7-1.6-0.7c-0.7,0-1.3,0.3-1.7,0.7
	c-0.5,0.5-0.8,1.2-0.9,1.9H200.3z M203.4,349.9v-1.5c0.7,0.6,1.7,0.9,2.6,0.9c1.3,0,1.9-0.4,1.9-1.3c0-0.2-0.1-0.4-0.2-0.6
	c-0.1-0.2-0.3-0.3-0.4-0.4c-0.2-0.1-0.4-0.3-0.7-0.3c-0.2-0.1-0.5-0.2-0.8-0.3c-0.4-0.1-0.7-0.3-1-0.5c-0.3-0.1-0.5-0.3-0.8-0.5
	c-0.2-0.2-0.4-0.4-0.5-0.7c-0.1-0.3-0.2-0.6-0.2-0.9c0-0.4,0.1-0.8,0.3-1.1c0.2-0.3,0.5-0.6,0.8-0.8c0.3-0.2,0.7-0.4,1.1-0.5
	c0.4-0.1,0.8-0.2,1.3-0.2c0.7,0,1.4,0.1,2.1,0.4v1.5c-0.7-0.4-1.5-0.7-2.3-0.6c-0.2,0-0.5,0-0.7,0.1c-0.2,0.1-0.4,0.1-0.6,0.3
	c-0.1,0.1-0.3,0.2-0.4,0.4c-0.1,0.2-0.1,0.3-0.1,0.5c0,0.2,0,0.4,0.1,0.6c0.1,0.2,0.2,0.3,0.4,0.4c0.2,0.1,0.4,0.2,0.6,0.3
	c0.2,0.1,0.5,0.2,0.8,0.3c0.4,0.1,0.7,0.3,1.1,0.5c0.3,0.1,0.6,0.3,0.8,0.5c0.2,0.2,0.4,0.4,0.5,0.7c0.1,0.3,0.2,0.6,0.2,0.9
	c0,0.4-0.1,0.8-0.3,1.2c-0.2,0.3-0.5,0.6-0.8,0.8c-0.3,0.2-0.7,0.4-1.1,0.5c-0.4,0.1-0.9,0.2-1.3,0.2
	C205,350.5,204.1,350.3,203.4,349.9z M222.9,350.2h-1.4v-1.4h0c-0.5,1-1.6,1.7-2.8,1.6c-0.8,0-1.5-0.2-2.1-0.7
	c-0.5-0.5-0.8-1.2-0.8-1.9c0-1.7,1-2.7,3-2.9l2.7-0.4c0-1.5-0.6-2.3-1.9-2.3c-1.1,0-2.1,0.4-2.9,1.1v-1.5c0.9-0.6,2-0.9,3.1-0.8
	c2.1,0,3.2,1.1,3.2,3.4L222.9,350.2z M221.5,345.7l-2.2,0.3c-0.5,0-1.1,0.2-1.5,0.5c-0.4,0.3-0.6,0.8-0.5,1.3c0,0.4,0.2,0.8,0.5,1.1
	c0.3,0.3,0.8,0.4,1.3,0.4c0.7,0,1.3-0.3,1.8-0.8c0.5-0.5,0.7-1.2,0.7-1.9L221.5,345.7z M243.4,350.2h-1.4v-5.2
	c0.1-0.8-0.1-1.5-0.5-2.2c-0.4-0.5-1-0.7-1.5-0.7c-0.6,0-1.2,0.3-1.6,0.8c-0.4,0.6-0.7,1.3-0.6,2v5.1h-1.4v-5.3c0-1.8-0.7-2.7-2-2.7
	c-0.6,0-1.2,0.3-1.6,0.8c-0.4,0.6-0.6,1.3-0.6,2.1v5.1h-1.4v-9h1.4v1.4h0c0.5-1,1.6-1.7,2.8-1.6c0.6,0,1.1,0.2,1.6,0.5
	c0.5,0.3,0.8,0.8,0.9,1.3c0.5-1.2,1.7-1.9,3-1.9c2,0,3,1.2,3,3.7V350.2z M253.3,346.1H247c0,0.8,0.3,1.7,0.8,2.3
	c0.6,0.6,1.3,0.9,2.1,0.8c1,0,2-0.4,2.8-1v1.4c-0.9,0.6-2,0.9-3.1,0.9c-1.1,0.1-2.2-0.4-3-1.2c-0.8-1-1.2-2.2-1.1-3.4
	c-0.1-1.3,0.4-2.5,1.2-3.4c0.7-0.9,1.8-1.3,3-1.3c1-0.1,2,0.4,2.7,1.1c0.7,0.9,1,2,1,3.2V346.1z M251.8,344.9c0-0.7-0.2-1.4-0.6-1.9
	c-0.4-0.5-1-0.7-1.6-0.7c-0.7,0-1.3,0.3-1.7,0.7c-0.5,0.5-0.8,1.2-0.9,1.9L251.8,344.9z M263,350.2h-1.4v-5.1c0-1.9-0.7-2.9-2.1-2.9
	c-0.7,0-1.3,0.3-1.8,0.8c-0.5,0.6-0.7,1.3-0.7,2.1v5.1h-1.4v-9h1.4v1.5h0c0.6-1.1,1.7-1.7,3-1.7c0.9-0.1,1.7,0.3,2.3,1
	c0.6,0.8,0.8,1.8,0.8,2.8V350.2z M273,350.2h-1.4v-1.4h0c-0.5,1-1.6,1.7-2.8,1.6c-2.1,0-3.2-1.3-3.2-3.8v-5.4h1.4v5.1
	c0,1.9,0.7,2.9,2.2,2.9c0.7,0,1.3-0.3,1.7-0.8c0.5-0.6,0.7-1.3,0.7-2v-5.2h1.4L273,350.2z M283.6,350.2h-1.4v-1.5h0
	c-0.6,1.1-1.8,1.8-3.1,1.7c-1,0-2-0.4-2.7-1.2c-0.7-0.9-1.1-2.1-1-3.3c-0.1-1.3,0.3-2.6,1.1-3.6c0.7-0.9,1.8-1.4,3-1.3
	c1.1-0.1,2.2,0.5,2.7,1.5h0v-5.6h1.4L283.6,350.2z M282.1,346.2v-1.3c0-0.7-0.2-1.4-0.7-1.8c-0.5-0.5-1.1-0.8-1.8-0.8
	c-0.8,0-1.6,0.3-2.1,1c-0.5,0.8-0.8,1.7-0.8,2.7c-0.1,0.9,0.2,1.7,0.7,2.5c0.5,0.6,1.2,0.9,1.9,0.9c0.8,0,1.5-0.3,2-0.9
	C281.9,347.8,282.1,347,282.1,346.2z M290.2,350.5c-1.2,0.1-2.4-0.4-3.2-1.3c-0.8-0.9-1.2-2.1-1.2-3.3c-0.1-1.3,0.4-2.6,1.2-3.5
	c0.9-0.9,2.1-1.3,3.3-1.3c1.2-0.1,2.3,0.4,3.1,1.2c0.8,1,1.2,2.2,1.1,3.4c0.1,1.3-0.4,2.5-1.2,3.5
	C292.6,350,291.5,350.5,290.2,350.5z M290.3,342.2c-0.8,0-1.7,0.3-2.2,0.9c-0.6,0.7-0.9,1.7-0.8,2.6c-0.1,0.9,0.2,1.8,0.8,2.5
	c0.6,0.6,1.4,1,2.2,0.9c0.8,0,1.6-0.3,2.1-0.9c0.5-0.7,0.8-1.7,0.8-2.6c0.1-0.9-0.2-1.8-0.8-2.6C292,342.5,291.2,342.2,290.3,342.2z
	"/>
<path id="Trazado_191451" class="st1" d="M306.1,342.7c-0.3-0.2-0.7-0.3-1.1-0.3c-0.6,0-1.2,0.3-1.5,0.9c-0.4,0.7-0.7,1.5-0.6,2.4
	v4.6h-1.4v-9h1.4v1.9h0c0.2-0.6,0.5-1.1,0.9-1.5c0.4-0.3,0.9-0.5,1.4-0.5c0.3,0,0.6,0,0.9,0.1L306.1,342.7z"/>
<path id="Trazado_191452" class="st1" d="M314.6,346.1h-6.4c0,0.8,0.3,1.7,0.8,2.3c0.6,0.6,1.3,0.9,2.1,0.8c1,0,2-0.4,2.8-1v1.4
	c-0.9,0.6-2,0.9-3.1,0.9c-1.1,0.1-2.2-0.4-3-1.2c-0.8-1-1.2-2.2-1.1-3.4c-0.1-1.3,0.4-2.5,1.2-3.4c0.7-0.9,1.8-1.3,3-1.3
	c1-0.1,2,0.4,2.7,1.1c0.7,0.9,1,2,1,3.2V346.1z M313.1,344.9c0-0.7-0.2-1.4-0.6-1.9c-0.4-0.5-1-0.7-1.6-0.7c-0.7,0-1.3,0.3-1.7,0.7
	c-0.5,0.5-0.8,1.2-0.9,1.9L313.1,344.9z M323.2,350.2h-1.4v-1.4h0c-0.5,1-1.6,1.7-2.8,1.6c-0.8,0-1.5-0.2-2.1-0.7
	c-0.5-0.5-0.8-1.2-0.8-1.9c0-1.7,1-2.7,3-2.9l2.7-0.4c0-1.5-0.6-2.3-1.9-2.3c-1.1,0-2.1,0.4-2.9,1.1v-1.5c0.9-0.6,2-0.9,3.1-0.8
	c2.1,0,3.2,1.1,3.2,3.4L323.2,350.2z M321.7,345.7l-2.2,0.3c-0.5,0-1.1,0.2-1.5,0.5c-0.4,0.3-0.6,0.8-0.5,1.3c0,0.4,0.2,0.8,0.5,1.1
	c0.4,0.3,0.8,0.4,1.2,0.4c0.7,0,1.3-0.3,1.8-0.8c0.5-0.5,0.7-1.2,0.7-1.9L321.7,345.7z M332,349.8c-0.7,0.4-1.6,0.6-2.5,0.6
	c-1.2,0-2.3-0.4-3.1-1.3c-0.8-0.9-1.2-2.1-1.2-3.2c-0.1-1.3,0.4-2.6,1.3-3.6c0.9-0.9,2.1-1.4,3.4-1.3c0.7,0,1.4,0.1,2.1,0.4v1.5
	c-0.6-0.5-1.4-0.7-2.1-0.7c-0.9,0-1.7,0.3-2.3,1c-0.6,0.7-0.9,1.7-0.9,2.6c-0.1,0.9,0.2,1.8,0.8,2.5c0.6,0.6,1.4,0.9,2.2,0.9
	c0.8,0,1.6-0.3,2.2-0.8V349.8z M338.4,350.2c-0.4,0.2-0.9,0.3-1.3,0.3c-1.6,0-2.4-0.9-2.4-2.6v-5.3h-1.5v-1.2h1.5V339l1.4-0.5v2.7
	h2.3v1.2h-2.3v5.1c0,0.5,0.1,0.9,0.3,1.3c0.3,0.3,0.6,0.4,1,0.4c0.3,0,0.7-0.1,0.9-0.3L338.4,350.2z M341.1,339
	c-0.2,0-0.5-0.1-0.7-0.3c-0.2-0.2-0.3-0.4-0.3-0.7c0-0.3,0.1-0.5,0.3-0.7c0.2-0.2,0.4-0.3,0.7-0.3c0.3,0,0.5,0.1,0.7,0.3
	c0.2,0.2,0.3,0.4,0.3,0.7c0,0.2-0.1,0.5-0.3,0.7C341.5,338.9,341.3,339,341.1,339L341.1,339z M341.8,350.2h-1.4v-9h1.4L341.8,350.2z
	"/>
<path id="Trazado_191453" class="st1" d="M353.4,341.2l-3.6,9h-1.4l-3.4-9h1.6l2.3,6.5c0.2,0.4,0.3,0.8,0.3,1.3h0
	c0.1-0.4,0.1-0.8,0.3-1.2l2.4-6.6H353.4z"/>
<path id="Trazado_191454" class="st1" d="M361.4,350.2h-1.4v-1.4h0c-0.5,1-1.6,1.7-2.8,1.6c-0.8,0-1.5-0.2-2.1-0.7
	c-0.5-0.5-0.8-1.2-0.8-1.9c0-1.7,1-2.7,3-2.9l2.7-0.4c0-1.5-0.6-2.3-1.9-2.3c-1.1,0-2.1,0.4-2.9,1.1v-1.5c0.9-0.6,2-0.9,3.1-0.8
	c2.1,0,3.2,1.1,3.2,3.4V350.2z M359.9,345.7l-2.2,0.3c-0.5,0-1.1,0.2-1.5,0.5c-0.4,0.3-0.6,0.8-0.5,1.3c0,0.4,0.2,0.8,0.5,1.1
	c0.3,0.3,0.8,0.4,1.3,0.4c0.7,0,1.3-0.3,1.8-0.8c0.5-0.5,0.7-1.2,0.7-1.9L359.9,345.7z"/>
<path id="Trazado_191404" class="st1" d="M98.3,410.2v4.8h-1.5v-12.6h3.5c1.1-0.1,2.2,0.3,3.1,1c0.8,0.7,1.2,1.7,1.1,2.8
	c0,1.1-0.4,2.2-1.2,2.9c-0.9,0.8-2.1,1.2-3.3,1.1H98.3z M98.3,403.7v5.2h1.5c0.8,0.1,1.7-0.2,2.3-0.7c0.6-0.5,0.8-1.2,0.8-2
	c0-1.7-1-2.5-3-2.5L98.3,403.7z M111.4,407.5c-0.3-0.2-0.7-0.3-1.1-0.3c-0.6,0-1.2,0.3-1.5,0.9c-0.4,0.7-0.7,1.5-0.6,2.4v4.6h-1.4
	v-9h1.4v1.9h0c0.2-0.6,0.5-1.1,0.9-1.5c0.4-0.3,0.9-0.5,1.4-0.5c0.3,0,0.6,0,0.9,0.1L111.4,407.5z M116.6,415.2
	c-1.2,0.1-2.4-0.4-3.2-1.3c-0.8-0.9-1.3-2.1-1.2-3.3c-0.1-1.3,0.4-2.6,1.2-3.5c0.9-0.9,2.1-1.3,3.3-1.3c1.2-0.1,2.3,0.4,3.1,1.2
	c0.8,1,1.2,2.2,1.1,3.4c0.1,1.3-0.4,2.5-1.2,3.5C119,414.8,117.8,415.3,116.6,415.2z M116.7,407c-0.8,0-1.7,0.3-2.2,0.9
	c-0.6,0.7-0.9,1.7-0.8,2.6c0,0.9,0.2,1.8,0.8,2.5c0.6,0.6,1.4,1,2.2,0.9c0.8,0,1.6-0.3,2.1-0.9c0.5-0.7,0.8-1.7,0.8-2.6
	c0.1-0.9-0.2-1.8-0.8-2.6C118.3,407.3,117.5,407,116.7,407z M129.5,414.6c-0.7,0.4-1.6,0.6-2.5,0.6c-1.2,0-2.3-0.4-3.1-1.3
	c-0.8-0.9-1.2-2.1-1.2-3.2c-0.1-1.3,0.4-2.6,1.3-3.6c0.9-0.9,2.1-1.4,3.4-1.3c0.7,0,1.4,0.1,2.1,0.4v1.5c-0.6-0.5-1.4-0.7-2.1-0.7
	c-0.9,0-1.7,0.3-2.3,1c-0.6,0.7-0.9,1.7-0.9,2.6c-0.1,0.9,0.2,1.8,0.8,2.5c0.6,0.6,1.4,0.9,2.2,0.9c0.8,0,1.6-0.3,2.2-0.8V414.6z
	 M138.9,410.9h-6.4c0,0.8,0.3,1.7,0.8,2.3c0.6,0.6,1.3,0.9,2.1,0.8c1,0,2-0.4,2.8-1v1.4c-0.9,0.6-2,0.9-3.1,0.9
	c-1.1,0.1-2.2-0.4-3-1.2c-0.8-1-1.2-2.2-1.1-3.4c-0.1-1.3,0.4-2.5,1.2-3.4c0.7-0.9,1.8-1.3,3-1.3c1-0.1,2,0.4,2.7,1.1
	c0.7,0.9,1,2,1,3.2V410.9z M137.4,409.6c0-0.7-0.2-1.4-0.6-1.9c-0.4-0.5-1-0.7-1.7-0.7c-0.7,0-1.3,0.3-1.7,0.7
	c-0.5,0.5-0.8,1.2-0.9,1.9L137.4,409.6z M140.6,414.7v-1.5c0.7,0.6,1.7,0.9,2.6,0.9c1.3,0,1.9-0.4,1.9-1.3c0-0.2-0.1-0.4-0.2-0.6
	c-0.1-0.2-0.3-0.3-0.4-0.4c-0.2-0.1-0.4-0.3-0.7-0.3c-0.2-0.1-0.5-0.2-0.8-0.3c-0.4-0.1-0.7-0.3-1-0.5c-0.3-0.1-0.5-0.3-0.8-0.5
	c-0.2-0.2-0.4-0.4-0.5-0.7c-0.1-0.3-0.2-0.6-0.2-0.9c0-0.4,0.1-0.8,0.3-1.1c0.2-0.3,0.5-0.6,0.8-0.8c0.3-0.2,0.7-0.4,1.1-0.5
	c0.4-0.1,0.8-0.2,1.3-0.2c0.7,0,1.4,0.1,2.1,0.4v1.5c-0.7-0.4-1.5-0.7-2.3-0.6c-0.2,0-0.5,0-0.7,0.1c-0.2,0.1-0.4,0.1-0.6,0.3
	c-0.1,0.1-0.3,0.2-0.4,0.4c-0.1,0.2-0.1,0.3-0.1,0.5c0,0.2,0,0.4,0.1,0.6c0.1,0.2,0.2,0.3,0.4,0.4c0.2,0.1,0.4,0.2,0.6,0.3
	c0.2,0.1,0.5,0.2,0.8,0.3c0.4,0.1,0.7,0.3,1.1,0.5c0.3,0.1,0.6,0.3,0.8,0.5c0.2,0.2,0.4,0.4,0.5,0.7c0.1,0.3,0.2,0.6,0.2,0.9
	c0,0.4-0.1,0.8-0.3,1.2c-0.2,0.3-0.5,0.6-0.8,0.8c-0.3,0.2-0.7,0.4-1.1,0.5c-0.4,0.1-0.9,0.2-1.3,0.2
	C142.1,415.2,141.3,415.1,140.6,414.7z M152.5,415.2c-1.2,0.1-2.4-0.4-3.2-1.3c-0.8-0.9-1.2-2.1-1.2-3.3c-0.1-1.3,0.4-2.6,1.2-3.5
	c0.9-0.9,2.1-1.3,3.3-1.3c1.2-0.1,2.3,0.4,3.1,1.2c0.8,1,1.2,2.2,1.1,3.4c0.1,1.3-0.4,2.5-1.2,3.5
	C154.9,414.8,153.7,415.3,152.5,415.2z M152.6,407c-0.8,0-1.7,0.3-2.2,0.9c-0.6,0.7-0.9,1.7-0.8,2.6c-0.1,0.9,0.2,1.8,0.8,2.5
	c0.6,0.6,1.4,1,2.2,0.9c0.8,0,1.6-0.3,2.1-0.9c0.5-0.7,0.8-1.7,0.8-2.6c0.1-0.9-0.2-1.8-0.8-2.6C154.2,407.3,153.4,407,152.6,407z
	 M165,403.7c-0.2,0-0.5-0.1-0.7-0.3c-0.2-0.2-0.3-0.4-0.3-0.7c0-0.3,0.1-0.5,0.3-0.7c0.2-0.2,0.4-0.3,0.7-0.3c0.3,0,0.5,0.1,0.7,0.3
	c0.2,0.2,0.3,0.4,0.3,0.7c0,0.2-0.1,0.5-0.3,0.7C165.5,403.6,165.2,403.7,165,403.7L165,403.7z M165.7,415h-1.4v-9h1.4L165.7,415z
	 M181.4,415h-1.4v-5.2c0.1-0.8-0.1-1.5-0.5-2.2c-0.4-0.5-1-0.7-1.5-0.7c-0.6,0-1.2,0.3-1.6,0.8c-0.4,0.6-0.7,1.3-0.6,2v5.1h-1.4
	v-5.3c0-1.8-0.7-2.7-2-2.7c-0.6,0-1.2,0.3-1.6,0.8c-0.4,0.6-0.6,1.3-0.6,2.1v5.1h-1.4v-9h1.4v1.4h0c0.5-1,1.6-1.7,2.8-1.6
	c0.6,0,1.1,0.2,1.6,0.5c0.5,0.3,0.8,0.8,0.9,1.3c0.5-1.2,1.7-1.9,3-1.9c2,0,3,1.2,3,3.7L181.4,415z M185.6,413.7L185.6,413.7l0,5.4
	h-1.4V406h1.4v1.6h0c0.6-1.1,1.8-1.8,3.1-1.8c1-0.1,2.1,0.4,2.7,1.2c0.7,0.9,1,2.1,1,3.2c0.1,1.3-0.3,2.6-1.1,3.6
	c-0.7,0.9-1.8,1.4-3,1.4C187.1,415.3,186.1,414.7,185.6,413.7L185.6,413.7z M185.5,410.1v1.3c0,0.7,0.2,1.4,0.7,1.9
	c0.5,0.5,1.1,0.8,1.8,0.8c0.8,0,1.6-0.3,2.1-1c0.5-0.8,0.8-1.8,0.7-2.8c0-0.8-0.2-1.7-0.7-2.4c-0.5-0.6-1.2-0.9-1.9-0.9
	c-0.8,0-1.5,0.3-2,0.9C185.8,408.5,185.5,409.3,185.5,410.1L185.5,410.1z M199.4,407.5c-0.3-0.2-0.7-0.3-1.1-0.3
	c-0.6,0-1.2,0.3-1.5,0.9c-0.4,0.7-0.7,1.5-0.6,2.4v4.6h-1.4v-9h1.4v1.9h0c0.2-0.6,0.5-1.1,0.9-1.5c0.4-0.3,0.9-0.5,1.4-0.5
	c0.3,0,0.6,0,0.9,0.1L199.4,407.5z M208,410.9h-6.4c0,0.8,0.3,1.7,0.8,2.3c0.6,0.6,1.3,0.9,2.1,0.8c1,0,2-0.4,2.8-1v1.4
	c-0.9,0.6-2,0.9-3.1,0.9c-1.1,0.1-2.2-0.4-3-1.2c-0.8-1-1.2-2.2-1.1-3.4c-0.1-1.3,0.4-2.5,1.2-3.4c0.7-0.9,1.8-1.3,3-1.3
	c1-0.1,2.1,0.4,2.7,1.1c0.7,0.9,1,2,1,3.2L208,410.9z M206.5,409.6c0-0.7-0.2-1.4-0.6-1.9c-0.4-0.5-1-0.7-1.7-0.7
	c-0.7,0-1.3,0.3-1.7,0.7c-0.5,0.5-0.8,1.2-0.9,1.9L206.5,409.6z M217.8,415h-1.4v-1.5h0c-0.6,1.1-1.8,1.8-3.1,1.7
	c-1,0-2-0.4-2.7-1.2c-0.7-0.9-1.1-2.1-1-3.3c-0.1-1.3,0.3-2.6,1.1-3.6c0.7-0.9,1.8-1.4,3-1.3c1.1-0.1,2.2,0.5,2.7,1.5h0v-5.6h1.4
	L217.8,415z M216.4,410.9v-1.3c0-0.7-0.2-1.4-0.7-1.8c-0.5-0.5-1.1-0.8-1.8-0.8c-0.8,0-1.6,0.3-2.1,1c-0.5,0.8-0.8,1.7-0.8,2.7
	c-0.1,0.9,0.2,1.7,0.7,2.5c0.5,0.6,1.2,0.9,1.9,0.9c0.8,0,1.5-0.3,2-0.9C216.2,412.5,216.4,411.7,216.4,410.9z M228,410.9h-6.4
	c0,0.8,0.3,1.7,0.8,2.3c0.6,0.6,1.3,0.9,2.1,0.8c1,0,2-0.4,2.8-1v1.4c-0.9,0.6-2,0.9-3.1,0.9c-1.1,0.1-2.2-0.4-3-1.2
	c-0.8-1-1.2-2.2-1.1-3.4c-0.1-1.3,0.4-2.5,1.2-3.4c0.7-0.9,1.8-1.3,3-1.3c1-0.1,2,0.4,2.7,1.1c0.7,0.9,1,2,1,3.2L228,410.9z
	 M226.5,409.6c0-0.7-0.2-1.4-0.6-1.9c-0.4-0.5-1-0.7-1.6-0.7c-0.7,0-1.3,0.3-1.7,0.7c-0.5,0.5-0.8,1.2-0.9,1.9L226.5,409.6z
	 M236.3,414.6c-0.7,0.4-1.6,0.6-2.5,0.6c-1.2,0-2.3-0.4-3.1-1.3c-0.8-0.9-1.2-2.1-1.2-3.2c-0.1-1.3,0.4-2.6,1.3-3.6
	c0.9-0.9,2.1-1.4,3.4-1.3c0.7,0,1.4,0.1,2.1,0.4v1.5c-0.6-0.5-1.4-0.7-2.1-0.7c-0.9,0-1.7,0.3-2.3,1c-0.6,0.7-0.9,1.7-0.9,2.6
	c-0.1,0.9,0.2,1.8,0.8,2.5c0.6,0.6,1.4,0.9,2.2,0.9c0.8,0,1.6-0.3,2.2-0.8V414.6z M239.2,403.7c-0.2,0-0.5-0.1-0.7-0.3
	c-0.2-0.2-0.3-0.4-0.3-0.7c0-0.3,0.1-0.5,0.3-0.7c0.2-0.2,0.4-0.3,0.7-0.3c0.3,0,0.5,0.1,0.7,0.3c0.2,0.2,0.3,0.4,0.3,0.7
	c0,0.2-0.1,0.5-0.3,0.7C239.7,403.6,239.5,403.7,239.2,403.7z M239.9,415h-1.4v-9h1.4V415z M244.3,413.7L244.3,413.7l0,1.3h-1.4
	v-13.3h1.4v5.9h0c0.6-1.1,1.8-1.8,3.1-1.8c1,0,2.1,0.4,2.7,1.2c0.7,0.9,1,2.1,1,3.2c0.1,1.3-0.3,2.6-1.1,3.6c-0.7,0.9-1.8,1.4-3,1.4
	C245.9,415.3,244.9,414.7,244.3,413.7L244.3,413.7z M244.3,410.1v1.3c0,0.7,0.2,1.4,0.7,1.9c0.5,0.5,1.1,0.8,1.8,0.8
	c0.8,0,1.6-0.3,2.1-1c0.5-0.8,0.8-1.8,0.7-2.8c0-0.8-0.2-1.7-0.7-2.4c-0.5-0.6-1.2-0.9-1.9-0.9c-0.8,0-1.5,0.3-2,0.9
	C244.5,408.5,244.3,409.3,244.3,410.1L244.3,410.1z M254.9,415h-1.4v-13.3h1.4V415z M265,410.9h-6.4c0,0.8,0.3,1.7,0.8,2.3
	c0.6,0.6,1.3,0.9,2.1,0.8c1,0,2-0.4,2.8-1v1.4c-0.9,0.6-2,0.9-3.1,0.9c-1.1,0.1-2.2-0.4-3-1.2c-0.8-1-1.2-2.2-1.1-3.4
	c-0.1-1.3,0.4-2.5,1.2-3.4c0.7-0.9,1.8-1.3,3-1.3c1-0.1,2,0.4,2.7,1.1c0.7,0.9,1,2,1,3.2L265,410.9z M263.5,409.6
	c0-0.7-0.2-1.4-0.6-1.9c-0.4-0.5-1-0.7-1.6-0.7c-0.7,0-1.3,0.3-1.7,0.7c-0.5,0.5-0.8,1.2-0.9,1.9L263.5,409.6z M268.5,413l-1.4,4.3
	h-1l1-4.3H268.5z M288.8,415h-1.4v-5.2c0.1-0.8-0.1-1.5-0.5-2.2c-0.4-0.5-1-0.7-1.6-0.7c-0.6,0-1.2,0.3-1.6,0.8
	c-0.4,0.6-0.7,1.3-0.6,2v5.1h-1.4v-5.3c0-1.8-0.7-2.7-2-2.7c-0.6,0-1.2,0.3-1.6,0.8c-0.4,0.6-0.6,1.3-0.6,2.1v5.1H276v-9h1.4v1.4h0
	c0.5-1,1.6-1.7,2.8-1.6c0.6,0,1.1,0.2,1.6,0.5c0.5,0.3,0.8,0.8,0.9,1.3c0.5-1.2,1.7-1.9,3-1.9c2,0,3,1.2,3,3.7L288.8,415z M298,415
	h-1.4v-1.4h0c-0.5,1-1.6,1.7-2.8,1.6c-0.8,0-1.5-0.2-2.1-0.7c-0.5-0.5-0.8-1.2-0.8-1.9c0-1.7,1-2.7,3-2.9l2.7-0.4
	c0-1.5-0.6-2.3-1.9-2.3c-1.1,0-2.1,0.4-2.9,1.1v-1.5c0.9-0.6,2-0.9,3.1-0.8c2.1,0,3.2,1.1,3.2,3.4L298,415z M296.5,410.5l-2.2,0.3
	c-0.5,0-1.1,0.2-1.5,0.5c-0.4,0.3-0.6,0.8-0.5,1.3c0,0.4,0.2,0.8,0.5,1.1c0.4,0.3,0.8,0.4,1.2,0.4c0.7,0,1.3-0.3,1.8-0.8
	c0.5-0.5,0.7-1.2,0.7-1.9L296.5,410.5z M302.1,415h-1.4v-13.3h1.4V415z M102.8,436.2c-0.7,0.4-1.6,0.6-2.5,0.6
	c-1.2,0-2.3-0.4-3.1-1.3c-0.8-0.9-1.2-2.1-1.2-3.2c-0.1-1.3,0.4-2.6,1.3-3.6c0.9-0.9,2.1-1.4,3.4-1.3c0.7,0,1.4,0.1,2.1,0.4v1.5
	c-0.6-0.5-1.4-0.7-2.1-0.7c-0.9,0-1.7,0.3-2.3,1c-0.6,0.7-0.9,1.7-0.9,2.6c-0.1,0.9,0.2,1.8,0.8,2.5c0.6,0.6,1.4,1,2.2,0.9
	c0.8,0,1.6-0.3,2.2-0.8L102.8,436.2z M108.7,436.8c-1.2,0.1-2.4-0.4-3.2-1.3c-0.8-0.9-1.2-2.1-1.2-3.3c-0.1-1.3,0.4-2.6,1.2-3.5
	c0.9-0.9,2.1-1.3,3.3-1.3c1.2-0.1,2.3,0.4,3.1,1.2c0.8,1,1.2,2.2,1.1,3.4c0.1,1.3-0.4,2.5-1.2,3.5
	C111.2,436.4,110,436.9,108.7,436.8z M108.8,428.6c-0.8,0-1.7,0.3-2.2,0.9c-0.6,0.7-0.9,1.7-0.8,2.6c-0.1,0.9,0.2,1.8,0.8,2.5
	c0.6,0.6,1.4,1,2.2,0.9c0.8,0,1.6-0.3,2.1-0.9c0.5-0.7,0.8-1.7,0.8-2.6c0.1-0.9-0.2-1.8-0.8-2.6
	C110.5,428.9,109.7,428.6,108.8,428.6L108.8,428.6z M123,436.6h-1.4v-5.1c0-1.9-0.7-2.9-2.1-2.9c-0.7,0-1.3,0.3-1.8,0.8
	c-0.5,0.6-0.7,1.3-0.7,2.1v5.1h-1.4v-9h1.4v1.5h0c0.6-1.1,1.7-1.7,3-1.7c0.9-0.1,1.7,0.3,2.3,1c0.6,0.8,0.8,1.8,0.8,2.8L123,436.6z
	 M129.9,436.5c-0.4,0.2-0.9,0.3-1.3,0.3c-1.6,0-2.4-0.9-2.4-2.6v-5.3h-1.5v-1.2h1.5v-2.2l1.4-0.5v2.7h2.3v1.2h-2.3v5.1
	c0,0.5,0.1,0.9,0.3,1.3c0.3,0.3,0.6,0.4,1,0.4c0.3,0,0.7-0.1,0.9-0.3L129.9,436.5z M136.5,429.1c-0.3-0.2-0.7-0.3-1.1-0.3
	c-0.6,0-1.2,0.3-1.5,0.9c-0.4,0.7-0.7,1.5-0.6,2.4v4.6h-1.4v-9h1.4v1.9h0c0.2-0.6,0.5-1.1,0.9-1.5c0.4-0.3,0.9-0.5,1.4-0.5
	c0.3,0,0.6,0,0.9,0.1L136.5,429.1z M141.7,436.8c-1.2,0.1-2.4-0.4-3.2-1.3c-0.8-0.9-1.2-2.1-1.2-3.3c-0.1-1.3,0.4-2.6,1.2-3.5
	c0.9-0.9,2.1-1.3,3.3-1.3c1.2-0.1,2.3,0.4,3.1,1.2c0.8,1,1.2,2.2,1.1,3.4c0.1,1.3-0.4,2.5-1.2,3.5
	C144.1,436.4,142.9,436.9,141.7,436.8z M141.8,428.6c-0.8,0-1.7,0.3-2.2,0.9c-0.6,0.7-0.9,1.7-0.8,2.6c-0.1,0.9,0.2,1.8,0.8,2.5
	c0.6,0.6,1.4,1,2.2,0.9c0.8,0,1.6-0.3,2.1-0.9c0.5-0.7,0.8-1.7,0.8-2.6c0.1-0.9-0.2-1.8-0.8-2.6
	C143.4,428.9,142.6,428.6,141.8,428.6L141.8,428.6z M149.9,436.6h-1.4v-13.3h1.4V436.6z M159.2,436.6h-1.4v-1.4h0
	c-0.5,1-1.6,1.7-2.8,1.6c-0.8,0-1.5-0.2-2.1-0.7c-0.5-0.5-0.8-1.2-0.8-1.9c0-1.7,1-2.7,3-2.9l2.7-0.4c0-1.5-0.6-2.3-1.9-2.3
	c-1.1,0-2.1,0.4-2.9,1.1v-1.5c0.9-0.6,2-0.9,3.1-0.8c2.1,0,3.2,1.1,3.2,3.4V436.6z M157.8,432.1l-2.2,0.3c-0.5,0-1.1,0.2-1.5,0.5
	c-0.4,0.3-0.6,0.8-0.5,1.3c0,0.4,0.2,0.8,0.5,1.1c0.4,0.3,0.8,0.4,1.3,0.4c0.7,0,1.3-0.3,1.8-0.8c0.5-0.5,0.7-1.2,0.7-1.9
	L157.8,432.1z M169.6,436.6h-1.4v-1.5h0c-0.6,1.1-1.8,1.8-3.1,1.7c-1,0-2-0.4-2.7-1.2c-0.7-0.9-1.1-2.1-1-3.3
	c-0.1-1.3,0.3-2.6,1.1-3.6c0.7-0.9,1.8-1.4,3-1.3c1.1-0.1,2.2,0.5,2.7,1.5h0v-5.6h1.4V436.6z M168.2,432.5v-1.3
	c0-0.7-0.2-1.4-0.7-1.8c-0.5-0.5-1.1-0.8-1.8-0.8c-0.8,0-1.6,0.3-2.1,1c-0.5,0.8-0.8,1.7-0.8,2.7c0,0.9,0.2,1.7,0.7,2.5
	c0.5,0.6,1.2,0.9,1.9,0.9c0.8,0,1.5-0.3,2-0.9C168,434.1,168.2,433.3,168.2,432.5z M179,436.6h-1.4v-1.4h0c-0.5,1-1.6,1.7-2.8,1.6
	c-0.8,0-1.5-0.2-2.1-0.7c-0.5-0.5-0.8-1.2-0.8-1.9c0-1.7,1-2.7,3-2.9l2.7-0.4c0-1.5-0.6-2.3-1.9-2.3c-1.1,0-2.1,0.4-2.9,1.1v-1.5
	c0.9-0.6,2-0.9,3.1-0.8c2.1,0,3.2,1.1,3.2,3.4L179,436.6z M177.6,432.1l-2.2,0.3c-0.5,0-1.1,0.2-1.5,0.5c-0.4,0.3-0.6,0.8-0.5,1.3
	c0,0.4,0.2,0.8,0.5,1.1c0.4,0.3,0.8,0.4,1.3,0.4c0.7,0,1.3-0.3,1.8-0.8c0.5-0.5,0.7-1.2,0.7-1.9V432.1z M183,434.6l-1.4,4.3h-1
	l1-4.3H183z M197.7,427.6l-4.1,10.4c-0.7,1.9-1.8,2.8-3.1,2.8c-0.3,0-0.6,0-0.9-0.1v-1.3c0.3,0.1,0.6,0.2,0.9,0.2
	c0.8,0,1.4-0.6,1.6-1.3l0.7-1.7l-3.5-9h1.6l2.4,6.9c0,0.1,0.1,0.3,0.2,0.7h0.1c0-0.1,0.1-0.4,0.2-0.7l2.6-6.9L197.7,427.6z
	 M208.9,429.1c-0.3-0.2-0.7-0.3-1.1-0.3c-0.6,0-1.2,0.3-1.5,0.9c-0.4,0.7-0.7,1.5-0.6,2.4v4.6h-1.4v-9h1.4v1.9h0
	c0.2-0.6,0.5-1.1,0.9-1.5c0.4-0.3,0.9-0.5,1.4-0.5c0.3,0,0.6,0,0.9,0.1L208.9,429.1z M217.5,432.5h-6.4c0,0.8,0.3,1.7,0.8,2.3
	c0.6,0.6,1.3,0.9,2.1,0.8c1,0,2-0.4,2.8-1v1.4c-0.9,0.6-2,0.9-3.1,0.9c-1.1,0.1-2.2-0.4-3-1.2c-0.8-1-1.2-2.2-1.1-3.4
	c-0.1-1.3,0.4-2.5,1.2-3.4c0.7-0.9,1.8-1.3,3-1.3c1-0.1,2,0.4,2.7,1.1c0.7,0.9,1,2,1,3.2L217.5,432.5z M216,431.2
	c0-0.7-0.2-1.4-0.6-1.9c-0.4-0.5-1-0.7-1.6-0.7c-0.7,0-1.3,0.3-1.7,0.7c-0.5,0.5-0.8,1.2-0.9,1.9H216z M226.1,436.6h-1.4v-1.4h0
	c-0.5,1-1.6,1.7-2.8,1.6c-0.8,0-1.5-0.2-2.1-0.7c-0.5-0.5-0.8-1.2-0.8-1.9c0-1.7,1-2.7,3-2.9l2.7-0.4c0-1.5-0.6-2.3-1.9-2.3
	c-1.1,0-2.1,0.4-2.9,1.1v-1.5c0.9-0.6,2-0.9,3.1-0.8c2.1,0,3.2,1.1,3.2,3.4L226.1,436.6z M224.7,432.1l-2.2,0.3
	c-0.5,0-1.1,0.2-1.5,0.5c-0.4,0.3-0.6,0.8-0.5,1.3c0,0.4,0.2,0.8,0.5,1.1c0.3,0.3,0.8,0.4,1.2,0.4c0.7,0,1.3-0.3,1.8-0.8
	c0.5-0.5,0.7-1.2,0.7-1.9L224.7,432.1z M235,436.2c-0.7,0.4-1.6,0.6-2.5,0.6c-1.2,0-2.3-0.4-3.1-1.3c-0.8-0.9-1.2-2.1-1.2-3.2
	c-0.1-1.3,0.4-2.6,1.3-3.6c0.9-0.9,2.1-1.4,3.4-1.3c0.7,0,1.4,0.1,2.1,0.4v1.5c-0.6-0.5-1.4-0.7-2.1-0.7c-0.9,0-1.7,0.3-2.3,1
	c-0.6,0.7-0.9,1.7-0.9,2.6c-0.1,0.9,0.2,1.8,0.8,2.5c0.6,0.6,1.4,1,2.2,0.9c0.8,0,1.6-0.3,2.2-0.8L235,436.2z M241.3,436.5
	c-0.4,0.2-0.9,0.3-1.3,0.3c-1.6,0-2.4-0.9-2.4-2.6v-5.3h-1.5v-1.2h1.5v-2.2l1.4-0.5v2.7h2.3v1.2h-2.3v5.1c0,0.5,0.1,0.9,0.3,1.3
	c0.3,0.3,0.6,0.4,1,0.4c0.3,0,0.7-0.1,0.9-0.3V436.5z M244,425.3c-0.2,0-0.5-0.1-0.7-0.3c-0.2-0.2-0.3-0.4-0.3-0.7
	c0-0.5,0.4-0.9,0.9-0.9c0,0,0,0,0,0c0.3,0,0.5,0.1,0.7,0.3c0.4,0.4,0.4,1,0,1.3c0,0,0,0,0,0C244.5,425.2,244.2,425.3,244,425.3
	L244,425.3z M244.7,436.6h-1.4v-9h1.4V436.6z M254.7,427.6l-3.6,9h-1.4l-3.4-9h1.6l2.3,6.5c0.2,0.4,0.3,0.8,0.3,1.3h0
	c0.1-0.4,0.1-0.8,0.3-1.2l2.4-6.6H254.7z M262.5,436.6h-1.4v-1.4h0c-0.5,1-1.6,1.7-2.8,1.6c-0.8,0-1.5-0.2-2.1-0.7
	c-0.5-0.5-0.8-1.2-0.8-1.9c0-1.7,1-2.7,3-2.9l2.7-0.4c0-1.5-0.6-2.3-1.9-2.3c-1.1,0-2.1,0.4-2.9,1.1v-1.5c0.9-0.6,2-0.9,3.1-0.8
	c2.1,0,3.2,1.1,3.2,3.4L262.5,436.6z M261.1,432.1l-2.2,0.3c-0.5,0-1.1,0.2-1.5,0.5c-0.4,0.3-0.6,0.8-0.5,1.3c0,0.4,0.2,0.8,0.5,1.1
	c0.4,0.3,0.8,0.4,1.3,0.4c0.7,0,1.3-0.3,1.8-0.8c0.5-0.5,0.7-1.2,0.7-1.9V432.1z"/>
<path id="Trazado_191405" class="st2" d="M396.1,383.8h604.5v87.4H396.1V383.8z"/>
<path id="Trazado_191406" class="st3" d="M525.1,298.4h475.5v87.4H525.1V298.4z"/>
<path id="Trazado_191407" class="st4" d="M632.4,213h368.2v87.4H632.4V213z"/>
<path id="Trazado_191408" class="st5" d="M745.6,127.6h255V215h-255V127.6z"/>
<path id="Trazado_191409" class="st6" d="M853.3,42.2h147.3v87.4H853.3V42.2z"/>
<path id="Trazado_185385" class="st7" d="M1000.6,42.2H59v30.8"/>
<path id="Trazado_185386" class="st7" d="M1000.6,127.6H59v30.8"/>
<path id="Trazado_185387" class="st7" d="M1000.6,213H59v30.8"/>
<path id="Trazado_185388" class="st7" d="M1000.6,298.4H59v30.8"/>
<path id="Trazado_185389" class="st7" d="M1000.6,383.8H59v30.8"/>
<path id="Trazado_191410" class="st8" d="M879.8,93.6c-1.6,0.1-3.2-0.6-4.3-1.8c-1.1-1.3-1.7-2.9-1.6-4.6c-0.1-1.8,0.5-3.5,1.6-4.8
	c1.2-1.2,2.8-1.9,4.5-1.8c1.6-0.1,3.1,0.6,4.2,1.8c1.1,1.3,1.7,2.9,1.6,4.6c0.1,1.8-0.5,3.5-1.6,4.9C883.1,93,881.5,93.7,879.8,93.6
	z M879.9,81.9c-1.2,0-2.4,0.5-3.2,1.4c-0.9,1.1-1.3,2.4-1.2,3.8c-0.1,1.4,0.4,2.7,1.2,3.7c0.8,0.9,1.9,1.5,3.2,1.4
	c1.2,0.1,2.4-0.4,3.3-1.4c0.9-1.1,1.3-2.4,1.2-3.8c0.1-1.4-0.3-2.8-1.2-3.9C882.3,82.3,881.1,81.8,879.9,81.9L879.9,81.9z
	 M889.6,92.1L889.6,92.1l0,5.4h-1.4V84.4h1.4V86h0c0.6-1.1,1.8-1.8,3.1-1.8c1-0.1,2.1,0.4,2.7,1.2c0.7,0.9,1,2.1,1,3.2
	c0.1,1.3-0.3,2.6-1.1,3.6c-0.7,0.9-1.8,1.4-3,1.4C891.2,93.6,890.1,93,889.6,92.1z M889.6,88.4v1.3c0,0.7,0.2,1.4,0.7,1.9
	c0.5,0.5,1.1,0.8,1.8,0.8c0.8,0,1.6-0.3,2.1-1c0.5-0.8,0.8-1.8,0.7-2.8c0-0.8-0.2-1.7-0.7-2.4c-0.5-0.6-1.2-0.9-1.9-0.9
	c-0.8,0-1.5,0.3-2,0.9C889.8,86.9,889.5,87.6,889.6,88.4L889.6,88.4z M902.9,93.3c-0.4,0.2-0.9,0.3-1.3,0.3c-1.6,0-2.4-0.9-2.4-2.6
	v-5.3h-1.5v-1.2h1.5v-2.2l1.4-0.5v2.7h2.3v1.2h-2.3v5.1c0,0.5,0.1,0.9,0.3,1.3c0.3,0.3,0.6,0.4,1,0.4c0.3,0,0.7-0.1,0.9-0.3
	L902.9,93.3z M905.5,82.1c-0.2,0-0.5-0.1-0.7-0.3c-0.2-0.2-0.3-0.4-0.3-0.7c0-0.3,0.1-0.5,0.3-0.7c0.2-0.2,0.4-0.3,0.7-0.3
	c0.3,0,0.5,0.1,0.7,0.3c0.2,0.2,0.3,0.4,0.3,0.7c0,0.2-0.1,0.5-0.3,0.7C906,82,905.8,82.1,905.5,82.1L905.5,82.1z M906.2,93.4h-1.4
	v-9h1.4V93.4z M921.9,93.4h-1.4v-5.2c0.1-0.8-0.1-1.5-0.5-2.2c-0.4-0.5-1-0.7-1.5-0.7c-0.6,0-1.2,0.3-1.6,0.8
	c-0.4,0.6-0.7,1.3-0.6,2v5.1h-1.4V88c0-1.8-0.7-2.7-2-2.7c-0.6,0-1.2,0.3-1.6,0.8c-0.4,0.6-0.6,1.3-0.6,2.1v5.1h-1.4v-9h1.4v1.4h0
	c0.5-1,1.6-1.7,2.8-1.6c0.6,0,1.1,0.2,1.6,0.5c0.5,0.3,0.8,0.8,0.9,1.3c0.5-1.2,1.7-1.9,3-1.9c2,0,3,1.2,3,3.7L921.9,93.4z
	 M925.4,82.1c-0.2,0-0.5-0.1-0.7-0.3c-0.2-0.2-0.3-0.4-0.3-0.7c0-0.3,0.1-0.5,0.3-0.7c0.2-0.2,0.4-0.3,0.7-0.3
	c0.3,0,0.5,0.1,0.7,0.3c0.2,0.2,0.3,0.4,0.3,0.7c0,0.2-0.1,0.5-0.3,0.7C925.9,82,925.7,82.1,925.4,82.1L925.4,82.1z M926.1,93.4
	h-1.4v-9h1.4L926.1,93.4z M935.3,84.8l-5.3,7.4h5.3v1.2h-7.4v-0.4l5.3-7.3h-4.8v-1.2h6.9V84.8z M943.6,93.4h-1.4V92h0
	c-0.5,1-1.6,1.7-2.8,1.6c-0.8,0-1.5-0.2-2.1-0.7c-0.5-0.5-0.8-1.2-0.8-1.9c0-1.7,1-2.7,3-2.9l2.7-0.4c0-1.5-0.6-2.3-1.9-2.3
	c-1.1,0-2.1,0.4-2.9,1.1V85c0.9-0.6,2-0.9,3.1-0.8c2.1,0,3.2,1.1,3.2,3.4V93.4z M942.2,88.8l-2.2,0.3c-0.5,0-1.1,0.2-1.5,0.5
	c-0.4,0.3-0.6,0.8-0.5,1.3c0,0.4,0.2,0.8,0.5,1.1c0.4,0.3,0.8,0.4,1.2,0.4c0.7,0,1.3-0.3,1.8-0.8c0.5-0.5,0.7-1.2,0.7-1.9
	L942.2,88.8z M952.5,93c-0.7,0.4-1.6,0.6-2.5,0.6c-1.2,0-2.3-0.4-3.1-1.3c-0.8-0.9-1.2-2.1-1.2-3.2c-0.1-1.3,0.4-2.6,1.3-3.6
	c0.9-0.9,2.1-1.4,3.4-1.3c0.7,0,1.4,0.1,2.1,0.4v1.5c-0.6-0.5-1.4-0.7-2.1-0.7c-0.9,0-1.7,0.3-2.3,1c-0.6,0.7-0.9,1.7-0.9,2.6
	c-0.1,0.9,0.2,1.8,0.8,2.5c0.6,0.6,1.4,0.9,2.2,0.9c0.8,0,1.6-0.3,2.2-0.8V93z M955.4,82.1c-0.2,0-0.5-0.1-0.7-0.3
	c-0.2-0.2-0.3-0.4-0.3-0.7c0-0.3,0.1-0.5,0.3-0.7c0.2-0.2,0.4-0.3,0.7-0.3c0.3,0,0.5,0.1,0.7,0.3c0.2,0.2,0.3,0.4,0.3,0.7
	c0,0.2-0.1,0.5-0.3,0.7C955.9,82,955.6,82.1,955.4,82.1z M956.1,93.4h-1.4v-9h1.4V93.4z M962.8,93.6c-1.2,0.1-2.4-0.4-3.2-1.3
	c-0.8-0.9-1.2-2.1-1.2-3.3c-0.1-1.3,0.4-2.6,1.2-3.5c0.9-0.9,2.1-1.3,3.3-1.3c1.2-0.1,2.3,0.4,3.1,1.2c0.8,1,1.2,2.2,1.1,3.4
	c0.1,1.3-0.4,2.5-1.2,3.4C965.2,93.2,964,93.6,962.8,93.6z M962.9,85.4c-0.8,0-1.7,0.3-2.2,0.9c-0.6,0.7-0.9,1.7-0.8,2.6
	c-0.1,0.9,0.2,1.8,0.8,2.5c0.6,0.6,1.4,1,2.2,0.9c0.8,0,1.6-0.3,2.1-0.9c0.5-0.7,0.8-1.7,0.8-2.6c0.1-0.9-0.2-1.8-0.8-2.6
	C964.5,85.7,963.7,85.3,962.9,85.4z M965,79.8l-2.3,2.9h-1.1l2-2.9H965z M977,93.4h-1.4v-5.1c0-1.9-0.7-2.9-2.1-2.9
	c-0.7,0-1.3,0.3-1.8,0.8c-0.5,0.6-0.7,1.3-0.7,2.1v5.1h-1.4v-9h1.4v1.5h0c0.6-1.1,1.7-1.7,3-1.7c0.9-0.1,1.7,0.3,2.3,1
	c0.6,0.8,0.8,1.8,0.8,2.8L977,93.4z"/>
<path id="Trazado_191411" class="st8" d="M678.9,261.4v-12.6h3.5c4.4,0,6.7,2,6.7,6.1c0.1,1.8-0.6,3.5-1.9,4.7
	c-1.4,1.2-3.1,1.9-5,1.8H678.9z M680.4,250.1v9.9h1.9c1.4,0.1,2.8-0.4,3.9-1.3c1-1,1.5-2.4,1.4-3.8c0-3.2-1.7-4.8-5.1-4.8H680.4z
	 M698.6,257.2h-6.4c0,0.8,0.3,1.7,0.8,2.3c0.6,0.6,1.3,0.9,2.1,0.8c1,0,2-0.4,2.8-1v1.4c-0.9,0.6-2,0.9-3.1,0.9
	c-1.1,0.1-2.2-0.4-3-1.2c-0.8-1-1.2-2.2-1.1-3.4c-0.1-1.3,0.4-2.5,1.2-3.4c0.7-0.9,1.8-1.3,3-1.3c1-0.1,2,0.4,2.7,1.1
	c0.7,0.9,1,2,1,3.2V257.2z M697.1,256c0-0.7-0.2-1.4-0.6-1.9c-0.4-0.5-1-0.7-1.7-0.7c-0.7,0-1.3,0.3-1.7,0.7
	c-0.5,0.5-0.8,1.2-0.9,1.9L697.1,256z M705.2,249.3c-0.3-0.2-0.6-0.2-1-0.2c-1,0-1.5,0.6-1.5,1.9v1.4h2.1v1.2h-2.1v7.8h-1.4v-7.8
	h-1.5v-1.2h1.5v-1.5c0-0.8,0.3-1.6,0.8-2.2c0.5-0.5,1.3-0.8,2-0.8c0.4,0,0.7,0,1,0.2L705.2,249.3z M707.1,250.1
	c-0.2,0-0.5-0.1-0.7-0.3c-0.2-0.2-0.3-0.4-0.3-0.7c0-0.3,0.1-0.5,0.3-0.7c0.2-0.2,0.4-0.3,0.7-0.3c0.3,0,0.5,0.1,0.7,0.3
	c0.2,0.2,0.3,0.4,0.3,0.7c0,0.2-0.1,0.5-0.3,0.7C707.6,250,707.4,250.1,707.1,250.1L707.1,250.1z M707.8,261.4h-1.4v-9h1.4V261.4z
	 M718.2,261.4h-1.4v-5.1c0-1.9-0.7-2.9-2.1-2.9c-0.7,0-1.3,0.3-1.8,0.8c-0.5,0.6-0.7,1.3-0.7,2.1v5.1h-1.4v-9h1.4v1.5h0
	c0.6-1.1,1.7-1.7,3-1.7c0.9-0.1,1.7,0.3,2.3,1c0.6,0.8,0.8,1.8,0.8,2.8V261.4z M721.7,250.1c-0.2,0-0.5-0.1-0.7-0.3
	c-0.2-0.2-0.3-0.4-0.3-0.7c0-0.3,0.1-0.5,0.3-0.7c0.2-0.2,0.4-0.3,0.7-0.3c0.3,0,0.5,0.1,0.7,0.3c0.2,0.2,0.3,0.4,0.3,0.7
	c0,0.2-0.1,0.5-0.3,0.7C722.1,250,721.9,250.1,721.7,250.1z M722.4,261.4h-1.4v-9h1.4V261.4z M733,261.4h-1.4v-1.5h0
	c-0.6,1.1-1.8,1.8-3.1,1.7c-1,0-2-0.4-2.7-1.2c-0.7-0.9-1.1-2.1-1-3.3c-0.1-1.3,0.3-2.6,1.1-3.6c0.7-0.9,1.8-1.4,3-1.3
	c1.1-0.1,2.2,0.5,2.7,1.5h0V248h1.4L733,261.4z M731.5,257.3V256c0-0.7-0.2-1.4-0.7-1.8c-0.5-0.5-1.1-0.8-1.8-0.8
	c-0.8,0-1.6,0.3-2.1,1c-0.5,0.8-0.8,1.7-0.8,2.7c-0.1,0.9,0.2,1.7,0.7,2.5c0.5,0.6,1.2,0.9,1.9,0.9c0.8,0,1.5-0.3,2-0.9
	C731.3,258.9,731.5,258.1,731.5,257.3z M739.6,261.6c-1.2,0.1-2.4-0.4-3.2-1.3c-0.8-0.9-1.2-2.1-1.2-3.3c-0.1-1.3,0.4-2.6,1.2-3.5
	c0.9-0.9,2.1-1.3,3.3-1.3c1.2-0.1,2.3,0.4,3.1,1.2c0.8,1,1.2,2.2,1.1,3.4c0.1,1.3-0.4,2.5-1.2,3.5
	C742,261.2,740.9,261.6,739.6,261.6z M739.7,253.4c-0.8,0-1.7,0.3-2.2,0.9c-0.6,0.7-0.9,1.7-0.8,2.6c-0.1,0.9,0.2,1.8,0.8,2.5
	c0.6,0.6,1.4,1,2.2,0.9c0.8,0,1.6-0.3,2.1-0.9c0.5-0.7,0.8-1.7,0.8-2.6c0.1-0.9-0.2-1.8-0.8-2.6
	C741.4,253.7,740.6,253.3,739.7,253.4z"/>
<path id="Trazado_191412" class="st8" d="M574.4,344.8c-1.3,0.7-2.7,1.1-4.2,1.1c-1.6,0.1-3.2-0.6-4.4-1.7c-1.1-1.3-1.7-2.9-1.7-4.6
	c-0.1-1.8,0.6-3.5,1.9-4.8c1.2-1.3,2.9-1.9,4.7-1.9c1.2,0,2.4,0.2,3.5,0.7v1.6c-1.1-0.7-2.3-1-3.6-1c-1.3,0-2.6,0.5-3.5,1.5
	c-0.9,1-1.4,2.4-1.4,3.8c-0.1,1.4,0.4,2.7,1.3,3.8c0.9,0.9,2.1,1.4,3.4,1.4c0.9,0,1.8-0.2,2.6-0.6v-3.5h-2.8v-1.3h4.2V344.8z
	 M584.4,341.5H578c0,0.8,0.3,1.7,0.8,2.3c0.6,0.6,1.3,0.9,2.1,0.8c1,0,2-0.4,2.8-1v1.4c-0.9,0.6-2,0.9-3.1,0.9
	c-1.1,0.1-2.2-0.4-3-1.2c-0.8-1-1.2-2.2-1.1-3.4c-0.1-1.3,0.4-2.5,1.2-3.4c0.7-0.9,1.8-1.3,3-1.3c1-0.1,2,0.4,2.7,1.1
	c0.7,0.9,1,2,1,3.2V341.5z M582.9,340.3c0-0.7-0.2-1.4-0.6-1.9c-0.4-0.5-1-0.7-1.6-0.7c-0.7,0-1.3,0.3-1.7,0.7
	c-0.5,0.5-0.8,1.2-0.9,1.9H582.9z M586,345.3v-1.5c0.7,0.6,1.7,0.9,2.6,0.9c1.3,0,1.9-0.4,1.9-1.3c0-0.2-0.1-0.4-0.2-0.6
	c-0.1-0.2-0.3-0.3-0.4-0.4c-0.2-0.1-0.4-0.3-0.6-0.3c-0.2-0.1-0.5-0.2-0.8-0.3c-0.4-0.1-0.7-0.3-1.1-0.5c-0.3-0.1-0.5-0.3-0.8-0.5
	c-0.2-0.2-0.4-0.4-0.5-0.7c-0.1-0.3-0.2-0.6-0.2-0.9c0-0.4,0.1-0.8,0.3-1.1c0.2-0.3,0.5-0.6,0.8-0.8c0.3-0.2,0.7-0.4,1.1-0.5
	c0.4-0.1,0.8-0.2,1.3-0.2c0.7,0,1.4,0.1,2.1,0.4v1.5c-0.7-0.4-1.5-0.7-2.3-0.6c-0.2,0-0.5,0-0.7,0.1c-0.2,0.1-0.4,0.1-0.6,0.3
	c-0.1,0.1-0.3,0.2-0.4,0.4c-0.1,0.2-0.1,0.3-0.1,0.5c0,0.2,0,0.4,0.1,0.6c0.1,0.2,0.2,0.3,0.4,0.4c0.2,0.1,0.4,0.2,0.6,0.3
	c0.2,0.1,0.5,0.2,0.8,0.3c0.4,0.1,0.7,0.3,1.1,0.5c0.3,0.1,0.6,0.3,0.8,0.5c0.2,0.2,0.4,0.4,0.5,0.7c0.1,0.3,0.2,0.6,0.2,0.9
	c0,0.4-0.1,0.8-0.3,1.2c-0.2,0.3-0.5,0.6-0.8,0.8c-0.3,0.2-0.7,0.4-1.1,0.5c-0.4,0.1-0.9,0.2-1.3,0.2
	C587.6,345.9,586.8,345.7,586,345.3z M598.4,345.6c-0.4,0.2-0.9,0.3-1.3,0.3c-1.6,0-2.4-0.9-2.4-2.6v-5.3h-1.5v-1.2h1.5v-2.2
	l1.4-0.5v2.7h2.3v1.2h-2.3v5.1c0,0.5,0.1,0.9,0.3,1.3c0.3,0.3,0.6,0.4,1,0.4c0.3,0,0.7-0.1,0.9-0.3L598.4,345.6z M601.1,334.4
	c-0.2,0-0.5-0.1-0.7-0.3c-0.2-0.2-0.3-0.4-0.3-0.7c0-0.3,0.1-0.5,0.3-0.7c0.2-0.2,0.4-0.3,0.7-0.3c0.3,0,0.5,0.1,0.7,0.3
	c0.2,0.2,0.3,0.4,0.3,0.7c0,0.2-0.1,0.5-0.3,0.7C601.6,334.3,601.3,334.4,601.1,334.4L601.1,334.4z M601.8,345.7h-1.4v-9h1.4V345.7z
	 M608.4,345.9c-1.2,0.1-2.4-0.4-3.2-1.3c-0.8-0.9-1.3-2.1-1.2-3.3c-0.1-1.3,0.4-2.6,1.2-3.5c0.9-0.9,2.1-1.3,3.4-1.3
	c1.2-0.1,2.3,0.4,3.1,1.2c0.8,1,1.2,2.2,1.1,3.4c0.1,1.3-0.4,2.5-1.2,3.5C610.9,345.5,609.7,345.9,608.4,345.9L608.4,345.9z
	 M608.5,337.7c-0.8,0-1.7,0.3-2.2,0.9c-0.6,0.7-0.9,1.7-0.8,2.6c0,0.9,0.2,1.8,0.8,2.5c0.6,0.6,1.4,1,2.2,0.9c0.8,0,1.6-0.3,2.1-0.9
	c0.5-0.7,0.8-1.7,0.8-2.6c0.1-0.9-0.2-1.8-0.8-2.6C610.2,338,609.4,337.6,608.5,337.7z M622.7,345.7h-1.4v-5.1
	c0-1.9-0.7-2.9-2.1-2.9c-0.7,0-1.3,0.3-1.8,0.8c-0.5,0.6-0.7,1.3-0.7,2.1v5.1h-1.4v-9h1.4v1.5h0c0.6-1.1,1.7-1.7,3-1.7
	c0.9-0.1,1.7,0.3,2.3,1c0.6,0.8,0.8,1.8,0.8,2.8V345.7z M631.9,345.7h-1.4v-1.4h0c-0.5,1-1.6,1.7-2.8,1.6c-0.8,0-1.5-0.2-2.1-0.7
	c-0.5-0.5-0.8-1.2-0.8-1.9c0-1.7,1-2.7,3-2.9l2.7-0.4c0-1.5-0.6-2.3-1.9-2.3c-1.1,0-2.1,0.4-2.9,1.1v-1.5c0.9-0.6,2-0.9,3.1-0.8
	c2.1,0,3.2,1.1,3.2,3.4L631.9,345.7z M630.4,341.1l-2.2,0.3c-0.5,0-1.1,0.2-1.5,0.5c-0.4,0.3-0.6,0.8-0.5,1.3c0,0.4,0.2,0.8,0.5,1.1
	c0.4,0.3,0.8,0.4,1.3,0.4c0.7,0,1.3-0.3,1.8-0.8c0.5-0.5,0.7-1.2,0.7-1.9L630.4,341.1z M642.3,345.7h-1.4v-1.5h0
	c-0.6,1.1-1.8,1.8-3.1,1.7c-1,0-2-0.4-2.7-1.2c-0.7-0.9-1.1-2.1-1-3.3c-0.1-1.3,0.3-2.6,1.1-3.6c0.7-0.9,1.8-1.4,3-1.3
	c1.1-0.1,2.2,0.5,2.7,1.5h0v-5.6h1.4L642.3,345.7z M640.8,341.6v-1.3c0-0.7-0.2-1.4-0.7-1.8c-0.5-0.5-1.1-0.8-1.8-0.8
	c-0.8,0-1.6,0.3-2.1,1c-0.5,0.8-0.8,1.7-0.8,2.7c0,0.9,0.2,1.7,0.7,2.5c0.5,0.6,1.2,0.9,1.9,0.9c0.8,0,1.5-0.3,2-0.9
	C640.6,343.2,640.8,342.4,640.8,341.6z M648.9,345.9c-1.2,0.1-2.4-0.4-3.2-1.3c-0.8-0.9-1.2-2.1-1.2-3.3c-0.1-1.3,0.4-2.6,1.2-3.5
	c0.9-0.9,2.1-1.3,3.3-1.3c1.2-0.1,2.3,0.4,3.1,1.2c0.8,1,1.2,2.2,1.1,3.4c0.1,1.3-0.4,2.5-1.2,3.4
	C651.3,345.5,650.2,345.9,648.9,345.9z M649,337.7c-0.8,0-1.7,0.3-2.2,0.9c-0.6,0.7-0.9,1.7-0.8,2.6c-0.1,0.9,0.2,1.8,0.8,2.5
	c0.6,0.6,1.4,1,2.2,0.9c0.8,0,1.6-0.3,2.1-0.9c0.5-0.7,0.8-1.7,0.8-2.6c0.1-0.9-0.2-1.8-0.8-2.6C650.7,338,649.9,337.6,649,337.7z"
	/>
<path id="Trazado_191413" class="st8" d="M434.3,431.1h-1.5v-12.6h1.5V431.1z M444.9,431.1h-1.4V426c0-1.9-0.7-2.9-2.1-2.9
	c-0.7,0-1.3,0.3-1.8,0.8c-0.5,0.6-0.7,1.3-0.7,2.1v5.1h-1.4v-9h1.4v1.5h0c0.6-1.1,1.7-1.7,3-1.7c0.9-0.1,1.7,0.3,2.3,1
	c0.6,0.8,0.8,1.8,0.8,2.8V431.1z M448.3,419.8c-0.2,0-0.5-0.1-0.7-0.3c-0.2-0.2-0.3-0.4-0.3-0.7c0-0.3,0.1-0.5,0.3-0.7
	c0.2-0.2,0.4-0.3,0.7-0.3c0.3,0,0.5,0.1,0.7,0.3c0.2,0.2,0.3,0.4,0.3,0.7c0,0.2-0.1,0.5-0.3,0.7
	C448.8,419.7,448.6,419.8,448.3,419.8z M449,431.1h-1.4v-9h1.4V431.1z M458.1,430.7c-0.7,0.4-1.6,0.6-2.5,0.6
	c-1.2,0-2.3-0.4-3.1-1.3c-0.8-0.9-1.2-2.1-1.2-3.2c-0.1-1.3,0.4-2.6,1.3-3.6c0.9-0.9,2.1-1.4,3.4-1.3c0.7,0,1.4,0.1,2.1,0.4v1.5
	c-0.6-0.5-1.4-0.7-2.1-0.7c-0.9,0-1.7,0.3-2.3,1c-0.6,0.7-0.9,1.7-0.9,2.6c-0.1,0.9,0.2,1.8,0.8,2.5c0.6,0.6,1.4,1,2.2,0.9
	c0.8,0,1.6-0.3,2.2-0.8V430.7z M461,419.8c-0.2,0-0.5-0.1-0.7-0.3c-0.2-0.2-0.3-0.4-0.3-0.7c0-0.3,0.1-0.5,0.3-0.7
	c0.2-0.2,0.4-0.3,0.7-0.3c0.3,0,0.5,0.1,0.7,0.3c0.2,0.2,0.3,0.4,0.3,0.7c0,0.2-0.1,0.5-0.3,0.7C461.5,419.7,461.2,419.8,461,419.8z
	 M461.7,431.1h-1.4v-9h1.4L461.7,431.1z M471.1,431.1h-1.4v-1.4h0c-0.5,1-1.6,1.7-2.8,1.6c-0.8,0-1.5-0.2-2.1-0.7
	c-0.5-0.5-0.8-1.2-0.8-1.9c0-1.7,1-2.7,3-2.9l2.7-0.4c0-1.5-0.6-2.3-1.9-2.3c-1.1,0-2.1,0.4-2.9,1.1v-1.5c0.9-0.6,2-0.9,3.1-0.8
	c2.1,0,3.2,1.1,3.2,3.4L471.1,431.1z M469.6,426.5l-2.2,0.3c-0.5,0-1.1,0.2-1.5,0.5c-0.4,0.3-0.6,0.8-0.5,1.3c0,0.4,0.2,0.8,0.5,1.1
	c0.4,0.3,0.8,0.4,1.3,0.4c0.7,0,1.3-0.3,1.8-0.8c0.5-0.5,0.7-1.2,0.7-1.9L469.6,426.5z M475.2,431.1h-1.4v-13.3h1.4V431.1z"/>
<path id="Trazado_191455" class="st8" d="M784.4,164c-1.3,0.7-2.7,1.1-4.2,1.1c-1.6,0.1-3.2-0.6-4.4-1.7c-1.1-1.3-1.7-2.9-1.7-4.6
	c-0.1-1.8,0.6-3.5,1.9-4.8c1.2-1.3,2.9-1.9,4.7-1.9c1.2,0,2.4,0.2,3.5,0.7v1.6c-1.1-0.7-2.3-1-3.6-1c-1.3,0-2.6,0.5-3.5,1.5
	c-0.9,1-1.4,2.4-1.4,3.8c-0.1,1.4,0.4,2.7,1.3,3.8c0.9,0.9,2.1,1.4,3.4,1.4c0.9,0,1.8-0.2,2.6-0.6v-3.5h-2.8v-1.3h4.2V164z
	 M794.3,160.7H788c0,0.8,0.3,1.7,0.8,2.3c0.6,0.6,1.3,0.9,2.1,0.8c1,0,2-0.4,2.8-1v1.4c-0.9,0.6-2,0.9-3.1,0.9
	c-1.1,0.1-2.2-0.4-3-1.2c-0.8-1-1.2-2.2-1.1-3.4c-0.1-1.3,0.4-2.5,1.2-3.4c0.7-0.9,1.8-1.3,3-1.3c1-0.1,2,0.4,2.7,1.1
	c0.7,0.9,1,2,1,3.2V160.7z M792.9,159.5c0-0.7-0.2-1.4-0.6-1.9c-0.4-0.5-1-0.7-1.6-0.7c-0.7,0-1.3,0.3-1.7,0.7
	c-0.5,0.5-0.8,1.2-0.9,1.9H792.9z M796,164.5v-1.5c0.7,0.6,1.7,0.9,2.6,0.9c1.3,0,1.9-0.4,1.9-1.3c0-0.2-0.1-0.4-0.2-0.6
	c-0.1-0.2-0.3-0.3-0.4-0.4c-0.2-0.1-0.4-0.3-0.6-0.3c-0.2-0.1-0.5-0.2-0.8-0.3c-0.4-0.1-0.7-0.3-1.1-0.5c-0.3-0.1-0.5-0.3-0.8-0.5
	c-0.2-0.2-0.4-0.4-0.5-0.7c-0.1-0.3-0.2-0.6-0.2-0.9c0-0.4,0.1-0.8,0.3-1.1c0.2-0.3,0.5-0.6,0.8-0.8c0.3-0.2,0.7-0.4,1.1-0.5
	c0.4-0.1,0.8-0.2,1.3-0.2c0.7,0,1.4,0.1,2.1,0.4v1.5c-0.7-0.4-1.5-0.7-2.3-0.6c-0.2,0-0.5,0-0.7,0.1c-0.2,0.1-0.4,0.1-0.6,0.3
	c-0.1,0.1-0.3,0.2-0.4,0.4c-0.1,0.2-0.1,0.3-0.1,0.5c0,0.2,0,0.4,0.1,0.6c0.1,0.2,0.2,0.3,0.4,0.4c0.2,0.1,0.4,0.2,0.6,0.3
	c0.2,0.1,0.5,0.2,0.8,0.3c0.4,0.1,0.7,0.3,1.1,0.5c0.3,0.1,0.6,0.3,0.8,0.5c0.2,0.2,0.4,0.4,0.5,0.7c0.1,0.3,0.2,0.6,0.2,0.9
	c0,0.4-0.1,0.8-0.3,1.2c-0.2,0.3-0.5,0.6-0.8,0.8c-0.3,0.2-0.7,0.4-1.1,0.5c-0.4,0.1-0.9,0.2-1.3,0.2
	C797.6,165.1,796.7,164.9,796,164.5z M808.3,164.7c-0.4,0.2-0.9,0.3-1.3,0.3c-1.6,0-2.4-0.9-2.4-2.6v-5.3h-1.5v-1.2h1.5v-2.2
	l1.4-0.5v2.7h2.3v1.2h-2.3v5.1c0,0.5,0.1,0.9,0.3,1.3c0.3,0.3,0.6,0.4,1,0.4c0.3,0,0.7-0.1,0.9-0.3L808.3,164.7z M811,153.5
	c-0.2,0-0.5-0.1-0.7-0.3c-0.2-0.2-0.3-0.4-0.3-0.7c0-0.3,0.1-0.5,0.3-0.7c0.2-0.2,0.4-0.3,0.7-0.3c0.3,0,0.5,0.1,0.7,0.3
	c0.2,0.2,0.3,0.4,0.3,0.7c0,0.2-0.1,0.5-0.3,0.7C811.5,153.4,811.3,153.5,811,153.5L811,153.5z M811.7,164.8h-1.4v-9h1.4V164.8z
	 M818.4,165c-1.2,0.1-2.4-0.4-3.2-1.3c-0.8-0.9-1.3-2.1-1.2-3.3c-0.1-1.3,0.4-2.6,1.2-3.5c0.9-0.9,2.1-1.3,3.4-1.3
	c1.2-0.1,2.3,0.4,3.1,1.2c0.8,1,1.2,2.2,1.1,3.4c0.1,1.3-0.4,2.5-1.2,3.4C820.8,164.6,819.6,165.1,818.4,165L818.4,165z
	 M818.5,156.8c-0.8,0-1.7,0.3-2.2,0.9c-0.6,0.7-0.9,1.7-0.8,2.6c0,0.9,0.2,1.8,0.8,2.5c0.6,0.6,1.4,1,2.2,0.9c0.8,0,1.6-0.3,2.1-0.9
	c0.5-0.7,0.8-1.7,0.8-2.6c0.1-0.9-0.2-1.8-0.8-2.6C820.1,157.1,819.3,156.8,818.5,156.8z M832.6,164.8h-1.4v-5.1
	c0-1.9-0.7-2.9-2.1-2.9c-0.7,0-1.3,0.3-1.8,0.8c-0.5,0.6-0.7,1.3-0.7,2.1v5.1h-1.4v-9h1.4v1.5h0c0.6-1.1,1.7-1.7,3-1.7
	c0.9-0.1,1.7,0.3,2.3,1c0.6,0.8,0.8,1.8,0.8,2.8V164.8z M841.8,164.8h-1.4v-1.4h0c-0.5,1-1.6,1.7-2.8,1.6c-0.8,0-1.5-0.2-2.1-0.7
	c-0.5-0.5-0.8-1.2-0.8-1.9c0-1.7,1-2.7,3-2.9l2.7-0.4c0-1.5-0.6-2.3-1.9-2.3c-1.1,0-2.1,0.4-2.9,1.1v-1.5c0.9-0.6,2-0.9,3.1-0.8
	c2.1,0,3.2,1.1,3.2,3.4L841.8,164.8z M840.4,160.3l-2.2,0.3c-0.5,0-1.1,0.2-1.5,0.5c-0.4,0.3-0.6,0.8-0.5,1.3c0,0.4,0.2,0.8,0.5,1.1
	c0.4,0.3,0.8,0.4,1.3,0.4c0.7,0,1.3-0.3,1.8-0.8c0.5-0.5,0.7-1.2,0.7-1.9L840.4,160.3z M852.2,164.8h-1.4v-1.5h0
	c-0.6,1.1-1.8,1.8-3.1,1.7c-1,0-2-0.4-2.7-1.2c-0.7-0.9-1.1-2.1-1-3.3c-0.1-1.3,0.3-2.6,1.1-3.6c0.7-0.9,1.8-1.4,3-1.3
	c1.1-0.1,2.2,0.5,2.7,1.5h0v-5.6h1.4L852.2,164.8z M850.7,160.8v-1.3c0-0.7-0.2-1.4-0.7-1.8c-0.5-0.5-1.1-0.8-1.8-0.8
	c-0.8,0-1.6,0.3-2.1,1c-0.5,0.8-0.8,1.7-0.8,2.7c0,0.9,0.2,1.7,0.7,2.5c0.5,0.6,1.2,0.9,1.9,0.9c0.8,0,1.5-0.3,2-0.9
	C850.5,162.3,850.8,161.6,850.7,160.8z M858.9,165c-1.2,0.1-2.4-0.4-3.2-1.3c-0.8-0.9-1.2-2.1-1.2-3.3c-0.1-1.3,0.4-2.6,1.2-3.5
	c0.9-0.9,2.1-1.3,3.3-1.3c1.2-0.1,2.3,0.4,3.1,1.2c0.8,1,1.2,2.2,1.1,3.4c0.1,1.3-0.4,2.5-1.2,3.4
	C861.3,164.6,860.1,165.1,858.9,165z M859,156.8c-0.8,0-1.7,0.3-2.2,0.9c-0.6,0.7-0.9,1.7-0.8,2.6c-0.1,0.9,0.2,1.8,0.8,2.5
	c0.6,0.6,1.4,1,2.2,0.9c0.8,0,1.6-0.3,2.1-0.9c0.5-0.7,0.8-1.7,0.8-2.6c0.1-0.9-0.2-1.8-0.8-2.6C860.6,157.1,859.8,156.8,859,156.8z
	"/>
<path id="Trazado_191456" class="st8" d="M780.9,186c-0.7,0.4-1.6,0.6-2.5,0.6c-1.2,0-2.3-0.4-3.1-1.3c-0.8-0.9-1.2-2.1-1.2-3.2
	c-0.1-1.3,0.4-2.6,1.3-3.6c0.9-0.9,2.1-1.4,3.4-1.3c0.7,0,1.4,0.1,2.1,0.4v1.5c-0.6-0.5-1.4-0.7-2.1-0.7c-0.9,0-1.7,0.3-2.3,1
	c-0.6,0.7-0.9,1.7-0.9,2.6c-0.1,0.9,0.2,1.8,0.8,2.5c0.6,0.6,1.4,0.9,2.2,0.9c0.8,0,1.6-0.3,2.2-0.8V186z M790.4,186.4h-1.4V185h0
	c-0.5,1-1.6,1.7-2.8,1.6c-2.1,0-3.2-1.3-3.2-3.8v-5.4h1.4v5.1c0,1.9,0.7,2.9,2.2,2.9c0.7,0,1.3-0.3,1.7-0.8c0.5-0.6,0.7-1.3,0.7-2
	v-5.2h1.4L790.4,186.4z M799.7,186.4h-1.4V185h0c-0.5,1-1.6,1.7-2.8,1.6c-0.8,0-1.5-0.2-2.1-0.7c-0.5-0.5-0.8-1.2-0.8-1.9
	c0-1.7,1-2.7,3-2.9l2.7-0.4c0-1.5-0.6-2.3-1.9-2.3c-1.1,0-2.1,0.4-2.9,1.1v-1.5c0.9-0.6,2-0.9,3.1-0.8c2.1,0,3.2,1.1,3.2,3.4
	L799.7,186.4z M798.3,181.9l-2.2,0.3c-0.5,0-1.1,0.2-1.5,0.5c-0.4,0.3-0.6,0.8-0.5,1.3c0,0.4,0.2,0.8,0.5,1.1
	c0.4,0.3,0.8,0.4,1.3,0.4c0.7,0,1.3-0.3,1.8-0.8c0.5-0.5,0.7-1.2,0.7-1.9L798.3,181.9z M809.9,186.4h-1.4v-5.1
	c0-1.9-0.7-2.9-2.1-2.9c-0.7,0-1.3,0.3-1.8,0.8c-0.5,0.6-0.7,1.3-0.7,2.1v5.1h-1.4v-9h1.4v1.5h0c0.6-1.1,1.7-1.7,3-1.7
	c0.9-0.1,1.7,0.3,2.3,1c0.6,0.8,0.8,1.8,0.8,2.8V186.4z M816.8,186.3c-0.4,0.2-0.9,0.3-1.3,0.3c-1.6,0-2.4-0.9-2.4-2.6v-5.3h-1.5
	v-1.2h1.5v-2.2l1.4-0.5v2.7h2.3v1.2h-2.3v5.1c0,0.5,0.1,0.9,0.3,1.3c0.3,0.3,0.6,0.4,1,0.4c0.3,0,0.7-0.1,0.9-0.3V186.3z
	 M819.4,175.1c-0.2,0-0.5-0.1-0.7-0.3c-0.2-0.2-0.3-0.4-0.3-0.7c0-0.3,0.1-0.5,0.3-0.7c0.2-0.2,0.4-0.3,0.7-0.3
	c0.3,0,0.5,0.1,0.7,0.3c0.2,0.2,0.3,0.4,0.3,0.7c0,0.2-0.1,0.5-0.3,0.7C819.9,175,819.7,175.1,819.4,175.1L819.4,175.1z
	 M820.1,186.4h-1.4v-9h1.4L820.1,186.4z M827.2,186.3c-0.4,0.2-0.9,0.3-1.3,0.3c-1.6,0-2.4-0.9-2.4-2.6v-5.3H822v-1.2h1.5v-2.2
	l1.4-0.5v2.7h2.3v1.2H825v5.1c0,0.5,0.1,0.9,0.3,1.3c0.3,0.3,0.6,0.4,1,0.4c0.3,0,0.7-0.1,0.9-0.3L827.2,186.3z M835.6,186.4h-1.4
	V185h0c-0.5,1-1.6,1.7-2.8,1.6c-0.8,0-1.5-0.2-2.1-0.7c-0.5-0.5-0.8-1.2-0.8-1.9c0-1.7,1-2.7,3-2.9l2.7-0.4c0-1.5-0.6-2.3-1.9-2.3
	c-1.1,0-2.1,0.4-2.9,1.1v-1.5c0.9-0.6,2-0.9,3.1-0.8c2.1,0,3.2,1.1,3.2,3.4L835.6,186.4z M834.2,181.9l-2.2,0.3
	c-0.5,0-1.1,0.2-1.5,0.5c-0.4,0.3-0.6,0.8-0.5,1.3c0,0.4,0.2,0.8,0.5,1.1c0.4,0.3,0.8,0.4,1.3,0.4c0.7,0,1.3-0.3,1.8-0.8
	c0.5-0.5,0.7-1.2,0.7-1.9L834.2,181.9z M842.5,186.3c-0.4,0.2-0.9,0.3-1.3,0.3c-1.6,0-2.4-0.9-2.4-2.6v-5.3h-1.6v-1.2h1.5v-2.2
	l1.4-0.5v2.7h2.3v1.2h-2.3v5.1c0,0.5,0.1,0.9,0.3,1.3c0.3,0.3,0.6,0.4,1,0.4c0.3,0,0.7-0.1,0.9-0.3L842.5,186.3z M845.2,175.1
	c-0.2,0-0.5-0.1-0.7-0.3c-0.2-0.2-0.3-0.4-0.3-0.7c0-0.3,0.1-0.5,0.3-0.7c0.2-0.2,0.4-0.3,0.7-0.3c0.3,0,0.5,0.1,0.7,0.3
	c0.2,0.2,0.3,0.4,0.3,0.7c0,0.2-0.1,0.5-0.3,0.7C845.7,175,845.4,175.1,845.2,175.1L845.2,175.1z M845.9,186.4h-1.4v-9h1.4
	L845.9,186.4z"/>
<path id="Trazado_191457" class="st8" d="M857.1,177.4l-3.6,9h-1.4l-3.4-9h1.6l2.3,6.5c0.2,0.4,0.3,0.8,0.3,1.3h0
	c0.1-0.4,0.1-0.8,0.3-1.2l2.4-6.6H857.1z"/>
<path id="Trazado_191458" class="st8" d="M865,186.4h-1.4V185h0c-0.5,1-1.6,1.7-2.8,1.6c-0.8,0-1.5-0.2-2.1-0.7
	c-0.5-0.5-0.8-1.2-0.8-1.9c0-1.7,1-2.7,3-2.9l2.7-0.4c0-1.5-0.6-2.3-1.9-2.3c-1.1,0-2.1,0.4-2.9,1.1v-1.5c0.9-0.6,2-0.9,3.1-0.8
	c2.1,0,3.2,1.1,3.2,3.4V186.4z M863.6,181.9l-2.2,0.3c-0.5,0-1.1,0.2-1.5,0.5c-0.4,0.3-0.6,0.8-0.5,1.3c0,0.4,0.2,0.8,0.5,1.1
	c0.3,0.3,0.8,0.4,1.3,0.4c0.7,0,1.3-0.3,1.8-0.8c0.5-0.5,0.7-1.2,0.7-1.9L863.6,181.9z M880.5,186.4h-1.4v-5.2
	c0.1-0.8-0.1-1.5-0.5-2.2c-0.4-0.5-1-0.7-1.6-0.7c-0.6,0-1.2,0.3-1.6,0.8c-0.4,0.6-0.7,1.3-0.6,2v5.1h-1.4v-5.3c0-1.8-0.7-2.7-2-2.7
	c-0.6,0-1.2,0.3-1.6,0.8c-0.4,0.6-0.6,1.3-0.6,2.1v5.1h-1.4v-9h1.4v1.4h0c0.5-1,1.6-1.7,2.8-1.6c0.6,0,1.1,0.2,1.6,0.5
	c0.5,0.3,0.8,0.8,0.9,1.3c0.5-1.2,1.7-1.9,3-1.9c2,0,3,1.2,3,3.7L880.5,186.4z M890.5,182.3h-6.4c0,0.8,0.3,1.7,0.8,2.3
	c0.6,0.6,1.3,0.9,2.1,0.8c1,0,2-0.4,2.8-1v1.4c-0.9,0.6-2,0.9-3.1,0.9c-1.1,0.1-2.2-0.4-3-1.2c-0.8-1-1.2-2.2-1.1-3.4
	c-0.1-1.3,0.4-2.5,1.2-3.4c0.7-0.9,1.8-1.3,3-1.3c1-0.1,2,0.4,2.7,1.1c0.7,0.9,1,2,1,3.2L890.5,182.3z M889,181.1
	c0-0.7-0.2-1.4-0.6-1.9c-0.4-0.5-1-0.7-1.7-0.7c-0.7,0-1.3,0.3-1.7,0.7c-0.5,0.5-0.8,1.2-0.9,1.9L889,181.1z M900.1,186.4h-1.4v-5.1
	c0-1.9-0.7-2.9-2.1-2.9c-0.7,0-1.3,0.3-1.8,0.8c-0.5,0.6-0.7,1.3-0.7,2.1v5.1h-1.4v-9h1.4v1.5h0c0.6-1.1,1.7-1.7,3-1.7
	c0.9-0.1,1.7,0.3,2.3,1c0.6,0.8,0.8,1.8,0.8,2.8V186.4z M907,186.3c-0.4,0.2-0.9,0.3-1.3,0.3c-1.6,0-2.4-0.9-2.4-2.6v-5.3h-1.6v-1.2
	h1.5v-2.2l1.4-0.5v2.7h2.3v1.2h-2.3v5.1c0,0.5,0.1,0.9,0.3,1.3c0.3,0.3,0.6,0.4,1,0.4c0.3,0,0.7-0.1,0.9-0.3L907,186.3z
	 M916.2,182.3h-6.4c0,0.8,0.3,1.7,0.8,2.3c0.6,0.6,1.3,0.9,2.1,0.8c1,0,2-0.4,2.8-1v1.4c-0.9,0.6-2,0.9-3.1,0.9
	c-1.1,0.1-2.2-0.4-3-1.2c-0.8-1-1.2-2.2-1.1-3.4c-0.1-1.3,0.4-2.5,1.2-3.4c0.7-0.9,1.8-1.3,3-1.3c1-0.1,2,0.4,2.7,1.1
	c0.7,0.9,1,2,1,3.2V182.3z M914.7,181.1c0-0.7-0.2-1.4-0.6-1.9c-0.4-0.5-1-0.7-1.6-0.7c-0.7,0-1.3,0.3-1.7,0.7
	c-0.5,0.5-0.8,1.2-0.9,1.9L914.7,181.1z"/>
<path id="Trazado_191414" class="st9" d="M59,58.2c12.7,0,23,10.3,23,23s-10.3,23-23,23s-23-10.3-23-23c0,0,0,0,0,0
	C36,68.5,46.3,58.2,59,58.2z"/>
<path id="Trazado_191415" class="st9" d="M59,143.1c12.7,0,23,10.3,23,23c0,12.7-10.3,23-23,23s-23-10.3-23-23c0,0,0,0,0,0
	C36,153.4,46.3,143.1,59,143.1z"/>
<path id="Trazado_191416" class="st9" d="M59,228.1c12.7,0,23,10.3,23,23c0,12.7-10.3,23-23,23s-23-10.3-23-23c0,0,0,0,0,0
	C36,238.4,46.3,228.1,59,228.1z"/>
<path id="Trazado_191417" class="st9" d="M59,313c12.7,0,23,10.3,23,23c0,12.7-10.3,23-23,23s-23-10.3-23-23c0,0,0,0,0,0
	C36,323.3,46.3,313,59,313z"/>
<path id="Trazado_191418" class="st9" d="M59,398c12.7,0,23,10.3,23,23c0,12.7-10.3,23-23,23s-23-10.3-23-23c0,0,0,0,0,0
	C36,408.3,46.3,398,59,398z"/>
<path id="Trazado_191419" class="st8" d="M55.1,86.1v-2.4c0.8,0.5,1.8,0.8,2.8,0.8c0.6,0,1.2-0.1,1.7-0.5c0.4-0.4,0.6-0.9,0.6-1.4
	c0-1.2-0.9-1.9-2.6-1.9c-0.8,0-1.5,0.1-2.2,0.1l0.5-7h6.7V76h-4.6l-0.2,2.5c0.5,0,0.8-0.1,1.2-0.1c1.1-0.1,2.2,0.3,3,1
	c0.7,0.7,1.1,1.7,1.1,2.7c0,1.2-0.4,2.3-1.3,3.1c-1,0.8-2.3,1.3-3.5,1.2C57.1,86.6,56,86.4,55.1,86.1z"/>
<path id="Trazado_191420" class="st8" d="M62.2,159.2v7.9h1.5v2.1h-1.5v2.6h-2.5v-2.6h-5.5V167c0.5-0.5,1-1.1,1.5-1.8
	c0.5-0.6,1-1.3,1.5-2s0.9-1.4,1.4-2.1c0.4-0.6,0.7-1.3,1.1-2H62.2z M56.6,167.1h3v-4.4c-0.2,0.4-0.4,0.8-0.7,1.2
	c-0.2,0.4-0.5,0.8-0.8,1.1c-0.3,0.4-0.5,0.7-0.8,1.1C57.2,166.5,56.9,166.8,56.6,167.1z"/>
<path id="Trazado_191421" class="st8" d="M54.8,256.8v-2.4c0.9,0.6,1.9,0.9,3,0.9c0.6,0,1.2-0.1,1.7-0.5c0.4-0.3,0.6-0.8,0.6-1.3
	c0-0.5-0.3-1-0.7-1.3c-0.6-0.3-1.3-0.5-2-0.5h-1.2v-2.1h1.1c1.6,0,2.5-0.5,2.5-1.6c0-1-0.6-1.5-1.9-1.5c-0.9,0-1.7,0.3-2.5,0.8v-2.3
	c1-0.5,2-0.7,3.1-0.7c1.1-0.1,2.1,0.2,3,0.9c0.7,0.5,1.1,1.4,1.1,2.3c0.1,1.5-1,2.9-2.5,3.1v0c0.8,0.1,1.5,0.4,2.1,1
	c0.5,0.5,0.8,1.2,0.8,2c0,1.1-0.4,2.1-1.3,2.8c-1,0.7-2.3,1.1-3.6,1C56.9,257.5,55.8,257.3,54.8,256.8z"/>
<path id="Trazado_191422" class="st8" d="M61.1,415.2v12.9h-2.8v-9.8c-0.2,0.1-0.4,0.3-0.5,0.4c-0.2,0.1-0.4,0.2-0.7,0.3
	c-0.2,0.1-0.5,0.2-0.7,0.2c-0.2,0.1-0.5,0.1-0.7,0.1v-2.3c0.7-0.2,1.4-0.5,2-0.8c0.6-0.3,1.2-0.7,1.7-1.1L61.1,415.2z"/>
<path id="Trazado_191423" class="st8" d="M57.6,340.3h5.3v2.3h-8.4v-0.9c0-0.6,0.1-1.2,0.3-1.7c0.2-0.5,0.5-1,0.8-1.4
	c0.3-0.4,0.7-0.8,1.1-1.1c0.4-0.3,0.8-0.6,1.1-0.8c0.4-0.3,0.7-0.5,1-0.8c0.3-0.2,0.5-0.5,0.7-0.7c0.2-0.2,0.3-0.5,0.4-0.7
	c0.1-0.2,0.1-0.5,0.1-0.8c0-0.5-0.1-0.9-0.5-1.2c-0.4-0.3-0.9-0.5-1.4-0.4c-1.2,0-2.3,0.5-3.1,1.3v-2.4c1.1-0.7,2.4-1.1,3.7-1.1
	c0.6,0,1.2,0.1,1.7,0.2c0.5,0.1,0.9,0.4,1.3,0.7c0.3,0.3,0.6,0.7,0.8,1.1c0.2,0.5,0.3,1,0.3,1.5c0,0.5-0.1,1.1-0.3,1.5
	c-0.2,0.4-0.4,0.9-0.7,1.2c-0.3,0.4-0.6,0.7-1,1c-0.4,0.3-0.8,0.6-1.2,0.9c-0.3,0.2-0.6,0.4-0.8,0.6c-0.2,0.2-0.5,0.4-0.7,0.6
	c-0.2,0.2-0.3,0.4-0.5,0.6C57.7,340,57.6,340.2,57.6,340.3z"/>
</svg>
