<svg xmlns="http://www.w3.org/2000/svg" width="443.29" height="397.62" viewBox="0 0 443.29 397.62">
  <g id="Grupo_94266" data-name="Grupo 94266" transform="translate(-260 -1945)">
    <path id="Trazado_191459" data-name="Trazado 191459" d="M51.76,0A51.76,51.76,0,1,1,0,51.76,51.76,51.76,0,0,1,51.76,0Z" transform="translate(515.12 1945)" fill="#35afea"/>
    <path id="Trazado_191460" data-name="Trazado 191460" d="M73.52,0A73.52,73.52,0,1,1,0,73.52,73.52,73.52,0,0,1,73.52,0Z" transform="translate(407.96 2060.41)" fill="#35afea"/>
    <path id="Trazado_191461" data-name="Trazado 191461" d="M51.76,0A51.76,51.76,0,1,1,0,51.76,51.76,51.76,0,0,1,51.76,0Z" transform="translate(345.33 1945)" fill="#35afea"/>
    <path id="Trazado_191462" data-name="Trazado 191462" d="M51.76,0A51.76,51.76,0,1,1,0,51.76,51.76,51.76,0,0,1,51.76,0Z" transform="translate(515.12 2239.1)" fill="#35afea"/>
    <path id="Trazado_191463" data-name="Trazado 191463" d="M51.76,0A51.76,51.76,0,1,1,0,51.76,51.76,51.76,0,0,1,51.76,0Z" transform="translate(599.77 2092.05)" fill="#35afea"/>
    <path id="Trazado_191464" data-name="Trazado 191464" d="M51.76,0A51.76,51.76,0,1,1,0,51.76,51.76,51.76,0,0,1,51.76,0Z" transform="translate(260 2092.05)" fill="#35afea"/>
    <path id="Trazado_191465" data-name="Trazado 191465" d="M51.76,0A51.76,51.76,0,1,1,0,51.76,51.76,51.76,0,0,1,51.76,0Z" transform="translate(345.33 2239.1)" fill="#35afea"/>
    <path id="Trazado_185479" data-name="Trazado 185479" d="M423.7,93.09a171.832,171.832,0,0,1,29.46,51.13" transform="translate(187.98 1941.76)" fill="none" stroke="#7395cb" stroke-linecap="round" stroke-miterlimit="10" stroke-width="5"/>
    <path id="Trazado_185480" data-name="Trazado 185480" d="M453.05,260.18a171.691,171.691,0,0,1-29.56,51.09" transform="translate(187.98 1941.76)" fill="none" stroke="#7395cb" stroke-linecap="round" stroke-miterlimit="10" stroke-width="5"/>
    <path id="Trazado_185481" data-name="Trazado 185481" d="M323,369.15a171.37,171.37,0,0,1-59-.06" transform="translate(187.98 1941.76)" fill="none" stroke="#7395cb" stroke-linecap="round" stroke-miterlimit="10" stroke-width="5"/>
    <path id="Trazado_185482" data-name="Trazado 185482" d="M163.62,311a171.72,171.72,0,0,1-29.46-51.14" transform="translate(187.98 1941.76)" fill="none" stroke="#7395cb" stroke-linecap="round" stroke-miterlimit="10" stroke-width="5"/>
    <path id="Trazado_185483" data-name="Trazado 185483" d="M134.28,143.92a171.48,171.48,0,0,1,29.55-51.08" transform="translate(187.98 1941.76)" fill="none" stroke="#7395cb" stroke-linecap="round" stroke-miterlimit="10" stroke-width="5"/>
    <path id="Trazado_185484" data-name="Trazado 185484" d="M264.31,35a171.37,171.37,0,0,1,59,.06" transform="translate(187.98 1941.76)" fill="none" stroke="#7395cb" stroke-linecap="round" stroke-miterlimit="10" stroke-width="5"/>
    <path id="Trazado_191466" data-name="Trazado 191466" d="M9.188,0H7.779L2.734-7.813a3.265,3.265,0,0,1-.314-.615H2.379a10.092,10.092,0,0,1,.055,1.347V0H1.285V-9.8h1.49l4.908,7.69q.308.479.4.656h.027A10.371,10.371,0,0,1,8.039-2.9V-9.8H9.188Zm2.994-8.777a.71.71,0,0,1-.513-.205.692.692,0,0,1-.212-.52.7.7,0,0,1,.212-.523.7.7,0,0,1,.513-.208.724.724,0,0,1,.523.208.7.7,0,0,1,.215.523.693.693,0,0,1-.215.513A.718.718,0,0,1,12.182-8.777ZM12.729,0H11.607V-7h1.121Z" transform="translate(542.05 1974.14)" fill="#fff"/>
    <path id="Trazado_191467" data-name="Trazado 191467" d="M6.638-7,3.849,0h-1.1L.1-7h1.23L3.1-1.914a4.565,4.565,0,0,1,.246.978h.027a4.622,4.622,0,0,1,.219-.95L5.455-7Z" transform="translate(555.43 1974.14)" fill="#fff"/>
    <path id="Trazado_191468" data-name="Trazado 191468" d="M6.761-3.22H1.818a2.618,2.618,0,0,0,.629,1.8A2.168,2.168,0,0,0,4.1-.779a3.439,3.439,0,0,0,2.174-.779V-.506a4.063,4.063,0,0,1-2.44.67A2.959,2.959,0,0,1,1.5-.79,3.9,3.9,0,0,1,.656-3.473a3.828,3.828,0,0,1,.926-2.663,2.97,2.97,0,0,1,2.3-1.029,2.632,2.632,0,0,1,2.126.889,3.705,3.705,0,0,1,.752,2.468ZM5.612-4.17a2.281,2.281,0,0,0-.468-1.511,1.6,1.6,0,0,0-1.282-.54,1.811,1.811,0,0,0-1.347.567A2.575,2.575,0,0,0,1.832-4.17ZM9.577,0H8.456V-10.363H9.577ZM21.656,0H20.535V-1.189h-.027A2.588,2.588,0,0,1,18.1.164a2.615,2.615,0,0,1-2.109-.94,3.856,3.856,0,0,1-.79-2.56,4.2,4.2,0,0,1,.875-2.782,2.886,2.886,0,0,1,2.331-1.046,2.244,2.244,0,0,1,2.1,1.135h.027v-4.334h1.121ZM20.535-3.165V-4.2a2,2,0,0,0-.561-1.436,1.88,1.88,0,0,0-1.422-.588,1.936,1.936,0,0,0-1.613.752,3.3,3.3,0,0,0-.588,2.078,2.964,2.964,0,0,0,.564,1.911,1.843,1.843,0,0,0,1.514.7,1.915,1.915,0,0,0,1.521-.677A2.521,2.521,0,0,0,20.535-3.165Zm9.017-.055H24.609a2.618,2.618,0,0,0,.629,1.8,2.168,2.168,0,0,0,1.654.636,3.439,3.439,0,0,0,2.174-.779V-.506a4.063,4.063,0,0,1-2.44.67A2.959,2.959,0,0,1,24.295-.79a3.9,3.9,0,0,1-.848-2.683,3.828,3.828,0,0,1,.926-2.663,2.97,2.97,0,0,1,2.3-1.029,2.632,2.632,0,0,1,2.126.889,3.705,3.705,0,0,1,.752,2.468ZM28.4-4.17a2.281,2.281,0,0,0-.468-1.511,1.6,1.6,0,0,0-1.282-.54,1.811,1.811,0,0,0-1.347.567,2.575,2.575,0,0,0-.684,1.483Z" transform="translate(562.12 1974.14)" fill="#fff"/>
    <path id="Trazado_191469" data-name="Trazado 191469" d="M5.906-.321A3.643,3.643,0,0,1,3.992.164,3.169,3.169,0,0,1,1.576-.81,3.53,3.53,0,0,1,.656-3.336a3.881,3.881,0,0,1,.991-2.779A3.467,3.467,0,0,1,4.293-7.164a3.682,3.682,0,0,1,1.627.342v1.148a2.85,2.85,0,0,0-1.668-.547,2.254,2.254,0,0,0-1.76.769A2.918,2.918,0,0,0,1.8-3.432,2.779,2.779,0,0,0,2.451-1.49a2.227,2.227,0,0,0,1.733.711,2.81,2.81,0,0,0,1.723-.608ZM12.612,0H11.491V-1.094h-.027A2.347,2.347,0,0,1,9.311.164,2.3,2.3,0,0,1,7.673-.39a1.918,1.918,0,0,1-.591-1.47q0-1.962,2.311-2.283l2.1-.294q0-1.784-1.442-1.784a3.446,3.446,0,0,0-2.283.861V-6.508a4.338,4.338,0,0,1,2.379-.656q2.468,0,2.468,2.611ZM11.491-3.541,9.8-3.309a2.741,2.741,0,0,0-1.176.386,1.114,1.114,0,0,0-.4.981A1.068,1.068,0,0,0,8.6-1.1a1.413,1.413,0,0,0,.974.325,1.8,1.8,0,0,0,1.377-.584,2.088,2.088,0,0,0,.543-1.48Zm4.382,2.529h-.027V3.22H14.725V-7h1.121v1.23h.027a2.651,2.651,0,0,1,2.42-1.395,2.563,2.563,0,0,1,2.112.94,3.893,3.893,0,0,1,.759,2.519A4.339,4.339,0,0,1,20.31-.892,2.845,2.845,0,0,1,17.972.164,2.342,2.342,0,0,1,15.873-1.012Zm-.027-2.823v.978a2.081,2.081,0,0,0,.564,1.473,1.873,1.873,0,0,0,1.432.6,1.876,1.876,0,0,0,1.6-.779,3.575,3.575,0,0,0,.578-2.167,2.822,2.822,0,0,0-.54-1.832,1.787,1.787,0,0,0-1.463-.663,1.986,1.986,0,0,0-1.572.68A2.5,2.5,0,0,0,15.846-3.835ZM27.966,0H26.845V-1.094h-.027A2.347,2.347,0,0,1,24.664.164,2.3,2.3,0,0,1,23.027-.39a1.918,1.918,0,0,1-.591-1.47q0-1.962,2.311-2.283l2.1-.294q0-1.784-1.442-1.784a3.446,3.446,0,0,0-2.283.861V-6.508A4.338,4.338,0,0,1,25.5-7.164q2.468,0,2.468,2.611ZM26.845-3.541l-1.688.232a2.741,2.741,0,0,0-1.176.386,1.114,1.114,0,0,0-.4.981,1.068,1.068,0,0,0,.366.837,1.413,1.413,0,0,0,.974.325A1.8,1.8,0,0,0,26.3-1.364a2.088,2.088,0,0,0,.543-1.48Zm8,3.22a3.643,3.643,0,0,1-1.914.485A3.169,3.169,0,0,1,30.519-.81,3.53,3.53,0,0,1,29.6-3.336a3.881,3.881,0,0,1,.991-2.779,3.467,3.467,0,0,1,2.646-1.049,3.682,3.682,0,0,1,1.627.342v1.148A2.85,2.85,0,0,0,33.2-6.221a2.254,2.254,0,0,0-1.76.769,2.918,2.918,0,0,0-.687,2.02,2.779,2.779,0,0,0,.646,1.941,2.227,2.227,0,0,0,1.733.711,2.81,2.81,0,0,0,1.723-.608Zm2.27-8.456a.71.71,0,0,1-.513-.205.692.692,0,0,1-.212-.52.7.7,0,0,1,.212-.523.7.7,0,0,1,.513-.208.724.724,0,0,1,.523.208.7.7,0,0,1,.215.523.693.693,0,0,1-.215.513A.718.718,0,0,1,37.119-8.777ZM37.666,0H36.545V-7h1.121ZM45.91,0H44.789V-1.189h-.027A2.588,2.588,0,0,1,42.355.164a2.615,2.615,0,0,1-2.109-.94,3.856,3.856,0,0,1-.79-2.56,4.2,4.2,0,0,1,.875-2.782,2.886,2.886,0,0,1,2.331-1.046,2.244,2.244,0,0,1,2.1,1.135h.027v-4.334H45.91ZM44.789-3.165V-4.2a2,2,0,0,0-.561-1.436,1.88,1.88,0,0,0-1.422-.588,1.936,1.936,0,0,0-1.613.752,3.3,3.3,0,0,0-.588,2.078,2.964,2.964,0,0,0,.564,1.911,1.843,1.843,0,0,0,1.514.7A1.915,1.915,0,0,0,44.2-1.456,2.521,2.521,0,0,0,44.789-3.165ZM53.19,0H52.069V-1.094h-.027A2.347,2.347,0,0,1,49.889.164,2.3,2.3,0,0,1,48.251-.39a1.918,1.918,0,0,1-.591-1.47q0-1.962,2.311-2.283l2.1-.294q0-1.784-1.442-1.784a3.446,3.446,0,0,0-2.283.861V-6.508a4.338,4.338,0,0,1,2.379-.656q2.468,0,2.468,2.611ZM52.069-3.541l-1.688.232a2.741,2.741,0,0,0-1.176.386,1.114,1.114,0,0,0-.4.981,1.068,1.068,0,0,0,.366.837,1.413,1.413,0,0,0,.974.325,1.8,1.8,0,0,0,1.377-.584,2.088,2.088,0,0,0,.543-1.48ZM61.277,0H60.156V-1.189h-.027A2.588,2.588,0,0,1,57.723.164a2.615,2.615,0,0,1-2.109-.94,3.856,3.856,0,0,1-.79-2.56A4.2,4.2,0,0,1,55.7-6.118,2.886,2.886,0,0,1,58.03-7.164a2.244,2.244,0,0,1,2.1,1.135h.027v-4.334h1.121ZM60.156-3.165V-4.2A2,2,0,0,0,59.6-5.633a1.88,1.88,0,0,0-1.422-.588,1.936,1.936,0,0,0-1.613.752,3.3,3.3,0,0,0-.588,2.078,2.964,2.964,0,0,0,.564,1.911,1.843,1.843,0,0,0,1.514.7,1.915,1.915,0,0,0,1.521-.677A2.521,2.521,0,0,0,60.156-3.165ZM73.22-4.942A9.63,9.63,0,0,1,73-2.762a5.081,5.081,0,0,1-.643,1.6,2.892,2.892,0,0,1-1.032.991,2.826,2.826,0,0,1-1.391.338,2.639,2.639,0,0,1-1.316-.325,2.758,2.758,0,0,1-.974-.947,4.8,4.8,0,0,1-.6-1.528A9.447,9.447,0,0,1,66.835-4.7a10.694,10.694,0,0,1,.215-2.27,5.191,5.191,0,0,1,.632-1.651,2.814,2.814,0,0,1,1.036-1,2.908,2.908,0,0,1,1.418-.338Q73.22-9.967,73.22-4.942Zm-1.148.109q0-4.184-1.989-4.184-2.1,0-2.1,4.259,0,3.972,2.058,3.972Q72.071-.786,72.071-4.833Zm3.247-.8a.726.726,0,0,1-.537-.226.743.743,0,0,1-.222-.54.72.72,0,0,1,.222-.533.737.737,0,0,1,.537-.219.757.757,0,0,1,.547.219.715.715,0,0,1,.226.533.737.737,0,0,1-.226.54A.745.745,0,0,1,75.318-5.633Zm0,5.783a.726.726,0,0,1-.537-.226.742.742,0,0,1-.222-.54.754.754,0,0,1,.222-.543.72.72,0,0,1,.537-.229.739.739,0,0,1,.547.229.748.748,0,0,1,.226.543.737.737,0,0,1-.226.54A.745.745,0,0,1,75.318.15Z" transform="translate(527.25 1990.939)" fill="#fff"/>
    <path id="Trazado_191470" data-name="Trazado 191470" d="M2.434,0H1.285V-9.8H2.434Zm8.237,0H9.55V-3.992q0-2.229-1.627-2.229a1.765,1.765,0,0,0-1.391.632,2.344,2.344,0,0,0-.55,1.6V0H4.86V-7H5.981v1.162h.027a2.526,2.526,0,0,1,2.3-1.326,2.142,2.142,0,0,1,1.757.742,3.3,3.3,0,0,1,.608,2.143Zm6.884-.321a3.643,3.643,0,0,1-1.914.485A3.169,3.169,0,0,1,13.224-.81,3.53,3.53,0,0,1,12.3-3.336,3.881,3.881,0,0,1,13.3-6.115a3.467,3.467,0,0,1,2.646-1.049,3.682,3.682,0,0,1,1.627.342v1.148A2.85,2.85,0,0,0,15.9-6.221a2.254,2.254,0,0,0-1.76.769,2.918,2.918,0,0,0-.687,2.02A2.779,2.779,0,0,0,14.1-1.49a2.227,2.227,0,0,0,1.733.711,2.81,2.81,0,0,0,1.723-.608Zm4.621.485A3.247,3.247,0,0,1,19.7-.817a3.633,3.633,0,0,1-.926-2.6,3.785,3.785,0,0,1,.964-2.755,3.465,3.465,0,0,1,2.6-.991,3.14,3.14,0,0,1,2.444.964,3.822,3.822,0,0,1,.878,2.673,3.761,3.761,0,0,1-.947,2.683A3.317,3.317,0,0,1,22.176.164Zm.082-6.385a2.132,2.132,0,0,0-1.709.735,3.018,3.018,0,0,0-.629,2.027A2.854,2.854,0,0,0,20.556-1.5a2.161,2.161,0,0,0,1.7.718,2.049,2.049,0,0,0,1.671-.7,3.055,3.055,0,0,0,.584-2,3.108,3.108,0,0,0-.584-2.023A2.04,2.04,0,0,0,22.258-6.221ZM37.393,0H36.271V-4.02A3.032,3.032,0,0,0,35.913-5.7a1.361,1.361,0,0,0-1.207-.52,1.494,1.494,0,0,0-1.22.656,2.511,2.511,0,0,0-.5,1.572V0H31.862V-4.156q0-2.064-1.593-2.064a1.475,1.475,0,0,0-1.217.619,2.557,2.557,0,0,0-.479,1.61V0H27.453V-7h1.121v1.107H28.6a2.378,2.378,0,0,1,2.174-1.271,2.027,2.027,0,0,1,1.251.4,2.012,2.012,0,0,1,.731,1.049,2.5,2.5,0,0,1,2.324-1.449q2.311,0,2.311,2.851ZM40.66-1.012h-.027V3.22H39.512V-7h1.121v1.23h.027a2.651,2.651,0,0,1,2.42-1.395,2.563,2.563,0,0,1,2.112.94,3.893,3.893,0,0,1,.759,2.519A4.339,4.339,0,0,1,45.1-.892,2.845,2.845,0,0,1,42.759.164,2.342,2.342,0,0,1,40.66-1.012Zm-.027-2.823v.978A2.081,2.081,0,0,0,41.2-1.384a1.873,1.873,0,0,0,1.432.6,1.876,1.876,0,0,0,1.6-.779A3.575,3.575,0,0,0,44.8-3.726a2.822,2.822,0,0,0-.54-1.832A1.787,1.787,0,0,0,42.8-6.221a1.986,1.986,0,0,0-1.572.68A2.5,2.5,0,0,0,40.633-3.835ZM48.863,0H47.742V-10.363h1.121Zm7.9-3.22H51.816a2.618,2.618,0,0,0,.629,1.8A2.168,2.168,0,0,0,54.1-.779a3.439,3.439,0,0,0,2.174-.779V-.506a4.063,4.063,0,0,1-2.44.67A2.959,2.959,0,0,1,51.5-.79a3.9,3.9,0,0,1-.848-2.683,3.828,3.828,0,0,1,.926-2.663,2.97,2.97,0,0,1,2.3-1.029,2.632,2.632,0,0,1,2.126.889,3.705,3.705,0,0,1,.752,2.468ZM55.61-4.17a2.281,2.281,0,0,0-.468-1.511,1.6,1.6,0,0,0-1.282-.54,1.811,1.811,0,0,0-1.347.567A2.575,2.575,0,0,0,51.83-4.17Z" transform="translate(531.78 2007.74)" fill="#fff"/>
    <path id="Trazado_191471" data-name="Trazado 191471" d="M4.382-.068A2.161,2.161,0,0,1,3.336.15Q1.5.15,1.5-1.9V-6.043H.294V-7H1.5V-8.709l1.121-.362V-7H4.382v.957H2.618V-2.1a1.635,1.635,0,0,0,.239,1,.955.955,0,0,0,.793.3,1.179,1.179,0,0,0,.731-.232Z" transform="translate(589.56 2007.74)" fill="#fff"/>
    <path id="Trazado_191472" data-name="Trazado 191472" d="M4.061.164A3.247,3.247,0,0,1,1.583-.817a3.633,3.633,0,0,1-.926-2.6A3.785,3.785,0,0,1,1.62-6.173a3.465,3.465,0,0,1,2.6-.991A3.14,3.14,0,0,1,6.668-6.2a3.822,3.822,0,0,1,.878,2.673A3.761,3.761,0,0,1,6.6-.844,3.317,3.317,0,0,1,4.061.164Zm.082-6.385a2.132,2.132,0,0,0-1.709.735A3.018,3.018,0,0,0,1.8-3.459,2.854,2.854,0,0,0,2.44-1.5a2.161,2.161,0,0,0,1.7.718,2.049,2.049,0,0,0,1.671-.7,3.055,3.055,0,0,0,.584-2A3.108,3.108,0,0,0,5.814-5.51,2.04,2.04,0,0,0,4.143-6.221Z" transform="translate(594 2007.74)" fill="#fff"/>
    <path id="Trazado_191473" data-name="Trazado 191473" d="M12.069,0H9.363L4.458-7.479a10.815,10.815,0,0,1-.6-.988H3.827q.066.631.066,1.926V0H1.361V-11.9H4.25L8.973-4.657q.324.49.6.971H9.6a12.727,12.727,0,0,1-.066-1.635V-11.9h2.532Zm3.793-9.845a1.532,1.532,0,0,1-1.087-.394,1.27,1.27,0,0,1-.423-.967,1.225,1.225,0,0,1,.423-.963,1.583,1.583,0,0,1,1.087-.374,1.579,1.579,0,0,1,1.092.374,1.231,1.231,0,0,1,.419.963,1.265,1.265,0,0,1-.419.979A1.558,1.558,0,0,1,15.863-9.845ZM17.158,0H14.535V-8.5h2.623Z" transform="translate(441.37 2111.939)" fill="#fff"/>
    <path id="Trazado_191474" data-name="Trazado 191474" d="M9.2-8.5,6.035,0H3.046L.033-8.5H2.839L4.316-3.262a7.649,7.649,0,0,1,.291,1.511H4.64a8.573,8.573,0,0,1,.307-1.461L6.458-8.5Z" transform="translate(457.88 2111.939)" fill="#fff"/>
    <path id="Trazado_191475" data-name="Trazado 191475" d="M8.741-3.5H3.2q.133,1.851,2.333,1.851a4.554,4.554,0,0,0,2.465-.664V-.423A6.477,6.477,0,0,1,4.931.208a4.312,4.312,0,0,1-3.2-1.141A4.312,4.312,0,0,1,.6-4.117,4.549,4.549,0,0,1,1.826-7.471,4.093,4.093,0,0,1,4.848-8.708,3.715,3.715,0,0,1,7.724-7.6a4.252,4.252,0,0,1,1.017,3ZM6.309-5.113q0-1.826-1.478-1.826a1.411,1.411,0,0,0-1.092.523,2.374,2.374,0,0,0-.56,1.3ZM12.924,0H10.3V-12.584h2.623Zm9.845-3.5H17.224q.133,1.851,2.333,1.851a4.554,4.554,0,0,0,2.465-.664V-.423a6.477,6.477,0,0,1-3.063.631,4.312,4.312,0,0,1-3.2-1.141,4.312,4.312,0,0,1-1.137-3.183,4.549,4.549,0,0,1,1.229-3.354,4.093,4.093,0,0,1,3.021-1.237,3.715,3.715,0,0,1,2.876,1.1,4.252,4.252,0,0,1,1.017,3Zm-2.432-1.61q0-1.826-1.478-1.826a1.411,1.411,0,0,0-1.092.523,2.374,2.374,0,0,0-.56,1.3ZM23.773-.224V-2.349a5.585,5.585,0,0,0,1.291.581,4.28,4.28,0,0,0,1.216.191,2.608,2.608,0,0,0,1.1-.191.617.617,0,0,0,.4-.581.538.538,0,0,0-.183-.415,1.7,1.7,0,0,0-.469-.291,5.322,5.322,0,0,0-.627-.224q-.34-.1-.656-.224a6.283,6.283,0,0,1-.892-.411,2.579,2.579,0,0,1-.647-.51,2.007,2.007,0,0,1-.4-.672,2.683,2.683,0,0,1-.137-.9,2.329,2.329,0,0,1,.311-1.229,2.543,2.543,0,0,1,.83-.843A3.793,3.793,0,0,1,26.1-8.554a6.189,6.189,0,0,1,1.39-.154,7.715,7.715,0,0,1,1.146.087,8.55,8.55,0,0,1,1.146.253v2.025a4.139,4.139,0,0,0-1.067-.436A4.5,4.5,0,0,0,27.6-6.923a2.474,2.474,0,0,0-.486.046,1.6,1.6,0,0,0-.4.133.739.739,0,0,0-.274.224.516.516,0,0,0-.1.311.575.575,0,0,0,.149.4,1.3,1.3,0,0,0,.39.286,3.851,3.851,0,0,0,.535.216q.295.1.585.2a7.608,7.608,0,0,1,.946.4,3.026,3.026,0,0,1,.726.506,1.988,1.988,0,0,1,.465.681,2.419,2.419,0,0,1,.162.93,2.425,2.425,0,0,1-.328,1.291,2.625,2.625,0,0,1-.872.872,3.953,3.953,0,0,1-1.253.49,6.949,6.949,0,0,1-1.473.154A7.6,7.6,0,0,1,23.773-.224ZM44.816,0H42.193V-1.17H42.16A2.941,2.941,0,0,1,39.528.208,3.223,3.223,0,0,1,36.963-.917a4.656,4.656,0,0,1-.971-3.142,5.068,5.068,0,0,1,1.071-3.378,3.493,3.493,0,0,1,2.806-1.27A2.387,2.387,0,0,1,42.16-7.529h.033v-5.055h2.623ZM42.243-4.134v-.639a2.011,2.011,0,0,0-.481-1.378A1.59,1.59,0,0,0,40.508-6.7a1.58,1.58,0,0,0-1.361.685,3.18,3.18,0,0,0-.49,1.88,2.752,2.752,0,0,0,.473,1.727,1.571,1.571,0,0,0,1.312.606,1.577,1.577,0,0,0,1.3-.639A2.664,2.664,0,0,0,42.243-4.134ZM54.661-3.5H49.116q.133,1.851,2.333,1.851a4.554,4.554,0,0,0,2.465-.664V-.423a6.477,6.477,0,0,1-3.063.631,4.312,4.312,0,0,1-3.2-1.141,4.312,4.312,0,0,1-1.137-3.183,4.549,4.549,0,0,1,1.229-3.354,4.093,4.093,0,0,1,3.021-1.237,3.715,3.715,0,0,1,2.876,1.1,4.252,4.252,0,0,1,1.017,3Zm-2.432-1.61q0-1.826-1.478-1.826a1.411,1.411,0,0,0-1.092.523,2.374,2.374,0,0,0-.56,1.3Z" transform="translate(466.36 2111.939)" fill="#fff"/>
    <path id="Trazado_191476" data-name="Trazado 191476" d="M7.545-.307A5.186,5.186,0,0,1,4.98.208,4.338,4.338,0,0,1,1.81-.979,4.1,4.1,0,0,1,.6-4.042,4.516,4.516,0,0,1,1.9-7.458,4.8,4.8,0,0,1,5.371-8.708a4.457,4.457,0,0,1,2.175.4v2.225A2.99,2.99,0,0,0,5.711-6.7a2.417,2.417,0,0,0-1.789.66,2.462,2.462,0,0,0-.66,1.822,2.422,2.422,0,0,0,.631,1.772A2.319,2.319,0,0,0,5.628-1.8a3.462,3.462,0,0,0,1.917-.614ZM16.336,0H13.854V-1.22h-.033A2.77,2.77,0,0,1,11.289.208a2.648,2.648,0,0,1-1.947-.7,2.513,2.513,0,0,1-.71-1.872q0-2.474,2.93-2.855l2.308-.307q0-1.395-1.511-1.395a5.157,5.157,0,0,0-2.889.9V-7.994a6.5,6.5,0,0,1,1.5-.5A7.876,7.876,0,0,1,12.7-8.708q3.636,0,3.636,3.627ZM13.871-3.453v-.573l-1.544.2q-1.278.166-1.278,1.154a.953.953,0,0,0,.311.735,1.2,1.2,0,0,0,.843.286,1.553,1.553,0,0,0,1.2-.51A1.844,1.844,0,0,0,13.871-3.453Zm7.2,2.465h-.033v4.9H18.411V-8.5h2.623v1.278h.033A3.083,3.083,0,0,1,23.8-8.708a3.072,3.072,0,0,1,2.552,1.133,4.824,4.824,0,0,1,.9,3.084A5.229,5.229,0,0,1,26.2-1.079,3.424,3.424,0,0,1,23.408.208,2.647,2.647,0,0,1,21.067-.988Zm-.075-3.486v.681a2.164,2.164,0,0,0,.465,1.436,1.513,1.513,0,0,0,1.22.556,1.608,1.608,0,0,0,1.39-.693,3.347,3.347,0,0,0,.494-1.963q0-2.241-1.743-2.241a1.637,1.637,0,0,0-1.316.61A2.433,2.433,0,0,0,20.993-4.474ZM35.859,0H33.377V-1.22h-.033A2.77,2.77,0,0,1,30.813.208a2.648,2.648,0,0,1-1.947-.7,2.513,2.513,0,0,1-.71-1.872q0-2.474,2.93-2.855l2.308-.307q0-1.395-1.511-1.395a5.157,5.157,0,0,0-2.889.9V-7.994a6.5,6.5,0,0,1,1.5-.5,7.876,7.876,0,0,1,1.731-.216q3.636,0,3.636,3.627ZM33.394-3.453v-.573l-1.544.2q-1.278.166-1.278,1.154a.953.953,0,0,0,.311.735,1.2,1.2,0,0,0,.843.286,1.553,1.553,0,0,0,1.2-.51A1.844,1.844,0,0,0,33.394-3.453ZM44.376-.307a5.186,5.186,0,0,1-2.565.515A4.338,4.338,0,0,1,38.64-.979a4.1,4.1,0,0,1-1.212-3.063,4.516,4.516,0,0,1,1.3-3.416A4.8,4.8,0,0,1,42.2-8.708a4.457,4.457,0,0,1,2.175.4v2.225A2.99,2.99,0,0,0,42.542-6.7a2.417,2.417,0,0,0-1.789.66,2.462,2.462,0,0,0-.66,1.822,2.422,2.422,0,0,0,.631,1.772,2.319,2.319,0,0,0,1.735.643,3.462,3.462,0,0,0,1.917-.614Zm3.046-9.538a1.532,1.532,0,0,1-1.087-.394,1.27,1.27,0,0,1-.423-.967,1.225,1.225,0,0,1,.423-.963,1.583,1.583,0,0,1,1.087-.374,1.579,1.579,0,0,1,1.092.374,1.231,1.231,0,0,1,.419.963,1.265,1.265,0,0,1-.419.979A1.558,1.558,0,0,1,47.422-9.845ZM48.717,0H46.094V-8.5h2.623ZM59.243,0H56.62V-1.17h-.033A2.941,2.941,0,0,1,53.955.208,3.223,3.223,0,0,1,51.39-.917a4.656,4.656,0,0,1-.971-3.142A5.068,5.068,0,0,1,51.49-7.437,3.493,3.493,0,0,1,54.3-8.708a2.387,2.387,0,0,1,2.291,1.179h.033v-5.055h2.623ZM56.669-4.134v-.639a2.011,2.011,0,0,0-.481-1.378A1.59,1.59,0,0,0,54.935-6.7a1.58,1.58,0,0,0-1.361.685,3.18,3.18,0,0,0-.49,1.88,2.752,2.752,0,0,0,.473,1.727,1.571,1.571,0,0,0,1.312.606,1.577,1.577,0,0,0,1.3-.639A2.664,2.664,0,0,0,56.669-4.134ZM68.523,0H66.041V-1.22h-.033A2.77,2.77,0,0,1,63.476.208a2.648,2.648,0,0,1-1.947-.7,2.513,2.513,0,0,1-.71-1.872q0-2.474,2.93-2.855l2.308-.307q0-1.395-1.511-1.395a5.157,5.157,0,0,0-2.889.9V-7.994a6.5,6.5,0,0,1,1.5-.5,7.876,7.876,0,0,1,1.731-.216q3.636,0,3.636,3.627ZM66.058-3.453v-.573l-1.544.2q-1.278.166-1.278,1.154a.953.953,0,0,0,.311.735,1.2,1.2,0,0,0,.843.286,1.553,1.553,0,0,0,1.2-.51A1.844,1.844,0,0,0,66.058-3.453ZM78.916,0H76.292V-1.17h-.033A2.941,2.941,0,0,1,73.628.208,3.223,3.223,0,0,1,71.063-.917a4.656,4.656,0,0,1-.971-3.142,5.068,5.068,0,0,1,1.071-3.378,3.493,3.493,0,0,1,2.806-1.27,2.387,2.387,0,0,1,2.291,1.179h.033v-5.055h2.623ZM76.342-4.134v-.639a2.011,2.011,0,0,0-.481-1.378A1.59,1.59,0,0,0,74.607-6.7a1.58,1.58,0,0,0-1.361.685,3.18,3.18,0,0,0-.49,1.88,2.752,2.752,0,0,0,.473,1.727,1.571,1.571,0,0,0,1.312.606,1.577,1.577,0,0,0,1.3-.639A2.664,2.664,0,0,0,76.342-4.134ZM94.131,0H91.508V-1.17h-.033A2.941,2.941,0,0,1,88.843.208,3.223,3.223,0,0,1,86.278-.917a4.656,4.656,0,0,1-.971-3.142,5.068,5.068,0,0,1,1.071-3.378,3.493,3.493,0,0,1,2.806-1.27,2.387,2.387,0,0,1,2.291,1.179h.033v-5.055h2.623ZM91.558-4.134v-.639a2.011,2.011,0,0,0-.481-1.378A1.59,1.59,0,0,0,89.823-6.7a1.58,1.58,0,0,0-1.361.685,3.18,3.18,0,0,0-.49,1.88,2.752,2.752,0,0,0,.473,1.727,1.571,1.571,0,0,0,1.312.606,1.577,1.577,0,0,0,1.3-.639A2.664,2.664,0,0,0,91.558-4.134Zm12.418.631H98.431q.133,1.851,2.333,1.851a4.554,4.554,0,0,0,2.465-.664V-.423a6.477,6.477,0,0,1-3.063.631,4.312,4.312,0,0,1-3.2-1.141,4.312,4.312,0,0,1-1.137-3.183,4.549,4.549,0,0,1,1.229-3.354,4.093,4.093,0,0,1,3.021-1.237,3.715,3.715,0,0,1,2.876,1.1,4.252,4.252,0,0,1,1.017,3Zm-2.432-1.61q0-1.826-1.478-1.826a1.411,1.411,0,0,0-1.092.523,2.374,2.374,0,0,0-.56,1.3ZM108.159,0h-2.623V-12.584h2.623Z" transform="translate(428.27 2132.34)" fill="#fff"/>
    <path id="Trazado_191477" data-name="Trazado 191477" d="M14.6,0H11.986V-4.848q0-1.851-1.361-1.851a1.251,1.251,0,0,0-1.054.556,2.285,2.285,0,0,0-.407,1.386V0H6.541V-4.9q0-1.8-1.336-1.8a1.281,1.281,0,0,0-1.075.531,2.338,2.338,0,0,0-.4,1.444V0H1.1V-8.5H3.727v1.328H3.76A3.136,3.136,0,0,1,4.9-8.28a3.137,3.137,0,0,1,1.606-.427A2.448,2.448,0,0,1,8.973-7.122a3.144,3.144,0,0,1,2.855-1.585q2.772,0,2.772,3.42Zm6.126.208A4.569,4.569,0,0,1,17.386-.984,4.318,4.318,0,0,1,16.17-4.217a4.319,4.319,0,0,1,1.262-3.3,4.767,4.767,0,0,1,3.412-1.191,4.514,4.514,0,0,1,3.32,1.191,4.234,4.234,0,0,1,1.2,3.15,4.5,4.5,0,0,1-1.241,3.345A4.62,4.62,0,0,1,20.727.208ZM20.793-6.7a1.75,1.75,0,0,0-1.444.639,2.818,2.818,0,0,0-.515,1.81q0,2.449,1.976,2.449,1.884,0,1.884-2.515Q22.694-6.7,20.793-6.7ZM35.386,0H32.763V-1.17H32.73A2.941,2.941,0,0,1,30.1.208,3.223,3.223,0,0,1,27.534-.917a4.656,4.656,0,0,1-.971-3.142,5.068,5.068,0,0,1,1.071-3.378,3.493,3.493,0,0,1,2.806-1.27A2.387,2.387,0,0,1,32.73-7.529h.033v-5.055h2.623ZM32.813-4.134v-.639a2.011,2.011,0,0,0-.481-1.378A1.59,1.59,0,0,0,31.078-6.7a1.58,1.58,0,0,0-1.361.685,3.18,3.18,0,0,0-.49,1.88A2.752,2.752,0,0,0,29.7-2.407a1.571,1.571,0,0,0,1.312.606,1.577,1.577,0,0,0,1.3-.639A2.664,2.664,0,0,0,32.813-4.134ZM45.231-3.5H39.686q.133,1.851,2.333,1.851a4.554,4.554,0,0,0,2.465-.664V-.423a6.477,6.477,0,0,1-3.063.631,4.312,4.312,0,0,1-3.2-1.141,4.312,4.312,0,0,1-1.137-3.183,4.549,4.549,0,0,1,1.229-3.354,4.093,4.093,0,0,1,3.021-1.237,3.715,3.715,0,0,1,2.876,1.1,4.252,4.252,0,0,1,1.017,3ZM42.8-5.113q0-1.826-1.478-1.826a1.411,1.411,0,0,0-1.092.523,2.374,2.374,0,0,0-.56,1.3ZM49.415,0H46.792V-12.584h2.623Zm6.259.208A4.569,4.569,0,0,1,52.332-.984a4.318,4.318,0,0,1-1.216-3.233,4.319,4.319,0,0,1,1.262-3.3A4.767,4.767,0,0,1,55.79-8.708a4.514,4.514,0,0,1,3.32,1.191,4.234,4.234,0,0,1,1.2,3.15,4.5,4.5,0,0,1-1.241,3.345A4.62,4.62,0,0,1,55.673.208ZM55.74-6.7A1.75,1.75,0,0,0,54.3-6.06a2.818,2.818,0,0,0-.515,1.81q0,2.449,1.976,2.449,1.884,0,1.884-2.515Q57.641-6.7,55.74-6.7ZM75.5-.423a7.849,7.849,0,0,1-3.4.631A5.737,5.737,0,0,1,67.784-1.4a5.886,5.886,0,0,1-1.569-4.292,6.289,6.289,0,0,1,1.764-4.632A6.17,6.17,0,0,1,72.557-12.1a8.561,8.561,0,0,1,2.938.44v2.582a5.207,5.207,0,0,0-2.723-.714,3.612,3.612,0,0,0-2.706,1.054,3.912,3.912,0,0,0-1.029,2.855,3.837,3.837,0,0,0,.971,2.752,3.431,3.431,0,0,0,2.615,1.025A5.577,5.577,0,0,0,75.5-2.872ZM91.134,0H88.486V-7.122q0-1.154.1-2.548H88.52a12.539,12.539,0,0,1-.374,1.577L85.357,0H83.166L80.327-8.01a15.586,15.586,0,0,1-.374-1.66h-.075q.108,1.76.108,3.088V0H77.571V-11.9H81.5l2.432,7.056a9.934,9.934,0,0,1,.423,1.7h.05a17.135,17.135,0,0,1,.473-1.718L87.308-11.9h3.827ZM107.4,0h-2.648V-7.122q0-1.154.1-2.548h-.066a12.539,12.539,0,0,1-.374,1.577L101.626,0H99.435L96.6-8.01a15.586,15.586,0,0,1-.374-1.66h-.075q.108,1.76.108,3.088V0H93.84V-11.9h3.926L100.2-4.848a9.934,9.934,0,0,1,.423,1.7h.05a17.135,17.135,0,0,1,.473-1.718l2.432-7.039H107.4Zm5.387,0H110.11V-11.9h2.681Z" transform="translate(427.52 2152.74)" fill="#fff"/>
    <path id="Trazado_191478" data-name="Trazado 191478" d="M9.188,0H7.779L2.734-7.813a3.265,3.265,0,0,1-.314-.615H2.379a10.092,10.092,0,0,1,.055,1.347V0H1.285V-9.8h1.49l4.908,7.69q.308.479.4.656h.027A10.371,10.371,0,0,1,8.039-2.9V-9.8H9.188Zm2.994-8.777a.71.71,0,0,1-.513-.205.692.692,0,0,1-.212-.52.7.7,0,0,1,.212-.523.7.7,0,0,1,.513-.208.724.724,0,0,1,.523.208.7.7,0,0,1,.215.523.693.693,0,0,1-.215.513A.718.718,0,0,1,12.182-8.777ZM12.729,0H11.607V-7h1.121Z" transform="translate(626.7 2126.939)" fill="#fff"/>
    <path id="Trazado_191479" data-name="Trazado 191479" d="M6.638-7,3.849,0h-1.1L.1-7h1.23L3.1-1.914a4.565,4.565,0,0,1,.246.978h.027a4.622,4.622,0,0,1,.219-.95L5.455-7Z" transform="translate(640.08 2126.939)" fill="#fff"/>
    <path id="Trazado_191480" data-name="Trazado 191480" d="M6.761-3.22H1.818a2.618,2.618,0,0,0,.629,1.8A2.168,2.168,0,0,0,4.1-.779a3.439,3.439,0,0,0,2.174-.779V-.506a4.063,4.063,0,0,1-2.44.67A2.959,2.959,0,0,1,1.5-.79,3.9,3.9,0,0,1,.656-3.473a3.828,3.828,0,0,1,.926-2.663,2.97,2.97,0,0,1,2.3-1.029,2.632,2.632,0,0,1,2.126.889,3.705,3.705,0,0,1,.752,2.468ZM5.612-4.17a2.281,2.281,0,0,0-.468-1.511,1.6,1.6,0,0,0-1.282-.54,1.811,1.811,0,0,0-1.347.567A2.575,2.575,0,0,0,1.832-4.17ZM9.577,0H8.456V-10.363H9.577ZM21.656,0H20.535V-1.189h-.027A2.588,2.588,0,0,1,18.1.164a2.615,2.615,0,0,1-2.109-.94,3.856,3.856,0,0,1-.79-2.56,4.2,4.2,0,0,1,.875-2.782,2.886,2.886,0,0,1,2.331-1.046,2.244,2.244,0,0,1,2.1,1.135h.027v-4.334h1.121ZM20.535-3.165V-4.2a2,2,0,0,0-.561-1.436,1.88,1.88,0,0,0-1.422-.588,1.936,1.936,0,0,0-1.613.752,3.3,3.3,0,0,0-.588,2.078,2.964,2.964,0,0,0,.564,1.911,1.843,1.843,0,0,0,1.514.7,1.915,1.915,0,0,0,1.521-.677A2.521,2.521,0,0,0,20.535-3.165Zm9.017-.055H24.609a2.618,2.618,0,0,0,.629,1.8,2.168,2.168,0,0,0,1.654.636,3.439,3.439,0,0,0,2.174-.779V-.506a4.063,4.063,0,0,1-2.44.67A2.959,2.959,0,0,1,24.295-.79a3.9,3.9,0,0,1-.848-2.683,3.828,3.828,0,0,1,.926-2.663,2.97,2.97,0,0,1,2.3-1.029,2.632,2.632,0,0,1,2.126.889,3.705,3.705,0,0,1,.752,2.468ZM28.4-4.17a2.281,2.281,0,0,0-.468-1.511,1.6,1.6,0,0,0-1.282-.54,1.811,1.811,0,0,0-1.347.567,2.575,2.575,0,0,0-.684,1.483Z" transform="translate(646.77 2126.939)" fill="#fff"/>
    <path id="Trazado_191481" data-name="Trazado 191481" d="M5.906-.321A3.643,3.643,0,0,1,3.992.164,3.169,3.169,0,0,1,1.576-.81,3.53,3.53,0,0,1,.656-3.336a3.881,3.881,0,0,1,.991-2.779A3.467,3.467,0,0,1,4.293-7.164a3.682,3.682,0,0,1,1.627.342v1.148a2.85,2.85,0,0,0-1.668-.547,2.254,2.254,0,0,0-1.76.769A2.918,2.918,0,0,0,1.8-3.432,2.779,2.779,0,0,0,2.451-1.49a2.227,2.227,0,0,0,1.733.711,2.81,2.81,0,0,0,1.723-.608ZM12.612,0H11.491V-1.094h-.027A2.347,2.347,0,0,1,9.311.164,2.3,2.3,0,0,1,7.673-.39a1.918,1.918,0,0,1-.591-1.47q0-1.962,2.311-2.283l2.1-.294q0-1.784-1.442-1.784a3.446,3.446,0,0,0-2.283.861V-6.508a4.338,4.338,0,0,1,2.379-.656q2.468,0,2.468,2.611ZM11.491-3.541,9.8-3.309a2.741,2.741,0,0,0-1.176.386,1.114,1.114,0,0,0-.4.981A1.068,1.068,0,0,0,8.6-1.1a1.413,1.413,0,0,0,.974.325,1.8,1.8,0,0,0,1.377-.584,2.088,2.088,0,0,0,.543-1.48Zm4.382,2.529h-.027V3.22H14.725V-7h1.121v1.23h.027a2.651,2.651,0,0,1,2.42-1.395,2.563,2.563,0,0,1,2.112.94,3.893,3.893,0,0,1,.759,2.519A4.339,4.339,0,0,1,20.31-.892,2.845,2.845,0,0,1,17.972.164,2.342,2.342,0,0,1,15.873-1.012Zm-.027-2.823v.978a2.081,2.081,0,0,0,.564,1.473,1.873,1.873,0,0,0,1.432.6,1.876,1.876,0,0,0,1.6-.779,3.575,3.575,0,0,0,.578-2.167,2.822,2.822,0,0,0-.54-1.832,1.787,1.787,0,0,0-1.463-.663,1.986,1.986,0,0,0-1.572.68A2.5,2.5,0,0,0,15.846-3.835ZM27.966,0H26.845V-1.094h-.027A2.347,2.347,0,0,1,24.664.164,2.3,2.3,0,0,1,23.027-.39a1.918,1.918,0,0,1-.591-1.47q0-1.962,2.311-2.283l2.1-.294q0-1.784-1.442-1.784a3.446,3.446,0,0,0-2.283.861V-6.508A4.338,4.338,0,0,1,25.5-7.164q2.468,0,2.468,2.611ZM26.845-3.541l-1.688.232a2.741,2.741,0,0,0-1.176.386,1.114,1.114,0,0,0-.4.981,1.068,1.068,0,0,0,.366.837,1.413,1.413,0,0,0,.974.325A1.8,1.8,0,0,0,26.3-1.364a2.088,2.088,0,0,0,.543-1.48Zm8,3.22a3.643,3.643,0,0,1-1.914.485A3.169,3.169,0,0,1,30.519-.81,3.53,3.53,0,0,1,29.6-3.336a3.881,3.881,0,0,1,.991-2.779,3.467,3.467,0,0,1,2.646-1.049,3.682,3.682,0,0,1,1.627.342v1.148A2.85,2.85,0,0,0,33.2-6.221a2.254,2.254,0,0,0-1.76.769,2.918,2.918,0,0,0-.687,2.02,2.779,2.779,0,0,0,.646,1.941,2.227,2.227,0,0,0,1.733.711,2.81,2.81,0,0,0,1.723-.608Zm2.27-8.456a.71.71,0,0,1-.513-.205.692.692,0,0,1-.212-.52.7.7,0,0,1,.212-.523.7.7,0,0,1,.513-.208.724.724,0,0,1,.523.208.7.7,0,0,1,.215.523.693.693,0,0,1-.215.513A.718.718,0,0,1,37.119-8.777ZM37.666,0H36.545V-7h1.121ZM45.91,0H44.789V-1.189h-.027A2.588,2.588,0,0,1,42.355.164a2.615,2.615,0,0,1-2.109-.94,3.856,3.856,0,0,1-.79-2.56,4.2,4.2,0,0,1,.875-2.782,2.886,2.886,0,0,1,2.331-1.046,2.244,2.244,0,0,1,2.1,1.135h.027v-4.334H45.91ZM44.789-3.165V-4.2a2,2,0,0,0-.561-1.436,1.88,1.88,0,0,0-1.422-.588,1.936,1.936,0,0,0-1.613.752,3.3,3.3,0,0,0-.588,2.078,2.964,2.964,0,0,0,.564,1.911,1.843,1.843,0,0,0,1.514.7A1.915,1.915,0,0,0,44.2-1.456,2.521,2.521,0,0,0,44.789-3.165ZM53.19,0H52.069V-1.094h-.027A2.347,2.347,0,0,1,49.889.164,2.3,2.3,0,0,1,48.251-.39a1.918,1.918,0,0,1-.591-1.47q0-1.962,2.311-2.283l2.1-.294q0-1.784-1.442-1.784a3.446,3.446,0,0,0-2.283.861V-6.508a4.338,4.338,0,0,1,2.379-.656q2.468,0,2.468,2.611ZM52.069-3.541l-1.688.232a2.741,2.741,0,0,0-1.176.386,1.114,1.114,0,0,0-.4.981,1.068,1.068,0,0,0,.366.837,1.413,1.413,0,0,0,.974.325,1.8,1.8,0,0,0,1.377-.584,2.088,2.088,0,0,0,.543-1.48ZM61.277,0H60.156V-1.189h-.027A2.588,2.588,0,0,1,57.723.164a2.615,2.615,0,0,1-2.109-.94,3.856,3.856,0,0,1-.79-2.56A4.2,4.2,0,0,1,55.7-6.118,2.886,2.886,0,0,1,58.03-7.164a2.244,2.244,0,0,1,2.1,1.135h.027v-4.334h1.121ZM60.156-3.165V-4.2A2,2,0,0,0,59.6-5.633a1.88,1.88,0,0,0-1.422-.588,1.936,1.936,0,0,0-1.613.752,3.3,3.3,0,0,0-.588,2.078,2.964,2.964,0,0,0,.564,1.911,1.843,1.843,0,0,0,1.514.7,1.915,1.915,0,0,0,1.521-.677A2.521,2.521,0,0,0,60.156-3.165ZM71.2,0H70.075V-8.47a2.6,2.6,0,0,1-.379.3,6.184,6.184,0,0,1-.561.332q-.311.164-.656.308a4.769,4.769,0,0,1-.673.226V-8.442a6.518,6.518,0,0,0,.783-.277q.414-.174.813-.39t.755-.451a6,6,0,0,0,.615-.461H71.2Zm4.122-5.633a.726.726,0,0,1-.537-.226.743.743,0,0,1-.222-.54.72.72,0,0,1,.222-.533.737.737,0,0,1,.537-.219.757.757,0,0,1,.547.219.715.715,0,0,1,.226.533.737.737,0,0,1-.226.54A.745.745,0,0,1,75.318-5.633Zm0,5.783a.726.726,0,0,1-.537-.226.742.742,0,0,1-.222-.54.754.754,0,0,1,.222-.543.72.72,0,0,1,.537-.229.739.739,0,0,1,.547.229.748.748,0,0,1,.226.543.737.737,0,0,1-.226.54A.745.745,0,0,1,75.318.15Z" transform="translate(611.9 2143.74)" fill="#fff"/>
    <path id="Trazado_191482" data-name="Trazado 191482" d="M8.313,0H6.945L5.3-2.748A5.985,5.985,0,0,0,4.867-3.4a2.494,2.494,0,0,0-.434-.441,1.5,1.5,0,0,0-.479-.25,1.968,1.968,0,0,0-.578-.079H2.434V0H1.285V-9.8H4.211A4.17,4.17,0,0,1,5.4-9.642a2.654,2.654,0,0,1,.943.489,2.271,2.271,0,0,1,.625.817,2.709,2.709,0,0,1,.226,1.145,2.757,2.757,0,0,1-.154.94,2.455,2.455,0,0,1-.437.762,2.652,2.652,0,0,1-.684.571,3.49,3.49,0,0,1-.9.366v.027a2.068,2.068,0,0,1,.427.25,2.351,2.351,0,0,1,.345.332,4.391,4.391,0,0,1,.325.434q.161.243.359.564ZM2.434-8.764v3.555H3.992a2.364,2.364,0,0,0,.8-.13,1.844,1.844,0,0,0,.632-.373,1.689,1.689,0,0,0,.417-.595,1.991,1.991,0,0,0,.15-.79,1.537,1.537,0,0,0-.509-1.227,2.188,2.188,0,0,0-1.473-.441ZM14.725-3.22H9.782a2.618,2.618,0,0,0,.629,1.8,2.168,2.168,0,0,0,1.654.636,3.439,3.439,0,0,0,2.174-.779V-.506a4.063,4.063,0,0,1-2.44.67A2.959,2.959,0,0,1,9.468-.79,3.9,3.9,0,0,1,8.62-3.473a3.828,3.828,0,0,1,.926-2.663,2.97,2.97,0,0,1,2.3-1.029,2.632,2.632,0,0,1,2.126.889,3.705,3.705,0,0,1,.752,2.468Zm-1.148-.95a2.281,2.281,0,0,0-.468-1.511,1.6,1.6,0,0,0-1.282-.54,1.811,1.811,0,0,0-1.347.567A2.575,2.575,0,0,0,9.8-4.17ZM21.431,0H20.31V-1.094h-.027A2.347,2.347,0,0,1,18.129.164,2.3,2.3,0,0,1,16.492-.39a1.918,1.918,0,0,1-.591-1.47q0-1.962,2.311-2.283l2.1-.294q0-1.784-1.442-1.784a3.446,3.446,0,0,0-2.283.861V-6.508a4.338,4.338,0,0,1,2.379-.656q2.468,0,2.468,2.611ZM20.31-3.541l-1.688.232a2.741,2.741,0,0,0-1.176.386,1.114,1.114,0,0,0-.4.981,1.068,1.068,0,0,0,.366.837,1.413,1.413,0,0,0,.974.325,1.8,1.8,0,0,0,1.377-.584,2.088,2.088,0,0,0,.543-1.48ZM24.664,0H23.543V-10.363h1.121Zm2.844-8.777A.71.71,0,0,1,27-8.982a.692.692,0,0,1-.212-.52A.7.7,0,0,1,27-10.025a.7.7,0,0,1,.513-.208.724.724,0,0,1,.523.208.7.7,0,0,1,.215.523.693.693,0,0,1-.215.513A.718.718,0,0,1,27.508-8.777ZM28.055,0H26.934V-7h1.121Zm7.15-6.679L31.063-.957h4.1V0H29.415V-.349l4.143-5.694H29.8V-7h5.4ZM41.665,0H40.544V-1.094h-.027A2.347,2.347,0,0,1,38.363.164,2.3,2.3,0,0,1,36.726-.39a1.918,1.918,0,0,1-.591-1.47q0-1.962,2.311-2.283l2.1-.294q0-1.784-1.442-1.784a3.446,3.446,0,0,0-2.283.861V-6.508A4.338,4.338,0,0,1,39.2-7.164q2.468,0,2.468,2.611ZM40.544-3.541l-1.688.232a2.741,2.741,0,0,0-1.176.386,1.114,1.114,0,0,0-.4.981,1.068,1.068,0,0,0,.366.837,1.413,1.413,0,0,0,.974.325A1.8,1.8,0,0,0,40-1.364a2.088,2.088,0,0,0,.543-1.48ZM49.752,0H48.631V-1.189H48.6A2.588,2.588,0,0,1,46.2.164a2.615,2.615,0,0,1-2.109-.94,3.856,3.856,0,0,1-.79-2.56,4.2,4.2,0,0,1,.875-2.782A2.886,2.886,0,0,1,46.5-7.164a2.244,2.244,0,0,1,2.1,1.135h.027v-4.334h1.121ZM48.631-3.165V-4.2a2,2,0,0,0-.561-1.436,1.88,1.88,0,0,0-1.422-.588,1.936,1.936,0,0,0-1.613.752,3.3,3.3,0,0,0-.588,2.078,2.964,2.964,0,0,0,.564,1.911,1.843,1.843,0,0,0,1.514.7,1.915,1.915,0,0,0,1.521-.677A2.521,2.521,0,0,0,48.631-3.165ZM54.947.164a3.247,3.247,0,0,1-2.478-.981,3.634,3.634,0,0,1-.926-2.6,3.785,3.785,0,0,1,.964-2.755,3.465,3.465,0,0,1,2.6-.991,3.14,3.14,0,0,1,2.444.964,3.822,3.822,0,0,1,.878,2.673,3.761,3.761,0,0,1-.947,2.683A3.317,3.317,0,0,1,54.947.164Zm.082-6.385a2.132,2.132,0,0,0-1.709.735,3.018,3.018,0,0,0-.629,2.027A2.854,2.854,0,0,0,53.327-1.5a2.161,2.161,0,0,0,1.7.718,2.049,2.049,0,0,0,1.671-.7,3.055,3.055,0,0,0,.584-2A3.108,3.108,0,0,0,56.7-5.51,2.04,2.04,0,0,0,55.029-6.221Z" transform="translate(621.09 2160.54)" fill="#fff"/>
    <path id="Trazado_191483" data-name="Trazado 191483" d="M9.188,0H7.779L2.734-7.813a3.265,3.265,0,0,1-.314-.615H2.379a10.092,10.092,0,0,1,.055,1.347V0H1.285V-9.8h1.49l4.908,7.69q.308.479.4.656h.027A10.371,10.371,0,0,1,8.039-2.9V-9.8H9.188Zm2.994-8.777a.71.71,0,0,1-.513-.205.692.692,0,0,1-.212-.52.7.7,0,0,1,.212-.523.7.7,0,0,1,.513-.208.724.724,0,0,1,.523.208.7.7,0,0,1,.215.523.693.693,0,0,1-.215.513A.718.718,0,0,1,12.182-8.777ZM12.729,0H11.607V-7h1.121Z" transform="translate(543.52 2274)" fill="#fff"/>
    <path id="Trazado_191484" data-name="Trazado 191484" d="M6.638-7,3.849,0h-1.1L.1-7h1.23L3.1-1.914a4.565,4.565,0,0,1,.246.978h.027a4.622,4.622,0,0,1,.219-.95L5.455-7Z" transform="translate(556.9 2274)" fill="#fff"/>
    <path id="Trazado_191485" data-name="Trazado 191485" d="M6.761-3.22H1.818a2.618,2.618,0,0,0,.629,1.8A2.168,2.168,0,0,0,4.1-.779a3.439,3.439,0,0,0,2.174-.779V-.506a4.063,4.063,0,0,1-2.44.67A2.959,2.959,0,0,1,1.5-.79,3.9,3.9,0,0,1,.656-3.473a3.828,3.828,0,0,1,.926-2.663,2.97,2.97,0,0,1,2.3-1.029,2.632,2.632,0,0,1,2.126.889,3.705,3.705,0,0,1,.752,2.468ZM5.612-4.17a2.281,2.281,0,0,0-.468-1.511,1.6,1.6,0,0,0-1.282-.54,1.811,1.811,0,0,0-1.347.567A2.575,2.575,0,0,0,1.832-4.17ZM9.577,0H8.456V-10.363H9.577ZM21.656,0H20.535V-1.189h-.027A2.588,2.588,0,0,1,18.1.164a2.615,2.615,0,0,1-2.109-.94,3.856,3.856,0,0,1-.79-2.56,4.2,4.2,0,0,1,.875-2.782,2.886,2.886,0,0,1,2.331-1.046,2.244,2.244,0,0,1,2.1,1.135h.027v-4.334h1.121ZM20.535-3.165V-4.2a2,2,0,0,0-.561-1.436,1.88,1.88,0,0,0-1.422-.588,1.936,1.936,0,0,0-1.613.752,3.3,3.3,0,0,0-.588,2.078,2.964,2.964,0,0,0,.564,1.911,1.843,1.843,0,0,0,1.514.7,1.915,1.915,0,0,0,1.521-.677A2.521,2.521,0,0,0,20.535-3.165Zm9.017-.055H24.609a2.618,2.618,0,0,0,.629,1.8,2.168,2.168,0,0,0,1.654.636,3.439,3.439,0,0,0,2.174-.779V-.506a4.063,4.063,0,0,1-2.44.67A2.959,2.959,0,0,1,24.295-.79a3.9,3.9,0,0,1-.848-2.683,3.828,3.828,0,0,1,.926-2.663,2.97,2.97,0,0,1,2.3-1.029,2.632,2.632,0,0,1,2.126.889,3.705,3.705,0,0,1,.752,2.468ZM28.4-4.17a2.281,2.281,0,0,0-.468-1.511,1.6,1.6,0,0,0-1.282-.54,1.811,1.811,0,0,0-1.347.567,2.575,2.575,0,0,0-.684,1.483Z" transform="translate(563.59 2274)" fill="#fff"/>
    <path id="Trazado_191486" data-name="Trazado 191486" d="M5.906-.321A3.643,3.643,0,0,1,3.992.164,3.169,3.169,0,0,1,1.576-.81,3.53,3.53,0,0,1,.656-3.336a3.881,3.881,0,0,1,.991-2.779A3.467,3.467,0,0,1,4.293-7.164a3.682,3.682,0,0,1,1.627.342v1.148a2.85,2.85,0,0,0-1.668-.547,2.254,2.254,0,0,0-1.76.769A2.918,2.918,0,0,0,1.8-3.432,2.779,2.779,0,0,0,2.451-1.49a2.227,2.227,0,0,0,1.733.711,2.81,2.81,0,0,0,1.723-.608ZM12.612,0H11.491V-1.094h-.027A2.347,2.347,0,0,1,9.311.164,2.3,2.3,0,0,1,7.673-.39a1.918,1.918,0,0,1-.591-1.47q0-1.962,2.311-2.283l2.1-.294q0-1.784-1.442-1.784a3.446,3.446,0,0,0-2.283.861V-6.508a4.338,4.338,0,0,1,2.379-.656q2.468,0,2.468,2.611ZM11.491-3.541,9.8-3.309a2.741,2.741,0,0,0-1.176.386,1.114,1.114,0,0,0-.4.981A1.068,1.068,0,0,0,8.6-1.1a1.413,1.413,0,0,0,.974.325,1.8,1.8,0,0,0,1.377-.584,2.088,2.088,0,0,0,.543-1.48Zm4.382,2.529h-.027V3.22H14.725V-7h1.121v1.23h.027a2.651,2.651,0,0,1,2.42-1.395,2.563,2.563,0,0,1,2.112.94,3.893,3.893,0,0,1,.759,2.519A4.339,4.339,0,0,1,20.31-.892,2.845,2.845,0,0,1,17.972.164,2.342,2.342,0,0,1,15.873-1.012Zm-.027-2.823v.978a2.081,2.081,0,0,0,.564,1.473,1.873,1.873,0,0,0,1.432.6,1.876,1.876,0,0,0,1.6-.779,3.575,3.575,0,0,0,.578-2.167,2.822,2.822,0,0,0-.54-1.832,1.787,1.787,0,0,0-1.463-.663,1.986,1.986,0,0,0-1.572.68A2.5,2.5,0,0,0,15.846-3.835ZM27.966,0H26.845V-1.094h-.027A2.347,2.347,0,0,1,24.664.164,2.3,2.3,0,0,1,23.027-.39a1.918,1.918,0,0,1-.591-1.47q0-1.962,2.311-2.283l2.1-.294q0-1.784-1.442-1.784a3.446,3.446,0,0,0-2.283.861V-6.508A4.338,4.338,0,0,1,25.5-7.164q2.468,0,2.468,2.611ZM26.845-3.541l-1.688.232a2.741,2.741,0,0,0-1.176.386,1.114,1.114,0,0,0-.4.981,1.068,1.068,0,0,0,.366.837,1.413,1.413,0,0,0,.974.325A1.8,1.8,0,0,0,26.3-1.364a2.088,2.088,0,0,0,.543-1.48Zm8,3.22a3.643,3.643,0,0,1-1.914.485A3.169,3.169,0,0,1,30.519-.81,3.53,3.53,0,0,1,29.6-3.336a3.881,3.881,0,0,1,.991-2.779,3.467,3.467,0,0,1,2.646-1.049,3.682,3.682,0,0,1,1.627.342v1.148A2.85,2.85,0,0,0,33.2-6.221a2.254,2.254,0,0,0-1.76.769,2.918,2.918,0,0,0-.687,2.02,2.779,2.779,0,0,0,.646,1.941,2.227,2.227,0,0,0,1.733.711,2.81,2.81,0,0,0,1.723-.608Zm2.27-8.456a.71.71,0,0,1-.513-.205.692.692,0,0,1-.212-.52.7.7,0,0,1,.212-.523.7.7,0,0,1,.513-.208.724.724,0,0,1,.523.208.7.7,0,0,1,.215.523.693.693,0,0,1-.215.513A.718.718,0,0,1,37.119-8.777ZM37.666,0H36.545V-7h1.121ZM45.91,0H44.789V-1.189h-.027A2.588,2.588,0,0,1,42.355.164a2.615,2.615,0,0,1-2.109-.94,3.856,3.856,0,0,1-.79-2.56,4.2,4.2,0,0,1,.875-2.782,2.886,2.886,0,0,1,2.331-1.046,2.244,2.244,0,0,1,2.1,1.135h.027v-4.334H45.91ZM44.789-3.165V-4.2a2,2,0,0,0-.561-1.436,1.88,1.88,0,0,0-1.422-.588,1.936,1.936,0,0,0-1.613.752,3.3,3.3,0,0,0-.588,2.078,2.964,2.964,0,0,0,.564,1.911,1.843,1.843,0,0,0,1.514.7A1.915,1.915,0,0,0,44.2-1.456,2.521,2.521,0,0,0,44.789-3.165ZM53.19,0H52.069V-1.094h-.027A2.347,2.347,0,0,1,49.889.164,2.3,2.3,0,0,1,48.251-.39a1.918,1.918,0,0,1-.591-1.47q0-1.962,2.311-2.283l2.1-.294q0-1.784-1.442-1.784a3.446,3.446,0,0,0-2.283.861V-6.508a4.338,4.338,0,0,1,2.379-.656q2.468,0,2.468,2.611ZM52.069-3.541l-1.688.232a2.741,2.741,0,0,0-1.176.386,1.114,1.114,0,0,0-.4.981,1.068,1.068,0,0,0,.366.837,1.413,1.413,0,0,0,.974.325,1.8,1.8,0,0,0,1.377-.584,2.088,2.088,0,0,0,.543-1.48ZM61.277,0H60.156V-1.189h-.027A2.588,2.588,0,0,1,57.723.164a2.615,2.615,0,0,1-2.109-.94,3.856,3.856,0,0,1-.79-2.56A4.2,4.2,0,0,1,55.7-6.118,2.886,2.886,0,0,1,58.03-7.164a2.244,2.244,0,0,1,2.1,1.135h.027v-4.334h1.121ZM60.156-3.165V-4.2A2,2,0,0,0,59.6-5.633a1.88,1.88,0,0,0-1.422-.588,1.936,1.936,0,0,0-1.613.752,3.3,3.3,0,0,0-.588,2.078,2.964,2.964,0,0,0,.564,1.911,1.843,1.843,0,0,0,1.514.7,1.915,1.915,0,0,0,1.521-.677A2.521,2.521,0,0,0,60.156-3.165ZM71.524-7.232a2.027,2.027,0,0,0-.14-.786A1.557,1.557,0,0,0,71-8.576a1.568,1.568,0,0,0-.571-.332,2.235,2.235,0,0,0-.711-.109,2.352,2.352,0,0,0-.643.089,3.124,3.124,0,0,0-.612.246,3.764,3.764,0,0,0-.574.376,4.148,4.148,0,0,0-.516.485v-1.2a3.352,3.352,0,0,1,1.056-.7,3.719,3.719,0,0,1,1.425-.243,3.441,3.441,0,0,1,1.114.174,2.555,2.555,0,0,1,.889.509,2.354,2.354,0,0,1,.591.827,2.79,2.79,0,0,1,.215,1.128,3.868,3.868,0,0,1-.133,1.053,3.256,3.256,0,0,1-.4.889,4.288,4.288,0,0,1-.68.8,9.635,9.635,0,0,1-.964.779q-.69.492-1.138.841a5.031,5.031,0,0,0-.711.653,1.9,1.9,0,0,0-.369.608,2.127,2.127,0,0,0-.106.7h4.881V0h-6.05V-.485a4.044,4.044,0,0,1,.137-1.107A2.876,2.876,0,0,1,67.58-2.5a5.046,5.046,0,0,1,.824-.861q.509-.431,1.248-.971a7.887,7.887,0,0,0,.892-.731,3.8,3.8,0,0,0,.578-.7,2.5,2.5,0,0,0,.311-.708A3.051,3.051,0,0,0,71.524-7.232Zm3.794,1.6a.726.726,0,0,1-.537-.226.743.743,0,0,1-.222-.54.72.72,0,0,1,.222-.533.737.737,0,0,1,.537-.219.757.757,0,0,1,.547.219.715.715,0,0,1,.226.533.737.737,0,0,1-.226.54A.745.745,0,0,1,75.318-5.633Zm0,5.783a.726.726,0,0,1-.537-.226.742.742,0,0,1-.222-.54.754.754,0,0,1,.222-.543.72.72,0,0,1,.537-.229.739.739,0,0,1,.547.229.748.748,0,0,1,.226.543.737.737,0,0,1-.226.54A.745.745,0,0,1,75.318.15Z" transform="translate(528.72 2290.8)" fill="#fff"/>
    <path id="Trazado_191487" data-name="Trazado 191487" d="M8.613-.67A6.555,6.555,0,0,1,5.332.164,4.484,4.484,0,0,1,1.938-1.189a4.964,4.964,0,0,1-1.3-3.582A5.1,5.1,0,0,1,2.082-8.507,4.905,4.905,0,0,1,5.729-9.967a6.206,6.206,0,0,1,2.687.52v1.271A5.159,5.159,0,0,0,5.6-8.928,3.519,3.519,0,0,0,2.9-7.793,4.15,4.15,0,0,0,1.846-4.854a4.153,4.153,0,0,0,.978,2.922A3.426,3.426,0,0,0,5.476-.868a4.1,4.1,0,0,0,1.989-.458V-4.074H5.318V-5.113H8.613Zm7.752-2.55H11.423a2.618,2.618,0,0,0,.629,1.8,2.168,2.168,0,0,0,1.654.636,3.439,3.439,0,0,0,2.174-.779V-.506a4.063,4.063,0,0,1-2.44.67A2.959,2.959,0,0,1,11.108-.79a3.9,3.9,0,0,1-.848-2.683,3.828,3.828,0,0,1,.926-2.663,2.97,2.97,0,0,1,2.3-1.029,2.632,2.632,0,0,1,2.126.889,3.705,3.705,0,0,1,.752,2.468Zm-1.148-.95a2.281,2.281,0,0,0-.468-1.511,1.6,1.6,0,0,0-1.282-.54,1.811,1.811,0,0,0-1.347.567,2.575,2.575,0,0,0-.684,1.483Zm2.42,3.917v-1.2a3.318,3.318,0,0,0,2.017.677q1.477,0,1.477-.984A.854.854,0,0,0,21-2.239a1.26,1.26,0,0,0-.342-.345,2.631,2.631,0,0,0-.506-.27q-.291-.12-.625-.25a8.056,8.056,0,0,1-.817-.373,2.468,2.468,0,0,1-.588-.424,1.577,1.577,0,0,1-.355-.537,1.9,1.9,0,0,1-.12-.7,1.673,1.673,0,0,1,.226-.872,2,2,0,0,1,.6-.636,2.805,2.805,0,0,1,.858-.386,3.805,3.805,0,0,1,.995-.13,4.016,4.016,0,0,1,1.627.314v1.135a3.171,3.171,0,0,0-1.777-.506,2.078,2.078,0,0,0-.567.072,1.389,1.389,0,0,0-.434.2.932.932,0,0,0-.28.311.819.819,0,0,0-.1.4.959.959,0,0,0,.1.458,1.008,1.008,0,0,0,.291.328,2.221,2.221,0,0,0,.465.26q.273.116.622.253a8.658,8.658,0,0,1,.834.366,2.86,2.86,0,0,1,.629.424,1.656,1.656,0,0,1,.4.543,1.753,1.753,0,0,1,.14.731,1.725,1.725,0,0,1-.229.9,1.963,1.963,0,0,1-.612.636,2.8,2.8,0,0,1-.882.376A4.354,4.354,0,0,1,19.51.164,3.971,3.971,0,0,1,17.637-.253Zm9.611.185A2.161,2.161,0,0,1,26.2.15Q24.363.15,24.363-1.9V-6.043h-1.2V-7h1.2V-8.709l1.121-.362V-7h1.764v.957H25.484V-2.1a1.635,1.635,0,0,0,.239,1,.955.955,0,0,0,.793.3,1.179,1.179,0,0,0,.731-.232Zm2.071-8.709a.71.71,0,0,1-.513-.205.692.692,0,0,1-.212-.52.7.7,0,0,1,.212-.523.7.7,0,0,1,.513-.208.724.724,0,0,1,.523.208.7.7,0,0,1,.215.523.693.693,0,0,1-.215.513A.718.718,0,0,1,29.319-8.777ZM29.866,0H28.745V-7h1.121Zm5.2.164a3.247,3.247,0,0,1-2.478-.981,3.633,3.633,0,0,1-.926-2.6,3.785,3.785,0,0,1,.964-2.755,3.465,3.465,0,0,1,2.6-.991,3.14,3.14,0,0,1,2.444.964,3.822,3.822,0,0,1,.878,2.673A3.761,3.761,0,0,1,37.6-.844,3.317,3.317,0,0,1,35.062.164Zm.082-6.385a2.132,2.132,0,0,0-1.709.735,3.018,3.018,0,0,0-.629,2.027A2.854,2.854,0,0,0,33.441-1.5a2.161,2.161,0,0,0,1.7.718,2.049,2.049,0,0,0,1.671-.7,3.055,3.055,0,0,0,.584-2,3.108,3.108,0,0,0-.584-2.023A2.04,2.04,0,0,0,35.144-6.221ZM46.149,0H45.028V-3.992q0-2.229-1.627-2.229a1.765,1.765,0,0,0-1.391.632,2.344,2.344,0,0,0-.55,1.6V0H40.339V-7H41.46v1.162h.027a2.526,2.526,0,0,1,2.3-1.326,2.142,2.142,0,0,1,1.757.742,3.3,3.3,0,0,1,.608,2.143Zm7.123,0H52.151V-1.094h-.027A2.347,2.347,0,0,1,49.971.164,2.3,2.3,0,0,1,48.333-.39a1.918,1.918,0,0,1-.591-1.47q0-1.962,2.311-2.283l2.1-.294q0-1.784-1.442-1.784a3.446,3.446,0,0,0-2.283.861V-6.508A4.338,4.338,0,0,1,50.8-7.164q2.468,0,2.468,2.611ZM52.151-3.541l-1.688.232a2.741,2.741,0,0,0-1.176.386,1.114,1.114,0,0,0-.4.981,1.068,1.068,0,0,0,.366.837,1.413,1.413,0,0,0,.974.325,1.8,1.8,0,0,0,1.377-.584,2.088,2.088,0,0,0,.543-1.48ZM61.359,0H60.238V-1.189h-.027A2.588,2.588,0,0,1,57.8.164,2.615,2.615,0,0,1,55.7-.776a3.856,3.856,0,0,1-.79-2.56,4.2,4.2,0,0,1,.875-2.782,2.886,2.886,0,0,1,2.331-1.046,2.244,2.244,0,0,1,2.1,1.135h.027v-4.334h1.121ZM60.238-3.165V-4.2a2,2,0,0,0-.561-1.436,1.88,1.88,0,0,0-1.422-.588,1.936,1.936,0,0,0-1.613.752,3.3,3.3,0,0,0-.588,2.078,2.964,2.964,0,0,0,.564,1.911,1.843,1.843,0,0,0,1.514.7,1.915,1.915,0,0,0,1.521-.677A2.521,2.521,0,0,0,60.238-3.165ZM66.555.164a3.247,3.247,0,0,1-2.478-.981,3.634,3.634,0,0,1-.926-2.6,3.785,3.785,0,0,1,.964-2.755,3.465,3.465,0,0,1,2.6-.991,3.14,3.14,0,0,1,2.444.964,3.822,3.822,0,0,1,.878,2.673,3.761,3.761,0,0,1-.947,2.683A3.317,3.317,0,0,1,66.555.164Zm.082-6.385a2.132,2.132,0,0,0-1.709.735A3.018,3.018,0,0,0,64.3-3.459,2.854,2.854,0,0,0,64.935-1.5a2.161,2.161,0,0,0,1.7.718,2.049,2.049,0,0,0,1.671-.7,3.055,3.055,0,0,0,.584-2,3.108,3.108,0,0,0-.584-2.023A2.04,2.04,0,0,0,66.637-6.221Z" transform="translate(532.68 2307.6)" fill="#fff"/>
    <path id="Trazado_191488" data-name="Trazado 191488" d="M9.188,0H7.779L2.734-7.813a3.265,3.265,0,0,1-.314-.615H2.379a10.092,10.092,0,0,1,.055,1.347V0H1.285V-9.8h1.49l4.908,7.69q.308.479.4.656h.027A10.371,10.371,0,0,1,8.039-2.9V-9.8H9.188Zm2.994-8.777a.71.71,0,0,1-.513-.205.692.692,0,0,1-.212-.52.7.7,0,0,1,.212-.523.7.7,0,0,1,.513-.208.724.724,0,0,1,.523.208.7.7,0,0,1,.215.523.693.693,0,0,1-.215.513A.718.718,0,0,1,12.182-8.777ZM12.729,0H11.607V-7h1.121Z" transform="translate(373.73 2274)" fill="#fff"/>
    <path id="Trazado_191489" data-name="Trazado 191489" d="M6.638-7,3.849,0h-1.1L.1-7h1.23L3.1-1.914a4.565,4.565,0,0,1,.246.978h.027a4.622,4.622,0,0,1,.219-.95L5.455-7Z" transform="translate(387.11 2274)" fill="#fff"/>
    <path id="Trazado_191490" data-name="Trazado 191490" d="M6.761-3.22H1.818a2.618,2.618,0,0,0,.629,1.8A2.168,2.168,0,0,0,4.1-.779a3.439,3.439,0,0,0,2.174-.779V-.506a4.063,4.063,0,0,1-2.44.67A2.959,2.959,0,0,1,1.5-.79,3.9,3.9,0,0,1,.656-3.473a3.828,3.828,0,0,1,.926-2.663,2.97,2.97,0,0,1,2.3-1.029,2.632,2.632,0,0,1,2.126.889,3.705,3.705,0,0,1,.752,2.468ZM5.612-4.17a2.281,2.281,0,0,0-.468-1.511,1.6,1.6,0,0,0-1.282-.54,1.811,1.811,0,0,0-1.347.567A2.575,2.575,0,0,0,1.832-4.17ZM9.577,0H8.456V-10.363H9.577ZM21.656,0H20.535V-1.189h-.027A2.588,2.588,0,0,1,18.1.164a2.615,2.615,0,0,1-2.109-.94,3.856,3.856,0,0,1-.79-2.56,4.2,4.2,0,0,1,.875-2.782,2.886,2.886,0,0,1,2.331-1.046,2.244,2.244,0,0,1,2.1,1.135h.027v-4.334h1.121ZM20.535-3.165V-4.2a2,2,0,0,0-.561-1.436,1.88,1.88,0,0,0-1.422-.588,1.936,1.936,0,0,0-1.613.752,3.3,3.3,0,0,0-.588,2.078,2.964,2.964,0,0,0,.564,1.911,1.843,1.843,0,0,0,1.514.7,1.915,1.915,0,0,0,1.521-.677A2.521,2.521,0,0,0,20.535-3.165Zm9.017-.055H24.609a2.618,2.618,0,0,0,.629,1.8,2.168,2.168,0,0,0,1.654.636,3.439,3.439,0,0,0,2.174-.779V-.506a4.063,4.063,0,0,1-2.44.67A2.959,2.959,0,0,1,24.295-.79a3.9,3.9,0,0,1-.848-2.683,3.828,3.828,0,0,1,.926-2.663,2.97,2.97,0,0,1,2.3-1.029,2.632,2.632,0,0,1,2.126.889,3.705,3.705,0,0,1,.752,2.468ZM28.4-4.17a2.281,2.281,0,0,0-.468-1.511,1.6,1.6,0,0,0-1.282-.54,1.811,1.811,0,0,0-1.347.567,2.575,2.575,0,0,0-.684,1.483Z" transform="translate(393.8 2274)" fill="#fff"/>
    <path id="Trazado_191491" data-name="Trazado 191491" d="M5.906-.321A3.643,3.643,0,0,1,3.992.164,3.169,3.169,0,0,1,1.576-.81,3.53,3.53,0,0,1,.656-3.336a3.881,3.881,0,0,1,.991-2.779A3.467,3.467,0,0,1,4.293-7.164a3.682,3.682,0,0,1,1.627.342v1.148a2.85,2.85,0,0,0-1.668-.547,2.254,2.254,0,0,0-1.76.769A2.918,2.918,0,0,0,1.8-3.432,2.779,2.779,0,0,0,2.451-1.49a2.227,2.227,0,0,0,1.733.711,2.81,2.81,0,0,0,1.723-.608ZM12.612,0H11.491V-1.094h-.027A2.347,2.347,0,0,1,9.311.164,2.3,2.3,0,0,1,7.673-.39a1.918,1.918,0,0,1-.591-1.47q0-1.962,2.311-2.283l2.1-.294q0-1.784-1.442-1.784a3.446,3.446,0,0,0-2.283.861V-6.508a4.338,4.338,0,0,1,2.379-.656q2.468,0,2.468,2.611ZM11.491-3.541,9.8-3.309a2.741,2.741,0,0,0-1.176.386,1.114,1.114,0,0,0-.4.981A1.068,1.068,0,0,0,8.6-1.1a1.413,1.413,0,0,0,.974.325,1.8,1.8,0,0,0,1.377-.584,2.088,2.088,0,0,0,.543-1.48Zm4.382,2.529h-.027V3.22H14.725V-7h1.121v1.23h.027a2.651,2.651,0,0,1,2.42-1.395,2.563,2.563,0,0,1,2.112.94,3.893,3.893,0,0,1,.759,2.519A4.339,4.339,0,0,1,20.31-.892,2.845,2.845,0,0,1,17.972.164,2.342,2.342,0,0,1,15.873-1.012Zm-.027-2.823v.978a2.081,2.081,0,0,0,.564,1.473,1.873,1.873,0,0,0,1.432.6,1.876,1.876,0,0,0,1.6-.779,3.575,3.575,0,0,0,.578-2.167,2.822,2.822,0,0,0-.54-1.832,1.787,1.787,0,0,0-1.463-.663,1.986,1.986,0,0,0-1.572.68A2.5,2.5,0,0,0,15.846-3.835ZM27.966,0H26.845V-1.094h-.027A2.347,2.347,0,0,1,24.664.164,2.3,2.3,0,0,1,23.027-.39a1.918,1.918,0,0,1-.591-1.47q0-1.962,2.311-2.283l2.1-.294q0-1.784-1.442-1.784a3.446,3.446,0,0,0-2.283.861V-6.508A4.338,4.338,0,0,1,25.5-7.164q2.468,0,2.468,2.611ZM26.845-3.541l-1.688.232a2.741,2.741,0,0,0-1.176.386,1.114,1.114,0,0,0-.4.981,1.068,1.068,0,0,0,.366.837,1.413,1.413,0,0,0,.974.325A1.8,1.8,0,0,0,26.3-1.364a2.088,2.088,0,0,0,.543-1.48Zm8,3.22a3.643,3.643,0,0,1-1.914.485A3.169,3.169,0,0,1,30.519-.81,3.53,3.53,0,0,1,29.6-3.336a3.881,3.881,0,0,1,.991-2.779,3.467,3.467,0,0,1,2.646-1.049,3.682,3.682,0,0,1,1.627.342v1.148A2.85,2.85,0,0,0,33.2-6.221a2.254,2.254,0,0,0-1.76.769,2.918,2.918,0,0,0-.687,2.02,2.779,2.779,0,0,0,.646,1.941,2.227,2.227,0,0,0,1.733.711,2.81,2.81,0,0,0,1.723-.608Zm2.27-8.456a.71.71,0,0,1-.513-.205.692.692,0,0,1-.212-.52.7.7,0,0,1,.212-.523.7.7,0,0,1,.513-.208.724.724,0,0,1,.523.208.7.7,0,0,1,.215.523.693.693,0,0,1-.215.513A.718.718,0,0,1,37.119-8.777ZM37.666,0H36.545V-7h1.121ZM45.91,0H44.789V-1.189h-.027A2.588,2.588,0,0,1,42.355.164a2.615,2.615,0,0,1-2.109-.94,3.856,3.856,0,0,1-.79-2.56,4.2,4.2,0,0,1,.875-2.782,2.886,2.886,0,0,1,2.331-1.046,2.244,2.244,0,0,1,2.1,1.135h.027v-4.334H45.91ZM44.789-3.165V-4.2a2,2,0,0,0-.561-1.436,1.88,1.88,0,0,0-1.422-.588,1.936,1.936,0,0,0-1.613.752,3.3,3.3,0,0,0-.588,2.078,2.964,2.964,0,0,0,.564,1.911,1.843,1.843,0,0,0,1.514.7A1.915,1.915,0,0,0,44.2-1.456,2.521,2.521,0,0,0,44.789-3.165ZM53.19,0H52.069V-1.094h-.027A2.347,2.347,0,0,1,49.889.164,2.3,2.3,0,0,1,48.251-.39a1.918,1.918,0,0,1-.591-1.47q0-1.962,2.311-2.283l2.1-.294q0-1.784-1.442-1.784a3.446,3.446,0,0,0-2.283.861V-6.508a4.338,4.338,0,0,1,2.379-.656q2.468,0,2.468,2.611ZM52.069-3.541l-1.688.232a2.741,2.741,0,0,0-1.176.386,1.114,1.114,0,0,0-.4.981,1.068,1.068,0,0,0,.366.837,1.413,1.413,0,0,0,.974.325,1.8,1.8,0,0,0,1.377-.584,2.088,2.088,0,0,0,.543-1.48ZM61.277,0H60.156V-1.189h-.027A2.588,2.588,0,0,1,57.723.164a2.615,2.615,0,0,1-2.109-.94,3.856,3.856,0,0,1-.79-2.56A4.2,4.2,0,0,1,55.7-6.118,2.886,2.886,0,0,1,58.03-7.164a2.244,2.244,0,0,1,2.1,1.135h.027v-4.334h1.121ZM60.156-3.165V-4.2A2,2,0,0,0,59.6-5.633a1.88,1.88,0,0,0-1.422-.588,1.936,1.936,0,0,0-1.613.752,3.3,3.3,0,0,0-.588,2.078,2.964,2.964,0,0,0,.564,1.911,1.843,1.843,0,0,0,1.514.7,1.915,1.915,0,0,0,1.521-.677A2.521,2.521,0,0,0,60.156-3.165Zm12.605.39a2.858,2.858,0,0,1-.25,1.207,2.664,2.664,0,0,1-.7.93,3.25,3.25,0,0,1-1.09.6,4.41,4.41,0,0,1-1.4.212,4.072,4.072,0,0,1-2.229-.533v-1.2a3.571,3.571,0,0,0,2.27.779,3.084,3.084,0,0,0,.926-.13,2.077,2.077,0,0,0,.711-.376,1.67,1.67,0,0,0,.458-.595,1.857,1.857,0,0,0,.161-.786q0-1.921-2.734-1.921h-.813v-.95h.772q2.42,0,2.42-1.8,0-1.668-1.846-1.668a3.143,3.143,0,0,0-1.948.7V-9.406a4.259,4.259,0,0,1,2.229-.561,3.424,3.424,0,0,1,1.114.171,2.553,2.553,0,0,1,.854.479,2.121,2.121,0,0,1,.55.738,2.279,2.279,0,0,1,.195.95,2.393,2.393,0,0,1-1.955,2.488v.027a3.093,3.093,0,0,1,.923.243,2.463,2.463,0,0,1,.731.489,2.179,2.179,0,0,1,.482.708A2.259,2.259,0,0,1,72.762-2.775Zm2.557-2.857a.726.726,0,0,1-.537-.226.743.743,0,0,1-.222-.54.72.72,0,0,1,.222-.533.737.737,0,0,1,.537-.219.757.757,0,0,1,.547.219.715.715,0,0,1,.226.533.737.737,0,0,1-.226.54A.745.745,0,0,1,75.318-5.633Zm0,5.783a.726.726,0,0,1-.537-.226.742.742,0,0,1-.222-.54.754.754,0,0,1,.222-.543.72.72,0,0,1,.537-.229.739.739,0,0,1,.547.229.748.748,0,0,1,.226.543.737.737,0,0,1-.226.54A.745.745,0,0,1,75.318.15Z" transform="translate(358.93 2290.8)" fill="#fff"/>
    <path id="Trazado_191492" data-name="Trazado 191492" d="M1.285,0V-9.8H3.992q5.182,0,5.182,4.778A4.815,4.815,0,0,1,7.735-1.377,5.338,5.338,0,0,1,3.883,0ZM2.434-8.764v7.725H3.9a4.152,4.152,0,0,0,3-1.032A3.869,3.869,0,0,0,7.971-5q0-3.767-4.006-3.767ZM16.577-3.22H11.635a2.618,2.618,0,0,0,.629,1.8,2.168,2.168,0,0,0,1.654.636,3.439,3.439,0,0,0,2.174-.779V-.506a4.063,4.063,0,0,1-2.44.67A2.959,2.959,0,0,1,11.32-.79a3.9,3.9,0,0,1-.848-2.683A3.828,3.828,0,0,1,11.4-6.135a2.97,2.97,0,0,1,2.3-1.029,2.632,2.632,0,0,1,2.126.889,3.705,3.705,0,0,1,.752,2.468Zm-1.148-.95a2.281,2.281,0,0,0-.468-1.511,1.6,1.6,0,0,0-1.282-.54,1.811,1.811,0,0,0-1.347.567,2.575,2.575,0,0,0-.684,1.483Zm6.3-5.209a1.493,1.493,0,0,0-.745-.185q-1.176,0-1.176,1.483V-7h1.641v.957H19.811V0H18.7V-6.043H17.5V-7h1.2V-8.135a2.358,2.358,0,0,1,.636-1.74,2.146,2.146,0,0,1,1.586-.639,2.2,2.2,0,0,1,.813.123Zm1.5.6a.71.71,0,0,1-.513-.205A.692.692,0,0,1,22.5-9.5a.7.7,0,0,1,.212-.523.7.7,0,0,1,.513-.208.724.724,0,0,1,.523.208.7.7,0,0,1,.215.523.693.693,0,0,1-.215.513A.718.718,0,0,1,23.229-8.777ZM23.775,0H22.654V-7h1.121Zm8.08,0H30.734V-3.992q0-2.229-1.627-2.229a1.765,1.765,0,0,0-1.391.632,2.344,2.344,0,0,0-.55,1.6V0H26.045V-7h1.121v1.162h.027a2.526,2.526,0,0,1,2.3-1.326,2.142,2.142,0,0,1,1.757.742,3.3,3.3,0,0,1,.608,2.143Zm2.687-8.777a.71.71,0,0,1-.513-.205.692.692,0,0,1-.212-.52.7.7,0,0,1,.212-.523.7.7,0,0,1,.513-.208.724.724,0,0,1,.523.208.7.7,0,0,1,.215.523.693.693,0,0,1-.215.513A.718.718,0,0,1,34.542-8.777ZM35.089,0H33.968V-7h1.121ZM42.13-.321a3.643,3.643,0,0,1-1.914.485A3.169,3.169,0,0,1,37.8-.81a3.53,3.53,0,0,1-.919-2.526,3.881,3.881,0,0,1,.991-2.779,3.468,3.468,0,0,1,2.646-1.049,3.682,3.682,0,0,1,1.627.342v1.148a2.85,2.85,0,0,0-1.668-.547,2.254,2.254,0,0,0-1.76.769,2.918,2.918,0,0,0-.687,2.02,2.779,2.779,0,0,0,.646,1.941,2.227,2.227,0,0,0,1.733.711,2.81,2.81,0,0,0,1.723-.608Zm4.621.485a3.247,3.247,0,0,1-2.478-.981,3.634,3.634,0,0,1-.926-2.6,3.785,3.785,0,0,1,.964-2.755,3.465,3.465,0,0,1,2.6-.991,3.14,3.14,0,0,1,2.444.964,3.822,3.822,0,0,1,.878,2.673,3.761,3.761,0,0,1-.947,2.683A3.317,3.317,0,0,1,46.751.164Zm.082-6.385a2.132,2.132,0,0,0-1.709.735A3.018,3.018,0,0,0,44.5-3.459,2.854,2.854,0,0,0,45.131-1.5a2.161,2.161,0,0,0,1.7.718,2.049,2.049,0,0,0,1.671-.7,3.055,3.055,0,0,0,.584-2A3.108,3.108,0,0,0,48.5-5.51,2.04,2.04,0,0,0,46.833-6.221Z" transform="translate(372.92 2307.6)" fill="#fff"/>
    <path id="Trazado_191493" data-name="Trazado 191493" d="M9.188,0H7.779L2.734-7.813a3.265,3.265,0,0,1-.314-.615H2.379a10.092,10.092,0,0,1,.055,1.347V0H1.285V-9.8h1.49l4.908,7.69q.308.479.4.656h.027A10.371,10.371,0,0,1,8.039-2.9V-9.8H9.188Zm2.994-8.777a.71.71,0,0,1-.513-.205.692.692,0,0,1-.212-.52.7.7,0,0,1,.212-.523.7.7,0,0,1,.513-.208.724.724,0,0,1,.523.208.7.7,0,0,1,.215.523.693.693,0,0,1-.215.513A.718.718,0,0,1,12.182-8.777ZM12.729,0H11.607V-7h1.121Z" transform="translate(286.93 2113.56)" fill="#fff"/>
    <path id="Trazado_191494" data-name="Trazado 191494" d="M6.638-7,3.849,0h-1.1L.1-7h1.23L3.1-1.914a4.565,4.565,0,0,1,.246.978h.027a4.622,4.622,0,0,1,.219-.95L5.455-7Z" transform="translate(300.31 2113.56)" fill="#fff"/>
    <path id="Trazado_191495" data-name="Trazado 191495" d="M6.761-3.22H1.818a2.618,2.618,0,0,0,.629,1.8A2.168,2.168,0,0,0,4.1-.779a3.439,3.439,0,0,0,2.174-.779V-.506a4.063,4.063,0,0,1-2.44.67A2.959,2.959,0,0,1,1.5-.79,3.9,3.9,0,0,1,.656-3.473a3.828,3.828,0,0,1,.926-2.663,2.97,2.97,0,0,1,2.3-1.029,2.632,2.632,0,0,1,2.126.889,3.705,3.705,0,0,1,.752,2.468ZM5.612-4.17a2.281,2.281,0,0,0-.468-1.511,1.6,1.6,0,0,0-1.282-.54,1.811,1.811,0,0,0-1.347.567A2.575,2.575,0,0,0,1.832-4.17ZM9.577,0H8.456V-10.363H9.577ZM21.656,0H20.535V-1.189h-.027A2.588,2.588,0,0,1,18.1.164a2.615,2.615,0,0,1-2.109-.94,3.856,3.856,0,0,1-.79-2.56,4.2,4.2,0,0,1,.875-2.782,2.886,2.886,0,0,1,2.331-1.046,2.244,2.244,0,0,1,2.1,1.135h.027v-4.334h1.121ZM20.535-3.165V-4.2a2,2,0,0,0-.561-1.436,1.88,1.88,0,0,0-1.422-.588,1.936,1.936,0,0,0-1.613.752,3.3,3.3,0,0,0-.588,2.078,2.964,2.964,0,0,0,.564,1.911,1.843,1.843,0,0,0,1.514.7,1.915,1.915,0,0,0,1.521-.677A2.521,2.521,0,0,0,20.535-3.165Zm9.017-.055H24.609a2.618,2.618,0,0,0,.629,1.8,2.168,2.168,0,0,0,1.654.636,3.439,3.439,0,0,0,2.174-.779V-.506a4.063,4.063,0,0,1-2.44.67A2.959,2.959,0,0,1,24.295-.79a3.9,3.9,0,0,1-.848-2.683,3.828,3.828,0,0,1,.926-2.663,2.97,2.97,0,0,1,2.3-1.029,2.632,2.632,0,0,1,2.126.889,3.705,3.705,0,0,1,.752,2.468ZM28.4-4.17a2.281,2.281,0,0,0-.468-1.511,1.6,1.6,0,0,0-1.282-.54,1.811,1.811,0,0,0-1.347.567,2.575,2.575,0,0,0-.684,1.483Z" transform="translate(307 2113.56)" fill="#fff"/>
    <path id="Trazado_191496" data-name="Trazado 191496" d="M5.906-.321A3.643,3.643,0,0,1,3.992.164,3.169,3.169,0,0,1,1.576-.81,3.53,3.53,0,0,1,.656-3.336a3.881,3.881,0,0,1,.991-2.779A3.467,3.467,0,0,1,4.293-7.164a3.682,3.682,0,0,1,1.627.342v1.148a2.85,2.85,0,0,0-1.668-.547,2.254,2.254,0,0,0-1.76.769A2.918,2.918,0,0,0,1.8-3.432,2.779,2.779,0,0,0,2.451-1.49a2.227,2.227,0,0,0,1.733.711,2.81,2.81,0,0,0,1.723-.608ZM12.612,0H11.491V-1.094h-.027A2.347,2.347,0,0,1,9.311.164,2.3,2.3,0,0,1,7.673-.39a1.918,1.918,0,0,1-.591-1.47q0-1.962,2.311-2.283l2.1-.294q0-1.784-1.442-1.784a3.446,3.446,0,0,0-2.283.861V-6.508a4.338,4.338,0,0,1,2.379-.656q2.468,0,2.468,2.611ZM11.491-3.541,9.8-3.309a2.741,2.741,0,0,0-1.176.386,1.114,1.114,0,0,0-.4.981A1.068,1.068,0,0,0,8.6-1.1a1.413,1.413,0,0,0,.974.325,1.8,1.8,0,0,0,1.377-.584,2.088,2.088,0,0,0,.543-1.48Zm4.382,2.529h-.027V3.22H14.725V-7h1.121v1.23h.027a2.651,2.651,0,0,1,2.42-1.395,2.563,2.563,0,0,1,2.112.94,3.893,3.893,0,0,1,.759,2.519A4.339,4.339,0,0,1,20.31-.892,2.845,2.845,0,0,1,17.972.164,2.342,2.342,0,0,1,15.873-1.012Zm-.027-2.823v.978a2.081,2.081,0,0,0,.564,1.473,1.873,1.873,0,0,0,1.432.6,1.876,1.876,0,0,0,1.6-.779,3.575,3.575,0,0,0,.578-2.167,2.822,2.822,0,0,0-.54-1.832,1.787,1.787,0,0,0-1.463-.663,1.986,1.986,0,0,0-1.572.68A2.5,2.5,0,0,0,15.846-3.835ZM27.966,0H26.845V-1.094h-.027A2.347,2.347,0,0,1,24.664.164,2.3,2.3,0,0,1,23.027-.39a1.918,1.918,0,0,1-.591-1.47q0-1.962,2.311-2.283l2.1-.294q0-1.784-1.442-1.784a3.446,3.446,0,0,0-2.283.861V-6.508A4.338,4.338,0,0,1,25.5-7.164q2.468,0,2.468,2.611ZM26.845-3.541l-1.688.232a2.741,2.741,0,0,0-1.176.386,1.114,1.114,0,0,0-.4.981,1.068,1.068,0,0,0,.366.837,1.413,1.413,0,0,0,.974.325A1.8,1.8,0,0,0,26.3-1.364a2.088,2.088,0,0,0,.543-1.48Zm8,3.22a3.643,3.643,0,0,1-1.914.485A3.169,3.169,0,0,1,30.519-.81,3.53,3.53,0,0,1,29.6-3.336a3.881,3.881,0,0,1,.991-2.779,3.467,3.467,0,0,1,2.646-1.049,3.682,3.682,0,0,1,1.627.342v1.148A2.85,2.85,0,0,0,33.2-6.221a2.254,2.254,0,0,0-1.76.769,2.918,2.918,0,0,0-.687,2.02,2.779,2.779,0,0,0,.646,1.941,2.227,2.227,0,0,0,1.733.711,2.81,2.81,0,0,0,1.723-.608Zm2.27-8.456a.71.71,0,0,1-.513-.205.692.692,0,0,1-.212-.52.7.7,0,0,1,.212-.523.7.7,0,0,1,.513-.208.724.724,0,0,1,.523.208.7.7,0,0,1,.215.523.693.693,0,0,1-.215.513A.718.718,0,0,1,37.119-8.777ZM37.666,0H36.545V-7h1.121ZM45.91,0H44.789V-1.189h-.027A2.588,2.588,0,0,1,42.355.164a2.615,2.615,0,0,1-2.109-.94,3.856,3.856,0,0,1-.79-2.56,4.2,4.2,0,0,1,.875-2.782,2.886,2.886,0,0,1,2.331-1.046,2.244,2.244,0,0,1,2.1,1.135h.027v-4.334H45.91ZM44.789-3.165V-4.2a2,2,0,0,0-.561-1.436,1.88,1.88,0,0,0-1.422-.588,1.936,1.936,0,0,0-1.613.752,3.3,3.3,0,0,0-.588,2.078,2.964,2.964,0,0,0,.564,1.911,1.843,1.843,0,0,0,1.514.7A1.915,1.915,0,0,0,44.2-1.456,2.521,2.521,0,0,0,44.789-3.165ZM53.19,0H52.069V-1.094h-.027A2.347,2.347,0,0,1,49.889.164,2.3,2.3,0,0,1,48.251-.39a1.918,1.918,0,0,1-.591-1.47q0-1.962,2.311-2.283l2.1-.294q0-1.784-1.442-1.784a3.446,3.446,0,0,0-2.283.861V-6.508a4.338,4.338,0,0,1,2.379-.656q2.468,0,2.468,2.611ZM52.069-3.541l-1.688.232a2.741,2.741,0,0,0-1.176.386,1.114,1.114,0,0,0-.4.981,1.068,1.068,0,0,0,.366.837,1.413,1.413,0,0,0,.974.325,1.8,1.8,0,0,0,1.377-.584,2.088,2.088,0,0,0,.543-1.48ZM61.277,0H60.156V-1.189h-.027A2.588,2.588,0,0,1,57.723.164a2.615,2.615,0,0,1-2.109-.94,3.856,3.856,0,0,1-.79-2.56A4.2,4.2,0,0,1,55.7-6.118,2.886,2.886,0,0,1,58.03-7.164a2.244,2.244,0,0,1,2.1,1.135h.027v-4.334h1.121ZM60.156-3.165V-4.2A2,2,0,0,0,59.6-5.633a1.88,1.88,0,0,0-1.422-.588,1.936,1.936,0,0,0-1.613.752,3.3,3.3,0,0,0-.588,2.078,2.964,2.964,0,0,0,.564,1.911,1.843,1.843,0,0,0,1.514.7,1.915,1.915,0,0,0,1.521-.677A2.521,2.521,0,0,0,60.156-3.165ZM72.058-9.8v6.474h1.258V-2.3H72.058V0H70.95V-2.3H66.343v-.971q.643-.725,1.3-1.548T68.9-6.494q.6-.848,1.107-1.692A15.463,15.463,0,0,0,70.861-9.8Zm-4.45,6.474H70.95v-4.8q-.513.9-.971,1.6T69.108-5.25q-.414.574-.79,1.039T67.607-3.329Zm7.711-2.3a.726.726,0,0,1-.537-.226.743.743,0,0,1-.222-.54.72.72,0,0,1,.222-.533.737.737,0,0,1,.537-.219.757.757,0,0,1,.547.219.715.715,0,0,1,.226.533.737.737,0,0,1-.226.54A.745.745,0,0,1,75.318-5.633Zm0,5.783a.726.726,0,0,1-.537-.226.742.742,0,0,1-.222-.54.754.754,0,0,1,.222-.543.72.72,0,0,1,.537-.229.739.739,0,0,1,.547.229.748.748,0,0,1,.226.543.737.737,0,0,1-.226.54A.745.745,0,0,1,75.318.15Z" transform="translate(272.13 2130.359)" fill="#fff"/>
    <path id="Trazado_191497" data-name="Trazado 191497" d="M6.146,0H5.024V-1.094H5A2.347,2.347,0,0,1,2.844.164,2.3,2.3,0,0,1,1.207-.39a1.918,1.918,0,0,1-.591-1.47q0-1.962,2.311-2.283l2.1-.294q0-1.784-1.442-1.784A3.446,3.446,0,0,0,1.3-5.359V-6.508a4.338,4.338,0,0,1,2.379-.656q2.468,0,2.468,2.611ZM5.024-3.541l-1.688.232a2.741,2.741,0,0,0-1.176.386,1.114,1.114,0,0,0-.4.981,1.068,1.068,0,0,0,.366.837A1.413,1.413,0,0,0,3.1-.779a1.8,1.8,0,0,0,1.377-.584,2.088,2.088,0,0,0,.543-1.48ZM14.232,0H13.111V-1.189h-.027A2.588,2.588,0,0,1,10.678.164a2.615,2.615,0,0,1-2.109-.94,3.856,3.856,0,0,1-.79-2.56,4.2,4.2,0,0,1,.875-2.782,2.886,2.886,0,0,1,2.331-1.046,2.244,2.244,0,0,1,2.1,1.135h.027v-4.334h1.121ZM13.111-3.165V-4.2a2,2,0,0,0-.561-1.436,1.88,1.88,0,0,0-1.422-.588,1.936,1.936,0,0,0-1.613.752,3.3,3.3,0,0,0-.588,2.078A2.964,2.964,0,0,0,9.492-1.48a1.843,1.843,0,0,0,1.514.7,1.915,1.915,0,0,0,1.521-.677A2.521,2.521,0,0,0,13.111-3.165ZM26.441,0H25.32V-4.02A3.032,3.032,0,0,0,24.961-5.7a1.361,1.361,0,0,0-1.207-.52,1.494,1.494,0,0,0-1.22.656,2.511,2.511,0,0,0-.5,1.572V0H20.911V-4.156q0-2.064-1.593-2.064A1.475,1.475,0,0,0,18.1-5.6a2.557,2.557,0,0,0-.479,1.61V0H16.5V-7h1.121v1.107h.027a2.378,2.378,0,0,1,2.174-1.271,2.027,2.027,0,0,1,1.251.4,2.012,2.012,0,0,1,.731,1.049,2.5,2.5,0,0,1,2.324-1.449q2.311,0,2.311,2.851Zm2.693-8.777a.71.71,0,0,1-.513-.205.692.692,0,0,1-.212-.52.7.7,0,0,1,.212-.523.7.7,0,0,1,.513-.208.724.724,0,0,1,.523.208.7.7,0,0,1,.215.523.693.693,0,0,1-.215.513A.718.718,0,0,1,29.135-8.777ZM29.682,0H28.561V-7h1.121Zm8.08,0H36.641V-3.992q0-2.229-1.627-2.229a1.765,1.765,0,0,0-1.391.632,2.344,2.344,0,0,0-.55,1.6V0H31.951V-7h1.121v1.162H33.1a2.526,2.526,0,0,1,2.3-1.326,2.142,2.142,0,0,1,1.757.742,3.3,3.3,0,0,1,.608,2.143Zm2.687-8.777a.71.71,0,0,1-.513-.205.692.692,0,0,1-.212-.52.7.7,0,0,1,.212-.523.7.7,0,0,1,.513-.208.724.724,0,0,1,.523.208.7.7,0,0,1,.215.523.693.693,0,0,1-.215.513A.718.718,0,0,1,40.448-8.777ZM41,0H39.874V-7H41Zm1.846-.253v-1.2a3.318,3.318,0,0,0,2.017.677q1.477,0,1.477-.984a.854.854,0,0,0-.126-.475,1.26,1.26,0,0,0-.342-.345,2.631,2.631,0,0,0-.506-.27q-.291-.12-.625-.25a8.056,8.056,0,0,1-.817-.373A2.468,2.468,0,0,1,43.33-3.9a1.577,1.577,0,0,1-.355-.537,1.9,1.9,0,0,1-.12-.7,1.673,1.673,0,0,1,.226-.872,2,2,0,0,1,.6-.636,2.805,2.805,0,0,1,.858-.386,3.805,3.805,0,0,1,.995-.13,4.016,4.016,0,0,1,1.627.314v1.135a3.171,3.171,0,0,0-1.777-.506,2.078,2.078,0,0,0-.567.072,1.389,1.389,0,0,0-.434.2.932.932,0,0,0-.28.311.819.819,0,0,0-.1.4.959.959,0,0,0,.1.458,1.008,1.008,0,0,0,.291.328,2.221,2.221,0,0,0,.465.26q.273.116.622.253a8.658,8.658,0,0,1,.834.366,2.86,2.86,0,0,1,.629.424,1.656,1.656,0,0,1,.4.543,1.753,1.753,0,0,1,.14.731,1.725,1.725,0,0,1-.229.9,1.963,1.963,0,0,1-.612.636,2.8,2.8,0,0,1-.882.376,4.354,4.354,0,0,1-1.046.123A3.971,3.971,0,0,1,42.841-.253Zm9.611.185A2.161,2.161,0,0,1,51.406.15Q49.567.15,49.567-1.9V-6.043h-1.2V-7h1.2V-8.709l1.121-.362V-7h1.764v.957H50.688V-2.1a1.635,1.635,0,0,0,.239,1,.955.955,0,0,0,.793.3,1.179,1.179,0,0,0,.731-.232Z" transform="translate(270.92 2147.16)" fill="#fff"/>
    <path id="Trazado_191498" data-name="Trazado 191498" d="M4.785-5.865a1.371,1.371,0,0,0-.848-.226,1.431,1.431,0,0,0-1.2.677,3.129,3.129,0,0,0-.482,1.846V0H1.135V-7H2.256v1.442h.027a2.444,2.444,0,0,1,.731-1.152,1.668,1.668,0,0,1,1.1-.414,1.83,1.83,0,0,1,.67.1Z" transform="translate(325.01 2147.16)" fill="#fff"/>
    <path id="Trazado_191499" data-name="Trazado 191499" d="M6.146,0H5.024V-1.094H5A2.347,2.347,0,0,1,2.844.164,2.3,2.3,0,0,1,1.207-.39a1.918,1.918,0,0,1-.591-1.47q0-1.962,2.311-2.283l2.1-.294q0-1.784-1.442-1.784A3.446,3.446,0,0,0,1.3-5.359V-6.508a4.338,4.338,0,0,1,2.379-.656q2.468,0,2.468,2.611ZM5.024-3.541l-1.688.232a2.741,2.741,0,0,0-1.176.386,1.114,1.114,0,0,0-.4.981,1.068,1.068,0,0,0,.366.837A1.413,1.413,0,0,0,3.1-.779a1.8,1.8,0,0,0,1.377-.584,2.088,2.088,0,0,0,.543-1.48ZM14.232,0H13.111V-1.189h-.027A2.588,2.588,0,0,1,10.678.164a2.615,2.615,0,0,1-2.109-.94,3.856,3.856,0,0,1-.79-2.56,4.2,4.2,0,0,1,.875-2.782,2.886,2.886,0,0,1,2.331-1.046,2.244,2.244,0,0,1,2.1,1.135h.027v-4.334h1.121ZM13.111-3.165V-4.2a2,2,0,0,0-.561-1.436,1.88,1.88,0,0,0-1.422-.588,1.936,1.936,0,0,0-1.613.752,3.3,3.3,0,0,0-.588,2.078A2.964,2.964,0,0,0,9.492-1.48a1.843,1.843,0,0,0,1.514.7,1.915,1.915,0,0,0,1.521-.677A2.521,2.521,0,0,0,13.111-3.165ZM21.513,0H20.392V-1.094h-.027A2.347,2.347,0,0,1,18.211.164,2.3,2.3,0,0,1,16.574-.39a1.918,1.918,0,0,1-.591-1.47q0-1.962,2.311-2.283l2.1-.294q0-1.784-1.442-1.784a3.446,3.446,0,0,0-2.283.861V-6.508a4.338,4.338,0,0,1,2.379-.656q2.468,0,2.468,2.611ZM20.392-3.541,18.7-3.309a2.741,2.741,0,0,0-1.176.386,1.114,1.114,0,0,0-.4.981A1.068,1.068,0,0,0,17.5-1.1a1.413,1.413,0,0,0,.974.325,1.8,1.8,0,0,0,1.377-.584,2.088,2.088,0,0,0,.543-1.48Z" transform="translate(329.48 2147.16)" fill="#fff"/>
    <path id="Trazado_191500" data-name="Trazado 191500" d="M5.063-.275A3.122,3.122,0,0,1,3.422.141,2.716,2.716,0,0,1,1.351-.694,3.026,3.026,0,0,1,.563-2.859a3.326,3.326,0,0,1,.85-2.382,2.972,2.972,0,0,1,2.268-.9,3.156,3.156,0,0,1,1.395.293v.984a2.443,2.443,0,0,0-1.43-.469,1.932,1.932,0,0,0-1.509.659,2.5,2.5,0,0,0-.589,1.731A2.382,2.382,0,0,0,2.1-1.277a1.909,1.909,0,0,0,1.485.609,2.408,2.408,0,0,0,1.477-.521Zm6.3.275h-.961V-.949h-.023A1.973,1.973,0,0,1,8.531.141q-2.145,0-2.145-2.555V-6h.955v3.434q0,1.9,1.453,1.9a1.47,1.47,0,0,0,1.157-.519,1.984,1.984,0,0,0,.454-1.356V-6h.961ZM17.6,0h-.961V-.937h-.023A2.012,2.012,0,0,1,14.771.141a1.973,1.973,0,0,1-1.4-.475,1.644,1.644,0,0,1-.507-1.26q0-1.682,1.98-1.957l1.8-.252q0-1.529-1.236-1.529a2.954,2.954,0,0,0-1.957.738v-.984a3.718,3.718,0,0,1,2.039-.562Q17.6-6.141,17.6-3.9Zm-.961-3.035-1.447.2a2.35,2.35,0,0,0-1.008.331.955.955,0,0,0-.34.841.916.916,0,0,0,.313.718,1.211,1.211,0,0,0,.835.278,1.542,1.542,0,0,0,1.181-.5,1.79,1.79,0,0,0,.466-1.269ZM24.393,0h-.961V-3.422q0-1.91-1.395-1.91a1.513,1.513,0,0,0-1.192.542,2.009,2.009,0,0,0-.472,1.368V0h-.961V-6h.961v1H20.4a2.166,2.166,0,0,1,1.969-1.137,1.836,1.836,0,0,1,1.506.636,2.832,2.832,0,0,1,.521,1.837Zm4.594-.059a1.853,1.853,0,0,1-.9.188q-1.576,0-1.576-1.758V-5.18H25.482V-6h1.031V-7.465l.961-.311V-6h1.512v.82H27.475V-1.8a1.4,1.4,0,0,0,.205.861.818.818,0,0,0,.68.258,1.01,1.01,0,0,0,.627-.2Zm1.775-7.465a.609.609,0,0,1-.439-.176.593.593,0,0,1-.182-.445.6.6,0,0,1,.182-.448.6.6,0,0,1,.439-.179.621.621,0,0,1,.448.179.6.6,0,0,1,.185.448.594.594,0,0,1-.185.439A.615.615,0,0,1,30.762-7.523ZM31.23,0H30.27V-6h.961Zm4.729-.059a1.853,1.853,0,0,1-.9.188q-1.576,0-1.576-1.758V-5.18H32.455V-6h1.031V-7.465l.961-.311V-6h1.512v.82H34.447V-1.8a1.4,1.4,0,0,0,.205.861.818.818,0,0,0,.68.258,1.01,1.01,0,0,0,.627-.2ZM41.537,0h-.961V-.937h-.023A2.012,2.012,0,0,1,38.707.141a1.973,1.973,0,0,1-1.4-.475,1.644,1.644,0,0,1-.507-1.26q0-1.682,1.98-1.957l1.8-.252q0-1.529-1.236-1.529a2.954,2.954,0,0,0-1.957.738v-.984a3.718,3.718,0,0,1,2.039-.562q2.115,0,2.115,2.238Zm-.961-3.035-1.447.2a2.35,2.35,0,0,0-1.008.331.955.955,0,0,0-.34.841.916.916,0,0,0,.313.718,1.211,1.211,0,0,0,.835.278,1.542,1.542,0,0,0,1.181-.5,1.79,1.79,0,0,0,.466-1.269ZM46.131-.059a1.853,1.853,0,0,1-.9.188q-1.576,0-1.576-1.758V-5.18H42.627V-6h1.031V-7.465l.961-.311V-6h1.512v.82H44.619V-1.8a1.4,1.4,0,0,0,.205.861.818.818,0,0,0,.68.258,1.01,1.01,0,0,0,.627-.2Zm1.775-7.465a.609.609,0,0,1-.439-.176.593.593,0,0,1-.182-.445.6.6,0,0,1,.182-.448.6.6,0,0,1,.439-.179.621.621,0,0,1,.448.179.6.6,0,0,1,.185.448.594.594,0,0,1-.185.439A.615.615,0,0,1,47.906-7.523ZM48.375,0h-.961V-6h.961Z" transform="translate(263.67 2161.56)" fill="#fff"/>
    <path id="Trazado_191501" data-name="Trazado 191501" d="M5.689-6,3.3,0H2.355L.082-6H1.137L2.66-1.641A3.913,3.913,0,0,1,2.871-.8h.023a3.962,3.962,0,0,1,.188-.814L4.676-6Z" transform="translate(313.83 2161.56)" fill="#fff"/>
    <path id="Trazado_191502" data-name="Trazado 191502" d="M5.268,0H4.307V-.937H4.283A2.012,2.012,0,0,1,2.438.141a1.973,1.973,0,0,1-1.4-.475,1.644,1.644,0,0,1-.507-1.26q0-1.682,1.98-1.957l1.8-.252q0-1.529-1.236-1.529a2.954,2.954,0,0,0-1.957.738v-.984a3.718,3.718,0,0,1,2.039-.562q2.115,0,2.115,2.238ZM4.307-3.035l-1.447.2A2.35,2.35,0,0,0,1.852-2.5a.955.955,0,0,0-.34.841.916.916,0,0,0,.313.718,1.211,1.211,0,0,0,.835.278,1.542,1.542,0,0,0,1.181-.5,1.79,1.79,0,0,0,.466-1.269ZM15.6,0h-.961V-3.445a2.6,2.6,0,0,0-.308-1.441,1.167,1.167,0,0,0-1.034-.445,1.281,1.281,0,0,0-1.046.563,2.152,2.152,0,0,0-.431,1.348V0h-.961V-3.562q0-1.77-1.365-1.77a1.265,1.265,0,0,0-1.043.53,2.192,2.192,0,0,0-.41,1.38V0H7.078V-6h.961v.949h.023a2.038,2.038,0,0,1,1.863-1.09A1.737,1.737,0,0,1,11-5.8a1.724,1.724,0,0,1,.627.9,2.141,2.141,0,0,1,1.992-1.242q1.98,0,1.98,2.443Zm6.639-2.76H18a2.244,2.244,0,0,0,.539,1.547,1.858,1.858,0,0,0,1.418.545,2.948,2.948,0,0,0,1.863-.668v.9a3.482,3.482,0,0,1-2.092.574,2.536,2.536,0,0,1-2-.817A3.346,3.346,0,0,1,17-2.977,3.281,3.281,0,0,1,17.8-5.259a2.546,2.546,0,0,1,1.972-.882,2.256,2.256,0,0,1,1.822.762,3.176,3.176,0,0,1,.645,2.115Zm-.984-.814a1.955,1.955,0,0,0-.4-1.295,1.368,1.368,0,0,0-1.1-.463,1.552,1.552,0,0,0-1.154.486,2.207,2.207,0,0,0-.586,1.271ZM28.67,0h-.961V-3.422q0-1.91-1.395-1.91a1.513,1.513,0,0,0-1.192.542,2.009,2.009,0,0,0-.472,1.368V0h-.961V-6h.961v1h.023a2.166,2.166,0,0,1,1.969-1.137,1.836,1.836,0,0,1,1.506.636,2.832,2.832,0,0,1,.521,1.837Zm4.594-.059a1.853,1.853,0,0,1-.9.188q-1.576,0-1.576-1.758V-5.18H29.76V-6h1.031V-7.465l.961-.311V-6h1.512v.82H31.752V-1.8a1.4,1.4,0,0,0,.205.861.818.818,0,0,0,.68.258,1.01,1.01,0,0,0,.627-.2Zm6.105-2.7H35.133a2.244,2.244,0,0,0,.539,1.547,1.858,1.858,0,0,0,1.418.545,2.948,2.948,0,0,0,1.863-.668v.9a3.482,3.482,0,0,1-2.092.574,2.536,2.536,0,0,1-2-.817,3.346,3.346,0,0,1-.727-2.3,3.281,3.281,0,0,1,.794-2.282A2.546,2.546,0,0,1,36.9-6.141a2.256,2.256,0,0,1,1.822.762,3.176,3.176,0,0,1,.645,2.115Zm-.984-.814a1.955,1.955,0,0,0-.4-1.295,1.368,1.368,0,0,0-1.1-.463,1.552,1.552,0,0,0-1.154.486,2.207,2.207,0,0,0-.586,1.271Z" transform="translate(319.55 2161.56)" fill="#fff"/>
    <path id="Trazado_191503" data-name="Trazado 191503" d="M9.188,0H7.779L2.734-7.813a3.265,3.265,0,0,1-.314-.615H2.379a10.092,10.092,0,0,1,.055,1.347V0H1.285V-9.8h1.49l4.908,7.69q.308.479.4.656h.027A10.371,10.371,0,0,1,8.039-2.9V-9.8H9.188Zm2.994-8.777a.71.71,0,0,1-.513-.205.692.692,0,0,1-.212-.52.7.7,0,0,1,.212-.523.7.7,0,0,1,.513-.208.724.724,0,0,1,.523.208.7.7,0,0,1,.215.523.693.693,0,0,1-.215.513A.718.718,0,0,1,12.182-8.777ZM12.729,0H11.607V-7h1.121Z" transform="translate(374.23 1974.14)" fill="#fff"/>
    <path id="Trazado_191504" data-name="Trazado 191504" d="M6.638-7,3.849,0h-1.1L.1-7h1.23L3.1-1.914a4.565,4.565,0,0,1,.246.978h.027a4.622,4.622,0,0,1,.219-.95L5.455-7Z" transform="translate(387.61 1974.14)" fill="#fff"/>
    <path id="Trazado_191505" data-name="Trazado 191505" d="M6.761-3.22H1.818a2.618,2.618,0,0,0,.629,1.8A2.168,2.168,0,0,0,4.1-.779a3.439,3.439,0,0,0,2.174-.779V-.506a4.063,4.063,0,0,1-2.44.67A2.959,2.959,0,0,1,1.5-.79,3.9,3.9,0,0,1,.656-3.473a3.828,3.828,0,0,1,.926-2.663,2.97,2.97,0,0,1,2.3-1.029,2.632,2.632,0,0,1,2.126.889,3.705,3.705,0,0,1,.752,2.468ZM5.612-4.17a2.281,2.281,0,0,0-.468-1.511,1.6,1.6,0,0,0-1.282-.54,1.811,1.811,0,0,0-1.347.567A2.575,2.575,0,0,0,1.832-4.17ZM9.577,0H8.456V-10.363H9.577ZM21.656,0H20.535V-1.189h-.027A2.588,2.588,0,0,1,18.1.164a2.615,2.615,0,0,1-2.109-.94,3.856,3.856,0,0,1-.79-2.56,4.2,4.2,0,0,1,.875-2.782,2.886,2.886,0,0,1,2.331-1.046,2.244,2.244,0,0,1,2.1,1.135h.027v-4.334h1.121ZM20.535-3.165V-4.2a2,2,0,0,0-.561-1.436,1.88,1.88,0,0,0-1.422-.588,1.936,1.936,0,0,0-1.613.752,3.3,3.3,0,0,0-.588,2.078,2.964,2.964,0,0,0,.564,1.911,1.843,1.843,0,0,0,1.514.7,1.915,1.915,0,0,0,1.521-.677A2.521,2.521,0,0,0,20.535-3.165Zm9.017-.055H24.609a2.618,2.618,0,0,0,.629,1.8,2.168,2.168,0,0,0,1.654.636,3.439,3.439,0,0,0,2.174-.779V-.506a4.063,4.063,0,0,1-2.44.67A2.959,2.959,0,0,1,24.295-.79a3.9,3.9,0,0,1-.848-2.683,3.828,3.828,0,0,1,.926-2.663,2.97,2.97,0,0,1,2.3-1.029,2.632,2.632,0,0,1,2.126.889,3.705,3.705,0,0,1,.752,2.468ZM28.4-4.17a2.281,2.281,0,0,0-.468-1.511,1.6,1.6,0,0,0-1.282-.54,1.811,1.811,0,0,0-1.347.567,2.575,2.575,0,0,0-.684,1.483Z" transform="translate(394.3 1974.14)" fill="#fff"/>
    <path id="Trazado_191506" data-name="Trazado 191506" d="M5.906-.321A3.643,3.643,0,0,1,3.992.164,3.169,3.169,0,0,1,1.576-.81,3.53,3.53,0,0,1,.656-3.336a3.881,3.881,0,0,1,.991-2.779A3.467,3.467,0,0,1,4.293-7.164a3.682,3.682,0,0,1,1.627.342v1.148a2.85,2.85,0,0,0-1.668-.547,2.254,2.254,0,0,0-1.76.769A2.918,2.918,0,0,0,1.8-3.432,2.779,2.779,0,0,0,2.451-1.49a2.227,2.227,0,0,0,1.733.711,2.81,2.81,0,0,0,1.723-.608ZM12.612,0H11.491V-1.094h-.027A2.347,2.347,0,0,1,9.311.164,2.3,2.3,0,0,1,7.673-.39a1.918,1.918,0,0,1-.591-1.47q0-1.962,2.311-2.283l2.1-.294q0-1.784-1.442-1.784a3.446,3.446,0,0,0-2.283.861V-6.508a4.338,4.338,0,0,1,2.379-.656q2.468,0,2.468,2.611ZM11.491-3.541,9.8-3.309a2.741,2.741,0,0,0-1.176.386,1.114,1.114,0,0,0-.4.981A1.068,1.068,0,0,0,8.6-1.1a1.413,1.413,0,0,0,.974.325,1.8,1.8,0,0,0,1.377-.584,2.088,2.088,0,0,0,.543-1.48Zm4.382,2.529h-.027V3.22H14.725V-7h1.121v1.23h.027a2.651,2.651,0,0,1,2.42-1.395,2.563,2.563,0,0,1,2.112.94,3.893,3.893,0,0,1,.759,2.519A4.339,4.339,0,0,1,20.31-.892,2.845,2.845,0,0,1,17.972.164,2.342,2.342,0,0,1,15.873-1.012Zm-.027-2.823v.978a2.081,2.081,0,0,0,.564,1.473,1.873,1.873,0,0,0,1.432.6,1.876,1.876,0,0,0,1.6-.779,3.575,3.575,0,0,0,.578-2.167,2.822,2.822,0,0,0-.54-1.832,1.787,1.787,0,0,0-1.463-.663,1.986,1.986,0,0,0-1.572.68A2.5,2.5,0,0,0,15.846-3.835ZM27.966,0H26.845V-1.094h-.027A2.347,2.347,0,0,1,24.664.164,2.3,2.3,0,0,1,23.027-.39a1.918,1.918,0,0,1-.591-1.47q0-1.962,2.311-2.283l2.1-.294q0-1.784-1.442-1.784a3.446,3.446,0,0,0-2.283.861V-6.508A4.338,4.338,0,0,1,25.5-7.164q2.468,0,2.468,2.611ZM26.845-3.541l-1.688.232a2.741,2.741,0,0,0-1.176.386,1.114,1.114,0,0,0-.4.981,1.068,1.068,0,0,0,.366.837,1.413,1.413,0,0,0,.974.325A1.8,1.8,0,0,0,26.3-1.364a2.088,2.088,0,0,0,.543-1.48Zm8,3.22a3.643,3.643,0,0,1-1.914.485A3.169,3.169,0,0,1,30.519-.81,3.53,3.53,0,0,1,29.6-3.336a3.881,3.881,0,0,1,.991-2.779,3.467,3.467,0,0,1,2.646-1.049,3.682,3.682,0,0,1,1.627.342v1.148A2.85,2.85,0,0,0,33.2-6.221a2.254,2.254,0,0,0-1.76.769,2.918,2.918,0,0,0-.687,2.02,2.779,2.779,0,0,0,.646,1.941,2.227,2.227,0,0,0,1.733.711,2.81,2.81,0,0,0,1.723-.608Zm2.27-8.456a.71.71,0,0,1-.513-.205.692.692,0,0,1-.212-.52.7.7,0,0,1,.212-.523.7.7,0,0,1,.513-.208.724.724,0,0,1,.523.208.7.7,0,0,1,.215.523.693.693,0,0,1-.215.513A.718.718,0,0,1,37.119-8.777ZM37.666,0H36.545V-7h1.121ZM45.91,0H44.789V-1.189h-.027A2.588,2.588,0,0,1,42.355.164a2.615,2.615,0,0,1-2.109-.94,3.856,3.856,0,0,1-.79-2.56,4.2,4.2,0,0,1,.875-2.782,2.886,2.886,0,0,1,2.331-1.046,2.244,2.244,0,0,1,2.1,1.135h.027v-4.334H45.91ZM44.789-3.165V-4.2a2,2,0,0,0-.561-1.436,1.88,1.88,0,0,0-1.422-.588,1.936,1.936,0,0,0-1.613.752,3.3,3.3,0,0,0-.588,2.078,2.964,2.964,0,0,0,.564,1.911,1.843,1.843,0,0,0,1.514.7A1.915,1.915,0,0,0,44.2-1.456,2.521,2.521,0,0,0,44.789-3.165ZM53.19,0H52.069V-1.094h-.027A2.347,2.347,0,0,1,49.889.164,2.3,2.3,0,0,1,48.251-.39a1.918,1.918,0,0,1-.591-1.47q0-1.962,2.311-2.283l2.1-.294q0-1.784-1.442-1.784a3.446,3.446,0,0,0-2.283.861V-6.508a4.338,4.338,0,0,1,2.379-.656q2.468,0,2.468,2.611ZM52.069-3.541l-1.688.232a2.741,2.741,0,0,0-1.176.386,1.114,1.114,0,0,0-.4.981,1.068,1.068,0,0,0,.366.837,1.413,1.413,0,0,0,.974.325,1.8,1.8,0,0,0,1.377-.584,2.088,2.088,0,0,0,.543-1.48ZM61.277,0H60.156V-1.189h-.027A2.588,2.588,0,0,1,57.723.164a2.615,2.615,0,0,1-2.109-.94,3.856,3.856,0,0,1-.79-2.56A4.2,4.2,0,0,1,55.7-6.118,2.886,2.886,0,0,1,58.03-7.164a2.244,2.244,0,0,1,2.1,1.135h.027v-4.334h1.121ZM60.156-3.165V-4.2A2,2,0,0,0,59.6-5.633a1.88,1.88,0,0,0-1.422-.588,1.936,1.936,0,0,0-1.613.752,3.3,3.3,0,0,0-.588,2.078,2.964,2.964,0,0,0,.564,1.911,1.843,1.843,0,0,0,1.514.7,1.915,1.915,0,0,0,1.521-.677A2.521,2.521,0,0,0,60.156-3.165Zm12.715.171a3.3,3.3,0,0,1-.246,1.3,2.84,2.84,0,0,1-.7,1,3.138,3.138,0,0,1-1.1.643A4.291,4.291,0,0,1,69.4.171a3.947,3.947,0,0,1-2.03-.41V-1.429a3.733,3.733,0,0,0,2.044.643,2.766,2.766,0,0,0,.96-.157,2.134,2.134,0,0,0,.728-.437,1.873,1.873,0,0,0,.461-.677,2.291,2.291,0,0,0,.161-.868,1.86,1.86,0,0,0-.643-1.5,2.818,2.818,0,0,0-1.866-.543q-.2,0-.417.007t-.437.017q-.219.01-.427.024t-.379.034L67.888-9.8H72.42v1.012H68.858l-.2,2.878q.219-.014.465-.024t.438-.01a4.4,4.4,0,0,1,1.395.205A2.955,2.955,0,0,1,72-5.158a2.451,2.451,0,0,1,.649.93A3.27,3.27,0,0,1,72.871-2.994Zm2.447-2.639a.726.726,0,0,1-.537-.226.743.743,0,0,1-.222-.54.72.72,0,0,1,.222-.533.737.737,0,0,1,.537-.219.757.757,0,0,1,.547.219.715.715,0,0,1,.226.533.737.737,0,0,1-.226.54A.745.745,0,0,1,75.318-5.633Zm0,5.783a.726.726,0,0,1-.537-.226.742.742,0,0,1-.222-.54.754.754,0,0,1,.222-.543.72.72,0,0,1,.537-.229.739.739,0,0,1,.547.229.748.748,0,0,1,.226.543.737.737,0,0,1-.226.54A.745.745,0,0,1,75.318.15Z" transform="translate(359.43 1990.939)" fill="#fff"/>
    <path id="Trazado_191507" data-name="Trazado 191507" d="M4.061.164A3.247,3.247,0,0,1,1.583-.817a3.633,3.633,0,0,1-.926-2.6A3.785,3.785,0,0,1,1.62-6.173a3.465,3.465,0,0,1,2.6-.991A3.14,3.14,0,0,1,6.668-6.2a3.822,3.822,0,0,1,.878,2.673A3.761,3.761,0,0,1,6.6-.844,3.317,3.317,0,0,1,4.061.164Zm.082-6.385a2.132,2.132,0,0,0-1.709.735A3.018,3.018,0,0,0,1.8-3.459,2.854,2.854,0,0,0,2.44-1.5a2.161,2.161,0,0,0,1.7.718,2.049,2.049,0,0,0,1.671-.7,3.055,3.055,0,0,0,.584-2A3.108,3.108,0,0,0,5.814-5.51,2.04,2.04,0,0,0,4.143-6.221Zm6.344,5.209h-.027V3.22H9.338V-7h1.121v1.23h.027a2.651,2.651,0,0,1,2.42-1.395,2.563,2.563,0,0,1,2.112.94,3.893,3.893,0,0,1,.759,2.519,4.339,4.339,0,0,1-.854,2.813A2.845,2.845,0,0,1,12.585.164,2.342,2.342,0,0,1,10.486-1.012Zm-.027-2.823v.978a2.081,2.081,0,0,0,.564,1.473,1.873,1.873,0,0,0,1.432.6,1.876,1.876,0,0,0,1.6-.779,3.575,3.575,0,0,0,.578-2.167,2.822,2.822,0,0,0-.54-1.832,1.787,1.787,0,0,0-1.463-.663,1.986,1.986,0,0,0-1.572.68A2.5,2.5,0,0,0,10.459-3.835ZM20.815-.068A2.161,2.161,0,0,1,19.77.15Q17.931.15,17.931-1.9V-6.043h-1.2V-7h1.2V-8.709l1.121-.362V-7h1.764v.957H19.052V-2.1a1.635,1.635,0,0,0,.239,1,.955.955,0,0,0,.793.3,1.179,1.179,0,0,0,.731-.232Zm2.071-8.709a.71.71,0,0,1-.513-.205.692.692,0,0,1-.212-.52.7.7,0,0,1,.212-.523.7.7,0,0,1,.513-.208.724.724,0,0,1,.523.208.7.7,0,0,1,.215.523.693.693,0,0,1-.215.513A.718.718,0,0,1,22.887-8.777ZM23.434,0H22.313V-7h1.121ZM35.643,0H34.521V-4.02A3.032,3.032,0,0,0,34.163-5.7a1.361,1.361,0,0,0-1.207-.52,1.494,1.494,0,0,0-1.22.656,2.511,2.511,0,0,0-.5,1.572V0H30.112V-4.156q0-2.064-1.593-2.064A1.475,1.475,0,0,0,27.3-5.6a2.557,2.557,0,0,0-.479,1.61V0H25.7V-7h1.121v1.107h.027a2.378,2.378,0,0,1,2.174-1.271,2.027,2.027,0,0,1,1.251.4,2.012,2.012,0,0,1,.731,1.049,2.5,2.5,0,0,1,2.324-1.449q2.311,0,2.311,2.851Zm2.693-8.777a.71.71,0,0,1-.513-.205.692.692,0,0,1-.212-.52.7.7,0,0,1,.212-.523.7.7,0,0,1,.513-.208.724.724,0,0,1,.523.208.7.7,0,0,1,.215.523.693.693,0,0,1-.215.513A.718.718,0,0,1,38.336-8.777ZM38.883,0H37.762V-7h1.121Zm7.15-6.679L41.891-.957h4.1V0H40.243V-.349l4.143-5.694H40.633V-7h5.4ZM52.493,0H51.372V-1.094h-.027A2.347,2.347,0,0,1,49.191.164,2.3,2.3,0,0,1,47.554-.39a1.918,1.918,0,0,1-.591-1.47q0-1.962,2.311-2.283l2.1-.294q0-1.784-1.442-1.784a3.446,3.446,0,0,0-2.283.861V-6.508a4.338,4.338,0,0,1,2.379-.656q2.468,0,2.468,2.611ZM51.372-3.541l-1.688.232a2.741,2.741,0,0,0-1.176.386,1.114,1.114,0,0,0-.4.981,1.068,1.068,0,0,0,.366.837,1.413,1.413,0,0,0,.974.325,1.8,1.8,0,0,0,1.377-.584,2.088,2.088,0,0,0,.543-1.48Zm8,3.22a3.643,3.643,0,0,1-1.914.485A3.169,3.169,0,0,1,55.046-.81a3.53,3.53,0,0,1-.919-2.526,3.881,3.881,0,0,1,.991-2.779,3.468,3.468,0,0,1,2.646-1.049,3.682,3.682,0,0,1,1.627.342v1.148a2.85,2.85,0,0,0-1.668-.547,2.254,2.254,0,0,0-1.76.769,2.918,2.918,0,0,0-.687,2.02,2.779,2.779,0,0,0,.646,1.941,2.227,2.227,0,0,0,1.733.711,2.81,2.81,0,0,0,1.723-.608Zm2.27-8.456a.71.71,0,0,1-.513-.205.692.692,0,0,1-.212-.52.7.7,0,0,1,.212-.523.7.7,0,0,1,.513-.208.724.724,0,0,1,.523.208.7.7,0,0,1,.215.523.693.693,0,0,1-.215.513A.718.718,0,0,1,61.646-8.777ZM62.193,0H61.072V-7h1.121Zm5.2.164a3.247,3.247,0,0,1-2.478-.981,3.633,3.633,0,0,1-.926-2.6,3.785,3.785,0,0,1,.964-2.755,3.465,3.465,0,0,1,2.6-.991A3.14,3.14,0,0,1,70-6.2a3.822,3.822,0,0,1,.878,2.673,3.761,3.761,0,0,1-.947,2.683A3.317,3.317,0,0,1,67.389.164Zm.082-6.385a2.132,2.132,0,0,0-1.709.735,3.018,3.018,0,0,0-.629,2.027A2.854,2.854,0,0,0,65.769-1.5a2.161,2.161,0,0,0,1.7.718,2.049,2.049,0,0,0,1.671-.7,3.055,3.055,0,0,0,.584-2,3.108,3.108,0,0,0-.584-2.023A2.04,2.04,0,0,0,67.471-6.221Zm1.641-4.348L67.32-8.326h-.868l1.524-2.242ZM78.477,0H77.355V-3.992q0-2.229-1.627-2.229a1.765,1.765,0,0,0-1.391.632,2.344,2.344,0,0,0-.55,1.6V0H72.666V-7h1.121v1.162h.027a2.526,2.526,0,0,1,2.3-1.326,2.142,2.142,0,0,1,1.757.742,3.3,3.3,0,0,1,.608,2.143Z" transform="translate(358.83 2007.74)" fill="#fff"/>
  </g>
</svg>
