<svg xmlns="http://www.w3.org/2000/svg" xmlns:xlink="http://www.w3.org/1999/xlink" width="1240" height="600" viewBox="0 0 1240 600">
  <defs>
    <linearGradient id="linear-gradient" x1="33.957" y1="-12.787" x2="33.957" y2="-13.568" gradientUnits="objectBoundingBox">
      <stop offset="0.01" stop-color="#dff2f8"/>
      <stop offset="0.09" stop-color="#e9f6fa"/>
      <stop offset="0.27" stop-color="#f5fbfd"/>
      <stop offset="0.5" stop-color="#fdfeff"/>
      <stop offset="1" stop-color="#fff"/>
    </linearGradient>
  </defs>
  <g id="Grupo_94267" data-name="Grupo 94267" transform="translate(-180 -2799)">
    <path id="Trazado_191508" data-name="Trazado 191508" d="M0,0H1240V600H0Z" transform="translate(180 2799)" fill="#edffff"/>
    <path id="Trazado_172205" data-name="Trazado 172205" d="M221.66,152.22c3.63-40.21-17.5-44.94-17.5-44.94l1.28,58.3-2.78,9.67-24.87,86.53c37.14,13.09,30.68-30.63,30.68-30.63l6.62-59.92c.18-.37.35-.74.52-1.12,1.22-2.61,2.54-5.42,3.75-8,2.29-4.84,4.18-8.77,4.18-8.77Z" transform="translate(180 2799)" fill="#12263f"/>
    <path id="Trazado_172206" data-name="Trazado 172206" d="M287.28,357.16,281.63,401c0,3.61,3.54,6.9,6.42,9a26.22,26.22,0,0,0,6.35,3.35l2.3,5.71h-6.26s-24.78,3.17-20.09-12.87c1.37-4.69,1.81-49,1.81-49Z" transform="translate(180 2799)" fill="#f2b997"/>
    <path id="Trazado_172207" data-name="Trazado 172207" d="M270.35,406.16s-5.35,7.88-5,17.3h47.3a2.27,2.27,0,0,0,2.18-1.73,2.33,2.33,0,0,0-1.09-2.6c-1.59-.89-3.92-1.39-7.3-.74a4.64,4.64,0,0,1-3.06-.44l-9-4.63-1.77,2.89Z" transform="translate(180 2799)" fill="#df1c24"/>
    <path id="Trazado_172208" data-name="Trazado 172208" d="M302.89,267.74c-.12,1.55-.27,3.1-.39,4.62-1.38,11.29-2.34,22.45-2.95,33.47a689.532,689.532,0,0,0,.37,77.82c.22,4.15.49,8.27.76,12.35-14.41,4.81-30-6.78-35.91-9,1-31.69,9-89.11,11.74-108.23l-89.9-.17,10.16-37.18,1.45-5.33,75.22,13.09L285,250.44a16,16,0,0,1,17.87,17.3Z" transform="translate(180 2799)" fill="#12263f"/>
    <path id="Trazado_172209" data-name="Trazado 172209" d="M300.68,396c-14.41,4.81-30-6.78-35.91-9,1-31.69,9-89.11,11.74-108.23l-89.9-.17,9.82-38.66.81-2,1,9.7A15.38,15.38,0,0,0,216.73,261l61.5,11.76,9-5.31-6.14,10s-23.7,104.45,18.83,106.21C300.14,387.8,300.41,391.92,300.68,396Z" transform="translate(180 2799)" fill="#12263f" opacity="0.5"/>
    <path id="Trazado_172210" data-name="Trazado 172210" d="M172.05,87c.31.58.51.91.51.91,2.39-.22,4.53-.53,6.45-.9,10.18-2,14-5.54,14-5.54l2.61-.74,3.93-1.12,21.93-3.46a4.448,4.448,0,0,0,5.32-7.07,4,4,0,0,0,1.74-3c.86-4.86-8.62-13.44-14.77-16.77l-.89-.47c-21.27-10.93-33.8,4.3-33.8,4.3l-.5.16a10.442,10.442,0,0,0-1.25,0,8.45,8.45,0,0,0-5.36,14C165.63,73.49,170.4,83.9,172.05,87Z" transform="translate(180 2799)" fill="#ec777c"/>
    <path id="Trazado_172211" data-name="Trazado 172211" d="M168.37,442.83l-5.66,43.78c0,3.62,3.55,6.91,6.42,9a26.218,26.218,0,0,0,6.35,3.35l2.3,5.71h-6.26s-24.78,3.17-20.09-12.87c1.38-4.69,1.81-49,1.81-49Z" transform="translate(180 2799)" fill="#f2b997"/>
    <path id="Trazado_172212" data-name="Trazado 172212" d="M151.43,491.82s-5.34,7.89-5,17.31h47.3a2.25,2.25,0,0,0,2.18-1.73,2.33,2.33,0,0,0-1.09-2.6c-1.59-.9-3.91-1.4-7.29-.74a4.74,4.74,0,0,1-3.07-.44l-9-4.64-1.77,2.9Z" transform="translate(180 2799)" fill="#df1c24"/>
    <path id="Trazado_172213" data-name="Trazado 172213" d="M202.77,86.6,219.94,85s.08,18.83,4.19,36a19,19,0,0,0,2.89,6.47,98.521,98.521,0,0,0,7.63,9.39A14.18,14.18,0,0,1,221,160.2C206.44,157.31,185.14,122.35,202.77,86.6Z" transform="translate(180 2799)" fill="#ec777c"/>
    <path id="Trazado_172214" data-name="Trazado 172214" d="M220,134.7c-3.56-6.6-5.39-10.06-7.18-15.78-2.57-8.2-8.62-13.26-15.64-16.9-5.51-2.84-10.81-5.78-11.8-5.54-.13,0-42.08,10.51-34.22,70.76,2.6,7.74,3.31,19.92,3.84,27.6.36,5.37-.58,9.72-1,15.09-.28,3.21-3.92,11.18-7.23,13h0c10.47,7.93,27.69,15.05,51.52,13.09,2.62-21.58,1.59-22.7,9.8-41.57a74.66,74.66,0,0,0,5.87-26.5,37.008,37.008,0,0,0,3.3-1.7l.22-.15c4.41-3.1,8.34-7.23,9.28-10.64C228.68,148.25,222.42,139.25,220,134.7Z" transform="translate(180 2799)" fill="url(#linear-gradient)"/>
    <path id="Trazado_172215" data-name="Trazado 172215" d="M185.34,96.48s20.84,22.72,23.27,52.12c0,0,6.43-14.19-4.45-41.32Z" transform="translate(180 2799)" fill="#f2b997"/>
    <path id="Trazado_172216" data-name="Trazado 172216" d="M142.67,236.27a24.3,24.3,0,0,1,4-13.3,22.77,22.77,0,0,0-4,13.3Z" transform="translate(180 2799)" fill="#12263f"/>
    <path id="Trazado_172217" data-name="Trazado 172217" d="M179.42,231.15c6.88-10,12.15-22,15.8-33.51a94.776,94.776,0,0,0,2.9-12.08c.13-.67.14-3.72.74-4.23L146.69,223l32.56,8.14Z" transform="translate(180 2799)" fill="#d1dceb"/>
    <path id="Trazado_172218" data-name="Trazado 172218" d="M184.08,363.41c-4.69,38.7-4.56,76-2.58,111.29.22,4.15.5,8.27.77,12.35-14.41,4.81-30-6.78-35.91-9C147.51,439.61,159,363.41,159,363.41c1.16-8.13-.46-54-2.62-78.41-.42-4.57-.84-8.37-1.25-11.07-.1-.69-.25-1.38-.4-2.06-.07-.27-.12-.54-.19-.81-.15-.64-.35-1.3-.54-1.94s-.32-1.06-.49-1.57a3.791,3.791,0,0,0-.2-.54,10.28,10.28,0,0,0-.44-1.21c-2.38-6.42-5.89-12.71-8.1-19-.29-.88-.59-1.74-.83-2.6l-.37-1.33c-.1-.41-.2-.86-.3-1.3s-.17-.86-.24-1.3-.15-.88-.2-1.32-.1-.86-.12-1.3a11,11,0,0,1-.08-1.28v-.05a24.63,24.63,0,0,1,4-13.3l32.57,8.15h.17l18.8,4.91S188.87,307,184.08,363.41Z" transform="translate(180 2799)" fill="#12263f"/>
    <path id="Trazado_172219" data-name="Trazado 172219" d="M182.27,487.05c-14.41,4.81-30-6.78-35.91-9C147.51,439.61,159,363.41,159,363.41c1.16-8.13-.46-54-2.62-78.41-.42-4.57-.84-8.37-1.25-11.07-.1-.69-.25-1.38-.4-2.06-.07-.27-.12-.54-.19-.81-.15-.64-.35-1.3-.54-1.94s-.32-1.06-.49-1.57a3.791,3.791,0,0,0-.2-.54,10.28,10.28,0,0,0-.44-1.21c-2.38-6.42-5.89-12.71-8.1-19-.29-.88-.59-1.74-.83-2.6l-.37-1.33c-.1-.41-.2-.86-.3-1.3s-.17-.86-.24-1.3-.15-.88-.2-1.32-.1-.86-.12-1.3a11,11,0,0,1-.08-1.28v-.05a24.63,24.63,0,0,1,4-13.3l32.57,8.15h.17a1,1,0,0,1-.17.27c-.35.52-.72,1-1.08,1.52A68.71,68.71,0,0,1,168,244.58a24.77,24.77,0,0,0-8.2,23.95c3.66,17.4,8,48.76,5.31,93.28h9.2l-9.2,5.52s-22.49,98,16.36,107.37C181.72,478.85,182,483,182.27,487.05Z" transform="translate(180 2799)" fill="#12263f" opacity="0.5"/>
    <path id="Trazado_172220" data-name="Trazado 172220" d="M170.39,233.16c-.94,1.21-1.92,2.34-2.92,3.44-6.92,6.38-15.71,8.74-24.37,9.25H122.97V235.59h0a15.56,15.56,0,0,1,2.52-7.93c2.31-3.51,5.94-6,9.87-8.32,3.63-2.13,7.51-4.07,10.75-6.48h0c.55-.39,1.06-.81,1.55-1.22a11.024,11.024,0,0,0,1.08-1,17.6,17.6,0,0,0,1.57-1.66,17.822,17.822,0,0,0,1.08-1.5,12,12,0,0,0,.81-1.45,5.837,5.837,0,0,0,.34-.76c0-.1.1-.22.15-.34.1-.27.2-.57.3-.86a15.739,15.739,0,0,0,.46-1.94,6.887,6.887,0,0,0,.1-.76,12.206,12.206,0,0,0,.12-1.38c.37-10.16-.9-17.91-2.55-27.75-.37-2.19-.69-4.35-.93-6.46-4.57-37.77,8.44-63.68,35.09-69.35-2.25.49-5,7-5.45,8.81-2.28,8.46,9,12.24,14.63,15.7a11.8,11.8,0,0,1,5.15,6.66C211.37,166.29,194.51,202.86,170.39,233.16Z" transform="translate(180 2799)" fill="#12263f"/>
    <path id="Trazado_172221" data-name="Trazado 172221" d="M213.31,87.55l-1.5,5.35-2.48,8.91-4.32,15.51L186.19,97.39l4.54-16.23,7.74-3.22Z" transform="translate(180 2799)" fill="#f2b997"/>
    <path id="Trazado_172222" data-name="Trazado 172222" d="M211.81,92.9l-2.48,8.91-.27-6.23c-3.23-2.78-3.5-5.45-3.5-5.45Z" transform="translate(180 2799)" fill="#f7d2ab" opacity="0.7"/>
    <path id="Trazado_172223" data-name="Trazado 172223" d="M208.16,56.15a1.58,1.58,0,0,1,1.89.06l4.59,3.65a9.76,9.76,0,0,1,3.19,6.92V67a2.75,2.75,0,0,0,1,2.06l6.83,5.26a1.48,1.48,0,0,1,.57,1.11,1.42,1.42,0,0,1-.47,1.14l-2.32,2.06L223.17,80a1.14,1.14,0,0,1,.71.15,1.51,1.51,0,0,1,.58,2,1.31,1.31,0,0,1-1,.72,1.52,1.52,0,0,1,.32,1.75,1.29,1.29,0,0,1-1.82.58l-.48,2.16s.2.89.42,2.23a4.55,4.55,0,0,1-.67,3.29s-1.91,4-9.79,1.32l-7.29-1.94a9.69,9.69,0,0,1-6.15-7.9,3.25,3.25,0,0,0-1.24-2.09c-2.25-1.74-3.62-5.9-3.62-5.9l7.62-1.6a21.08,21.08,0,0,1,1.8,3.93l2.36-1.45S200.19,61.73,208.16,56.15Z" transform="translate(180 2799)" fill="#f2b997"/>
    <path id="Trazado_172224" data-name="Trazado 172224" d="M213.23,73.6l3.54-.85c1-.53.8-1.46.25-1.75a.47.47,0,0,0-.52,0Z" transform="translate(180 2799)" fill="#2e142d"/>
    <path id="Trazado_172225" data-name="Trazado 172225" d="M175.76,157.68l-12.91,21.13c-.41.68.66,4.2.73,5a43.711,43.711,0,0,1-.53,12.35c-3.73,19.45-32.48,25.93-23.24,49.72H122.97V235.62a15.56,15.56,0,0,1,2.52-7.93c2.31-3.51,5.94-6,9.87-8.32,3.63-2.13,7.51-4.07,10.77-6.48.55-.39,1.06-.81,1.55-1.22a10,10,0,0,0,1.08-1,17.6,17.6,0,0,0,1.57-1.66c.39-.5.74-1,1.08-1.5a12,12,0,0,0,.81-1.45,5.837,5.837,0,0,0,.34-.76c0-.1.1-.22.15-.34.1-.27.22-.57.3-.86a15.736,15.736,0,0,0,.46-1.94,3.762,3.762,0,0,0,.1-.76,12.209,12.209,0,0,0,.12-1.38c.37-10.16-.9-17.91-2.55-27.75-.37-2.19-.69-4.35-.93-6.46l32.2-46.92S196,129.65,175.76,157.68Z" transform="translate(180 2799)" fill="#12263f" opacity="0.5"/>
    <path id="Trazado_172226" data-name="Trazado 172226" d="M153.34,289l.91-9a6.9,6.9,0,0,0-6.21-7.57l-15.66-1.6a6.93,6.93,0,0,0-7.59,6.2l-.91,9,3.74.37.91-9a3.17,3.17,0,0,1,3.47-2.84l15.67,1.58a3.22,3.22,0,0,1,2.14,1.15,3.16,3.16,0,0,1,.69,2.33l-.9,9Z" transform="translate(180 2799)" fill="#ba8a7e"/>
    <path id="Trazado_172227" data-name="Trazado 172227" d="M189.85,319.05l-4.25,41.86a7.71,7.71,0,0,1-8.36,6.89l-88.85-9.06a7.63,7.63,0,0,1-6.84-8.32l4.26-42Z" transform="translate(180 2799)" fill="#7395cb"/>
    <path id="Trazado_172228" data-name="Trazado 172228" d="M88.1,285.82a7.68,7.68,0,0,1,8.33-6.9L185.29,288a7.64,7.64,0,0,1,6.87,8.31l-2.31,22.74-104-10.63Z" transform="translate(180 2799)" fill="#93b3d8"/>
    <path id="Trazado_172229" data-name="Trazado 172229" d="M130.7,314.81A5.681,5.681,0,0,0,142,316l.62-6.12a5.679,5.679,0,1,0-11.3-1.14Z" transform="translate(180 2799)" fill="#674328"/>
    <path id="Trazado_172230" data-name="Trazado 172230" d="M132,314.94a5.679,5.679,0,1,0,11.3,1.14l.609-6.12a5.674,5.674,0,0,0-11.29-1.14Z" transform="translate(180 2799)" fill="#674328"/>
    <path id="Trazado_172231" data-name="Trazado 172231" d="M136,310.38a2.12,2.12,0,1,0,.77-1.434A2.13,2.13,0,0,0,136,310.38Z" transform="translate(180 2799)" fill="#fff"/>
    <path id="Trazado_172232" data-name="Trazado 172232" d="M137.12,311.83l1.74.18-.37,3.63a.87.87,0,0,1-1,.78.89.89,0,0,1-.59-.32.83.83,0,0,1-.19-.64Z" transform="translate(180 2799)" fill="#fff"/>
    <path id="Trazado_172233" data-name="Trazado 172233" d="M201.27,83.36a2.17,2.17,0,0,1-3,.12c-3.25-2.89-6.92-5.83-4.65-9.8a4.34,4.34,0,0,1,3.27-2.13,3.66,3.66,0,0,1,1.61.32,4.72,4.72,0,0,1,2.68,2.65l1.1,2.75a6,6,0,0,1-.88,6h0Z" transform="translate(180 2799)" fill="#f2b997"/>
    <path id="Trazado_172234" data-name="Trazado 172234" d="M147.32,273.14a13,13,0,0,1,.73,2.68,1.93,1.93,0,0,1-2,2.4,1.75,1.75,0,0,1-1.42-.78,2.49,2.49,0,0,1-2.14,1.18c-.71,0-1.3-.81-2-2a2,2,0,0,1-.68,1c-.81.64-2.33.13-2.87-1.2a2.08,2.08,0,0,1-2.75.79c-.79-.49-1.13-2.46-1.57-3.93a34,34,0,0,1-1.16-4.34c-.29-1.82.64-6.07.81-9.08h0c-.44-2.7-2.67-23.21-4.44-39.81-.69-6.38-1.3-12.17-1.72-16.14,3.76-2.43,9.43-4.45,15.24-.35v3.17c0,15.07-.12,43.58,0,53.13a16.261,16.261,0,0,0,2.7,2.06c.78.54,1.84,1.18,2.72,1.79a4.364,4.364,0,0,1,1.77,1.87c.29,1.08,1.28,5.15,1.18,6.5C149.72,272.78,148.13,274.93,147.32,273.14Z" transform="translate(180 2799)" fill="#f2b997"/>
    <path id="Trazado_172235" data-name="Trazado 172235" d="M181.85,132.28a16,16,0,0,0,1.82-14.88c-1.9-5-4.24-7-9.41-8.18a15.56,15.56,0,0,0-17.88,9.17L126,191.62a15.61,15.61,0,0,0-.41,6.8s.22,2.08.57,5.46c3.76-2.41,9.44-4.43,15.24-.35v-6.41Z" transform="translate(180 2799)" fill="#12263f"/>
    <path id="Trazado_172236" data-name="Trazado 172236" d="M182.48,160.88a20.49,20.49,0,0,0,11-4.78,8.75,8.75,0,0,0,12.89-8.73l-1.54-13.24c5-14.74,6.48-33.15-9.17-53.39q-2.25-2.92-5-5.88l-12.3,5.35-7.83,3.42A34.9,34.9,0,0,1,172.05,87c2.77,7,7.3,23.28-4.81,34.44a23.19,23.19,0,0,0-7.42,12.25,15.34,15.34,0,0,0-.89,7.2,15,15,0,0,0,.87,3.58,20.77,20.77,0,0,0,22.68,16.41Z" transform="translate(180 2799)" fill="#ec777c"/>
    <path id="Trazado_172237" data-name="Trazado 172237" d="M182.48,160.88a20.839,20.839,0,0,0,5.38-1.37c-22.82-8.45-10.31-31.38-10.31-31.38,14.58-24.28,4.34-23.7,1.46-41.11a53.629,53.629,0,0,1-.65-6.81c0-1.32-.05-2.72,0-4.21.82-29.63,25.91-28.46,34.55-27.17-21.27-10.93-33.8,4.3-33.8,4.3l-.5.16a10.441,10.441,0,0,0-1.25,0,8.45,8.45,0,0,0-5.36,14c-6.37,6.21-1.6,16.62.05,19.73,2.77,7,7.3,23.28-4.81,34.44a23.19,23.19,0,0,0-7.42,12.25,15.34,15.34,0,0,0-.89,7.2,15,15,0,0,0,.87,3.58,20.77,20.77,0,0,0,22.68,16.39Z" transform="translate(180 2799)" fill="#c25257"/>
    <path id="Trazado_172238" data-name="Trazado 172238" d="M141.4,203.54v3.17c-4.2-.37-12,.74-13.5,13.32-.69-6.38-1.3-12.17-1.72-16.14C129.92,201.46,135.59,199.44,141.4,203.54Z" transform="translate(180 2799)" fill="#f7d2ab" opacity="0.7"/>
    <path id="Trazado_191509" data-name="Trazado 191509" d="M0,0H175.36V171.83H0Z" transform="translate(428.19 3222.12)" fill="#175186"/>
    <path id="Trazado_191510" data-name="Trazado 191510" d="M0,0H175.36V85.83H0Z" transform="translate(252.83 3308.13)" fill="#104c82"/>
    <path id="Trazado_191511" data-name="Trazado 191511" d="M0,0H175.36V344.53H0Z" transform="translate(778.9 3049.43)" fill="#235a8c"/>
    <path id="Trazado_191512" data-name="Trazado 191512" d="M0,0H175.36V258.52H0Z" transform="translate(603.54 3135.439)" fill="#1c5588"/>
    <path id="Trazado_191513" data-name="Trazado 191513" d="M0,0H217.56V516.01H0Z" transform="translate(1129.61 2877.95)" fill="#2f6392"/>
    <path id="Trazado_191514" data-name="Trazado 191514" d="M0,0H175.36V430H0Z" transform="translate(954.26 2963.95)" fill="#285e8e"/>
    <path id="Trazado_191515" data-name="Trazado 191515" d="M11.813,0H10L3.516-10.046a4.2,4.2,0,0,1-.4-.791H3.059a12.976,12.976,0,0,1,.07,1.731V0H1.652V-12.6H3.568L9.879-2.716q.4.615.51.844h.035a13.335,13.335,0,0,1-.088-1.854V-12.6h1.477Zm3.85-11.285A.913.913,0,0,1,15-11.549a.89.89,0,0,1-.272-.668A.9.9,0,0,1,15-12.889a.905.905,0,0,1,.659-.268.931.931,0,0,1,.672.268.9.9,0,0,1,.277.672.891.891,0,0,1-.277.659A.923.923,0,0,1,15.662-11.285ZM16.365,0H14.924V-9h1.441Zm9.993-9L22.772,0H21.357l-3.41-9h1.582l2.285,6.539A5.869,5.869,0,0,1,22.131-1.2h.035a5.943,5.943,0,0,1,.281-1.222L24.838-9Zm8.6,4.86H28.6a3.366,3.366,0,0,0,.809,2.32A2.788,2.788,0,0,0,31.54-1a4.422,4.422,0,0,0,2.795-1V-.65A5.224,5.224,0,0,1,31.2.211a3.8,3.8,0,0,1-3-1.226,5.018,5.018,0,0,1-1.09-3.45A4.921,4.921,0,0,1,28.3-7.888a3.819,3.819,0,0,1,2.958-1.323,3.384,3.384,0,0,1,2.733,1.143A4.764,4.764,0,0,1,34.959-4.9ZM33.482-5.361a2.933,2.933,0,0,0-.6-1.942A2.051,2.051,0,0,0,31.232-8a2.328,2.328,0,0,0-1.731.729,3.311,3.311,0,0,0-.879,1.907ZM38.58,0H37.138V-13.324H38.58ZM54.11,0H52.669V-1.529h-.035A3.327,3.327,0,0,1,49.54.211,3.362,3.362,0,0,1,46.828-1a4.958,4.958,0,0,1-1.015-3.292,5.394,5.394,0,0,1,1.125-3.577,3.71,3.71,0,0,1,3-1.345,2.885,2.885,0,0,1,2.7,1.459h.035v-5.572H54.11ZM52.669-4.069V-5.4a2.575,2.575,0,0,0-.721-1.846A2.417,2.417,0,0,0,50.12-8a2.489,2.489,0,0,0-2.074.967,4.237,4.237,0,0,0-.756,2.672A3.81,3.81,0,0,0,48.015-1.9a2.37,2.37,0,0,0,1.947.9,2.462,2.462,0,0,0,1.956-.87A3.242,3.242,0,0,0,52.669-4.069Zm11.593-.07H57.907a3.366,3.366,0,0,0,.809,2.32A2.788,2.788,0,0,0,60.842-1a4.422,4.422,0,0,0,2.795-1V-.65A5.224,5.224,0,0,1,60.5.211a3.8,3.8,0,0,1-3-1.226,5.018,5.018,0,0,1-1.09-3.45A4.921,4.921,0,0,1,57.6-7.888a3.819,3.819,0,0,1,2.958-1.323,3.384,3.384,0,0,1,2.733,1.143A4.764,4.764,0,0,1,64.261-4.9ZM62.785-5.361a2.933,2.933,0,0,0-.6-1.942A2.051,2.051,0,0,0,60.535-8a2.328,2.328,0,0,0-1.731.729,3.311,3.311,0,0,0-.879,1.907ZM7.594,21.187a4.684,4.684,0,0,1-2.461.624,4.074,4.074,0,0,1-3.107-1.252A4.539,4.539,0,0,1,.844,17.311a4.99,4.99,0,0,1,1.274-3.573,4.458,4.458,0,0,1,3.4-1.349,4.735,4.735,0,0,1,2.092.439v1.477a3.665,3.665,0,0,0-2.145-.7,2.9,2.9,0,0,0-2.263.989,3.752,3.752,0,0,0-.883,2.6,3.573,3.573,0,0,0,.831,2.5,2.863,2.863,0,0,0,2.228.914,3.613,3.613,0,0,0,2.215-.782Zm8.622.413H14.774V20.194h-.035a3.018,3.018,0,0,1-2.769,1.617,2.959,2.959,0,0,1-2.1-.712,2.466,2.466,0,0,1-.76-1.89q0-2.522,2.971-2.936l2.7-.378q0-2.294-1.854-2.294a4.431,4.431,0,0,0-2.936,1.107V13.233a5.577,5.577,0,0,1,3.059-.844q3.173,0,3.173,3.357Zm-1.441-4.553-2.171.3a3.525,3.525,0,0,0-1.512.5,1.432,1.432,0,0,0-.51,1.261,1.374,1.374,0,0,0,.47,1.077A1.817,1.817,0,0,0,12.3,20.6a2.314,2.314,0,0,0,1.771-.751,2.685,2.685,0,0,0,.7-1.9ZM20.408,20.3h-.035v5.44H18.932V12.6h1.441v1.582h.035a3.408,3.408,0,0,1,3.111-1.793A3.3,3.3,0,0,1,26.235,13.6a5.005,5.005,0,0,1,.976,3.239,5.578,5.578,0,0,1-1.1,3.617,3.658,3.658,0,0,1-3.006,1.358A3.011,3.011,0,0,1,20.408,20.3Zm-.035-3.63v1.257A2.676,2.676,0,0,0,21.1,19.82a2.587,2.587,0,0,0,3.894-.224,4.6,4.6,0,0,0,.743-2.786,3.629,3.629,0,0,0-.694-2.355,2.3,2.3,0,0,0-1.881-.853,2.554,2.554,0,0,0-2.021.875A3.211,3.211,0,0,0,20.373,16.669ZM35.956,21.6H34.515V20.194h-.035a3.018,3.018,0,0,1-2.769,1.617,2.959,2.959,0,0,1-2.1-.712,2.466,2.466,0,0,1-.76-1.89q0-2.522,2.971-2.936l2.7-.378q0-2.294-1.854-2.294a4.431,4.431,0,0,0-2.936,1.107V13.233a5.577,5.577,0,0,1,3.059-.844q3.173,0,3.173,3.357Zm-1.441-4.553-2.171.3a3.525,3.525,0,0,0-1.512.5,1.432,1.432,0,0,0-.51,1.261,1.374,1.374,0,0,0,.47,1.077,1.817,1.817,0,0,0,1.252.417,2.314,2.314,0,0,0,1.771-.751,2.685,2.685,0,0,0,.7-1.9Zm10.292,4.14a4.684,4.684,0,0,1-2.461.624,4.074,4.074,0,0,1-3.107-1.252,4.539,4.539,0,0,1-1.182-3.248,4.99,4.99,0,0,1,1.274-3.573,4.458,4.458,0,0,1,3.4-1.349,4.735,4.735,0,0,1,2.092.439v1.477a3.665,3.665,0,0,0-2.145-.7,2.9,2.9,0,0,0-2.263.989,3.752,3.752,0,0,0-.883,2.6,3.573,3.573,0,0,0,.831,2.5,2.863,2.863,0,0,0,2.228.914,3.613,3.613,0,0,0,2.215-.782Zm2.918-10.872a.913.913,0,0,1-.659-.264.89.89,0,0,1-.272-.668.923.923,0,0,1,.932-.94.931.931,0,0,1,.672.268.939.939,0,0,1,0,1.332A.923.923,0,0,1,47.725,10.315Zm.7,11.285H46.986v-9h1.441Zm10.6,0H57.586V20.071h-.035a3.327,3.327,0,0,1-3.094,1.74A3.362,3.362,0,0,1,51.746,20.6a4.958,4.958,0,0,1-1.015-3.292,5.394,5.394,0,0,1,1.125-3.577,3.71,3.71,0,0,1,3-1.345,2.885,2.885,0,0,1,2.7,1.459h.035V8.276h1.441Zm-1.441-4.069V16.2a2.575,2.575,0,0,0-.721-1.846,2.417,2.417,0,0,0-1.828-.756,2.489,2.489,0,0,0-2.074.967,4.237,4.237,0,0,0-.756,2.672,3.81,3.81,0,0,0,.725,2.457,2.37,2.37,0,0,0,1.947.9,2.462,2.462,0,0,0,1.956-.87A3.242,3.242,0,0,0,57.586,17.531Zm10.8,4.069H66.946V20.194h-.035a3.018,3.018,0,0,1-2.769,1.617,2.959,2.959,0,0,1-2.1-.712,2.466,2.466,0,0,1-.76-1.89q0-2.522,2.971-2.936l2.7-.378q0-2.294-1.854-2.294a4.431,4.431,0,0,0-2.936,1.107V13.233a5.577,5.577,0,0,1,3.059-.844q3.173,0,3.173,3.357Zm-1.441-4.553-2.171.3a3.525,3.525,0,0,0-1.512.5,1.432,1.432,0,0,0-.51,1.261,1.374,1.374,0,0,0,.47,1.077,1.817,1.817,0,0,0,1.252.417,2.314,2.314,0,0,0,1.771-.751,2.685,2.685,0,0,0,.7-1.9ZM78.785,21.6H77.344V20.071h-.035a3.327,3.327,0,0,1-3.094,1.74A3.362,3.362,0,0,1,71.5,20.6a4.958,4.958,0,0,1-1.015-3.292,5.394,5.394,0,0,1,1.125-3.577,3.71,3.71,0,0,1,3-1.345,2.885,2.885,0,0,1,2.7,1.459h.035V8.276h1.441Zm-1.441-4.069V16.2a2.575,2.575,0,0,0-.721-1.846,2.417,2.417,0,0,0-1.828-.756,2.489,2.489,0,0,0-2.074.967,4.237,4.237,0,0,0-.756,2.672A3.81,3.81,0,0,0,72.69,19.7a2.37,2.37,0,0,0,1.947.9,2.462,2.462,0,0,0,1.956-.87A3.242,3.242,0,0,0,77.344,17.531Zm16.8-2.285a12.381,12.381,0,0,1-.286,2.8,6.533,6.533,0,0,1-.826,2.061A3.718,3.718,0,0,1,91.7,21.385a3.633,3.633,0,0,1-1.789.435A3.393,3.393,0,0,1,88.22,21.4a3.546,3.546,0,0,1-1.252-1.217,6.17,6.17,0,0,1-.773-1.964,12.146,12.146,0,0,1-.264-2.667,13.749,13.749,0,0,1,.277-2.918,6.674,6.674,0,0,1,.813-2.123,3.619,3.619,0,0,1,1.332-1.292,3.739,3.739,0,0,1,1.824-.435Q94.14,8.786,94.14,15.246Zm-1.477.141q0-5.379-2.558-5.379-2.7,0-2.7,5.476,0,5.106,2.646,5.106Q92.663,20.589,92.663,15.386Zm4.175-1.028a.933.933,0,0,1-.69-.29.955.955,0,0,1-.286-.694.926.926,0,0,1,.286-.686.948.948,0,0,1,.69-.281.973.973,0,0,1,.7.281.919.919,0,0,1,.29.686.947.947,0,0,1-.29.694A.958.958,0,0,1,96.838,14.358Zm0,7.436a.933.933,0,0,1-.69-.29.955.955,0,0,1-.286-.694.969.969,0,0,1,.286-.7.926.926,0,0,1,.69-.294.95.95,0,0,1,.7.294.962.962,0,0,1,.29.7.947.947,0,0,1-.29.694A.958.958,0,0,1,96.838,21.793ZM3.129,43.2H1.652V30.6H3.129Zm10.591,0H12.278V38.067q0-2.865-2.092-2.865a2.269,2.269,0,0,0-1.789.813,3.013,3.013,0,0,0-.708,2.052V43.2H6.249v-9H7.69v1.494h.035a3.248,3.248,0,0,1,2.953-1.705,2.753,2.753,0,0,1,2.259.954A4.248,4.248,0,0,1,13.72,37.7Zm8.851-.413a4.684,4.684,0,0,1-2.461.624A4.074,4.074,0,0,1,17,42.158a4.539,4.539,0,0,1-1.182-3.248,4.99,4.99,0,0,1,1.274-3.573,4.458,4.458,0,0,1,3.4-1.349,4.735,4.735,0,0,1,2.092.439v1.477a3.665,3.665,0,0,0-2.145-.7,2.9,2.9,0,0,0-2.263.989,3.752,3.752,0,0,0-.883,2.6,3.573,3.573,0,0,0,.831,2.5,2.863,2.863,0,0,0,2.228.914,3.613,3.613,0,0,0,2.215-.782Zm5.941.624a4.175,4.175,0,0,1-3.186-1.261,4.672,4.672,0,0,1-1.191-3.344,4.867,4.867,0,0,1,1.239-3.542,4.455,4.455,0,0,1,3.349-1.274,4.037,4.037,0,0,1,3.142,1.239,4.914,4.914,0,0,1,1.129,3.437,4.835,4.835,0,0,1-1.217,3.45A4.265,4.265,0,0,1,28.512,43.411Zm.105-8.209a2.742,2.742,0,0,0-2.2.945,3.88,3.88,0,0,0-.809,2.606,3.67,3.67,0,0,0,.817,2.522,2.778,2.778,0,0,0,2.188.923,2.635,2.635,0,0,0,2.149-.905,3.928,3.928,0,0,0,.751-2.575,4,4,0,0,0-.751-2.6A2.623,2.623,0,0,0,28.617,35.2Zm19.459,8H46.635V38.032a3.9,3.9,0,0,0-.461-2.162,1.75,1.75,0,0,0-1.551-.668,1.921,1.921,0,0,0-1.569.844,3.228,3.228,0,0,0-.646,2.021V43.2H40.966V37.856q0-2.654-2.048-2.654a1.9,1.9,0,0,0-1.564.8,3.288,3.288,0,0,0-.615,2.07V43.2H35.3v-9h1.441v1.424h.035a3.058,3.058,0,0,1,2.795-1.635,2.6,2.6,0,0,1,2.549,1.863,3.212,3.212,0,0,1,2.988-1.863q2.971,0,2.971,3.665Zm4.2-1.3h-.035v5.44H50.8V34.2h1.441v1.582h.035a3.408,3.408,0,0,1,3.111-1.793A3.3,3.3,0,0,1,58.1,35.2a5.005,5.005,0,0,1,.976,3.239,5.578,5.578,0,0,1-1.1,3.617,3.658,3.658,0,0,1-3.006,1.358A3.011,3.011,0,0,1,52.277,41.9Zm-.035-3.63v1.257a2.676,2.676,0,0,0,.725,1.894,2.587,2.587,0,0,0,3.894-.224A4.6,4.6,0,0,0,57.6,38.41a3.629,3.629,0,0,0-.694-2.355,2.3,2.3,0,0,0-1.881-.853,2.554,2.554,0,0,0-2.021.875A3.211,3.211,0,0,0,52.242,38.269ZM62.824,43.2H61.383V29.876h1.441Zm10.151-4.14H66.621a3.366,3.366,0,0,0,.809,2.32,2.788,2.788,0,0,0,2.127.817,4.422,4.422,0,0,0,2.795-1V42.55a5.224,5.224,0,0,1-3.138.861,3.8,3.8,0,0,1-3-1.226,5.018,5.018,0,0,1-1.09-3.45,4.921,4.921,0,0,1,1.191-3.423,3.819,3.819,0,0,1,2.958-1.323,3.384,3.384,0,0,1,2.733,1.143,4.764,4.764,0,0,1,.967,3.173ZM71.5,37.839a2.933,2.933,0,0,0-.6-1.942,2.051,2.051,0,0,0-1.648-.694,2.328,2.328,0,0,0-1.731.729,3.31,3.31,0,0,0-.879,1.907Zm7.831,5.273a2.779,2.779,0,0,1-1.345.281q-2.364,0-2.364-2.637V35.43H74.074V34.2h1.547V32l1.441-.466V34.2H79.33v1.23H77.063V40.5a2.1,2.1,0,0,0,.308,1.292,1.228,1.228,0,0,0,1.02.387,1.515,1.515,0,0,0,.94-.3ZM87.7,43.2H86.256V41.794h-.035a3.018,3.018,0,0,1-2.769,1.617,2.959,2.959,0,0,1-2.1-.712,2.466,2.466,0,0,1-.76-1.89q0-2.522,2.971-2.936l2.7-.378q0-2.294-1.854-2.294a4.431,4.431,0,0,0-2.936,1.107V34.833a5.577,5.577,0,0,1,3.059-.844q3.173,0,3.173,3.357Zm-1.441-4.553-2.171.3a3.525,3.525,0,0,0-1.512.5,1.432,1.432,0,0,0-.51,1.261,1.374,1.374,0,0,0,.47,1.077,1.817,1.817,0,0,0,1.252.417,2.314,2.314,0,0,0,1.771-.751,2.685,2.685,0,0,0,.7-1.9Z" transform="translate(313.13 3335.47)" fill="#fff"/>
    <path id="Trazado_191516" data-name="Trazado 191516" d="M11.813,0H10L3.516-10.046a4.2,4.2,0,0,1-.4-.791H3.059a12.976,12.976,0,0,1,.07,1.731V0H1.652V-12.6H3.568L9.879-2.716q.4.615.51.844h.035a13.335,13.335,0,0,1-.088-1.854V-12.6h1.477Zm3.85-11.285A.913.913,0,0,1,15-11.549a.89.89,0,0,1-.272-.668A.9.9,0,0,1,15-12.889a.905.905,0,0,1,.659-.268.931.931,0,0,1,.672.268.9.9,0,0,1,.277.672.891.891,0,0,1-.277.659A.923.923,0,0,1,15.662-11.285ZM16.365,0H14.924V-9h1.441Zm9.993-9L22.772,0H21.357l-3.41-9h1.582l2.285,6.539A5.869,5.869,0,0,1,22.131-1.2h.035a5.943,5.943,0,0,1,.281-1.222L24.838-9Zm8.6,4.86H28.6a3.366,3.366,0,0,0,.809,2.32A2.788,2.788,0,0,0,31.54-1a4.422,4.422,0,0,0,2.795-1V-.65A5.224,5.224,0,0,1,31.2.211a3.8,3.8,0,0,1-3-1.226,5.018,5.018,0,0,1-1.09-3.45A4.921,4.921,0,0,1,28.3-7.888a3.819,3.819,0,0,1,2.958-1.323,3.384,3.384,0,0,1,2.733,1.143A4.764,4.764,0,0,1,34.959-4.9ZM33.482-5.361a2.933,2.933,0,0,0-.6-1.942A2.051,2.051,0,0,0,31.232-8a2.328,2.328,0,0,0-1.731.729,3.311,3.311,0,0,0-.879,1.907ZM38.58,0H37.138V-13.324H38.58ZM54.11,0H52.669V-1.529h-.035A3.327,3.327,0,0,1,49.54.211,3.362,3.362,0,0,1,46.828-1a4.958,4.958,0,0,1-1.015-3.292,5.394,5.394,0,0,1,1.125-3.577,3.71,3.71,0,0,1,3-1.345,2.885,2.885,0,0,1,2.7,1.459h.035v-5.572H54.11ZM52.669-4.069V-5.4a2.575,2.575,0,0,0-.721-1.846A2.417,2.417,0,0,0,50.12-8a2.489,2.489,0,0,0-2.074.967,4.237,4.237,0,0,0-.756,2.672A3.81,3.81,0,0,0,48.015-1.9a2.37,2.37,0,0,0,1.947.9,2.462,2.462,0,0,0,1.956-.87A3.242,3.242,0,0,0,52.669-4.069Zm11.593-.07H57.907a3.366,3.366,0,0,0,.809,2.32A2.788,2.788,0,0,0,60.842-1a4.422,4.422,0,0,0,2.795-1V-.65A5.224,5.224,0,0,1,60.5.211a3.8,3.8,0,0,1-3-1.226,5.018,5.018,0,0,1-1.09-3.45A4.921,4.921,0,0,1,57.6-7.888a3.819,3.819,0,0,1,2.958-1.323,3.384,3.384,0,0,1,2.733,1.143A4.764,4.764,0,0,1,64.261-4.9ZM62.785-5.361a2.933,2.933,0,0,0-.6-1.942A2.051,2.051,0,0,0,60.535-8a2.328,2.328,0,0,0-1.731.729,3.311,3.311,0,0,0-.879,1.907ZM7.594,21.187a4.684,4.684,0,0,1-2.461.624,4.074,4.074,0,0,1-3.107-1.252A4.539,4.539,0,0,1,.844,17.311a4.99,4.99,0,0,1,1.274-3.573,4.458,4.458,0,0,1,3.4-1.349,4.735,4.735,0,0,1,2.092.439v1.477a3.665,3.665,0,0,0-2.145-.7,2.9,2.9,0,0,0-2.263.989,3.752,3.752,0,0,0-.883,2.6,3.573,3.573,0,0,0,.831,2.5,2.863,2.863,0,0,0,2.228.914,3.613,3.613,0,0,0,2.215-.782Zm8.622.413H14.774V20.194h-.035a3.018,3.018,0,0,1-2.769,1.617,2.959,2.959,0,0,1-2.1-.712,2.466,2.466,0,0,1-.76-1.89q0-2.522,2.971-2.936l2.7-.378q0-2.294-1.854-2.294a4.431,4.431,0,0,0-2.936,1.107V13.233a5.577,5.577,0,0,1,3.059-.844q3.173,0,3.173,3.357Zm-1.441-4.553-2.171.3a3.525,3.525,0,0,0-1.512.5,1.432,1.432,0,0,0-.51,1.261,1.374,1.374,0,0,0,.47,1.077A1.817,1.817,0,0,0,12.3,20.6a2.314,2.314,0,0,0,1.771-.751,2.685,2.685,0,0,0,.7-1.9ZM20.408,20.3h-.035v5.44H18.932V12.6h1.441v1.582h.035a3.408,3.408,0,0,1,3.111-1.793A3.3,3.3,0,0,1,26.235,13.6a5.005,5.005,0,0,1,.976,3.239,5.578,5.578,0,0,1-1.1,3.617,3.658,3.658,0,0,1-3.006,1.358A3.011,3.011,0,0,1,20.408,20.3Zm-.035-3.63v1.257A2.676,2.676,0,0,0,21.1,19.82a2.587,2.587,0,0,0,3.894-.224,4.6,4.6,0,0,0,.743-2.786,3.629,3.629,0,0,0-.694-2.355,2.3,2.3,0,0,0-1.881-.853,2.554,2.554,0,0,0-2.021.875A3.211,3.211,0,0,0,20.373,16.669ZM35.956,21.6H34.515V20.194h-.035a3.018,3.018,0,0,1-2.769,1.617,2.959,2.959,0,0,1-2.1-.712,2.466,2.466,0,0,1-.76-1.89q0-2.522,2.971-2.936l2.7-.378q0-2.294-1.854-2.294a4.431,4.431,0,0,0-2.936,1.107V13.233a5.577,5.577,0,0,1,3.059-.844q3.173,0,3.173,3.357Zm-1.441-4.553-2.171.3a3.525,3.525,0,0,0-1.512.5,1.432,1.432,0,0,0-.51,1.261,1.374,1.374,0,0,0,.47,1.077,1.817,1.817,0,0,0,1.252.417,2.314,2.314,0,0,0,1.771-.751,2.685,2.685,0,0,0,.7-1.9Zm10.292,4.14a4.684,4.684,0,0,1-2.461.624,4.074,4.074,0,0,1-3.107-1.252,4.539,4.539,0,0,1-1.182-3.248,4.99,4.99,0,0,1,1.274-3.573,4.458,4.458,0,0,1,3.4-1.349,4.735,4.735,0,0,1,2.092.439v1.477a3.665,3.665,0,0,0-2.145-.7,2.9,2.9,0,0,0-2.263.989,3.752,3.752,0,0,0-.883,2.6,3.573,3.573,0,0,0,.831,2.5,2.863,2.863,0,0,0,2.228.914,3.613,3.613,0,0,0,2.215-.782Zm2.918-10.872a.913.913,0,0,1-.659-.264.89.89,0,0,1-.272-.668.923.923,0,0,1,.932-.94.931.931,0,0,1,.672.268.939.939,0,0,1,0,1.332A.923.923,0,0,1,47.725,10.315Zm.7,11.285H46.986v-9h1.441Zm10.6,0H57.586V20.071h-.035a3.327,3.327,0,0,1-3.094,1.74A3.362,3.362,0,0,1,51.746,20.6a4.958,4.958,0,0,1-1.015-3.292,5.394,5.394,0,0,1,1.125-3.577,3.71,3.71,0,0,1,3-1.345,2.885,2.885,0,0,1,2.7,1.459h.035V8.276h1.441Zm-1.441-4.069V16.2a2.575,2.575,0,0,0-.721-1.846,2.417,2.417,0,0,0-1.828-.756,2.489,2.489,0,0,0-2.074.967,4.237,4.237,0,0,0-.756,2.672,3.81,3.81,0,0,0,.725,2.457,2.37,2.37,0,0,0,1.947.9,2.462,2.462,0,0,0,1.956-.87A3.242,3.242,0,0,0,57.586,17.531Zm10.8,4.069H66.946V20.194h-.035a3.018,3.018,0,0,1-2.769,1.617,2.959,2.959,0,0,1-2.1-.712,2.466,2.466,0,0,1-.76-1.89q0-2.522,2.971-2.936l2.7-.378q0-2.294-1.854-2.294a4.431,4.431,0,0,0-2.936,1.107V13.233a5.577,5.577,0,0,1,3.059-.844q3.173,0,3.173,3.357Zm-1.441-4.553-2.171.3a3.525,3.525,0,0,0-1.512.5,1.432,1.432,0,0,0-.51,1.261,1.374,1.374,0,0,0,.47,1.077,1.817,1.817,0,0,0,1.252.417,2.314,2.314,0,0,0,1.771-.751,2.685,2.685,0,0,0,.7-1.9ZM78.785,21.6H77.344V20.071h-.035a3.327,3.327,0,0,1-3.094,1.74A3.362,3.362,0,0,1,71.5,20.6a4.958,4.958,0,0,1-1.015-3.292,5.394,5.394,0,0,1,1.125-3.577,3.71,3.71,0,0,1,3-1.345,2.885,2.885,0,0,1,2.7,1.459h.035V8.276h1.441Zm-1.441-4.069V16.2a2.575,2.575,0,0,0-.721-1.846,2.417,2.417,0,0,0-1.828-.756,2.489,2.489,0,0,0-2.074.967,4.237,4.237,0,0,0-.756,2.672A3.81,3.81,0,0,0,72.69,19.7a2.37,2.37,0,0,0,1.947.9,2.462,2.462,0,0,0,1.956-.87A3.242,3.242,0,0,0,77.344,17.531ZM91.538,21.6H90.1V10.71a3.336,3.336,0,0,1-.488.382,7.951,7.951,0,0,1-.721.426q-.4.211-.844.4a6.132,6.132,0,0,1-.866.29V10.746a8.379,8.379,0,0,0,1.006-.356q.532-.224,1.046-.5t.971-.58a7.71,7.71,0,0,0,.791-.593h.545Zm5.3-7.242a.933.933,0,0,1-.69-.29.955.955,0,0,1-.286-.694.926.926,0,0,1,.286-.686.948.948,0,0,1,.69-.281.973.973,0,0,1,.7.281.919.919,0,0,1,.29.686.947.947,0,0,1-.29.694A.958.958,0,0,1,96.838,14.358Zm0,7.436a.933.933,0,0,1-.69-.29.955.955,0,0,1-.286-.694.969.969,0,0,1,.286-.7.926.926,0,0,1,.69-.294.95.95,0,0,1,.7.294.962.962,0,0,1,.29.7.947.947,0,0,1-.29.694A.958.958,0,0,1,96.838,21.793ZM6.152,35.659a1.763,1.763,0,0,0-1.09-.29,1.839,1.839,0,0,0-1.542.87,4.023,4.023,0,0,0-.62,2.373V43.2H1.459v-9H2.9v1.854h.035a3.143,3.143,0,0,1,.94-1.481,2.144,2.144,0,0,1,1.415-.532,2.353,2.353,0,0,1,.861.123Zm8.618,3.4H8.416a3.366,3.366,0,0,0,.809,2.32,2.788,2.788,0,0,0,2.127.817,4.422,4.422,0,0,0,2.795-1V42.55a5.224,5.224,0,0,1-3.138.861,3.8,3.8,0,0,1-3-1.226,5.018,5.018,0,0,1-1.09-3.45,4.921,4.921,0,0,1,1.191-3.423,3.819,3.819,0,0,1,2.958-1.323A3.384,3.384,0,0,1,13.8,35.132,4.764,4.764,0,0,1,14.77,38.3Zm-1.477-1.222a2.933,2.933,0,0,0-.6-1.942,2.051,2.051,0,0,0-1.648-.694,2.328,2.328,0,0,0-1.731.729,3.31,3.31,0,0,0-.879,1.907Zm10.1,5.361H21.951V41.794h-.035a3.018,3.018,0,0,1-2.769,1.617,2.959,2.959,0,0,1-2.1-.712,2.466,2.466,0,0,1-.76-1.89q0-2.522,2.971-2.936l2.7-.378q0-2.294-1.854-2.294a4.431,4.431,0,0,0-2.936,1.107V34.833a5.577,5.577,0,0,1,3.059-.844q3.173,0,3.173,3.357Zm-1.441-4.553-2.171.3a3.525,3.525,0,0,0-1.512.5,1.432,1.432,0,0,0-.51,1.261,1.374,1.374,0,0,0,.47,1.077,1.817,1.817,0,0,0,1.252.417,2.314,2.314,0,0,0,1.771-.751,2.685,2.685,0,0,0,.7-1.9Zm5.6,4.553H26.108V29.876h1.441Zm3.656-11.285a.913.913,0,0,1-.659-.264.89.89,0,0,1-.272-.668.923.923,0,0,1,.932-.94.931.931,0,0,1,.672.268.939.939,0,0,1,0,1.332A.923.923,0,0,1,31.206,31.915Zm.7,11.285H30.467v-9h1.441ZM41.1,34.613,35.776,41.97h5.273V43.2H33.658v-.448l5.326-7.321H34.159V34.2H41.1ZM49.408,43.2H47.966V41.794h-.035a3.018,3.018,0,0,1-2.769,1.617,2.959,2.959,0,0,1-2.1-.712,2.466,2.466,0,0,1-.76-1.89q0-2.522,2.971-2.936l2.7-.378q0-2.294-1.854-2.294a4.431,4.431,0,0,0-2.936,1.107V34.833a5.577,5.577,0,0,1,3.059-.844q3.173,0,3.173,3.357Zm-1.441-4.553-2.171.3a3.525,3.525,0,0,0-1.512.5,1.432,1.432,0,0,0-.51,1.261,1.374,1.374,0,0,0,.47,1.077A1.817,1.817,0,0,0,45.5,42.2a2.314,2.314,0,0,0,1.771-.751,2.685,2.685,0,0,0,.7-1.9Zm8.851-2.988a1.763,1.763,0,0,0-1.09-.29,1.839,1.839,0,0,0-1.542.87,4.023,4.023,0,0,0-.62,2.373V43.2H52.124v-9h1.441v1.854H53.6a3.143,3.143,0,0,1,.94-1.481,2.144,2.144,0,0,1,1.415-.532,2.353,2.353,0,0,1,.861.123Z" transform="translate(487.81 3253.33)" fill="#fff"/>
    <path id="Trazado_191517" data-name="Trazado 191517" d="M11.813,0H10L3.516-10.046a4.2,4.2,0,0,1-.4-.791H3.059a12.976,12.976,0,0,1,.07,1.731V0H1.652V-12.6H3.568L9.879-2.716q.4.615.51.844h.035a13.335,13.335,0,0,1-.088-1.854V-12.6h1.477Zm3.85-11.285A.913.913,0,0,1,15-11.549a.89.89,0,0,1-.272-.668A.9.9,0,0,1,15-12.889a.905.905,0,0,1,.659-.268.931.931,0,0,1,.672.268.9.9,0,0,1,.277.672.891.891,0,0,1-.277.659A.923.923,0,0,1,15.662-11.285ZM16.365,0H14.924V-9h1.441Zm9.993-9L22.772,0H21.357l-3.41-9h1.582l2.285,6.539A5.869,5.869,0,0,1,22.131-1.2h.035a5.943,5.943,0,0,1,.281-1.222L24.838-9Zm8.6,4.86H28.6a3.366,3.366,0,0,0,.809,2.32A2.788,2.788,0,0,0,31.54-1a4.422,4.422,0,0,0,2.795-1V-.65A5.224,5.224,0,0,1,31.2.211a3.8,3.8,0,0,1-3-1.226,5.018,5.018,0,0,1-1.09-3.45A4.921,4.921,0,0,1,28.3-7.888a3.819,3.819,0,0,1,2.958-1.323,3.384,3.384,0,0,1,2.733,1.143A4.764,4.764,0,0,1,34.959-4.9ZM33.482-5.361a2.933,2.933,0,0,0-.6-1.942A2.051,2.051,0,0,0,31.232-8a2.328,2.328,0,0,0-1.731.729,3.311,3.311,0,0,0-.879,1.907ZM38.58,0H37.138V-13.324H38.58ZM54.11,0H52.669V-1.529h-.035A3.327,3.327,0,0,1,49.54.211,3.362,3.362,0,0,1,46.828-1a4.958,4.958,0,0,1-1.015-3.292,5.394,5.394,0,0,1,1.125-3.577,3.71,3.71,0,0,1,3-1.345,2.885,2.885,0,0,1,2.7,1.459h.035v-5.572H54.11ZM52.669-4.069V-5.4a2.575,2.575,0,0,0-.721-1.846A2.417,2.417,0,0,0,50.12-8a2.489,2.489,0,0,0-2.074.967,4.237,4.237,0,0,0-.756,2.672A3.81,3.81,0,0,0,48.015-1.9a2.37,2.37,0,0,0,1.947.9,2.462,2.462,0,0,0,1.956-.87A3.242,3.242,0,0,0,52.669-4.069Zm11.593-.07H57.907a3.366,3.366,0,0,0,.809,2.32A2.788,2.788,0,0,0,60.842-1a4.422,4.422,0,0,0,2.795-1V-.65A5.224,5.224,0,0,1,60.5.211a3.8,3.8,0,0,1-3-1.226,5.018,5.018,0,0,1-1.09-3.45A4.921,4.921,0,0,1,57.6-7.888a3.819,3.819,0,0,1,2.958-1.323,3.384,3.384,0,0,1,2.733,1.143A4.764,4.764,0,0,1,64.261-4.9ZM62.785-5.361a2.933,2.933,0,0,0-.6-1.942A2.051,2.051,0,0,0,60.535-8a2.328,2.328,0,0,0-1.731.729,3.311,3.311,0,0,0-.879,1.907ZM7.594,21.187a4.684,4.684,0,0,1-2.461.624,4.074,4.074,0,0,1-3.107-1.252A4.539,4.539,0,0,1,.844,17.311a4.99,4.99,0,0,1,1.274-3.573,4.458,4.458,0,0,1,3.4-1.349,4.735,4.735,0,0,1,2.092.439v1.477a3.665,3.665,0,0,0-2.145-.7,2.9,2.9,0,0,0-2.263.989,3.752,3.752,0,0,0-.883,2.6,3.573,3.573,0,0,0,.831,2.5,2.863,2.863,0,0,0,2.228.914,3.613,3.613,0,0,0,2.215-.782Zm8.622.413H14.774V20.194h-.035a3.018,3.018,0,0,1-2.769,1.617,2.959,2.959,0,0,1-2.1-.712,2.466,2.466,0,0,1-.76-1.89q0-2.522,2.971-2.936l2.7-.378q0-2.294-1.854-2.294a4.431,4.431,0,0,0-2.936,1.107V13.233a5.577,5.577,0,0,1,3.059-.844q3.173,0,3.173,3.357Zm-1.441-4.553-2.171.3a3.525,3.525,0,0,0-1.512.5,1.432,1.432,0,0,0-.51,1.261,1.374,1.374,0,0,0,.47,1.077A1.817,1.817,0,0,0,12.3,20.6a2.314,2.314,0,0,0,1.771-.751,2.685,2.685,0,0,0,.7-1.9ZM20.408,20.3h-.035v5.44H18.932V12.6h1.441v1.582h.035a3.408,3.408,0,0,1,3.111-1.793A3.3,3.3,0,0,1,26.235,13.6a5.005,5.005,0,0,1,.976,3.239,5.578,5.578,0,0,1-1.1,3.617,3.658,3.658,0,0,1-3.006,1.358A3.011,3.011,0,0,1,20.408,20.3Zm-.035-3.63v1.257A2.676,2.676,0,0,0,21.1,19.82a2.587,2.587,0,0,0,3.894-.224,4.6,4.6,0,0,0,.743-2.786,3.629,3.629,0,0,0-.694-2.355,2.3,2.3,0,0,0-1.881-.853,2.554,2.554,0,0,0-2.021.875A3.211,3.211,0,0,0,20.373,16.669ZM35.956,21.6H34.515V20.194h-.035a3.018,3.018,0,0,1-2.769,1.617,2.959,2.959,0,0,1-2.1-.712,2.466,2.466,0,0,1-.76-1.89q0-2.522,2.971-2.936l2.7-.378q0-2.294-1.854-2.294a4.431,4.431,0,0,0-2.936,1.107V13.233a5.577,5.577,0,0,1,3.059-.844q3.173,0,3.173,3.357Zm-1.441-4.553-2.171.3a3.525,3.525,0,0,0-1.512.5,1.432,1.432,0,0,0-.51,1.261,1.374,1.374,0,0,0,.47,1.077,1.817,1.817,0,0,0,1.252.417,2.314,2.314,0,0,0,1.771-.751,2.685,2.685,0,0,0,.7-1.9Zm10.292,4.14a4.684,4.684,0,0,1-2.461.624,4.074,4.074,0,0,1-3.107-1.252,4.539,4.539,0,0,1-1.182-3.248,4.99,4.99,0,0,1,1.274-3.573,4.458,4.458,0,0,1,3.4-1.349,4.735,4.735,0,0,1,2.092.439v1.477a3.665,3.665,0,0,0-2.145-.7,2.9,2.9,0,0,0-2.263.989,3.752,3.752,0,0,0-.883,2.6,3.573,3.573,0,0,0,.831,2.5,2.863,2.863,0,0,0,2.228.914,3.613,3.613,0,0,0,2.215-.782Zm2.918-10.872a.913.913,0,0,1-.659-.264.89.89,0,0,1-.272-.668.923.923,0,0,1,.932-.94.931.931,0,0,1,.672.268.939.939,0,0,1,0,1.332A.923.923,0,0,1,47.725,10.315Zm.7,11.285H46.986v-9h1.441Zm10.6,0H57.586V20.071h-.035a3.327,3.327,0,0,1-3.094,1.74A3.362,3.362,0,0,1,51.746,20.6a4.958,4.958,0,0,1-1.015-3.292,5.394,5.394,0,0,1,1.125-3.577,3.71,3.71,0,0,1,3-1.345,2.885,2.885,0,0,1,2.7,1.459h.035V8.276h1.441Zm-1.441-4.069V16.2a2.575,2.575,0,0,0-.721-1.846,2.417,2.417,0,0,0-1.828-.756,2.489,2.489,0,0,0-2.074.967,4.237,4.237,0,0,0-.756,2.672,3.81,3.81,0,0,0,.725,2.457,2.37,2.37,0,0,0,1.947.9,2.462,2.462,0,0,0,1.956-.87A3.242,3.242,0,0,0,57.586,17.531Zm10.8,4.069H66.946V20.194h-.035a3.018,3.018,0,0,1-2.769,1.617,2.959,2.959,0,0,1-2.1-.712,2.466,2.466,0,0,1-.76-1.89q0-2.522,2.971-2.936l2.7-.378q0-2.294-1.854-2.294a4.431,4.431,0,0,0-2.936,1.107V13.233a5.577,5.577,0,0,1,3.059-.844q3.173,0,3.173,3.357Zm-1.441-4.553-2.171.3a3.525,3.525,0,0,0-1.512.5,1.432,1.432,0,0,0-.51,1.261,1.374,1.374,0,0,0,.47,1.077,1.817,1.817,0,0,0,1.252.417,2.314,2.314,0,0,0,1.771-.751,2.685,2.685,0,0,0,.7-1.9ZM78.785,21.6H77.344V20.071h-.035a3.327,3.327,0,0,1-3.094,1.74A3.362,3.362,0,0,1,71.5,20.6a4.958,4.958,0,0,1-1.015-3.292,5.394,5.394,0,0,1,1.125-3.577,3.71,3.71,0,0,1,3-1.345,2.885,2.885,0,0,1,2.7,1.459h.035V8.276h1.441Zm-1.441-4.069V16.2a2.575,2.575,0,0,0-.721-1.846,2.417,2.417,0,0,0-1.828-.756,2.489,2.489,0,0,0-2.074.967,4.237,4.237,0,0,0-.756,2.672A3.81,3.81,0,0,0,72.69,19.7a2.37,2.37,0,0,0,1.947.9,2.462,2.462,0,0,0,1.956-.87A3.242,3.242,0,0,0,77.344,17.531ZM91.96,12.3a2.606,2.606,0,0,0-.18-1.011,1.957,1.957,0,0,0-1.226-1.143,2.874,2.874,0,0,0-.914-.141,3.023,3.023,0,0,0-.826.114,4.016,4.016,0,0,0-.787.316,4.839,4.839,0,0,0-.738.483,5.333,5.333,0,0,0-.664.624V10a4.309,4.309,0,0,1,1.358-.9,4.781,4.781,0,0,1,1.833-.312,4.424,4.424,0,0,1,1.433.224,3.285,3.285,0,0,1,1.143.655,3.027,3.027,0,0,1,.76,1.063,3.587,3.587,0,0,1,.277,1.45,4.973,4.973,0,0,1-.171,1.354,4.186,4.186,0,0,1-.519,1.143,5.513,5.513,0,0,1-.875,1.028,12.388,12.388,0,0,1-1.239,1q-.888.633-1.463,1.081a6.469,6.469,0,0,0-.914.839,2.436,2.436,0,0,0-.475.782,2.734,2.734,0,0,0-.136.9h6.275V21.6H86.133v-.624a5.2,5.2,0,0,1,.176-1.424,3.7,3.7,0,0,1,.58-1.169,6.487,6.487,0,0,1,1.059-1.107q.655-.554,1.6-1.248a10.141,10.141,0,0,0,1.147-.94,4.889,4.889,0,0,0,.743-.9,3.22,3.22,0,0,0,.4-.91A3.922,3.922,0,0,0,91.96,12.3Zm4.878,2.057a.933.933,0,0,1-.69-.29.955.955,0,0,1-.286-.694.926.926,0,0,1,.286-.686.948.948,0,0,1,.69-.281.973.973,0,0,1,.7.281.919.919,0,0,1,.29.686.947.947,0,0,1-.29.694A.958.958,0,0,1,96.838,14.358Zm0,7.436a.933.933,0,0,1-.69-.29.955.955,0,0,1-.286-.694.969.969,0,0,1,.286-.7.926.926,0,0,1,.69-.294.95.95,0,0,1,.7.294.962.962,0,0,1,.29.7.947.947,0,0,1-.29.694A.958.958,0,0,1,96.838,21.793ZM7.9,43.2H6.46V41.794H6.425a3.018,3.018,0,0,1-2.769,1.617,2.959,2.959,0,0,1-2.1-.712,2.466,2.466,0,0,1-.76-1.89q0-2.522,2.971-2.936l2.7-.378q0-2.294-1.854-2.294A4.431,4.431,0,0,0,1.67,36.309V34.833a5.577,5.577,0,0,1,3.059-.844q3.173,0,3.173,3.357ZM6.46,38.647l-2.171.3a3.525,3.525,0,0,0-1.512.5,1.432,1.432,0,0,0-.51,1.261,1.374,1.374,0,0,0,.47,1.077A1.817,1.817,0,0,0,3.99,42.2a2.314,2.314,0,0,0,1.771-.751,2.685,2.685,0,0,0,.7-1.9ZM18.3,43.2H16.857V41.671h-.035a3.327,3.327,0,0,1-3.094,1.74A3.362,3.362,0,0,1,11.017,42.2,4.958,4.958,0,0,1,10,38.911a5.394,5.394,0,0,1,1.125-3.577,3.71,3.71,0,0,1,3-1.345,2.885,2.885,0,0,1,2.7,1.459h.035V29.876H18.3Zm-1.441-4.069V37.8a2.575,2.575,0,0,0-.721-1.846,2.417,2.417,0,0,0-1.828-.756,2.489,2.489,0,0,0-2.074.967,4.237,4.237,0,0,0-.756,2.672A3.81,3.81,0,0,0,12.2,41.3a2.37,2.37,0,0,0,1.947.9,2.462,2.462,0,0,0,1.956-.87A3.242,3.242,0,0,0,16.857,39.131ZM34,43.2H32.555V38.032a3.9,3.9,0,0,0-.461-2.162,1.75,1.75,0,0,0-1.551-.668,1.921,1.921,0,0,0-1.569.844,3.228,3.228,0,0,0-.646,2.021V43.2H26.886V37.856q0-2.654-2.048-2.654a1.9,1.9,0,0,0-1.564.8,3.288,3.288,0,0,0-.615,2.07V43.2H21.217v-9h1.441v1.424h.035a3.058,3.058,0,0,1,2.795-1.635,2.6,2.6,0,0,1,2.549,1.863,3.212,3.212,0,0,1,2.988-1.863Q34,33.989,34,37.654Zm3.463-11.285a.913.913,0,0,1-.659-.264.89.89,0,0,1-.272-.668.923.923,0,0,1,.932-.94.931.931,0,0,1,.672.268.939.939,0,0,1,0,1.332A.923.923,0,0,1,37.459,31.915Zm.7,11.285H36.721v-9h1.441Zm10.389,0H47.109V38.067q0-2.865-2.092-2.865a2.269,2.269,0,0,0-1.789.813,3.013,3.013,0,0,0-.708,2.052V43.2H41.08v-9h1.441v1.494h.035a3.248,3.248,0,0,1,2.953-1.705,2.753,2.753,0,0,1,2.259.954,4.248,4.248,0,0,1,.782,2.755ZM52,31.915a.913.913,0,0,1-.659-.264.89.89,0,0,1-.272-.668.923.923,0,0,1,.932-.94.931.931,0,0,1,.672.268.939.939,0,0,1,0,1.332A.923.923,0,0,1,52,31.915Zm.7,11.285H51.267v-9h1.441Zm2.373-.325V41.328a4.266,4.266,0,0,0,2.593.87q1.9,0,1.9-1.266a1.1,1.1,0,0,0-.163-.611,1.62,1.62,0,0,0-.439-.444,3.383,3.383,0,0,0-.65-.347q-.374-.154-.8-.321a10.357,10.357,0,0,1-1.05-.479,3.173,3.173,0,0,1-.756-.545,2.028,2.028,0,0,1-.457-.69,2.441,2.441,0,0,1-.154-.905,2.15,2.15,0,0,1,.29-1.121,2.572,2.572,0,0,1,.773-.817,3.607,3.607,0,0,1,1.1-.5,4.893,4.893,0,0,1,1.279-.167,5.164,5.164,0,0,1,2.092.4v1.459a4.077,4.077,0,0,0-2.285-.65,2.671,2.671,0,0,0-.729.092,1.786,1.786,0,0,0-.558.259,1.2,1.2,0,0,0-.36.4,1.053,1.053,0,0,0-.127.514,1.233,1.233,0,0,0,.127.589,1.3,1.3,0,0,0,.374.422,2.855,2.855,0,0,0,.6.334q.352.149.8.325a11.131,11.131,0,0,1,1.072.47,3.678,3.678,0,0,1,.809.545,2.129,2.129,0,0,1,.514.7,2.254,2.254,0,0,1,.18.94,2.217,2.217,0,0,1-.294,1.16,2.523,2.523,0,0,1-.787.817,3.6,3.6,0,0,1-1.134.483,5.6,5.6,0,0,1-1.345.158A5.106,5.106,0,0,1,55.081,42.875Zm12.357.237a2.779,2.779,0,0,1-1.345.281q-2.364,0-2.364-2.637V35.43H62.183V34.2h1.547V32l1.441-.466V34.2h2.268v1.23H65.171V40.5a2.1,2.1,0,0,0,.308,1.292,1.228,1.228,0,0,0,1.02.387,1.515,1.515,0,0,0,.94-.3Zm6.618-7.453a1.763,1.763,0,0,0-1.09-.29,1.839,1.839,0,0,0-1.542.87,4.023,4.023,0,0,0-.62,2.373V43.2H69.363v-9H70.8v1.854h.035a3.143,3.143,0,0,1,.94-1.481,2.144,2.144,0,0,1,1.415-.532,2.353,2.353,0,0,1,.861.123ZM81.7,43.2H80.262V41.794h-.035a3.018,3.018,0,0,1-2.769,1.617,2.959,2.959,0,0,1-2.1-.712,2.466,2.466,0,0,1-.76-1.89q0-2.522,2.971-2.936l2.7-.378q0-2.294-1.854-2.294a4.431,4.431,0,0,0-2.936,1.107V34.833a5.577,5.577,0,0,1,3.059-.844q3.173,0,3.173,3.357Zm-1.441-4.553-2.171.3a3.525,3.525,0,0,0-1.512.5,1.432,1.432,0,0,0-.51,1.261,1.374,1.374,0,0,0,.47,1.077,1.817,1.817,0,0,0,1.252.417,2.314,2.314,0,0,0,1.771-.751,2.685,2.685,0,0,0,.7-1.9Zm10.292,4.14a4.684,4.684,0,0,1-2.461.624,4.074,4.074,0,0,1-3.107-1.252A4.539,4.539,0,0,1,83.8,38.911a4.99,4.99,0,0,1,1.274-3.573,4.458,4.458,0,0,1,3.4-1.349,4.735,4.735,0,0,1,2.092.439v1.477a3.665,3.665,0,0,0-2.145-.7,2.9,2.9,0,0,0-2.263.989,3.752,3.752,0,0,0-.883,2.6,3.573,3.573,0,0,0,.831,2.5,2.863,2.863,0,0,0,2.228.914,3.613,3.613,0,0,0,2.215-.782Zm2.918-10.872a.913.913,0,0,1-.659-.264.89.89,0,0,1-.272-.668.923.923,0,0,1,.932-.94.931.931,0,0,1,.672.268.939.939,0,0,1,0,1.332A.923.923,0,0,1,93.472,31.915Zm.7,11.285H92.734v-9h1.441Zm6.68.211a4.175,4.175,0,0,1-3.186-1.261,4.672,4.672,0,0,1-1.191-3.344,4.867,4.867,0,0,1,1.239-3.542,4.455,4.455,0,0,1,3.349-1.274,4.037,4.037,0,0,1,3.142,1.239,4.914,4.914,0,0,1,1.129,3.437,4.835,4.835,0,0,1-1.217,3.45A4.265,4.265,0,0,1,100.855,43.411Zm.105-8.209a2.742,2.742,0,0,0-2.2.945,3.88,3.88,0,0,0-.809,2.606,3.67,3.67,0,0,0,.817,2.522,2.778,2.778,0,0,0,2.188.923,2.635,2.635,0,0,0,2.149-.905,3.928,3.928,0,0,0,.751-2.575,4,4,0,0,0-.751-2.6A2.623,2.623,0,0,0,100.96,35.2Zm2.109-5.59-2.3,2.883H99.651l1.96-2.883ZM115.111,43.2h-1.441V38.067q0-2.865-2.092-2.865a2.269,2.269,0,0,0-1.789.813,3.013,3.013,0,0,0-.708,2.052V43.2H107.64v-9h1.441v1.494h.035a3.248,3.248,0,0,1,2.953-1.705,2.753,2.753,0,0,1,2.259.954,4.248,4.248,0,0,1,.782,2.755Z" transform="translate(656.67 3160.47)" fill="#fff"/>
    <path id="Trazado_191518" data-name="Trazado 191518" d="M11.813,0H10L3.516-10.046a4.2,4.2,0,0,1-.4-.791H3.059a12.976,12.976,0,0,1,.07,1.731V0H1.652V-12.6H3.568L9.879-2.716q.4.615.51.844h.035a13.335,13.335,0,0,1-.088-1.854V-12.6h1.477Zm3.85-11.285A.913.913,0,0,1,15-11.549a.89.89,0,0,1-.272-.668A.9.9,0,0,1,15-12.889a.905.905,0,0,1,.659-.268.931.931,0,0,1,.672.268.9.9,0,0,1,.277.672.891.891,0,0,1-.277.659A.923.923,0,0,1,15.662-11.285ZM16.365,0H14.924V-9h1.441Zm9.993-9L22.772,0H21.357l-3.41-9h1.582l2.285,6.539A5.869,5.869,0,0,1,22.131-1.2h.035a5.943,5.943,0,0,1,.281-1.222L24.838-9Zm8.6,4.86H28.6a3.366,3.366,0,0,0,.809,2.32A2.788,2.788,0,0,0,31.54-1a4.422,4.422,0,0,0,2.795-1V-.65A5.224,5.224,0,0,1,31.2.211a3.8,3.8,0,0,1-3-1.226,5.018,5.018,0,0,1-1.09-3.45A4.921,4.921,0,0,1,28.3-7.888a3.819,3.819,0,0,1,2.958-1.323,3.384,3.384,0,0,1,2.733,1.143A4.764,4.764,0,0,1,34.959-4.9ZM33.482-5.361a2.933,2.933,0,0,0-.6-1.942A2.051,2.051,0,0,0,31.232-8a2.328,2.328,0,0,0-1.731.729,3.311,3.311,0,0,0-.879,1.907ZM38.58,0H37.138V-13.324H38.58ZM54.11,0H52.669V-1.529h-.035A3.327,3.327,0,0,1,49.54.211,3.362,3.362,0,0,1,46.828-1a4.958,4.958,0,0,1-1.015-3.292,5.394,5.394,0,0,1,1.125-3.577,3.71,3.71,0,0,1,3-1.345,2.885,2.885,0,0,1,2.7,1.459h.035v-5.572H54.11ZM52.669-4.069V-5.4a2.575,2.575,0,0,0-.721-1.846A2.417,2.417,0,0,0,50.12-8a2.489,2.489,0,0,0-2.074.967,4.237,4.237,0,0,0-.756,2.672A3.81,3.81,0,0,0,48.015-1.9a2.37,2.37,0,0,0,1.947.9,2.462,2.462,0,0,0,1.956-.87A3.242,3.242,0,0,0,52.669-4.069Zm11.593-.07H57.907a3.366,3.366,0,0,0,.809,2.32A2.788,2.788,0,0,0,60.842-1a4.422,4.422,0,0,0,2.795-1V-.65A5.224,5.224,0,0,1,60.5.211a3.8,3.8,0,0,1-3-1.226,5.018,5.018,0,0,1-1.09-3.45A4.921,4.921,0,0,1,57.6-7.888a3.819,3.819,0,0,1,2.958-1.323,3.384,3.384,0,0,1,2.733,1.143A4.764,4.764,0,0,1,64.261-4.9ZM62.785-5.361a2.933,2.933,0,0,0-.6-1.942A2.051,2.051,0,0,0,60.535-8a2.328,2.328,0,0,0-1.731.729,3.311,3.311,0,0,0-.879,1.907ZM7.594,21.187a4.684,4.684,0,0,1-2.461.624,4.074,4.074,0,0,1-3.107-1.252A4.539,4.539,0,0,1,.844,17.311a4.99,4.99,0,0,1,1.274-3.573,4.458,4.458,0,0,1,3.4-1.349,4.735,4.735,0,0,1,2.092.439v1.477a3.665,3.665,0,0,0-2.145-.7,2.9,2.9,0,0,0-2.263.989,3.752,3.752,0,0,0-.883,2.6,3.573,3.573,0,0,0,.831,2.5,2.863,2.863,0,0,0,2.228.914,3.613,3.613,0,0,0,2.215-.782Zm8.622.413H14.774V20.194h-.035a3.018,3.018,0,0,1-2.769,1.617,2.959,2.959,0,0,1-2.1-.712,2.466,2.466,0,0,1-.76-1.89q0-2.522,2.971-2.936l2.7-.378q0-2.294-1.854-2.294a4.431,4.431,0,0,0-2.936,1.107V13.233a5.577,5.577,0,0,1,3.059-.844q3.173,0,3.173,3.357Zm-1.441-4.553-2.171.3a3.525,3.525,0,0,0-1.512.5,1.432,1.432,0,0,0-.51,1.261,1.374,1.374,0,0,0,.47,1.077A1.817,1.817,0,0,0,12.3,20.6a2.314,2.314,0,0,0,1.771-.751,2.685,2.685,0,0,0,.7-1.9ZM20.408,20.3h-.035v5.44H18.932V12.6h1.441v1.582h.035a3.408,3.408,0,0,1,3.111-1.793A3.3,3.3,0,0,1,26.235,13.6a5.005,5.005,0,0,1,.976,3.239,5.578,5.578,0,0,1-1.1,3.617,3.658,3.658,0,0,1-3.006,1.358A3.011,3.011,0,0,1,20.408,20.3Zm-.035-3.63v1.257A2.676,2.676,0,0,0,21.1,19.82a2.587,2.587,0,0,0,3.894-.224,4.6,4.6,0,0,0,.743-2.786,3.629,3.629,0,0,0-.694-2.355,2.3,2.3,0,0,0-1.881-.853,2.554,2.554,0,0,0-2.021.875A3.211,3.211,0,0,0,20.373,16.669ZM35.956,21.6H34.515V20.194h-.035a3.018,3.018,0,0,1-2.769,1.617,2.959,2.959,0,0,1-2.1-.712,2.466,2.466,0,0,1-.76-1.89q0-2.522,2.971-2.936l2.7-.378q0-2.294-1.854-2.294a4.431,4.431,0,0,0-2.936,1.107V13.233a5.577,5.577,0,0,1,3.059-.844q3.173,0,3.173,3.357Zm-1.441-4.553-2.171.3a3.525,3.525,0,0,0-1.512.5,1.432,1.432,0,0,0-.51,1.261,1.374,1.374,0,0,0,.47,1.077,1.817,1.817,0,0,0,1.252.417,2.314,2.314,0,0,0,1.771-.751,2.685,2.685,0,0,0,.7-1.9Zm10.292,4.14a4.684,4.684,0,0,1-2.461.624,4.074,4.074,0,0,1-3.107-1.252,4.539,4.539,0,0,1-1.182-3.248,4.99,4.99,0,0,1,1.274-3.573,4.458,4.458,0,0,1,3.4-1.349,4.735,4.735,0,0,1,2.092.439v1.477a3.665,3.665,0,0,0-2.145-.7,2.9,2.9,0,0,0-2.263.989,3.752,3.752,0,0,0-.883,2.6,3.573,3.573,0,0,0,.831,2.5,2.863,2.863,0,0,0,2.228.914,3.613,3.613,0,0,0,2.215-.782Zm2.918-10.872a.913.913,0,0,1-.659-.264.89.89,0,0,1-.272-.668.923.923,0,0,1,.932-.94.931.931,0,0,1,.672.268.939.939,0,0,1,0,1.332A.923.923,0,0,1,47.725,10.315Zm.7,11.285H46.986v-9h1.441Zm10.6,0H57.586V20.071h-.035a3.327,3.327,0,0,1-3.094,1.74A3.362,3.362,0,0,1,51.746,20.6a4.958,4.958,0,0,1-1.015-3.292,5.394,5.394,0,0,1,1.125-3.577,3.71,3.71,0,0,1,3-1.345,2.885,2.885,0,0,1,2.7,1.459h.035V8.276h1.441Zm-1.441-4.069V16.2a2.575,2.575,0,0,0-.721-1.846,2.417,2.417,0,0,0-1.828-.756,2.489,2.489,0,0,0-2.074.967,4.237,4.237,0,0,0-.756,2.672,3.81,3.81,0,0,0,.725,2.457,2.37,2.37,0,0,0,1.947.9,2.462,2.462,0,0,0,1.956-.87A3.242,3.242,0,0,0,57.586,17.531Zm10.8,4.069H66.946V20.194h-.035a3.018,3.018,0,0,1-2.769,1.617,2.959,2.959,0,0,1-2.1-.712,2.466,2.466,0,0,1-.76-1.89q0-2.522,2.971-2.936l2.7-.378q0-2.294-1.854-2.294a4.431,4.431,0,0,0-2.936,1.107V13.233a5.577,5.577,0,0,1,3.059-.844q3.173,0,3.173,3.357Zm-1.441-4.553-2.171.3a3.525,3.525,0,0,0-1.512.5,1.432,1.432,0,0,0-.51,1.261,1.374,1.374,0,0,0,.47,1.077,1.817,1.817,0,0,0,1.252.417,2.314,2.314,0,0,0,1.771-.751,2.685,2.685,0,0,0,.7-1.9ZM78.785,21.6H77.344V20.071h-.035a3.327,3.327,0,0,1-3.094,1.74A3.362,3.362,0,0,1,71.5,20.6a4.958,4.958,0,0,1-1.015-3.292,5.394,5.394,0,0,1,1.125-3.577,3.71,3.71,0,0,1,3-1.345,2.885,2.885,0,0,1,2.7,1.459h.035V8.276h1.441Zm-1.441-4.069V16.2a2.575,2.575,0,0,0-.721-1.846,2.417,2.417,0,0,0-1.828-.756,2.489,2.489,0,0,0-2.074.967,4.237,4.237,0,0,0-.756,2.672A3.81,3.81,0,0,0,72.69,19.7a2.37,2.37,0,0,0,1.947.9,2.462,2.462,0,0,0,1.956-.87A3.242,3.242,0,0,0,77.344,17.531Zm16.207.5a3.674,3.674,0,0,1-.321,1.551,3.425,3.425,0,0,1-.905,1.2,4.178,4.178,0,0,1-1.4.769,5.67,5.67,0,0,1-1.8.272,5.236,5.236,0,0,1-2.865-.686V19.587a4.592,4.592,0,0,0,2.918,1,3.965,3.965,0,0,0,1.191-.167,2.67,2.67,0,0,0,.914-.483,2.147,2.147,0,0,0,.589-.765,2.388,2.388,0,0,0,.207-1.011q0-2.47-3.516-2.47H87.513V14.472h.993q3.111,0,3.111-2.32,0-2.145-2.373-2.145a4.041,4.041,0,0,0-2.5.9v-1.4A5.476,5.476,0,0,1,89.6,8.786a4.4,4.4,0,0,1,1.433.22,3.283,3.283,0,0,1,1.1.615,2.726,2.726,0,0,1,.708.949,2.93,2.93,0,0,1,.25,1.222,3.076,3.076,0,0,1-2.514,3.2v.035a3.976,3.976,0,0,1,1.187.312,3.166,3.166,0,0,1,.94.628,2.8,2.8,0,0,1,.62.91A2.9,2.9,0,0,1,93.551,18.032Zm3.287-3.674a.933.933,0,0,1-.69-.29.955.955,0,0,1-.286-.694.926.926,0,0,1,.286-.686.948.948,0,0,1,.69-.281.973.973,0,0,1,.7.281.919.919,0,0,1,.29.686.947.947,0,0,1-.29.694A.958.958,0,0,1,96.838,14.358Zm0,7.436a.933.933,0,0,1-.69-.29.955.955,0,0,1-.286-.694.969.969,0,0,1,.286-.7.926.926,0,0,1,.69-.294.95.95,0,0,1,.7.294.962.962,0,0,1,.29.7.947.947,0,0,1-.29.694A.958.958,0,0,1,96.838,21.793ZM9.141,43.2H7.7V41.671H7.664a3.327,3.327,0,0,1-3.094,1.74A3.362,3.362,0,0,1,1.859,42.2,4.958,4.958,0,0,1,.844,38.911a5.394,5.394,0,0,1,1.125-3.577,3.71,3.71,0,0,1,3-1.345,2.885,2.885,0,0,1,2.7,1.459H7.7V29.876H9.141ZM7.7,39.131V37.8a2.575,2.575,0,0,0-.721-1.846A2.417,2.417,0,0,0,5.15,35.2a2.489,2.489,0,0,0-2.074.967,4.237,4.237,0,0,0-.756,2.672A3.81,3.81,0,0,0,3.045,41.3a2.37,2.37,0,0,0,1.947.9,2.462,2.462,0,0,0,1.956-.87A3.242,3.242,0,0,0,7.7,39.131Zm11.593-.07H12.938a3.366,3.366,0,0,0,.809,2.32,2.788,2.788,0,0,0,2.127.817,4.422,4.422,0,0,0,2.795-1V42.55a5.224,5.224,0,0,1-3.138.861,3.8,3.8,0,0,1-3-1.226,5.018,5.018,0,0,1-1.09-3.45,4.921,4.921,0,0,1,1.191-3.423,3.819,3.819,0,0,1,2.958-1.323,3.384,3.384,0,0,1,2.733,1.143,4.764,4.764,0,0,1,.967,3.173Zm-1.477-1.222a2.933,2.933,0,0,0-.6-1.942,2.051,2.051,0,0,0-1.648-.694,2.328,2.328,0,0,0-1.731.729,3.31,3.31,0,0,0-.879,1.907Zm8.1-6.7a1.92,1.92,0,0,0-.958-.237q-1.512,0-1.512,1.907V34.2h2.109v1.23H23.449V43.2H22.017V35.43H20.479V34.2h1.538V32.741a3.032,3.032,0,0,1,.817-2.237,2.759,2.759,0,0,1,2.039-.822,2.824,2.824,0,0,1,1.046.158Zm1.925.773a.913.913,0,0,1-.659-.264.89.89,0,0,1-.272-.668.923.923,0,0,1,.932-.94.931.931,0,0,1,.672.268.939.939,0,0,1,0,1.332A.923.923,0,0,1,27.844,31.915Zm.7,11.285H27.105v-9h1.441Zm10.389,0H37.494V38.067q0-2.865-2.092-2.865a2.269,2.269,0,0,0-1.789.813,3.013,3.013,0,0,0-.708,2.052V43.2H31.465v-9h1.441v1.494h.035a3.248,3.248,0,0,1,2.953-1.705,2.753,2.753,0,0,1,2.259.954,4.248,4.248,0,0,1,.782,2.755ZM42.39,31.915a.913.913,0,0,1-.659-.264.89.89,0,0,1-.272-.668.923.923,0,0,1,.932-.94.931.931,0,0,1,.672.268.939.939,0,0,1,0,1.332A.923.923,0,0,1,42.39,31.915Zm.7,11.285H41.651v-9h1.441ZM50.7,35.659a1.763,1.763,0,0,0-1.09-.29,1.839,1.839,0,0,0-1.542.87,4.023,4.023,0,0,0-.62,2.373V43.2H46.011v-9h1.441v1.854h.035a3.143,3.143,0,0,1,.94-1.481,2.144,2.144,0,0,1,1.415-.532,2.353,2.353,0,0,1,.861.123Z" transform="translate(835.72 3079.22)" fill="#fff"/>
    <path id="Trazado_191519" data-name="Trazado 191519" d="M11.813,0H10L3.516-10.046a4.2,4.2,0,0,1-.4-.791H3.059a12.976,12.976,0,0,1,.07,1.731V0H1.652V-12.6H3.568L9.879-2.716q.4.615.51.844h.035a13.335,13.335,0,0,1-.088-1.854V-12.6h1.477Zm3.85-11.285A.913.913,0,0,1,15-11.549a.89.89,0,0,1-.272-.668A.9.9,0,0,1,15-12.889a.905.905,0,0,1,.659-.268.931.931,0,0,1,.672.268.9.9,0,0,1,.277.672.891.891,0,0,1-.277.659A.923.923,0,0,1,15.662-11.285ZM16.365,0H14.924V-9h1.441Zm9.993-9L22.772,0H21.357l-3.41-9h1.582l2.285,6.539A5.869,5.869,0,0,1,22.131-1.2h.035a5.943,5.943,0,0,1,.281-1.222L24.838-9Zm8.6,4.86H28.6a3.366,3.366,0,0,0,.809,2.32A2.788,2.788,0,0,0,31.54-1a4.422,4.422,0,0,0,2.795-1V-.65A5.224,5.224,0,0,1,31.2.211a3.8,3.8,0,0,1-3-1.226,5.018,5.018,0,0,1-1.09-3.45A4.921,4.921,0,0,1,28.3-7.888a3.819,3.819,0,0,1,2.958-1.323,3.384,3.384,0,0,1,2.733,1.143A4.764,4.764,0,0,1,34.959-4.9ZM33.482-5.361a2.933,2.933,0,0,0-.6-1.942A2.051,2.051,0,0,0,31.232-8a2.328,2.328,0,0,0-1.731.729,3.311,3.311,0,0,0-.879,1.907ZM38.58,0H37.138V-13.324H38.58ZM54.11,0H52.669V-1.529h-.035A3.327,3.327,0,0,1,49.54.211,3.362,3.362,0,0,1,46.828-1a4.958,4.958,0,0,1-1.015-3.292,5.394,5.394,0,0,1,1.125-3.577,3.71,3.71,0,0,1,3-1.345,2.885,2.885,0,0,1,2.7,1.459h.035v-5.572H54.11ZM52.669-4.069V-5.4a2.575,2.575,0,0,0-.721-1.846A2.417,2.417,0,0,0,50.12-8a2.489,2.489,0,0,0-2.074.967,4.237,4.237,0,0,0-.756,2.672A3.81,3.81,0,0,0,48.015-1.9a2.37,2.37,0,0,0,1.947.9,2.462,2.462,0,0,0,1.956-.87A3.242,3.242,0,0,0,52.669-4.069Zm11.593-.07H57.907a3.366,3.366,0,0,0,.809,2.32A2.788,2.788,0,0,0,60.842-1a4.422,4.422,0,0,0,2.795-1V-.65A5.224,5.224,0,0,1,60.5.211a3.8,3.8,0,0,1-3-1.226,5.018,5.018,0,0,1-1.09-3.45A4.921,4.921,0,0,1,57.6-7.888a3.819,3.819,0,0,1,2.958-1.323,3.384,3.384,0,0,1,2.733,1.143A4.764,4.764,0,0,1,64.261-4.9ZM62.785-5.361a2.933,2.933,0,0,0-.6-1.942A2.051,2.051,0,0,0,60.535-8a2.328,2.328,0,0,0-1.731.729,3.311,3.311,0,0,0-.879,1.907ZM7.594,21.187a4.684,4.684,0,0,1-2.461.624,4.074,4.074,0,0,1-3.107-1.252A4.539,4.539,0,0,1,.844,17.311a4.99,4.99,0,0,1,1.274-3.573,4.458,4.458,0,0,1,3.4-1.349,4.735,4.735,0,0,1,2.092.439v1.477a3.665,3.665,0,0,0-2.145-.7,2.9,2.9,0,0,0-2.263.989,3.752,3.752,0,0,0-.883,2.6,3.573,3.573,0,0,0,.831,2.5,2.863,2.863,0,0,0,2.228.914,3.613,3.613,0,0,0,2.215-.782Zm8.622.413H14.774V20.194h-.035a3.018,3.018,0,0,1-2.769,1.617,2.959,2.959,0,0,1-2.1-.712,2.466,2.466,0,0,1-.76-1.89q0-2.522,2.971-2.936l2.7-.378q0-2.294-1.854-2.294a4.431,4.431,0,0,0-2.936,1.107V13.233a5.577,5.577,0,0,1,3.059-.844q3.173,0,3.173,3.357Zm-1.441-4.553-2.171.3a3.525,3.525,0,0,0-1.512.5,1.432,1.432,0,0,0-.51,1.261,1.374,1.374,0,0,0,.47,1.077A1.817,1.817,0,0,0,12.3,20.6a2.314,2.314,0,0,0,1.771-.751,2.685,2.685,0,0,0,.7-1.9ZM20.408,20.3h-.035v5.44H18.932V12.6h1.441v1.582h.035a3.408,3.408,0,0,1,3.111-1.793A3.3,3.3,0,0,1,26.235,13.6a5.005,5.005,0,0,1,.976,3.239,5.578,5.578,0,0,1-1.1,3.617,3.658,3.658,0,0,1-3.006,1.358A3.011,3.011,0,0,1,20.408,20.3Zm-.035-3.63v1.257A2.676,2.676,0,0,0,21.1,19.82a2.587,2.587,0,0,0,3.894-.224,4.6,4.6,0,0,0,.743-2.786,3.629,3.629,0,0,0-.694-2.355,2.3,2.3,0,0,0-1.881-.853,2.554,2.554,0,0,0-2.021.875A3.211,3.211,0,0,0,20.373,16.669ZM35.956,21.6H34.515V20.194h-.035a3.018,3.018,0,0,1-2.769,1.617,2.959,2.959,0,0,1-2.1-.712,2.466,2.466,0,0,1-.76-1.89q0-2.522,2.971-2.936l2.7-.378q0-2.294-1.854-2.294a4.431,4.431,0,0,0-2.936,1.107V13.233a5.577,5.577,0,0,1,3.059-.844q3.173,0,3.173,3.357Zm-1.441-4.553-2.171.3a3.525,3.525,0,0,0-1.512.5,1.432,1.432,0,0,0-.51,1.261,1.374,1.374,0,0,0,.47,1.077,1.817,1.817,0,0,0,1.252.417,2.314,2.314,0,0,0,1.771-.751,2.685,2.685,0,0,0,.7-1.9Zm10.292,4.14a4.684,4.684,0,0,1-2.461.624,4.074,4.074,0,0,1-3.107-1.252,4.539,4.539,0,0,1-1.182-3.248,4.99,4.99,0,0,1,1.274-3.573,4.458,4.458,0,0,1,3.4-1.349,4.735,4.735,0,0,1,2.092.439v1.477a3.665,3.665,0,0,0-2.145-.7,2.9,2.9,0,0,0-2.263.989,3.752,3.752,0,0,0-.883,2.6,3.573,3.573,0,0,0,.831,2.5,2.863,2.863,0,0,0,2.228.914,3.613,3.613,0,0,0,2.215-.782Zm2.918-10.872a.913.913,0,0,1-.659-.264.89.89,0,0,1-.272-.668.923.923,0,0,1,.932-.94.931.931,0,0,1,.672.268.939.939,0,0,1,0,1.332A.923.923,0,0,1,47.725,10.315Zm.7,11.285H46.986v-9h1.441Zm10.6,0H57.586V20.071h-.035a3.327,3.327,0,0,1-3.094,1.74A3.362,3.362,0,0,1,51.746,20.6a4.958,4.958,0,0,1-1.015-3.292,5.394,5.394,0,0,1,1.125-3.577,3.71,3.71,0,0,1,3-1.345,2.885,2.885,0,0,1,2.7,1.459h.035V8.276h1.441Zm-1.441-4.069V16.2a2.575,2.575,0,0,0-.721-1.846,2.417,2.417,0,0,0-1.828-.756,2.489,2.489,0,0,0-2.074.967,4.237,4.237,0,0,0-.756,2.672,3.81,3.81,0,0,0,.725,2.457,2.37,2.37,0,0,0,1.947.9,2.462,2.462,0,0,0,1.956-.87A3.242,3.242,0,0,0,57.586,17.531Zm10.8,4.069H66.946V20.194h-.035a3.018,3.018,0,0,1-2.769,1.617,2.959,2.959,0,0,1-2.1-.712,2.466,2.466,0,0,1-.76-1.89q0-2.522,2.971-2.936l2.7-.378q0-2.294-1.854-2.294a4.431,4.431,0,0,0-2.936,1.107V13.233a5.577,5.577,0,0,1,3.059-.844q3.173,0,3.173,3.357Zm-1.441-4.553-2.171.3a3.525,3.525,0,0,0-1.512.5,1.432,1.432,0,0,0-.51,1.261,1.374,1.374,0,0,0,.47,1.077,1.817,1.817,0,0,0,1.252.417,2.314,2.314,0,0,0,1.771-.751,2.685,2.685,0,0,0,.7-1.9ZM78.785,21.6H77.344V20.071h-.035a3.327,3.327,0,0,1-3.094,1.74A3.362,3.362,0,0,1,71.5,20.6a4.958,4.958,0,0,1-1.015-3.292,5.394,5.394,0,0,1,1.125-3.577,3.71,3.71,0,0,1,3-1.345,2.885,2.885,0,0,1,2.7,1.459h.035V8.276h1.441Zm-1.441-4.069V16.2a2.575,2.575,0,0,0-.721-1.846,2.417,2.417,0,0,0-1.828-.756,2.489,2.489,0,0,0-2.074.967,4.237,4.237,0,0,0-.756,2.672A3.81,3.81,0,0,0,72.69,19.7a2.37,2.37,0,0,0,1.947.9,2.462,2.462,0,0,0,1.956-.87A3.242,3.242,0,0,0,77.344,17.531Zm16.348.22a4.242,4.242,0,0,1-.316,1.67,3.651,3.651,0,0,1-.9,1.283,4.034,4.034,0,0,1-1.411.826,5.517,5.517,0,0,1-1.837.29,5.074,5.074,0,0,1-2.61-.527V19.763a4.8,4.8,0,0,0,2.628.826,3.556,3.556,0,0,0,1.235-.2,2.744,2.744,0,0,0,.936-.562,2.408,2.408,0,0,0,.593-.87,2.945,2.945,0,0,0,.207-1.116,2.391,2.391,0,0,0-.826-1.929,3.623,3.623,0,0,0-2.4-.7q-.255,0-.536.009t-.562.022q-.281.013-.549.031t-.488.044L87.284,9h5.827v1.3H88.532L88.277,14q.281-.018.6-.031t.563-.013a5.657,5.657,0,0,1,1.793.264,3.8,3.8,0,0,1,1.34.751,3.151,3.151,0,0,1,.835,1.2A4.2,4.2,0,0,1,93.691,17.75Zm3.146-3.393a.933.933,0,0,1-.69-.29.955.955,0,0,1-.286-.694.926.926,0,0,1,.286-.686.948.948,0,0,1,.69-.281.973.973,0,0,1,.7.281.919.919,0,0,1,.29.686.947.947,0,0,1-.29.694A.958.958,0,0,1,96.838,14.358Zm0,7.436a.933.933,0,0,1-.69-.29.955.955,0,0,1-.286-.694.969.969,0,0,1,.286-.7.926.926,0,0,1,.69-.294.95.95,0,0,1,.7.294.962.962,0,0,1,.29.7.947.947,0,0,1-.29.694A.958.958,0,0,1,96.838,21.793ZM5.221,43.411A4.175,4.175,0,0,1,2.035,42.15,4.672,4.672,0,0,1,.844,38.805a4.867,4.867,0,0,1,1.239-3.542,4.455,4.455,0,0,1,3.349-1.274,4.037,4.037,0,0,1,3.142,1.239A4.914,4.914,0,0,1,9.7,38.665a4.835,4.835,0,0,1-1.217,3.45A4.265,4.265,0,0,1,5.221,43.411ZM5.326,35.2a2.742,2.742,0,0,0-2.2.945,3.88,3.88,0,0,0-.809,2.606,3.67,3.67,0,0,0,.817,2.522,2.778,2.778,0,0,0,2.188.923,2.635,2.635,0,0,0,2.149-.905,3.928,3.928,0,0,0,.751-2.575,4,4,0,0,0-.751-2.6A2.623,2.623,0,0,0,5.326,35.2Zm8.156,6.7h-.035v5.44H12.006V34.2h1.441v1.582h.035a3.408,3.408,0,0,1,3.111-1.793A3.3,3.3,0,0,1,19.31,35.2a5.005,5.005,0,0,1,.976,3.239,5.578,5.578,0,0,1-1.1,3.617,3.658,3.658,0,0,1-3.006,1.358A3.011,3.011,0,0,1,13.482,41.9Zm-.035-3.63v1.257a2.676,2.676,0,0,0,.725,1.894,2.408,2.408,0,0,0,1.841.778,2.413,2.413,0,0,0,2.052-1,4.6,4.6,0,0,0,.743-2.786,3.629,3.629,0,0,0-.694-2.355,2.3,2.3,0,0,0-1.881-.853,2.554,2.554,0,0,0-2.021.875A3.211,3.211,0,0,0,13.447,38.269Zm13.315,4.843a2.779,2.779,0,0,1-1.345.281q-2.364,0-2.364-2.637V35.43H21.507V34.2h1.547V32l1.441-.466V34.2h2.268v1.23H24.5V40.5a2.1,2.1,0,0,0,.308,1.292,1.228,1.228,0,0,0,1.02.387,1.515,1.515,0,0,0,.94-.3Zm2.663-11.2a.913.913,0,0,1-.659-.264.89.89,0,0,1-.272-.668.923.923,0,0,1,.932-.94.931.931,0,0,1,.672.268.939.939,0,0,1,0,1.332A.923.923,0,0,1,29.426,31.915Zm.7,11.285H28.688v-9h1.441Zm15.7,0H44.385V38.032a3.9,3.9,0,0,0-.461-2.162,1.75,1.75,0,0,0-1.551-.668,1.921,1.921,0,0,0-1.569.844,3.228,3.228,0,0,0-.646,2.021V43.2H38.716V37.856q0-2.654-2.048-2.654A1.9,1.9,0,0,0,35.1,36a3.288,3.288,0,0,0-.615,2.07V43.2H33.047v-9h1.441v1.424h.035a3.058,3.058,0,0,1,2.795-1.635,2.6,2.6,0,0,1,2.549,1.863,3.212,3.212,0,0,1,2.988-1.863q2.971,0,2.971,3.665Zm3.463-11.285a.913.913,0,0,1-.659-.264.89.89,0,0,1-.272-.668.923.923,0,0,1,.932-.94.931.931,0,0,1,.672.268.939.939,0,0,1,0,1.332A.923.923,0,0,1,49.289,31.915Zm.7,11.285H48.551v-9h1.441Zm9.193-8.587L53.859,41.97h5.273V43.2H51.741v-.448l5.326-7.321H52.242V34.2h6.943ZM67.491,43.2H66.05V41.794h-.035a3.018,3.018,0,0,1-2.769,1.617,2.959,2.959,0,0,1-2.1-.712,2.466,2.466,0,0,1-.76-1.89q0-2.522,2.971-2.936l2.7-.378q0-2.294-1.854-2.294a4.431,4.431,0,0,0-2.936,1.107V34.833a5.577,5.577,0,0,1,3.059-.844q3.173,0,3.173,3.357ZM66.05,38.647l-2.171.3a3.525,3.525,0,0,0-1.512.5,1.432,1.432,0,0,0-.51,1.261,1.374,1.374,0,0,0,.47,1.077,1.817,1.817,0,0,0,1.252.417,2.314,2.314,0,0,0,1.771-.751,2.685,2.685,0,0,0,.7-1.9Zm10.292,4.14a4.684,4.684,0,0,1-2.461.624,4.074,4.074,0,0,1-3.107-1.252,4.539,4.539,0,0,1-1.182-3.248,4.99,4.99,0,0,1,1.274-3.573,4.458,4.458,0,0,1,3.4-1.349,4.735,4.735,0,0,1,2.092.439v1.477a3.665,3.665,0,0,0-2.145-.7,2.9,2.9,0,0,0-2.263.989,3.752,3.752,0,0,0-.883,2.6,3.573,3.573,0,0,0,.831,2.5,2.863,2.863,0,0,0,2.228.914,3.613,3.613,0,0,0,2.215-.782ZM79.26,31.915a.913.913,0,0,1-.659-.264.89.89,0,0,1-.272-.668.923.923,0,0,1,.932-.94.931.931,0,0,1,.672.268.939.939,0,0,1,0,1.332A.923.923,0,0,1,79.26,31.915Zm.7,11.285H78.521v-9h1.441Zm6.68.211a4.175,4.175,0,0,1-3.186-1.261,4.672,4.672,0,0,1-1.191-3.344A4.867,4.867,0,0,1,83.5,35.263a4.455,4.455,0,0,1,3.349-1.274A4.037,4.037,0,0,1,90,35.228a4.914,4.914,0,0,1,1.129,3.437,4.835,4.835,0,0,1-1.217,3.45A4.265,4.265,0,0,1,86.643,43.411Zm.105-8.209a2.742,2.742,0,0,0-2.2.945,3.88,3.88,0,0,0-.809,2.606,3.67,3.67,0,0,0,.817,2.522,2.778,2.778,0,0,0,2.188.923,2.635,2.635,0,0,0,2.149-.905,3.928,3.928,0,0,0,.751-2.575,4,4,0,0,0-.751-2.6A2.623,2.623,0,0,0,86.748,35.2Zm2.109-5.59-2.3,2.883H85.438l1.96-2.883ZM100.9,43.2H99.457V38.067q0-2.865-2.092-2.865a2.269,2.269,0,0,0-1.789.813,3.013,3.013,0,0,0-.708,2.052V43.2H93.428v-9h1.441v1.494H94.9a3.248,3.248,0,0,1,2.953-1.705,2.753,2.753,0,0,1,2.259.954A4.248,4.248,0,0,1,100.9,37.7Z" transform="translate(1189.64 2908.58)" fill="#fff"/>
    <path id="Trazado_191520" data-name="Trazado 191520" d="M11.813,0H10L3.516-10.046a4.2,4.2,0,0,1-.4-.791H3.059a12.976,12.976,0,0,1,.07,1.731V0H1.652V-12.6H3.568L9.879-2.716q.4.615.51.844h.035a13.335,13.335,0,0,1-.088-1.854V-12.6h1.477Zm3.85-11.285A.913.913,0,0,1,15-11.549a.89.89,0,0,1-.272-.668A.9.9,0,0,1,15-12.889a.905.905,0,0,1,.659-.268.931.931,0,0,1,.672.268.9.9,0,0,1,.277.672.891.891,0,0,1-.277.659A.923.923,0,0,1,15.662-11.285ZM16.365,0H14.924V-9h1.441Zm9.993-9L22.772,0H21.357l-3.41-9h1.582l2.285,6.539A5.869,5.869,0,0,1,22.131-1.2h.035a5.943,5.943,0,0,1,.281-1.222L24.838-9Zm8.6,4.86H28.6a3.366,3.366,0,0,0,.809,2.32A2.788,2.788,0,0,0,31.54-1a4.422,4.422,0,0,0,2.795-1V-.65A5.224,5.224,0,0,1,31.2.211a3.8,3.8,0,0,1-3-1.226,5.018,5.018,0,0,1-1.09-3.45A4.921,4.921,0,0,1,28.3-7.888a3.819,3.819,0,0,1,2.958-1.323,3.384,3.384,0,0,1,2.733,1.143A4.764,4.764,0,0,1,34.959-4.9ZM33.482-5.361a2.933,2.933,0,0,0-.6-1.942A2.051,2.051,0,0,0,31.232-8a2.328,2.328,0,0,0-1.731.729,3.311,3.311,0,0,0-.879,1.907ZM38.58,0H37.138V-13.324H38.58ZM54.11,0H52.669V-1.529h-.035A3.327,3.327,0,0,1,49.54.211,3.362,3.362,0,0,1,46.828-1a4.958,4.958,0,0,1-1.015-3.292,5.394,5.394,0,0,1,1.125-3.577,3.71,3.71,0,0,1,3-1.345,2.885,2.885,0,0,1,2.7,1.459h.035v-5.572H54.11ZM52.669-4.069V-5.4a2.575,2.575,0,0,0-.721-1.846A2.417,2.417,0,0,0,50.12-8a2.489,2.489,0,0,0-2.074.967,4.237,4.237,0,0,0-.756,2.672A3.81,3.81,0,0,0,48.015-1.9a2.37,2.37,0,0,0,1.947.9,2.462,2.462,0,0,0,1.956-.87A3.242,3.242,0,0,0,52.669-4.069Zm11.593-.07H57.907a3.366,3.366,0,0,0,.809,2.32A2.788,2.788,0,0,0,60.842-1a4.422,4.422,0,0,0,2.795-1V-.65A5.224,5.224,0,0,1,60.5.211a3.8,3.8,0,0,1-3-1.226,5.018,5.018,0,0,1-1.09-3.45A4.921,4.921,0,0,1,57.6-7.888a3.819,3.819,0,0,1,2.958-1.323,3.384,3.384,0,0,1,2.733,1.143A4.764,4.764,0,0,1,64.261-4.9ZM62.785-5.361a2.933,2.933,0,0,0-.6-1.942A2.051,2.051,0,0,0,60.535-8a2.328,2.328,0,0,0-1.731.729,3.311,3.311,0,0,0-.879,1.907ZM77.507-.413a4.684,4.684,0,0,1-2.461.624,4.074,4.074,0,0,1-3.107-1.252,4.539,4.539,0,0,1-1.182-3.248,4.99,4.99,0,0,1,1.274-3.573,4.458,4.458,0,0,1,3.4-1.349,4.735,4.735,0,0,1,2.092.439v1.477A3.665,3.665,0,0,0,75.38-8a2.9,2.9,0,0,0-2.263.989,3.752,3.752,0,0,0-.883,2.6,3.573,3.573,0,0,0,.831,2.5A2.863,2.863,0,0,0,75.292-1a3.613,3.613,0,0,0,2.215-.782ZM86.129,0H84.687V-1.406h-.035A3.018,3.018,0,0,1,81.883.211a2.959,2.959,0,0,1-2.1-.712,2.466,2.466,0,0,1-.76-1.89q0-2.522,2.971-2.936l2.7-.378Q84.687-8,82.833-8A4.431,4.431,0,0,0,79.9-6.891V-8.367a5.577,5.577,0,0,1,3.059-.844q3.173,0,3.173,3.357ZM84.687-4.553l-2.171.3a3.525,3.525,0,0,0-1.512.5,1.432,1.432,0,0,0-.51,1.261,1.374,1.374,0,0,0,.47,1.077A1.817,1.817,0,0,0,82.217-1a2.314,2.314,0,0,0,1.771-.751,2.685,2.685,0,0,0,.7-1.9ZM90.321-1.3h-.035V4.14H88.844V-9h1.441v1.582h.035a3.408,3.408,0,0,1,3.111-1.793A3.3,3.3,0,0,1,96.148-8a5.005,5.005,0,0,1,.976,3.239,5.578,5.578,0,0,1-1.1,3.617A3.658,3.658,0,0,1,93.019.211,3.011,3.011,0,0,1,90.321-1.3Zm-.035-3.63v1.257a2.676,2.676,0,0,0,.725,1.894A2.408,2.408,0,0,0,92.852-1,2.413,2.413,0,0,0,94.9-2a4.6,4.6,0,0,0,.743-2.786,3.629,3.629,0,0,0-.694-2.355A2.3,2.3,0,0,0,93.072-8a2.554,2.554,0,0,0-2.021.875A3.211,3.211,0,0,0,90.286-4.931ZM105.869,0h-1.441V-1.406h-.035A3.018,3.018,0,0,1,101.624.211a2.959,2.959,0,0,1-2.1-.712,2.466,2.466,0,0,1-.76-1.89q0-2.522,2.971-2.936l2.7-.378Q104.427-8,102.573-8a4.431,4.431,0,0,0-2.936,1.107V-8.367a5.577,5.577,0,0,1,3.059-.844q3.173,0,3.173,3.357Zm-1.441-4.553-2.171.3a3.525,3.525,0,0,0-1.512.5,1.432,1.432,0,0,0-.51,1.261,1.374,1.374,0,0,0,.47,1.077A1.817,1.817,0,0,0,101.958-1a2.314,2.314,0,0,0,1.771-.751,2.685,2.685,0,0,0,.7-1.9Zm10.292,4.14a4.684,4.684,0,0,1-2.461.624,4.074,4.074,0,0,1-3.107-1.252,4.539,4.539,0,0,1-1.182-3.248,4.99,4.99,0,0,1,1.274-3.573,4.458,4.458,0,0,1,3.4-1.349,4.735,4.735,0,0,1,2.092.439v1.477a3.665,3.665,0,0,0-2.145-.7,2.9,2.9,0,0,0-2.263.989,3.752,3.752,0,0,0-.883,2.6,3.573,3.573,0,0,0,.831,2.5A2.863,2.863,0,0,0,112.5-1a3.613,3.613,0,0,0,2.215-.782Zm2.918-10.872a.913.913,0,0,1-.659-.264.89.89,0,0,1-.272-.668.9.9,0,0,1,.272-.672.905.905,0,0,1,.659-.268.931.931,0,0,1,.672.268.9.9,0,0,1,.277.672.891.891,0,0,1-.277.659A.923.923,0,0,1,117.637-11.285ZM118.341,0H116.9V-9h1.441Zm10.6,0H127.5V-1.529h-.035A3.327,3.327,0,0,1,124.37.211,3.362,3.362,0,0,1,121.658-1a4.958,4.958,0,0,1-1.015-3.292,5.394,5.394,0,0,1,1.125-3.577,3.71,3.71,0,0,1,3-1.345,2.885,2.885,0,0,1,2.7,1.459h.035v-5.572h1.441ZM127.5-4.069V-5.4a2.575,2.575,0,0,0-.721-1.846A2.417,2.417,0,0,0,124.95-8a2.489,2.489,0,0,0-2.074.967,4.237,4.237,0,0,0-.756,2.672,3.81,3.81,0,0,0,.725,2.457,2.37,2.37,0,0,0,1.947.9,2.462,2.462,0,0,0,1.956-.87A3.242,3.242,0,0,0,127.5-4.069ZM138.3,0h-1.441V-1.406h-.035A3.018,3.018,0,0,1,134.055.211a2.959,2.959,0,0,1-2.1-.712,2.466,2.466,0,0,1-.76-1.89q0-2.522,2.971-2.936l2.7-.378Q136.859-8,135-8a4.431,4.431,0,0,0-2.936,1.107V-8.367a5.577,5.577,0,0,1,3.059-.844q3.173,0,3.173,3.357Zm-1.441-4.553-2.171.3a3.525,3.525,0,0,0-1.512.5,1.432,1.432,0,0,0-.51,1.261,1.374,1.374,0,0,0,.47,1.077A1.817,1.817,0,0,0,134.389-1a2.314,2.314,0,0,0,1.771-.751,2.685,2.685,0,0,0,.7-1.9ZM148.7,0h-1.441V-1.529h-.035a3.327,3.327,0,0,1-3.094,1.74A3.362,3.362,0,0,1,141.416-1,4.958,4.958,0,0,1,140.4-4.289a5.394,5.394,0,0,1,1.125-3.577,3.71,3.71,0,0,1,3-1.345,2.885,2.885,0,0,1,2.7,1.459h.035v-5.572H148.7Zm-1.441-4.069V-5.4a2.575,2.575,0,0,0-.721-1.846A2.417,2.417,0,0,0,144.708-8a2.489,2.489,0,0,0-2.074.967,4.237,4.237,0,0,0-.756,2.672A3.81,3.81,0,0,0,142.6-1.9a2.37,2.37,0,0,0,1.947.9,2.462,2.462,0,0,0,1.956-.87A3.242,3.242,0,0,0,147.257-4.069Zm15.3-8.534V-4.28h1.617v1.318h-1.617V0h-1.424V-2.962h-5.924V-4.21q.826-.932,1.67-1.991t1.613-2.149q.769-1.09,1.424-2.175a19.88,19.88,0,0,0,1.1-2.079ZM156.837-4.28h4.3v-6.17q-.659,1.151-1.248,2.057T158.766-6.75q-.532.738-1.015,1.336T156.837-4.28Zm9.914-2.962a.933.933,0,0,1-.69-.29.955.955,0,0,1-.286-.694.926.926,0,0,1,.286-.686.948.948,0,0,1,.69-.281.973.973,0,0,1,.7.281.919.919,0,0,1,.29.686.947.947,0,0,1-.29.694A.958.958,0,0,1,166.751-7.242Zm0,7.436a.933.933,0,0,1-.69-.29.955.955,0,0,1-.286-.694.969.969,0,0,1,.286-.7.926.926,0,0,1,.69-.294.95.95,0,0,1,.7.294.962.962,0,0,1,.29.7.947.947,0,0,1-.29.694A.958.958,0,0,1,166.751.193ZM7.9,21.6H6.46V20.194H6.425a3.018,3.018,0,0,1-2.769,1.617,2.959,2.959,0,0,1-2.1-.712,2.466,2.466,0,0,1-.76-1.89q0-2.522,2.971-2.936l2.7-.378q0-2.294-1.854-2.294A4.431,4.431,0,0,0,1.67,14.709V13.233a5.577,5.577,0,0,1,3.059-.844q3.173,0,3.173,3.357ZM6.46,17.047l-2.171.3a3.525,3.525,0,0,0-1.512.5,1.432,1.432,0,0,0-.51,1.261,1.374,1.374,0,0,0,.47,1.077A1.817,1.817,0,0,0,3.99,20.6a2.314,2.314,0,0,0,1.771-.751,2.685,2.685,0,0,0,.7-1.9ZM18.3,21.6H16.857V20.071h-.035a3.327,3.327,0,0,1-3.094,1.74A3.362,3.362,0,0,1,11.017,20.6,4.958,4.958,0,0,1,10,17.311a5.394,5.394,0,0,1,1.125-3.577,3.71,3.71,0,0,1,3-1.345,2.885,2.885,0,0,1,2.7,1.459h.035V8.276H18.3Zm-1.441-4.069V16.2a2.575,2.575,0,0,0-.721-1.846,2.417,2.417,0,0,0-1.828-.756,2.489,2.489,0,0,0-2.074.967,4.237,4.237,0,0,0-.756,2.672A3.81,3.81,0,0,0,12.2,19.7a2.37,2.37,0,0,0,1.947.9,2.462,2.462,0,0,0,1.956-.87A3.242,3.242,0,0,0,16.857,17.531ZM34,21.6H32.555V16.432a3.9,3.9,0,0,0-.461-2.162,1.75,1.75,0,0,0-1.551-.668,1.921,1.921,0,0,0-1.569.844,3.228,3.228,0,0,0-.646,2.021V21.6H26.886V16.256q0-2.654-2.048-2.654a1.9,1.9,0,0,0-1.564.8,3.288,3.288,0,0,0-.615,2.07V21.6H21.217v-9h1.441v1.424h.035a3.058,3.058,0,0,1,2.795-1.635,2.6,2.6,0,0,1,2.549,1.863,3.212,3.212,0,0,1,2.988-1.863Q34,12.389,34,16.054Zm3.463-11.285a.913.913,0,0,1-.659-.264.89.89,0,0,1-.272-.668.923.923,0,0,1,.932-.94.931.931,0,0,1,.672.268.939.939,0,0,1,0,1.332A.923.923,0,0,1,37.459,10.315Zm.7,11.285H36.721v-9h1.441Zm10.389,0H47.109V16.467q0-2.865-2.092-2.865a2.269,2.269,0,0,0-1.789.813,3.013,3.013,0,0,0-.708,2.052V21.6H41.08v-9h1.441v1.494h.035a3.248,3.248,0,0,1,2.953-1.705,2.753,2.753,0,0,1,2.259.954,4.248,4.248,0,0,1,.782,2.755ZM52,10.315a.913.913,0,0,1-.659-.264.89.89,0,0,1-.272-.668A.923.923,0,0,1,52,8.443a.931.931,0,0,1,.672.268.939.939,0,0,1,0,1.332A.923.923,0,0,1,52,10.315Zm.7,11.285H51.267v-9h1.441Zm2.373-.325V19.728a4.266,4.266,0,0,0,2.593.87q1.9,0,1.9-1.266a1.1,1.1,0,0,0-.163-.611,1.62,1.62,0,0,0-.439-.444,3.383,3.383,0,0,0-.65-.347q-.374-.154-.8-.321a10.357,10.357,0,0,1-1.05-.479,3.173,3.173,0,0,1-.756-.545,2.028,2.028,0,0,1-.457-.69,2.441,2.441,0,0,1-.154-.905,2.15,2.15,0,0,1,.29-1.121,2.572,2.572,0,0,1,.773-.817,3.607,3.607,0,0,1,1.1-.5,4.893,4.893,0,0,1,1.279-.167,5.164,5.164,0,0,1,2.092.4v1.459a4.077,4.077,0,0,0-2.285-.65,2.671,2.671,0,0,0-.729.092,1.786,1.786,0,0,0-.558.259,1.2,1.2,0,0,0-.36.4,1.053,1.053,0,0,0-.127.514,1.233,1.233,0,0,0,.127.589,1.3,1.3,0,0,0,.374.422,2.855,2.855,0,0,0,.6.334q.352.149.8.325a11.131,11.131,0,0,1,1.072.47,3.678,3.678,0,0,1,.809.545,2.129,2.129,0,0,1,.514.7,2.254,2.254,0,0,1,.18.94,2.217,2.217,0,0,1-.294,1.16,2.523,2.523,0,0,1-.787.817,3.6,3.6,0,0,1-1.134.483,5.6,5.6,0,0,1-1.345.158A5.106,5.106,0,0,1,55.081,21.275Zm12.357.237a2.779,2.779,0,0,1-1.345.281q-2.364,0-2.364-2.637V13.83H62.183V12.6h1.547V10.4l1.441-.466V12.6h2.268v1.23H65.171V18.9a2.1,2.1,0,0,0,.308,1.292,1.228,1.228,0,0,0,1.02.387,1.515,1.515,0,0,0,.94-.3Zm6.618-7.453a1.763,1.763,0,0,0-1.09-.29,1.839,1.839,0,0,0-1.542.87,4.023,4.023,0,0,0-.62,2.373V21.6H69.363v-9H70.8v1.854h.035a3.143,3.143,0,0,1,.94-1.481,2.144,2.144,0,0,1,1.415-.532,2.353,2.353,0,0,1,.861.123ZM81.7,21.6H80.262V20.194h-.035a3.018,3.018,0,0,1-2.769,1.617,2.959,2.959,0,0,1-2.1-.712,2.466,2.466,0,0,1-.76-1.89q0-2.522,2.971-2.936l2.7-.378q0-2.294-1.854-2.294a4.431,4.431,0,0,0-2.936,1.107V13.233a5.577,5.577,0,0,1,3.059-.844q3.173,0,3.173,3.357Zm-1.441-4.553-2.171.3a3.525,3.525,0,0,0-1.512.5,1.432,1.432,0,0,0-.51,1.261,1.374,1.374,0,0,0,.47,1.077,1.817,1.817,0,0,0,1.252.417,2.314,2.314,0,0,0,1.771-.751,2.685,2.685,0,0,0,.7-1.9ZM92.1,21.6H90.66V20.071h-.035a3.327,3.327,0,0,1-3.094,1.74A3.362,3.362,0,0,1,84.819,20.6,4.958,4.958,0,0,1,83.8,17.311a5.394,5.394,0,0,1,1.125-3.577,3.71,3.71,0,0,1,3-1.345,2.885,2.885,0,0,1,2.7,1.459h.035V8.276H92.1ZM90.66,17.531V16.2a2.575,2.575,0,0,0-.721-1.846,2.417,2.417,0,0,0-1.828-.756,2.489,2.489,0,0,0-2.074.967,4.237,4.237,0,0,0-.756,2.672,3.81,3.81,0,0,0,.725,2.457,2.37,2.37,0,0,0,1.947.9,2.462,2.462,0,0,0,1.956-.87A3.242,3.242,0,0,0,90.66,17.531Zm10.8,4.069H100.02V20.194h-.035a3.018,3.018,0,0,1-2.769,1.617,2.959,2.959,0,0,1-2.1-.712,2.466,2.466,0,0,1-.76-1.89q0-2.522,2.971-2.936l2.7-.378q0-2.294-1.854-2.294a4.431,4.431,0,0,0-2.936,1.107V13.233a5.577,5.577,0,0,1,3.059-.844q3.173,0,3.173,3.357Zm-1.441-4.553-2.171.3a3.525,3.525,0,0,0-1.512.5,1.432,1.432,0,0,0-.51,1.261,1.374,1.374,0,0,0,.47,1.077,1.817,1.817,0,0,0,1.252.417,2.314,2.314,0,0,0,1.771-.751,2.685,2.685,0,0,0,.7-1.9ZM7.594,42.787a4.684,4.684,0,0,1-2.461.624,4.074,4.074,0,0,1-3.107-1.252A4.539,4.539,0,0,1,.844,38.911a4.99,4.99,0,0,1,1.274-3.573,4.458,4.458,0,0,1,3.4-1.349,4.735,4.735,0,0,1,2.092.439v1.477a3.665,3.665,0,0,0-2.145-.7,2.9,2.9,0,0,0-2.263.989,3.752,3.752,0,0,0-.883,2.6,3.573,3.573,0,0,0,.831,2.5,2.863,2.863,0,0,0,2.228.914,3.613,3.613,0,0,0,2.215-.782Zm9.457.413H15.609V41.776h-.035A2.96,2.96,0,0,1,12.8,43.411q-3.217,0-3.217-3.832V34.2h1.433v5.15q0,2.848,2.18,2.848a2.205,2.205,0,0,0,1.736-.778,2.976,2.976,0,0,0,.681-2.035V34.2h1.441Zm9.352,0H24.961V41.794h-.035a3.018,3.018,0,0,1-2.769,1.617,2.959,2.959,0,0,1-2.1-.712,2.466,2.466,0,0,1-.76-1.89q0-2.522,2.971-2.936l2.7-.378q0-2.294-1.854-2.294a4.431,4.431,0,0,0-2.936,1.107V34.833a5.577,5.577,0,0,1,3.059-.844q3.173,0,3.173,3.357Zm-1.441-4.553-2.171.3a3.525,3.525,0,0,0-1.512.5,1.432,1.432,0,0,0-.51,1.261,1.374,1.374,0,0,0,.47,1.077,1.817,1.817,0,0,0,1.252.417,2.314,2.314,0,0,0,1.771-.751,2.685,2.685,0,0,0,.7-1.9ZM36.589,43.2H35.147V38.067q0-2.865-2.092-2.865a2.269,2.269,0,0,0-1.789.813,3.013,3.013,0,0,0-.708,2.052V43.2H29.118v-9H30.56v1.494h.035a3.248,3.248,0,0,1,2.953-1.705,2.753,2.753,0,0,1,2.259.954,4.248,4.248,0,0,1,.782,2.755Zm6.891-.088a2.779,2.779,0,0,1-1.345.281q-2.364,0-2.364-2.637V35.43H38.224V34.2h1.547V32l1.441-.466V34.2h2.268v1.23H41.212V40.5a2.1,2.1,0,0,0,.308,1.292,1.228,1.228,0,0,0,1.02.387,1.515,1.515,0,0,0,.94-.3Zm2.663-11.2a.913.913,0,0,1-.659-.264.89.89,0,0,1-.272-.668.923.923,0,0,1,.932-.94.931.931,0,0,1,.672.268.939.939,0,0,1,0,1.332A.923.923,0,0,1,46.143,31.915Zm.7,11.285H45.4v-9h1.441Zm7.093-.088a2.779,2.779,0,0,1-1.345.281q-2.364,0-2.364-2.637V35.43H48.683V34.2h1.547V32l1.441-.466V34.2h2.268v1.23H51.671V40.5a2.1,2.1,0,0,0,.308,1.292A1.228,1.228,0,0,0,53,42.18a1.515,1.515,0,0,0,.94-.3Zm8.367.088H60.864V41.794h-.035a3.018,3.018,0,0,1-2.769,1.617,2.959,2.959,0,0,1-2.1-.712,2.466,2.466,0,0,1-.76-1.89q0-2.522,2.971-2.936l2.7-.378q0-2.294-1.854-2.294a4.431,4.431,0,0,0-2.936,1.107V34.833a5.577,5.577,0,0,1,3.059-.844q3.173,0,3.173,3.357Zm-1.441-4.553-2.171.3a3.525,3.525,0,0,0-1.512.5,1.432,1.432,0,0,0-.51,1.261,1.374,1.374,0,0,0,.47,1.077,1.817,1.817,0,0,0,1.252.417,2.314,2.314,0,0,0,1.771-.751,2.685,2.685,0,0,0,.7-1.9ZM69.2,43.112a2.779,2.779,0,0,1-1.345.281q-2.364,0-2.364-2.637V35.43H63.94V34.2h1.547V32l1.441-.466V34.2H69.2v1.23H66.929V40.5a2.1,2.1,0,0,0,.308,1.292,1.228,1.228,0,0,0,1.02.387,1.515,1.515,0,0,0,.94-.3Zm2.663-11.2a.913.913,0,0,1-.659-.264.89.89,0,0,1-.272-.668.923.923,0,0,1,.932-.94.931.931,0,0,1,.672.268.939.939,0,0,1,0,1.332A.923.923,0,0,1,71.859,31.915Zm.7,11.285H71.121v-9h1.441Zm9.993-9-3.586,9H77.555l-3.41-9h1.582l2.285,6.539A5.869,5.869,0,0,1,78.328,42h.035a5.943,5.943,0,0,1,.281-1.222L81.035,34.2Zm7.809,9H88.924V41.794h-.035a3.018,3.018,0,0,1-2.769,1.617,2.959,2.959,0,0,1-2.1-.712,2.466,2.466,0,0,1-.76-1.89q0-2.522,2.971-2.936l2.7-.378q0-2.294-1.854-2.294a4.431,4.431,0,0,0-2.936,1.107V34.833a5.577,5.577,0,0,1,3.059-.844q3.173,0,3.173,3.357Zm-1.441-4.553-2.171.3a3.525,3.525,0,0,0-1.512.5,1.432,1.432,0,0,0-.51,1.261,1.374,1.374,0,0,0,.47,1.077,1.817,1.817,0,0,0,1.252.417,2.314,2.314,0,0,0,1.771-.751,2.685,2.685,0,0,0,.7-1.9ZM105.86,43.2h-1.441V38.032a3.9,3.9,0,0,0-.461-2.162,1.75,1.75,0,0,0-1.551-.668,1.921,1.921,0,0,0-1.569.844,3.228,3.228,0,0,0-.646,2.021V43.2H98.75V37.856q0-2.654-2.048-2.654a1.9,1.9,0,0,0-1.564.8,3.288,3.288,0,0,0-.615,2.07V43.2H93.081v-9h1.441v1.424h.035a3.058,3.058,0,0,1,2.795-1.635A2.6,2.6,0,0,1,99.9,35.852a3.212,3.212,0,0,1,2.988-1.863q2.971,0,2.971,3.665Zm9.958-4.14h-6.354a3.366,3.366,0,0,0,.809,2.32,2.788,2.788,0,0,0,2.127.817,4.422,4.422,0,0,0,2.795-1V42.55a5.224,5.224,0,0,1-3.138.861,3.8,3.8,0,0,1-3-1.226,5.018,5.018,0,0,1-1.09-3.45,4.921,4.921,0,0,1,1.191-3.423,3.819,3.819,0,0,1,2.958-1.323,3.384,3.384,0,0,1,2.733,1.143,4.764,4.764,0,0,1,.967,3.173Zm-1.477-1.222a2.933,2.933,0,0,0-.6-1.942,2.051,2.051,0,0,0-1.648-.694,2.328,2.328,0,0,0-1.731.729,3.31,3.31,0,0,0-.879,1.907ZM125.468,43.2h-1.441V38.067q0-2.865-2.092-2.865a2.269,2.269,0,0,0-1.789.813,3.013,3.013,0,0,0-.708,2.052V43.2H118v-9h1.441v1.494h.035a3.248,3.248,0,0,1,2.953-1.705,2.753,2.753,0,0,1,2.259.954,4.248,4.248,0,0,1,.782,2.755Zm6.891-.088a2.779,2.779,0,0,1-1.345.281q-2.364,0-2.364-2.637V35.43H127.1V34.2h1.547V32l1.441-.466V34.2h2.268v1.23h-2.268V40.5a2.1,2.1,0,0,0,.308,1.292,1.227,1.227,0,0,0,1.02.387,1.515,1.515,0,0,0,.94-.3Zm9.158-4.052h-6.354a3.366,3.366,0,0,0,.809,2.32,2.788,2.788,0,0,0,2.127.817,4.422,4.422,0,0,0,2.795-1V42.55a5.224,5.224,0,0,1-3.138.861,3.8,3.8,0,0,1-3-1.226,5.018,5.018,0,0,1-1.09-3.45,4.921,4.921,0,0,1,1.191-3.423,3.819,3.819,0,0,1,2.958-1.323,3.384,3.384,0,0,1,2.733,1.143,4.764,4.764,0,0,1,.967,3.173Zm-1.477-1.222a2.933,2.933,0,0,0-.6-1.942,2.051,2.051,0,0,0-1.648-.694,2.328,2.328,0,0,0-1.731.729,3.31,3.31,0,0,0-.879,1.907Z" transform="translate(1013.83 2990.561)" fill="#fff"/>
    <path id="Elipse_7265" data-name="Elipse 7265" d="M20.58,0A20.58,20.58,0,1,1,0,20.58,20.58,20.58,0,0,1,20.58,0Z" transform="translate(259.62 3330.46)" fill="#36dac9"/>
    <path id="Elipse_7266" data-name="Elipse 7266" d="M16,0A16,16,0,1,1,0,16,16,16,0,0,1,16,0Z" transform="translate(264.2 3335.04)" fill="#36dac9"/>
    <path id="Elipse_7265-2" data-name="Elipse 7265" d="M20.58,0A20.58,20.58,0,1,1,0,20.58,20.58,20.58,0,0,1,20.58,0Z" transform="translate(439.15 3244.12)" fill="#36dac9"/>
    <path id="Elipse_7266-2" data-name="Elipse 7266" d="M16,0A16,16,0,1,1,0,16,16,16,0,0,1,16,0Z" transform="translate(443.73 3248.7)" fill="#36dac9"/>
    <path id="Elipse_7265-3" data-name="Elipse 7265" d="M20.58,0A20.58,20.58,0,1,1,0,20.58,20.58,20.58,0,0,1,20.58,0Z" transform="translate(612.65 3158.37)" fill="#36dac9"/>
    <path id="Elipse_7266-3" data-name="Elipse 7266" d="M16,0A16,16,0,1,1,0,16,16,16,0,0,1,16,0Z" transform="translate(617.23 3162.95)" fill="#36dac9"/>
    <path id="Elipse_7265-4" data-name="Elipse 7265" d="M20.58,0A20.58,20.58,0,1,1,0,20.58,20.58,20.58,0,0,1,20.58,0Z" transform="translate(788.4 3074.01)" fill="#36dac9"/>
    <path id="Elipse_7266-4" data-name="Elipse 7266" d="M16,0A16,16,0,1,1,0,16,16,16,0,0,1,16,0Z" transform="translate(792.98 3078.59)" fill="#36dac9"/>
    <path id="Elipse_7265-5" data-name="Elipse 7265" d="M20.58,0A20.58,20.58,0,1,1,0,20.58,20.58,20.58,0,0,1,20.58,0Z" transform="translate(960.93 2979.811)" fill="#36dac9"/>
    <path id="Elipse_7266-5" data-name="Elipse 7266" d="M16,0A16,16,0,1,1,0,16,16,16,0,0,1,16,0Z" transform="translate(965.51 2984.39)" fill="#36dac9"/>
    <path id="Elipse_7265-6" data-name="Elipse 7265" d="M20.58,0A20.58,20.58,0,1,1,0,20.58,20.58,20.58,0,0,1,20.58,0Z" transform="translate(1139.57 2899.73)" fill="#36dac9"/>
    <path id="Elipse_7266-6" data-name="Elipse 7266" d="M16,0A16,16,0,1,1,0,16,16,16,0,0,1,16,0Z" transform="translate(1144.15 2904.311)" fill="#36dac9"/>
  </g>
</svg>
