<svg xmlns="http://www.w3.org/2000/svg" xmlns:xlink="http://www.w3.org/1999/xlink" width="574.94" height="306.37" viewBox="0 0 574.94 306.37">
  <defs>
    <linearGradient id="linear-gradient" y1="0.5" x2="1" y2="0.5" gradientUnits="objectBoundingBox">
      <stop offset="0" stop-color="#404b61"/>
      <stop offset="0.49" stop-color="#3c4860"/>
      <stop offset="1" stop-color="#2f3e5c"/>
    </linearGradient>
  </defs>
  <g id="Grupo_94286" data-name="Grupo 94286" transform="translate(-810 -1095.814)">
    <path id="Trazado_185886" data-name="Trazado 185886" d="M29.19,108.13H196.65v116.3a7.74,7.74,0,0,1-7.74,7.74h-152a7.74,7.74,0,0,1-7.74-7.74V108.13Z" transform="translate(1024.91 1397.755) rotate(180)" fill="#35afea"/>
    <path id="Trazado_191564" data-name="Trazado 191564" d="M0,0H155.32V95.42H0Z" transform="translate(989.5 1267.075) rotate(180)" fill="url(#linear-gradient)"/>
    <path id="Trazado_185887" data-name="Trazado 185887" d="M196.64,214.26H29.25L10.93,282.73H214.96Z" transform="translate(799.07 1057.455)" fill="#35afea"/>
    <path id="Trazado_185888" data-name="Trazado 185888" d="M35.58,226.27H45.86a.62.62,0,0,1,.68.7l-1,4.47a.66.66,0,0,1-.67.48H34.41a.62.62,0,0,1-.67-.72l1.17-4.47a.67.67,0,0,1,.67-.46Z" transform="translate(799.07 1057.455)" fill="#fff"/>
    <path id="Trazado_185889" data-name="Trazado 185889" d="M50.58,226.27h7.77l-1.03,5.64H49.4Z" transform="translate(799.07 1057.455)" fill="#fff"/>
    <path id="Trazado_185890" data-name="Trazado 185890" d="M62.24,226.27h7.78l-.82,5.64-7.92.01Z" transform="translate(799.07 1057.455)" fill="#fff"/>
    <path id="Trazado_185891" data-name="Trazado 185891" d="M73.91,226.27h7.77l-.59,5.64H73.17Z" transform="translate(799.07 1057.455)" fill="#fff"/>
    <path id="Trazado_185892" data-name="Trazado 185892" d="M85.57,226.27h7.77l-.37,5.64H85.05Z" transform="translate(799.07 1057.455)" fill="#fff"/>
    <path id="Trazado_185893" data-name="Trazado 185893" d="M97.23,226.27H105l-.14,5.64-7.93.01Z" transform="translate(799.07 1057.455)" fill="#fff"/>
    <path id="Trazado_185894" data-name="Trazado 185894" d="M190.56,226.27H178.89l1.26,5.64h11.88Z" transform="translate(799.07 1057.455)" fill="#fff"/>
    <path id="Trazado_185895" data-name="Trazado 185895" d="M175.01,226.27h-7.78l1.04,5.64h7.92Z" transform="translate(799.07 1057.455)" fill="#fff"/>
    <path id="Trazado_185896" data-name="Trazado 185896" d="M163.34,226.27h-7.77l.81,5.64,7.93.01Z" transform="translate(799.07 1057.455)" fill="#fff"/>
    <path id="Trazado_185897" data-name="Trazado 185897" d="M151.68,226.27h-7.77l.59,5.64h7.92Z" transform="translate(799.07 1057.455)" fill="#fff"/>
    <path id="Trazado_185898" data-name="Trazado 185898" d="M140.02,226.27h-7.78l.37,5.64h7.93Z" transform="translate(799.07 1057.455)" fill="#fff"/>
    <path id="Trazado_185899" data-name="Trazado 185899" d="M128.36,226.27h-7.78l.15,5.64,7.92.01Z" transform="translate(799.07 1057.455)" fill="#fff"/>
    <path id="Trazado_185900" data-name="Trazado 185900" d="M108.89,226.27h7.78l.13,5.64h-7.91Z" transform="translate(799.07 1057.455)" fill="#fff"/>
    <path id="Trazado_185901" data-name="Trazado 185901" d="M32.16,236.12H48.41l-.93,5.82H30.93Z" transform="translate(799.07 1057.455)" fill="#fff"/>
    <path id="Trazado_185902" data-name="Trazado 185902" d="M193.09,236.12H173.01l1.14,5.82h20.47Z" transform="translate(799.07 1057.455)" fill="#fff"/>
    <path id="Trazado_185903" data-name="Trazado 185903" d="M168.99,236.12h-8.03l.92,5.82h8.18Z" transform="translate(799.07 1057.455)" fill="#fff"/>
    <path id="Trazado_185904" data-name="Trazado 185904" d="M156.94,236.12h-8.03l.69,5.82h8.18Z" transform="translate(799.07 1057.455)" fill="#fff"/>
    <path id="Trazado_185905" data-name="Trazado 185905" d="M144.9,236.12h-8.04l.46,5.82h8.18Z" transform="translate(799.07 1057.455)" fill="#fff"/>
    <path id="Trazado_185906" data-name="Trazado 185906" d="M132.84,236.12h-8.03l.23,5.82h8.19Z" transform="translate(799.07 1057.455)" fill="#fff"/>
    <path id="Trazado_185907" data-name="Trazado 185907" d="M29.73,246.5H46.34l-1.21,5.78H28.22Z" transform="translate(799.07 1057.455)" fill="#fff"/>
    <path id="Trazado_185908" data-name="Trazado 185908" d="M50.49,246.5H58.8l-.99,5.78H49.36Z" transform="translate(799.07 1057.455)" fill="#fff"/>
    <path id="Trazado_185909" data-name="Trazado 185909" d="M62.95,246.5h62.28l.24,5.78H62.04Z" transform="translate(799.07 1057.455)" fill="#fff"/>
    <path id="Trazado_185910" data-name="Trazado 185910" d="M129.39,246.5h8.3l.46,5.78h-8.46Z" transform="translate(799.07 1057.455)" fill="#fff"/>
    <path id="Trazado_185911" data-name="Trazado 185911" d="M141.85,246.5h8.3l.68,5.78h-8.45Z" transform="translate(799.07 1057.455)" fill="#fff"/>
    <path id="Trazado_185912" data-name="Trazado 185912" d="M154.3,246.5h8.31l.91,5.78h-8.46Z" transform="translate(799.07 1057.455)" fill="#fff"/>
    <path id="Trazado_185913" data-name="Trazado 185913" d="M166.76,246.5h8.31l1.13,5.78h-8.45Z" transform="translate(799.07 1057.455)" fill="#fff"/>
    <path id="Trazado_185914" data-name="Trazado 185914" d="M179.22,246.5h16.61l1.51,5.78H180.43Z" transform="translate(799.07 1057.455)" fill="#fff"/>
    <path id="Trazado_185915" data-name="Trazado 185915" d="M120.81,236.12h-7.97v5.82h8.13Z" transform="translate(799.07 1057.455)" fill="#fff"/>
    <path id="Trazado_185916" data-name="Trazado 185916" d="M108.76,236.12h-8.03l-.23,5.82h8.19Z" transform="translate(799.07 1057.455)" fill="#fff"/>
    <path id="Trazado_185917" data-name="Trazado 185917" d="M96.71,236.12H88.68l-.46,5.82h8.19Z" transform="translate(799.07 1057.455)" fill="#fff"/>
    <path id="Trazado_185918" data-name="Trazado 185918" d="M84.67,236.12H76.63l-.68,5.82h8.18Z" transform="translate(799.07 1057.455)" fill="#fff"/>
    <path id="Trazado_185919" data-name="Trazado 185919" d="M72.62,236.12H64.58l-.91,5.82h8.18Z" transform="translate(799.07 1057.455)" fill="#fff"/>
    <path id="Trazado_185920" data-name="Trazado 185920" d="M60.57,236.12H52.53l-1.14,5.82h8.19Z" transform="translate(799.07 1057.455)" fill="#fff"/>
    <path id="Trazado_185921" data-name="Trazado 185921" d="M35.96,222.73l1.32-5.04h3.77l-1.23,5.04Z" transform="translate(799.07 1057.455)" fill="#fff"/>
    <path id="Trazado_185922" data-name="Trazado 185922" d="M44.83,217.69h7.55l-1.06,5.04H43.64Z" transform="translate(799.07 1057.455)" fill="#fff"/>
    <path id="Trazado_185923" data-name="Trazado 185923" d="M56.16,217.69H63.7l-.85,5.04H55.16Z" transform="translate(799.07 1057.455)" fill="#fff"/>
    <path id="Trazado_185924" data-name="Trazado 185924" d="M67.48,217.69h7.55l-.66,5.04H66.69Z" transform="translate(799.07 1057.455)" fill="#fff"/>
    <path id="Trazado_185925" data-name="Trazado 185925" d="M78.81,217.69h7.55l-.47,5.04H78.21Z" transform="translate(799.07 1057.455)" fill="#fff"/>
    <path id="Trazado_185926" data-name="Trazado 185926" d="M90.13,217.69h7.55l-.26,5.04H89.73Z" transform="translate(799.07 1057.455)" fill="#fff"/>
    <path id="Trazado_185927" data-name="Trazado 185927" d="M101.45,217.69H109l-.06,5.04h-7.68Z" transform="translate(799.07 1057.455)" fill="#fff"/>
    <path id="Trazado_185928" data-name="Trazado 185928" d="M112.78,217.69h7.55l.13,5.04h-7.68Z" transform="translate(799.07 1057.455)" fill="#fff"/>
    <path id="Trazado_185929" data-name="Trazado 185929" d="M124.11,217.69h7.55l.33,5.04H124.3Z" transform="translate(799.07 1057.455)" fill="#fff"/>
    <path id="Trazado_185930" data-name="Trazado 185930" d="M135.43,217.69h7.55l.53,5.04h-7.68Z" transform="translate(799.07 1057.455)" fill="#fff"/>
    <path id="Trazado_185931" data-name="Trazado 185931" d="M146.75,217.69h7.56l.72,5.04h-7.68Z" transform="translate(799.07 1057.455)" fill="#fff"/>
    <path id="Trazado_185932" data-name="Trazado 185932" d="M158.08,217.69h7.55l.93,5.04h-7.69Z" transform="translate(799.07 1057.455)" fill="#fff"/>
    <path id="Trazado_185933" data-name="Trazado 185933" d="M169.41,217.69h7.55l1.12,5.04H170.4Z" transform="translate(799.07 1057.455)" fill="#fff"/>
    <path id="Trazado_185934" data-name="Trazado 185934" d="M180.73,217.69h7.55l1.32,5.04h-7.68Z" transform="translate(799.07 1057.455)" fill="#fff"/>
    <path id="Trazado_185935" data-name="Trazado 185935" d="M209.63,288.06H16.26a5.33,5.33,0,0,1-5.33-5.33H215a5.33,5.33,0,0,1-5.37,5.33Z" transform="translate(799.07 1057.455)" fill="#35afea"/>
    <path id="Trazado_185936" data-name="Trazado 185936" d="M136.66,260.6a2.5,2.5,0,0,0-2.46-2.09H91.69a2.5,2.5,0,0,0-2.46,2.09l-2.66,16.07A2.5,2.5,0,0,0,89,279.58h47.82a2.5,2.5,0,0,0,2.47-2.91Z" transform="translate(799.07 1057.455)" fill="#4d78eb"/>
    <path id="Trazado_191565" data-name="Trazado 191565" d="M6.44,0H1.031V-9.019h5.2v1.654H3.063v2.006h2.95v1.648H3.063v2.063H6.44ZM7.471-.346V-2.358A3.867,3.867,0,0,0,8.66-1.67a3.821,3.821,0,0,0,1.3.23,2.873,2.873,0,0,0,.67-.069A1.569,1.569,0,0,0,11.1-1.7a.837.837,0,0,0,.286-.289.722.722,0,0,0,.094-.362.782.782,0,0,0-.151-.472,1.624,1.624,0,0,0-.412-.384,4.3,4.3,0,0,0-.619-.34q-.358-.164-.774-.333A3.948,3.948,0,0,1,7.953-4.956,2.348,2.348,0,0,1,7.434-6.49,2.444,2.444,0,0,1,7.717-7.7a2.4,2.4,0,0,1,.77-.833,3.454,3.454,0,0,1,1.129-.481,5.8,5.8,0,0,1,1.358-.154,8.171,8.171,0,0,1,1.248.085,4.91,4.91,0,0,1,1,.261v1.88a3.033,3.033,0,0,0-.494-.277,3.911,3.911,0,0,0-.55-.2,4.2,4.2,0,0,0-.563-.116,3.984,3.984,0,0,0-.531-.038,2.771,2.771,0,0,0-.629.066,1.613,1.613,0,0,0-.478.186.923.923,0,0,0-.3.286.678.678,0,0,0-.107.374.715.715,0,0,0,.119.406,1.371,1.371,0,0,0,.34.34,3.6,3.6,0,0,0,.535.314q.314.154.711.318a7.919,7.919,0,0,1,.972.481,3.454,3.454,0,0,1,.739.575,2.242,2.242,0,0,1,.472.733,2.589,2.589,0,0,1,.164.959,2.569,2.569,0,0,1-.286,1.267,2.323,2.323,0,0,1-.777.83,3.368,3.368,0,0,1-1.141.456,6.6,6.6,0,0,1-1.374.138A7.641,7.641,0,0,1,8.632.031,4.262,4.262,0,0,1,7.471-.346Z" transform="translate(867.54 1203.295)" fill="#fff"/>
    <path id="Trazado_191566" data-name="Trazado 191566" d="M7.364-7.364H4.792V0H2.755V-7.364H.195V-9.019h7.17Z" transform="translate(882.7 1203.295)" fill="#fff"/>
    <path id="Trazado_191567" data-name="Trazado 191567" d="M8.962,0H6.748L6.107-2.006H2.9L2.264,0H.063L3.346-9.019H5.754ZM5.641-3.566,4.673-6.6a3.95,3.95,0,0,1-.151-.811h-.05a3.44,3.44,0,0,1-.157.786L3.333-3.566Zm.874-8.32L4.547-9.855H3.113l1.635-2.031ZM18.2,0H16.15L12.433-5.666a8.194,8.194,0,0,1-.453-.748h-.025q.05.478.05,1.459V0H10.088V-9.019h2.189l3.578,5.49q.245.371.453.736h.025a9.643,9.643,0,0,1-.05-1.239V-9.019H18.2Z" transform="translate(889.92 1203.295)" fill="#fff"/>
    <path id="Trazado_191568" data-name="Trazado 191568" d="M1.031,0V-9.019H4.226q4.8,0,4.8,4.4A4.445,4.445,0,0,1,7.72-1.258,4.835,4.835,0,0,1,4.226,0ZM3.063-7.364v5.717H4.069A2.719,2.719,0,0,0,6.141-2.44,3.007,3.007,0,0,0,6.893-4.6a2.728,2.728,0,0,0-.745-2.028,2.841,2.841,0,0,0-2.091-.739Z" transform="translate(907.68 1203.295)" fill="#fff"/>
    <path id="Trazado_191569" data-name="Trazado 191569" d="M8.962,0H6.748L6.107-2.006H2.9L2.264,0H.063L3.346-9.019H5.754ZM5.641-3.566,4.673-6.6a3.95,3.95,0,0,1-.151-.811h-.05a3.44,3.44,0,0,1-.157.786L3.333-3.566ZM17.653,0H15.32l-1.4-2.321q-.157-.264-.3-.472a2.621,2.621,0,0,0-.292-.355,1.163,1.163,0,0,0-.308-.226.782.782,0,0,0-.349-.079h-.547V0H10.088V-9.019h3.22q3.283,0,3.283,2.453a2.54,2.54,0,0,1-.145.871,2.42,2.42,0,0,1-.409.72,2.591,2.591,0,0,1-.638.553,3.292,3.292,0,0,1-.833.365v.025a1.293,1.293,0,0,1,.39.2,2.792,2.792,0,0,1,.365.33,4.607,4.607,0,0,1,.336.406q.16.217.292.425ZM12.119-7.5v2.509H13a1.46,1.46,0,0,0,1.05-.377,1.259,1.259,0,0,0,.4-.95q0-1.182-1.415-1.182ZM23.9,0H18.5V-9.019h5.2v1.654h-3.17v2.006h2.95v1.648h-2.95v2.063H23.9Zm1.031-.346V-2.358a3.867,3.867,0,0,0,1.189.689,3.821,3.821,0,0,0,1.3.23,2.873,2.873,0,0,0,.67-.069,1.569,1.569,0,0,0,.478-.192.837.837,0,0,0,.286-.289.722.722,0,0,0,.094-.362.782.782,0,0,0-.151-.472,1.624,1.624,0,0,0-.412-.384,4.3,4.3,0,0,0-.619-.34q-.358-.164-.774-.333a3.948,3.948,0,0,1-1.575-1.075A2.348,2.348,0,0,1,24.9-6.49,2.444,2.444,0,0,1,25.181-7.7a2.4,2.4,0,0,1,.77-.833,3.454,3.454,0,0,1,1.129-.481,5.8,5.8,0,0,1,1.358-.154,8.171,8.171,0,0,1,1.248.085,4.91,4.91,0,0,1,1,.261v1.88A3.033,3.033,0,0,0,30.2-7.22a3.911,3.911,0,0,0-.55-.2,4.2,4.2,0,0,0-.563-.116,3.984,3.984,0,0,0-.531-.038,2.771,2.771,0,0,0-.629.066,1.613,1.613,0,0,0-.478.186.923.923,0,0,0-.3.286.678.678,0,0,0-.107.374.715.715,0,0,0,.119.406,1.371,1.371,0,0,0,.34.34,3.6,3.6,0,0,0,.535.314q.314.154.711.318a7.919,7.919,0,0,1,.972.481,3.454,3.454,0,0,1,.739.575,2.242,2.242,0,0,1,.472.733,2.589,2.589,0,0,1,.164.959A2.569,2.569,0,0,1,30.8-1.267a2.323,2.323,0,0,1-.777.83,3.368,3.368,0,0,1-1.141.456,6.6,6.6,0,0,1-1.374.138A7.641,7.641,0,0,1,26.1.031,4.262,4.262,0,0,1,24.936-.346ZM42.923-9.019,39.986-3.207V0H37.954V-3.17L35.093-9.019h2.321l1.453,3.365q.038.094.208.736H39.1a3.277,3.277,0,0,1,.195-.711l1.478-3.39Z" transform="translate(915.92 1203.295)" fill="#fff"/>
    <path id="Trazado_191570" data-name="Trazado 191570" d="M11.308,0H9.3V-5.4q0-.874.075-1.931h-.05a9.5,9.5,0,0,1-.283,1.195L6.931,0H5.27L3.119-6.069a11.81,11.81,0,0,1-.283-1.258H2.78q.082,1.333.082,2.34V0H1.031V-9.019H4.006L5.849-3.673A7.527,7.527,0,0,1,6.17-2.384h.038a12.982,12.982,0,0,1,.358-1.3L8.408-9.019h2.9Zm5.861.157A4.2,4.2,0,0,1,14.012-1.1a4.527,4.527,0,0,1-1.22-3.286,4.851,4.851,0,0,1,1.239-3.459,4.289,4.289,0,0,1,3.283-1.321,4.093,4.093,0,0,1,3.123,1.264,4.661,4.661,0,0,1,1.192,3.333,4.773,4.773,0,0,1-1.236,3.428A4.242,4.242,0,0,1,17.169.157Zm.088-7.578a2.045,2.045,0,0,0-1.7.8A3.343,3.343,0,0,0,14.93-4.5a3.282,3.282,0,0,0,.629,2.119,2.015,2.015,0,0,0,1.648.78,2.035,2.035,0,0,0,1.667-.758,3.246,3.246,0,0,0,.616-2.1,3.517,3.517,0,0,0-.6-2.182A1.948,1.948,0,0,0,17.257-7.421ZM23.125,0V-9.019H26.32q4.8,0,4.8,4.4a4.445,4.445,0,0,1-1.311,3.365A4.835,4.835,0,0,1,26.32,0Zm2.031-7.364v5.717h1.006a2.719,2.719,0,0,0,2.072-.792A3.007,3.007,0,0,0,28.986-4.6a2.728,2.728,0,0,0-.745-2.028,2.841,2.841,0,0,0-2.091-.739ZM38.03,0H32.621V-9.019h5.2v1.654h-3.17v2.006H37.6v1.648h-2.95v2.063H38.03Z" transform="translate(846.19 1218.755)" fill="#fff"/>
    <path id="Trazado_191571" data-name="Trazado 191571" d="M6.4,0H1.031V-9.019H3.063v7.371H6.4Z" transform="translate(881.98 1218.755)" fill="#fff"/>
    <path id="Trazado_191572" data-name="Trazado 191572" d="M4.843.157A4.2,4.2,0,0,1,1.685-1.1,4.527,4.527,0,0,1,.465-4.39,4.851,4.851,0,0,1,1.7-7.849,4.289,4.289,0,0,1,4.987-9.169,4.093,4.093,0,0,1,8.11-7.905,4.661,4.661,0,0,1,9.3-4.572,4.773,4.773,0,0,1,8.066-1.145,4.242,4.242,0,0,1,4.843.157Zm.088-7.578a2.045,2.045,0,0,0-1.7.8A3.343,3.343,0,0,0,2.6-4.5a3.282,3.282,0,0,0,.629,2.119A2.015,2.015,0,0,0,4.88-1.6a2.035,2.035,0,0,0,1.667-.758,3.246,3.246,0,0,0,.616-2.1,3.517,3.517,0,0,0-.6-2.182A1.948,1.948,0,0,0,4.931-7.421ZM10.383-.346V-2.358a3.867,3.867,0,0,0,1.189.689,3.821,3.821,0,0,0,1.3.23,2.873,2.873,0,0,0,.67-.069,1.569,1.569,0,0,0,.478-.192A.837.837,0,0,0,14.3-1.99a.722.722,0,0,0,.094-.362.782.782,0,0,0-.151-.472,1.624,1.624,0,0,0-.412-.384,4.3,4.3,0,0,0-.619-.34q-.358-.164-.774-.333a3.948,3.948,0,0,1-1.575-1.075,2.348,2.348,0,0,1-.519-1.535A2.444,2.444,0,0,1,10.629-7.7a2.4,2.4,0,0,1,.77-.833,3.454,3.454,0,0,1,1.129-.481,5.8,5.8,0,0,1,1.358-.154,8.171,8.171,0,0,1,1.248.085,4.91,4.91,0,0,1,1,.261v1.88a3.033,3.033,0,0,0-.494-.277,3.911,3.911,0,0,0-.55-.2,4.2,4.2,0,0,0-.563-.116A3.984,3.984,0,0,0,14-7.572a2.771,2.771,0,0,0-.629.066,1.613,1.613,0,0,0-.478.186.923.923,0,0,0-.3.286.678.678,0,0,0-.107.374.715.715,0,0,0,.119.406,1.371,1.371,0,0,0,.34.34,3.6,3.6,0,0,0,.535.314q.314.154.711.318a7.919,7.919,0,0,1,.972.481,3.454,3.454,0,0,1,.739.575,2.242,2.242,0,0,1,.472.733,2.589,2.589,0,0,1,.164.959,2.569,2.569,0,0,1-.286,1.267,2.323,2.323,0,0,1-.777.83A3.368,3.368,0,0,1,14.33.019a6.6,6.6,0,0,1-1.374.138A7.641,7.641,0,0,1,11.544.031,4.262,4.262,0,0,1,10.383-.346ZM21.571,0V-9.019h3.195q4.8,0,4.8,4.4A4.445,4.445,0,0,1,28.26-1.258,4.835,4.835,0,0,1,24.766,0ZM23.6-7.364v5.717h1.006a2.719,2.719,0,0,0,2.072-.792A3.007,3.007,0,0,0,27.433-4.6a2.728,2.728,0,0,0-.745-2.028A2.841,2.841,0,0,0,24.6-7.364ZM36.477,0H31.068V-9.019h5.2v1.654H33.1v2.006h2.95v1.648H33.1v2.063h3.377ZM47.942-.321a5.947,5.947,0,0,1-2.579.478A4.346,4.346,0,0,1,42.1-1.063,4.46,4.46,0,0,1,40.91-4.314a4.765,4.765,0,0,1,1.336-3.509,4.675,4.675,0,0,1,3.468-1.346,6.486,6.486,0,0,1,2.226.333V-6.88a3.945,3.945,0,0,0-2.063-.541,2.736,2.736,0,0,0-2.05.8,2.964,2.964,0,0,0-.78,2.163,2.907,2.907,0,0,0,.736,2.085,2.6,2.6,0,0,0,1.981.777,4.226,4.226,0,0,0,2.176-.579Zm9.5.321H55.231l-.641-2.006H51.382L50.746,0h-2.2l3.283-9.019h2.409ZM54.124-3.566,53.155-6.6A3.951,3.951,0,0,1,53-7.409h-.05a3.44,3.44,0,0,1-.157.786l-.981,3.056ZM63.941,0H58.57V-9.019H60.6v7.371h3.339Zm3.245,0H65.155V-9.019h2.031Z" transform="translate(888.55 1218.755)" fill="#fff"/>
    <path id="Trazado_191573" data-name="Trazado 191573" d="M1.031,0V-9.019H4.226q4.8,0,4.8,4.4A4.445,4.445,0,0,1,7.72-1.258,4.835,4.835,0,0,1,4.226,0ZM3.063-7.364v5.717H4.069A2.719,2.719,0,0,0,6.141-2.44,3.007,3.007,0,0,0,6.893-4.6a2.728,2.728,0,0,0-.745-2.028,2.841,2.841,0,0,0-2.091-.739Z" transform="translate(955.21 1218.755)" fill="#fff"/>
    <path id="Trazado_191574" data-name="Trazado 191574" d="M8.962,0H6.748L6.107-2.006H2.9L2.264,0H.063L3.346-9.019H5.754ZM5.641-3.566,4.673-6.6a3.95,3.95,0,0,1-.151-.811h-.05a3.44,3.44,0,0,1-.157.786L3.333-3.566ZM10.088,0V-9.019h3.195q4.8,0,4.8,4.4a4.445,4.445,0,0,1-1.311,3.365A4.835,4.835,0,0,1,13.282,0Zm2.031-7.364v5.717h1.006A2.719,2.719,0,0,0,15.2-2.44,3.007,3.007,0,0,0,15.949-4.6,2.728,2.728,0,0,0,15.2-6.626a2.841,2.841,0,0,0-2.091-.739Z" transform="translate(963.45 1218.755)" fill="#fff"/>
    <path id="Trazado_191575" data-name="Trazado 191575" d="M1.031,0V-9.019H4.226q4.8,0,4.8,4.4A4.445,4.445,0,0,1,7.72-1.258,4.835,4.835,0,0,1,4.226,0ZM3.063-7.364v5.717H4.069A2.719,2.719,0,0,0,6.141-2.44,3.007,3.007,0,0,0,6.893-4.6a2.728,2.728,0,0,0-.745-2.028,2.841,2.841,0,0,0-2.091-.739ZM15.936,0H10.528V-9.019h5.2v1.654h-3.17v2.006h2.95v1.648h-2.95v2.063h3.377Zm6.817,0H17.383V-9.019h2.031v7.371h3.339Zm4.352-.346V-2.358a3.867,3.867,0,0,0,1.189.689,3.821,3.821,0,0,0,1.3.23,2.873,2.873,0,0,0,.67-.069,1.569,1.569,0,0,0,.478-.192.837.837,0,0,0,.286-.289.722.722,0,0,0,.094-.362.782.782,0,0,0-.151-.472,1.624,1.624,0,0,0-.412-.384,4.3,4.3,0,0,0-.619-.34q-.358-.164-.774-.333a3.948,3.948,0,0,1-1.575-1.075,2.348,2.348,0,0,1-.519-1.535A2.444,2.444,0,0,1,27.351-7.7a2.4,2.4,0,0,1,.77-.833,3.454,3.454,0,0,1,1.129-.481,5.8,5.8,0,0,1,1.358-.154,8.171,8.171,0,0,1,1.248.085,4.91,4.91,0,0,1,1,.261v1.88a3.033,3.033,0,0,0-.494-.277,3.912,3.912,0,0,0-.55-.2,4.2,4.2,0,0,0-.563-.116,3.984,3.984,0,0,0-.531-.038,2.771,2.771,0,0,0-.629.066,1.613,1.613,0,0,0-.478.186.923.923,0,0,0-.3.286.678.678,0,0,0-.107.374.715.715,0,0,0,.119.406,1.371,1.371,0,0,0,.34.34A3.6,3.6,0,0,0,30.2-5.6q.314.154.711.318a7.919,7.919,0,0,1,.972.481,3.454,3.454,0,0,1,.739.575,2.242,2.242,0,0,1,.472.733,2.589,2.589,0,0,1,.164.959,2.569,2.569,0,0,1-.286,1.267,2.323,2.323,0,0,1-.777.83,3.368,3.368,0,0,1-1.141.456,6.6,6.6,0,0,1-1.374.138A7.641,7.641,0,0,1,28.266.031,4.262,4.262,0,0,1,27.106-.346Zm11.446.5A4.2,4.2,0,0,1,35.395-1.1a4.527,4.527,0,0,1-1.22-3.286,4.851,4.851,0,0,1,1.239-3.459A4.289,4.289,0,0,1,38.7-9.169a4.093,4.093,0,0,1,3.123,1.264,4.661,4.661,0,0,1,1.192,3.333,4.773,4.773,0,0,1-1.236,3.428A4.242,4.242,0,0,1,38.552.157Zm.088-7.578a2.045,2.045,0,0,0-1.7.8A3.343,3.343,0,0,0,36.313-4.5a3.282,3.282,0,0,0,.629,2.119,2.015,2.015,0,0,0,1.648.78,2.035,2.035,0,0,0,1.667-.758,3.246,3.246,0,0,0,.616-2.1,3.517,3.517,0,0,0-.6-2.182A1.948,1.948,0,0,0,38.64-7.421Z" transform="translate(866.85 1234.205)" fill="#fff"/>
    <path id="Trazado_191576" data-name="Trazado 191576" d="M6.245-7.364H3.063v2.214H5.987V-3.5H3.063V0H1.031V-9.019H6.245Z" transform="translate(909.46 1234.205)" fill="#fff"/>
    <path id="Trazado_191577" data-name="Trazado 191577" d="M7.364-7.364H4.792V0H2.755V-7.364H.195V-9.019h7.17Z" transform="translate(916.64 1234.205)" fill="#fff"/>
    <path id="Trazado_191578" data-name="Trazado 191578" d="M12.83-9.019,10.446,0H8.195L6.7-5.786A4.824,4.824,0,0,1,6.553-6.8H6.528a6.152,6.152,0,0,1-.164,1.013L4.83,0H2.484L.113-9.019h2.22L3.6-3.012a7.17,7.17,0,0,1,.119,1.031h.038a4.992,4.992,0,0,1,.182-1.057L5.578-9.019H7.754L9.232-2.962a7.416,7.416,0,0,1,.145.969H9.4A6.493,6.493,0,0,1,9.534-3l1.245-6.019Z" transform="translate(924.7 1234.205)" fill="#fff"/>
    <path id="Trazado_191579" data-name="Trazado 191579" d="M8.962,0H6.748L6.107-2.006H2.9L2.264,0H.063L3.346-9.019H5.754ZM5.641-3.566,4.673-6.6a3.95,3.95,0,0,1-.151-.811h-.05a3.44,3.44,0,0,1-.157.786L3.333-3.566ZM17.653,0H15.32l-1.4-2.321q-.157-.264-.3-.472a2.621,2.621,0,0,0-.292-.355,1.163,1.163,0,0,0-.308-.226.782.782,0,0,0-.349-.079h-.547V0H10.088V-9.019h3.22q3.283,0,3.283,2.453a2.54,2.54,0,0,1-.145.871,2.42,2.42,0,0,1-.409.72,2.591,2.591,0,0,1-.638.553,3.292,3.292,0,0,1-.833.365v.025a1.293,1.293,0,0,1,.39.2,2.792,2.792,0,0,1,.365.33,4.607,4.607,0,0,1,.336.406q.16.217.292.425ZM12.119-7.5v2.509H13a1.46,1.46,0,0,0,1.05-.377,1.259,1.259,0,0,0,.4-.95q0-1.182-1.415-1.182ZM23.9,0H18.5V-9.019h5.2v1.654h-3.17v2.006h2.95v1.648h-2.95v2.063H23.9Z" transform="translate(935.69 1234.205)" fill="#fff"/>
    <path id="Trazado_191580" data-name="Trazado 191580" d="M26.16,45.32,0,0" transform="translate(1091.66 1217.574)" fill="none" stroke="#36dac9" stroke-width="1"/>
    <path id="Trazado_191581" data-name="Trazado 191581" d="M0,45.31,26.16,0" transform="translate(1091.66 1262.895)" fill="none" stroke="#36dac9" stroke-width="1"/>
    <path id="Trazado_191582" data-name="Trazado 191582" d="M0,0H52.33" transform="translate(1039.33 1308.205)" fill="none" stroke="#36dac9" stroke-width="1"/>
    <path id="Trazado_191583" data-name="Trazado 191583" d="M0,0,26.16,45.31" transform="translate(1013.17 1262.895)" fill="none" stroke="#36dac9" stroke-width="1"/>
    <path id="Trazado_191584" data-name="Trazado 191584" d="M52.33,0H0" transform="translate(1039.33 1217.574)" fill="none" stroke="#36dac9" stroke-width="1"/>
    <path id="Trazado_191585" data-name="Trazado 191585" d="M0,45.31,26.17,0" transform="translate(1248.36 1262.895)" fill="none" stroke="#36dac9" stroke-width="1"/>
    <path id="Trazado_191586" data-name="Trazado 191586" d="M0,0H52.32" transform="translate(1196.04 1308.205)" fill="none" stroke="#36dac9" stroke-width="1"/>
    <path id="Trazado_191587" data-name="Trazado 191587" d="M0,0,26.17,45.31" transform="translate(1169.87 1262.895)" fill="none" stroke="#36dac9" stroke-width="1"/>
    <path id="Trazado_191588" data-name="Trazado 191588" d="M26.17,0,0,45.32" transform="translate(1169.87 1217.574)" fill="none" stroke="#36dac9" stroke-width="1"/>
    <path id="Trazado_191589" data-name="Trazado 191589" d="M52.32,0H0" transform="translate(1196.04 1217.574)" fill="none" stroke="#36dac9" stroke-width="1"/>
    <path id="Trazado_191590" data-name="Trazado 191590" d="M26.17,45.31,0,0" transform="translate(1248.36 1126.944)" fill="none" stroke="#36dac9" stroke-width="1"/>
    <path id="Trazado_191591" data-name="Trazado 191591" d="M0,45.32,26.17,0" transform="translate(1248.36 1172.255)" fill="none" stroke="#36dac9" stroke-width="1"/>
    <path id="Trazado_191592" data-name="Trazado 191592" d="M0,0H52.32" transform="translate(1196.04 1217.574)" fill="none" stroke="#36dac9" stroke-width="1"/>
    <path id="Trazado_191593" data-name="Trazado 191593" d="M0,0,26.17,45.32" transform="translate(1169.87 1172.255)" fill="none" stroke="#36dac9" stroke-width="1"/>
    <path id="Trazado_191594" data-name="Trazado 191594" d="M26.17,0,0,45.31" transform="translate(1169.87 1126.944)" fill="none" stroke="#36dac9" stroke-width="1"/>
    <path id="Trazado_191595" data-name="Trazado 191595" d="M52.32,0H0" transform="translate(1196.04 1126.944)" fill="none" stroke="#36dac9" stroke-width="1"/>
    <path id="Trazado_191596" data-name="Trazado 191596" d="M26.17,45.31,0,0" transform="translate(1325.95 1262.895)" fill="none" stroke="#36dac9" stroke-width="1"/>
    <path id="Trazado_185937" data-name="Trazado 185937" d="M448.39,250.75l26.17,45.32h52.32l26.16-45.32" transform="translate(799.07 1057.455)" fill="none" stroke="#36dac9" stroke-miterlimit="10" stroke-width="1"/>
    <path id="Trazado_191597" data-name="Trazado 191597" d="M26.17,0,0,45.31" transform="translate(1247.46 1262.895)" fill="none" stroke="#36dac9" stroke-width="1"/>
    <path id="Trazado_191598" data-name="Trazado 191598" d="M52.32,0H0" transform="translate(1273.63 1262.895)" fill="none" stroke="#36dac9" stroke-width="1"/>
    <path id="Trazado_191599" data-name="Trazado 191599" d="M0,.01V0" transform="translate(1196.11 1308.195)" fill="none" stroke="#36dac9" stroke-width="1"/>
    <path id="Trazado_191600" data-name="Trazado 191600" d="M24.66,42.71,0,0" transform="translate(1170.45 1263.766)" fill="none" stroke="#36dac9" stroke-width="1" stroke-dasharray="0.02 1.99"/>
    <path id="Trazado_191601" data-name="Trazado 191601" d="M.01.01,0,0" transform="translate(1169.95 1262.895)" fill="none" stroke="#36dac9" stroke-width="1"/>
    <path id="Trazado_191602" data-name="Trazado 191602" d="M0,0,.5.87" transform="translate(1091.46 1308.205)" fill="none" stroke="#36dac9" stroke-width="1"/>
    <path id="Trazado_191603" data-name="Trazado 191603" d="M0,0,23.65,40.97" transform="translate(1092.97 1310.815)" fill="none" stroke="#36dac9" stroke-width="1" stroke-dasharray="2.01 2.01"/>
    <path id="Trazado_185938" data-name="Trazado 185938" d="M318.06,295.2l.5.87h1" transform="translate(799.07 1057.455)" fill="none" stroke="#36dac9" stroke-miterlimit="10" stroke-width="1"/>
    <path id="Trazado_191604" data-name="Trazado 191604" d="M0,0H47.3" transform="translate(1120.64 1353.525)" fill="none" stroke="#36dac9" stroke-width="1" stroke-dasharray="2.01 2.01"/>
    <path id="Trazado_185939" data-name="Trazado 185939" d="M369.88,296.07h1l.5-.87" transform="translate(799.07 1057.455)" fill="none" stroke="#36dac9" stroke-miterlimit="10" stroke-width="1"/>
    <path id="Trazado_191605" data-name="Trazado 191605" d="M0,40.97,23.65,0" transform="translate(1171.46 1309.945)" fill="none" stroke="#36dac9" stroke-width="1" stroke-dasharray="2.01 2.01"/>
    <path id="Trazado_191606" data-name="Trazado 191606" d="M0,.87.5,0" transform="translate(1195.61 1308.205)" fill="none" stroke="#36dac9" stroke-width="1"/>
    <path id="Trazado_191607" data-name="Trazado 191607" d="M26.16,0,0,45.31" transform="translate(1091.46 1262.895)" fill="none" stroke="#36dac9" stroke-width="1"/>
    <path id="Trazado_191608" data-name="Trazado 191608" d="M52.33,0H0" transform="translate(1117.62 1262.895)" fill="none" stroke="#36dac9" stroke-width="1"/>
    <path id="Trazado_191609" data-name="Trazado 191609" d="M26.16,45.32,0,0" transform="translate(1169.95 1172.255)" fill="none" stroke="#36dac9" stroke-width="1"/>
    <path id="Trazado_191610" data-name="Trazado 191610" d="M0,45.32,26.16,0" transform="translate(1169.95 1217.574)" fill="none" stroke="#36dac9" stroke-width="1"/>
    <path id="Trazado_191611" data-name="Trazado 191611" d="M0,0H.01" transform="translate(1117.62 1262.895)" fill="none" stroke="#36dac9" stroke-width="1"/>
    <path id="Trazado_191612" data-name="Trazado 191612" d="M0,0H49.32" transform="translate(1119.63 1262.895)" fill="none" stroke="#36dac9" stroke-width="1" stroke-dasharray="0.02 1.99"/>
    <path id="Trazado_191613" data-name="Trazado 191613" d="M0,0H.01" transform="translate(1169.94 1262.895)" fill="none" stroke="#36dac9" stroke-width="1"/>
    <path id="Trazado_191614" data-name="Trazado 191614" d="M0,0,26.16,45.32" transform="translate(1091.46 1217.574)" fill="none" stroke="#36dac9" stroke-width="1"/>
    <path id="Trazado_191615" data-name="Trazado 191615" d="M26.16,0,0,45.32" transform="translate(1091.46 1172.255)" fill="none" stroke="#36dac9" stroke-width="1"/>
    <path id="Trazado_191616" data-name="Trazado 191616" d="M52.33,0H0" transform="translate(1117.62 1172.255)" fill="none" stroke="#36dac9" stroke-width="1"/>
    <path id="Trazado_191617" data-name="Trazado 191617" d="M26.17,45.32,0,0" transform="translate(1325.95 1172.255)" fill="none" stroke="#36dac9" stroke-width="1"/>
    <path id="Trazado_191618" data-name="Trazado 191618" d="M0,45.32,26.17,0" transform="translate(1325.95 1217.574)" fill="none" stroke="#36dac9" stroke-width="1" stroke-dasharray="2 2"/>
    <path id="Trazado_191619" data-name="Trazado 191619" d="M0,0H52.32" transform="translate(1273.63 1262.895)" fill="none" stroke="#36dac9" stroke-width="1"/>
    <path id="Trazado_191620" data-name="Trazado 191620" d="M0,0,26.17,45.32" transform="translate(1247.46 1217.574)" fill="none" stroke="#36dac9" stroke-width="1"/>
    <path id="Trazado_191621" data-name="Trazado 191621" d="M52.32,0H0" transform="translate(1273.63 1172.255)" fill="none" stroke="#36dac9" stroke-width="1"/>
    <path id="Trazado_191622" data-name="Trazado 191622" d="M30.63,0A30.63,30.63,0,1,1,0,30.63,30.63,30.63,0,0,1,30.63,0Z" transform="translate(1086.99 1141.625)" fill="#0b3360" stroke="#36dac9" stroke-width="1"/>
    <path id="Trazado_191623" data-name="Trazado 191623" d="M30.63,0A30.63,30.63,0,1,1,0,30.63,30.63,30.63,0,0,1,30.63,0Z" transform="translate(1165.48 1183.744)" fill="#0b3360" stroke="#36dac9" stroke-width="1"/>
    <path id="Trazado_191624" data-name="Trazado 191624" d="M52.13,0A52.13,52.13,0,1,1,0,52.13,52.13,52.13,0,0,1,52.13,0Z" transform="translate(1044 1260.465)" fill="#0b3360" stroke="#36dac9" stroke-width="1"/>
    <path id="Trazado_191625" data-name="Trazado 191625" d="M30.63,0A30.63,30.63,0,1,1,0,30.63,30.63,30.63,0,0,1,30.63,0Z" transform="translate(1217.73 1096.314)" fill="#0b3360" stroke="#36dac9" stroke-width="1"/>
    <path id="Trazado_191626" data-name="Trazado 191626" d="M30.63,0A30.63,30.63,0,1,1,0,30.63,30.63,30.63,0,0,1,30.63,0Z" transform="translate(1295.32 1142.375)" fill="#0b3360" stroke="#36dac9" stroke-width="1"/>
    <path id="Trazado_191627" data-name="Trazado 191627" d="M30.63,0A30.63,30.63,0,1,1,0,30.63,30.63,30.63,0,0,1,30.63,0Z" transform="translate(1243 1228.154)" fill="#0b3360" stroke="#36dac9" stroke-width="1"/>
    <path id="Trazado_191628" data-name="Trazado 191628" d="M48.16,0A48.16,48.16,0,1,1,0,48.16,48.16,48.16,0,0,1,48.16,0Z" transform="translate(1221 1305.364)" fill="#0b3360" stroke="#36dac9" stroke-width="1"/>
    <path id="Trazado_191629" data-name="Trazado 191629" d="M36.49,0A36.49,36.49,0,1,1,0,36.49,36.49,36.49,0,0,1,36.49,0Z" transform="translate(1311.46 1271.715)" fill="#0b3360" stroke="#36dac9" stroke-width="1"/>
    <path id="Trazado_191630" data-name="Trazado 191630" d="M12.291,0H10.11V-5.865q0-.95.082-2.1h-.055a10.327,10.327,0,0,1-.308,1.3L7.533,0h-1.8L3.391-6.6a12.837,12.837,0,0,1-.308-1.367H3.021q.089,1.449.089,2.543V0H1.121V-9.8H4.354l2,5.811a8.181,8.181,0,0,1,.349,1.4h.041a14.111,14.111,0,0,1,.39-1.415l2-5.8h3.151Zm6.371.171A4.563,4.563,0,0,1,15.23-1.2,4.921,4.921,0,0,1,13.9-4.771a5.273,5.273,0,0,1,1.347-3.76,4.662,4.662,0,0,1,3.568-1.436,4.449,4.449,0,0,1,3.394,1.374,5.066,5.066,0,0,1,1.3,3.623,5.188,5.188,0,0,1-1.343,3.726A4.61,4.61,0,0,1,18.662.171Zm.1-8.237a2.223,2.223,0,0,0-1.846.872,3.634,3.634,0,0,0-.684,2.307,3.567,3.567,0,0,0,.684,2.3,2.19,2.19,0,0,0,1.791.848,2.212,2.212,0,0,0,1.812-.824,3.528,3.528,0,0,0,.67-2.287,3.823,3.823,0,0,0-.649-2.372A2.117,2.117,0,0,0,18.758-8.066ZM25.136,0V-9.8h3.473q5.223,0,5.223,4.778a4.832,4.832,0,0,1-1.425,3.657A5.256,5.256,0,0,1,28.608,0Zm2.208-8v6.214h1.094a2.956,2.956,0,0,0,2.252-.861A3.268,3.268,0,0,0,31.507-5a2.965,2.965,0,0,0-.81-2.2A3.088,3.088,0,0,0,28.424-8ZM41.337,0H35.458V-9.8h5.653V-8H37.666v2.181h3.206v1.791H37.666v2.242h3.671Z" transform="translate(1089.97 1172.815)" fill="#fff"/>
    <path id="Trazado_191631" data-name="Trazado 191631" d="M6.959,0H1.121V-9.8H3.329v8.012h3.63Z" transform="translate(1128.87 1172.815)" fill="#fff"/>
    <path id="Trazado_191632" data-name="Trazado 191632" d="M5.264.171A4.563,4.563,0,0,1,1.832-1.2,4.921,4.921,0,0,1,.506-4.771a5.273,5.273,0,0,1,1.347-3.76A4.662,4.662,0,0,1,5.421-9.967,4.449,4.449,0,0,1,8.815-8.593a5.066,5.066,0,0,1,1.3,3.623A5.188,5.188,0,0,1,8.767-1.244,4.61,4.61,0,0,1,5.264.171Zm.1-8.237a2.223,2.223,0,0,0-1.846.872A3.634,3.634,0,0,0,2.83-4.888a3.567,3.567,0,0,0,.684,2.3A2.19,2.19,0,0,0,5.3-1.736,2.212,2.212,0,0,0,7.116-2.56a3.528,3.528,0,0,0,.67-2.287,3.823,3.823,0,0,0-.649-2.372A2.117,2.117,0,0,0,5.359-8.066Z" transform="translate(1136.02 1172.815)" fill="#fff"/>
    <path id="Trazado_191633" data-name="Trazado 191633" d="M9.167-.656A7.055,7.055,0,0,1,5.6.171,5.161,5.161,0,0,1,1.87-1.138,4.763,4.763,0,0,1,.506-4.744,5.034,5.034,0,0,1,2-8.511,5.429,5.429,0,0,1,5.961-9.967a8.053,8.053,0,0,1,2.748.431v2.071a5.462,5.462,0,0,0-2.775-.656,2.98,2.98,0,0,0-2.239.892A3.277,3.277,0,0,0,2.83-4.847a3.287,3.287,0,0,0,.776,2.338,2.735,2.735,0,0,0,2.1.827,2.916,2.916,0,0,0,1.258-.226V-3.821H5V-5.585h4.17ZM13.282,0H11.074V-9.8h2.208Zm8.066,0H15.511V-9.8h2.208v8.012h3.63Zm1.319,0V-9.8h3.568a4.456,4.456,0,0,1,2.522.6,1.935,1.935,0,0,1,.882,1.7A2.006,2.006,0,0,1,29.1-6.118a2.819,2.819,0,0,1-1.371.827v.027a2.716,2.716,0,0,1,1.671.772,2.16,2.16,0,0,1,.625,1.565A2.616,2.616,0,0,1,29.066-.79,4.033,4.033,0,0,1,26.435,0Zm2.208-8.176v2.324h.971a1.618,1.618,0,0,0,1.077-.332,1.13,1.13,0,0,0,.393-.913q0-1.08-1.613-1.08Zm0,3.965v2.584h1.2a1.841,1.841,0,0,0,1.2-.355,1.187,1.187,0,0,0,.434-.971,1.108,1.108,0,0,0-.427-.923,1.89,1.89,0,0,0-1.193-.335Z" transform="translate(1102.76 1189.615)" fill="#fff"/>
    <path id="Trazado_191634" data-name="Trazado 191634" d="M12.291,0H10.11V-5.865q0-.95.082-2.1h-.055a10.327,10.327,0,0,1-.308,1.3L7.533,0h-1.8L3.391-6.6a12.837,12.837,0,0,1-.308-1.367H3.021q.089,1.449.089,2.543V0H1.121V-9.8H4.354l2,5.811a8.181,8.181,0,0,1,.349,1.4h.041a14.111,14.111,0,0,1,.39-1.415l2-5.8h3.151Zm6.371.171A4.563,4.563,0,0,1,15.23-1.2,4.921,4.921,0,0,1,13.9-4.771a5.273,5.273,0,0,1,1.347-3.76,4.662,4.662,0,0,1,3.568-1.436,4.449,4.449,0,0,1,3.394,1.374,5.066,5.066,0,0,1,1.3,3.623,5.188,5.188,0,0,1-1.343,3.726A4.61,4.61,0,0,1,18.662.171Zm.1-8.237a2.223,2.223,0,0,0-1.846.872,3.634,3.634,0,0,0-.684,2.307,3.567,3.567,0,0,0,.684,2.3,2.19,2.19,0,0,0,1.791.848,2.212,2.212,0,0,0,1.812-.824,3.528,3.528,0,0,0,.67-2.287,3.823,3.823,0,0,0-.649-2.372A2.117,2.117,0,0,0,18.758-8.066ZM25.136,0V-9.8h3.473q5.223,0,5.223,4.778a4.832,4.832,0,0,1-1.425,3.657A5.256,5.256,0,0,1,28.608,0Zm2.208-8v6.214h1.094a2.956,2.956,0,0,0,2.252-.861A3.268,3.268,0,0,0,31.507-5a2.965,2.965,0,0,0-.81-2.2A3.088,3.088,0,0,0,28.424-8ZM41.337,0H35.458V-9.8h5.653V-8H37.666v2.181h3.206v1.791H37.666v2.242h3.671Z" transform="translate(1167.77 1215.085)" fill="#fff"/>
    <path id="Trazado_191635" data-name="Trazado 191635" d="M6.959,0H1.121V-9.8H3.329v8.012h3.63Z" transform="translate(1206.67 1215.085)" fill="#fff"/>
    <path id="Trazado_191636" data-name="Trazado 191636" d="M5.264.171A4.563,4.563,0,0,1,1.832-1.2,4.921,4.921,0,0,1,.506-4.771a5.273,5.273,0,0,1,1.347-3.76A4.662,4.662,0,0,1,5.421-9.967,4.449,4.449,0,0,1,8.815-8.593a5.066,5.066,0,0,1,1.3,3.623A5.188,5.188,0,0,1,8.767-1.244,4.61,4.61,0,0,1,5.264.171Zm.1-8.237a2.223,2.223,0,0,0-1.846.872A3.634,3.634,0,0,0,2.83-4.888a3.567,3.567,0,0,0,.684,2.3A2.19,2.19,0,0,0,5.3-1.736,2.212,2.212,0,0,0,7.116-2.56a3.528,3.528,0,0,0,.67-2.287,3.823,3.823,0,0,0-.649-2.372A2.117,2.117,0,0,0,5.359-8.066Z" transform="translate(1213.82 1215.085)" fill="#fff"/>
    <path id="Trazado_191637" data-name="Trazado 191637" d="M12.291,0H10.11V-5.865q0-.95.082-2.1h-.055a10.327,10.327,0,0,1-.308,1.3L7.533,0h-1.8L3.391-6.6a12.837,12.837,0,0,1-.308-1.367H3.021q.089,1.449.089,2.543V0H1.121V-9.8H4.354l2,5.811a8.181,8.181,0,0,1,.349,1.4h.041a14.111,14.111,0,0,1,.39-1.415l2-5.8h3.151Zm7.321-.253A4.271,4.271,0,0,1,17.5.171a3.572,3.572,0,0,1-2.611-.978,3.376,3.376,0,0,1-1-2.522,3.719,3.719,0,0,1,1.07-2.813,3.954,3.954,0,0,1,2.861-1.029,3.671,3.671,0,0,1,1.791.328v1.832A2.463,2.463,0,0,0,18.1-5.517a1.991,1.991,0,0,0-1.473.543,2.028,2.028,0,0,0-.543,1.5,2,2,0,0,0,.52,1.459,1.909,1.909,0,0,0,1.429.53,2.851,2.851,0,0,0,1.579-.506Zm8.654-.1a6.464,6.464,0,0,1-2.8.52,4.724,4.724,0,0,1-3.548-1.326,4.848,4.848,0,0,1-1.292-3.534A5.179,5.179,0,0,1,22.077-8.5a5.081,5.081,0,0,1,3.77-1.463,7.05,7.05,0,0,1,2.42.362v2.126a4.288,4.288,0,0,0-2.242-.588A2.974,2.974,0,0,0,23.8-7.2a3.221,3.221,0,0,0-.848,2.352,3.16,3.16,0,0,0,.8,2.266,2.826,2.826,0,0,0,2.153.844,4.593,4.593,0,0,0,2.365-.629ZM35.588,0H33.544V-1h-.027A2.281,2.281,0,0,1,31.432.171a2.181,2.181,0,0,1-1.6-.578,2.07,2.07,0,0,1-.584-1.542q0-2.037,2.413-2.352l1.9-.253q0-1.148-1.244-1.148a4.247,4.247,0,0,0-2.379.745V-6.583a5.352,5.352,0,0,1,1.234-.41,6.486,6.486,0,0,1,1.425-.178,2.643,2.643,0,0,1,2.994,2.987Zm-2.03-2.844v-.472l-1.271.164q-1.053.137-1.053.95a.785.785,0,0,0,.256.6.985.985,0,0,0,.694.236,1.279,1.279,0,0,0,.991-.42A1.518,1.518,0,0,0,33.558-2.844ZM39.457,0H37.3V-10.363h2.16Zm3.979,0h-2.16V-10.363h2.16Z" transform="translate(1173.8 1231.885)" fill="#fff"/>
    <path id="Trazado_191638" data-name="Trazado 191638" d="M12.291,0H10.11V-5.865q0-.95.082-2.1h-.055a10.327,10.327,0,0,1-.308,1.3L7.533,0h-1.8L3.391-6.6a12.837,12.837,0,0,1-.308-1.367H3.021q.089,1.449.089,2.543V0H1.121V-9.8H4.354l2,5.811a8.181,8.181,0,0,1,.349,1.4h.041a14.111,14.111,0,0,1,.39-1.415l2-5.8h3.151Zm6.371.171A4.563,4.563,0,0,1,15.23-1.2,4.921,4.921,0,0,1,13.9-4.771a5.273,5.273,0,0,1,1.347-3.76,4.662,4.662,0,0,1,3.568-1.436,4.449,4.449,0,0,1,3.394,1.374,5.066,5.066,0,0,1,1.3,3.623,5.188,5.188,0,0,1-1.343,3.726A4.61,4.61,0,0,1,18.662.171Zm.1-8.237a2.223,2.223,0,0,0-1.846.872,3.634,3.634,0,0,0-.684,2.307,3.567,3.567,0,0,0,.684,2.3,2.19,2.19,0,0,0,1.791.848,2.212,2.212,0,0,0,1.812-.824,3.528,3.528,0,0,0,.67-2.287,3.823,3.823,0,0,0-.649-2.372A2.117,2.117,0,0,0,18.758-8.066ZM25.136,0V-9.8h3.473q5.223,0,5.223,4.778a4.832,4.832,0,0,1-1.425,3.657A5.256,5.256,0,0,1,28.608,0Zm2.208-8v6.214h1.094a2.956,2.956,0,0,0,2.252-.861A3.268,3.268,0,0,0,31.507-5a2.965,2.965,0,0,0-.81-2.2A3.088,3.088,0,0,0,28.424-8ZM41.337,0H35.458V-9.8h5.653V-8H37.666v2.181h3.206v1.791H37.666v2.242h3.671Z" transform="translate(1248.14 1258.075)" fill="#fff"/>
    <path id="Trazado_191639" data-name="Trazado 191639" d="M6.959,0H1.121V-9.8H3.329v8.012h3.63Z" transform="translate(1287.04 1258.075)" fill="#fff"/>
    <path id="Trazado_191640" data-name="Trazado 191640" d="M5.264.171A4.563,4.563,0,0,1,1.832-1.2,4.921,4.921,0,0,1,.506-4.771a5.273,5.273,0,0,1,1.347-3.76A4.662,4.662,0,0,1,5.421-9.967,4.449,4.449,0,0,1,8.815-8.593a5.066,5.066,0,0,1,1.3,3.623A5.188,5.188,0,0,1,8.767-1.244,4.61,4.61,0,0,1,5.264.171Zm.1-8.237a2.223,2.223,0,0,0-1.846.872A3.634,3.634,0,0,0,2.83-4.888a3.567,3.567,0,0,0,.684,2.3A2.19,2.19,0,0,0,5.3-1.736,2.212,2.212,0,0,0,7.116-2.56a3.528,3.528,0,0,0,.67-2.287,3.823,3.823,0,0,0-.649-2.372A2.117,2.117,0,0,0,5.359-8.066Z" transform="translate(1294.19 1258.075)" fill="#fff"/>
    <path id="Trazado_191641" data-name="Trazado 191641" d="M6.788-8H3.329V-5.6H6.508v1.791H3.329V0H1.121V-9.8H6.788Zm9.6,3.76q0,4.416-4.115,4.416-3.992,0-3.992-4.313V-9.8H10.5v5.688q0,2.379,1.859,2.379,1.825,0,1.825-2.3V-9.8h2.208ZM26.749,0H24.213L22.688-2.522q-.171-.287-.328-.513a2.848,2.848,0,0,0-.318-.386,1.264,1.264,0,0,0-.335-.246.85.85,0,0,0-.379-.085h-.595V0H18.525V-9.8h3.5q3.568,0,3.568,2.666a2.761,2.761,0,0,1-.157.947,2.63,2.63,0,0,1-.444.783,2.817,2.817,0,0,1-.694.6,3.578,3.578,0,0,1-.906.4v.027a1.4,1.4,0,0,1,.424.222,3.035,3.035,0,0,1,.4.359,5.007,5.007,0,0,1,.366.441q.174.236.318.461ZM20.733-8.148v2.728h.957a1.587,1.587,0,0,0,1.142-.41,1.369,1.369,0,0,0,.438-1.032q0-1.285-1.538-1.285Zm9.14,4.771V0H27.665V-9.8h3.459q3.705,0,3.705,3.124A3,3,0,0,1,33.766-4.29a4.211,4.211,0,0,1-2.84.913Zm0-4.73v3.056h.868Q32.5-5.052,32.5-6.6q0-1.511-1.764-1.511Zm5.94,7.731V-2.563a4.2,4.2,0,0,0,1.292.749,4.153,4.153,0,0,0,1.408.25,3.123,3.123,0,0,0,.728-.075,1.705,1.705,0,0,0,.52-.208.909.909,0,0,0,.311-.314.785.785,0,0,0,.1-.393.85.85,0,0,0-.164-.513,1.765,1.765,0,0,0-.448-.417,4.679,4.679,0,0,0-.673-.369q-.39-.178-.841-.362a4.291,4.291,0,0,1-1.712-1.169,2.552,2.552,0,0,1-.564-1.668,2.657,2.657,0,0,1,.308-1.316,2.613,2.613,0,0,1,.837-.906A3.755,3.755,0,0,1,38.145-9.8a6.3,6.3,0,0,1,1.477-.167,8.881,8.881,0,0,1,1.357.092,5.336,5.336,0,0,1,1.09.284v2.044a3.3,3.3,0,0,0-.537-.3,4.251,4.251,0,0,0-.6-.215,4.562,4.562,0,0,0-.612-.126,4.33,4.33,0,0,0-.578-.041,3.012,3.012,0,0,0-.684.072,1.753,1.753,0,0,0-.52.2,1,1,0,0,0-.328.311.737.737,0,0,0-.116.407.777.777,0,0,0,.13.441,1.49,1.49,0,0,0,.369.369,3.917,3.917,0,0,0,.581.342q.342.167.772.345a8.608,8.608,0,0,1,1.056.523,3.755,3.755,0,0,1,.8.625,2.437,2.437,0,0,1,.513.8A2.814,2.814,0,0,1,42.5-2.755a2.792,2.792,0,0,1-.311,1.377,2.525,2.525,0,0,1-.844.9,3.661,3.661,0,0,1-1.241.5,7.17,7.17,0,0,1-1.494.15A8.305,8.305,0,0,1,37.075.034,4.633,4.633,0,0,1,35.813-.376Z" transform="translate(1254.27 1274.875)" fill="#fff"/>
    <path id="Trazado_191642" data-name="Trazado 191642" d="M12.291,0H10.11V-5.865q0-.95.082-2.1h-.055a10.327,10.327,0,0,1-.308,1.3L7.533,0h-1.8L3.391-6.6a12.837,12.837,0,0,1-.308-1.367H3.021q.089,1.449.089,2.543V0H1.121V-9.8H4.354l2,5.811a8.181,8.181,0,0,1,.349,1.4h.041a14.111,14.111,0,0,1,.39-1.415l2-5.8h3.151Zm6.371.171A4.563,4.563,0,0,1,15.23-1.2,4.921,4.921,0,0,1,13.9-4.771a5.273,5.273,0,0,1,1.347-3.76,4.662,4.662,0,0,1,3.568-1.436,4.449,4.449,0,0,1,3.394,1.374,5.066,5.066,0,0,1,1.3,3.623,5.188,5.188,0,0,1-1.343,3.726A4.61,4.61,0,0,1,18.662.171Zm.1-8.237a2.223,2.223,0,0,0-1.846.872,3.634,3.634,0,0,0-.684,2.307,3.567,3.567,0,0,0,.684,2.3,2.19,2.19,0,0,0,1.791.848,2.212,2.212,0,0,0,1.812-.824,3.528,3.528,0,0,0,.67-2.287,3.823,3.823,0,0,0-.649-2.372A2.117,2.117,0,0,0,18.758-8.066ZM25.136,0V-9.8h3.473q5.223,0,5.223,4.778a4.832,4.832,0,0,1-1.425,3.657A5.256,5.256,0,0,1,28.608,0Zm2.208-8v6.214h1.094a2.956,2.956,0,0,0,2.252-.861A3.268,3.268,0,0,0,31.507-5a2.965,2.965,0,0,0-.81-2.2A3.088,3.088,0,0,0,28.424-8ZM41.337,0H35.458V-9.8h5.653V-8H37.666v2.181h3.206v1.791H37.666v2.242h3.671Z" transform="translate(1320.09 1297.045)" fill="#fff"/>
    <path id="Trazado_191643" data-name="Trazado 191643" d="M6.959,0H1.121V-9.8H3.329v8.012h3.63Z" transform="translate(1358.99 1297.045)" fill="#fff"/>
    <path id="Trazado_191644" data-name="Trazado 191644" d="M5.264.171A4.563,4.563,0,0,1,1.832-1.2,4.921,4.921,0,0,1,.506-4.771a5.273,5.273,0,0,1,1.347-3.76A4.662,4.662,0,0,1,5.421-9.967,4.449,4.449,0,0,1,8.815-8.593a5.066,5.066,0,0,1,1.3,3.623A5.188,5.188,0,0,1,8.767-1.244,4.61,4.61,0,0,1,5.264.171Zm.1-8.237a2.223,2.223,0,0,0-1.846.872A3.634,3.634,0,0,0,2.83-4.888a3.567,3.567,0,0,0,.684,2.3A2.19,2.19,0,0,0,5.3-1.736,2.212,2.212,0,0,0,7.116-2.56a3.528,3.528,0,0,0,.67-2.287,3.823,3.823,0,0,0-.649-2.372A2.117,2.117,0,0,0,5.359-8.066Z" transform="translate(1366.14 1297.045)" fill="#fff"/>
    <path id="Trazado_191645" data-name="Trazado 191645" d="M3.329,0H1.121V-9.8H3.329ZM5.106-.376V-2.563A4.2,4.2,0,0,0,6.4-1.815a4.153,4.153,0,0,0,1.408.25,3.123,3.123,0,0,0,.728-.075,1.705,1.705,0,0,0,.52-.208.909.909,0,0,0,.311-.314.785.785,0,0,0,.1-.393A.85.85,0,0,0,9.3-3.069a1.765,1.765,0,0,0-.448-.417,4.679,4.679,0,0,0-.673-.369q-.39-.178-.841-.362A4.291,4.291,0,0,1,5.629-5.387a2.552,2.552,0,0,1-.564-1.668,2.657,2.657,0,0,1,.308-1.316,2.613,2.613,0,0,1,.837-.906A3.755,3.755,0,0,1,7.438-9.8a6.3,6.3,0,0,1,1.477-.167,8.881,8.881,0,0,1,1.357.092,5.336,5.336,0,0,1,1.09.284v2.044a3.3,3.3,0,0,0-.537-.3,4.252,4.252,0,0,0-.6-.215,4.562,4.562,0,0,0-.612-.126,4.33,4.33,0,0,0-.578-.041,3.012,3.012,0,0,0-.684.072,1.753,1.753,0,0,0-.52.2,1,1,0,0,0-.328.311.737.737,0,0,0-.116.407.777.777,0,0,0,.13.441,1.49,1.49,0,0,0,.369.369,3.917,3.917,0,0,0,.581.342q.342.167.772.345a8.608,8.608,0,0,1,1.056.523,3.755,3.755,0,0,1,.8.625,2.437,2.437,0,0,1,.513.8,2.814,2.814,0,0,1,.178,1.042,2.792,2.792,0,0,1-.311,1.377,2.525,2.525,0,0,1-.844.9A3.661,3.661,0,0,1,9.4.021,7.17,7.17,0,0,1,7.9.171,8.305,8.305,0,0,1,6.368.034,4.633,4.633,0,0,1,5.106-.376ZM17.548.171A4.563,4.563,0,0,1,14.116-1.2,4.921,4.921,0,0,1,12.79-4.771a5.273,5.273,0,0,1,1.347-3.76,4.662,4.662,0,0,1,3.568-1.436A4.449,4.449,0,0,1,21.1-8.593a5.066,5.066,0,0,1,1.3,3.623,5.188,5.188,0,0,1-1.343,3.726A4.61,4.61,0,0,1,17.548.171Zm.1-8.237a2.223,2.223,0,0,0-1.846.872,3.634,3.634,0,0,0-.684,2.307,3.567,3.567,0,0,0,.684,2.3,2.19,2.19,0,0,0,1.791.848A2.212,2.212,0,0,0,19.4-2.56a3.528,3.528,0,0,0,.67-2.287,3.823,3.823,0,0,0-.649-2.372A2.117,2.117,0,0,0,17.644-8.066Zm16.55,2.693a8.7,8.7,0,0,1-.287,2.334,5.008,5.008,0,0,1-.837,1.74,3.7,3.7,0,0,1-1.343,1.09,4.115,4.115,0,0,1-1.8.379,5.109,5.109,0,0,1-2.071-.383V-1.989a3.319,3.319,0,0,0,1.859.506,2.14,2.14,0,0,0,1.743-.759,3.385,3.385,0,0,0,.636-2.194l-.041-.014a2.22,2.22,0,0,1-1.976.964,2.712,2.712,0,0,1-1.111-.226,2.669,2.669,0,0,1-.882-.625,2.859,2.859,0,0,1-.581-.954A3.427,3.427,0,0,1,27.3-6.508a3.778,3.778,0,0,1,.253-1.408,3.224,3.224,0,0,1,.708-1.094,3.122,3.122,0,0,1,1.09-.708,3.824,3.824,0,0,1,1.408-.25,3.224,3.224,0,0,1,1.436.311,3.016,3.016,0,0,1,1.083.9,4.2,4.2,0,0,1,.684,1.442A7.308,7.308,0,0,1,34.193-5.373ZM32.013-6.521a2.54,2.54,0,0,0-.1-.708A1.862,1.862,0,0,0,31.65-7.8a1.3,1.3,0,0,0-.417-.379,1.072,1.072,0,0,0-.54-.14,1.1,1.1,0,0,0-.516.123,1.258,1.258,0,0,0-.407.338,1.6,1.6,0,0,0-.267.516,2.131,2.131,0,0,0-.1.649,2.219,2.219,0,0,0,.1.68,1.453,1.453,0,0,0,.27.5,1.133,1.133,0,0,0,.42.311,1.369,1.369,0,0,0,.547.106,1.174,1.174,0,0,0,.52-.113,1.252,1.252,0,0,0,.4-.3,1.377,1.377,0,0,0,.26-.451A1.663,1.663,0,0,0,32.013-6.521Zm8.49-3.5V0H38.35V-7.588a2.579,2.579,0,0,1-.42.3,4.34,4.34,0,0,1-.516.253,4.608,4.608,0,0,1-.567.191,4.144,4.144,0,0,1-.581.113V-8.552a8.982,8.982,0,0,0,1.586-.629,9.025,9.025,0,0,0,1.347-.841Zm5.3,8.23h4.156V0H43.436V-.738a3.436,3.436,0,0,1,.253-1.35,4.48,4.48,0,0,1,.636-1.073A5.514,5.514,0,0,1,45.162-4q.455-.366.865-.66.431-.308.755-.588a4.3,4.3,0,0,0,.547-.557,2.118,2.118,0,0,0,.332-.561,1.667,1.667,0,0,0,.109-.6,1.216,1.216,0,0,0-.355-.95,1.58,1.58,0,0,0-1.087-.321,3.651,3.651,0,0,0-2.42,1v-1.9a5.2,5.2,0,0,1,2.885-.827,4.26,4.26,0,0,1,1.336.195,2.827,2.827,0,0,1,1,.557,2.376,2.376,0,0,1,.625.878,2.964,2.964,0,0,1,.215,1.152,3.248,3.248,0,0,1-.208,1.2,3.7,3.7,0,0,1-.554.957,5.023,5.023,0,0,1-.8.79q-.451.359-.937.694-.328.232-.632.461a6,6,0,0,0-.537.451,2.449,2.449,0,0,0-.369.434A.749.749,0,0,0,45.8-1.791Zm12.708-1.47a3.593,3.593,0,0,1-.253,1.354,3.3,3.3,0,0,1-.7,1.09,3.258,3.258,0,0,1-1.073.725,3.456,3.456,0,0,1-1.36.263,3.432,3.432,0,0,1-1.48-.308,2.987,2.987,0,0,1-1.1-.892,4.171,4.171,0,0,1-.69-1.432A7.077,7.077,0,0,1,51.6-4.382a7.909,7.909,0,0,1,.311-2.293,5.266,5.266,0,0,1,.889-1.76,3.992,3.992,0,0,1,1.4-1.131,4.157,4.157,0,0,1,1.846-.4,4.655,4.655,0,0,1,1.764.267v1.8a3.234,3.234,0,0,0-1.627-.424,2.273,2.273,0,0,0-.991.212,2.191,2.191,0,0,0-.762.6,2.909,2.909,0,0,0-.5.94,4.183,4.183,0,0,0-.195,1.227h.041A2.377,2.377,0,0,1,55.836-6.3a2.681,2.681,0,0,1,1.1.219,2.388,2.388,0,0,1,.841.619,2.838,2.838,0,0,1,.54.96A3.832,3.832,0,0,1,58.509-3.261ZM56.4-3.124Q56.4-4.7,55.1-4.7a1.268,1.268,0,0,0-.533.109,1.186,1.186,0,0,0-.41.308,1.4,1.4,0,0,0-.263.468,1.84,1.84,0,0,0-.092.6,2.313,2.313,0,0,0,.1.677,1.8,1.8,0,0,0,.27.55,1.337,1.337,0,0,0,.414.373,1.055,1.055,0,0,0,.533.137,1.154,1.154,0,0,0,.53-.12,1.186,1.186,0,0,0,.4-.335,1.54,1.54,0,0,0,.256-.52A2.37,2.37,0,0,0,56.4-3.124ZM67.484-9.8,64.292-3.486V0H62.084V-3.445L58.974-9.8H61.5l1.579,3.657q.041.1.226.8h.027a3.561,3.561,0,0,1,.212-.772L65.146-9.8Z" transform="translate(1314.63 1313.845)" fill="#fff"/>
    <path id="Trazado_191646" data-name="Trazado 191646" d="M2.933-1.791H7.089V0H.567V-.738A3.436,3.436,0,0,1,.82-2.088a4.48,4.48,0,0,1,.636-1.073A5.514,5.514,0,0,1,2.293-4q.455-.366.865-.66.431-.308.755-.588a4.3,4.3,0,0,0,.547-.557,2.118,2.118,0,0,0,.332-.561,1.667,1.667,0,0,0,.109-.6,1.216,1.216,0,0,0-.355-.95,1.58,1.58,0,0,0-1.087-.321,3.651,3.651,0,0,0-2.42,1v-1.9a5.2,5.2,0,0,1,2.885-.827,4.26,4.26,0,0,1,1.336.195,2.827,2.827,0,0,1,1,.557,2.376,2.376,0,0,1,.625.878A2.964,2.964,0,0,1,7.1-7.185a3.248,3.248,0,0,1-.208,1.2,3.7,3.7,0,0,1-.554.957,5.023,5.023,0,0,1-.8.79q-.451.359-.937.694-.328.232-.632.461a6,6,0,0,0-.537.451,2.449,2.449,0,0,0-.369.434A.749.749,0,0,0,2.933-1.791ZM9.023-.253V-2.1a4.03,4.03,0,0,0,2.14.615A2.01,2.01,0,0,0,12.5-1.89a1.369,1.369,0,0,0,.482-1.1q0-1.456-2.058-1.456a15.236,15.236,0,0,0-1.75.116L9.543-9.8h5.188v1.764H11.19l-.137,1.962q.526-.041.909-.041a3.343,3.343,0,0,1,2.365.793,2.769,2.769,0,0,1,.854,2.133A3.148,3.148,0,0,1,14.164-.769,3.914,3.914,0,0,1,11.4.171,5.91,5.91,0,0,1,9.023-.253ZM20.077.171q-3.5,0-3.5-4.915a6.688,6.688,0,0,1,.947-3.886,3.155,3.155,0,0,1,2.745-1.336q3.418,0,3.418,5a6.585,6.585,0,0,1-.933,3.814A3.074,3.074,0,0,1,20.077.171Zm.1-8.49q-1.4,0-1.4,3.521,0,3.315,1.374,3.315,1.34,0,1.34-3.418T20.173-8.319ZM28.13.171q-3.5,0-3.5-4.915a6.688,6.688,0,0,1,.947-3.886,3.155,3.155,0,0,1,2.745-1.336q3.418,0,3.418,5a6.585,6.585,0,0,1-.933,3.814A3.074,3.074,0,0,1,28.13.171Zm.1-8.49q-1.4,0-1.4,3.521,0,3.315,1.374,3.315,1.34,0,1.34-3.418T28.226-8.319ZM36.183.171q-3.5,0-3.5-4.915a6.688,6.688,0,0,1,.947-3.886,3.155,3.155,0,0,1,2.745-1.336q3.418,0,3.418,5a6.585,6.585,0,0,1-.933,3.814A3.074,3.074,0,0,1,36.183.171Zm.1-8.49q-1.4,0-1.4,3.521,0,3.315,1.374,3.315,1.34,0,1.34-3.418T36.278-8.319Z" transform="translate(1327.87 1330.645)" fill="#fff"/>
    <path id="Trazado_191647" data-name="Trazado 191647" d="M12.291,0H10.11V-5.865q0-.95.082-2.1h-.055a10.327,10.327,0,0,1-.308,1.3L7.533,0h-1.8L3.391-6.6a12.837,12.837,0,0,1-.308-1.367H3.021q.089,1.449.089,2.543V0H1.121V-9.8H4.354l2,5.811a8.181,8.181,0,0,1,.349,1.4h.041a14.111,14.111,0,0,1,.39-1.415l2-5.8h3.151Zm6.371.171A4.563,4.563,0,0,1,15.23-1.2,4.921,4.921,0,0,1,13.9-4.771a5.273,5.273,0,0,1,1.347-3.76,4.662,4.662,0,0,1,3.568-1.436,4.449,4.449,0,0,1,3.394,1.374,5.066,5.066,0,0,1,1.3,3.623,5.188,5.188,0,0,1-1.343,3.726A4.61,4.61,0,0,1,18.662.171Zm.1-8.237a2.223,2.223,0,0,0-1.846.872,3.634,3.634,0,0,0-.684,2.307,3.567,3.567,0,0,0,.684,2.3,2.19,2.19,0,0,0,1.791.848,2.212,2.212,0,0,0,1.812-.824,3.528,3.528,0,0,0,.67-2.287,3.823,3.823,0,0,0-.649-2.372A2.117,2.117,0,0,0,18.758-8.066ZM25.136,0V-9.8h3.473q5.223,0,5.223,4.778a4.832,4.832,0,0,1-1.425,3.657A5.256,5.256,0,0,1,28.608,0Zm2.208-8v6.214h1.094a2.956,2.956,0,0,0,2.252-.861A3.268,3.268,0,0,0,31.507-5a2.965,2.965,0,0,0-.81-2.2A3.088,3.088,0,0,0,28.424-8ZM41.337,0H35.458V-9.8h5.653V-8H37.666v2.181h3.206v1.791H37.666v2.242h3.671Z" transform="translate(1298.1 1172.815)" fill="#fff"/>
    <path id="Trazado_191648" data-name="Trazado 191648" d="M6.959,0H1.121V-9.8H3.329v8.012h3.63Z" transform="translate(1337 1172.815)" fill="#fff"/>
    <path id="Trazado_191649" data-name="Trazado 191649" d="M5.264.171A4.563,4.563,0,0,1,1.832-1.2,4.921,4.921,0,0,1,.506-4.771a5.273,5.273,0,0,1,1.347-3.76A4.662,4.662,0,0,1,5.421-9.967,4.449,4.449,0,0,1,8.815-8.593a5.066,5.066,0,0,1,1.3,3.623A5.188,5.188,0,0,1,8.767-1.244,4.61,4.61,0,0,1,5.264.171Zm.1-8.237a2.223,2.223,0,0,0-1.846.872A3.634,3.634,0,0,0,2.83-4.888a3.567,3.567,0,0,0,.684,2.3A2.19,2.19,0,0,0,5.3-1.736,2.212,2.212,0,0,0,7.116-2.56a3.528,3.528,0,0,0,.67-2.287,3.823,3.823,0,0,0-.649-2.372A2.117,2.117,0,0,0,5.359-8.066Z" transform="translate(1344.15 1172.815)" fill="#fff"/>
    <path id="Trazado_191650" data-name="Trazado 191650" d="M1.121,0V-9.8H4.689a4.456,4.456,0,0,1,2.522.6,1.935,1.935,0,0,1,.882,1.7,2.006,2.006,0,0,1-.537,1.388,2.819,2.819,0,0,1-1.371.827v.027a2.716,2.716,0,0,1,1.671.772,2.16,2.16,0,0,1,.625,1.565A2.616,2.616,0,0,1,7.52-.79,4.033,4.033,0,0,1,4.888,0ZM3.329-8.176v2.324H4.3a1.618,1.618,0,0,0,1.077-.332A1.13,1.13,0,0,0,5.77-7.1q0-1.08-1.613-1.08Zm0,3.965v2.584h1.2a1.841,1.841,0,0,0,1.2-.355,1.187,1.187,0,0,0,.434-.971,1.108,1.108,0,0,0-.427-.923,1.89,1.89,0,0,0-1.193-.335ZM14.239.171A4.563,4.563,0,0,1,10.808-1.2,4.921,4.921,0,0,1,9.481-4.771a5.273,5.273,0,0,1,1.347-3.76A4.662,4.662,0,0,1,14.4-9.967a4.449,4.449,0,0,1,3.394,1.374,5.066,5.066,0,0,1,1.3,3.623,5.188,5.188,0,0,1-1.343,3.726A4.61,4.61,0,0,1,14.239.171Zm.1-8.237a2.223,2.223,0,0,0-1.846.872,3.634,3.634,0,0,0-.684,2.307,3.567,3.567,0,0,0,.684,2.3,2.19,2.19,0,0,0,1.791.848,2.212,2.212,0,0,0,1.812-.824,3.528,3.528,0,0,0,.67-2.287,3.823,3.823,0,0,0-.649-2.372A2.117,2.117,0,0,0,14.335-8.066ZM26.592,0H20.713V-9.8h5.653V-8H22.921v2.181h3.206v1.791H22.921v2.242h3.671ZM36.647,0H34.433V-3.992H30.372V0H28.164V-9.8h2.208v3.91h4.061V-9.8h2.215ZM50.06,0H47.879V-5.865q0-.95.082-2.1h-.055a10.327,10.327,0,0,1-.308,1.3L45.3,0H43.5L41.159-6.6a12.837,12.837,0,0,1-.308-1.367H40.79q.089,1.449.089,2.543V0H38.89V-9.8h3.233l2,5.811a8.181,8.181,0,0,1,.349,1.4h.041a14.111,14.111,0,0,1,.39-1.415l2-5.8H50.06Z" transform="translate(1301.64 1189.615)" fill="#fff"/>
    <path id="Trazado_191651" data-name="Trazado 191651" d="M12.291,0H10.11V-5.865q0-.95.082-2.1h-.055a10.327,10.327,0,0,1-.308,1.3L7.533,0h-1.8L3.391-6.6a12.837,12.837,0,0,1-.308-1.367H3.021q.089,1.449.089,2.543V0H1.121V-9.8H4.354l2,5.811a8.181,8.181,0,0,1,.349,1.4h.041a14.111,14.111,0,0,1,.39-1.415l2-5.8h3.151Zm6.371.171A4.563,4.563,0,0,1,15.23-1.2,4.921,4.921,0,0,1,13.9-4.771a5.273,5.273,0,0,1,1.347-3.76,4.662,4.662,0,0,1,3.568-1.436,4.449,4.449,0,0,1,3.394,1.374,5.066,5.066,0,0,1,1.3,3.623,5.188,5.188,0,0,1-1.343,3.726A4.61,4.61,0,0,1,18.662.171Zm.1-8.237a2.223,2.223,0,0,0-1.846.872,3.634,3.634,0,0,0-.684,2.307,3.567,3.567,0,0,0,.684,2.3,2.19,2.19,0,0,0,1.791.848,2.212,2.212,0,0,0,1.812-.824,3.528,3.528,0,0,0,.67-2.287,3.823,3.823,0,0,0-.649-2.372A2.117,2.117,0,0,0,18.758-8.066ZM25.136,0V-9.8h3.473q5.223,0,5.223,4.778a4.832,4.832,0,0,1-1.425,3.657A5.256,5.256,0,0,1,28.608,0Zm2.208-8v6.214h1.094a2.956,2.956,0,0,0,2.252-.861A3.268,3.268,0,0,0,31.507-5a2.965,2.965,0,0,0-.81-2.2A3.088,3.088,0,0,0,28.424-8ZM41.337,0H35.458V-9.8h5.653V-8H37.666v2.181h3.206v1.791H37.666v2.242h3.671Z" transform="translate(1221.18 1127.495)" fill="#fff"/>
    <path id="Trazado_191652" data-name="Trazado 191652" d="M6.959,0H1.121V-9.8H3.329v8.012h3.63Z" transform="translate(1260.08 1127.495)" fill="#fff"/>
    <path id="Trazado_191653" data-name="Trazado 191653" d="M5.264.171A4.563,4.563,0,0,1,1.832-1.2,4.921,4.921,0,0,1,.506-4.771a5.273,5.273,0,0,1,1.347-3.76A4.662,4.662,0,0,1,5.421-9.967,4.449,4.449,0,0,1,8.815-8.593a5.066,5.066,0,0,1,1.3,3.623A5.188,5.188,0,0,1,8.767-1.244,4.61,4.61,0,0,1,5.264.171Zm.1-8.237a2.223,2.223,0,0,0-1.846.872A3.634,3.634,0,0,0,2.83-4.888a3.567,3.567,0,0,0,.684,2.3A2.19,2.19,0,0,0,5.3-1.736,2.212,2.212,0,0,0,7.116-2.56a3.528,3.528,0,0,0,.67-2.287,3.823,3.823,0,0,0-.649-2.372A2.117,2.117,0,0,0,5.359-8.066Z" transform="translate(1267.23 1127.495)" fill="#fff"/>
    <path id="Trazado_191654" data-name="Trazado 191654" d="M9.167-.656A7.055,7.055,0,0,1,5.6.171,5.161,5.161,0,0,1,1.87-1.138,4.763,4.763,0,0,1,.506-4.744,5.034,5.034,0,0,1,2-8.511,5.429,5.429,0,0,1,5.961-9.967a8.053,8.053,0,0,1,2.748.431v2.071a5.462,5.462,0,0,0-2.775-.656,2.98,2.98,0,0,0-2.239.892A3.277,3.277,0,0,0,2.83-4.847a3.287,3.287,0,0,0,.776,2.338,2.735,2.735,0,0,0,2.1.827,2.916,2.916,0,0,0,1.258-.226V-3.821H5V-5.585h4.17Zm6.05.827A4.563,4.563,0,0,1,11.785-1.2a4.921,4.921,0,0,1-1.326-3.572,5.273,5.273,0,0,1,1.347-3.76,4.662,4.662,0,0,1,3.568-1.436,4.449,4.449,0,0,1,3.394,1.374,5.066,5.066,0,0,1,1.3,3.623A5.188,5.188,0,0,1,18.72-1.244,4.61,4.61,0,0,1,15.217.171Zm.1-8.237a2.223,2.223,0,0,0-1.846.872,3.634,3.634,0,0,0-.684,2.307,3.567,3.567,0,0,0,.684,2.3,2.19,2.19,0,0,0,1.791.848,2.212,2.212,0,0,0,1.812-.824,3.528,3.528,0,0,0,.67-2.287,3.823,3.823,0,0,0-.649-2.372A2.117,2.117,0,0,0,15.313-8.066ZM32.86,0H30.68V-5.865q0-.95.082-2.1h-.055a10.326,10.326,0,0,1-.308,1.3L28.1,0H26.3L23.96-6.6a12.836,12.836,0,0,1-.308-1.367h-.062q.089,1.449.089,2.543V0H21.69V-9.8h3.233l2,5.811a8.181,8.181,0,0,1,.349,1.4h.041a14.111,14.111,0,0,1,.39-1.415l2-5.8H32.86Z" transform="translate(1233.3 1144.295)" fill="#fff"/>
    <path id="Trazado_191655" data-name="Trazado 191655" d="M3.31-3.358V0h-2.2V-9.747H4.554q3.684,0,3.684,3.106A2.98,2.98,0,0,1,7.181-4.265a4.187,4.187,0,0,1-2.824.907Zm0-4.7v3.038h.863q1.754,0,1.754-1.536,0-1.5-1.754-1.5ZM17.842,0H15.32L13.8-2.508q-.17-.285-.326-.51a2.832,2.832,0,0,0-.316-.384,1.257,1.257,0,0,0-.333-.245.845.845,0,0,0-.377-.085h-.591V0h-2.2V-9.747h3.48q3.548,0,3.548,2.651a2.745,2.745,0,0,1-.156.941,2.615,2.615,0,0,1-.442.778,2.8,2.8,0,0,1-.69.6,3.558,3.558,0,0,1-.9.394v.027a1.4,1.4,0,0,1,.421.221,3.018,3.018,0,0,1,.394.357,4.979,4.979,0,0,1,.364.438q.173.234.316.459ZM11.861-8.1V-5.39h.952A1.578,1.578,0,0,0,13.947-5.8a1.361,1.361,0,0,0,.435-1.026q0-1.278-1.529-1.278ZM24.6,0H18.753V-9.747h5.621v1.788H20.948v2.168h3.188V-4.01H20.948v2.229H24.6Zm1.115-.374V-2.549A4.179,4.179,0,0,0,27-1.8a4.129,4.129,0,0,0,1.4.248,3.1,3.1,0,0,0,.724-.075,1.7,1.7,0,0,0,.517-.207.9.9,0,0,0,.309-.313.78.78,0,0,0,.1-.391.845.845,0,0,0-.163-.51,1.755,1.755,0,0,0-.445-.415,4.652,4.652,0,0,0-.669-.367q-.387-.177-.836-.36a4.267,4.267,0,0,1-1.7-1.162,2.537,2.537,0,0,1-.561-1.658,2.641,2.641,0,0,1,.306-1.308,2.6,2.6,0,0,1,.833-.9,3.733,3.733,0,0,1,1.22-.52A6.269,6.269,0,0,1,29.5-9.91a8.83,8.83,0,0,1,1.349.092,5.306,5.306,0,0,1,1.084.282V-7.5a3.278,3.278,0,0,0-.534-.3,4.227,4.227,0,0,0-.595-.214,4.536,4.536,0,0,0-.608-.126,4.305,4.305,0,0,0-.574-.041,3,3,0,0,0-.68.071,1.743,1.743,0,0,0-.517.2A1,1,0,0,0,28.1-7.6a.733.733,0,0,0-.116.4.772.772,0,0,0,.129.438,1.481,1.481,0,0,0,.367.367,3.9,3.9,0,0,0,.578.34q.34.167.768.343a8.559,8.559,0,0,1,1.05.52,3.733,3.733,0,0,1,.8.622,2.423,2.423,0,0,1,.51.792,2.8,2.8,0,0,1,.177,1.037,2.776,2.776,0,0,1-.309,1.37,2.511,2.511,0,0,1-.839.9A3.64,3.64,0,0,1,29.978.02a7.129,7.129,0,0,1-1.485.15A8.258,8.258,0,0,1,26.967.034,4.606,4.606,0,0,1,25.713-.374ZM39.809,0H33.964V-9.747h5.621v1.788H36.159v2.168h3.188V-4.01H36.159v2.229h3.65ZM50.141,0H47.925L43.908-6.124a8.857,8.857,0,0,1-.489-.809h-.027q.054.517.054,1.577V0H41.373V-9.747h2.365l3.867,5.934q.265.4.489.8h.027a10.421,10.421,0,0,1-.054-1.339v-5.39h2.073Zm8.944-7.959H56.3V0H54.1V-7.959H51.336V-9.747h7.748ZM67.165,0H64.773l-.693-2.168H60.613L59.926,0H57.548L61.1-9.747h2.6ZM63.576-3.854,62.53-7.13a4.269,4.269,0,0,1-.163-.877h-.054a3.718,3.718,0,0,1-.17.85l-1.06,3.3ZM75.028-.347A6.427,6.427,0,0,1,72.241.17a4.7,4.7,0,0,1-3.528-1.319,4.82,4.82,0,0,1-1.285-3.514,5.15,5.15,0,0,1,1.444-3.793A5.052,5.052,0,0,1,72.622-9.91a7.01,7.01,0,0,1,2.406.36v2.114A4.263,4.263,0,0,0,72.8-8.02a2.957,2.957,0,0,0-2.216.863,3.2,3.2,0,0,0-.843,2.338,3.142,3.142,0,0,0,.8,2.253,2.809,2.809,0,0,0,2.141.839,4.567,4.567,0,0,0,2.352-.625ZM78.923,0h-2.2V-9.747h2.2Zm6.335.17a4.537,4.537,0,0,1-3.412-1.363,4.892,4.892,0,0,1-1.319-3.551,5.243,5.243,0,0,1,1.339-3.738A4.636,4.636,0,0,1,85.414-9.91a4.424,4.424,0,0,1,3.375,1.366,5.037,5.037,0,0,1,1.288,3.6,5.159,5.159,0,0,1-1.336,3.7A4.584,4.584,0,0,1,85.258.17Zm.1-8.19a2.21,2.21,0,0,0-1.835.867,3.613,3.613,0,0,0-.68,2.294,3.547,3.547,0,0,0,.68,2.291,2.178,2.178,0,0,0,1.781.843,2.2,2.2,0,0,0,1.8-.819,3.508,3.508,0,0,0,.666-2.274,3.8,3.8,0,0,0-.646-2.359A2.105,2.105,0,0,0,85.353-8.02Zm2.216-4.826-2.127,2.2h-1.55l1.767-2.2ZM100.455,0H98.24L94.223-6.124a8.857,8.857,0,0,1-.489-.809h-.027q.054.517.054,1.577V0H91.687V-9.747h2.365L97.92-3.813q.265.4.489.8h.027a10.422,10.422,0,0,1-.054-1.339v-5.39h2.073Z" transform="translate(1045.47 1312.515)" fill="#fff"/>
    <path id="Trazado_191656" data-name="Trazado 191656" d="M7.342,0H5.35l-1.2-1.982q-.134-.226-.258-.4a2.238,2.238,0,0,0-.25-.3.993.993,0,0,0-.263-.193.668.668,0,0,0-.3-.067H2.616V0H.881V-7.7h2.75q2.8,0,2.8,2.095a2.169,2.169,0,0,1-.124.744,2.067,2.067,0,0,1-.349.615,2.213,2.213,0,0,1-.545.473,2.812,2.812,0,0,1-.712.312v.021a1.1,1.1,0,0,1,.333.175,2.385,2.385,0,0,1,.312.282,3.934,3.934,0,0,1,.287.346q.137.185.25.363ZM2.616-6.4v2.143h.752a1.247,1.247,0,0,0,.9-.322,1.075,1.075,0,0,0,.344-.811Q4.608-6.4,3.4-6.4ZM12.681,0H8.062V-7.7H12.5V-6.29H9.8v1.713h2.519v1.407H9.8v1.762h2.884Zm5.688-6.29H15.651V-4.4h2.5v1.407h-2.5V0H13.917V-7.7h4.453ZM24.256,0H19.637V-7.7h4.442V-6.29H21.372v1.713h2.519v1.407H21.372v1.762h2.884Zm7.7,0H29.96l-1.2-1.982q-.134-.226-.258-.4a2.238,2.238,0,0,0-.25-.3.993.993,0,0,0-.263-.193.668.668,0,0,0-.3-.067h-.467V0H25.491V-7.7h2.75q2.8,0,2.8,2.095a2.169,2.169,0,0,1-.124.744,2.067,2.067,0,0,1-.349.615,2.213,2.213,0,0,1-.545.473,2.812,2.812,0,0,1-.712.312v.021a1.1,1.1,0,0,1,.333.175,2.385,2.385,0,0,1,.312.282,3.934,3.934,0,0,1,.287.346q.137.185.25.363ZM27.226-6.4v2.143h.752a1.247,1.247,0,0,0,.9-.322,1.075,1.075,0,0,0,.344-.811q0-1.01-1.208-1.01ZM37.292,0H32.672V-7.7h4.442V-6.29H34.407v1.713h2.519v1.407H34.407v1.762h2.884Zm8.164,0H43.7L40.53-4.839a7,7,0,0,1-.387-.639h-.021q.043.408.043,1.246V0H38.527V-7.7H40.4l3.056,4.689q.209.317.387.628h.021a8.235,8.235,0,0,1-.043-1.058V-7.7h1.638Zm7.283-.274a5.079,5.079,0,0,1-2.2.408A3.712,3.712,0,0,1,47.749-.908a3.809,3.809,0,0,1-1.015-2.777,4.069,4.069,0,0,1,1.141-3,3.992,3.992,0,0,1,2.962-1.149,5.54,5.54,0,0,1,1.9.285v1.67a3.369,3.369,0,0,0-1.762-.462,2.337,2.337,0,0,0-1.751.682,2.531,2.531,0,0,0-.666,1.848,2.483,2.483,0,0,0,.628,1.781,2.22,2.22,0,0,0,1.692.663,3.609,3.609,0,0,0,1.858-.494Z" transform="translate(1232.26 1351.755)" fill="#fff"/>
    <path id="Trazado_191657" data-name="Trazado 191657" d="M2.616,0H.881V-7.7H2.616Z" transform="translate(1285.85 1351.755)" fill="#fff"/>
    <path id="Trazado_191658" data-name="Trazado 191658" d="M7.654,0H5.763L5.215-1.713H2.476L1.934,0H.054l2.8-7.7H4.915ZM4.818-3.045,3.991-5.634a3.374,3.374,0,0,1-.129-.693H3.819a2.938,2.938,0,0,1-.134.671l-.838,2.61ZM8.261-.3V-2.014a3.3,3.3,0,0,0,1.015.588,3.263,3.263,0,0,0,1.106.2,2.454,2.454,0,0,0,.572-.059,1.34,1.34,0,0,0,.408-.164.714.714,0,0,0,.244-.247.616.616,0,0,0,.081-.309.668.668,0,0,0-.129-.4,1.387,1.387,0,0,0-.352-.328,3.676,3.676,0,0,0-.529-.29q-.306-.14-.661-.285a3.372,3.372,0,0,1-1.345-.918,2.005,2.005,0,0,1-.443-1.311A2.087,2.087,0,0,1,8.47-6.577a2.053,2.053,0,0,1,.658-.712,2.95,2.95,0,0,1,.964-.411,4.954,4.954,0,0,1,1.16-.132,6.978,6.978,0,0,1,1.066.073,4.193,4.193,0,0,1,.857.223V-5.93a2.59,2.59,0,0,0-.422-.236,3.341,3.341,0,0,0-.47-.169,3.585,3.585,0,0,0-.481-.1,3.4,3.4,0,0,0-.454-.032,2.367,2.367,0,0,0-.537.056,1.378,1.378,0,0,0-.408.158.788.788,0,0,0-.258.244.579.579,0,0,0-.091.32.61.61,0,0,0,.1.346,1.171,1.171,0,0,0,.29.29,3.078,3.078,0,0,0,.457.269q.269.132.607.271a6.763,6.763,0,0,1,.83.411,2.95,2.95,0,0,1,.631.491,1.914,1.914,0,0,1,.4.626,2.211,2.211,0,0,1,.14.819,2.194,2.194,0,0,1-.244,1.082,1.984,1.984,0,0,1-.663.709,2.876,2.876,0,0,1-.975.389,5.634,5.634,0,0,1-1.174.118A6.526,6.526,0,0,1,9.252.027,3.64,3.64,0,0,1,8.261-.3Z" transform="translate(1289.16 1351.755)" fill="#fff"/>
    <path id="Trazado_191659" data-name="Trazado 191659" d="M.881,0V-7.7h2.8a3.5,3.5,0,0,1,1.982.473A1.52,1.52,0,0,1,6.359-5.9a1.577,1.577,0,0,1-.422,1.09,2.215,2.215,0,0,1-1.077.65v.021a2.134,2.134,0,0,1,1.313.607A1.7,1.7,0,0,1,6.666-2.3,2.056,2.056,0,0,1,5.908-.62,3.169,3.169,0,0,1,3.84,0ZM2.616-6.424V-4.6h.763a1.271,1.271,0,0,0,.846-.26.888.888,0,0,0,.309-.717q0-.849-1.268-.849Zm0,3.115v2.03h.94A1.447,1.447,0,0,0,4.5-1.558a.933.933,0,0,0,.341-.763A.871.871,0,0,0,4.5-3.045a1.485,1.485,0,0,0-.937-.263ZM9.668,0H7.933V-7.7H9.668Zm1.751,0V-7.7h2.8a3.5,3.5,0,0,1,1.982.473A1.52,1.52,0,0,1,16.9-5.9a1.577,1.577,0,0,1-.422,1.09,2.215,2.215,0,0,1-1.077.65v.021a2.134,2.134,0,0,1,1.313.607A1.7,1.7,0,0,1,17.2-2.3,2.056,2.056,0,0,1,16.446-.62,3.169,3.169,0,0,1,14.378,0Zm1.735-6.424V-4.6h.763a1.271,1.271,0,0,0,.846-.26.888.888,0,0,0,.309-.717q0-.849-1.268-.849Zm0,3.115v2.03h.94a1.447,1.447,0,0,0,.943-.279.933.933,0,0,0,.341-.763.871.871,0,0,0-.336-.725,1.485,1.485,0,0,0-.937-.263ZM23.058,0H18.471V-7.7h1.735v6.295h2.852ZM25.83,0H24.095V-7.7H25.83Zm5.006.134a3.585,3.585,0,0,1-2.7-1.077A3.866,3.866,0,0,1,27.1-3.749,4.143,4.143,0,0,1,28.155-6.7a3.663,3.663,0,0,1,2.8-1.128,3.5,3.5,0,0,1,2.667,1.08A3.98,3.98,0,0,1,34.644-3.9,4.077,4.077,0,0,1,33.588-.978,3.622,3.622,0,0,1,30.835.134Zm.075-6.472a1.746,1.746,0,0,0-1.45.685,2.855,2.855,0,0,0-.537,1.813,2.8,2.8,0,0,0,.537,1.81,1.721,1.721,0,0,0,1.407.666,1.738,1.738,0,0,0,1.423-.647,2.772,2.772,0,0,0,.526-1.8,3,3,0,0,0-.51-1.864A1.664,1.664,0,0,0,30.911-6.338ZM42.244-.516a5.543,5.543,0,0,1-2.8.65A4.055,4.055,0,0,1,36.51-.894a3.742,3.742,0,0,1-1.072-2.833,3.955,3.955,0,0,1,1.171-2.959,4.266,4.266,0,0,1,3.115-1.144,6.328,6.328,0,0,1,2.159.338v1.627A4.291,4.291,0,0,0,39.7-6.381a2.341,2.341,0,0,0-1.759.7,2.575,2.575,0,0,0-.679,1.872,2.583,2.583,0,0,0,.61,1.837,2.149,2.149,0,0,0,1.646.65,2.291,2.291,0,0,0,.988-.177V-3H38.967V-4.388h3.276ZM50.2,0H48.211l-1.2-1.982q-.134-.226-.258-.4a2.238,2.238,0,0,0-.25-.3.993.993,0,0,0-.263-.193.668.668,0,0,0-.3-.067h-.467V0H43.742V-7.7h2.75q2.8,0,2.8,2.095a2.169,2.169,0,0,1-.124.744,2.067,2.067,0,0,1-.349.615,2.213,2.213,0,0,1-.545.473,2.812,2.812,0,0,1-.712.312v.021a1.1,1.1,0,0,1,.333.175,2.385,2.385,0,0,1,.312.282,3.934,3.934,0,0,1,.287.346q.137.185.25.363ZM45.477-6.4v2.143h.752a1.247,1.247,0,0,0,.9-.322,1.075,1.075,0,0,0,.344-.811q0-1.01-1.208-1.01ZM57.7,0H55.806l-.548-1.713H52.519L51.976,0H50.1l2.8-7.7h2.057ZM54.86-3.045l-.827-2.589a3.374,3.374,0,0,1-.129-.693h-.043a2.938,2.938,0,0,1-.134.671l-.838,2.61ZM63.11-6.29H60.393V-4.4h2.5v1.407h-2.5V0H58.658V-7.7H63.11Zm3,6.29H64.378V-7.7h1.735Zm7.272-.274a5.079,5.079,0,0,1-2.2.408A3.712,3.712,0,0,1,68.4-.908,3.809,3.809,0,0,1,67.38-3.685a4.069,4.069,0,0,1,1.141-3,3.992,3.992,0,0,1,2.962-1.149,5.54,5.54,0,0,1,1.9.285v1.67a3.369,3.369,0,0,0-1.762-.462,2.337,2.337,0,0,0-1.751.682,2.531,2.531,0,0,0-.666,1.848,2.483,2.483,0,0,0,.628,1.781,2.22,2.22,0,0,0,1.692.663,3.609,3.609,0,0,0,1.858-.494ZM81.5,0H79.61l-.548-1.713H76.323L75.781,0H73.9l2.8-7.7h2.057ZM78.665-3.045l-.827-2.589a3.373,3.373,0,0,1-.129-.693h-.043a2.938,2.938,0,0,1-.134.671l-.838,2.61ZM82.108-.3V-2.014a3.3,3.3,0,0,0,1.015.588,3.263,3.263,0,0,0,1.106.2,2.454,2.454,0,0,0,.572-.059,1.34,1.34,0,0,0,.408-.164.714.714,0,0,0,.244-.247.616.616,0,0,0,.081-.309.668.668,0,0,0-.129-.4,1.387,1.387,0,0,0-.352-.328,3.676,3.676,0,0,0-.529-.29q-.306-.14-.661-.285a3.372,3.372,0,0,1-1.345-.918,2.005,2.005,0,0,1-.443-1.311,2.087,2.087,0,0,1,.242-1.034,2.053,2.053,0,0,1,.658-.712,2.95,2.95,0,0,1,.964-.411,4.954,4.954,0,0,1,1.16-.132,6.978,6.978,0,0,1,1.066.073,4.193,4.193,0,0,1,.857.223V-5.93a2.59,2.59,0,0,0-.422-.236,3.341,3.341,0,0,0-.47-.169,3.585,3.585,0,0,0-.481-.1,3.4,3.4,0,0,0-.454-.032,2.367,2.367,0,0,0-.537.056,1.378,1.378,0,0,0-.408.158.788.788,0,0,0-.258.244.579.579,0,0,0-.091.32.61.61,0,0,0,.1.346,1.171,1.171,0,0,0,.29.29,3.078,3.078,0,0,0,.457.269q.269.132.607.271a6.763,6.763,0,0,1,.83.411,2.95,2.95,0,0,1,.631.491,1.915,1.915,0,0,1,.4.626,2.211,2.211,0,0,1,.14.819,2.194,2.194,0,0,1-.244,1.082,1.984,1.984,0,0,1-.663.709,2.876,2.876,0,0,1-.975.389A5.634,5.634,0,0,1,84.3.134,6.526,6.526,0,0,1,83.1.027,3.64,3.64,0,0,1,82.108-.3Z" transform="translate(1225.9 1364.955)" fill="#fff"/>
    <path id="Trazado_191660" data-name="Trazado 191660" d="M5,0A5,5,0,1,1,0,5,5,5,0,0,1,5,0Z" transform="translate(1086.66 1214.364)" fill="#7395cb"/>
    <path id="Trazado_191661" data-name="Trazado 191661" d="M5,0A5,5,0,1,1,0,5,5,5,0,0,1,5,0Z" transform="translate(1031.51 1214.364)" fill="#7395cb"/>
    <path id="Trazado_191662" data-name="Trazado 191662" d="M5,0A5,5,0,1,1,0,5,5,5,0,0,1,5,0Z" transform="translate(1112.62 1256.574)" fill="#7395cb"/>
    <path id="Trazado_191663" data-name="Trazado 191663" d="M5,0A5,5,0,1,1,0,5,5,5,0,0,1,5,0Z" transform="translate(1163.66 1257.895)" fill="#7395cb"/>
    <path id="Trazado_191664" data-name="Trazado 191664" d="M5,0A5,5,0,1,1,0,5,5,5,0,0,1,5,0Z" transform="translate(1009.03 1257.895)" fill="#7395cb"/>
    <path id="Trazado_191665" data-name="Trazado 191665" d="M5,0A5,5,0,1,1,0,5,5,5,0,0,1,5,0Z" transform="translate(1164.99 1167.255)" fill="#7395cb"/>
    <path id="Trazado_191666" data-name="Trazado 191666" d="M5,0A5,5,0,1,1,0,5,5,5,0,0,1,5,0Z" transform="translate(1190.63 1121.944)" fill="#7395cb"/>
    <path id="Trazado_191667" data-name="Trazado 191667" d="M5,0A5,5,0,1,1,0,5,5,5,0,0,1,5,0Z" transform="translate(1243.36 1212.574)" fill="#7395cb"/>
    <path id="Trazado_191668" data-name="Trazado 191668" d="M5,0A5,5,0,1,1,0,5,5,5,0,0,1,5,0Z" transform="translate(1320.95 1257.895)" fill="#7395cb"/>
    <path id="Trazado_191669" data-name="Trazado 191669" d="M5,0A5,5,0,1,1,0,5,5,5,0,0,1,5,0Z" transform="translate(1347.12 1212.574)" fill="#7395cb"/>
    <path id="Trazado_191670" data-name="Trazado 191670" d="M5,0A5,5,0,1,1,0,5,5,5,0,0,1,5,0Z" transform="translate(1320.95 1348.524)" fill="#7395cb"/>
    <path id="Trazado_191671" data-name="Trazado 191671" d="M5,0A5,5,0,1,1,0,5,5,5,0,0,1,5,0Z" transform="translate(1244.66 1305.175)" fill="#7395cb"/>
    <path id="Trazado_191672" data-name="Trazado 191672" d="M5,0A5,5,0,1,1,0,5,5,5,0,0,1,5,0Z" transform="translate(1191.04 1303.205)" fill="#7395cb"/>
    <path id="Trazado_191673" data-name="Trazado 191673" d="M5,0A5,5,0,1,1,0,5,5,5,0,0,1,5,0Z" transform="translate(1271 1166.664)" fill="#7395cb"/>
  </g>
</svg>
