<svg xmlns="http://www.w3.org/2000/svg" width="1242" height="674" viewBox="0 0 1242 674">
  <g id="Grupo_94300" data-name="Grupo 94300" transform="translate(-178 -1126)">
    <path id="Trazado_191762" data-name="Trazado 191762" d="M0,0H1242V674H0Z" transform="translate(178 1126)" fill="#f3f9ff"/>
    <path id="Trazado_191728" data-name="Trazado 191728" d="M8.051-11.268H3.129v4.359H7.682v1.327H3.129V0H1.652V-12.6h6.4ZM17.3-4.14H10.947a3.366,3.366,0,0,0,.809,2.32A2.788,2.788,0,0,0,13.882-1a4.422,4.422,0,0,0,2.795-1V-.65A5.224,5.224,0,0,1,13.54.211a3.8,3.8,0,0,1-3-1.226,5.018,5.018,0,0,1-1.09-3.45,4.921,4.921,0,0,1,1.191-3.423A3.819,3.819,0,0,1,13.6-9.211a3.384,3.384,0,0,1,2.733,1.143A4.764,4.764,0,0,1,17.3-4.9ZM15.825-5.361a2.933,2.933,0,0,0-.6-1.942A2.051,2.051,0,0,0,13.575-8a2.328,2.328,0,0,0-1.731.729,3.311,3.311,0,0,0-.879,1.907ZM25.616-.413a4.684,4.684,0,0,1-2.461.624,4.074,4.074,0,0,1-3.107-1.252,4.539,4.539,0,0,1-1.182-3.248A4.99,4.99,0,0,1,20.14-7.862a4.458,4.458,0,0,1,3.4-1.349,4.735,4.735,0,0,1,2.092.439v1.477A3.665,3.665,0,0,0,23.489-8a2.9,2.9,0,0,0-2.263.989,3.752,3.752,0,0,0-.883,2.6,3.573,3.573,0,0,0,.831,2.5A2.863,2.863,0,0,0,23.4-1a3.613,3.613,0,0,0,2.215-.782ZM35.266,0H33.825V-5.186Q33.825-8,31.733-8a2.28,2.28,0,0,0-1.775.813A3.03,3.03,0,0,0,29.237-5.1V0H27.8V-13.324h1.441v5.818h.035a3.273,3.273,0,0,1,2.953-1.705q3.041,0,3.041,3.665Zm9.158,0H42.983V-1.406h-.035A3.018,3.018,0,0,1,40.179.211a2.959,2.959,0,0,1-2.1-.712,2.466,2.466,0,0,1-.76-1.89q0-2.522,2.971-2.936l2.7-.378Q42.983-8,41.129-8a4.431,4.431,0,0,0-2.936,1.107V-8.367a5.577,5.577,0,0,1,3.059-.844q3.173,0,3.173,3.357ZM42.983-4.553l-2.171.3a3.525,3.525,0,0,0-1.512.5,1.432,1.432,0,0,0-.51,1.261,1.374,1.374,0,0,0,.47,1.077A1.817,1.817,0,0,0,40.513-1a2.314,2.314,0,0,0,1.771-.751,2.685,2.685,0,0,0,.7-1.9ZM3.129,38.436V43.2H1.652V30.6H5.115a4.571,4.571,0,0,1,3.133.984A3.515,3.515,0,0,1,9.36,34.358a3.82,3.82,0,0,1-1.235,2.936A4.718,4.718,0,0,1,4.79,38.436Zm0-6.5V37.1H4.676a3.458,3.458,0,0,0,2.333-.7,2.474,2.474,0,0,0,.8-1.973q0-2.5-2.953-2.5Zm13.1,3.727a1.763,1.763,0,0,0-1.09-.29,1.839,1.839,0,0,0-1.542.87,4.023,4.023,0,0,0-.62,2.373V43.2H11.54v-9h1.441v1.854h.035a3.143,3.143,0,0,1,.94-1.481,2.144,2.144,0,0,1,1.415-.532,2.353,2.353,0,0,1,.861.123Zm5.146,7.752a4.175,4.175,0,0,1-3.186-1.261A4.672,4.672,0,0,1,17,38.805a4.867,4.867,0,0,1,1.239-3.542,4.455,4.455,0,0,1,3.349-1.274,4.037,4.037,0,0,1,3.142,1.239,4.914,4.914,0,0,1,1.129,3.437,4.835,4.835,0,0,1-1.217,3.45A4.265,4.265,0,0,1,21.38,43.411Zm.105-8.209a2.742,2.742,0,0,0-2.2.945,3.88,3.88,0,0,0-.809,2.606,3.67,3.67,0,0,0,.817,2.522,2.778,2.778,0,0,0,2.188.923,2.635,2.635,0,0,0,2.149-.905,3.928,3.928,0,0,0,.751-2.575,4,4,0,0,0-.751-2.6A2.623,2.623,0,0,0,21.485,35.2Zm14.361,7.277q0,4.957-4.746,4.957a6.372,6.372,0,0,1-2.918-.633V45.362a5.993,5.993,0,0,0,2.9.844q3.322,0,3.322-3.533v-.984H34.37a3.641,3.641,0,0,1-5.8.523,4.8,4.8,0,0,1-1.024-3.221,5.6,5.6,0,0,1,1.1-3.647,3.685,3.685,0,0,1,3.019-1.354,2.934,2.934,0,0,1,2.7,1.459H34.4V34.2h1.441ZM34.4,39.131V37.8a2.575,2.575,0,0,0-.725-1.837,2.387,2.387,0,0,0-1.806-.765,2.5,2.5,0,0,0-2.092.971,4.335,4.335,0,0,0-.756,2.72,3.721,3.721,0,0,0,.725,2.4,2.343,2.343,0,0,0,1.92.9,2.509,2.509,0,0,0,1.973-.861A3.21,3.21,0,0,0,34.4,39.131Zm9.053-3.472a1.763,1.763,0,0,0-1.09-.29,1.839,1.839,0,0,0-1.542.87,4.023,4.023,0,0,0-.62,2.373V43.2H38.764v-9h1.441v1.854h.035a3.143,3.143,0,0,1,.94-1.481,2.144,2.144,0,0,1,1.415-.532,2.353,2.353,0,0,1,.861.123ZM51.1,43.2H49.663V41.794h-.035a3.018,3.018,0,0,1-2.769,1.617,2.959,2.959,0,0,1-2.1-.712,2.466,2.466,0,0,1-.76-1.89q0-2.522,2.971-2.936l2.7-.378q0-2.294-1.854-2.294a4.431,4.431,0,0,0-2.936,1.107V34.833a5.577,5.577,0,0,1,3.059-.844q3.173,0,3.173,3.357Zm-1.441-4.553-2.171.3a3.525,3.525,0,0,0-1.512.5,1.432,1.432,0,0,0-.51,1.261,1.374,1.374,0,0,0,.47,1.077,1.817,1.817,0,0,0,1.252.417,2.314,2.314,0,0,0,1.771-.751,2.685,2.685,0,0,0,.7-1.9ZM66.6,43.2H65.158V38.032A3.9,3.9,0,0,0,64.7,35.87a1.75,1.75,0,0,0-1.551-.668,1.921,1.921,0,0,0-1.569.844,3.228,3.228,0,0,0-.646,2.021V43.2H59.489V37.856q0-2.654-2.048-2.654a1.9,1.9,0,0,0-1.564.8,3.288,3.288,0,0,0-.615,2.07V43.2H53.82v-9h1.441v1.424H55.3a3.058,3.058,0,0,1,2.795-1.635,2.6,2.6,0,0,1,2.549,1.863,3.212,3.212,0,0,1,2.988-1.863q2.971,0,2.971,3.665Zm9.167,0H74.325V41.794H74.29a3.018,3.018,0,0,1-2.769,1.617,2.959,2.959,0,0,1-2.1-.712,2.466,2.466,0,0,1-.76-1.89q0-2.522,2.971-2.936l2.7-.378q0-2.294-1.854-2.294a4.431,4.431,0,0,0-2.936,1.107V34.833a5.577,5.577,0,0,1,3.059-.844q3.173,0,3.173,3.357Zm-1.441-4.553-2.171.3a3.525,3.525,0,0,0-1.512.5,1.432,1.432,0,0,0-.51,1.261,1.374,1.374,0,0,0,.47,1.077,1.817,1.817,0,0,0,1.252.417,2.314,2.314,0,0,0,1.771-.751,2.685,2.685,0,0,0,.7-1.9ZM92.2,34.13l-.2.932H89.706L89.152,37.7h2.47l-.237.932H88.968l-.773,3.489H87.087l.756-3.489h-2.2l-.738,3.489h-1.1l.738-3.489h-2.3l.176-.932h2.329l.536-2.637H82.851l.185-.932H85.47l.738-3.533h1.107l-.738,3.533h2.215l.756-3.533h1.081l-.738,3.533Zm-3.586.932H86.4l-.58,2.637h2.232Z" transform="translate(873.96 1211.311)" fill="#12263f"/>
    <path id="Trazado_191729" data-name="Trazado 191729" d="M8.728-10.292H4.28V-7.2H8.367v2.3H4.28V0H1.441V-12.6H8.728ZM14.638.22A4.838,4.838,0,0,1,11.1-1.042,4.573,4.573,0,0,1,9.813-4.465a4.573,4.573,0,0,1,1.336-3.494A5.048,5.048,0,0,1,14.761-9.22a4.78,4.78,0,0,1,3.516,1.261,4.483,4.483,0,0,1,1.274,3.335,4.759,4.759,0,0,1-1.314,3.542A4.892,4.892,0,0,1,14.638.22Zm.07-7.312a1.852,1.852,0,0,0-1.529.677A2.984,2.984,0,0,0,12.634-4.5q0,2.593,2.092,2.593,2,0,2-2.663Q16.721-7.093,14.709-7.093Zm12.516.6a2.409,2.409,0,0,0-1.169-.272A1.684,1.684,0,0,0,24.64-6.1a2.9,2.9,0,0,0-.51,1.806V0H21.353V-9h2.777v1.67h.035a2.4,2.4,0,0,1,2.373-1.828,1.788,1.788,0,0,1,.686.105ZM42.86,0H40.091V-5.133q0-1.96-1.441-1.96a1.324,1.324,0,0,0-1.116.589A2.42,2.42,0,0,0,37.1-5.036V0H34.326V-5.186q0-1.907-1.415-1.907a1.356,1.356,0,0,0-1.138.563A2.475,2.475,0,0,0,31.346-5V0H28.569V-9h2.777v1.406h.035A3.321,3.321,0,0,1,32.59-8.767a3.321,3.321,0,0,1,1.7-.453A2.592,2.592,0,0,1,36.9-7.541,3.329,3.329,0,0,1,39.924-9.22q2.936,0,2.936,3.621Zm9.686,0H49.918V-1.292h-.035A2.933,2.933,0,0,1,47.2.22a2.8,2.8,0,0,1-2.061-.743A2.661,2.661,0,0,1,44.389-2.5q0-2.619,3.1-3.023l2.443-.325q0-1.477-1.6-1.477a5.46,5.46,0,0,0-3.059.958V-8.464a6.881,6.881,0,0,1,1.586-.527A8.339,8.339,0,0,1,48.7-9.22q3.85,0,3.85,3.841Zm-2.61-3.656v-.606L48.3-4.052q-1.354.176-1.354,1.222a1.01,1.01,0,0,0,.33.778,1.266,1.266,0,0,0,.892.3,1.644,1.644,0,0,0,1.274-.541A1.952,1.952,0,0,0,49.935-3.656ZM60.183-.105A4.105,4.105,0,0,1,58.329.22q-2.936,0-2.936-3.05V-6.952H53.934V-9h1.459v-1.942l2.769-.791V-9h2.021v2.048H58.162v3.639q0,1.406,1.116,1.406a1.882,1.882,0,0,0,.905-.255Zm5.6.325a4.838,4.838,0,0,1-3.538-1.261,4.573,4.573,0,0,1-1.288-3.423A4.573,4.573,0,0,1,62.3-7.958,5.048,5.048,0,0,1,65.91-9.22a4.78,4.78,0,0,1,3.516,1.261A4.483,4.483,0,0,1,70.7-4.623a4.759,4.759,0,0,1-1.314,3.542A4.892,4.892,0,0,1,65.786.22Zm.07-7.312a1.852,1.852,0,0,0-1.529.677A2.984,2.984,0,0,0,63.783-4.5q0,2.593,2.092,2.593,2,0,2-2.663Q67.869-7.093,65.857-7.093ZM86.274,0H83.5V-1.239h-.035A3.114,3.114,0,0,1,80.675.22,3.412,3.412,0,0,1,77.959-.971,4.93,4.93,0,0,1,76.931-4.3a5.366,5.366,0,0,1,1.134-3.577A3.7,3.7,0,0,1,81.036-9.22a2.527,2.527,0,0,1,2.426,1.248H83.5v-5.353h2.777ZM83.549-4.377v-.677a2.13,2.13,0,0,0-.51-1.459,1.683,1.683,0,0,0-1.327-.58,1.673,1.673,0,0,0-1.441.725,3.367,3.367,0,0,0-.519,1.991,2.914,2.914,0,0,0,.5,1.828,1.663,1.663,0,0,0,1.389.642,1.67,1.67,0,0,0,1.375-.677A2.821,2.821,0,0,0,83.549-4.377ZM96.7-3.709H90.827q.141,1.96,2.47,1.96a4.822,4.822,0,0,0,2.61-.7v2A6.858,6.858,0,0,1,92.663.22,4.565,4.565,0,0,1,89.28-.989a4.566,4.566,0,0,1-1.2-3.371,4.816,4.816,0,0,1,1.3-3.551,4.334,4.334,0,0,1,3.2-1.31,3.933,3.933,0,0,1,3.045,1.169A4.5,4.5,0,0,1,96.7-4.878ZM94.122-5.414q0-1.934-1.564-1.934a1.494,1.494,0,0,0-1.156.554,2.513,2.513,0,0,0-.593,1.38Zm7,5.414H98.35V-13.324h2.777Zm18.149,0h-3.261l-1.96-3.243q-.22-.369-.422-.659a3.662,3.662,0,0,0-.409-.5,1.625,1.625,0,0,0-.431-.316,1.093,1.093,0,0,0-.488-.11h-.765V0H108.7V-12.6h4.5q4.588,0,4.588,3.428a3.55,3.55,0,0,1-.2,1.217,3.382,3.382,0,0,1-.571,1.006,3.621,3.621,0,0,1-.892.773,4.6,4.6,0,0,1-1.165.51v.035a1.806,1.806,0,0,1,.545.286,3.9,3.9,0,0,1,.51.461,6.438,6.438,0,0,1,.47.567q.224.3.409.593Zm-7.734-10.477V-6.97h1.23a2.04,2.04,0,0,0,1.468-.527,1.76,1.76,0,0,0,.563-1.327q0-1.652-1.978-1.652ZM127.82-3.709h-5.871q.141,1.96,2.47,1.96a4.822,4.822,0,0,0,2.61-.7v2a6.858,6.858,0,0,1-3.243.668A4.565,4.565,0,0,1,120.4-.989a4.566,4.566,0,0,1-1.2-3.371,4.816,4.816,0,0,1,1.3-3.551,4.334,4.334,0,0,1,3.2-1.31,3.933,3.933,0,0,1,3.045,1.169,4.5,4.5,0,0,1,1.077,3.173Zm-2.575-1.705q0-1.934-1.564-1.934a1.494,1.494,0,0,0-1.156.554,2.513,2.513,0,0,0-.593,1.38ZM138.3-1.028a5.092,5.092,0,0,1-1.45,3.88,5.877,5.877,0,0,1-4.2,1.375,6.659,6.659,0,0,1-2.883-.519V1.371a5.521,5.521,0,0,0,2.8.809,3.02,3.02,0,0,0,2.18-.743,2.665,2.665,0,0,0,.773-2.017v-.712h-.035A3.1,3.1,0,0,1,132.68.22a3.372,3.372,0,0,1-2.733-1.213,4.919,4.919,0,0,1-1.011-3.252,5.478,5.478,0,0,1,1.125-3.63,3.673,3.673,0,0,1,2.962-1.345,2.733,2.733,0,0,1,2.461,1.266h.035V-9H138.3Zm-2.742-3.3v-.712a2.188,2.188,0,0,0-.505-1.455,1.635,1.635,0,0,0-1.314-.6,1.7,1.7,0,0,0-1.45.721,3.389,3.389,0,0,0-.527,2.03,2.86,2.86,0,0,0,.5,1.78,1.633,1.633,0,0,0,1.371.655,1.7,1.7,0,0,0,1.393-.664A2.721,2.721,0,0,0,135.554-4.324Zm6.469-6.1a1.622,1.622,0,0,1-1.151-.417,1.345,1.345,0,0,1-.448-1.024,1.3,1.3,0,0,1,.448-1.02,1.676,1.676,0,0,1,1.151-.4,1.672,1.672,0,0,1,1.156.4,1.3,1.3,0,0,1,.444,1.02,1.34,1.34,0,0,1-.444,1.037A1.65,1.65,0,0,1,142.023-10.424ZM143.394,0h-2.777V-9h2.777Zm1.749-.237v-2.25a5.913,5.913,0,0,0,1.367.615,4.531,4.531,0,0,0,1.288.2,2.762,2.762,0,0,0,1.165-.2.653.653,0,0,0,.426-.615.569.569,0,0,0-.193-.439,1.8,1.8,0,0,0-.5-.308,5.635,5.635,0,0,0-.664-.237q-.36-.105-.694-.237a6.653,6.653,0,0,1-.945-.435,2.731,2.731,0,0,1-.686-.541,2.125,2.125,0,0,1-.422-.712,2.841,2.841,0,0,1-.145-.958,2.466,2.466,0,0,1,.33-1.3,2.692,2.692,0,0,1,.879-.892,4.016,4.016,0,0,1,1.257-.51,6.553,6.553,0,0,1,1.472-.163,8.168,8.168,0,0,1,1.213.092,9.053,9.053,0,0,1,1.213.268v2.145a4.383,4.383,0,0,0-1.129-.461,4.764,4.764,0,0,0-1.182-.154,2.619,2.619,0,0,0-.514.048,1.693,1.693,0,0,0-.426.141.783.783,0,0,0-.29.237.546.546,0,0,0-.105.33.609.609,0,0,0,.158.422,1.374,1.374,0,0,0,.413.3,4.078,4.078,0,0,0,.567.229q.312.1.62.207a8.056,8.056,0,0,1,1,.422,3.2,3.2,0,0,1,.769.536,2.105,2.105,0,0,1,.492.721,2.562,2.562,0,0,1,.171.984,2.568,2.568,0,0,1-.347,1.367,2.78,2.78,0,0,1-.923.923,4.185,4.185,0,0,1-1.327.519,7.357,7.357,0,0,1-1.56.163A8.042,8.042,0,0,1,145.143-.237Zm13.948.132a4.105,4.105,0,0,1-1.854.325Q154.3.22,154.3-2.83V-6.952h-1.459V-9H154.3v-1.942l2.769-.791V-9h2.021v2.048H157.07v3.639q0,1.406,1.116,1.406a1.882,1.882,0,0,0,.905-.255Zm7.436-6.39a2.409,2.409,0,0,0-1.169-.272,1.684,1.684,0,0,0-1.415.664,2.9,2.9,0,0,0-.51,1.806V0h-2.777V-9h2.777v1.67h.035a2.4,2.4,0,0,1,2.373-1.828,1.788,1.788,0,0,1,.686.105ZM171.677.22a4.838,4.838,0,0,1-3.538-1.261,4.573,4.573,0,0,1-1.288-3.423,4.573,4.573,0,0,1,1.336-3.494A5.048,5.048,0,0,1,171.8-9.22a4.78,4.78,0,0,1,3.516,1.261,4.483,4.483,0,0,1,1.274,3.335,4.759,4.759,0,0,1-1.314,3.542A4.892,4.892,0,0,1,171.677.22Zm.07-7.312a1.852,1.852,0,0,0-1.529.677,2.984,2.984,0,0,0-.545,1.916q0,2.593,2.092,2.593,2,0,2-2.663Q173.76-7.093,171.748-7.093ZM192.165,0h-2.777V-1.239h-.035A3.114,3.114,0,0,1,186.566.22,3.412,3.412,0,0,1,183.85-.971,4.93,4.93,0,0,1,182.822-4.3a5.366,5.366,0,0,1,1.134-3.577,3.7,3.7,0,0,1,2.971-1.345,2.527,2.527,0,0,1,2.426,1.248h.035v-5.353h2.777ZM189.44-4.377v-.677a2.13,2.13,0,0,0-.51-1.459,1.683,1.683,0,0,0-1.327-.58,1.673,1.673,0,0,0-1.441.725,3.367,3.367,0,0,0-.519,1.991,2.914,2.914,0,0,0,.5,1.828,1.663,1.663,0,0,0,1.389.642,1.67,1.67,0,0,0,1.375-.677A2.821,2.821,0,0,0,189.44-4.377Zm13.148.668h-5.871q.141,1.96,2.47,1.96a4.822,4.822,0,0,0,2.61-.7v2a6.858,6.858,0,0,1-3.243.668,4.565,4.565,0,0,1-3.384-1.208,4.566,4.566,0,0,1-1.2-3.371,4.816,4.816,0,0,1,1.3-3.551,4.334,4.334,0,0,1,3.2-1.31,3.933,3.933,0,0,1,3.045,1.169,4.5,4.5,0,0,1,1.077,3.173Zm-2.575-1.705q0-1.934-1.564-1.934a1.494,1.494,0,0,0-1.156.554,2.513,2.513,0,0,0-.593,1.38Zm18.316-4.878h-3.595V0h-2.848V-10.292H208.31V-12.6h10.02Zm2.83-.132a1.622,1.622,0,0,1-1.151-.417,1.345,1.345,0,0,1-.448-1.024,1.3,1.3,0,0,1,.448-1.02,1.676,1.676,0,0,1,1.151-.4,1.672,1.672,0,0,1,1.156.4,1.3,1.3,0,0,1,.444,1.02,1.34,1.34,0,0,1-.444,1.037A1.65,1.65,0,0,1,221.16-10.424ZM222.531,0h-2.777V-9h2.777Zm10.424-3.709h-5.871q.141,1.96,2.47,1.96a4.822,4.822,0,0,0,2.61-.7v2a6.858,6.858,0,0,1-3.243.668,4.565,4.565,0,0,1-3.384-1.208,4.566,4.566,0,0,1-1.2-3.371,4.816,4.816,0,0,1,1.3-3.551,4.334,4.334,0,0,1,3.2-1.31,3.933,3.933,0,0,1,3.045,1.169,4.5,4.5,0,0,1,1.077,3.173ZM230.38-5.414q0-1.934-1.564-1.934a1.494,1.494,0,0,0-1.156.554,2.513,2.513,0,0,0-.593,1.38ZM248.9,0H246.13V-5.133q0-1.96-1.441-1.96a1.324,1.324,0,0,0-1.116.589,2.42,2.42,0,0,0-.431,1.468V0h-2.777V-5.186q0-1.907-1.415-1.907a1.356,1.356,0,0,0-1.138.563A2.475,2.475,0,0,0,237.384-5V0h-2.777V-9h2.777v1.406h.035a3.321,3.321,0,0,1,1.208-1.173,3.321,3.321,0,0,1,1.7-.453,2.592,2.592,0,0,1,2.61,1.679,3.329,3.329,0,0,1,3.023-1.679q2.936,0,2.936,3.621Zm5.01-1.046h-.035V4.14H251.1V-9h2.777v1.354h.035A3.265,3.265,0,0,1,256.8-9.22a3.253,3.253,0,0,1,2.7,1.2,5.108,5.108,0,0,1,.954,3.265,5.537,5.537,0,0,1-1.112,3.612A3.625,3.625,0,0,1,256.386.22,2.8,2.8,0,0,1,253.908-1.046Zm-.079-3.691v.721a2.291,2.291,0,0,0,.492,1.521,1.6,1.6,0,0,0,1.292.589,1.7,1.7,0,0,0,1.472-.734,3.543,3.543,0,0,0,.523-2.079q0-2.373-1.846-2.373a1.733,1.733,0,0,0-1.393.646A2.576,2.576,0,0,0,253.829-4.737ZM266.547.22a4.838,4.838,0,0,1-3.538-1.261,4.573,4.573,0,0,1-1.288-3.423,4.573,4.573,0,0,1,1.336-3.494A5.048,5.048,0,0,1,266.67-9.22a4.78,4.78,0,0,1,3.516,1.261,4.483,4.483,0,0,1,1.274,3.335,4.759,4.759,0,0,1-1.314,3.542A4.892,4.892,0,0,1,266.547.22Zm.07-7.312a1.852,1.852,0,0,0-1.529.677,2.984,2.984,0,0,0-.545,1.916q0,2.593,2.092,2.593,2,0,2-2.663Q268.63-7.093,266.617-7.093ZM8.332,43.2H1.652V30.6h6.4v1.336H3.129v4.192H7.682v1.327H3.129v4.412h5.2Zm1.688-.325V41.328a4.266,4.266,0,0,0,2.593.87q1.9,0,1.9-1.266a1.1,1.1,0,0,0-.163-.611,1.62,1.62,0,0,0-.439-.444,3.383,3.383,0,0,0-.65-.347q-.374-.154-.8-.321a10.357,10.357,0,0,1-1.05-.479,3.173,3.173,0,0,1-.756-.545,2.028,2.028,0,0,1-.457-.69,2.441,2.441,0,0,1-.154-.905,2.15,2.15,0,0,1,.29-1.121,2.572,2.572,0,0,1,.773-.817,3.607,3.607,0,0,1,1.1-.5,4.893,4.893,0,0,1,1.279-.167,5.164,5.164,0,0,1,2.092.4v1.459a4.077,4.077,0,0,0-2.285-.65,2.671,2.671,0,0,0-.729.092,1.786,1.786,0,0,0-.558.259,1.2,1.2,0,0,0-.36.4,1.053,1.053,0,0,0-.127.514,1.233,1.233,0,0,0,.127.589,1.3,1.3,0,0,0,.374.422,2.855,2.855,0,0,0,.6.334q.352.149.8.325a11.131,11.131,0,0,1,1.072.47,3.678,3.678,0,0,1,.809.545,2.129,2.129,0,0,1,.514.7,2.254,2.254,0,0,1,.18.94,2.217,2.217,0,0,1-.294,1.16,2.523,2.523,0,0,1-.787.817,3.6,3.6,0,0,1-1.134.483,5.6,5.6,0,0,1-1.345.158A5.106,5.106,0,0,1,10.02,42.875Zm12.357.237a2.779,2.779,0,0,1-1.345.281q-2.364,0-2.364-2.637V35.43H17.121V34.2h1.547V32l1.441-.466V34.2h2.268v1.23H20.109V40.5a2.1,2.1,0,0,0,.308,1.292,1.228,1.228,0,0,0,1.02.387,1.515,1.515,0,0,0,.94-.3Zm9.2.088H30.138V41.776H30.1a2.96,2.96,0,0,1-2.777,1.635q-3.217,0-3.217-3.832V34.2h1.433v5.15q0,2.848,2.18,2.848a2.205,2.205,0,0,0,1.736-.778,2.976,2.976,0,0,0,.681-2.035V34.2h1.441Zm10.591,0H40.729V41.671h-.035a3.327,3.327,0,0,1-3.094,1.74A3.362,3.362,0,0,1,34.888,42.2a4.958,4.958,0,0,1-1.015-3.292A5.394,5.394,0,0,1,35,35.334a3.71,3.71,0,0,1,3-1.345,2.885,2.885,0,0,1,2.7,1.459h.035V29.876H42.17Zm-1.441-4.069V37.8a2.575,2.575,0,0,0-.721-1.846A2.417,2.417,0,0,0,38.18,35.2a2.489,2.489,0,0,0-2.074.967,4.237,4.237,0,0,0-.756,2.672,3.81,3.81,0,0,0,.725,2.457,2.37,2.37,0,0,0,1.947.9,2.462,2.462,0,0,0,1.956-.87A3.242,3.242,0,0,0,40.729,39.131Zm5.1-7.216a.913.913,0,0,1-.659-.264.89.89,0,0,1-.272-.668.923.923,0,0,1,.932-.94.931.931,0,0,1,.672.268.939.939,0,0,1,0,1.332A.923.923,0,0,1,45.826,31.915Zm.7,11.285H45.088v-9h1.441Zm9.36,0H54.448V41.794h-.035a3.018,3.018,0,0,1-2.769,1.617,2.959,2.959,0,0,1-2.1-.712,2.466,2.466,0,0,1-.76-1.89q0-2.522,2.971-2.936l2.7-.378q0-2.294-1.854-2.294a4.431,4.431,0,0,0-2.936,1.107V34.833a5.577,5.577,0,0,1,3.059-.844q3.173,0,3.173,3.357Zm-1.441-4.553-2.171.3a3.525,3.525,0,0,0-1.512.5,1.432,1.432,0,0,0-.51,1.261,1.374,1.374,0,0,0,.47,1.077,1.817,1.817,0,0,0,1.252.417,2.314,2.314,0,0,0,1.771-.751,2.685,2.685,0,0,0,.7-1.9ZM66.076,43.2H64.635V38.067q0-2.865-2.092-2.865a2.269,2.269,0,0,0-1.789.813,3.013,3.013,0,0,0-.708,2.052V43.2H58.605v-9h1.441v1.494h.035a3.248,3.248,0,0,1,2.953-1.705,2.753,2.753,0,0,1,2.259.954,4.248,4.248,0,0,1,.782,2.755Zm6.891-.088a2.779,2.779,0,0,1-1.345.281q-2.364,0-2.364-2.637V35.43H67.711V34.2h1.547V32l1.441-.466V34.2h2.268v1.23H70.7V40.5a2.1,2.1,0,0,0,.308,1.292,1.228,1.228,0,0,0,1.02.387,1.515,1.515,0,0,0,.94-.3Zm9.158-4.052H75.771a3.366,3.366,0,0,0,.809,2.32,2.788,2.788,0,0,0,2.127.817,4.422,4.422,0,0,0,2.795-1V42.55a5.224,5.224,0,0,1-3.138.861,3.8,3.8,0,0,1-3-1.226,5.018,5.018,0,0,1-1.09-3.45,4.921,4.921,0,0,1,1.191-3.423,3.819,3.819,0,0,1,2.958-1.323,3.384,3.384,0,0,1,2.733,1.143,4.764,4.764,0,0,1,.967,3.173Zm-1.477-1.222a2.933,2.933,0,0,0-.6-1.942A2.051,2.051,0,0,0,78.4,35.2a2.328,2.328,0,0,0-1.731.729,3.31,3.31,0,0,0-.879,1.907ZM3.129,86.4H1.652V73.8H3.129Zm10.591,0H12.278V81.267q0-2.865-2.092-2.865a2.269,2.269,0,0,0-1.789.813,3.013,3.013,0,0,0-.708,2.052V86.4H6.249v-9H7.69v1.494h.035a3.248,3.248,0,0,1,2.953-1.705,2.753,2.753,0,0,1,2.259.954A4.248,4.248,0,0,1,13.72,80.9Zm2.171-.325V84.528a4.266,4.266,0,0,0,2.593.87q1.9,0,1.9-1.266a1.1,1.1,0,0,0-.163-.611,1.62,1.62,0,0,0-.439-.444,3.383,3.383,0,0,0-.65-.347q-.374-.154-.8-.321a10.357,10.357,0,0,1-1.05-.479,3.173,3.173,0,0,1-.756-.545,2.028,2.028,0,0,1-.457-.69,2.441,2.441,0,0,1-.154-.905,2.15,2.15,0,0,1,.29-1.121,2.572,2.572,0,0,1,.773-.817,3.607,3.607,0,0,1,1.1-.5,4.893,4.893,0,0,1,1.279-.167,5.164,5.164,0,0,1,2.092.4v1.459a4.077,4.077,0,0,0-2.285-.65,2.671,2.671,0,0,0-.729.092,1.786,1.786,0,0,0-.558.259,1.2,1.2,0,0,0-.36.4,1.053,1.053,0,0,0-.127.514,1.233,1.233,0,0,0,.127.589,1.3,1.3,0,0,0,.374.422,2.855,2.855,0,0,0,.6.334q.352.149.8.325a11.131,11.131,0,0,1,1.072.47,3.678,3.678,0,0,1,.809.545,2.129,2.129,0,0,1,.514.7,2.254,2.254,0,0,1,.18.94,2.217,2.217,0,0,1-.294,1.16,2.523,2.523,0,0,1-.787.817,3.6,3.6,0,0,1-1.134.483,5.6,5.6,0,0,1-1.345.158A5.106,5.106,0,0,1,15.891,86.075Zm12.357.237a2.779,2.779,0,0,1-1.345.281q-2.364,0-2.364-2.637V78.63H22.992V77.4h1.547V75.2l1.441-.466V77.4h2.268v1.23H25.98V83.7a2.1,2.1,0,0,0,.308,1.292,1.228,1.228,0,0,0,1.02.387,1.515,1.515,0,0,0,.94-.3Zm6.618-7.453a1.763,1.763,0,0,0-1.09-.29,1.839,1.839,0,0,0-1.542.87,4.023,4.023,0,0,0-.62,2.373V86.4H30.173v-9h1.441v1.854h.035a3.143,3.143,0,0,1,.94-1.481A2.144,2.144,0,0,1,34,77.242a2.353,2.353,0,0,1,.861.123ZM43.708,86.4H42.267V84.976h-.035a2.96,2.96,0,0,1-2.777,1.635q-3.217,0-3.217-3.832V77.4H37.67v5.15q0,2.848,2.18,2.848a2.205,2.205,0,0,0,1.736-.778,2.976,2.976,0,0,0,.681-2.035V77.4h1.441Zm9.044-.413a4.684,4.684,0,0,1-2.461.624,4.074,4.074,0,0,1-3.107-1.252A4.539,4.539,0,0,1,46,82.111a4.99,4.99,0,0,1,1.274-3.573,4.458,4.458,0,0,1,3.4-1.349,4.735,4.735,0,0,1,2.092.439v1.477a3.665,3.665,0,0,0-2.145-.7,2.9,2.9,0,0,0-2.263.989,3.752,3.752,0,0,0-.883,2.6,3.573,3.573,0,0,0,.831,2.5,2.863,2.863,0,0,0,2.228.914,3.613,3.613,0,0,0,2.215-.782Zm6.354.325a2.779,2.779,0,0,1-1.345.281q-2.364,0-2.364-2.637V78.63H53.851V77.4H55.4V75.2l1.441-.466V77.4h2.268v1.23H56.839V83.7a2.1,2.1,0,0,0,.308,1.292,1.228,1.228,0,0,0,1.02.387,1.515,1.515,0,0,0,.94-.3Zm5.507.3a4.175,4.175,0,0,1-3.186-1.261,4.672,4.672,0,0,1-1.191-3.344,4.867,4.867,0,0,1,1.239-3.542,4.455,4.455,0,0,1,3.349-1.274,4.037,4.037,0,0,1,3.142,1.239A4.914,4.914,0,0,1,69.1,81.865a4.835,4.835,0,0,1-1.217,3.45A4.265,4.265,0,0,1,64.613,86.611Zm.105-8.209a2.742,2.742,0,0,0-2.2.945,3.88,3.88,0,0,0-.809,2.606,3.67,3.67,0,0,0,.817,2.522,2.778,2.778,0,0,0,2.188.923,2.635,2.635,0,0,0,2.149-.905,3.928,3.928,0,0,0,.751-2.575,4,4,0,0,0-.751-2.6A2.623,2.623,0,0,0,64.718,78.4Zm11.373.457a1.763,1.763,0,0,0-1.09-.29,1.839,1.839,0,0,0-1.542.87,4.023,4.023,0,0,0-.62,2.373V86.4H71.4v-9H72.84v1.854h.035a3.143,3.143,0,0,1,.94-1.481,2.144,2.144,0,0,1,1.415-.532,2.353,2.353,0,0,1,.861.123Z" transform="translate(227.75 1167)" fill="#12263f"/>
    <path id="Trazado_191730" data-name="Trazado 191730" d="M8.728-10.292H4.28V-7.2H8.367v2.3H4.28V0H1.441V-12.6H8.728Zm9.708,6.583H12.564q.141,1.96,2.47,1.96a4.822,4.822,0,0,0,2.61-.7v2A6.858,6.858,0,0,1,14.4.22,4.565,4.565,0,0,1,11.017-.989a4.566,4.566,0,0,1-1.2-3.371,4.816,4.816,0,0,1,1.3-3.551,4.334,4.334,0,0,1,3.2-1.31,3.933,3.933,0,0,1,3.045,1.169,4.5,4.5,0,0,1,1.077,3.173ZM15.86-5.414q0-1.934-1.564-1.934a1.494,1.494,0,0,0-1.156.554,2.513,2.513,0,0,0-.593,1.38ZM26.908-.325A5.492,5.492,0,0,1,24.192.22a4.593,4.593,0,0,1-3.357-1.257A4.341,4.341,0,0,1,19.551-4.28,4.782,4.782,0,0,1,20.927-7.9,5.083,5.083,0,0,1,24.605-9.22a4.72,4.72,0,0,1,2.3.422v2.355a3.166,3.166,0,0,0-1.942-.65,2.559,2.559,0,0,0-1.894.7,2.607,2.607,0,0,0-.7,1.929,2.565,2.565,0,0,0,.668,1.876,2.455,2.455,0,0,0,1.837.681,3.666,3.666,0,0,0,2.03-.65ZM37.367,0H34.6V-5.115q0-1.978-1.441-1.978a1.476,1.476,0,0,0-1.2.554A2.136,2.136,0,0,0,31.5-5.133V0H28.727V-13.324H31.5v5.66h.035A3.156,3.156,0,0,1,34.308-9.22q3.059,0,3.059,3.691Zm9.686,0H44.424V-1.292h-.035A2.933,2.933,0,0,1,41.709.22a2.8,2.8,0,0,1-2.061-.743A2.661,2.661,0,0,1,38.9-2.5q0-2.619,3.1-3.023l2.443-.325q0-1.477-1.6-1.477a5.46,5.46,0,0,0-3.059.958V-8.464a6.881,6.881,0,0,1,1.586-.527A8.339,8.339,0,0,1,43.2-9.22q3.85,0,3.85,3.841Zm-2.61-3.656v-.606l-1.635.211q-1.354.176-1.354,1.222a1.01,1.01,0,0,0,.33.778,1.266,1.266,0,0,0,.892.3A1.644,1.644,0,0,0,43.95-2.29,1.952,1.952,0,0,0,44.442-3.656Z" transform="translate(245.39 1310.29)" fill="#12263f"/>
    <path id="Trazado_191731" data-name="Trazado 191731" d="M4.28,0H1.441V-12.6H4.28ZM15.565,0H12.8V-5q0-2.092-1.494-2.092a1.483,1.483,0,0,0-1.187.554A2.109,2.109,0,0,0,9.65-5.133V0H6.873V-9H9.65v1.424h.035A3.183,3.183,0,0,1,12.577-9.22q2.988,0,2.988,3.709Zm3.6-10.424a1.622,1.622,0,0,1-1.151-.417,1.345,1.345,0,0,1-.448-1.024,1.3,1.3,0,0,1,.448-1.02,1.676,1.676,0,0,1,1.151-.4,1.672,1.672,0,0,1,1.156.4,1.3,1.3,0,0,1,.444,1.02,1.34,1.34,0,0,1-.444,1.037A1.65,1.65,0,0,1,19.169-10.424ZM20.54,0H17.763V-9H20.54ZM29.7-.325A5.492,5.492,0,0,1,26.982.22a4.593,4.593,0,0,1-3.357-1.257A4.341,4.341,0,0,1,22.342-4.28,4.782,4.782,0,0,1,23.717-7.9,5.083,5.083,0,0,1,27.4-9.22a4.72,4.72,0,0,1,2.3.422v2.355a3.166,3.166,0,0,0-1.942-.65,2.559,2.559,0,0,0-1.894.7,2.607,2.607,0,0,0-.7,1.929,2.565,2.565,0,0,0,.668,1.876,2.455,2.455,0,0,0,1.837.681,3.666,3.666,0,0,0,2.03-.65Zm3.226-10.1a1.622,1.622,0,0,1-1.151-.417,1.345,1.345,0,0,1-.448-1.024,1.3,1.3,0,0,1,.448-1.02,1.676,1.676,0,0,1,1.151-.4,1.672,1.672,0,0,1,1.156.4,1.3,1.3,0,0,1,.444,1.02,1.34,1.34,0,0,1-.444,1.037A1.65,1.65,0,0,1,32.924-10.424ZM34.295,0H31.518V-9h2.777Zm6.627.22a4.838,4.838,0,0,1-3.538-1.261A4.573,4.573,0,0,1,36.1-4.465a4.573,4.573,0,0,1,1.336-3.494A5.048,5.048,0,0,1,41.045-9.22a4.78,4.78,0,0,1,3.516,1.261,4.483,4.483,0,0,1,1.274,3.335,4.759,4.759,0,0,1-1.314,3.542A4.892,4.892,0,0,1,40.922.22Zm.07-7.312a1.852,1.852,0,0,0-1.529.677A2.984,2.984,0,0,0,38.918-4.5q0,2.593,2.092,2.593,2,0,2-2.663Q43-7.093,40.992-7.093Z" transform="translate(351.14 1310.29)" fill="#12263f"/>
    <path id="Trazado_191732" data-name="Trazado 191732" d="M10.292-10.292H6.7V0H3.85V-10.292H.272V-12.6h10.02Zm5.4,3.8a2.409,2.409,0,0,0-1.169-.272,1.684,1.684,0,0,0-1.415.664A2.9,2.9,0,0,0,12.6-4.3V0H9.822V-9H12.6v1.67h.035a2.4,2.4,0,0,1,2.373-1.828,1.788,1.788,0,0,1,.686.105ZM31.329,0H28.561V-5.133q0-1.96-1.441-1.96A1.324,1.324,0,0,0,26-6.5a2.42,2.42,0,0,0-.431,1.468V0H22.795V-5.186q0-1.907-1.415-1.907a1.356,1.356,0,0,0-1.138.563A2.475,2.475,0,0,0,19.815-5V0H17.038V-9h2.777v1.406h.035a3.321,3.321,0,0,1,1.208-1.173,3.321,3.321,0,0,1,1.7-.453,2.592,2.592,0,0,1,2.61,1.679A3.329,3.329,0,0,1,28.394-9.22q2.936,0,2.936,3.621Zm3.6-10.424a1.622,1.622,0,0,1-1.151-.417,1.345,1.345,0,0,1-.448-1.024,1.3,1.3,0,0,1,.448-1.02,1.676,1.676,0,0,1,1.151-.4,1.672,1.672,0,0,1,1.156.4,1.3,1.3,0,0,1,.444,1.02,1.34,1.34,0,0,1-.444,1.037A1.65,1.65,0,0,1,34.933-10.424ZM36.3,0H33.526V-9H36.3Zm11.03,0H44.565V-5q0-2.092-1.494-2.092a1.483,1.483,0,0,0-1.187.554,2.109,2.109,0,0,0-.466,1.406V0H38.642V-9h2.777v1.424h.035A3.183,3.183,0,0,1,44.346-9.22q2.988,0,2.988,3.709ZM53.82.22a4.838,4.838,0,0,1-3.538-1.261A4.573,4.573,0,0,1,49-4.465a4.573,4.573,0,0,1,1.336-3.494A5.048,5.048,0,0,1,53.943-9.22a4.78,4.78,0,0,1,3.516,1.261,4.483,4.483,0,0,1,1.274,3.335,4.759,4.759,0,0,1-1.314,3.542A4.892,4.892,0,0,1,53.82.22Zm.07-7.312a1.852,1.852,0,0,0-1.529.677A2.984,2.984,0,0,0,51.816-4.5q0,2.593,2.092,2.593,2,0,2-2.663Q55.9-7.093,53.891-7.093Z" transform="translate(466.17 1310.29)" fill="#12263f"/>
    <path id="Trazado_191733" data-name="Trazado 191733" d="M10.292-10.292H6.7V0H3.85V-10.292H.272V-12.6h10.02Zm2.83-.132a1.622,1.622,0,0,1-1.151-.417,1.345,1.345,0,0,1-.448-1.024,1.3,1.3,0,0,1,.448-1.02,1.676,1.676,0,0,1,1.151-.4,1.672,1.672,0,0,1,1.156.4,1.3,1.3,0,0,1,.444,1.02,1.34,1.34,0,0,1-.444,1.037A1.65,1.65,0,0,1,13.122-10.424ZM14.493,0H11.716V-9h2.777ZM24.917-3.709H19.046q.141,1.96,2.47,1.96a4.822,4.822,0,0,0,2.61-.7v2A6.858,6.858,0,0,1,20.883.22,4.565,4.565,0,0,1,17.5-.989a4.566,4.566,0,0,1-1.2-3.371A4.816,4.816,0,0,1,17.6-7.91a4.334,4.334,0,0,1,3.2-1.31A3.933,3.933,0,0,1,23.84-8.051a4.5,4.5,0,0,1,1.077,3.173ZM22.342-5.414q0-1.934-1.564-1.934a1.494,1.494,0,0,0-1.156.554,2.513,2.513,0,0,0-.593,1.38ZM40.86,0H38.092V-5.133q0-1.96-1.441-1.96a1.324,1.324,0,0,0-1.116.589A2.42,2.42,0,0,0,35.1-5.036V0H32.326V-5.186q0-1.907-1.415-1.907a1.356,1.356,0,0,0-1.138.563A2.475,2.475,0,0,0,29.347-5V0H26.569V-9h2.777v1.406h.035A3.321,3.321,0,0,1,30.59-8.767a3.321,3.321,0,0,1,1.7-.453A2.592,2.592,0,0,1,34.9-7.541,3.329,3.329,0,0,1,37.925-9.22q2.936,0,2.936,3.621Zm5.01-1.046h-.035V4.14H43.058V-9h2.777v1.354h.035A3.265,3.265,0,0,1,48.762-9.22a3.253,3.253,0,0,1,2.7,1.2,5.108,5.108,0,0,1,.954,3.265,5.537,5.537,0,0,1-1.112,3.612A3.625,3.625,0,0,1,48.349.22,2.8,2.8,0,0,1,45.87-1.046Zm-.079-3.691v.721A2.291,2.291,0,0,0,46.283-2.5a1.6,1.6,0,0,0,1.292.589,1.7,1.7,0,0,0,1.472-.734A3.543,3.543,0,0,0,49.57-4.72q0-2.373-1.846-2.373a1.733,1.733,0,0,0-1.393.646A2.576,2.576,0,0,0,45.791-4.737ZM58.509.22a4.838,4.838,0,0,1-3.538-1.261,4.573,4.573,0,0,1-1.288-3.423A4.573,4.573,0,0,1,55.02-7.958,5.048,5.048,0,0,1,58.632-9.22a4.78,4.78,0,0,1,3.516,1.261,4.483,4.483,0,0,1,1.274,3.335,4.759,4.759,0,0,1-1.314,3.542A4.892,4.892,0,0,1,58.509.22Zm.07-7.312a1.852,1.852,0,0,0-1.529.677A2.984,2.984,0,0,0,56.5-4.5q0,2.593,2.092,2.593,2,0,2-2.663Q60.592-7.093,58.579-7.093ZM79,0H76.219V-1.239h-.035A3.114,3.114,0,0,1,73.4.22,3.412,3.412,0,0,1,70.682-.971,4.93,4.93,0,0,1,69.653-4.3a5.366,5.366,0,0,1,1.134-3.577A3.7,3.7,0,0,1,73.758-9.22a2.527,2.527,0,0,1,2.426,1.248h.035v-5.353H79ZM76.271-4.377v-.677a2.13,2.13,0,0,0-.51-1.459,1.683,1.683,0,0,0-1.327-.58,1.673,1.673,0,0,0-1.441.725,3.367,3.367,0,0,0-.519,1.991,2.914,2.914,0,0,0,.5,1.828,1.663,1.663,0,0,0,1.389.642,1.67,1.67,0,0,0,1.375-.677A2.821,2.821,0,0,0,76.271-4.377Zm13.148.668H83.549q.141,1.96,2.47,1.96a4.822,4.822,0,0,0,2.61-.7v2A6.858,6.858,0,0,1,85.386.22,4.565,4.565,0,0,1,82-.989a4.566,4.566,0,0,1-1.2-3.371A4.816,4.816,0,0,1,82.1-7.91a4.334,4.334,0,0,1,3.2-1.31,3.933,3.933,0,0,1,3.045,1.169A4.5,4.5,0,0,1,89.42-4.878ZM86.845-5.414q0-1.934-1.564-1.934a1.494,1.494,0,0,0-1.156.554,2.513,2.513,0,0,0-.593,1.38Z" transform="translate(579.38 1310.29)" fill="#12263f"/>
    <path id="Trazado_191734" data-name="Trazado 191734" d="M4.28,0H1.441V-12.6H4.28ZM15.565,0H12.8V-5q0-2.092-1.494-2.092a1.483,1.483,0,0,0-1.187.554A2.109,2.109,0,0,0,9.65-5.133V0H6.873V-9H9.65v1.424h.035A3.183,3.183,0,0,1,12.577-9.22q2.988,0,2.988,3.709ZM23.2-.105A4.105,4.105,0,0,1,21.349.22q-2.936,0-2.936-3.05V-6.952H16.954V-9h1.459v-1.942l2.769-.791V-9H23.2v2.048H21.182v3.639q0,1.406,1.116,1.406a1.882,1.882,0,0,0,.905-.255Zm9.58-3.6H26.912q.141,1.96,2.47,1.96a4.822,4.822,0,0,0,2.61-.7v2A6.858,6.858,0,0,1,28.749.22,4.565,4.565,0,0,1,25.365-.989a4.566,4.566,0,0,1-1.2-3.371,4.816,4.816,0,0,1,1.3-3.551,4.334,4.334,0,0,1,3.2-1.31,3.933,3.933,0,0,1,3.045,1.169,4.5,4.5,0,0,1,1.077,3.173ZM30.208-5.414q0-1.934-1.564-1.934a1.494,1.494,0,0,0-1.156.554,2.513,2.513,0,0,0-.593,1.38ZM40.307-6.5a2.409,2.409,0,0,0-1.169-.272,1.684,1.684,0,0,0-1.415.664,2.9,2.9,0,0,0-.51,1.806V0H34.436V-9h2.777v1.67h.035a2.4,2.4,0,0,1,2.373-1.828,1.788,1.788,0,0,1,.686.105Zm7.163,0A2.409,2.409,0,0,0,46.3-6.768a1.684,1.684,0,0,0-1.415.664,2.9,2.9,0,0,0-.51,1.806V0H41.6V-9h2.777v1.67h.035a2.4,2.4,0,0,1,2.373-1.828,1.788,1.788,0,0,1,.686.105Zm9.9,6.5H54.6V-1.371h-.044A3.141,3.141,0,0,1,51.8.22q-3.129,0-3.129-3.788V-9h2.769v5.186q0,1.907,1.512,1.907a1.5,1.5,0,0,0,1.2-.523A2.109,2.109,0,0,0,54.6-3.85V-9h2.769Zm5.15-1.046h-.035V4.14H59.7V-9h2.777v1.354h.035A3.265,3.265,0,0,1,65.408-9.22a3.253,3.253,0,0,1,2.7,1.2,5.108,5.108,0,0,1,.954,3.265,5.537,5.537,0,0,1-1.112,3.612A3.625,3.625,0,0,1,65,.22,2.8,2.8,0,0,1,62.517-1.046Zm-.079-3.691v.721A2.291,2.291,0,0,0,62.93-2.5a1.6,1.6,0,0,0,1.292.589,1.7,1.7,0,0,0,1.472-.734,3.543,3.543,0,0,0,.523-2.079q0-2.373-1.846-2.373a1.733,1.733,0,0,0-1.393.646A2.576,2.576,0,0,0,62.438-4.737ZM77.687-.325A5.492,5.492,0,0,1,74.971.22a4.593,4.593,0,0,1-3.357-1.257A4.341,4.341,0,0,1,70.33-4.28,4.782,4.782,0,0,1,71.706-7.9,5.083,5.083,0,0,1,75.384-9.22a4.72,4.72,0,0,1,2.3.422v2.355a3.166,3.166,0,0,0-1.942-.65,2.559,2.559,0,0,0-1.894.7,2.607,2.607,0,0,0-.7,1.929,2.565,2.565,0,0,0,.668,1.876,2.455,2.455,0,0,0,1.837.681,3.666,3.666,0,0,0,2.03-.65Zm3.226-10.1a1.622,1.622,0,0,1-1.151-.417,1.345,1.345,0,0,1-.448-1.024,1.3,1.3,0,0,1,.448-1.02,1.676,1.676,0,0,1,1.151-.4,1.672,1.672,0,0,1,1.156.4,1.3,1.3,0,0,1,.444,1.02,1.34,1.34,0,0,1-.444,1.037A1.65,1.65,0,0,1,80.912-10.424ZM82.283,0H79.506V-9h2.777ZM88.91.22a4.838,4.838,0,0,1-3.538-1.261,4.573,4.573,0,0,1-1.288-3.423,4.573,4.573,0,0,1,1.336-3.494A5.048,5.048,0,0,1,89.033-9.22a4.78,4.78,0,0,1,3.516,1.261,4.483,4.483,0,0,1,1.274,3.335,4.759,4.759,0,0,1-1.314,3.542A4.892,4.892,0,0,1,88.91.22Zm.07-7.312a1.852,1.852,0,0,0-1.529.677A2.984,2.984,0,0,0,86.906-4.5q0,2.593,2.092,2.593,2,0,2-2.663Q90.993-7.093,88.98-7.093Zm2.979-6.17-2.751,2.839h-2l2.285-2.839ZM104.309,0H101.54V-5q0-2.092-1.494-2.092a1.483,1.483,0,0,0-1.187.554,2.109,2.109,0,0,0-.466,1.406V0H95.616V-9h2.777v1.424h.035A3.183,3.183,0,0,1,101.32-9.22q2.988,0,2.988,3.709Z" transform="translate(572.88 1331.891)" fill="#12263f"/>
    <path id="Trazado_191735" data-name="Trazado 191735" d="M10.292-10.292H6.7V0H3.85V-10.292H.272V-12.6h10.02Zm2.83-.132a1.622,1.622,0,0,1-1.151-.417,1.345,1.345,0,0,1-.448-1.024,1.3,1.3,0,0,1,.448-1.02,1.676,1.676,0,0,1,1.151-.4,1.672,1.672,0,0,1,1.156.4,1.3,1.3,0,0,1,.444,1.02,1.34,1.34,0,0,1-.444,1.037A1.65,1.65,0,0,1,13.122-10.424ZM14.493,0H11.716V-9h2.777ZM24.917-3.709H19.046q.141,1.96,2.47,1.96a4.822,4.822,0,0,0,2.61-.7v2A6.858,6.858,0,0,1,20.883.22,4.565,4.565,0,0,1,17.5-.989a4.566,4.566,0,0,1-1.2-3.371A4.816,4.816,0,0,1,17.6-7.91a4.334,4.334,0,0,1,3.2-1.31A3.933,3.933,0,0,1,23.84-8.051a4.5,4.5,0,0,1,1.077,3.173ZM22.342-5.414q0-1.934-1.564-1.934a1.494,1.494,0,0,0-1.156.554,2.513,2.513,0,0,0-.593,1.38ZM40.86,0H38.092V-5.133q0-1.96-1.441-1.96a1.324,1.324,0,0,0-1.116.589A2.42,2.42,0,0,0,35.1-5.036V0H32.326V-5.186q0-1.907-1.415-1.907a1.356,1.356,0,0,0-1.138.563A2.475,2.475,0,0,0,29.347-5V0H26.569V-9h2.777v1.406h.035A3.321,3.321,0,0,1,30.59-8.767a3.321,3.321,0,0,1,1.7-.453A2.592,2.592,0,0,1,34.9-7.541,3.329,3.329,0,0,1,37.925-9.22q2.936,0,2.936,3.621Zm5.01-1.046h-.035V4.14H43.058V-9h2.777v1.354h.035A3.265,3.265,0,0,1,48.762-9.22a3.253,3.253,0,0,1,2.7,1.2,5.108,5.108,0,0,1,.954,3.265,5.537,5.537,0,0,1-1.112,3.612A3.625,3.625,0,0,1,48.349.22,2.8,2.8,0,0,1,45.87-1.046Zm-.079-3.691v.721A2.291,2.291,0,0,0,46.283-2.5a1.6,1.6,0,0,0,1.292.589,1.7,1.7,0,0,0,1.472-.734A3.543,3.543,0,0,0,49.57-4.72q0-2.373-1.846-2.373a1.733,1.733,0,0,0-1.393.646A2.576,2.576,0,0,0,45.791-4.737ZM58.509.22a4.838,4.838,0,0,1-3.538-1.261,4.573,4.573,0,0,1-1.288-3.423A4.573,4.573,0,0,1,55.02-7.958,5.048,5.048,0,0,1,58.632-9.22a4.78,4.78,0,0,1,3.516,1.261,4.483,4.483,0,0,1,1.274,3.335,4.759,4.759,0,0,1-1.314,3.542A4.892,4.892,0,0,1,58.509.22Zm.07-7.312a1.852,1.852,0,0,0-1.529.677A2.984,2.984,0,0,0,56.5-4.5q0,2.593,2.092,2.593,2,0,2-2.663Q60.592-7.093,58.579-7.093ZM70.462,0V-12.6h4.465q6.715,0,6.715,6.144a6.212,6.212,0,0,1-1.833,4.7A6.757,6.757,0,0,1,74.927,0ZM73.3-10.292V-2.3h1.406A3.8,3.8,0,0,0,77.6-3.41a4.2,4.2,0,0,0,1.05-3.015,3.812,3.812,0,0,0-1.042-2.834,3.971,3.971,0,0,0-2.922-1.033ZM91.547-3.709H85.676q.141,1.96,2.47,1.96a4.822,4.822,0,0,0,2.61-.7v2A6.858,6.858,0,0,1,87.513.22,4.565,4.565,0,0,1,84.129-.989a4.566,4.566,0,0,1-1.2-3.371,4.816,4.816,0,0,1,1.3-3.551,4.334,4.334,0,0,1,3.2-1.31A3.933,3.933,0,0,1,90.47-8.051a4.5,4.5,0,0,1,1.077,3.173ZM88.972-5.414q0-1.934-1.564-1.934a1.494,1.494,0,0,0-1.156.554,2.513,2.513,0,0,0-.593,1.38Zm7,5.414H93.2V-13.324h2.777Zm7.778-.105A4.105,4.105,0,0,1,101.9.22q-2.936,0-2.936-3.05V-6.952H97.506V-9h1.459v-1.942l2.769-.791V-9h2.021v2.048h-2.021v3.639q0,1.406,1.116,1.406a1.882,1.882,0,0,0,.905-.255ZM112.808,0H110.18V-1.292h-.035A2.933,2.933,0,0,1,107.464.22,2.8,2.8,0,0,1,105.4-.523a2.661,2.661,0,0,1-.751-1.982q0-2.619,3.1-3.023l2.443-.325q0-1.477-1.6-1.477a5.46,5.46,0,0,0-3.059.958V-8.464a6.881,6.881,0,0,1,1.586-.527,8.339,8.339,0,0,1,1.833-.229q3.85,0,3.85,3.841ZM110.2-3.656v-.606l-1.635.211q-1.354.176-1.354,1.222a1.01,1.01,0,0,0,.33.778,1.266,1.266,0,0,0,.892.3,1.644,1.644,0,0,0,1.274-.541A1.952,1.952,0,0,0,110.2-3.656Z" transform="translate(725.94 1310.29)" fill="#12263f"/>
    <path id="Trazado_191736" data-name="Trazado 191736" d="M8.728-10.292H4.28V-7.2H8.367v2.3H4.28V0H1.441V-12.6H8.728ZM17.121,0H14.494V-1.292h-.035A2.933,2.933,0,0,1,11.778.22,2.8,2.8,0,0,1,9.717-.523,2.661,2.661,0,0,1,8.965-2.5q0-2.619,3.1-3.023l2.443-.325q0-1.477-1.6-1.477a5.46,5.46,0,0,0-3.059.958V-8.464a6.881,6.881,0,0,1,1.586-.527,8.339,8.339,0,0,1,1.833-.229q3.85,0,3.85,3.841Zm-2.61-3.656v-.606l-1.635.211q-1.354.176-1.354,1.222a1.01,1.01,0,0,0,.33.778,1.266,1.266,0,0,0,.892.3,1.644,1.644,0,0,0,1.274-.541A1.952,1.952,0,0,0,14.511-3.656ZM18.73-.237v-2.25a5.913,5.913,0,0,0,1.367.615,4.531,4.531,0,0,0,1.288.2,2.762,2.762,0,0,0,1.165-.2.653.653,0,0,0,.426-.615.569.569,0,0,0-.193-.439,1.8,1.8,0,0,0-.5-.308,5.635,5.635,0,0,0-.664-.237q-.36-.105-.694-.237a6.653,6.653,0,0,1-.945-.435,2.731,2.731,0,0,1-.686-.541,2.125,2.125,0,0,1-.422-.712,2.841,2.841,0,0,1-.145-.958,2.466,2.466,0,0,1,.33-1.3,2.692,2.692,0,0,1,.879-.892,4.016,4.016,0,0,1,1.257-.51,6.553,6.553,0,0,1,1.472-.163,8.168,8.168,0,0,1,1.213.092,9.053,9.053,0,0,1,1.213.268v2.145a4.383,4.383,0,0,0-1.129-.461,4.764,4.764,0,0,0-1.182-.154,2.619,2.619,0,0,0-.514.048,1.693,1.693,0,0,0-.426.141.783.783,0,0,0-.29.237.546.546,0,0,0-.105.33.609.609,0,0,0,.158.422,1.374,1.374,0,0,0,.413.3,4.078,4.078,0,0,0,.567.229q.312.1.62.207a8.056,8.056,0,0,1,1,.422,3.2,3.2,0,0,1,.769.536,2.105,2.105,0,0,1,.492.721,2.562,2.562,0,0,1,.171.984,2.568,2.568,0,0,1-.347,1.367,2.78,2.78,0,0,1-.923.923,4.185,4.185,0,0,1-1.327.519,7.357,7.357,0,0,1-1.56.163A8.042,8.042,0,0,1,18.73-.237ZM35.324-3.709H29.452q.141,1.96,2.47,1.96a4.822,4.822,0,0,0,2.61-.7v2A6.858,6.858,0,0,1,31.289.22,4.565,4.565,0,0,1,27.906-.989a4.566,4.566,0,0,1-1.2-3.371A4.816,4.816,0,0,1,28-7.91a4.334,4.334,0,0,1,3.2-1.31,3.933,3.933,0,0,1,3.045,1.169,4.5,4.5,0,0,1,1.077,3.173ZM32.748-5.414q0-1.934-1.564-1.934a1.494,1.494,0,0,0-1.156.554,2.513,2.513,0,0,0-.593,1.38Z" transform="translate(894.12 1310.29)" fill="#12263f"/>
    <path id="Trazado_191737" data-name="Trazado 191737" d="M10.477-.448a8.311,8.311,0,0,1-3.6.668A6.074,6.074,0,0,1,2.312-1.485,6.233,6.233,0,0,1,.65-6.029a6.659,6.659,0,0,1,1.868-4.9,6.533,6.533,0,0,1,4.847-1.881,9.065,9.065,0,0,1,3.111.466v2.733a5.513,5.513,0,0,0-2.883-.756A3.824,3.824,0,0,0,4.729-9.255a4.142,4.142,0,0,0-1.09,3.023A4.062,4.062,0,0,0,4.667-3.318,3.633,3.633,0,0,0,7.436-2.232a5.905,5.905,0,0,0,3.041-.809ZM16.69.22a4.838,4.838,0,0,1-3.538-1.261,4.573,4.573,0,0,1-1.288-3.423A4.573,4.573,0,0,1,13.2-7.958,5.048,5.048,0,0,1,16.813-9.22a4.78,4.78,0,0,1,3.516,1.261A4.483,4.483,0,0,1,21.6-4.623,4.759,4.759,0,0,1,20.29-1.081,4.892,4.892,0,0,1,16.69.22Zm.07-7.312a1.852,1.852,0,0,0-1.529.677A2.984,2.984,0,0,0,14.687-4.5q0,2.593,2.092,2.593,2,0,2-2.663Q18.773-7.093,16.761-7.093ZM37.7,0H34.928V-5.133q0-1.96-1.441-1.96A1.324,1.324,0,0,0,32.37-6.5a2.42,2.42,0,0,0-.431,1.468V0H29.162V-5.186q0-1.907-1.415-1.907a1.356,1.356,0,0,0-1.138.563A2.475,2.475,0,0,0,26.183-5V0H23.405V-9h2.777v1.406h.035a3.321,3.321,0,0,1,1.208-1.173,3.321,3.321,0,0,1,1.7-.453,2.592,2.592,0,0,1,2.61,1.679A3.329,3.329,0,0,1,34.761-9.22Q37.7-9.22,37.7-5.6ZM47.979-3.709H42.108q.141,1.96,2.47,1.96a4.822,4.822,0,0,0,2.61-.7v2A6.858,6.858,0,0,1,43.945.22,4.565,4.565,0,0,1,40.562-.989a4.566,4.566,0,0,1-1.2-3.371,4.816,4.816,0,0,1,1.3-3.551,4.334,4.334,0,0,1,3.2-1.31A3.933,3.933,0,0,1,46.9-8.051a4.5,4.5,0,0,1,1.077,3.173ZM45.4-5.414q0-1.934-1.564-1.934a1.494,1.494,0,0,0-1.156.554,2.513,2.513,0,0,0-.593,1.38ZM58.324,0H55.556V-5q0-2.092-1.494-2.092a1.483,1.483,0,0,0-1.187.554,2.109,2.109,0,0,0-.466,1.406V0H49.632V-9h2.777v1.424h.035A3.183,3.183,0,0,1,55.336-9.22q2.988,0,2.988,3.709Zm7.638-.105A4.105,4.105,0,0,1,64.107.22q-2.936,0-2.936-3.05V-6.952H59.713V-9h1.459v-1.942l2.769-.791V-9h2.021v2.048H63.94v3.639q0,1.406,1.116,1.406a1.882,1.882,0,0,0,.905-.255ZM75.015,0H72.387V-1.292h-.035A2.933,2.933,0,0,1,69.671.22,2.8,2.8,0,0,1,67.61-.523,2.661,2.661,0,0,1,66.858-2.5q0-2.619,3.1-3.023L72.4-5.854q0-1.477-1.6-1.477a5.46,5.46,0,0,0-3.059.958V-8.464a6.881,6.881,0,0,1,1.586-.527,8.339,8.339,0,0,1,1.833-.229q3.85,0,3.85,3.841ZM72.4-3.656v-.606l-1.635.211q-1.354.176-1.354,1.222a1.01,1.01,0,0,0,.33.778,1.266,1.266,0,0,0,.892.3,1.644,1.644,0,0,0,1.274-.541A1.952,1.952,0,0,0,72.4-3.656ZM83.083-6.5a2.409,2.409,0,0,0-1.169-.272A1.684,1.684,0,0,0,80.5-6.1a2.9,2.9,0,0,0-.51,1.806V0H77.212V-9h2.777v1.67h.035A2.4,2.4,0,0,1,82.4-9.158a1.788,1.788,0,0,1,.686.105Zm2.769-3.929a1.622,1.622,0,0,1-1.151-.417,1.345,1.345,0,0,1-.448-1.024,1.3,1.3,0,0,1,.448-1.02,1.676,1.676,0,0,1,1.151-.4,1.672,1.672,0,0,1,1.156.4,1.3,1.3,0,0,1,.444,1.02,1.34,1.34,0,0,1-.444,1.037A1.65,1.65,0,0,1,85.852-10.424ZM87.223,0H84.445V-9h2.777ZM93.85.22a4.838,4.838,0,0,1-3.538-1.261,4.573,4.573,0,0,1-1.288-3.423A4.573,4.573,0,0,1,90.36-7.958,5.048,5.048,0,0,1,93.973-9.22a4.78,4.78,0,0,1,3.516,1.261,4.483,4.483,0,0,1,1.274,3.335,4.759,4.759,0,0,1-1.314,3.542A4.892,4.892,0,0,1,93.85.22Zm.07-7.312a1.852,1.852,0,0,0-1.529.677A2.984,2.984,0,0,0,91.846-4.5q0,2.593,2.092,2.593,2,0,2-2.663Q95.933-7.093,93.92-7.093ZM99.976-.237v-2.25a5.913,5.913,0,0,0,1.367.615,4.531,4.531,0,0,0,1.288.2,2.762,2.762,0,0,0,1.165-.2.653.653,0,0,0,.426-.615.569.569,0,0,0-.193-.439,1.8,1.8,0,0,0-.5-.308,5.635,5.635,0,0,0-.664-.237q-.36-.105-.694-.237a6.653,6.653,0,0,1-.945-.435,2.731,2.731,0,0,1-.686-.541,2.125,2.125,0,0,1-.422-.712,2.841,2.841,0,0,1-.145-.958,2.466,2.466,0,0,1,.33-1.3,2.692,2.692,0,0,1,.879-.892,4.016,4.016,0,0,1,1.257-.51,6.553,6.553,0,0,1,1.472-.163,8.168,8.168,0,0,1,1.213.092,9.053,9.053,0,0,1,1.213.268v2.145a4.383,4.383,0,0,0-1.129-.461,4.764,4.764,0,0,0-1.182-.154,2.619,2.619,0,0,0-.514.048,1.693,1.693,0,0,0-.426.141.783.783,0,0,0-.29.237.546.546,0,0,0-.105.33.609.609,0,0,0,.158.422,1.374,1.374,0,0,0,.413.3,4.078,4.078,0,0,0,.567.229q.312.1.62.207a8.056,8.056,0,0,1,1,.422,3.2,3.2,0,0,1,.769.536,2.105,2.105,0,0,1,.492.721,2.562,2.562,0,0,1,.171.984,2.568,2.568,0,0,1-.347,1.367,2.78,2.78,0,0,1-.923.923,4.185,4.185,0,0,1-1.327.519,7.357,7.357,0,0,1-1.56.163A8.042,8.042,0,0,1,99.976-.237Z" transform="translate(1052.59 1310.29)" fill="#12263f"/>
    <path id="Trazado_191738" data-name="Trazado 191738" d="M0,0H362.27" transform="translate(331.36 1210.38)" fill="none" stroke="#a0a8b2" stroke-width="1"/>
    <path id="Trazado_191739" data-name="Trazado 191739" d="M0,0H1179.17" transform="translate(210 1275.18)" fill="none" stroke="#a0a8b2" stroke-width="1"/>
    <path id="Trazado_191740" data-name="Trazado 191740" d="M0,0V499.83" transform="translate(210 1275.18)" fill="none" stroke="#a0a8b2" stroke-width="1"/>
    <path id="Trazado_191741" data-name="Trazado 191741" d="M0,0V499.83" transform="translate(318.68 1275.18)" fill="none" stroke="#a0a8b2" stroke-width="1"/>
    <path id="Trazado_191742" data-name="Trazado 191742" d="M0,0V499.83" transform="translate(427.36 1275.18)" fill="none" stroke="#a0a8b2" stroke-width="1"/>
    <path id="Trazado_191743" data-name="Trazado 191743" d="M0,0V499.83" transform="translate(548.72 1275.18)" fill="none" stroke="#a0a8b2" stroke-width="1"/>
    <path id="Trazado_191744" data-name="Trazado 191744" d="M0,0V499.83" transform="translate(693.63 1275.18)" fill="none" stroke="#a0a8b2" stroke-width="1"/>
    <path id="Trazado_191745" data-name="Trazado 191745" d="M0,0V499.83" transform="translate(858.75 1275.18)" fill="none" stroke="#a0a8b2" stroke-width="1"/>
    <path id="Trazado_191746" data-name="Trazado 191746" d="M0,0V499.83" transform="translate(968 1275.18)" fill="none" stroke="#a0a8b2" stroke-width="1"/>
    <path id="Trazado_191747" data-name="Trazado 191747" d="M0,0V499.83" transform="translate(1389.17 1275.18)" fill="none" stroke="#a0a8b2" stroke-width="1"/>
    <path id="Trazado_191748" data-name="Trazado 191748" d="M0,0H1179.17" transform="translate(210 1342.98)" fill="none" stroke="#a0a8b2" stroke-width="1"/>
    <path id="Trazado_191749" data-name="Trazado 191749" d="M0,0H1179.17" transform="translate(210 1386.18)" fill="none" stroke="#a0a8b2" stroke-width="1"/>
    <path id="Trazado_191750" data-name="Trazado 191750" d="M0,0H1179.17" transform="translate(210 1429.38)" fill="none" stroke="#a0a8b2" stroke-width="1"/>
    <path id="Trazado_191751" data-name="Trazado 191751" d="M0,0H1179.17" transform="translate(210 1472.58)" fill="none" stroke="#a0a8b2" stroke-width="1"/>
    <path id="Trazado_191752" data-name="Trazado 191752" d="M0,0H1179.17" transform="translate(210 1515.79)" fill="none" stroke="#a0a8b2" stroke-width="1"/>
    <path id="Trazado_191753" data-name="Trazado 191753" d="M0,0H1179.17" transform="translate(210 1558.99)" fill="none" stroke="#a0a8b2" stroke-width="1"/>
    <path id="Trazado_191754" data-name="Trazado 191754" d="M0,0H1179.17" transform="translate(210 1602.19)" fill="none" stroke="#a0a8b2" stroke-width="1"/>
    <path id="Trazado_191755" data-name="Trazado 191755" d="M0,0H1179.17" transform="translate(210 1645.4)" fill="none" stroke="#a0a8b2" stroke-width="1"/>
    <path id="Trazado_191756" data-name="Trazado 191756" d="M0,0H1179.17" transform="translate(210 1688.601)" fill="none" stroke="#a0a8b2" stroke-width="1"/>
    <path id="Trazado_191757" data-name="Trazado 191757" d="M0,0H1179.17" transform="translate(210 1731.8)" fill="none" stroke="#a0a8b2" stroke-width="1"/>
    <path id="Trazado_191758" data-name="Trazado 191758" d="M0,0H1179.17" transform="translate(210 1775.01)" fill="none" stroke="#a0a8b2" stroke-width="1"/>
    <path id="Trazado_191759" data-name="Trazado 191759" d="M0,0H362.27" transform="translate(331.36 1253.58)" fill="none" stroke="#a0a8b2" stroke-width="1"/>
    <path id="Trazado_191760" data-name="Trazado 191760" d="M0,0H362.26" transform="translate(974.65 1210.38)" fill="none" stroke="#a0a8b2" stroke-width="1"/>
    <path id="Trazado_191761" data-name="Trazado 191761" d="M0,0H362.26" transform="translate(974.65 1253.58)" fill="none" stroke="#a0a8b2" stroke-width="1"/>
  </g>
</svg>
