<svg xmlns="http://www.w3.org/2000/svg" xmlns:xlink="http://www.w3.org/1999/xlink" width="534.758" height="287.686" viewBox="0 0 534.758 287.686">
  <defs>
    <clipPath id="clip-path">
      <rect id="Rectángulo_39590" data-name="Rectángulo 39590" width="27.421" height="244.238" fill="#1565c0"/>
    </clipPath>
  </defs>
  <g id="Grupo_94328" data-name="Grupo 94328" transform="translate(-830 -7818.072)">
    <path id="Trazado_192362" data-name="Trazado 192362" d="M0,0H199V47.9H0Z" transform="translate(831 7866.514)" fill="#b0c0d2"/>
    <path id="Trazado_192363" data-name="Trazado 192363" d="M0,0H198V47.9H0Z" transform="translate(1031 7866.514)" fill="#dee4f0"/>
    <path id="Trazado_192364" data-name="Trazado 192364" d="M0,0H399V47.9H0Z" transform="translate(831 7912.982)" fill="#fff"/>
    <path id="Trazado_192365" data-name="Trazado 192365" d="M24.867,16.57v-2.5a4.8,4.8,0,0,0,1.477.855,4.746,4.746,0,0,0,1.609.285,3.569,3.569,0,0,0,.832-.086,1.949,1.949,0,0,0,.594-.238,1.039,1.039,0,0,0,.355-.359.9.9,0,0,0,.117-.449.971.971,0,0,0-.187-.586,2.018,2.018,0,0,0-.512-.477,5.347,5.347,0,0,0-.77-.422q-.445-.2-.961-.414a4.9,4.9,0,0,1-1.957-1.336,2.917,2.917,0,0,1-.645-1.906,3.036,3.036,0,0,1,.352-1.5A2.986,2.986,0,0,1,26.129,6.4a4.291,4.291,0,0,1,1.4-.6,7.206,7.206,0,0,1,1.688-.191,10.15,10.15,0,0,1,1.551.105,6.1,6.1,0,0,1,1.246.324V8.375a3.768,3.768,0,0,0-.613-.344,4.859,4.859,0,0,0-.684-.246,5.214,5.214,0,0,0-.7-.145,4.949,4.949,0,0,0-.66-.047,3.443,3.443,0,0,0-.781.082,2,2,0,0,0-.594.23,1.147,1.147,0,0,0-.375.355.843.843,0,0,0-.133.465.888.888,0,0,0,.148.5,1.7,1.7,0,0,0,.422.422,4.477,4.477,0,0,0,.664.391q.391.191.883.395a9.837,9.837,0,0,1,1.207.6,4.291,4.291,0,0,1,.918.715,2.785,2.785,0,0,1,.586.91,3.216,3.216,0,0,1,.2,1.191,3.191,3.191,0,0,1-.355,1.574,2.886,2.886,0,0,1-.965,1.031,4.184,4.184,0,0,1-1.418.566,8.2,8.2,0,0,1-1.707.172,9.492,9.492,0,0,1-1.754-.156A5.3,5.3,0,0,1,24.867,16.57ZM41.3,13.7H36.078q.125,1.742,2.2,1.742a4.286,4.286,0,0,0,2.32-.625V16.6a6.1,6.1,0,0,1-2.883.594A4.058,4.058,0,0,1,34.7,16.121a4.058,4.058,0,0,1-1.07-3,4.281,4.281,0,0,1,1.156-3.156A3.852,3.852,0,0,1,37.633,8.8,3.5,3.5,0,0,1,40.34,9.844a4,4,0,0,1,.957,2.82Zm-2.289-1.516q0-1.719-1.391-1.719a1.328,1.328,0,0,0-1.027.492,2.234,2.234,0,0,0-.527,1.227ZM55.469,17H53.008V12.438q0-1.742-1.281-1.742a1.177,1.177,0,0,0-.992.523,2.151,2.151,0,0,0-.383,1.3V17H47.883V12.391q0-1.7-1.258-1.7a1.206,1.206,0,0,0-1.012.5,2.2,2.2,0,0,0-.379,1.359V17H42.766V9h2.469v1.25h.031A3.031,3.031,0,0,1,47.852,8.8a2.3,2.3,0,0,1,2.32,1.492A2.959,2.959,0,0,1,52.859,8.8q2.609,0,2.609,3.219Zm8.609,0H61.742V15.852h-.031A2.607,2.607,0,0,1,59.328,17.2a2.492,2.492,0,0,1-1.832-.66,2.366,2.366,0,0,1-.668-1.762q0-2.328,2.758-2.687l2.172-.289q0-1.312-1.422-1.312a4.853,4.853,0,0,0-2.719.852V9.477a6.116,6.116,0,0,1,1.41-.469,7.413,7.413,0,0,1,1.629-.2q3.422,0,3.422,3.414Zm-2.32-3.25v-.539L60.3,13.4q-1.2.156-1.2,1.086a.9.9,0,0,0,.293.691,1.126,1.126,0,0,0,.793.27,1.462,1.462,0,0,0,1.133-.48A1.735,1.735,0,0,0,61.758,13.75Zm12,3.25H71.3V12.555q0-1.859-1.328-1.859a1.318,1.318,0,0,0-1.055.492,1.875,1.875,0,0,0-.414,1.25V17H66.031V9H68.5v1.266h.031A2.829,2.829,0,0,1,71.1,8.8q2.656,0,2.656,3.3Zm8.609,0H80.031V15.852H80A2.607,2.607,0,0,1,77.617,17.2a2.492,2.492,0,0,1-1.832-.66,2.366,2.366,0,0,1-.668-1.762q0-2.328,2.758-2.687l2.172-.289q0-1.312-1.422-1.312a4.853,4.853,0,0,0-2.719.852V9.477a6.116,6.116,0,0,1,1.41-.469,7.413,7.413,0,0,1,1.629-.2q3.422,0,3.422,3.414Zm-2.32-3.25v-.539l-1.453.188q-1.2.156-1.2,1.086a.9.9,0,0,0,.293.691,1.126,1.126,0,0,0,.793.27,1.462,1.462,0,0,0,1.133-.48A1.735,1.735,0,0,0,80.047,13.75ZM94.2,5.547V17H91.734V8.328a2.947,2.947,0,0,1-.48.34,4.96,4.96,0,0,1-.59.289,5.267,5.267,0,0,1-.648.219,4.736,4.736,0,0,1-.664.129V7.227a10.266,10.266,0,0,0,1.813-.719A10.315,10.315,0,0,0,92.7,5.547Z" transform="translate(864 7881.682)" fill="#12263f"/>
    <path id="Trazado_192366" data-name="Trazado 192366" d="M24.867,16.57v-2.5a4.8,4.8,0,0,0,1.477.855,4.746,4.746,0,0,0,1.609.285,3.569,3.569,0,0,0,.832-.086,1.949,1.949,0,0,0,.594-.238,1.039,1.039,0,0,0,.355-.359.9.9,0,0,0,.117-.449.971.971,0,0,0-.187-.586,2.018,2.018,0,0,0-.512-.477,5.347,5.347,0,0,0-.77-.422q-.445-.2-.961-.414a4.9,4.9,0,0,1-1.957-1.336,2.917,2.917,0,0,1-.645-1.906,3.036,3.036,0,0,1,.352-1.5A2.986,2.986,0,0,1,26.129,6.4a4.291,4.291,0,0,1,1.4-.6,7.206,7.206,0,0,1,1.688-.191,10.15,10.15,0,0,1,1.551.105,6.1,6.1,0,0,1,1.246.324V8.375a3.768,3.768,0,0,0-.613-.344,4.859,4.859,0,0,0-.684-.246,5.214,5.214,0,0,0-.7-.145,4.949,4.949,0,0,0-.66-.047,3.443,3.443,0,0,0-.781.082,2,2,0,0,0-.594.23,1.147,1.147,0,0,0-.375.355.843.843,0,0,0-.133.465.888.888,0,0,0,.148.5,1.7,1.7,0,0,0,.422.422,4.477,4.477,0,0,0,.664.391q.391.191.883.395a9.837,9.837,0,0,1,1.207.6,4.291,4.291,0,0,1,.918.715,2.785,2.785,0,0,1,.586.91,3.216,3.216,0,0,1,.2,1.191,3.191,3.191,0,0,1-.355,1.574,2.886,2.886,0,0,1-.965,1.031,4.184,4.184,0,0,1-1.418.566,8.2,8.2,0,0,1-1.707.172,9.492,9.492,0,0,1-1.754-.156A5.3,5.3,0,0,1,24.867,16.57ZM41.3,13.7H36.078q.125,1.742,2.2,1.742a4.286,4.286,0,0,0,2.32-.625V16.6a6.1,6.1,0,0,1-2.883.594A4.058,4.058,0,0,1,34.7,16.121a4.058,4.058,0,0,1-1.07-3,4.281,4.281,0,0,1,1.156-3.156A3.852,3.852,0,0,1,37.633,8.8,3.5,3.5,0,0,1,40.34,9.844a4,4,0,0,1,.957,2.82Zm-2.289-1.516q0-1.719-1.391-1.719a1.328,1.328,0,0,0-1.027.492,2.234,2.234,0,0,0-.527,1.227ZM55.469,17H53.008V12.438q0-1.742-1.281-1.742a1.177,1.177,0,0,0-.992.523,2.151,2.151,0,0,0-.383,1.3V17H47.883V12.391q0-1.7-1.258-1.7a1.206,1.206,0,0,0-1.012.5,2.2,2.2,0,0,0-.379,1.359V17H42.766V9h2.469v1.25h.031A3.031,3.031,0,0,1,47.852,8.8a2.3,2.3,0,0,1,2.32,1.492A2.959,2.959,0,0,1,52.859,8.8q2.609,0,2.609,3.219Zm8.609,0H61.742V15.852h-.031A2.607,2.607,0,0,1,59.328,17.2a2.492,2.492,0,0,1-1.832-.66,2.366,2.366,0,0,1-.668-1.762q0-2.328,2.758-2.687l2.172-.289q0-1.312-1.422-1.312a4.853,4.853,0,0,0-2.719.852V9.477a6.116,6.116,0,0,1,1.41-.469,7.413,7.413,0,0,1,1.629-.2q3.422,0,3.422,3.414Zm-2.32-3.25v-.539L60.3,13.4q-1.2.156-1.2,1.086a.9.9,0,0,0,.293.691,1.126,1.126,0,0,0,.793.27,1.462,1.462,0,0,0,1.133-.48A1.735,1.735,0,0,0,61.758,13.75Zm12,3.25H71.3V12.555q0-1.859-1.328-1.859a1.318,1.318,0,0,0-1.055.492,1.875,1.875,0,0,0-.414,1.25V17H66.031V9H68.5v1.266h.031A2.829,2.829,0,0,1,71.1,8.8q2.656,0,2.656,3.3Zm8.609,0H80.031V15.852H80A2.607,2.607,0,0,1,77.617,17.2a2.492,2.492,0,0,1-1.832-.66,2.366,2.366,0,0,1-.668-1.762q0-2.328,2.758-2.687l2.172-.289q0-1.312-1.422-1.312a4.853,4.853,0,0,0-2.719.852V9.477a6.116,6.116,0,0,1,1.41-.469,7.413,7.413,0,0,1,1.629-.2q3.422,0,3.422,3.414Zm-2.32-3.25v-.539l-1.453.188q-1.2.156-1.2,1.086a.9.9,0,0,0,.293.691,1.126,1.126,0,0,0,.793.27,1.462,1.462,0,0,0,1.133-.48A1.735,1.735,0,0,0,80.047,13.75Zm11,1.2H95.8V17H88.344v-.844a3.927,3.927,0,0,1,.289-1.543,5.12,5.12,0,0,1,.727-1.227,6.3,6.3,0,0,1,.957-.961q.52-.418.988-.754.492-.352.863-.672a4.919,4.919,0,0,0,.625-.637,2.421,2.421,0,0,0,.379-.641,1.905,1.905,0,0,0,.125-.691,1.39,1.39,0,0,0-.406-1.086,1.806,1.806,0,0,0-1.242-.367,4.172,4.172,0,0,0-2.766,1.148V6.555a5.937,5.937,0,0,1,3.3-.945,4.869,4.869,0,0,1,1.527.223,3.231,3.231,0,0,1,1.145.637,2.716,2.716,0,0,1,.715,1,3.388,3.388,0,0,1,.246,1.316,3.712,3.712,0,0,1-.238,1.375,4.225,4.225,0,0,1-.633,1.094,5.74,5.74,0,0,1-.91.9q-.516.41-1.07.793-.375.266-.723.527a6.851,6.851,0,0,0-.613.516,2.8,2.8,0,0,0-.422.5A.856.856,0,0,0,91.047,14.953Z" transform="translate(1069 7881.682)" fill="#12263f"/>
    <path id="Trazado_190303" data-name="Trazado 190303" d="M0,0H399V48.438H0Z" transform="translate(831 7818.072)" fill="#ffa726"/>
    <path id="Trazado_192367" data-name="Trazado 192367" d="M-60.825-3.814A3.64,3.64,0,0,1-61.5-1.626,3.985,3.985,0,0,1-63.382-.237,8.291,8.291,0,0,1-66.3.22a9.531,9.531,0,0,1-3.621-.668V-3.9a7.153,7.153,0,0,0,1.749.936,5.145,5.145,0,0,0,1.784.356,1.761,1.761,0,0,0,.967-.224.733.733,0,0,0,.343-.655.888.888,0,0,0-.171-.541,1.683,1.683,0,0,0-.519-.435,9.659,9.659,0,0,0-1.288-.554Q-70.1-6.187-70.1-8.8a3.531,3.531,0,0,1,1.389-2.922,5.858,5.858,0,0,1,3.727-1.094q.659,0,1.213.053t1.006.132q.453.079,1.27.3v3.208a6.49,6.49,0,0,0-3.129-.87,1.931,1.931,0,0,0-1.02.237.73.73,0,0,0-.387.65.816.816,0,0,0,.312.655,5.85,5.85,0,0,0,1.305.672,7.237,7.237,0,0,1,2.773,1.731A3.3,3.3,0,0,1-60.825-3.814Zm11.347-.958a6.4,6.4,0,0,1-.5,2.61A4.046,4.046,0,0,1-51.394-.4,3.564,3.564,0,0,1-53.451.22a2.755,2.755,0,0,1-2.4-1.151h-.035V4.14h-3.744V-9h3.744v1.222h.035a3.171,3.171,0,0,1,1.16-1.059,3.364,3.364,0,0,1,1.617-.382,3.215,3.215,0,0,1,2.667,1.16A5.147,5.147,0,0,1-49.478-4.772Zm-3.8.114a2.346,2.346,0,0,0-.33-1.336,1.144,1.144,0,0,0-1.015-.483,1.141,1.141,0,0,0-.967.51,2.341,2.341,0,0,0-.369,1.4v.176a2.562,2.562,0,0,0,.316,1.362,1.044,1.044,0,0,0,.949.51,1.182,1.182,0,0,0,1.046-.558A2.849,2.849,0,0,0-53.275-4.658ZM-41.3-5.792a2.91,2.91,0,0,0-.571-.176,2.891,2.891,0,0,0-.6-.079q-1.854,0-1.854,2.145V0h-3.744V-9h3.744v1.582h.035a2.81,2.81,0,0,1,.976-1.3,2.506,2.506,0,0,1,1.477-.444,1.269,1.269,0,0,1,.536.105Zm5.045-5.634a1.608,1.608,0,0,1-.576,1.283,2.252,2.252,0,0,1-1.516.492,2.2,2.2,0,0,1-1.5-.51,1.612,1.612,0,0,1-.584-1.266,1.561,1.561,0,0,1,.567-1.252,2.272,2.272,0,0,1,1.516-.479,2.293,2.293,0,0,1,1.516.479A1.551,1.551,0,0,1-36.259-11.426ZM-40.223,0V-9h3.744V0Zm11.382,0V-4.913a2.184,2.184,0,0,0-.25-1.2.915.915,0,0,0-.813-.365.88.88,0,0,0-.756.378,1.613,1.613,0,0,0-.272.967V0h-3.744V-9h3.744v1.406h.035a3.177,3.177,0,0,1,1.2-1.2A3.29,3.29,0,0,1-28.05-9.22q2.953,0,2.953,3.727V0Zm11.769-.123a3.648,3.648,0,0,1-.835.233,7.634,7.634,0,0,1-1.4.11,3.357,3.357,0,0,1-2.448-.861,3.269,3.269,0,0,1-.883-2.452V-6.407h-1.415V-9h1.415v-1.767l3.691-1.02V-9h1.872v2.593h-1.872v2.7q0,1.187.94,1.187a2.551,2.551,0,0,0,.932-.193ZM-14.1,2.092h-3.3l6.231-14.7h3.3ZM-6.886,0V-12.6h3.8V0ZM5.383-.123A3.648,3.648,0,0,1,4.548.11a7.634,7.634,0,0,1-1.4.11A3.357,3.357,0,0,1,.7-.642,3.269,3.269,0,0,1-.18-3.094V-6.407H-1.6V-9H-.18v-1.767l3.691-1.02V-9H5.383v2.593H3.511v2.7q0,1.187.94,1.187a2.551,2.551,0,0,0,.932-.193ZM9.778-3.437a1.265,1.265,0,0,0,.668.91,3.012,3.012,0,0,0,1.512.33,6.226,6.226,0,0,0,2.479-.5V-.325a8.908,8.908,0,0,1-3.3.545,5.214,5.214,0,0,1-3.665-1.2A4.277,4.277,0,0,1,6.157-4.3a5.467,5.467,0,0,1,.576-2.558A4.142,4.142,0,0,1,8.438-8.591a5.038,5.038,0,0,1,2.492-.628,4.9,4.9,0,0,1,2.391.545,3.63,3.63,0,0,1,1.507,1.529,4.906,4.906,0,0,1,.514,2.3v1.406Zm2.25-1.96q0-1.556-1.116-1.556a.944.944,0,0,0-.782.426A2.127,2.127,0,0,0,9.76-5.4Zm11.373-.4a2.91,2.91,0,0,0-.571-.176,2.891,2.891,0,0,0-.6-.079q-1.854,0-1.854,2.145V0H16.633V-9h3.744v1.582h.035a2.81,2.81,0,0,1,.976-1.3,2.506,2.506,0,0,1,1.477-.444,1.269,1.269,0,0,1,.536.105ZM29.474,0V-1.371h-.035A2.944,2.944,0,0,1,26.7.22a2.625,2.625,0,0,1-2-.756,2.808,2.808,0,0,1-.721-2.021q0-2.654,3.261-3.076l2.232-.29a.851.851,0,0,0-.4-.721,1.8,1.8,0,0,0-1.063-.281,7,7,0,0,0-3.19.861V-8.5a8.535,8.535,0,0,1,1.828-.519,10.639,10.639,0,0,1,1.881-.2,4.722,4.722,0,0,1,3.327.98,4.368,4.368,0,0,1,1.033,3.274V0ZM27.259-3.059a.83.83,0,0,0,.233.606.888.888,0,0,0,.664.237,1.18,1.18,0,0,0,.954-.439,1.7,1.7,0,0,0,.365-1.125v-.343l-1.266.176Q27.259-3.788,27.259-3.059ZM42-.255a3.529,3.529,0,0,1-1.134.343A10.719,10.719,0,0,1,39.081.22a5.488,5.488,0,0,1-2.544-.576A4.2,4.2,0,0,1,34.8-1.969,4.478,4.478,0,0,1,34.185-4.3a5.1,5.1,0,0,1,.655-2.65,4.268,4.268,0,0,1,1.868-1.687A6.407,6.407,0,0,1,39.52-9.22a9.839,9.839,0,0,1,1.578.114,2.411,2.411,0,0,1,.9.264v2.918a2.6,2.6,0,0,0-.809-.387,3.248,3.248,0,0,0-.976-.167,2.375,2.375,0,0,0-1.666.523,1.9,1.9,0,0,0-.567,1.472,1.868,1.868,0,0,0,.558,1.446,2.177,2.177,0,0,0,1.534.514A3.82,3.82,0,0,0,42-3.023Zm5.458-11.171a1.608,1.608,0,0,1-.576,1.283,2.252,2.252,0,0,1-1.516.492,2.2,2.2,0,0,1-1.5-.51,1.612,1.612,0,0,1-.584-1.266,1.561,1.561,0,0,1,.567-1.252,2.272,2.272,0,0,1,1.516-.479,2.293,2.293,0,0,1,1.516.479A1.551,1.551,0,0,1,47.457-11.426ZM43.493,0V-9h3.744V0ZM59.049-4.658a4.687,4.687,0,0,1-1.375,3.577A5.375,5.375,0,0,1,53.829.22,5.4,5.4,0,0,1,50.01-1.05a4.546,4.546,0,0,1-1.367-3.5,4.692,4.692,0,0,1,.642-2.487,4.172,4.172,0,0,1,1.828-1.617,6.311,6.311,0,0,1,2.733-.562,6.113,6.113,0,0,1,2.773.589A4.286,4.286,0,0,1,58.421-7,4.452,4.452,0,0,1,59.049-4.658Zm-3.8.018q0-1.837-1.406-1.837T52.44-4.553q0,2.03,1.424,2.03Q55.252-2.522,55.252-4.641Zm-.94-5.783H51.667l2.628-2.821h3.146ZM66.283,0V-4.913a2.184,2.184,0,0,0-.25-1.2.915.915,0,0,0-.813-.365.88.88,0,0,0-.756.378,1.613,1.613,0,0,0-.272.967V0H60.447V-9h3.744v1.406h.035a3.177,3.177,0,0,1,1.2-1.2,3.29,3.29,0,0,1,1.644-.426q2.953,0,2.953,3.727V0Z" transform="translate(1017 7846.78)" fill="#fff"/>
    <path id="Trazado_192368" data-name="Trazado 192368" d="M0,0H399V47.9H0Z" transform="translate(831 7960.884)" fill="#f6f6f6"/>
    <path id="Trazado_192369" data-name="Trazado 192369" d="M0,0V45.7" transform="translate(1030 7867.672)" fill="none" stroke="#afafaf" stroke-linecap="round" stroke-width="1"/>
    <path id="Trazado_192370" data-name="Trazado 192370" d="M0,0H400V47.9H0Z" transform="translate(830 7912.982)" fill="#fff"/>
    <path id="Trazado_192371" data-name="Trazado 192371" d="M0,0H400V47.9H0Z" transform="translate(830 8008.785)" fill="#fff"/>
    <path id="Trazado_192372" data-name="Trazado 192372" d="M79.965,17H78.4l-1.875-3.141a6.84,6.84,0,0,0-.5-.746,2.85,2.85,0,0,0-.5-.5,1.718,1.718,0,0,0-.547-.285,2.249,2.249,0,0,0-.66-.09H73.246V17H71.934V5.8h3.344a4.765,4.765,0,0,1,1.355.184,3.033,3.033,0,0,1,1.078.559,2.6,2.6,0,0,1,.715.934,3.1,3.1,0,0,1,.258,1.309,3.151,3.151,0,0,1-.176,1.074,2.805,2.805,0,0,1-.5.871,3.031,3.031,0,0,1-.781.652A3.988,3.988,0,0,1,76.2,11.8v.031a2.363,2.363,0,0,1,.488.285,2.687,2.687,0,0,1,.395.379,5.019,5.019,0,0,1,.371.5q.184.277.41.645ZM73.246,6.984v4.063h1.781a2.7,2.7,0,0,0,.91-.148,2.107,2.107,0,0,0,.723-.426,1.931,1.931,0,0,0,.477-.68,2.275,2.275,0,0,0,.172-.9,1.756,1.756,0,0,0-.582-1.4,2.5,2.5,0,0,0-1.684-.5ZM87.293,13.32H81.645a2.992,2.992,0,0,0,.719,2.063,2.478,2.478,0,0,0,1.891.727,3.931,3.931,0,0,0,2.484-.891v1.2a4.643,4.643,0,0,1-2.789.766,3.381,3.381,0,0,1-2.664-1.09,4.461,4.461,0,0,1-.969-3.066,4.375,4.375,0,0,1,1.059-3.043A3.394,3.394,0,0,1,84,8.813a3.008,3.008,0,0,1,2.43,1.016,4.234,4.234,0,0,1,.859,2.82ZM85.98,12.234a2.607,2.607,0,0,0-.535-1.727,1.823,1.823,0,0,0-1.465-.617,2.07,2.07,0,0,0-1.539.648,2.943,2.943,0,0,0-.781,1.7ZM96.059,20.68H94.777V15.625h-.031a2.867,2.867,0,0,1-2.734,1.563,3.011,3.011,0,0,1-2.418-1.074,4.381,4.381,0,0,1-.91-2.926,4.791,4.791,0,0,1,1-3.184,3.328,3.328,0,0,1,2.688-1.191,2.523,2.523,0,0,1,2.375,1.3h.031V9h1.281ZM94.777,13.4V12.234a2.328,2.328,0,0,0-.645-1.664,2.158,2.158,0,0,0-1.637-.68,2.2,2.2,0,0,0-1.828.855A3.819,3.819,0,0,0,90,13.156a3.308,3.308,0,0,0,.648,2.168,2.069,2.069,0,0,0,1.672.785,2.254,2.254,0,0,0,1.793-.77A2.855,2.855,0,0,0,94.777,13.4ZM105.121,17H103.84V15.734h-.031a2.631,2.631,0,0,1-2.469,1.453q-2.859,0-2.859-3.406V9h1.273v4.578q0,2.531,1.938,2.531a1.96,1.96,0,0,0,1.543-.691,2.645,2.645,0,0,0,.605-1.809V9h1.281Zm3.242-10.031a.812.812,0,0,1-.586-.234.791.791,0,0,1-.242-.594.821.821,0,0,1,.828-.836.827.827,0,0,1,.6.238.835.835,0,0,1,0,1.184A.82.82,0,0,1,108.363,6.969ZM108.988,17h-1.281V9h1.281Zm2.109-.289V15.336a3.792,3.792,0,0,0,2.3.773q1.688,0,1.688-1.125a.976.976,0,0,0-.145-.543,1.44,1.44,0,0,0-.391-.395,3.007,3.007,0,0,0-.578-.309q-.332-.137-.715-.285a9.207,9.207,0,0,1-.934-.426,2.82,2.82,0,0,1-.672-.484,1.8,1.8,0,0,1-.406-.613,2.17,2.17,0,0,1-.137-.8,1.912,1.912,0,0,1,.258-1,2.286,2.286,0,0,1,.688-.727,3.206,3.206,0,0,1,.98-.441,4.349,4.349,0,0,1,1.137-.148,4.59,4.59,0,0,1,1.859.359v1.3A3.624,3.624,0,0,0,114,9.891a2.374,2.374,0,0,0-.648.082,1.587,1.587,0,0,0-.5.23,1.065,1.065,0,0,0-.32.355.936.936,0,0,0-.113.457,1.1,1.1,0,0,0,.113.523,1.152,1.152,0,0,0,.332.375,2.538,2.538,0,0,0,.531.3q.313.133.711.289a9.9,9.9,0,0,1,.953.418,3.269,3.269,0,0,1,.719.484,1.893,1.893,0,0,1,.457.621,2,2,0,0,1,.16.836,1.971,1.971,0,0,1-.262,1.031,2.243,2.243,0,0,1-.7.727,3.2,3.2,0,0,1-1.008.43,4.976,4.976,0,0,1-1.2.141A4.539,4.539,0,0,1,111.1,16.711Zm7.93-9.742a.812.812,0,0,1-.586-.234.791.791,0,0,1-.242-.594.821.821,0,0,1,.828-.836.827.827,0,0,1,.6.238.835.835,0,0,1,0,1.184A.82.82,0,0,1,119.027,6.969ZM119.652,17h-1.281V9h1.281Zm6.3-.078a2.47,2.47,0,0,1-1.2.25q-2.1,0-2.1-2.344V10.094h-1.375V9h1.375V7.047l1.281-.414V9h2.016v1.094h-2.016V14.6a1.869,1.869,0,0,0,.273,1.148,1.091,1.091,0,0,0,.906.344,1.347,1.347,0,0,0,.836-.266Zm5.055.266a3.711,3.711,0,0,1-2.832-1.121,4.153,4.153,0,0,1-1.059-2.973,4.326,4.326,0,0,1,1.1-3.148A3.96,3.96,0,0,1,131.2,8.813a3.588,3.588,0,0,1,2.793,1.1,4.368,4.368,0,0,1,1,3.055,4.3,4.3,0,0,1-1.082,3.066A3.791,3.791,0,0,1,131.012,17.188Zm.094-7.3a2.437,2.437,0,0,0-1.953.84,3.449,3.449,0,0,0-.719,2.316,3.262,3.262,0,0,0,.727,2.242,2.469,2.469,0,0,0,1.945.82,2.342,2.342,0,0,0,1.91-.8,3.492,3.492,0,0,0,.668-2.289,3.552,3.552,0,0,0-.668-2.312A2.332,2.332,0,0,0,131.105,9.891Zm5.453,6.82V15.336a3.792,3.792,0,0,0,2.3.773q1.688,0,1.688-1.125a.976.976,0,0,0-.145-.543,1.44,1.44,0,0,0-.391-.395,3.007,3.007,0,0,0-.578-.309q-.332-.137-.715-.285a9.207,9.207,0,0,1-.934-.426,2.82,2.82,0,0,1-.672-.484,1.8,1.8,0,0,1-.406-.613,2.17,2.17,0,0,1-.137-.8,1.912,1.912,0,0,1,.258-1,2.286,2.286,0,0,1,.688-.727,3.206,3.206,0,0,1,.98-.441,4.349,4.349,0,0,1,1.137-.148,4.59,4.59,0,0,1,1.859.359v1.3a3.624,3.624,0,0,0-2.031-.578,2.374,2.374,0,0,0-.648.082,1.587,1.587,0,0,0-.5.23,1.065,1.065,0,0,0-.32.355.936.936,0,0,0-.113.457,1.1,1.1,0,0,0,.113.523,1.152,1.152,0,0,0,.332.375,2.538,2.538,0,0,0,.531.3q.312.133.711.289a9.894,9.894,0,0,1,.953.418,3.269,3.269,0,0,1,.719.484,1.893,1.893,0,0,1,.457.621,2,2,0,0,1,.16.836,1.971,1.971,0,0,1-.262,1.031,2.243,2.243,0,0,1-.7.727,3.2,3.2,0,0,1-1.008.43,4.976,4.976,0,0,1-1.2.141A4.539,4.539,0,0,1,136.559,16.711ZM18.18,67V55.8h3.094q5.922,0,5.922,5.461a5.5,5.5,0,0,1-1.645,4.168A6.1,6.1,0,0,1,21.148,67Zm1.313-10.016v8.828h1.672a4.745,4.745,0,0,0,3.43-1.18,4.422,4.422,0,0,0,1.227-3.344q0-4.3-4.578-4.3Zm10.391-.016a.812.812,0,0,1-.586-.234.791.791,0,0,1-.242-.594.821.821,0,0,1,.828-.836.827.827,0,0,1,.6.238.835.835,0,0,1,0,1.184A.82.82,0,0,1,29.883,56.969ZM30.508,67H29.227V59h1.281Zm2.109-.289V65.336a3.792,3.792,0,0,0,2.3.773q1.688,0,1.688-1.125a.976.976,0,0,0-.145-.543,1.44,1.44,0,0,0-.391-.395,3.007,3.007,0,0,0-.578-.309q-.332-.137-.715-.285a9.206,9.206,0,0,1-.934-.426,2.82,2.82,0,0,1-.672-.484,1.8,1.8,0,0,1-.406-.613,2.17,2.17,0,0,1-.137-.8,1.912,1.912,0,0,1,.258-1,2.286,2.286,0,0,1,.688-.727,3.206,3.206,0,0,1,.98-.441,4.349,4.349,0,0,1,1.137-.148,4.59,4.59,0,0,1,1.859.359v1.3a3.624,3.624,0,0,0-2.031-.578,2.374,2.374,0,0,0-.648.082,1.587,1.587,0,0,0-.5.23,1.065,1.065,0,0,0-.32.355.936.936,0,0,0-.113.457,1.1,1.1,0,0,0,.113.523,1.152,1.152,0,0,0,.332.375,2.538,2.538,0,0,0,.531.3q.312.133.711.289a9.894,9.894,0,0,1,.953.418,3.269,3.269,0,0,1,.719.484,1.893,1.893,0,0,1,.457.621,2,2,0,0,1,.16.836,1.971,1.971,0,0,1-.262,1.031,2.243,2.243,0,0,1-.7.727,3.2,3.2,0,0,1-1.008.43,4.976,4.976,0,0,1-1.2.141A4.539,4.539,0,0,1,32.617,66.711Zm13.7-3.391H40.672a2.992,2.992,0,0,0,.719,2.063,2.478,2.478,0,0,0,1.891.727,3.931,3.931,0,0,0,2.484-.891v1.2a4.643,4.643,0,0,1-2.789.766,3.381,3.381,0,0,1-2.664-1.09,4.461,4.461,0,0,1-.969-3.066A4.375,4.375,0,0,1,40.4,59.988a3.394,3.394,0,0,1,2.629-1.176,3.008,3.008,0,0,1,2.43,1.016,4.234,4.234,0,0,1,.859,2.82Zm-1.312-1.086a2.607,2.607,0,0,0-.535-1.727,1.823,1.823,0,0,0-1.465-.617,2.07,2.07,0,0,0-1.539.648,2.943,2.943,0,0,0-.781,1.7ZM54.9,67H53.617V62.438q0-2.547-1.859-2.547a2.017,2.017,0,0,0-1.59.723,2.679,2.679,0,0,0-.629,1.824V67H48.258V59h1.281v1.328h.031A2.887,2.887,0,0,1,52.2,58.813a2.448,2.448,0,0,1,2.008.848,3.776,3.776,0,0,1,.7,2.449Zm-.844-11.391a2.235,2.235,0,0,1-.375,1.34,1.188,1.188,0,0,1-1.016.52,2.621,2.621,0,0,1-1.266-.406,2.143,2.143,0,0,0-.93-.336q-.687,0-.687.883h-.734a2.192,2.192,0,0,1,.375-1.34,1.23,1.23,0,0,1,1.047-.5,2.286,2.286,0,0,1,1.164.406,2.043,2.043,0,0,0,1,.344q.656,0,.656-.906Zm6.6,11.578a3.711,3.711,0,0,1-2.832-1.121,4.153,4.153,0,0,1-1.059-2.973,4.326,4.326,0,0,1,1.1-3.148,3.96,3.96,0,0,1,2.977-1.133,3.588,3.588,0,0,1,2.793,1.1,4.368,4.368,0,0,1,1,3.055,4.3,4.3,0,0,1-1.082,3.066A3.791,3.791,0,0,1,60.656,67.188Zm.094-7.3a2.437,2.437,0,0,0-1.953.84,3.449,3.449,0,0,0-.719,2.316,3.262,3.262,0,0,0,.727,2.242,2.469,2.469,0,0,0,1.945.82,2.342,2.342,0,0,0,1.91-.8,3.492,3.492,0,0,0,.668-2.289A3.552,3.552,0,0,0,62.66,60.7,2.332,2.332,0,0,0,60.75,59.891ZM77.5,63.32H71.852a2.992,2.992,0,0,0,.719,2.063,2.478,2.478,0,0,0,1.891.727,3.931,3.931,0,0,0,2.484-.891v1.2a4.643,4.643,0,0,1-2.789.766,3.381,3.381,0,0,1-2.664-1.09,4.461,4.461,0,0,1-.969-3.066,4.375,4.375,0,0,1,1.059-3.043,3.394,3.394,0,0,1,2.629-1.176,3.008,3.008,0,0,1,2.43,1.016,4.234,4.234,0,0,1,.859,2.82Zm-1.312-1.086a2.607,2.607,0,0,0-.535-1.727,1.823,1.823,0,0,0-1.465-.617,2.07,2.07,0,0,0-1.539.648,2.943,2.943,0,0,0-.781,1.7Zm8.289-5.266a.812.812,0,0,1-.586-.234.791.791,0,0,1-.242-.594.821.821,0,0,1,.828-.836.827.827,0,0,1,.6.238.835.835,0,0,1,0,1.184A.82.82,0,0,1,84.477,56.969ZM85.1,67H83.82V59H85.1Zm13.953,0H97.773V62.406a3.466,3.466,0,0,0-.41-1.922,1.555,1.555,0,0,0-1.379-.594,1.708,1.708,0,0,0-1.395.75,2.869,2.869,0,0,0-.574,1.8V67H92.734V62.25q0-2.359-1.82-2.359a1.686,1.686,0,0,0-1.391.707,2.923,2.923,0,0,0-.547,1.84V67H87.7V59h1.281v1.266h.031a2.718,2.718,0,0,1,2.484-1.453,2.311,2.311,0,0,1,2.266,1.656,2.855,2.855,0,0,1,2.656-1.656q2.641,0,2.641,3.258Zm3.734-1.156h-.031V70.68h-1.281V59h1.281v1.406h.031a3.03,3.03,0,0,1,2.766-1.594,2.93,2.93,0,0,1,2.414,1.074,4.449,4.449,0,0,1,.867,2.879,4.959,4.959,0,0,1-.977,3.215,3.251,3.251,0,0,1-2.672,1.207A2.676,2.676,0,0,1,102.789,65.844Zm-.031-3.227v1.117a2.379,2.379,0,0,0,.645,1.684,2.3,2.3,0,0,0,3.461-.2,4.086,4.086,0,0,0,.66-2.477,3.225,3.225,0,0,0-.617-2.094,2.043,2.043,0,0,0-1.672-.758,2.27,2.27,0,0,0-1.8.777A2.854,2.854,0,0,0,102.758,62.617ZM112.164,67h-1.281V55.156h1.281Zm9.023-3.68h-5.648a2.992,2.992,0,0,0,.719,2.063,2.478,2.478,0,0,0,1.891.727,3.931,3.931,0,0,0,2.484-.891v1.2a4.643,4.643,0,0,1-2.789.766,3.381,3.381,0,0,1-2.664-1.09,4.461,4.461,0,0,1-.969-3.066,4.375,4.375,0,0,1,1.059-3.043,3.394,3.394,0,0,1,2.629-1.176,3.008,3.008,0,0,1,2.43,1.016,4.234,4.234,0,0,1,.859,2.82Zm-1.312-1.086a2.607,2.607,0,0,0-.535-1.727,1.823,1.823,0,0,0-1.465-.617,2.07,2.07,0,0,0-1.539.648,2.943,2.943,0,0,0-.781,1.7ZM134.484,67H133.2V62.406a3.466,3.466,0,0,0-.41-1.922,1.555,1.555,0,0,0-1.379-.594,1.708,1.708,0,0,0-1.395.75,2.869,2.869,0,0,0-.574,1.8V67h-1.281V62.25q0-2.359-1.82-2.359a1.686,1.686,0,0,0-1.391.707,2.923,2.923,0,0,0-.547,1.84V67h-1.281V59h1.281v1.266h.031a2.718,2.718,0,0,1,2.484-1.453,2.311,2.311,0,0,1,2.266,1.656,2.855,2.855,0,0,1,2.656-1.656q2.641,0,2.641,3.258Zm8.852-3.68h-5.648a2.992,2.992,0,0,0,.719,2.063,2.478,2.478,0,0,0,1.891.727,3.931,3.931,0,0,0,2.484-.891v1.2a4.643,4.643,0,0,1-2.789.766,3.381,3.381,0,0,1-2.664-1.09,4.461,4.461,0,0,1-.969-3.066,4.374,4.374,0,0,1,1.059-3.043,3.394,3.394,0,0,1,2.629-1.176,3.008,3.008,0,0,1,2.43,1.016,4.234,4.234,0,0,1,.859,2.82Zm-1.312-1.086a2.607,2.607,0,0,0-.535-1.727,1.823,1.823,0,0,0-1.465-.617,2.07,2.07,0,0,0-1.539.648,2.943,2.943,0,0,0-.781,1.7ZM151.914,67h-1.281V62.438q0-2.547-1.859-2.547a2.017,2.017,0,0,0-1.59.723,2.679,2.679,0,0,0-.629,1.824V67h-1.281V59h1.281v1.328h.031a2.887,2.887,0,0,1,2.625-1.516,2.448,2.448,0,0,1,2.008.848,3.776,3.776,0,0,1,.7,2.449Zm6.125-.078a2.47,2.47,0,0,1-1.2.25q-2.1,0-2.1-2.344V60.094h-1.375V59h1.375V57.047l1.281-.414V59h2.016v1.094h-2.016V64.6a1.869,1.869,0,0,0,.273,1.148,1.091,1.091,0,0,0,.906.344,1.347,1.347,0,0,0,.836-.266Zm7.438.078H164.2V65.75h-.031a2.682,2.682,0,0,1-2.461,1.438,2.63,2.63,0,0,1-1.871-.633,2.192,2.192,0,0,1-.676-1.68q0-2.242,2.641-2.609l2.4-.336q0-2.039-1.648-2.039a3.938,3.938,0,0,0-2.609.984V59.563a4.958,4.958,0,0,1,2.719-.75q2.82,0,2.82,2.984ZM164.2,62.953l-1.93.266a3.133,3.133,0,0,0-1.344.441,1.273,1.273,0,0,0-.453,1.121,1.221,1.221,0,0,0,.418.957,1.615,1.615,0,0,0,1.113.371,2.056,2.056,0,0,0,1.574-.668,2.387,2.387,0,0,0,.621-1.691Zm9.148,3.68a4.163,4.163,0,0,1-2.187.555,3.622,3.622,0,0,1-2.762-1.113,4.035,4.035,0,0,1-1.051-2.887,4.435,4.435,0,0,1,1.133-3.176,3.963,3.963,0,0,1,3.023-1.2,4.208,4.208,0,0,1,1.859.391v1.313a3.258,3.258,0,0,0-1.906-.625,2.576,2.576,0,0,0-2.012.879,3.335,3.335,0,0,0-.785,2.309,3.176,3.176,0,0,0,.738,2.219,2.545,2.545,0,0,0,1.98.813,3.211,3.211,0,0,0,1.969-.7Zm2.594-9.664a.812.812,0,0,1-.586-.234.791.791,0,0,1-.242-.594.821.821,0,0,1,.828-.836.827.827,0,0,1,.6.238.835.835,0,0,1,0,1.184A.82.82,0,0,1,175.938,56.969ZM176.563,67h-1.281V59h1.281Zm5.938.188a3.711,3.711,0,0,1-2.832-1.121,4.153,4.153,0,0,1-1.059-2.973,4.326,4.326,0,0,1,1.1-3.148,3.96,3.96,0,0,1,2.977-1.133,3.588,3.588,0,0,1,2.793,1.1,4.368,4.368,0,0,1,1,3.055,4.3,4.3,0,0,1-1.082,3.066A3.791,3.791,0,0,1,182.5,67.188Zm.094-7.3a2.437,2.437,0,0,0-1.953.84,3.449,3.449,0,0,0-.719,2.316,3.262,3.262,0,0,0,.727,2.242,2.469,2.469,0,0,0,1.945.82,2.342,2.342,0,0,0,1.91-.8,3.492,3.492,0,0,0,.668-2.289A3.552,3.552,0,0,0,184.5,60.7,2.332,2.332,0,0,0,182.594,59.891Zm1.875-4.969-2.047,2.563h-.992l1.742-2.562ZM195.172,67h-1.281V62.438q0-2.547-1.859-2.547a2.017,2.017,0,0,0-1.59.723,2.679,2.679,0,0,0-.629,1.824V67h-1.281V59h1.281v1.328h.031a2.887,2.887,0,0,1,2.625-1.516,2.448,2.448,0,0,1,2.008.848,3.776,3.776,0,0,1,.7,2.449ZM81.141,112.766V117H79.828V105.8h3.078a4.063,4.063,0,0,1,2.785.875,3.124,3.124,0,0,1,.988,2.469,3.4,3.4,0,0,1-1.1,2.609,4.194,4.194,0,0,1-2.965,1.016Zm0-5.781v4.594h1.375a3.074,3.074,0,0,0,2.074-.621A2.2,2.2,0,0,0,85.3,109.2q0-2.219-2.625-2.219ZM92.789,110.3a1.567,1.567,0,0,0-.969-.258,1.635,1.635,0,0,0-1.371.773,3.576,3.576,0,0,0-.551,2.109V117H88.617v-8H89.9v1.648h.031a2.793,2.793,0,0,1,.836-1.316,1.906,1.906,0,0,1,1.258-.473,2.092,2.092,0,0,1,.766.109Zm7.859,6.7H99.367v-1.266h-.031a2.631,2.631,0,0,1-2.469,1.453q-2.859,0-2.859-3.406V109h1.273v4.578q0,2.531,1.938,2.531a1.96,1.96,0,0,0,1.543-.691,2.645,2.645,0,0,0,.605-1.809V109h1.281Zm9.016-3.68h-5.648a2.992,2.992,0,0,0,.719,2.063,2.478,2.478,0,0,0,1.891.727,3.931,3.931,0,0,0,2.484-.891v1.2a4.643,4.643,0,0,1-2.789.766,3.381,3.381,0,0,1-2.664-1.09,4.461,4.461,0,0,1-.969-3.066,4.375,4.375,0,0,1,1.059-3.043,3.394,3.394,0,0,1,2.629-1.176,3.008,3.008,0,0,1,2.43,1.016,4.234,4.234,0,0,1,.859,2.82Zm-1.312-1.086a2.607,2.607,0,0,0-.535-1.727,1.823,1.823,0,0,0-1.465-.617,2.07,2.07,0,0,0-1.539.648,2.943,2.943,0,0,0-.781,1.7Zm4.563,3.609h-.031V117H111.6V105.156h1.281v5.25h.031a3.03,3.03,0,0,1,2.766-1.594,2.932,2.932,0,0,1,2.41,1.074,4.436,4.436,0,0,1,.871,2.879,4.959,4.959,0,0,1-.977,3.215,3.251,3.251,0,0,1-2.672,1.207A2.631,2.631,0,0,1,112.914,115.844Zm-.031-3.227v1.117a2.379,2.379,0,0,0,.645,1.684,2.3,2.3,0,0,0,3.461-.2,4.086,4.086,0,0,0,.66-2.477,3.225,3.225,0,0,0-.617-2.094,2.043,2.043,0,0,0-1.672-.758,2.27,2.27,0,0,0-1.8.777A2.854,2.854,0,0,0,112.883,112.617ZM126.734,117h-1.281v-1.25h-.031a2.682,2.682,0,0,1-2.461,1.438,2.63,2.63,0,0,1-1.871-.633,2.192,2.192,0,0,1-.676-1.68q0-2.242,2.641-2.609l2.4-.336q0-2.039-1.648-2.039a3.938,3.938,0,0,0-2.609.984v-1.312a4.958,4.958,0,0,1,2.719-.75q2.82,0,2.82,2.984Zm-1.281-4.047-1.93.266a3.133,3.133,0,0,0-1.344.441,1.273,1.273,0,0,0-.453,1.121,1.221,1.221,0,0,0,.418.957,1.615,1.615,0,0,0,1.113.371,2.056,2.056,0,0,0,1.574-.668,2.387,2.387,0,0,0,.621-1.691Zm3.211,3.758v-1.375a3.792,3.792,0,0,0,2.3.773q1.688,0,1.688-1.125a.976.976,0,0,0-.145-.543,1.441,1.441,0,0,0-.391-.395,3.007,3.007,0,0,0-.578-.309q-.332-.137-.715-.285a9.207,9.207,0,0,1-.934-.426,2.82,2.82,0,0,1-.672-.484,1.8,1.8,0,0,1-.406-.613,2.17,2.17,0,0,1-.137-.8,1.912,1.912,0,0,1,.258-1,2.286,2.286,0,0,1,.688-.727,3.206,3.206,0,0,1,.98-.441,4.349,4.349,0,0,1,1.137-.148,4.59,4.59,0,0,1,1.859.359v1.3a3.624,3.624,0,0,0-2.031-.578,2.374,2.374,0,0,0-.648.082,1.587,1.587,0,0,0-.5.23,1.065,1.065,0,0,0-.32.355.936.936,0,0,0-.113.457,1.1,1.1,0,0,0,.113.523,1.152,1.152,0,0,0,.332.375,2.538,2.538,0,0,0,.531.3q.312.133.711.289a9.894,9.894,0,0,1,.953.418,3.269,3.269,0,0,1,.719.484,1.893,1.893,0,0,1,.457.621,2,2,0,0,1,.16.836,1.971,1.971,0,0,1-.262,1.031,2.243,2.243,0,0,1-.7.727,3.2,3.2,0,0,1-1.008.43,4.976,4.976,0,0,1-1.2.141A4.539,4.539,0,0,1,128.664,116.711Z" transform="translate(923.5 7925.335)" fill="#12263f"/>
    <path id="Trazado_192373" data-name="Trazado 192373" d="M25.008,17h-2.9l-1.742-2.883q-.2-.328-.375-.586a3.255,3.255,0,0,0-.363-.441,1.445,1.445,0,0,0-.383-.281.972.972,0,0,0-.434-.1h-.68V17H15.609V5.8h4q4.078,0,4.078,3.047a3.155,3.155,0,0,1-.18,1.082A3.006,3.006,0,0,1,23,10.82a3.219,3.219,0,0,1-.793.688,4.089,4.089,0,0,1-1.035.453v.031a1.606,1.606,0,0,1,.484.254,3.469,3.469,0,0,1,.453.41,5.722,5.722,0,0,1,.418.5q.2.27.363.527ZM18.133,7.688V10.8h1.094a1.813,1.813,0,0,0,1.3-.469,1.564,1.564,0,0,0,.5-1.18q0-1.469-1.758-1.469ZM32.6,13.7H27.383q.125,1.742,2.2,1.742a4.286,4.286,0,0,0,2.32-.625V16.6a6.1,6.1,0,0,1-2.883.594,4.058,4.058,0,0,1-3.008-1.074,4.058,4.058,0,0,1-1.07-3,4.281,4.281,0,0,1,1.156-3.156A3.852,3.852,0,0,1,28.938,8.8a3.5,3.5,0,0,1,2.707,1.039,4,4,0,0,1,.957,2.82Zm-2.289-1.516q0-1.719-1.391-1.719a1.328,1.328,0,0,0-1.027.492,2.234,2.234,0,0,0-.527,1.227ZM36.539,17H34.07V5.156h2.469ZM45.8,13.7H40.586q.125,1.742,2.2,1.742a4.286,4.286,0,0,0,2.32-.625V16.6a6.1,6.1,0,0,1-2.883.594,4.058,4.058,0,0,1-3.008-1.074,4.058,4.058,0,0,1-1.07-3A4.281,4.281,0,0,1,39.3,9.969,3.852,3.852,0,0,1,42.141,8.8a3.5,3.5,0,0,1,2.707,1.039,4,4,0,0,1,.957,2.82Zm-2.289-1.516q0-1.719-1.391-1.719a1.328,1.328,0,0,0-1.027.492,2.234,2.234,0,0,0-.527,1.227ZM53.93,17H51.594V15.852h-.031A2.607,2.607,0,0,1,49.18,17.2a2.492,2.492,0,0,1-1.832-.66,2.366,2.366,0,0,1-.668-1.762q0-2.328,2.758-2.687l2.172-.289q0-1.312-1.422-1.312a4.853,4.853,0,0,0-2.719.852V9.477a6.116,6.116,0,0,1,1.41-.469,7.413,7.413,0,0,1,1.629-.2q3.422,0,3.422,3.414Zm-2.32-3.25v-.539l-1.453.188q-1.2.156-1.2,1.086a.9.9,0,0,0,.293.691,1.126,1.126,0,0,0,.793.27,1.462,1.462,0,0,0,1.133-.48A1.735,1.735,0,0,0,51.609,13.75Zm3.75,3.039v-2a5.256,5.256,0,0,0,1.215.547,4.028,4.028,0,0,0,1.145.18,2.455,2.455,0,0,0,1.035-.18.581.581,0,0,0,.379-.547.506.506,0,0,0-.172-.391,1.6,1.6,0,0,0-.441-.273,5.009,5.009,0,0,0-.59-.211q-.32-.094-.617-.211a5.914,5.914,0,0,1-.84-.387,2.427,2.427,0,0,1-.609-.48,1.889,1.889,0,0,1-.375-.633,2.525,2.525,0,0,1-.129-.852,2.192,2.192,0,0,1,.293-1.156,2.393,2.393,0,0,1,.781-.793,3.57,3.57,0,0,1,1.117-.453A5.825,5.825,0,0,1,58.859,8.8a7.261,7.261,0,0,1,1.078.082,8.047,8.047,0,0,1,1.078.238v1.906a3.9,3.9,0,0,0-1-.41,4.235,4.235,0,0,0-1.051-.137,2.328,2.328,0,0,0-.457.043,1.505,1.505,0,0,0-.379.125.7.7,0,0,0-.258.211.486.486,0,0,0-.094.293.541.541,0,0,0,.141.375,1.221,1.221,0,0,0,.367.27,3.625,3.625,0,0,0,.5.2q.277.09.551.184a7.161,7.161,0,0,1,.891.375,2.848,2.848,0,0,1,.684.477,1.871,1.871,0,0,1,.438.641,2.563,2.563,0,0,1-.156,2.09,2.471,2.471,0,0,1-.82.82,3.72,3.72,0,0,1-1.18.461A6.54,6.54,0,0,1,57.8,17.2,7.149,7.149,0,0,1,55.359,16.789ZM70.109,13.7H64.891q.125,1.742,2.2,1.742a4.286,4.286,0,0,0,2.32-.625V16.6a6.1,6.1,0,0,1-2.883.594,4.058,4.058,0,0,1-3.008-1.074,4.058,4.058,0,0,1-1.07-3A4.281,4.281,0,0,1,63.6,9.969,3.852,3.852,0,0,1,66.445,8.8a3.5,3.5,0,0,1,2.707,1.039,4,4,0,0,1,.957,2.82ZM67.82,12.188q0-1.719-1.391-1.719a1.328,1.328,0,0,0-1.027.492,2.234,2.234,0,0,0-.527,1.227Zm10-6.391L72.359,18.859h-2.2L75.594,5.8ZM85.859,13.7H80.641q.125,1.742,2.2,1.742a4.286,4.286,0,0,0,2.32-.625V16.6a6.1,6.1,0,0,1-2.883.594,4.058,4.058,0,0,1-3.008-1.074,4.058,4.058,0,0,1-1.07-3,4.281,4.281,0,0,1,1.156-3.156A3.852,3.852,0,0,1,82.2,8.8,3.5,3.5,0,0,1,84.9,9.844a4,4,0,0,1,.957,2.82ZM83.57,12.188q0-1.719-1.391-1.719a1.328,1.328,0,0,0-1.027.492,2.234,2.234,0,0,0-.527,1.227ZM95.055,17H92.594V12.555q0-1.859-1.328-1.859a1.318,1.318,0,0,0-1.055.492,1.875,1.875,0,0,0-.414,1.25V17H87.328V9H89.8v1.266h.031A2.829,2.829,0,0,1,92.4,8.8q2.656,0,2.656,3.3Zm6.789-.094a3.649,3.649,0,0,1-1.648.289q-2.609,0-2.609-2.711V10.82h-1.3V9h1.3V7.273l2.461-.7V9h1.8v1.82h-1.8v3.234q0,1.25.992,1.25a1.673,1.673,0,0,0,.8-.227Zm6.609-5.68a2.141,2.141,0,0,0-1.039-.242,1.5,1.5,0,0,0-1.258.59,2.573,2.573,0,0,0-.453,1.605V17h-2.469V9H105.7v1.484h.031a2.136,2.136,0,0,1,2.109-1.625,1.59,1.59,0,0,1,.609.094Zm8.273,2.477h-5.219q.125,1.742,2.2,1.742a4.286,4.286,0,0,0,2.32-.625V16.6a6.1,6.1,0,0,1-2.883.594,4.058,4.058,0,0,1-3.008-1.074,4.058,4.058,0,0,1-1.07-3,4.281,4.281,0,0,1,1.156-3.156A3.852,3.852,0,0,1,113.063,8.8a3.5,3.5,0,0,1,2.707,1.039,4,4,0,0,1,.957,2.82Zm-2.289-1.516q0-1.719-1.391-1.719a1.328,1.328,0,0,0-1.027.492,2.234,2.234,0,0,0-.527,1.227Zm11.6,3.9a4.526,4.526,0,0,1-1.289,3.449,5.224,5.224,0,0,1-3.734,1.223,5.919,5.919,0,0,1-2.562-.461V18.219a4.907,4.907,0,0,0,2.492.719,2.684,2.684,0,0,0,1.938-.66,2.369,2.369,0,0,0,.688-1.793v-.633h-.031a2.757,2.757,0,0,1-2.492,1.344,3,3,0,0,1-2.43-1.078,4.372,4.372,0,0,1-.9-2.891,4.87,4.87,0,0,1,1-3.227,3.265,3.265,0,0,1,2.633-1.2,2.429,2.429,0,0,1,2.188,1.125h.031V9h2.469Zm-2.437-2.93v-.633a1.945,1.945,0,0,0-.449-1.293,1.453,1.453,0,0,0-1.168-.535,1.51,1.51,0,0,0-1.289.641,3.012,3.012,0,0,0-.469,1.8,2.543,2.543,0,0,0,.445,1.582,1.451,1.451,0,0,0,1.219.582,1.511,1.511,0,0,0,1.238-.59A2.418,2.418,0,0,0,123.6,13.156ZM134.758,17h-2.336V15.852h-.031a2.607,2.607,0,0,1-2.383,1.344,2.492,2.492,0,0,1-1.832-.66,2.366,2.366,0,0,1-.668-1.762q0-2.328,2.758-2.687l2.172-.289q0-1.312-1.422-1.312a4.853,4.853,0,0,0-2.719.852V9.477a6.116,6.116,0,0,1,1.41-.469,7.413,7.413,0,0,1,1.629-.2q3.422,0,3.422,3.414Zm-2.32-3.25v-.539l-1.453.188q-1.2.156-1.2,1.086a.9.9,0,0,0,.293.691,1.126,1.126,0,0,0,.793.27,1.462,1.462,0,0,0,1.133-.48A1.735,1.735,0,0,0,132.438,13.75Z" transform="translate(1230 8085)" fill="#12263f"/>
    <g id="Grupo_93936" data-name="Grupo 93936" transform="translate(1296 7818.072)" clip-path="url(#clip-path)">
      <path id="Trazado_190304" data-name="Trazado 190304" d="M14.753,243.673l12.465-19.16a1.245,1.245,0,0,0-1.043-1.923H23.1a1.243,1.243,0,0,1-1.244-1.243V0H5.569V221.347a1.243,1.243,0,0,1-1.244,1.243H1.246A1.244,1.244,0,0,0,.2,224.513l12.465,19.16a1.244,1.244,0,0,0,2.085,0" fill="#1565c0"/>
    </g>
  </g>
</svg>
